<svg width="40" height="37" viewBox="0 0 40 37" fill="none" xmlns="http://www.w3.org/2000/svg">
<path d="M29.0004 33.3025L29.1677 32.2153L29.1646 32.2148L29.0004 33.3025ZM8.74828 1.99593C8.30281 1.58285 7.60683 1.60911 7.19376 2.05459L0.462355 9.31394C0.0492829 9.75941 0.0755465 10.4554 0.521017 10.8684C0.966487 11.2815 1.66247 11.2553 2.07554 10.8098L8.05901 4.35705L14.5118 10.3405C14.9573 10.7536 15.6533 10.7273 16.0663 10.2819C16.4794 9.83639 16.4532 9.1404 16.0077 8.72733L8.74828 1.99593ZM35.5004 34.3025L35.333 35.3898L35.3447 35.3914L35.5004 34.3025ZM29.1646 32.2148C24.9947 31.5854 20.1921 29.3847 16.3296 24.7943C12.4709 20.2084 9.49223 13.1665 9.09957 2.76104L6.90113 2.844C7.30847 13.6385 10.4132 21.1799 14.6462 26.2107C18.8754 31.2369 24.1727 33.6863 28.8362 34.3902L29.1646 32.2148ZM28.8331 34.3897L35.333 35.3898L35.6677 33.2153L29.1677 32.2153L28.8331 34.3897ZM35.3447 35.3914L38.8447 35.8914L39.156 33.7136L35.656 33.2136L35.3447 35.3914Z" fill="#05C148"/>
</svg>
