<svg width="51" height="46" viewBox="0 0 51 46" fill="none" xmlns="http://www.w3.org/2000/svg">
<path id="path1980" d="M19.5103 21.7933L21.1499 15.2764L27.6141 13.4371L32.4364 18.116L30.7967 24.6329L24.3347 26.4709L19.5103 21.7933ZM20.9119 44.3716L21.8662 40.5802L24.1919 43.0383C24.5903 43.4598 25.2546 43.4776 25.6761 43.0792C26.0958 42.6804 26.1167 42.0186 25.7166 41.5967L22.4733 38.167L23.2222 35.1879L25.5493 37.648C25.9481 38.0678 26.6121 38.0873 27.0318 37.6885C27.4532 37.2902 27.4728 36.6262 27.0744 36.2047L23.8294 32.7746L24.9305 28.402L31.307 26.5888L34.5436 29.7275L33.5908 34.3515C33.5549 34.522 33.5647 34.6917 33.6078 34.8505C33.7112 35.214 34.01 35.5096 34.4069 35.592C34.9748 35.7086 35.5291 35.3434 35.6458 34.7755L36.3308 31.4599L38.5344 33.5977L37.5815 38.2217C37.5456 38.3922 37.555 38.5636 37.6002 38.7211C37.7037 39.0846 38.0007 39.3798 38.3977 39.4622C38.9655 39.5788 39.5199 39.2136 39.6365 38.6457L40.3215 35.3301L43.1293 38.0533C43.5445 38.4566 44.2094 38.4473 44.6114 38.03C45.0168 37.6135 45.0053 36.9499 44.5902 36.5466L41.7823 33.8234L45.0755 33.0393C45.6387 32.9054 45.9861 32.3395 45.8526 31.7745C45.7249 31.2163 45.1511 30.8634 44.5879 30.9973L39.9952 32.091L37.7916 29.9532L41.083 29.1687C41.6483 29.0335 41.9958 28.4675 41.8619 27.9043C41.7317 27.3328 41.1604 26.9932 40.5972 27.1271L36.0045 28.2208L32.7695 25.0825L34.3865 18.6516L38.7222 17.4191L42.2505 20.5568C42.6824 20.942 43.3466 20.9033 43.7321 20.4697C44.1177 20.036 44.0769 19.3732 43.645 18.988L41.1165 16.7382L44.0708 15.8973L47.5987 19.0367C48.0309 19.4201 48.6951 19.3815 49.0785 18.9492C49.4658 18.516 49.4254 17.8514 48.9935 17.4662L46.4629 15.2178L50.2254 14.1479C50.7832 13.9891 51.1048 13.4084 50.9478 12.851C50.7891 12.2932 50.2087 11.9698 49.6509 12.1286L45.8884 13.1985L46.8562 9.95456C47.0207 9.40096 46.7059 8.8159 46.1492 8.64893C45.5938 8.48408 45.0101 8.80098 44.8435 9.35594L43.4959 13.8797L40.542 14.7189L41.5077 11.4764C41.6721 10.9228 41.3577 10.336 40.8024 10.1711C40.2474 10.0045 39.662 10.3211 39.4971 10.8764L38.1477 15.3998L33.8116 16.6341L29.0518 12.0181L30.153 7.64556L34.6323 6.15891C35.1826 5.97663 35.4886 5.37608 35.2992 4.83335C35.1169 4.28309 34.5221 3.98385 33.9718 4.16613L30.7602 5.23234L31.5086 2.25492L35.9898 0.768648C36.54 0.586368 36.8439 -0.0128553 36.6553 -0.559061C36.473 -1.10932 35.8795 -1.40641 35.3293 -1.22413L32.1158 -0.158314L33.0705 -3.95146C33.211 -4.51219 32.8715 -5.08449 32.3091 -5.22542C31.7466 -5.36635 31.176 -5.02652 31.0351 -4.46406L30.0805 -0.670908L27.7551 -3.1307C27.3564 -3.55043 26.6924 -3.56997 26.2709 -3.1716C25.9778 -2.89232 25.8784 -2.48457 25.9836 -2.12074C26.0271 -1.9636 26.1088 -1.81439 26.23 -1.68739L29.4733 1.74232L28.7244 4.72147L26.3991 2.2617C26.0003 1.84197 25.3363 1.8224 24.9148 2.22077C24.62 2.49967 24.5227 2.9061 24.6258 3.27128C24.671 3.4288 24.7531 3.57625 24.8739 3.70499L28.1176 7.13297L27.0165 11.5055L20.6397 13.3205L17.403 10.1818L18.3558 5.55785C18.4738 4.99213 18.1089 4.43604 17.5414 4.31768C16.9736 4.20105 16.4175 4.56597 16.3009 5.13381L15.6176 8.4498L13.4127 6.30988L14.3655 1.68594C14.4838 1.11848 14.1168 0.56374 13.549 0.44711C12.9811 0.330484 12.4268 0.695783 12.3101 1.26363L11.6255 4.57751L8.81941 1.85465C8.40254 1.45094 7.73721 1.46207 7.33562 1.87758C7.06449 2.15626 6.97937 2.54897 7.07896 2.89699C7.12672 3.06782 7.22037 3.22877 7.35681 3.36096L10.1647 6.0842L6.87118 6.8701C6.30797 7.00398 5.9605 7.56986 6.09438 8.13307L6.10637 8.17762C6.26029 8.71614 6.81094 9.04202 7.35873 8.91201L11.9518 7.81658L14.1554 9.95439L10.8636 10.7407C10.3004 10.8745 9.95122 11.44 10.0865 12.0054L10.0971 12.0478C10.251 12.5863 10.8017 12.9122 11.3494 12.7822L15.9425 11.6868L19.1775 14.8251L17.5605 21.256L13.2244 22.4902L9.69786 19.3529C9.26423 18.9674 8.60009 19.006 8.21626 19.44C7.83069 19.8737 7.86977 20.5361 8.30166 20.9213L10.8322 23.1697L7.87627 24.0103L4.34971 20.873C3.91569 20.4892 3.25329 20.5282 2.86811 20.9601C2.48216 21.3955 2.52296 22.0583 2.95524 22.4417L5.48369 24.6916L1.72121 25.7615C1.16515 25.9206 0.841789 26.501 0.998809 27.0584C1.15795 27.6144 1.7383 27.9378 2.29609 27.779L6.0582 26.7108L5.09043 29.9548C5.03196 30.153 5.03481 30.354 5.08818 30.5407C5.18177 30.8746 5.44041 31.154 5.79746 31.2604C6.35281 31.4252 6.93651 31.1083 7.10309 30.5534L8.45077 26.0296L11.405 25.1886L10.439 28.4329C10.3805 28.6312 10.3829 28.8339 10.4346 29.0202C10.5303 29.3528 10.7889 29.6322 11.146 29.7386C11.7013 29.9034 12.2847 29.5883 12.4512 29.0333L13.7993 24.5078L18.135 23.2752L22.8948 27.8912L21.7937 32.2638L17.3147 33.7487C16.7781 33.9267 16.4812 34.4947 16.6355 35.0315L16.6475 35.076C16.8297 35.6263 17.4249 35.9237 17.9752 35.7415L21.1869 34.6753L20.438 37.6544L15.9569 39.1407C15.422 39.3191 15.1251 39.887 15.2777 40.4234L15.2914 40.4684C15.4737 41.0186 16.0688 41.3161 16.6191 41.1339L19.8308 40.0676L18.8762 43.8608C18.8298 44.0454 18.8358 44.2325 18.8835 44.4033C18.9831 44.7513 19.2618 45.0388 19.6376 45.1348C20.2 45.2757 20.771 44.9341 20.9119 44.3716Z" fill="#E7F1FF" fill-opacity="0.44"/>
</svg>
