<svg width="46" height="43" viewBox="0 0 46 43" fill="none" xmlns="http://www.w3.org/2000/svg">
<path id="path1980" d="M17.0606 29.147L17.2527 22.4298L23.1663 19.2365L28.8861 22.7623L28.6941 29.4796L22.7822 32.6711L17.0606 29.147ZM23.3103 50.8884L23.4223 46.9804L26.2245 48.8775C26.7045 49.2029 27.357 49.0766 27.6824 48.5966C28.006 48.1165 27.8833 47.4658 27.4015 47.1404L23.4934 44.493L23.5806 41.4224L26.3845 43.3213C26.8645 43.6449 27.5171 43.5204 27.8406 43.0403C28.166 42.5603 28.0416 41.9078 27.5615 41.5824L23.6517 38.9349L23.7815 34.4277L29.6151 31.2789L33.4538 33.6436L33.5231 38.3642C33.5249 38.5384 33.5712 38.702 33.6476 38.8478C33.8272 39.1803 34.1828 39.4043 34.5882 39.399C35.1678 39.3901 35.6301 38.9136 35.6212 38.334L35.5732 34.9487L38.1868 36.5595L38.2562 41.2801C38.258 41.4544 38.3042 41.6197 38.3824 41.7637C38.562 42.0962 38.9158 42.3202 39.3212 42.3149C39.9008 42.306 40.3631 41.8295 40.3542 41.2499L40.3062 37.8646L43.6364 39.9164C44.1289 40.2204 44.7761 40.0675 45.0784 39.5732C45.3842 39.079 45.2295 38.4336 44.737 38.1295L41.4068 36.0777L44.4525 34.6002C44.9735 34.3477 45.1904 33.7201 44.9379 33.1973C44.6925 32.6799 44.056 32.4595 43.535 32.7119L39.2874 34.7726L36.6738 33.1618L39.7177 31.6843C40.2404 31.43 40.4573 30.8024 40.2049 30.2814C39.9542 29.7516 39.323 29.5435 38.802 29.796L34.5544 31.8567L30.7175 29.492L30.9059 22.8636L34.8726 20.7229L38.9958 23.0236C39.5008 23.3063 40.1409 23.125 40.4236 22.6182C40.7063 22.1115 40.5231 21.4732 40.0182 21.1905L37.0631 19.5405L39.7657 18.0808L43.8889 20.3833C44.3938 20.6642 45.0339 20.4829 45.3148 19.9779C45.5993 19.4712 45.4162 18.8311 44.9112 18.5484L41.9544 16.9002L45.3966 15.0422C45.9069 14.7666 46.0954 14.1301 45.8216 13.6198C45.546 13.1095 44.9095 12.9193 44.3992 13.1949L40.957 15.0529L41.2005 11.6764C41.2414 11.1004 40.8076 10.5972 40.228 10.5545C39.6501 10.5136 39.1487 10.9492 39.1061 11.5271L38.7682 16.2352L36.0657 17.6932L36.3075 14.3185C36.3484 13.7425 35.9146 13.2375 35.3367 13.1966C34.7589 13.1539 34.2557 13.5896 34.2148 14.1674L33.8752 18.8756L29.9085 21.018L24.2633 17.5403L24.3931 13.0331L28.4452 10.6132C28.943 10.3162 29.1119 9.66375 28.8097 9.1748C28.5127 8.67696 27.8673 8.51339 27.3695 8.81031L24.4642 10.5456L24.5514 7.47681L28.6052 5.05693C29.103 4.76 29.2702 4.10926 28.9679 3.61675C28.671 3.11891 28.0273 2.95714 27.5295 3.25407L24.6225 4.98938L24.7345 1.07956C24.7505 0.501709 24.2953 0.0163269 23.7157 0.000328064C23.1361 -0.0156746 22.6525 0.439472 22.6365 1.0191L22.5244 4.92893L19.7223 3.03001C19.2423 2.70641 18.5897 2.83089 18.2644 3.31095C18.0385 3.64699 18.0297 4.06658 18.211 4.39907C18.2875 4.54309 18.3995 4.67112 18.5453 4.76891L22.4533 7.41636L22.3662 10.4869L19.5641 8.58806C19.084 8.26447 18.4315 8.3889 18.1061 8.86897C17.8785 9.20501 17.8714 9.62286 18.051 9.95712C18.1292 10.1011 18.2412 10.2274 18.387 10.3269L22.2951 12.9726L22.1653 17.4798L16.3317 20.6304L12.493 18.2657L12.4236 13.5451C12.4165 12.9673 11.94 12.5032 11.3604 12.5103C10.7808 12.5192 10.3167 12.9957 10.3256 13.5754L10.3754 16.9606L7.75993 15.348L7.69059 10.6274C7.68347 10.0478 7.2052 9.58551 6.62557 9.5944C6.04595 9.60329 5.58366 10.0798 5.59255 10.6594L5.64056 14.0429L2.31214 11.9911C1.81785 11.6871 1.17066 11.8418 0.868399 12.3343C0.663929 12.665 0.665721 13.0668 0.838187 13.3851C0.921753 13.5415 1.04798 13.6784 1.20978 13.778L4.53997 15.8298L1.49426 17.3092C0.973305 17.5616 0.756392 18.1892 1.00887 18.7102L1.03021 18.7511C1.29691 19.2436 1.90499 19.4427 2.41172 19.1974L6.65935 17.1349L9.27301 18.7458L6.22907 20.2251C5.70811 20.4775 5.48942 21.1052 5.74368 21.6279L5.76325 21.667C6.02994 22.1595 6.63801 22.3587 7.14474 22.1133L11.3924 20.0508L15.2293 22.4156L15.0408 29.0439L11.0741 31.1864L6.95272 28.8857C6.44599 28.603 5.80591 28.7843 5.52499 29.2911C5.24228 29.7978 5.42364 30.4361 5.9286 30.7188L8.8854 32.367L6.18108 33.8268L2.05966 31.526C1.55293 31.2451 0.914631 31.4264 0.631929 31.9314C0.349227 32.4399 0.532357 33.0782 1.03731 33.3591L3.99235 35.0091L0.550148 36.8671C0.04164 37.1427 -0.148613 37.7793 0.125199 38.2895C0.400789 38.798 1.03731 38.9883 1.5476 38.7127L4.98982 36.8564L4.74623 40.2329C4.732 40.4391 4.77823 40.6347 4.87069 40.8054C5.03426 41.1112 5.34719 41.3281 5.7188 41.3548C6.29664 41.3957 6.79803 40.9601 6.84071 40.3822L7.17853 35.6741L9.88108 34.2143L9.63928 37.5908C9.62506 37.797 9.67128 37.9944 9.76196 38.1651C9.92731 38.4691 10.2402 38.686 10.6118 38.7127C11.1897 38.7536 11.6911 38.3198 11.7338 37.7419L12.0716 33.032L16.0383 30.8913L21.6834 34.3691L21.5537 38.8763L17.5016 41.2944C17.0162 41.5842 16.8491 42.2029 17.1158 42.6936L17.1371 42.7345C17.434 43.2324 18.0794 43.3941 18.5773 43.0972L21.4825 41.3619L21.3954 44.4325L17.3416 46.8524C16.8579 47.1422 16.6908 47.7609 16.9558 48.2517L16.9789 48.2926C17.2758 48.7904 17.9212 48.9522 18.419 48.6553L21.3243 46.9199L21.2123 50.8297C21.2069 51.02 21.2532 51.2014 21.3367 51.3578C21.5092 51.6761 21.8435 51.8966 22.2311 51.909C22.8107 51.925 23.2943 51.4681 23.3103 50.8884Z" fill="white"/>
</svg>
