<svg width="30" height="30" viewBox="0 0 30 30" fill="none" xmlns="http://www.w3.org/2000/svg">
<g id="fi_125842" clip-path="url(#clip0_29_4020)">
<g id="Group">
<g id="Group_2">
<path id="Vector" d="M22.3604 5.80237C23.8904 5.80237 25.1336 4.55326 25.1336 3.01728C25.1336 1.48129 23.8904 0.232178 22.3604 0.232178C20.8304 0.232178 19.5873 1.48726 19.5873 3.01728C19.5873 4.54729 20.8304 5.80237 22.3604 5.80237ZM22.3604 1.67254C23.0955 1.67254 23.6992 2.27618 23.6992 3.02325C23.6992 3.77033 23.1015 4.37397 22.3604 4.37397C21.6193 4.37397 21.0217 3.76435 21.0217 3.01728C21.0217 2.2702 21.6193 1.67254 22.3604 1.67254Z" fill="white"/>
<path id="Vector_2" d="M6.00844 23.762C4.47843 23.762 3.23529 25.0111 3.23529 26.5471C3.23529 28.083 4.47843 29.3322 6.00844 29.3322C7.53845 29.3322 8.78158 28.083 8.78158 26.5471C8.78158 25.0111 7.53247 23.762 6.00844 23.762ZM6.00844 27.8978C5.27331 27.8978 4.66968 27.2941 4.66968 26.5471C4.66968 25.806 5.26734 25.1963 6.00844 25.1963C6.74954 25.1963 7.3472 25.8 7.3472 26.5471C7.34122 27.2882 6.74356 27.8978 6.00844 27.8978Z" fill="white"/>
<path id="Vector_3" d="M12.8636 12.5738C13.001 12.7113 13.1863 12.783 13.3716 12.783C13.5568 12.783 13.7361 12.7113 13.8796 12.5738C14.1605 12.2929 14.1605 11.8387 13.8796 11.5578L12.3854 10.0636L13.8796 8.56947C14.1605 8.28857 14.1605 7.83435 13.8796 7.55345C13.5987 7.27255 13.1445 7.27255 12.8636 7.55345L11.3694 9.0476L9.87526 7.55345C9.59436 7.27255 9.14014 7.27255 8.85923 7.55345C8.57833 7.83435 8.57833 8.28857 8.85923 8.56947L10.3534 10.0636L8.85923 11.5578C8.57833 11.8387 8.57833 12.2929 8.85923 12.5738C8.9967 12.7113 9.18197 12.783 9.36725 12.783C9.55252 12.783 9.73182 12.7113 9.87526 12.5738L11.3694 11.0796L12.8636 12.5738Z" fill="white"/>
<path id="Vector_4" d="M24.8707 19.0586C24.5898 18.7777 24.1356 18.7777 23.8547 19.0586L22.3605 20.5527L20.8663 19.0586C20.5854 18.7777 20.1312 18.7777 19.8503 19.0586C19.5694 19.3395 19.5694 19.7937 19.8503 20.0746L21.3445 21.5688L19.8503 23.0629C19.5694 23.3438 19.5694 23.798 19.8503 24.0789C19.9878 24.2164 20.1731 24.2881 20.3583 24.2881C20.5436 24.2881 20.7229 24.2164 20.8663 24.0789L22.3605 22.5848L23.8547 24.0789C23.9921 24.2164 24.1774 24.2881 24.3627 24.2881C24.5479 24.2881 24.7272 24.2164 24.8707 24.0789C25.1516 23.798 25.1516 23.3438 24.8707 23.0629L23.3765 21.5688L24.8707 20.0746C25.1516 19.7877 25.1516 19.3395 24.8707 19.0586Z" fill="white"/>
<path id="Vector_5" d="M16.3719 22.758C16.091 22.4771 15.6368 22.4771 15.3559 22.758L13.8617 24.2522L12.3676 22.758C12.0867 22.4771 11.6324 22.4771 11.3515 22.758C11.0706 23.0389 11.0706 23.4932 11.3515 23.7741L12.8457 25.2682L11.3515 26.7624C11.0706 27.0433 11.0706 27.4975 11.3515 27.7784C11.489 27.9159 11.6743 27.9876 11.8596 27.9876C12.0448 27.9876 12.2241 27.9159 12.3676 27.7784L13.8617 26.2842L15.3559 27.7784C15.4933 27.9159 15.6786 27.9876 15.8639 27.9876C16.0492 27.9876 16.2285 27.9159 16.3719 27.7784C16.6528 27.4975 16.6528 27.0433 16.3719 26.7624L14.8777 25.2682L16.3719 23.7741C16.6468 23.4932 16.6468 23.0389 16.3719 22.758Z" fill="white"/>
<path id="Vector_6" d="M11.7281 17.367C12.1225 17.367 12.4452 17.0443 12.4452 16.6498C12.4452 16.2554 12.1225 15.9326 11.7281 15.9326C11.3336 15.9326 11.0109 16.2554 11.0109 16.6498C11.0109 17.0443 11.3276 17.367 11.7281 17.367Z" fill="white"/>
<path id="Vector_7" d="M6.41493 19.483C6.53446 19.5606 6.67193 19.6025 6.80939 19.6025C7.04247 19.6025 7.26959 19.4889 7.40705 19.2797C7.62221 18.951 7.53256 18.5028 7.20384 18.2876C6.87513 18.0725 6.42688 18.1621 6.21173 18.4908C5.99059 18.8195 6.08024 19.2678 6.41493 19.483Z" fill="white"/>
<path id="Vector_8" d="M8.6561 16.4168C8.29153 16.5781 8.13016 17.0025 8.29153 17.3611C8.41106 17.63 8.67403 17.7854 8.94895 17.7854C9.04458 17.7854 9.14618 17.7675 9.24181 17.7257C9.60638 17.5643 9.76775 17.1399 9.60638 16.7813C9.43898 16.4168 9.0147 16.2554 8.6561 16.4168Z" fill="white"/>
<path id="Vector_9" d="M14.5669 17.367C14.963 17.367 15.2841 17.0459 15.2841 16.6498C15.2841 16.2537 14.963 15.9326 14.5669 15.9326C14.1708 15.9326 13.8497 16.2537 13.8497 16.6498C13.8497 17.0459 14.1708 17.367 14.5669 17.367Z" fill="white"/>
<path id="Vector_10" d="M6.00845 22.2857C6.1997 22.2857 6.38498 22.208 6.51646 22.0765C6.64795 21.945 6.72565 21.7598 6.72565 21.5685C6.72565 21.3773 6.64795 21.192 6.51646 21.0605C6.38498 20.929 6.1997 20.8513 6.00845 20.8513C5.8172 20.8513 5.63193 20.929 5.50044 21.0605C5.36896 21.192 5.29126 21.3773 5.29126 21.5685C5.29126 21.7598 5.36896 21.945 5.50044 22.0765C5.63193 22.208 5.8172 22.2857 6.00845 22.2857Z" fill="white"/>
<path id="Vector_11" d="M25.6356 10.4042L22.8624 7.63109C22.5815 7.35019 22.1273 7.35019 21.8464 7.63109L19.0733 10.4042C18.7924 10.6851 18.7924 11.1394 19.0733 11.4203C19.3542 11.7012 19.8084 11.7012 20.0893 11.4203L21.6372 9.87231V11.7251C21.6372 14.044 19.7367 15.9266 17.3998 15.9266C17.0054 15.9266 16.6826 16.2494 16.6826 16.6438C16.6826 17.0383 17.0054 17.361 17.3998 17.361C20.5256 17.361 23.0716 14.8329 23.0716 11.7251V9.86634L24.6196 11.4143C24.757 11.5517 24.9423 11.6235 25.1276 11.6235C25.3128 11.6235 25.4921 11.5517 25.6356 11.4143C25.9165 11.1394 25.9165 10.6851 25.6356 10.4042Z" fill="white"/>
</g>
</g>
</g>
<defs>
<clipPath id="clip0_29_4020">
<rect width="29.1001" height="29.1001" fill="white" transform="translate(-0.00933838 0.232178)"/>
</clipPath>
</defs>
</svg>
