<svg xmlns="http://www.w3.org/2000/svg" width="22" height="22" viewBox="0 0 22 22" fill="none">
  <path d="M10.7269 0.335327C4.98638 0.335327 0.335266 4.98644 0.335266 10.727C0.335266 16.4676 4.98638 21.1187 10.7269 21.1187C16.4675 21.1187 21.1186 16.4676 21.1186 10.727C21.1186 4.98644 16.4675 0.335327 10.7269 0.335327ZM16.7608 11.9003C16.7608 12.1768 16.5345 12.4031 16.258 12.4031C9.92076 12.4031 10.6935 12.4031 5.19589 12.4031C4.91933 12.4031 4.69306 12.1768 4.69306 11.9003V9.55374C4.69306 9.27719 4.91933 9.05092 5.19589 9.05092C11.7388 9.05092 10.6068 9.05092 16.258 9.05092C16.5345 9.05092 16.7608 9.27719 16.7608 9.55374V11.9003Z" fill="#2563EB"/>
</svg>