<svg xmlns="http://www.w3.org/2000/svg" width="23" height="23" viewBox="0 0 23 23" fill="none">
  <g clip-path="url(#clip0_548_1152)">
    <path d="M11.2002 0.996826C5.31348 0.996826 0.543945 5.76636 0.543945 11.6531C0.543945 17.5398 5.31348 22.3093 11.2002 22.3093C17.0869 22.3093 21.8564 17.5398 21.8564 11.6531C21.8564 5.76636 17.0869 0.996826 11.2002 0.996826ZM17.3877 12.8562C17.3877 13.1398 17.1557 13.3718 16.8721 13.3718H12.9189V17.325C12.9189 17.6085 12.6869 17.8406 12.4033 17.8406H9.99707C9.71348 17.8406 9.48145 17.6085 9.48145 17.325V13.3718H5.52832C5.24473 13.3718 5.0127 13.1398 5.0127 12.8562V10.45C5.0127 10.1664 5.24473 9.93433 5.52832 9.93433H9.48145V5.9812C9.48145 5.69761 9.71348 5.46558 9.99707 5.46558H12.4033C12.6869 5.46558 12.9189 5.69761 12.9189 5.9812V9.93433H16.8721C17.1557 9.93433 17.3877 10.1664 17.3877 10.45V12.8562Z" fill="#2563EB"/>
  </g>
  <defs>
    <clipPath id="clip0_548_1152">
      <rect width="22" height="22" fill="white" transform="translate(0.200195 0.653076)"/>
    </clipPath>
  </defs>
</svg>