<svg width="60" height="60" viewBox="0 0 60 60" fill="none" xmlns="http://www.w3.org/2000/svg">
<g id="chart_4286185 1" clip-path="url(#clip0_1495_479)">
<g id="Group">
<path id="Vector" d="M11.3671 9.06244H9.00703V3.10717C9.00703 2.01941 8.12207 1.13434 7.0342 1.13434C5.94645 1.13434 5.06148 2.01941 5.06148 3.10717V9.06244H2.7199C1.63203 9.06244 0.74707 9.94752 0.74707 11.0353V36.055C0.74707 37.1428 1.63203 38.0278 2.7199 38.0278H5.0615V43.9831C5.0615 45.0709 5.94646 45.9559 7.03422 45.9559C8.12209 45.9559 9.00705 45.0709 9.00705 43.9831V38.0278H11.3671C12.4365 38.0278 13.3215 37.1428 13.3215 36.055V11.0353C13.3215 9.94752 12.4365 9.06244 11.3671 9.06244Z" fill="#2563EB"/>
<path id="Vector_2" d="M26.8358 19.2215H24.4758V13.2478C24.4758 12.16 23.5908 11.2934 22.503 11.2934C21.4152 11.2934 20.5486 12.16 20.5486 13.2478V19.2215H18.1887C17.1008 19.2215 16.2158 20.0881 16.2158 21.1759V46.214C16.2158 47.3019 17.1008 48.1684 18.1887 48.1684H20.5486V54.1421C20.5486 55.23 21.4152 56.0965 22.503 56.0965C23.5908 56.0965 24.4758 55.23 24.4758 54.1421V48.1684H26.8359C27.9236 48.1684 28.7902 47.3019 28.7902 46.214V21.1759C28.7902 20.0881 27.9236 19.2215 26.8358 19.2215Z" fill="#2563EB"/>
<path id="Vector_3" d="M42.3047 12.4919H39.9448V6.5365C39.9448 5.44874 39.0781 4.56378 37.9904 4.56378C36.9025 4.56378 36.0176 5.44876 36.0176 6.5365V12.4919H33.6575C32.5697 12.4919 31.7031 13.3769 31.7031 14.4647V39.4843C31.7031 40.5722 32.5697 41.4571 33.6575 41.4571H36.0176V47.4125C36.0176 48.5003 36.9025 49.3853 37.9904 49.3853C39.0781 49.3853 39.9448 48.5003 39.9448 47.4125V41.4571H42.3047C43.3926 41.4571 44.2775 40.5722 44.2775 39.4843V14.4647C44.2775 13.3769 43.3926 12.4919 42.3047 12.4919Z" fill="#2563EB"/>
<path id="Vector_4" d="M57.7744 22.2084H55.4328V16.2531C55.4328 15.1653 54.5479 14.2803 53.4601 14.2803C52.3722 14.2803 51.4873 15.1653 51.4873 16.2531V22.2084H49.1272C48.0578 22.2084 47.1729 23.0935 47.1729 24.1812V49.2009C47.1729 50.2888 48.0578 51.1738 49.1272 51.1738H51.4873V57.129C51.4873 58.2169 52.3722 59.1019 53.4601 59.1019C54.5479 59.1019 55.4328 58.2169 55.4328 57.129V51.1738H57.7744C58.8623 51.1737 59.7473 50.2888 59.7473 49.2009V24.1812C59.7473 23.0935 58.8623 22.2084 57.7744 22.2084Z" fill="#2563EB"/>
</g>
</g>
<defs>
<clipPath id="clip0_1495_479">
<rect width="59" height="59" fill="white" transform="translate(0.74707 0.618164)"/>
</clipPath>
</defs>
</svg>