<svg width="60" height="60" viewBox="0 0 60 60" fill="none" xmlns="http://www.w3.org/2000/svg">
<g id="bookmark_9703537 1" clip-path="url(#clip0_1495_498)">
<g id="Layer_x0020_1">
<g id="_2051472916160">
<g id="_325846616">
<path id="Vector" d="M16.57 44.3689L16.5716 44.3705C16.7486 44.5459 16.9881 44.6446 17.2373 44.6446H51.5126C52.0318 44.6446 52.454 44.2241 52.454 43.7032V2.59906C52.454 1.37078 51.4547 0.371643 50.2255 0.371643H17.2373C16.7167 0.371643 16.2959 0.7924 16.2959 1.31305V43.7032C16.2959 43.9537 16.3947 44.1921 16.57 44.3689ZM50.5712 42.7629L18.1787 42.7618V2.25446H50.2255C50.4164 2.25446 50.5712 2.40935 50.5712 2.59906V42.7629Z" fill="#2563EB" stroke="#2563EB" stroke-width="0.5"/>
</g>
<g id="_325847768">
<path id="Vector_2" d="M22.5195 54.5743H50.8004C51.7115 54.5743 52.4539 53.8334 52.4539 52.9208V43.7043C52.4539 43.1834 52.0317 42.7629 51.5125 42.7629H12.6186C9.36231 42.7629 6.71289 45.4111 6.71289 48.6686C6.71289 51.9261 9.36231 54.5743 12.6186 54.5743H16.1148C16.634 54.5743 17.0562 54.1539 17.0562 53.6329C17.0562 53.1134 16.6343 52.6915 16.1148 52.6915H12.6186C10.4012 52.6915 8.5957 50.8871 8.5957 48.6686C8.5957 46.4501 10.4013 44.6446 12.6186 44.6446C12.6186 44.6446 12.6186 44.6446 12.6186 44.6446L50.5711 44.6457V52.6915H22.5195C22 52.6915 21.5781 53.1134 21.5781 53.6329C21.5781 54.1539 22.0003 54.5743 22.5195 54.5743Z" fill="#2563EB" stroke="#2563EB" stroke-width="0.5"/>
</g>
<g id="_325847720">
<path id="Vector_3" d="M6.71289 48.7988C6.71289 49.3186 7.13392 49.7391 7.6543 49.7391C8.17325 49.7391 8.5957 49.3189 8.5957 48.7988V6.1045C8.5957 3.98167 10.3229 2.25446 12.4457 2.25446H16.2958V43.7032C16.2958 44.2238 16.7165 44.6446 17.2372 44.6446C17.7564 44.6446 18.1786 44.2241 18.1786 43.7032V1.31305C18.1786 0.793552 17.7567 0.371643 17.2372 0.371643H12.4457C9.28392 0.371643 6.71289 2.94267 6.71289 6.1045V48.7988Z" fill="#2563EB" stroke="#2563EB" stroke-width="0.5"/>
</g>
<g id="_325847264">
<path id="Vector_4" d="M13.1895 49.61H45.9782C46.4977 49.61 46.9196 49.1881 46.9196 48.6686C46.9196 48.1491 46.4977 47.7272 45.9782 47.7272H13.1895C12.67 47.7272 12.248 48.1491 12.248 48.6686C12.248 49.1881 12.67 49.61 13.1895 49.61Z" fill="#2563EB" stroke="#2563EB" stroke-width="0.5"/>
</g>
<g id="_325847960">
<path id="Vector_5" d="M22.4727 17.5219H46.2778C46.7987 17.5219 47.2192 17.0997 47.2192 16.5805V7.42395C47.2192 6.90473 46.7987 6.48254 46.2778 6.48254H22.4727C21.9517 6.48254 21.5312 6.90472 21.5312 7.42395V16.5805C21.5312 17.0997 21.9517 17.5219 22.4727 17.5219ZM45.3364 8.36536V15.6391H23.4129V8.36536H45.3364Z" fill="#2563EB" stroke="#2563EB" stroke-width="0.5"/>
</g>
<g id="_325847912">
<path id="Vector_6" d="M24.5977 25.851H44.1529C44.6722 25.851 45.0943 25.4305 45.0943 24.9096C45.0943 24.3901 44.6724 23.9682 44.1529 23.9682H24.5977C24.0782 23.9682 23.6562 24.3901 23.6562 24.9096C23.6562 25.4305 24.0784 25.851 24.5977 25.851Z" fill="#2563EB" stroke="#2563EB" stroke-width="0.5"/>
</g>
<g id="_325848056">
<path id="Vector_7" d="M24.5977 31.0838H44.1529C44.6724 31.0838 45.0943 30.6619 45.0943 30.1424C45.0943 29.6215 44.6722 29.201 44.1529 29.201H24.5977C24.0784 29.201 23.6562 29.6215 23.6562 30.1424C23.6562 30.6619 24.0782 31.0838 24.5977 31.0838Z" fill="#2563EB" stroke="#2563EB" stroke-width="0.5"/>
</g>
<g id="_325848104">
<path id="Vector_8" d="M24.5977 36.3154H44.1529C44.6724 36.3154 45.0943 35.8935 45.0943 35.374C45.0943 34.8545 44.6724 34.4326 44.1529 34.4326H24.5977C24.0782 34.4326 23.6562 34.8545 23.6562 35.374C23.6562 35.8935 24.0782 36.3154 24.5977 36.3154Z" fill="#2563EB" stroke="#2563EB" stroke-width="0.5"/>
</g>
<g id="_325848032">
<path id="Vector_9" d="M15.7006 59.7688C15.832 59.8336 15.9748 59.8648 16.1141 59.8648C16.3196 59.8648 16.5235 59.7973 16.6914 59.6671L16.6915 59.667L19.2784 57.6583L21.9535 59.6749L21.9536 59.6751C22.2386 59.8895 22.62 59.926 22.9406 59.7658C23.2594 59.607 23.4614 59.2806 23.4614 58.9233V48.6686C23.4614 48.1491 23.0395 47.7272 22.52 47.7272H16.1152C15.5943 47.7272 15.1738 48.1494 15.1738 48.6686V58.9233C15.1738 59.2824 15.3777 59.6103 15.7006 59.7688ZM15.7006 59.7688C15.7005 59.7687 15.7004 59.7687 15.7003 59.7686L15.811 59.5445L15.701 59.7689C15.7008 59.7689 15.7007 59.7688 15.7006 59.7688ZM19.8372 55.7222C19.8372 55.7221 19.8371 55.722 19.837 55.722C19.6698 55.5955 19.4705 55.5309 19.2704 55.5309C19.0655 55.5309 18.8616 55.5986 18.6929 55.7299C18.6929 55.7299 18.6928 55.7299 18.6928 55.7299L17.0555 57.0011V49.61H21.5786V57.0345L19.8372 55.7222Z" fill="#2563EB" stroke="#2563EB" stroke-width="0.5"/>
</g>
</g>
</g>
</g>
<defs>
<clipPath id="clip0_1495_498">
<rect width="59" height="59" fill="white" transform="translate(0.0830078 0.618164)"/>
</clipPath>
</defs>
</svg>