<svg width="60" height="60" viewBox="0 0 60 60" fill="none" xmlns="http://www.w3.org/2000/svg">
<g id="boxes_3639103 1" clip-path="url(#clip0_1495_485)">
<g id="Page-1">
<g id="012---Stacked-Boxes">
<path id="Shape" d="M56.9657 25.5681H56.965H47.6101C48.0135 25.0415 48.2362 24.3955 48.24 23.7272V23.7265V5.04314C48.24 3.34486 46.8633 1.96814 45.165 1.96814H26.4817L26.4817 1.96814C25.7016 1.96839 24.9512 2.26652 24.3837 2.80141L15.3416 9.15206C14.2659 9.65705 13.577 10.737 13.5734 11.9261V11.9265V25.5707C12.8385 25.601 12.1374 25.8951 11.6003 26.4014L2.55826 32.7521C1.48252 33.2571 0.79371 34.337 0.790039 35.5261V35.5265V55.1931C0.790039 56.8914 2.16676 58.2681 3.86504 58.2681H24.515H24.5155C25.2371 58.2656 25.9332 58.0079 26.4817 57.5427C27.0302 58.0079 27.7263 58.2656 28.4479 58.2681H28.4484H49.0984H49.0984C49.9299 58.2677 50.7255 57.9289 51.302 57.3298C51.3022 57.3295 51.3024 57.3293 51.3026 57.3291L59.1255 49.5062C59.1256 49.5061 59.1256 49.5061 59.1257 49.506C59.7104 48.9315 60.0399 48.1462 60.04 47.3265V28.6431V28.6425C60.0316 26.9481 58.6601 25.5766 56.9657 25.5681ZM56.064 27.7848L50.3907 32.7489C49.9877 32.5561 49.5467 32.4544 49.0992 32.4515H49.0984H40.7803L45.4469 27.7848H56.064ZM38.1567 31.5931V31.5936C38.1575 31.818 38.0696 32.0338 37.9123 32.1939L37.8948 32.2114C37.8946 32.2115 37.8944 32.2117 37.8942 32.2119C37.7346 32.3663 37.5209 32.4522 37.2988 32.4515H37.2984H24.515H16.6484C16.1743 32.4515 15.79 32.0672 15.79 31.5931V11.9265C15.79 11.4524 16.1743 11.0681 16.6484 11.0681H37.2984C37.7724 11.0681 38.1567 11.4524 38.1567 11.9265V31.5931ZM45.7667 24.3247L45.7649 24.3265L40.3734 29.7265V11.9265V11.9261C40.3722 11.5204 40.2899 11.1194 40.1315 10.7465L46.0234 5.591V23.7258C46.0222 23.9519 45.9296 24.1679 45.7667 24.3247ZM36.6952 4.18481H44.264L38.5907 9.14891C38.1877 8.95612 37.7467 8.85441 37.2992 8.85147H37.2984H30.6957L36.6952 4.18481ZM26.4812 4.18481L26.4817 4.18481L33.0843 4.1848L27.0849 8.85147H19.627L25.7325 4.5633L25.6606 4.46101L25.7325 4.56329C25.7885 4.52397 25.8407 4.47955 25.8884 4.43061C26.0451 4.2725 26.2586 4.18393 26.4812 4.18481ZM12.9491 28.1633L12.8773 28.061C12.9271 28.026 12.9735 27.9865 13.0159 27.943L13.1048 28.0309C13.1049 28.0308 13.105 28.0307 13.1051 28.0306C13.2322 27.9023 13.3969 27.8198 13.5734 27.7937L13.5734 31.5931L13.5734 31.5944C13.5762 31.8852 13.6207 32.1738 13.7053 32.4515H6.84371L12.9491 28.1633ZM25.1136 55.8073L25.112 55.8088C24.9526 55.9647 24.7383 56.0519 24.5153 56.0515H24.515H3.86504C3.39099 56.0515 3.00671 55.6672 3.00671 55.1931V35.5265C3.00671 35.0524 3.39099 34.6681 3.86504 34.6681H24.515C24.9891 34.6681 25.3734 35.0524 25.3734 35.5265V55.1931C25.3733 55.417 25.2858 55.632 25.1295 55.7923L25.1136 55.8073ZM49.7163 55.7782L49.7031 55.7872L49.6926 55.7992L49.6822 55.8111C49.525 55.9627 49.3159 56.0487 49.0975 56.0515H28.4484C27.9743 56.0515 27.59 55.6672 27.59 55.1931V35.5265C27.59 35.0524 27.9743 34.6681 28.4484 34.6681H49.0984C49.5724 34.6681 49.9567 35.0524 49.9567 35.5265L49.9567 55.1923C49.9567 55.1925 49.9567 55.1926 49.9567 55.1928C49.9551 55.4077 49.8729 55.614 49.7268 55.7711L49.7163 55.7782ZM57.5667 47.9247L57.565 47.9264L52.1734 53.318V35.5265V35.5261C52.1722 35.1204 52.0899 34.7194 51.9315 34.3465L57.8234 29.191V47.3258C57.8222 47.5519 57.7296 47.7679 57.5667 47.9247Z" fill="#2563EB" stroke="#2563EB" stroke-width="0.25"/>
<path id="Shape_2" d="M23.5318 24.5848H19.5985C18.4433 24.5848 17.5068 25.5213 17.5068 26.6765V28.6432C17.5068 29.7984 18.4433 30.7348 19.5985 30.7348H23.5318C24.687 30.7348 25.6235 29.7984 25.6235 28.6432V26.6765C25.6235 25.5213 24.687 24.5848 23.5318 24.5848ZM19.7235 28.5182V26.8015H23.4068V28.5182H19.7235Z" fill="#2563EB" stroke="#2563EB" stroke-width="0.25"/>
<path id="Shape_3" d="M35.3318 24.5848H32.3818C31.7697 24.5848 31.2734 25.0811 31.2734 25.6932C31.2734 26.3053 31.7697 26.8015 32.3818 26.8015H35.3318C35.9439 26.8015 36.4401 26.3053 36.4401 25.6932C36.4401 25.0811 35.9439 24.5848 35.3318 24.5848Z" fill="#2563EB" stroke="#2563EB" stroke-width="0.25"/>
<path id="Shape_4" d="M35.3318 28.5181H32.3818C31.7697 28.5181 31.2734 29.0143 31.2734 29.6265C31.2734 30.2386 31.7697 30.7348 32.3818 30.7348H35.3318C35.9439 30.7348 36.4401 30.2386 36.4401 29.6265C36.4401 29.0143 35.9439 28.5181 35.3318 28.5181Z" fill="#2563EB" stroke="#2563EB" stroke-width="0.25"/>
<path id="Shape_5" d="M10.7486 48.1848H6.8153C5.6601 48.1848 4.72363 49.1213 4.72363 50.2765V52.2431C4.72363 53.3983 5.6601 54.3348 6.8153 54.3348H10.7486C11.9038 54.3348 12.8403 53.3983 12.8403 52.2431V50.2765C12.8403 49.1213 11.9038 48.1848 10.7486 48.1848ZM6.9403 52.1181V50.4015H10.6236V52.1181H6.9403Z" fill="#2563EB" stroke="#2563EB" stroke-width="0.25"/>
<path id="Shape_6" d="M22.5486 48.1848H19.5986C18.9865 48.1848 18.4902 48.681 18.4902 49.2931C18.4902 49.9053 18.9865 50.4015 19.5986 50.4015H22.5486C23.1607 50.4015 23.6569 49.9053 23.6569 49.2931C23.6569 48.681 23.1607 48.1848 22.5486 48.1848Z" fill="#2563EB" stroke="#2563EB" stroke-width="0.25"/>
<path id="Shape_7" d="M22.5486 52.1182H19.5986C18.9865 52.1182 18.4902 52.6144 18.4902 53.2265C18.4902 53.8386 18.9865 54.3348 19.5986 54.3348H22.5486C23.1607 54.3348 23.6569 53.8386 23.6569 53.2265C23.6569 52.6144 23.1607 52.1182 22.5486 52.1182Z" fill="#2563EB" stroke="#2563EB" stroke-width="0.25"/>
<path id="Shape_8" d="M35.3316 48.1848H31.3983C30.2431 48.1848 29.3066 49.1213 29.3066 50.2765V52.2431C29.3066 53.3983 30.2431 54.3348 31.3983 54.3348H35.3316C36.4868 54.3348 37.4233 53.3983 37.4233 52.2431V50.2765C37.4233 49.1213 36.4868 48.1848 35.3316 48.1848ZM31.5233 52.1181V50.4015H35.2066V52.1181H31.5233Z" fill="#2563EB" stroke="#2563EB" stroke-width="0.25"/>
<path id="Shape_9" d="M47.1316 48.1848H44.1816C43.5695 48.1848 43.0732 48.681 43.0732 49.2931C43.0732 49.9053 43.5695 50.4015 44.1816 50.4015H47.1316C47.7437 50.4015 48.2399 49.9053 48.2399 49.2931C48.2399 48.681 47.7437 48.1848 47.1316 48.1848Z" fill="#2563EB" stroke="#2563EB" stroke-width="0.25"/>
<path id="Shape_10" d="M47.1316 52.1182H44.1816C43.5695 52.1182 43.0732 52.6144 43.0732 53.2265C43.0732 53.8386 43.5695 54.3348 44.1816 54.3348H47.1316C47.7437 54.3348 48.2399 53.8386 48.2399 53.2265C48.2399 52.6144 47.7437 52.1182 47.1316 52.1182Z" fill="#2563EB" stroke="#2563EB" stroke-width="0.25"/>
</g>
</g>
</g>
<defs>
<clipPath id="clip0_1495_485">
<rect width="59" height="59" fill="white" transform="translate(0.915039 0.618164)"/>
</clipPath>
</defs>
</svg>