<svg width="23" height="23" viewBox="0 0 23 23" fill="none" xmlns="http://www.w3.org/2000/svg">
<path d="M16.7232 3.47803C15.9859 3.47803 15.2788 3.77091 14.7575 4.29224C14.2362 4.81357 13.9433 5.52065 13.9433 6.25792V17.3775C13.9433 18.1148 14.2362 18.8218 14.7575 19.3432C15.2788 19.8645 15.9859 20.1574 16.7232 20.1574C17.4605 20.1574 18.1675 19.8645 18.6889 19.3432C19.2102 18.8218 19.5031 18.1148 19.5031 17.3775C19.5031 16.6402 19.2102 15.9331 18.6889 15.4118C18.1675 14.8905 17.4605 14.5976 16.7232 14.5976H5.60362C4.86635 14.5976 4.15927 14.8905 3.63794 15.4118C3.11661 15.9331 2.82373 16.6402 2.82373 17.3775C2.82373 18.1148 3.11661 18.8218 3.63794 19.3432C4.15927 19.8645 4.86635 20.1574 5.60362 20.1574C6.34089 20.1574 7.04797 19.8645 7.5693 19.3432C8.09063 18.8218 8.38351 18.1148 8.38351 17.3775V6.25792C8.38351 5.52065 8.09063 4.81357 7.5693 4.29224C7.04797 3.77091 6.34089 3.47803 5.60362 3.47803C4.86635 3.47803 4.15927 3.77091 3.63794 4.29224C3.11661 4.81357 2.82373 5.52065 2.82373 6.25792C2.82373 6.99519 3.11661 7.70227 3.63794 8.2236C4.15927 8.74493 4.86635 9.03781 5.60362 9.03781H16.7232C17.4605 9.03781 18.1675 8.74493 18.6889 8.2236C19.2102 7.70227 19.5031 6.99519 19.5031 6.25792C19.5031 5.52065 19.2102 4.81357 18.6889 4.29224C18.1675 3.77091 17.4605 3.47803 16.7232 3.47803Z" stroke="#2563EB" stroke-width="1.85326" stroke-linecap="round" stroke-linejoin="round"/>
</svg>
