<svg width="23" height="23" viewBox="0 0 23 23" fill="none" xmlns="http://www.w3.org/2000/svg">
<path d="M20.1754 11.3544C20.1786 12.5774 19.8929 13.7839 19.3415 14.8756C18.6877 16.1838 17.6826 17.2841 16.4388 18.0533C15.1949 18.8225 13.7615 19.2302 12.2991 19.2308C11.0761 19.234 9.86956 18.9482 8.77789 18.3968L3.49609 20.1574L5.25669 14.8756C4.70528 13.7839 4.41954 12.5774 4.42272 11.3544C4.42329 9.89196 4.83101 8.45855 5.60021 7.21474C6.36941 5.97092 7.46972 4.96582 8.77789 4.31202C9.86956 3.76061 11.0761 3.47486 12.2991 3.47805H12.7624C14.6938 3.58461 16.5181 4.39983 17.8859 5.76763C19.2537 7.13542 20.0689 8.95968 20.1754 10.8911V11.3544Z" stroke="#2563EB" stroke-width="1.85326" stroke-linecap="round" stroke-linejoin="round"/>
</svg>
