<?xml version="1.0" encoding="utf-8"?>
<!-- Svg Vector Icons : http://www.onlinewebfonts.com/icon -->
<!DOCTYPE svg PUBLIC "-//W3C//DTD SVG 1.1//EN" "http://www.w3.org/Graphics/SVG/1.1/DTD/svg11.dtd">
<svg version="1.1" xmlns="http://www.w3.org/2000/svg" xmlns:xlink="http://www.w3.org/1999/xlink" x="0px" y="0px" viewBox="0 0 256 256" enable-background="new 0 0 256 256" xml:space="preserve">
<metadata> Svg Vector Icons : http://www.onlinewebfonts.com/icon </metadata>
<g><g><path fill="#000000" d="M128,10.1c-47.2,0-87,32.7-99.9,77.5C16.7,94.5,10,107.8,10,123.3c0,22.6,13.8,40.8,36.3,40.8c5,0,9.1-4,9.1-9.1V91.5c0-4.2-3-7.4-6.8-8.5C61.8,50.5,92.4,27.7,128,27.7c35.6,0,66.2,22.8,79.4,55.3c-3.9,1.1-6.8,4.3-6.8,8.5v63.5c0,5,4,9.1,9.1,9.1c2.1,0,4-0.3,5.9-0.6c-2.9,16.9-10,29.6-17.3,38.3c-4.5,5.4-9.2,9.4-12.8,11.9c-1.8,1.3-3.2,2-4.3,2.6c-0.5,0.3-1,0.5-1.1,0.6h-17c-3.3-9.5-13.7-16.4-26.1-16.4c-15.1,0-27.2,10.2-27.2,22.7s12.2,22.7,27.2,22.7c12.4,0,22.8-7,26.1-16.4H181c3.1,0,3.9-0.8,5.7-1.7c1.8-0.9,4-2.1,6.2-3.7c4.6-3.2,10-7.8,15.3-14.2c9.6-11.5,18.5-28.6,20.7-51.6c10.7-7.1,17-19.9,17-34.9c0-15.6-6.7-28.9-18.2-35.7C215.1,42.9,175.2,10.1,128,10.1z"/></g></g>
</svg>