<svg width="22" height="22" viewBox="0 0 22 22" fill="none" xmlns="http://www.w3.org/2000/svg">
<g id="Frame">
<path id="Vector" fill-rule="evenodd" clip-rule="evenodd" d="M2.0625 11C2.0625 6.06375 6.06375 2.0625 11 2.0625C15.9363 2.0625 19.9375 6.06375 19.9375 11C19.9375 15.9363 15.9363 19.9375 11 19.9375C6.06375 19.9375 2.0625 15.9363 2.0625 11ZM12.4923 7.40942C11.6765 6.69717 10.3235 6.69717 9.50858 7.40942C9.37135 7.52952 9.19202 7.59018 9.01005 7.57806C8.82809 7.56594 8.65839 7.48203 8.53829 7.34479C8.41819 7.20755 8.35753 7.02823 8.36965 6.84626C8.38177 6.6643 8.46568 6.4946 8.60292 6.3745C9.93575 5.2085 12.0642 5.2085 13.3971 6.3745C14.784 7.58817 14.784 9.59933 13.3971 10.813C13.1651 11.0153 12.9071 11.1854 12.6298 11.319C12.0102 11.6197 11.6875 12.0285 11.6875 12.375V13.0625C11.6875 13.2448 11.6151 13.4197 11.4861 13.5486C11.3572 13.6776 11.1823 13.75 11 13.75C10.8177 13.75 10.6428 13.6776 10.5139 13.5486C10.3849 13.4197 10.3125 13.2448 10.3125 13.0625V12.375C10.3125 11.2026 11.2842 10.4436 12.0312 10.0815C12.1981 10.0008 12.353 9.89908 12.4923 9.77808C13.2532 9.11167 13.2532 8.07583 12.4923 7.40942ZM11 16.5C11.1823 16.5 11.3572 16.4276 11.4861 16.2986C11.6151 16.1697 11.6875 15.9948 11.6875 15.8125C11.6875 15.6302 11.6151 15.4553 11.4861 15.3264C11.3572 15.1974 11.1823 15.125 11 15.125C10.8177 15.125 10.6428 15.1974 10.5139 15.3264C10.3849 15.4553 10.3125 15.6302 10.3125 15.8125C10.3125 15.9948 10.3849 16.1697 10.5139 16.2986C10.6428 16.4276 10.8177 16.5 11 16.5Z" fill="black"/>
</g>
</svg>
