<svg width="22" height="22" viewBox="0 0 22 22" fill="none" xmlns="http://www.w3.org/2000/svg">
<g id="Frame">
<path id="Vector" d="M5.19922 1.76172V3.39208C5.85329 3.84454 6.27352 4.69563 6.27352 5.62904C6.27352 6.21814 6.1059 6.77415 5.81814 7.21823C5.96703 7.27624 6.12348 7.3407 6.25427 7.3975L11.5116 6.41854L11.7659 8.77503L6.9642 9.77273C6.92716 10.4714 6.85893 11.159 6.73694 11.9885H21.1838V1.76172H5.19922ZM4.12509 3.82422C3.41202 3.82422 2.75 4.58679 2.75 5.62908C2.75 6.67137 3.41202 7.43385 4.12509 7.43385C4.83815 7.43385 5.50017 6.67137 5.50017 5.62908C5.50017 4.58679 4.83815 3.82422 4.12509 3.82422ZM10.8323 7.33171L6.16627 8.20054C5.5544 7.95983 5.95332 8.07013 5.24378 7.83458C4.92254 8.06957 4.5421 8.2072 4.12509 8.2072C3.75555 8.2072 3.41481 8.09879 3.11841 7.91072C2.74931 8.06386 2.3598 8.25834 2.01257 8.45444C1.45432 8.76975 0.993266 9.02211 0.816406 9.14336V14.7385H1.67595V9.96884H2.44922V21.2697H3.73845V14.0079H4.51172V21.2697H5.62908V13.886L5.6357 13.8505C6.0445 11.6746 6.17659 10.5255 6.2141 9.13877L10.9218 8.16054L10.8323 7.33171ZM6.61482 12.7619C6.57392 13.006 6.52927 13.262 6.47964 13.5352H20.5391V12.7619H6.61482ZM8.93759 14.8242C8.22452 14.8242 7.5625 15.5868 7.5625 16.6291C7.5625 17.411 7.93504 18.0354 8.4223 18.2986C8.57695 18.2272 8.7438 18.1824 8.92418 18.1761C9.12325 18.1693 9.31004 18.2091 9.48501 18.2801C9.95629 18.0072 10.3127 17.3937 10.3127 16.6291C10.3127 15.5868 9.65065 14.8242 8.93759 14.8242ZM13.7501 14.8242C13.037 14.8242 12.375 15.5868 12.375 16.6291C12.375 17.411 12.7475 18.0354 13.2348 18.2986C13.3895 18.2272 13.5563 18.1824 13.7367 18.1761C13.9358 18.1693 14.1225 18.2091 14.2975 18.2801C14.7688 18.0072 15.1252 17.3937 15.1252 16.6291C15.1252 15.5868 14.4632 14.8242 13.7501 14.8242ZM18.5626 14.8242C17.8495 14.8242 17.1875 15.5868 17.1875 16.6291C17.1875 17.411 17.56 18.0354 18.0473 18.2986C18.202 18.2272 18.3688 18.1824 18.5492 18.1761C18.7483 18.1693 18.935 18.2091 19.11 18.2801C19.5813 18.0072 19.9377 17.3937 19.9377 16.6291C19.9377 15.5868 19.2757 14.8242 18.5626 14.8242ZM8.95099 18.949C8.78582 18.9548 8.56827 19.0749 8.33654 19.3265C8.10477 19.5781 7.87695 19.9388 7.68664 20.3045C7.50505 20.6534 7.35969 20.9989 7.25437 21.2697H10.9213C10.7907 20.9932 10.6146 20.6446 10.3999 20.2938C10.1723 19.9218 9.90533 19.5574 9.64077 19.3074C9.37621 19.0574 9.13374 18.9427 8.95099 18.949ZM13.7635 18.949C13.5983 18.9548 13.3808 19.0749 13.149 19.3265C12.9173 19.5781 12.6894 19.9388 12.4991 20.3045C12.3176 20.6534 12.1722 20.9989 12.0669 21.2697H15.7338C15.6032 20.9932 15.4271 20.6446 15.2124 20.2938C14.9848 19.9218 14.7178 19.5574 14.4533 19.3074C14.1887 19.0574 13.9462 18.9427 13.7635 18.949ZM18.576 18.949C18.4108 18.9548 18.1933 19.0749 17.9615 19.3265C17.7298 19.5781 17.5019 19.9388 17.3116 20.3045C17.1301 20.6534 16.9847 20.9989 16.8794 21.2697H20.5463C20.4157 20.9932 20.2396 20.6446 20.0249 20.2938C19.7973 19.9218 19.5303 19.5574 19.2658 19.3074C19.0012 19.0574 18.7587 18.9427 18.576 18.949Z" fill="black"/>
</g>
</svg>
