<svg width="22" height="22" viewBox="0 0 22 22" fill="none" xmlns="http://www.w3.org/2000/svg">
<g id="Frame">
<path id="Vector" fill-rule="evenodd" clip-rule="evenodd" d="M2.0625 5.5C2.0625 4.77065 2.35223 4.07118 2.86796 3.55546C3.38368 3.03973 4.08315 2.75 4.8125 2.75H17.1875C17.9168 2.75 18.6163 3.03973 19.132 3.55546C19.6478 4.07118 19.9375 4.77065 19.9375 5.5V16.5C19.9375 17.2293 19.6478 17.9288 19.132 18.4445C18.6163 18.9603 17.9168 19.25 17.1875 19.25H4.8125C4.08315 19.25 3.38368 18.9603 2.86796 18.4445C2.35223 17.9288 2.0625 17.2293 2.0625 16.5V5.5ZM5.70167 6.38917C5.83057 6.26042 6.00531 6.18811 6.1875 6.18811C6.36969 6.18811 6.54443 6.26042 6.67333 6.38917L8.73583 8.45167C8.86458 8.58057 8.9369 8.75531 8.9369 8.9375C8.9369 9.11969 8.86458 9.29443 8.73583 9.42333L6.67333 11.4858C6.54301 11.6073 6.37063 11.6734 6.19252 11.6702C6.01441 11.6671 5.84448 11.5949 5.71851 11.469C5.59255 11.343 5.5204 11.1731 5.51726 10.995C5.51411 10.8169 5.58023 10.6445 5.70167 10.5142L7.27833 8.9375L5.70167 7.36083C5.57292 7.23193 5.50061 7.05719 5.50061 6.875C5.50061 6.69281 5.57292 6.51807 5.70167 6.38917ZM9.625 10.3125C9.44266 10.3125 9.2678 10.3849 9.13886 10.5139C9.00993 10.6428 8.9375 10.8177 8.9375 11C8.9375 11.1823 9.00993 11.3572 9.13886 11.4861C9.2678 11.6151 9.44266 11.6875 9.625 11.6875H12.375C12.5573 11.6875 12.7322 11.6151 12.8611 11.4861C12.9901 11.3572 13.0625 11.1823 13.0625 11C13.0625 10.8177 12.9901 10.6428 12.8611 10.5139C12.7322 10.3849 12.5573 10.3125 12.375 10.3125H9.625Z" fill="black"/>
</g>
</svg>
