<svg width="22" height="22" viewBox="0 0 22 22" fill="none" xmlns="http://www.w3.org/2000/svg">
<g id="Frame">
<path id="Vector" d="M10.5153 3.52102C10.6442 3.39227 10.8189 3.31996 11.0011 3.31996C11.1833 3.31996 11.358 3.39227 11.4869 3.52102L19.4528 11.4869C19.5162 11.5525 19.5921 11.6048 19.676 11.6408C19.7599 11.6768 19.8501 11.6957 19.9414 11.6965C20.0327 11.6972 20.1232 11.6798 20.2077 11.6452C20.2921 11.6106 20.3689 11.5595 20.4334 11.4949C20.4979 11.4303 20.5489 11.3535 20.5835 11.269C20.618 11.1845 20.6353 11.094 20.6345 11.0027C20.6337 10.9114 20.6147 10.8212 20.5786 10.7374C20.5425 10.6535 20.4901 10.5777 20.4244 10.5143L12.4595 2.54844C12.268 2.35691 12.0406 2.20499 11.7904 2.10134C11.5401 1.99768 11.2719 1.94434 11.0011 1.94434C10.7302 1.94434 10.462 1.99768 10.2118 2.10134C9.96156 2.20499 9.73419 2.35691 9.54267 2.54844L1.57684 10.5143C1.5112 10.5777 1.45887 10.6536 1.42287 10.7375C1.38688 10.8214 1.36796 10.9116 1.36721 11.0029C1.36646 11.0942 1.3839 11.1847 1.41851 11.2692C1.45311 11.3537 1.5042 11.4304 1.56878 11.4949C1.63336 11.5594 1.71015 11.6105 1.79465 11.645C1.87916 11.6795 1.9697 11.6969 2.06098 11.696C2.15227 11.6952 2.24247 11.6762 2.32633 11.6401C2.41019 11.604 2.48603 11.5516 2.54942 11.4859L10.5153 3.52102Z" fill="black"/>
<path id="Vector_2" d="M11 4.97949L18.4791 12.4586C18.5066 12.4861 18.5341 12.5117 18.5625 12.5374V18.2189C18.5625 19.1677 17.7925 19.9377 16.8438 19.9377H13.75C13.5677 19.9377 13.3928 19.8652 13.2639 19.7363C13.1349 19.6074 13.0625 19.4325 13.0625 19.2502V15.1252C13.0625 14.9428 12.9901 14.768 12.8611 14.639C12.7322 14.5101 12.5573 14.4377 12.375 14.4377H9.625C9.44266 14.4377 9.2678 14.5101 9.13886 14.639C9.00993 14.768 8.9375 14.9428 8.9375 15.1252V19.2502C8.9375 19.4325 8.86507 19.6074 8.73614 19.7363C8.6072 19.8652 8.43234 19.9377 8.25 19.9377H5.15625C4.70041 19.9377 4.26324 19.7566 3.94091 19.4342C3.61858 19.1119 3.4375 18.6747 3.4375 18.2189V12.5374C3.46602 12.5119 3.49383 12.4856 3.52092 12.4586L11 4.97949Z" fill="black"/>
</g>
</svg>
