<svg width="22" height="22" viewBox="0 0 22 22" fill="none" xmlns="http://www.w3.org/2000/svg">
<g id="Frame" clip-path="url(#clip0_172_9823)">
<path id="Vector" d="M7.15005 14.3002C7.0679 14.3002 6.98574 14.3122 6.90737 14.3377C6.46187 14.4824 5.99334 14.5752 5.50006 14.5752C5.00677 14.5752 4.53824 14.4824 4.0924 14.3377C4.01402 14.3122 3.93221 14.3002 3.85006 14.3002C1.71674 14.3002 -0.0112882 16.0354 5.55321e-05 18.1715C0.00486803 19.0742 0.747024 19.8002 1.65006 19.8002H9.35005C10.2531 19.8002 10.9952 19.0742 11.0001 18.1715C11.0114 16.0354 9.28337 14.3002 7.15005 14.3002ZM5.50006 13.2002C7.32262 13.2002 8.80005 11.7228 8.80005 9.9002C8.80005 8.07763 7.32262 6.6002 5.50006 6.6002C3.67749 6.6002 2.20006 8.07763 2.20006 9.9002C2.20006 11.7228 3.67749 13.2002 5.50006 13.2002ZM20.3501 2.2002H7.15005C6.24015 2.2002 5.50006 2.96504 5.50006 3.90485V5.5002C6.30512 5.5002 7.05037 5.73326 7.70006 6.11207V4.4002H19.8001V14.3002H17.6001V12.1002H13.2001V14.3002H10.5793C11.2359 14.8739 11.7178 15.6315 11.9436 16.5002H20.3501C21.26 16.5002 22.0001 15.7354 22.0001 14.7955V3.90485C22.0001 2.96504 21.26 2.2002 20.3501 2.2002Z" fill="black"/>
</g>
<defs>
<clipPath id="clip0_172_9823">
<rect width="22" height="22" fill="white"/>
</clipPath>
</defs>
</svg>
