<svg width="83" height="21" viewBox="0 0 83 21" fill="none" xmlns="http://www.w3.org/2000/svg">
<path d="M11.7022 10.6932V9.23286H20.8049V10.6932H11.7022ZM10.7773 20.9155C8.79772 20.9155 7.01288 20.4612 5.42274 19.5525C3.8326 18.6439 2.56699 17.4107 1.62589 15.853C0.684785 14.2953 0.214235 12.5592 0.214235 10.6445C0.214235 8.69741 0.684785 6.96124 1.62589 5.436C2.56699 3.87832 3.8326 2.64515 5.42274 1.73651C7.01288 0.827856 8.79772 0.373532 10.7773 0.373532C12.627 0.373532 14.3145 0.779179 15.8398 1.59047C17.365 2.36931 18.5819 3.424 19.4906 4.75452L18.3223 5.58204C17.511 4.44623 16.4563 3.53758 15.1583 2.85609C13.8602 2.1746 12.3999 1.83386 10.7773 1.83386C9.05734 1.83386 7.49965 2.22328 6.10423 3.00212C4.74125 3.78097 3.65412 4.83565 2.84283 6.16617C2.06398 7.46424 1.67456 8.95702 1.67456 10.6445C1.67456 12.2995 2.06398 13.7923 2.84283 15.1229C3.65412 16.4534 4.74125 17.5081 6.10423 18.2869C7.49965 19.0657 9.05734 19.4552 10.7773 19.4552C12.7568 19.4552 14.5092 18.9522 16.0345 17.9462C17.5597 16.9077 18.6468 15.5609 19.2959 13.9059H11.7022V12.4456H20.8049V13.9059C20.1234 15.9828 18.874 17.6703 17.0567 18.9684C15.2718 20.2665 13.1787 20.9155 10.7773 20.9155ZM10.7773 17.7028C9.38185 17.7028 8.13246 17.3945 7.0291 16.7779C5.92574 16.1613 5.04954 15.3176 4.40051 14.2467C3.75147 13.1757 3.42696 11.975 3.42696 10.6445C3.42696 9.31399 3.75147 8.11327 4.40051 7.04237C5.04954 5.97146 5.92574 5.12771 7.0291 4.51113C8.13246 3.89455 9.38185 3.58625 10.7773 3.58625C12.0753 3.58625 13.2436 3.86209 14.2821 4.41377C15.353 4.933 16.2129 5.64694 16.862 6.55559L15.645 7.38311C14.5092 5.82543 12.8866 5.04658 10.7773 5.04658C9.08979 5.04658 7.67814 5.58204 6.54233 6.65294C5.43897 7.6914 4.88729 9.02192 4.88729 10.6445C4.88729 12.2346 5.43897 13.5652 6.54233 14.6361C7.67814 15.707 9.08979 16.2424 10.7773 16.2424C12.8866 16.2424 14.5092 15.4636 15.645 13.9059H17.3488C16.7322 15.0417 15.8398 15.9666 14.6715 16.6805C13.5357 17.362 12.2376 17.7028 10.7773 17.7028ZM43.2405 10.6445C43.2405 8.95702 42.8349 7.46424 42.0236 6.16617C41.2448 4.83565 40.1576 3.78097 38.7622 3.00212C37.3992 2.22328 35.8578 1.83386 34.1378 1.83386C32.4179 1.83386 30.8602 2.22328 29.4648 3.00212C28.1018 3.78097 27.0147 4.83565 26.2034 6.16617C25.4245 7.46424 25.0351 8.95702 25.0351 10.6445C25.0351 12.2995 25.4245 13.7923 26.2034 15.1229C27.0147 16.4534 28.1018 17.5081 29.4648 18.2869C30.8602 19.0657 32.4179 19.4552 34.1378 19.4552C35.8578 19.4552 37.3992 19.0657 38.7622 18.2869C40.1576 17.5081 41.2448 16.4534 42.0236 15.1229C42.8349 13.7923 43.2405 12.2995 43.2405 10.6445ZM40.0278 10.6445C40.0278 9.02192 39.4599 7.6914 38.3241 6.65294C37.2207 5.58204 35.8253 5.04658 34.1378 5.04658C32.4503 5.04658 31.0387 5.58204 29.9029 6.65294C28.7995 7.6914 28.2478 9.02192 28.2478 10.6445C28.2478 12.2346 28.7995 13.5652 29.9029 14.6361C31.0387 15.707 32.4503 16.2424 34.1378 16.2424C35.8253 16.2424 37.2207 15.707 38.3241 14.6361C39.4599 13.5652 40.0278 12.2346 40.0278 10.6445ZM34.1378 17.7028C32.7424 17.7028 31.493 17.3945 30.3896 16.7779C29.2863 16.1613 28.4101 15.3176 27.7611 14.2467C27.112 13.1757 26.7875 11.975 26.7875 10.6445C26.7875 9.31399 27.112 8.11327 27.7611 7.04237C28.4101 5.97146 29.2863 5.12771 30.3896 4.51113C31.493 3.89455 32.7424 3.58625 34.1378 3.58625C35.5333 3.58625 36.7826 3.89455 37.886 4.51113C38.9894 5.12771 39.8656 5.97146 40.5146 7.04237C41.1636 8.11327 41.4881 9.31399 41.4881 10.6445C41.4881 11.975 41.1636 13.1757 40.5146 14.2467C39.8656 15.3176 38.9894 16.1613 37.886 16.7779C36.7826 17.3945 35.5333 17.7028 34.1378 17.7028ZM34.1378 20.9155C32.1583 20.9155 30.3734 20.4612 28.7833 19.5525C27.1932 18.6439 25.9275 17.4107 24.9864 15.853C24.0453 14.2953 23.5748 12.5592 23.5748 10.6445C23.5748 8.69741 24.0453 6.96124 24.9864 5.436C25.9275 3.87832 27.1932 2.64515 28.7833 1.73651C30.3734 0.827856 32.1583 0.373532 34.1378 0.373532C36.1174 0.373532 37.9022 0.827856 39.4924 1.73651C41.0825 2.64515 42.3481 3.87832 43.2892 5.436C44.2303 6.96124 44.7009 8.69741 44.7009 10.6445C44.7009 12.5592 44.2303 14.2953 43.2892 15.853C42.3481 17.4107 41.0825 18.6439 39.4924 19.5525C37.9022 20.4612 36.1174 20.9155 34.1378 20.9155ZM51.1577 20.4287V0.860309H52.6181V15.7557H61.3314V17.216H52.6181V18.9684H61.3314V20.4287H51.1577ZM47.945 20.4287V0.860309H49.4053V20.4287H47.945ZM67.055 20.4287V0.860309H71.9228C73.9672 0.89276 75.7683 1.33086 77.326 2.1746C78.8837 3.01835 80.1006 4.17039 80.9768 5.63071C81.8855 7.09104 82.3398 8.76231 82.3398 10.6445C82.3398 12.5267 81.8855 14.2142 80.9768 15.707C80.1006 17.1673 78.8675 18.3193 77.2773 19.1631C75.7196 20.0068 73.9348 20.4287 71.9228 20.4287H67.055ZM63.8423 20.4287V0.860309H65.3026V20.4287H63.8423ZM71.7767 2.32064H68.5153V4.07303H71.9228C74.0646 4.10548 75.8008 4.72207 77.1313 5.92278C78.4618 7.1235 79.1271 8.69741 79.1271 10.6445C79.1271 12.6241 78.4456 14.2142 77.0826 15.4149C75.7521 16.6156 74.0321 17.216 71.9228 17.216H68.5153V18.9684H71.7767C73.594 18.9684 75.1842 18.6276 76.5472 17.9462C77.9101 17.2322 78.9648 16.2424 79.7112 14.9768C80.49 13.7112 80.8795 12.2671 80.8795 10.6445C80.8795 8.98947 80.49 7.54537 79.7112 6.3122C78.9648 5.04658 77.9101 4.07303 76.5472 3.39154C75.1842 2.67761 73.594 2.32064 71.7767 2.32064ZM71.7767 5.53336H68.5153V15.7557H71.7767C73.594 15.7557 75.0219 15.3013 76.0604 14.3927C77.1313 13.484 77.6667 12.2346 77.6667 10.6445C77.6667 9.05437 77.1313 7.80498 76.0604 6.89633C75.0219 5.98768 73.594 5.53336 71.7767 5.53336Z" fill="#FDF5EA"/>
<path d="M11.7022 10.6932V9.23286H20.8049V10.6932H11.7022ZM10.7773 20.9155C8.79772 20.9155 7.01288 20.4612 5.42274 19.5525C3.8326 18.6439 2.56699 17.4107 1.62589 15.853C0.684785 14.2953 0.214235 12.5592 0.214235 10.6445C0.214235 8.69741 0.684785 6.96124 1.62589 5.436C2.56699 3.87832 3.8326 2.64515 5.42274 1.73651C7.01288 0.827856 8.79772 0.373532 10.7773 0.373532C12.627 0.373532 14.3145 0.779179 15.8398 1.59047C17.365 2.36931 18.5819 3.424 19.4906 4.75452L18.3223 5.58204C17.511 4.44623 16.4563 3.53758 15.1583 2.85609C13.8602 2.1746 12.3999 1.83386 10.7773 1.83386C9.05734 1.83386 7.49965 2.22328 6.10423 3.00212C4.74125 3.78097 3.65412 4.83565 2.84283 6.16617C2.06398 7.46424 1.67456 8.95702 1.67456 10.6445C1.67456 12.2995 2.06398 13.7923 2.84283 15.1229C3.65412 16.4534 4.74125 17.5081 6.10423 18.2869C7.49965 19.0657 9.05734 19.4552 10.7773 19.4552C12.7568 19.4552 14.5092 18.9522 16.0345 17.9462C17.5597 16.9077 18.6468 15.5609 19.2959 13.9059H11.7022V12.4456H20.8049V13.9059C20.1234 15.9828 18.874 17.6703 17.0567 18.9684C15.2718 20.2665 13.1787 20.9155 10.7773 20.9155ZM10.7773 17.7028C9.38185 17.7028 8.13246 17.3945 7.0291 16.7779C5.92574 16.1613 5.04954 15.3176 4.40051 14.2467C3.75147 13.1757 3.42696 11.975 3.42696 10.6445C3.42696 9.31399 3.75147 8.11327 4.40051 7.04237C5.04954 5.97146 5.92574 5.12771 7.0291 4.51113C8.13246 3.89455 9.38185 3.58625 10.7773 3.58625C12.0753 3.58625 13.2436 3.86209 14.2821 4.41377C15.353 4.933 16.2129 5.64694 16.862 6.55559L15.645 7.38311C14.5092 5.82543 12.8866 5.04658 10.7773 5.04658C9.08979 5.04658 7.67814 5.58204 6.54233 6.65294C5.43897 7.6914 4.88729 9.02192 4.88729 10.6445C4.88729 12.2346 5.43897 13.5652 6.54233 14.6361C7.67814 15.707 9.08979 16.2424 10.7773 16.2424C12.8866 16.2424 14.5092 15.4636 15.645 13.9059H17.3488C16.7322 15.0417 15.8398 15.9666 14.6715 16.6805C13.5357 17.362 12.2376 17.7028 10.7773 17.7028ZM43.2405 10.6445C43.2405 8.95702 42.8349 7.46424 42.0236 6.16617C41.2448 4.83565 40.1576 3.78097 38.7622 3.00212C37.3992 2.22328 35.8578 1.83386 34.1378 1.83386C32.4179 1.83386 30.8602 2.22328 29.4648 3.00212C28.1018 3.78097 27.0147 4.83565 26.2034 6.16617C25.4245 7.46424 25.0351 8.95702 25.0351 10.6445C25.0351 12.2995 25.4245 13.7923 26.2034 15.1229C27.0147 16.4534 28.1018 17.5081 29.4648 18.2869C30.8602 19.0657 32.4179 19.4552 34.1378 19.4552C35.8578 19.4552 37.3992 19.0657 38.7622 18.2869C40.1576 17.5081 41.2448 16.4534 42.0236 15.1229C42.8349 13.7923 43.2405 12.2995 43.2405 10.6445ZM40.0278 10.6445C40.0278 9.02192 39.4599 7.6914 38.3241 6.65294C37.2207 5.58204 35.8253 5.04658 34.1378 5.04658C32.4503 5.04658 31.0387 5.58204 29.9029 6.65294C28.7995 7.6914 28.2478 9.02192 28.2478 10.6445C28.2478 12.2346 28.7995 13.5652 29.9029 14.6361C31.0387 15.707 32.4503 16.2424 34.1378 16.2424C35.8253 16.2424 37.2207 15.707 38.3241 14.6361C39.4599 13.5652 40.0278 12.2346 40.0278 10.6445ZM34.1378 17.7028C32.7424 17.7028 31.493 17.3945 30.3896 16.7779C29.2863 16.1613 28.4101 15.3176 27.7611 14.2467C27.112 13.1757 26.7875 11.975 26.7875 10.6445C26.7875 9.31399 27.112 8.11327 27.7611 7.04237C28.4101 5.97146 29.2863 5.12771 30.3896 4.51113C31.493 3.89455 32.7424 3.58625 34.1378 3.58625C35.5333 3.58625 36.7826 3.89455 37.886 4.51113C38.9894 5.12771 39.8656 5.97146 40.5146 7.04237C41.1636 8.11327 41.4881 9.31399 41.4881 10.6445C41.4881 11.975 41.1636 13.1757 40.5146 14.2467C39.8656 15.3176 38.9894 16.1613 37.886 16.7779C36.7826 17.3945 35.5333 17.7028 34.1378 17.7028ZM34.1378 20.9155C32.1583 20.9155 30.3734 20.4612 28.7833 19.5525C27.1932 18.6439 25.9275 17.4107 24.9864 15.853C24.0453 14.2953 23.5748 12.5592 23.5748 10.6445C23.5748 8.69741 24.0453 6.96124 24.9864 5.436C25.9275 3.87832 27.1932 2.64515 28.7833 1.73651C30.3734 0.827856 32.1583 0.373532 34.1378 0.373532C36.1174 0.373532 37.9022 0.827856 39.4924 1.73651C41.0825 2.64515 42.3481 3.87832 43.2892 5.436C44.2303 6.96124 44.7009 8.69741 44.7009 10.6445C44.7009 12.5592 44.2303 14.2953 43.2892 15.853C42.3481 17.4107 41.0825 18.6439 39.4924 19.5525C37.9022 20.4612 36.1174 20.9155 34.1378 20.9155ZM51.1577 20.4287V0.860309H52.6181V15.7557H61.3314V17.216H52.6181V18.9684H61.3314V20.4287H51.1577ZM47.945 20.4287V0.860309H49.4053V20.4287H47.945ZM67.055 20.4287V0.860309H71.9228C73.9672 0.89276 75.7683 1.33086 77.326 2.1746C78.8837 3.01835 80.1006 4.17039 80.9768 5.63071C81.8855 7.09104 82.3398 8.76231 82.3398 10.6445C82.3398 12.5267 81.8855 14.2142 80.9768 15.707C80.1006 17.1673 78.8675 18.3193 77.2773 19.1631C75.7196 20.0068 73.9348 20.4287 71.9228 20.4287H67.055ZM63.8423 20.4287V0.860309H65.3026V20.4287H63.8423ZM71.7767 2.32064H68.5153V4.07303H71.9228C74.0646 4.10548 75.8008 4.72207 77.1313 5.92278C78.4618 7.1235 79.1271 8.69741 79.1271 10.6445C79.1271 12.6241 78.4456 14.2142 77.0826 15.4149C75.7521 16.6156 74.0321 17.216 71.9228 17.216H68.5153V18.9684H71.7767C73.594 18.9684 75.1842 18.6276 76.5472 17.9462C77.9101 17.2322 78.9648 16.2424 79.7112 14.9768C80.49 13.7112 80.8795 12.2671 80.8795 10.6445C80.8795 8.98947 80.49 7.54537 79.7112 6.3122C78.9648 5.04658 77.9101 4.07303 76.5472 3.39154C75.1842 2.67761 73.594 2.32064 71.7767 2.32064ZM71.7767 5.53336H68.5153V15.7557H71.7767C73.594 15.7557 75.0219 15.3013 76.0604 14.3927C77.1313 13.484 77.6667 12.2346 77.6667 10.6445C77.6667 9.05437 77.1313 7.80498 76.0604 6.89633C75.0219 5.98768 73.594 5.53336 71.7767 5.53336Z" fill="url(#paint0_linear_1075_3085)"/>
<defs>
<linearGradient id="paint0_linear_1075_3085" x1="84.52" y1="9.28023" x2="-1.24609" y2="9.28023" gradientUnits="userSpaceOnUse">
<stop stop-color="#9A7026"/>
<stop offset="0.5" stop-color="#C99950"/>
<stop offset="1" stop-color="#9A7026"/>
</linearGradient>
</defs>
</svg>
