<svg width="92" height="40" viewBox="0 0 92 40" fill="none" xmlns="http://www.w3.org/2000/svg">
<path d="M91.7892 31.617C91.6786 36.1506 87.9689 39.7917 83.4087 39.7917H74.5597C74.6702 35.2581 78.38 31.617 82.9402 31.617H91.7892Z" stroke="black" stroke-width="0.416547"/>
<path d="M91.7892 31.617C91.6786 36.1506 87.9689 39.7917 83.4087 39.7917H74.5597C74.6702 35.2581 78.38 31.617 82.9402 31.617H91.7892Z" stroke="url(#paint0_linear_986_26497)" stroke-width="0.416547"/>
<path d="M67.0343 31.617C66.9238 36.1506 63.214 39.7917 58.6538 39.7917H49.8048C49.9153 35.2581 53.6251 31.617 58.1853 31.617H67.0343Z" stroke="black" stroke-width="0.416547"/>
<path d="M67.0343 31.617C66.9238 36.1506 63.214 39.7917 58.6538 39.7917H49.8048C49.9153 35.2581 53.6251 31.617 58.1853 31.617H67.0343Z" stroke="url(#paint1_linear_986_26497)" stroke-width="0.416547"/>
<path d="M42.2804 31.617C42.1699 36.1506 38.4601 39.7917 33.8999 39.7917H25.0509C25.1614 35.2581 28.8712 31.617 33.4314 31.617H42.2804Z" stroke="black" stroke-width="0.416547"/>
<path d="M42.2804 31.617C42.1699 36.1506 38.4601 39.7917 33.8999 39.7917H25.0509C25.1614 35.2581 28.8712 31.617 33.4314 31.617H42.2804Z" stroke="url(#paint2_linear_986_26497)" stroke-width="0.416547"/>
<path d="M17.5255 31.617C17.415 36.1506 13.7052 39.7917 9.14504 39.7917H0.296013C0.406561 35.2581 4.11631 31.617 8.67649 31.617H17.5255Z" stroke="black" stroke-width="0.416547"/>
<path d="M17.5255 31.617C17.415 36.1506 13.7052 39.7917 9.14504 39.7917H0.296013C0.406561 35.2581 4.11631 31.617 8.67649 31.617H17.5255Z" stroke="url(#paint3_linear_986_26497)" stroke-width="0.416547"/>
<path d="M68.1105 15.9036C67.9999 20.4477 64.2817 24.0974 59.7109 24.0974H49.8047C49.9152 19.5533 53.6335 15.9036 58.2042 15.9036H68.1105Z" stroke="black" stroke-width="0.416547"/>
<path d="M68.1105 15.9036C67.9999 20.4477 64.2817 24.0974 59.7109 24.0974H49.8047C49.9152 19.5533 53.6335 15.9036 58.2042 15.9036H68.1105Z" stroke="url(#paint4_linear_986_26497)" stroke-width="0.416547"/>
<path d="M42.2804 15.9226C42.1699 20.4562 38.4601 24.0974 33.8999 24.0974H25.0509C25.1614 19.5638 28.8712 15.9226 33.4314 15.9226H42.2804Z" stroke="black" stroke-width="0.416547"/>
<path d="M42.2804 15.9226C42.1699 20.4562 38.4601 24.0974 33.8999 24.0974H25.0509C25.1614 19.5638 28.8712 15.9226 33.4314 15.9226H42.2804Z" stroke="url(#paint5_linear_986_26497)" stroke-width="0.416547"/>
<path d="M17.5255 15.9226C17.415 20.4562 13.7052 24.0974 9.14504 24.0974H0.296013C0.406561 19.5638 4.11631 15.9226 8.67649 15.9226H17.5255Z" stroke="black" stroke-width="0.416547"/>
<path d="M17.5255 15.9226C17.415 20.4562 13.7052 24.0974 9.14504 24.0974H0.296013C0.406561 19.5638 4.11631 15.9226 8.67649 15.9226H17.5255Z" stroke="url(#paint6_linear_986_26497)" stroke-width="0.416547"/>
<path d="M42.2804 0.208777C42.1699 4.74235 38.4601 8.38352 33.8999 8.38352H25.0509C25.1614 3.84995 28.8712 0.208777 33.4314 0.208777H42.2804Z" stroke="black" stroke-width="0.416547"/>
<path d="M42.2804 0.208777C42.1699 4.74235 38.4601 8.38352 33.8999 8.38352H25.0509C25.1614 3.84995 28.8712 0.208777 33.4314 0.208777H42.2804Z" stroke="url(#paint7_linear_986_26497)" stroke-width="0.416547"/>
<path d="M17.5255 0.208777C17.415 4.74235 13.7052 8.38352 9.14504 8.38352H0.296013C0.406561 3.84995 4.11631 0.208777 8.67649 0.208777H17.5255Z" stroke="black" stroke-width="0.416547"/>
<path d="M17.5255 0.208777C17.415 4.74235 13.7052 8.38352 9.14504 8.38352H0.296013C0.406561 3.84995 4.11631 0.208777 8.67649 0.208777H17.5255Z" stroke="url(#paint8_linear_986_26497)" stroke-width="0.416547"/>
<defs>
<linearGradient id="paint0_linear_986_26497" x1="74.3489" y1="35.7044" x2="92" y2="35.7044" gradientUnits="userSpaceOnUse">
<stop stop-color="#9A7026"/>
<stop offset="0.5" stop-color="#FCDCAB" stop-opacity="0.5"/>
<stop offset="1" stop-color="#9A7026"/>
</linearGradient>
<linearGradient id="paint1_linear_986_26497" x1="49.594" y1="35.7044" x2="67.2451" y2="35.7044" gradientUnits="userSpaceOnUse">
<stop stop-color="#9A7026"/>
<stop offset="0.5" stop-color="#FCDCAB" stop-opacity="0.5"/>
<stop offset="1" stop-color="#9A7026"/>
</linearGradient>
<linearGradient id="paint2_linear_986_26497" x1="24.8401" y1="35.7044" x2="42.4912" y2="35.7044" gradientUnits="userSpaceOnUse">
<stop stop-color="#9A7026"/>
<stop offset="0.5" stop-color="#FCDCAB" stop-opacity="0.5"/>
<stop offset="1" stop-color="#9A7026"/>
</linearGradient>
<linearGradient id="paint3_linear_986_26497" x1="0.0852032" y1="35.7044" x2="17.7363" y2="35.7044" gradientUnits="userSpaceOnUse">
<stop stop-color="#9A7026"/>
<stop offset="0.5" stop-color="#FCDCAB" stop-opacity="0.5"/>
<stop offset="1" stop-color="#9A7026"/>
</linearGradient>
<linearGradient id="paint4_linear_986_26497" x1="49.5939" y1="20.0005" x2="68.3213" y2="20.0005" gradientUnits="userSpaceOnUse">
<stop stop-color="#9A7026"/>
<stop offset="0.5" stop-color="#FCDCAB" stop-opacity="0.5"/>
<stop offset="1" stop-color="#9A7026"/>
</linearGradient>
<linearGradient id="paint5_linear_986_26497" x1="24.8401" y1="20.01" x2="42.4912" y2="20.01" gradientUnits="userSpaceOnUse">
<stop stop-color="#9A7026"/>
<stop offset="0.5" stop-color="#FCDCAB" stop-opacity="0.5"/>
<stop offset="1" stop-color="#9A7026"/>
</linearGradient>
<linearGradient id="paint6_linear_986_26497" x1="0.0852032" y1="20.01" x2="17.7363" y2="20.01" gradientUnits="userSpaceOnUse">
<stop stop-color="#9A7026"/>
<stop offset="0.5" stop-color="#FCDCAB" stop-opacity="0.5"/>
<stop offset="1" stop-color="#9A7026"/>
</linearGradient>
<linearGradient id="paint7_linear_986_26497" x1="24.8401" y1="4.29615" x2="42.4912" y2="4.29615" gradientUnits="userSpaceOnUse">
<stop stop-color="#9A7026"/>
<stop offset="0.5" stop-color="#FCDCAB" stop-opacity="0.5"/>
<stop offset="1" stop-color="#9A7026"/>
</linearGradient>
<linearGradient id="paint8_linear_986_26497" x1="0.0852032" y1="4.29615" x2="17.7363" y2="4.29615" gradientUnits="userSpaceOnUse">
<stop stop-color="#9A7026"/>
<stop offset="0.5" stop-color="#FCDCAB" stop-opacity="0.5"/>
<stop offset="1" stop-color="#9A7026"/>
</linearGradient>
</defs>
</svg>
