<svg width="93" height="41" viewBox="0 0 93 41" fill="none" xmlns="http://www.w3.org/2000/svg">
<path d="M0.794794 8.63692C0.905342 4.10335 4.61509 0.46218 9.17528 0.46218H18.0243C17.9137 4.99576 14.204 8.63692 9.64382 8.63692H0.794794Z" stroke="black" stroke-width="0.416547"/>
<path d="M0.794794 8.63692C0.905342 4.10335 4.61509 0.46218 9.17528 0.46218H18.0243C17.9137 4.99576 14.204 8.63692 9.64382 8.63692H0.794794Z" stroke="url(#paint0_linear_986_26507)" stroke-width="0.416547"/>
<path d="M25.5497 8.63692C25.6602 4.10335 29.37 0.46218 33.9302 0.46218H42.7792C42.6686 4.99576 38.9589 8.63692 34.3987 8.63692H25.5497Z" stroke="black" stroke-width="0.416547"/>
<path d="M25.5497 8.63692C25.6602 4.10335 29.37 0.46218 33.9302 0.46218H42.7792C42.6686 4.99576 38.9589 8.63692 34.3987 8.63692H25.5497Z" stroke="url(#paint1_linear_986_26507)" stroke-width="0.416547"/>
<path d="M50.3046 8.63692C50.4151 4.10335 54.1249 0.46218 58.685 0.46218H67.5341C67.4235 4.99576 63.7138 8.63692 59.1536 8.63692H50.3046Z" stroke="black" stroke-width="0.416547"/>
<path d="M50.3046 8.63692C50.4151 4.10335 54.1249 0.46218 58.685 0.46218H67.5341C67.4235 4.99576 63.7138 8.63692 59.1536 8.63692H50.3046Z" stroke="url(#paint2_linear_986_26507)" stroke-width="0.416547"/>
<path d="M75.0585 8.63692C75.169 4.10335 78.8788 0.46218 83.4389 0.46218H92.288C92.1774 4.99576 88.4677 8.63692 83.9075 8.63692H75.0585Z" stroke="black" stroke-width="0.416547"/>
<path d="M75.0585 8.63692C75.169 4.10335 78.8788 0.46218 83.4389 0.46218H92.288C92.1774 4.99576 88.4677 8.63692 83.9075 8.63692H75.0585Z" stroke="url(#paint3_linear_986_26507)" stroke-width="0.416547"/>
<path d="M24.4735 24.3513C24.5841 19.8072 28.3023 16.1575 32.873 16.1575H42.7793C42.6688 20.7016 38.9505 24.3513 34.3798 24.3513H24.4735Z" stroke="black" stroke-width="0.416547"/>
<path d="M24.4735 24.3513C24.5841 19.8072 28.3023 16.1575 32.873 16.1575H42.7793C42.6688 20.7016 38.9505 24.3513 34.3798 24.3513H24.4735Z" stroke="url(#paint4_linear_986_26507)" stroke-width="0.416547"/>
<path d="M50.3046 24.3322C50.4151 19.7987 54.1249 16.1575 58.685 16.1575H67.5341C67.4235 20.6911 63.7138 24.3322 59.1536 24.3322H50.3046Z" stroke="black" stroke-width="0.416547"/>
<path d="M50.3046 24.3322C50.4151 19.7987 54.1249 16.1575 58.685 16.1575H67.5341C67.4235 20.6911 63.7138 24.3322 59.1536 24.3322H50.3046Z" stroke="url(#paint5_linear_986_26507)" stroke-width="0.416547"/>
<path d="M75.0585 24.3322C75.169 19.7987 78.8788 16.1575 83.4389 16.1575H92.288C92.1774 20.6911 88.4677 24.3322 83.9075 24.3322H75.0585Z" stroke="black" stroke-width="0.416547"/>
<path d="M75.0585 24.3322C75.169 19.7987 78.8788 16.1575 83.4389 16.1575H92.288C92.1774 20.6911 88.4677 24.3322 83.9075 24.3322H75.0585Z" stroke="url(#paint6_linear_986_26507)" stroke-width="0.416547"/>
<path d="M50.3046 40.0461C50.4151 35.5125 54.1249 31.8714 58.685 31.8714H67.5341C67.4235 36.4049 63.7138 40.0461 59.1536 40.0461H50.3046Z" stroke="black" stroke-width="0.416547"/>
<path d="M50.3046 40.0461C50.4151 35.5125 54.1249 31.8714 58.685 31.8714H67.5341C67.4235 36.4049 63.7138 40.0461 59.1536 40.0461H50.3046Z" stroke="url(#paint7_linear_986_26507)" stroke-width="0.416547"/>
<path d="M75.0585 40.0461C75.169 35.5125 78.8788 31.8714 83.4389 31.8714H92.288C92.1774 36.4049 88.4677 40.0461 83.9075 40.0461H75.0585Z" stroke="black" stroke-width="0.416547"/>
<path d="M75.0585 40.0461C75.169 35.5125 78.8788 31.8714 83.4389 31.8714H92.288C92.1774 36.4049 88.4677 40.0461 83.9075 40.0461H75.0585Z" stroke="url(#paint8_linear_986_26507)" stroke-width="0.416547"/>
<defs>
<linearGradient id="paint0_linear_986_26507" x1="18.2351" y1="4.54955" x2="0.583984" y2="4.54955" gradientUnits="userSpaceOnUse">
<stop stop-color="#9A7026"/>
<stop offset="0.5" stop-color="#FCDCAB" stop-opacity="0.5"/>
<stop offset="1" stop-color="#9A7026"/>
</linearGradient>
<linearGradient id="paint1_linear_986_26507" x1="42.99" y1="4.54955" x2="25.3389" y2="4.54955" gradientUnits="userSpaceOnUse">
<stop stop-color="#9A7026"/>
<stop offset="0.5" stop-color="#FCDCAB" stop-opacity="0.5"/>
<stop offset="1" stop-color="#9A7026"/>
</linearGradient>
<linearGradient id="paint2_linear_986_26507" x1="67.7449" y1="4.54955" x2="50.0938" y2="4.54955" gradientUnits="userSpaceOnUse">
<stop stop-color="#9A7026"/>
<stop offset="0.5" stop-color="#FCDCAB" stop-opacity="0.5"/>
<stop offset="1" stop-color="#9A7026"/>
</linearGradient>
<linearGradient id="paint3_linear_986_26507" x1="92.4988" y1="4.54955" x2="74.8477" y2="4.54955" gradientUnits="userSpaceOnUse">
<stop stop-color="#9A7026"/>
<stop offset="0.5" stop-color="#FCDCAB" stop-opacity="0.5"/>
<stop offset="1" stop-color="#9A7026"/>
</linearGradient>
<linearGradient id="paint4_linear_986_26507" x1="42.9901" y1="20.2544" x2="24.2627" y2="20.2544" gradientUnits="userSpaceOnUse">
<stop stop-color="#9A7026"/>
<stop offset="0.5" stop-color="#FCDCAB" stop-opacity="0.5"/>
<stop offset="1" stop-color="#9A7026"/>
</linearGradient>
<linearGradient id="paint5_linear_986_26507" x1="67.7449" y1="20.2449" x2="50.0938" y2="20.2449" gradientUnits="userSpaceOnUse">
<stop stop-color="#9A7026"/>
<stop offset="0.5" stop-color="#FCDCAB" stop-opacity="0.5"/>
<stop offset="1" stop-color="#9A7026"/>
</linearGradient>
<linearGradient id="paint6_linear_986_26507" x1="92.4988" y1="20.2449" x2="74.8477" y2="20.2449" gradientUnits="userSpaceOnUse">
<stop stop-color="#9A7026"/>
<stop offset="0.5" stop-color="#FCDCAB" stop-opacity="0.5"/>
<stop offset="1" stop-color="#9A7026"/>
</linearGradient>
<linearGradient id="paint7_linear_986_26507" x1="67.7449" y1="35.9587" x2="50.0938" y2="35.9587" gradientUnits="userSpaceOnUse">
<stop stop-color="#9A7026"/>
<stop offset="0.5" stop-color="#FCDCAB" stop-opacity="0.5"/>
<stop offset="1" stop-color="#9A7026"/>
</linearGradient>
<linearGradient id="paint8_linear_986_26507" x1="92.4988" y1="35.9587" x2="74.8477" y2="35.9587" gradientUnits="userSpaceOnUse">
<stop stop-color="#9A7026"/>
<stop offset="0.5" stop-color="#FCDCAB" stop-opacity="0.5"/>
<stop offset="1" stop-color="#9A7026"/>
</linearGradient>
</defs>
</svg>
