<svg xmlns="http://www.w3.org/2000/svg" width="41" height="42" viewBox="0 0 41 42" fill="none">
  <g clip-path="url(#clip0_986_23780)">
    <path d="M0.86876 20.7542C0.867807 24.199 1.7679 27.5626 3.47941 30.5273L0.705078 40.6568L11.0714 37.9387C13.9386 39.4996 17.1511 40.3175 20.4156 40.3177H20.4242C31.201 40.3177 39.9735 31.5483 39.9782 20.7696C39.9802 15.5465 37.948 10.6351 34.2558 6.94004C30.5642 3.24527 25.6545 1.20941 20.4234 1.20703C9.6453 1.20703 0.873369 9.97595 0.868919 20.7542" fill="url(#paint0_linear_986_23780)"/>
    <path d="M0.170039 20.7483C0.168926 24.317 1.10128 27.8009 2.87381 30.8718L0 41.3644L10.738 38.549C13.6967 40.1621 17.0279 41.0126 20.4175 41.0139H20.4263C31.5897 41.0139 40.6774 31.929 40.6822 20.7645C40.6841 15.3538 38.5788 10.2658 34.7547 6.43833C30.93 2.61134 25.8448 0.502225 20.4263 0.5C9.26091 0.5 0.174488 9.58357 0.170039 20.7483ZM6.56493 30.3429L6.16398 29.7065C4.47853 27.0265 3.58893 23.9296 3.5902 20.7496C3.5937 11.4697 11.146 3.91985 20.4326 3.91985C24.9299 3.92175 29.1564 5.6749 32.3353 8.85574C35.5141 12.0369 37.2633 16.2656 37.2622 20.7632C37.258 30.043 29.7056 37.5939 20.4263 37.5939H20.4196C17.3981 37.5923 14.4349 36.7809 11.8506 35.2475L11.2356 34.8828L4.86343 36.5535L6.56493 30.3429Z" fill="url(#paint1_linear_986_23780)"/>
    <path d="M15.3627 12.2828C14.9835 11.44 14.5845 11.423 14.2239 11.4083C13.9286 11.3955 13.5911 11.3965 13.2539 11.3965C12.9164 11.3965 12.3679 11.5235 11.9044 12.0296C11.4404 12.5362 10.1328 13.7605 10.1328 16.2506C10.1328 18.7407 11.9465 21.1472 12.1993 21.4852C12.4525 21.8226 15.7007 27.096 20.8451 29.1247C25.1205 30.8106 25.9906 30.4753 26.9185 30.3908C27.8466 30.3066 29.9131 29.1668 30.3347 27.985C30.7566 26.8033 30.7566 25.7904 30.6301 25.5787C30.5036 25.3678 30.1661 25.2411 29.6599 24.9882C29.1536 24.735 26.6653 23.5106 26.2015 23.3416C25.7374 23.1729 25.4001 23.0887 25.0625 23.5954C24.725 24.1014 23.7558 25.2412 23.4604 25.5787C23.1652 25.917 22.8698 25.9591 22.3638 25.706C21.8574 25.452 20.2274 24.9182 18.2936 23.1942C16.789 21.8526 15.7732 20.1959 15.4779 19.6891C15.1826 19.1832 15.4463 18.9089 15.7001 18.6567C15.9275 18.4299 16.2064 18.0657 16.4597 17.7703C16.712 17.4747 16.7963 17.2638 16.965 16.9263C17.134 16.5884 17.0494 16.2928 16.9231 16.0397C16.7963 15.7865 15.8127 13.2835 15.3627 12.2828Z" fill="white"/>
  </g>
  <defs>
    <linearGradient id="paint0_linear_986_23780" x1="1964.36" y1="3946.19" x2="1964.36" y2="1.20703" gradientUnits="userSpaceOnUse">
      <stop stop-color="#1FAF38"/>
      <stop offset="1" stop-color="#60D669"/>
    </linearGradient>
    <linearGradient id="paint1_linear_986_23780" x1="2034.11" y1="4086.94" x2="2034.11" y2="0.5" gradientUnits="userSpaceOnUse">
      <stop stop-color="#F9F9F9"/>
      <stop offset="1" stop-color="white"/>
    </linearGradient>
    <clipPath id="clip0_986_23780">
      <rect width="40.6822" height="41" fill="white" transform="translate(0 0.5)"/>
    </clipPath>
  </defs>
</svg>