<svg xmlns="http://www.w3.org/2000/svg" width="29" height="29" viewBox="0 0 29 29" fill="none">
  <g filter="url(#filter0_b_866_30989)">
    <path d="M24.8192 4.13237C23.5173 2.81732 21.9666 1.77465 20.2576 1.06518C18.5485 0.355709 16.7153 -0.00636189 14.8648 8.45906e-05C7.11144 8.45906e-05 0.792313 6.31921 0.792313 14.0726C0.792313 16.5576 1.44553 18.9717 2.66675 21.1017L0.678711 28.4007L8.13386 26.441C10.1929 27.5628 12.5076 28.1593 14.8648 28.1593C22.6182 28.1593 28.9373 21.8401 28.9373 14.0868C28.9373 10.3237 27.4747 6.78782 24.8192 4.13237ZM14.8648 25.7736C12.7632 25.7736 10.7041 25.2056 8.90068 24.1406L8.47467 23.885L4.04418 25.0494L5.2228 20.7325L4.9388 20.2923C3.77117 18.4278 3.15118 16.2725 3.14956 14.0726C3.14956 7.62564 8.40367 2.37153 14.8506 2.37153C17.9747 2.37153 20.9141 3.59276 23.1152 5.808C24.205 6.89285 25.0687 8.18323 25.6562 9.60434C26.2436 11.0255 26.5432 12.549 26.5374 14.0868C26.5658 20.5337 21.3117 25.7736 14.8648 25.7736ZM21.2833 17.0262C20.9283 16.8558 19.1959 16.0038 18.8835 15.876C18.5569 15.7624 18.3297 15.7056 18.0883 16.0464C17.8469 16.4014 17.1794 17.1966 16.9806 17.4238C16.7818 17.6652 16.5688 17.6936 16.2138 17.509C15.8588 17.3386 14.7228 16.9552 13.388 15.7624C12.3371 14.8252 11.6413 13.675 11.4283 13.32C11.2295 12.9649 11.3999 12.7803 11.5845 12.5957C11.7407 12.4395 11.9395 12.1839 12.1099 11.9851C12.2803 11.7863 12.3513 11.6301 12.465 11.4029C12.5786 11.1615 12.5218 10.9627 12.4366 10.7923C12.3513 10.6219 11.6413 8.88947 11.3573 8.17945C11.0733 7.49784 10.7751 7.58304 10.5621 7.56884H9.8805C9.63909 7.56884 9.26989 7.65404 8.94328 8.00905C8.63087 8.36405 7.72205 9.21607 7.72205 10.9485C7.72205 12.6809 8.98588 14.3566 9.15628 14.5838C9.32669 14.8252 11.6413 18.3753 15.163 19.8947C16.0008 20.2639 16.654 20.4769 17.1652 20.6331C18.0031 20.9029 18.7699 20.8603 19.3805 20.7751C20.0621 20.6757 21.4679 19.9231 21.7519 19.0995C22.0501 18.2759 22.0501 17.58 21.9507 17.4238C21.8513 17.2676 21.6383 17.1966 21.2833 17.0262Z" fill="url(#paint0_linear_866_30989)"/>
    <path d="M24.8192 4.13237C23.5173 2.81732 21.9666 1.77465 20.2576 1.06518C18.5485 0.355709 16.7153 -0.00636189 14.8648 8.45906e-05C7.11144 8.45906e-05 0.792313 6.31921 0.792313 14.0726C0.792313 16.5576 1.44553 18.9717 2.66675 21.1017L0.678711 28.4007L8.13386 26.441C10.1929 27.5628 12.5076 28.1593 14.8648 28.1593C22.6182 28.1593 28.9373 21.8401 28.9373 14.0868C28.9373 10.3237 27.4747 6.78782 24.8192 4.13237ZM14.8648 25.7736C12.7632 25.7736 10.7041 25.2056 8.90068 24.1406L8.47467 23.885L4.04418 25.0494L5.2228 20.7325L4.9388 20.2923C3.77117 18.4278 3.15118 16.2725 3.14956 14.0726C3.14956 7.62564 8.40367 2.37153 14.8506 2.37153C17.9747 2.37153 20.9141 3.59276 23.1152 5.808C24.205 6.89285 25.0687 8.18323 25.6562 9.60434C26.2436 11.0255 26.5432 12.549 26.5374 14.0868C26.5658 20.5337 21.3117 25.7736 14.8648 25.7736ZM21.2833 17.0262C20.9283 16.8558 19.1959 16.0038 18.8835 15.876C18.5569 15.7624 18.3297 15.7056 18.0883 16.0464C17.8469 16.4014 17.1794 17.1966 16.9806 17.4238C16.7818 17.6652 16.5688 17.6936 16.2138 17.509C15.8588 17.3386 14.7228 16.9552 13.388 15.7624C12.3371 14.8252 11.6413 13.675 11.4283 13.32C11.2295 12.9649 11.3999 12.7803 11.5845 12.5957C11.7407 12.4395 11.9395 12.1839 12.1099 11.9851C12.2803 11.7863 12.3513 11.6301 12.465 11.4029C12.5786 11.1615 12.5218 10.9627 12.4366 10.7923C12.3513 10.6219 11.6413 8.88947 11.3573 8.17945C11.0733 7.49784 10.7751 7.58304 10.5621 7.56884H9.8805C9.63909 7.56884 9.26989 7.65404 8.94328 8.00905C8.63087 8.36405 7.72205 9.21607 7.72205 10.9485C7.72205 12.6809 8.98588 14.3566 9.15628 14.5838C9.32669 14.8252 11.6413 18.3753 15.163 19.8947C16.0008 20.2639 16.654 20.4769 17.1652 20.6331C18.0031 20.9029 18.7699 20.8603 19.3805 20.7751C20.0621 20.6757 21.4679 19.9231 21.7519 19.0995C22.0501 18.2759 22.0501 17.58 21.9507 17.4238C21.8513 17.2676 21.6383 17.1966 21.2833 17.0262Z" fill="white"/>
    <path d="M8.66119 24.5461L8.65836 24.5444L8.40249 24.3909L4.1639 25.5049L3.37499 25.7122L3.58983 24.9253L4.7131 20.8112L4.54304 20.5476L4.53959 20.5423L4.53963 20.5423C3.32515 18.6029 2.68027 16.3612 2.67859 14.0729L2.67859 14.0726C2.67859 7.36553 8.14355 1.90056 14.8506 1.90056C18.0994 1.90056 21.1588 3.1713 23.4483 5.47505M8.66119 24.5461L23.1152 5.808M8.66119 24.5461C10.5366 25.6536 12.6782 26.2446 14.8648 26.2446C21.5701 26.2446 27.037 20.7955 27.0084 14.0864M8.66119 24.5461L26.5374 14.0868M23.4483 5.47505C23.4486 5.47538 23.4489 5.47571 23.4493 5.47605L23.1152 5.808M23.4483 5.47505C23.448 5.47477 23.4477 5.47449 23.4474 5.47421L23.1152 5.808M23.4483 5.47505C24.5819 6.60369 25.4803 7.94608 26.0914 9.42442C26.7024 10.9025 27.0141 12.4871 27.0084 14.0864M23.1152 5.808C24.205 6.89285 25.0687 8.18323 25.6562 9.60434C26.2436 11.0255 26.5432 12.549 26.5374 14.0868M27.0084 14.0864C27.0084 14.0859 27.0084 14.0853 27.0084 14.0847L26.5374 14.0868M27.0084 14.0864C27.0084 14.0871 27.0084 14.0878 27.0084 14.0885L26.5374 14.0868M13.0743 16.1137C14.2789 17.1901 15.3482 17.648 15.8271 17.853C15.9005 17.8845 15.9601 17.9099 16.0041 17.9308C16.2112 18.0376 16.4522 18.1239 16.7101 18.094C16.99 18.0616 17.1926 17.9054 17.3393 17.7291C17.5416 17.4975 18.2148 16.6965 18.4748 16.3156C18.4954 16.2868 18.5108 16.2698 18.5205 16.2604C18.528 16.2614 18.5383 16.2632 18.552 16.2663C18.5923 16.2753 18.6423 16.2909 18.7161 16.3165C18.9566 16.4172 19.9364 16.8946 20.578 17.2072C20.8013 17.3159 20.9836 17.4048 21.0795 17.4508C21.1534 17.4863 21.2223 17.5181 21.2819 17.5455C21.2971 17.5525 21.3117 17.5593 21.3256 17.5657C21.3972 17.5989 21.4494 17.6237 21.4916 17.6461C21.5093 17.6555 21.5231 17.6635 21.5337 17.6699C21.534 17.6729 21.5343 17.6761 21.5346 17.6794C21.5408 17.7455 21.5418 17.8443 21.5311 17.972C21.5098 18.2264 21.4443 18.5657 21.3091 18.9391L21.309 18.9391L21.3067 18.9459C21.2184 19.202 20.9111 19.5231 20.4606 19.8127C20.0226 20.0943 19.5656 20.2718 19.3138 20.3089C18.736 20.3894 18.0504 20.4234 17.3096 20.1848L17.3096 20.1847L17.3029 20.1827C16.8017 20.0295 16.1676 19.8227 15.3529 19.4637L15.3496 19.4622C12.1186 18.0682 9.92542 14.872 9.57747 14.3649C9.56134 14.3414 9.54918 14.3237 9.54106 14.3122L9.54122 14.3121L9.53307 14.3012L9.53039 14.2976C9.44562 14.1846 9.11034 13.7377 8.79517 13.1173C8.47316 12.4834 8.19303 11.7086 8.19303 10.9485C8.19303 9.5347 8.85878 8.80275 9.21214 8.41425C9.24142 8.38207 9.26855 8.35224 9.29298 8.32458C9.51553 8.0846 9.74931 8.03981 9.8805 8.03981H10.5486C10.5808 8.04146 10.6117 8.04181 10.6328 8.04205C10.6353 8.04208 10.6377 8.04211 10.64 8.04214C10.6691 8.0425 10.6862 8.04293 10.7012 8.04405C10.7149 8.04507 10.7219 8.04639 10.7252 8.04717C10.7279 8.0478 10.7287 8.0482 10.7291 8.04835L10.7291 8.04837C10.7294 8.0485 10.7329 8.05014 10.7399 8.05582C10.7471 8.06174 10.7598 8.07339 10.777 8.09461C10.8121 8.13803 10.8627 8.21745 10.9213 8.35763C11.201 9.05667 11.9189 10.8102 12.0153 11.0029C12.0449 11.0622 12.0545 11.0973 12.0569 11.1203C12.0585 11.1356 12.0588 11.1583 12.0406 11.1984C12.033 11.2138 12.0256 11.2285 12.0185 11.2428C11.9177 11.445 11.8691 11.5424 11.7524 11.6786C11.6832 11.7593 11.6182 11.838 11.5568 11.9123C11.4433 12.0497 11.3424 12.1718 11.2515 12.2627C11.2484 12.2658 11.2452 12.269 11.2419 12.2723C11.1575 12.3564 10.9983 12.5152 10.9194 12.7347C10.8222 13.0051 10.8678 13.2828 11.0174 13.5501L11.0172 13.5502L11.0245 13.5623C11.2407 13.9227 11.9668 15.1259 13.0743 16.1137ZM13.0743 16.1137C13.0744 16.1138 13.0744 16.1138 13.0745 16.1139L13.388 15.7624L13.0741 16.1136C13.0742 16.1136 13.0742 16.1137 13.0743 16.1137ZM24.4845 4.46372L24.4862 4.4654C27.0531 7.03231 28.4663 10.4483 28.4663 14.0868C28.4663 21.58 22.358 27.6883 14.8648 27.6883C12.587 27.6883 10.3497 27.1119 8.35919 26.0274L8.19498 25.938L8.01413 25.9855L1.34736 27.7379L3.12117 21.2255L3.17252 21.037L3.07534 20.8675C1.89459 18.808 1.26329 16.4746 1.26329 14.0726C1.26329 6.57933 7.37155 0.471061 14.8648 0.471064L14.8664 0.471058C16.6544 0.464829 18.4257 0.814666 20.077 1.50016C21.7283 2.18566 23.2266 3.1931 24.4845 4.46372Z" stroke="url(#paint1_linear_866_30989)" stroke-width="0.941953" style="mix-blend-mode:overlay"/>
  </g>
  <defs>
    <filter id="filter0_b_866_30989" x="-22.8701" y="-23.5488" width="75.3564" height="75.4985" filterUnits="userSpaceOnUse" color-interpolation-filters="sRGB">
      <feFlood flood-opacity="0" result="BackgroundImageFix"/>
      <feGaussianBlur in="BackgroundImageFix" stdDeviation="11.7744"/>
      <feComposite in2="SourceAlpha" operator="in" result="effect1_backgroundBlur_866_30989"/>
      <feBlend mode="normal" in="SourceGraphic" in2="effect1_backgroundBlur_866_30989" result="shape"/>
    </filter>
    <linearGradient id="paint0_linear_866_30989" x1="0.678712" y1="-0.644076" x2="7.65858" y2="33.6378" gradientUnits="userSpaceOnUse">
      <stop stop-color="white" stop-opacity="0.5"/>
      <stop offset="1" stop-color="white" stop-opacity="0"/>
    </linearGradient>
    <linearGradient id="paint1_linear_866_30989" x1="3.22066" y1="0.966113" x2="9.80062" y2="33.127" gradientUnits="userSpaceOnUse">
      <stop stop-color="white" stop-opacity="0.5"/>
      <stop offset="0.492708" stop-color="white" stop-opacity="0"/>
      <stop offset="1" stop-color="white" stop-opacity="0.5"/>
    </linearGradient>
  </defs>
</svg>