<svg width="25" height="25" viewBox="0 0 25 25" fill="none" xmlns="http://www.w3.org/2000/svg">
<g id="Frame">
<path id="Vector" d="M9.00897 15.6297L15.009 9.6297M21.009 12.6307C21.009 13.8987 20.379 15.0207 19.416 15.6997C19.5196 16.2925 19.479 16.9015 19.2974 17.4752C19.1159 18.0489 18.7988 18.5705 18.373 18.9957C17.9478 19.4216 17.4263 19.7387 16.8525 19.9203C16.2788 20.1018 15.6697 20.1425 15.077 20.0387C14.7312 20.5312 14.2718 20.9331 13.7378 21.2104C13.2037 21.4877 12.6107 21.6322 12.009 21.6317C10.741 21.6317 9.61897 21.0017 8.94097 20.0387C8.3482 20.1425 7.73916 20.1018 7.16542 19.9203C6.59168 19.7387 6.07014 19.4216 5.64497 18.9957C5.21901 18.5704 4.90183 18.0487 4.72027 17.4748C4.53871 16.9008 4.49813 16.2916 4.60197 15.6987C4.10956 15.3529 3.7077 14.8935 3.43041 14.3594C3.15312 13.8254 3.00857 13.2324 3.00897 12.6307C3.00897 11.3627 3.63897 10.2407 4.60197 9.5627C4.49813 8.96978 4.53871 8.36056 4.72027 7.78665C4.90183 7.21273 5.21901 6.69102 5.64497 6.2657C6.07024 5.84 6.59182 5.52304 7.16556 5.34166C7.73929 5.16028 8.34828 5.11982 8.94097 5.2237C9.28665 4.73104 9.74596 4.32894 10.28 4.05147C10.8141 3.774 11.4071 3.62932 12.009 3.6297C13.277 3.6297 14.399 4.2597 15.077 5.2227C15.6697 5.11895 16.2788 5.15957 16.8525 5.34112C17.4263 5.52268 17.9478 5.83982 18.373 6.2657C18.7989 6.69102 19.1161 7.21273 19.2977 7.78665C19.4792 8.36056 19.5198 8.96978 19.416 9.5627C19.9084 9.90854 20.3102 10.3679 20.5875 10.902C20.8648 11.436 21.0094 12.029 21.009 12.6307ZM9.75897 10.3797H9.76697V10.3867H9.75897V10.3797ZM10.134 10.3797C10.134 10.4792 10.0945 10.5745 10.0241 10.6449C9.95381 10.7152 9.85843 10.7547 9.75897 10.7547C9.65952 10.7547 9.56413 10.7152 9.49381 10.6449C9.42348 10.5745 9.38397 10.4792 9.38397 10.3797C9.38397 10.2802 9.42348 10.1849 9.49381 10.1145C9.56413 10.0442 9.65952 10.0047 9.75897 10.0047C9.85843 10.0047 9.95381 10.0442 10.0241 10.1145C10.0945 10.1849 10.134 10.2802 10.134 10.3797ZM14.259 14.8797H14.267V14.8877H14.259V14.8797ZM14.634 14.8797C14.634 14.9792 14.5945 15.0745 14.5241 15.1449C14.4538 15.2152 14.3584 15.2547 14.259 15.2547C14.1595 15.2547 14.0641 15.2152 13.9938 15.1449C13.9235 15.0745 13.884 14.9792 13.884 14.8797C13.884 14.7802 13.9235 14.6849 13.9938 14.6145C14.0641 14.5442 14.1595 14.5047 14.259 14.5047C14.3584 14.5047 14.4538 14.5442 14.5241 14.6145C14.5945 14.6849 14.634 14.7802 14.634 14.8797Z" stroke="black" stroke-width="1.5" stroke-linecap="round" stroke-linejoin="round"/>
</g>
</svg>
