<svg width="82" height="86" viewBox="0 0 82 86" fill="none" xmlns="http://www.w3.org/2000/svg">
<g id="Graphic">
<g id="Graphic_2">
<path id="Vector" d="M21.8468 10.0562L21.8436 10.0567C18.8563 10.4864 15.988 11.9113 13.7213 14.3038L13.7212 14.3039C11.4571 16.6937 10.1358 19.6859 9.73817 22.7647L9.73779 22.7678C9.21583 26.8579 7.69582 30.725 5.33711 33.9907L5.33589 33.9924C3.53886 36.4859 2.47949 39.5863 2.47949 42.9297C2.47949 46.2732 3.53902 49.3733 5.33421 51.8664L5.33623 51.8692C7.69623 55.1348 9.21723 59.002 9.73914 63.0905L9.73937 63.0923C10.1356 66.1733 11.4571 69.1657 13.7212 71.5556C15.988 73.9483 18.8562 75.3732 21.8436 75.8029L21.8468 75.8034C25.6663 76.3465 29.2955 77.9289 32.3773 80.4092L32.3786 80.4103C34.7563 82.3207 37.7439 83.4678 40.9893 83.4678C44.2348 83.4678 47.2218 82.3206 49.6001 80.4124L49.6028 80.4102C52.6836 77.9295 56.3129 76.345 60.1318 75.802L60.134 75.8017C63.1222 75.3733 65.9906 73.9483 68.2574 71.5556C70.5214 69.1657 71.8428 66.1737 72.2404 63.0947L72.2408 63.0917C72.7628 59.0016 74.2828 55.1344 76.6417 51.8672L76.6424 51.8663C78.4398 49.3737 79.4991 46.2729 79.4991 42.9297C79.4991 39.5865 78.4398 36.4862 76.6443 33.993L76.6424 33.9902C74.2824 30.7246 72.7614 26.8576 72.2395 22.7678L72.2392 22.7657C71.843 19.686 70.5214 16.6937 68.2574 14.3039C65.9906 11.9112 63.1225 10.4862 60.135 10.0565L60.1318 10.0561C56.3127 9.51301 52.6832 7.92946 49.6009 5.44992L49.6 5.44915C47.2222 3.53879 44.2346 2.3916 40.9893 2.3916C37.744 2.3916 34.7568 3.53879 32.3785 5.44706L32.3758 5.44923C29.2953 7.92966 25.6661 9.51316 21.8468 10.0562Z" fill="#FD6050" stroke="white" stroke-width="4"/>
<path id="Vector_2" d="M14.5969 21.9464C14.5969 19.9222 14.708 17.9257 14.9171 15.9604C13.1192 17.9754 12.0531 20.4545 11.7217 23.0202C11.1583 27.4354 9.5165 31.6194 6.95843 35.1609C5.40312 37.3192 4.47949 40.0117 4.47949 42.929C4.47949 45.8464 5.40312 48.5388 6.95724 50.697C9.5165 54.2386 11.1596 58.4225 11.723 62.8363C12.0686 65.5238 13.2187 68.1161 15.1731 70.1792C17.1277 72.2423 19.5835 73.4562 22.1283 73.8224C26.3112 74.4171 30.2748 76.1488 33.6313 78.8503C35.6747 80.4921 38.2256 81.4671 40.9893 81.4671C43.753 81.4671 46.3039 80.4921 48.3485 78.8517C50.9694 76.7414 53.9625 75.2247 57.1403 74.3768C33.0458 70.4576 14.5969 48.4766 14.5969 21.9464Z" fill="#DB4B86"/>
<path id="Vector_3" d="M40.9883 68.6209C54.4308 68.6209 65.3281 57.1182 65.3281 42.9289C65.3281 28.7395 54.4308 17.2368 40.9883 17.2368C27.5457 17.2368 16.6484 28.7395 16.6484 42.9289C16.6484 57.1182 27.5457 68.6209 40.9883 68.6209Z" fill="#FDCB50"/>
<path id="Vector_4" d="M34.9033 36.7942C34.0802 36.7942 33.4131 36.0899 33.4131 35.2212V32.652C33.4913 30.5663 36.3149 30.5655 36.3935 32.652V35.2212C36.3935 36.0899 35.7263 36.7942 34.9033 36.7942Z" fill="#052A75"/>
<path id="Vector_5" d="M47.0742 54.779C46.2513 54.779 45.584 54.0747 45.584 53.2061V50.6369C45.6622 48.5511 48.4858 48.5503 48.5644 50.6369V53.2061C48.5644 54.0747 47.8972 54.779 47.0742 54.779Z" fill="#052A75"/>
<path id="Vector_6" d="M34.9029 54.7795C33.7581 54.796 33.0132 53.399 33.6405 52.3726L45.8104 31.8191C46.9177 30.0985 49.3201 31.6655 48.3379 33.4864L36.168 54.04C35.8854 54.5174 35.3997 54.7795 34.9029 54.7795Z" fill="#052A75"/>
<path id="Vector_7" d="M40.9892 83.0401C37.9774 83.0401 35.1208 82.0241 32.7286 80.1019C29.5838 77.5708 25.8499 75.9389 21.9292 75.3812C18.9473 74.9523 16.2475 73.538 14.1193 71.2915C11.9901 69.0441 10.6509 66.1936 10.2463 63.0479C9.71819 58.911 8.17107 54.9705 5.77231 51.6509C2.07632 46.6626 2.07543 39.1947 5.77245 34.2085C8.17063 30.8883 9.71685 26.9471 10.2448 22.81C10.9734 16.5247 15.9731 11.2459 21.9269 10.4769C21.9277 10.4767 21.9284 10.4766 21.9293 10.4766C25.8493 9.91911 29.5827 8.28667 32.7264 5.75542C35.1223 3.83308 37.9789 2.81787 40.9892 2.81787C44.001 2.81787 46.8576 3.83386 49.2498 5.75605C52.3962 8.2873 56.1303 9.91943 60.0493 10.4767C66.0038 11.2458 71.0062 16.5242 71.7321 22.8086C72.2602 26.9464 73.8072 30.8875 76.2063 34.2073C79.9018 39.1947 79.9036 46.6645 76.2058 51.6487C73.8079 54.9699 72.2617 58.9114 71.7337 63.0481C71.3272 66.1956 69.9875 69.0454 67.8592 71.2918C65.7302 73.5391 63.0303 74.9529 60.0511 75.38C56.1309 75.9374 52.3974 77.5704 49.2523 80.1025C46.8561 82.0249 43.9996 83.0401 40.9892 83.0401ZM22.3272 13.5944C17.6767 14.1967 13.7671 18.3229 13.1982 23.2327C12.6017 27.9071 10.8536 32.3626 8.1435 36.1147C5.2567 40.0084 5.25625 45.8499 8.1435 49.745C10.8539 53.4958 12.6029 57.9508 13.1997 62.6265C13.5157 65.0827 14.5625 67.3102 16.2268 69.067C17.8906 70.8233 20.0007 71.9287 22.3293 72.2639C26.7592 72.8937 30.9805 74.7388 34.5346 77.5994C36.4028 79.1004 38.635 79.8941 40.9892 79.8941C43.3427 79.8941 45.5756 79.1005 47.4465 77.5994C51 74.7383 55.221 72.8921 59.6512 72.2622C64.2998 71.6639 68.2121 67.5338 68.78 62.6253C69.3765 57.9515 71.1245 53.4957 73.8346 49.7422C75.2569 47.7702 76.0088 45.414 76.0088 42.929C76.0088 40.4448 75.257 38.0878 73.8349 36.1129C71.1244 32.362 69.3754 27.9065 68.7785 23.2302C68.4626 20.7749 67.4157 18.5476 65.7515 16.791C64.0877 15.0346 61.9776 13.9293 59.649 13.5941C55.2212 12.9644 50.9999 11.1195 47.444 8.25867C43.7565 5.2107 38.2216 5.21132 34.532 8.25851C30.9797 11.1187 26.7587 12.9643 22.3272 13.5944Z" fill="#052A75"/>
</g>
</g>
</svg>
