<svg xmlns="http://www.w3.org/2000/svg" width="17" height="22" viewBox="0 0 17 22" fill="none">
  <path d="M12.251 5C12.251 5.99456 11.8559 6.94839 11.1526 7.65165C10.4493 8.35491 9.49552 8.75 8.50095 8.75C7.50639 8.75 6.55256 8.35491 5.8493 7.65165C5.14604 6.94839 4.75095 5.99456 4.75095 5C4.75095 4.00544 5.14604 3.05161 5.8493 2.34835C6.55256 1.64509 7.50639 1.25 8.50095 1.25C9.49552 1.25 10.4493 1.64509 11.1526 2.34835C11.8559 3.05161 12.251 4.00544 12.251 5ZM1.00195 19.118C1.03409 17.1504 1.83829 15.2742 3.24113 13.894C4.64397 12.5139 6.53304 11.7405 8.50095 11.7405C10.4689 11.7405 12.3579 12.5139 13.7608 13.894C15.1636 15.2742 15.9678 17.1504 16 19.118C13.6473 20.1968 11.0891 20.7535 8.50095 20.75C5.82495 20.75 3.28495 20.166 1.00195 19.118Z" stroke="#6675A4" stroke-width="1.5" stroke-linecap="round" stroke-linejoin="round"/>
</svg>