<svg xmlns="http://www.w3.org/2000/svg" width="22" height="18" viewBox="0 0 22 18" fill="none">
  <path d="M10 8.99658C10 9.19549 9.92098 9.38626 9.78033 9.52691C9.63968 9.66757 9.44891 9.74658 9.25 9.74658H4.75C4.55109 9.74658 4.36032 9.66757 4.21967 9.52691C4.07902 9.38626 4 9.19549 4 8.99658C4 8.79767 4.07902 8.6069 4.21967 8.46625C4.36032 8.3256 4.55109 8.24658 4.75 8.24658H9.25C9.44891 8.24658 9.63968 8.3256 9.78033 8.46625C9.92098 8.6069 10 8.79767 10 8.99658ZM9.25 5.24658H4.75C4.55109 5.24658 4.36032 5.3256 4.21967 5.46625C4.07902 5.6069 4 5.79767 4 5.99658C4 6.19549 4.07902 6.38626 4.21967 6.52691C4.36032 6.66756 4.55109 6.74658 4.75 6.74658H9.25C9.44891 6.74658 9.63968 6.66756 9.78033 6.52691C9.92098 6.38626 10 6.19549 10 5.99658C10 5.79767 9.92098 5.6069 9.78033 5.46625C9.63968 5.3256 9.44891 5.24658 9.25 5.24658ZM19.75 11.3844V17.2466C19.7512 17.3788 19.7174 17.509 19.6521 17.6239C19.5867 17.7389 19.4921 17.8345 19.3779 17.9012C19.2637 17.9678 19.1339 18.003 19.0017 18.0033C18.8695 18.0036 18.7395 17.969 18.625 17.9028L16.375 16.6147L14.125 17.9028C14.0105 17.969 13.8805 18.0036 13.7483 18.0033C13.6161 18.003 13.4863 17.9678 13.3721 17.9012C13.2579 17.8345 13.1633 17.7389 13.0979 17.6239C13.0326 17.509 12.9988 17.3788 13 17.2466V14.9966H1.75C1.35218 14.9966 0.970644 14.8385 0.68934 14.5572C0.408035 14.2759 0.25 13.8944 0.25 13.4966V1.49658C0.25 1.09876 0.408035 0.717226 0.68934 0.435922C0.970644 0.154617 1.35218 -0.00341797 1.75 -0.00341797H18.25C18.6478 -0.00341797 19.0294 0.154617 19.3107 0.435922C19.592 0.717226 19.75 1.09876 19.75 1.49658V4.35877C20.2241 4.81279 20.6014 5.35808 20.8592 5.96179C21.1169 6.5655 21.2498 7.21515 21.2498 7.87158C21.2498 8.52802 21.1169 9.17766 20.8592 9.78137C20.6014 10.3851 20.2241 10.9304 19.75 11.3844ZM13 13.4966V11.3844C12.1827 10.5962 11.6662 9.54738 11.5396 8.419C11.4129 7.29062 11.6842 6.15343 12.3065 5.20367C12.9287 4.25392 13.863 3.55117 14.9481 3.21669C16.0332 2.88222 17.201 2.937 18.25 3.37158V1.49658H1.75V13.4966H13ZM18.25 12.3716C17.656 12.6197 17.0187 12.7475 16.375 12.7475C15.7313 12.7475 15.094 12.6197 14.5 12.3716V15.9547L16 15.096C16.1133 15.0312 16.2416 14.9971 16.3722 14.9971C16.5027 14.9971 16.631 15.0312 16.7444 15.096L18.2444 15.9547L18.25 12.3716ZM19.75 7.87158C19.75 7.20407 19.5521 6.55155 19.1812 5.99653C18.8104 5.44152 18.2833 5.00893 17.6666 4.75349C17.0499 4.49804 16.3713 4.43121 15.7166 4.56143C15.0619 4.69166 14.4605 5.01309 13.9885 5.4851C13.5165 5.9571 13.1951 6.55847 13.0648 7.21315C12.9346 7.86784 13.0015 8.54644 13.2569 9.16314C13.5124 9.77984 13.9449 10.3069 14.5 10.6778C15.055 11.0486 15.7075 11.2466 16.375 11.2466C16.8182 11.2466 17.2571 11.1593 17.6666 10.9897C18.076 10.8201 18.4481 10.5715 18.7615 10.2581C19.0749 9.94467 19.3235 9.57261 19.4931 9.16314C19.6627 8.75366 19.75 8.31479 19.75 7.87158Z" fill="#6675A4"/>
</svg>