<svg width="358" height="234" viewBox="0 0 358 234" fill="none" xmlns="http://www.w3.org/2000/svg">
<g clip-path="url(#clip0_577_8467)">
<path d="M41.5619 231.258C41.5619 231.258 18.2562 176.396 47.7312 134.936C77.2062 93.4763 59.2294 56.7229 110.981 20.1328C177.501 -26.8978 241.661 19.5048 260.794 50.9656C279.927 82.4265 344.913 66.3664 326.027 155.886C311.376 225.329 322.308 228.375 322.308 228.375L41.5619 231.258Z" fill="#F1EEFD"/>
<path d="M55.6037 216.417C55.6037 216.417 14.2442 194.809 24.2098 146.221C34.1755 97.6341 74.7623 86.1046 91.454 89.6714C122.739 96.3568 71.626 116.082 59.4165 82.2255C44.097 39.7455 98.7188 7.58321 149.353 15.9066C181.894 21.2561 197.602 36.8337 226.529 46.6218C255.352 56.3751 267.441 43.3123 255.958 35.7417C245.057 28.5545 205.478 40.2801 219.067 56.3508C237.675 78.3557 282.519 44.2625 317.274 82.2255C352.029 120.189 321.857 167.915 295.138 171.896C268.419 175.875 280.134 137.522 321.857 167.916C363.58 198.31 310.878 231.259 310.878 231.259" stroke="#C3C8FF" stroke-width="0.7128" stroke-miterlimit="10"/>
<path d="M339.601 234.298H23.442C21.7633 234.298 20.4033 232.937 20.4033 231.259C20.4033 229.58 21.7641 228.22 23.442 228.22H342.64V231.259C342.64 232.937 341.279 234.298 339.601 234.298Z" fill="#6876EB"/>
<path d="M137.058 234.298H23.442C21.7633 234.298 20.4033 232.937 20.4033 231.259V228.22H140.097V231.259C140.097 232.937 138.737 234.298 137.058 234.298Z" fill="#1C145E"/>
<path d="M184.29 112.372C170.751 138.389 155.538 148.989 155.538 148.989L168.676 169.963L191.617 146.123L184.29 112.372Z" fill="#1C145E"/>
<path d="M217.858 106.162L184.288 112.372C182.162 175.885 181.365 228.211 181.365 228.211H241.621C241.621 228.211 243.37 130.955 233.676 109.735L217.858 106.162Z" fill="#1C145E"/>
<path d="M213.961 138.528L230.315 137.145" stroke="#6876EB" stroke-width="2.8512" stroke-miterlimit="10"/>
<path d="M206.454 124.878C206.454 124.878 216.835 195.714 207.803 224.376" stroke="#6876EB" stroke-width="0.7128" stroke-miterlimit="10"/>
<path d="M195.584 160.36C195.584 160.36 205.611 164.396 218.609 164.823C231.608 165.25 223.521 172.166 204.251 170.855" stroke="#6876EB" stroke-width="0.7128" stroke-miterlimit="10"/>
<path d="M198.168 103.579L206.453 125.59L217.858 106.162L210.342 93.8779L198.168 103.579Z" fill="#E9A394"/>
<path d="M206.454 125.591L221.92 121.321L217.859 106.162L206.454 125.591Z" fill="#6876EB"/>
<path d="M200.01 108.471L191.617 117.845L206.454 125.591L200.01 108.471Z" fill="#6876EB"/>
<path d="M168.676 169.963C168.676 169.963 173.578 159.741 163.052 146.575C157.216 139.274 154.527 126.675 154.527 126.675L145.758 128.008L153.788 169.964H168.676V169.963Z" fill="#E9A394"/>
<path d="M143.965 113.52L140.375 116.783L145.175 121.02L130.144 120.764L129.822 125.921L145.757 128.008L154.526 126.675L143.965 113.52Z" fill="#E9A394"/>
<path d="M146.592 121.552L132.171 115.604L131.24 118.165L143.277 123.223L146.592 121.552Z" fill="#E9A394"/>
<path d="M233.678 109.734C233.678 109.734 253.05 120.764 259.167 162.08L236.693 167.503L233.678 109.734Z" fill="#1C145E"/>
<path d="M191.606 76.6814L184.29 95.4024L189.885 97.1238L191.606 107.668L209.468 103.58L212.049 74.96L191.606 76.6814Z" fill="#E9A394"/>
<path d="M203.526 81.1294H189.867L191.357 77.0935L203.526 76.3408V81.1294Z" fill="#E37A82"/>
<path d="M210.664 89.6705C210.664 89.6705 201.95 87.8678 201.95 78.853C201.95 78.853 189.02 80.6129 184.557 73.5947C179.27 65.2813 187.349 55.7277 194.022 57.6686C194.022 57.6686 189.817 61.8364 196.203 62.3261C200.757 62.6753 209.079 56.6165 212.05 62.4765C212.05 62.4765 234.972 67.712 217.86 89.0696L210.664 89.6705Z" fill="#0A2133"/>
<path d="M201.949 78.1401C201.949 78.1401 184.665 81.4796 181.051 69.0854C178.937 61.8398 186.2 57.7134 186.2 57.7134" stroke="#0A2133" stroke-width="1.4256" stroke-miterlimit="10"/>
<path d="M194.636 94.8054C198.239 94.8054 201.16 91.8843 201.16 88.2811C201.16 84.6778 198.239 81.7568 194.636 81.7568C191.032 81.7568 188.111 84.6778 188.111 88.2811C188.111 91.8843 191.032 94.8054 194.636 94.8054Z" stroke="#0A2133" stroke-width="0.3564" stroke-miterlimit="10"/>
<path d="M200.81 86.1694L210.102 86.6784" stroke="#0A2133" stroke-width="0.3564" stroke-miterlimit="10"/>
<path d="M221.919 91.3137C221.919 95.3546 216.506 98.6299 212.465 98.6299C208.424 98.6299 207.287 95.3539 207.287 91.3137C207.287 87.2736 210.563 83.9976 214.603 83.9976C218.643 83.9976 221.919 87.2736 221.919 91.3137Z" fill="#E9A394"/>
<path d="M256.484 162.727V196.465H239.662L238.262 167.124L256.484 162.727Z" fill="#E9A394"/>
<path d="M182.979 155.099L183.685 131.591L172.788 165.69L182.979 155.099Z" fill="#1C145C"/>
<path d="M199.035 105.818L209.467 103.58L200.915 110.874L199.035 105.818Z" fill="#E37A82"/>
<path d="M192.866 91.3136C193.556 91.3136 194.115 90.1475 194.115 88.7091C194.115 87.2706 193.556 86.1045 192.866 86.1045C192.176 86.1045 191.617 87.2706 191.617 88.7091C191.617 90.1475 192.176 91.3136 192.866 91.3136Z" fill="#0A2133"/>
<path d="M196.258 82.3745C196.258 78.8846 193.479 81.234 193.479 81.234L196.258 82.3745Z" fill="#0A2133"/>
<path d="M193.478 97.8249L197.452 96.7671C197.452 96.7671 199.155 111.506 193.478 97.8249Z" fill="white"/>
<path d="M107.844 163.891C107.844 163.891 134.654 159.742 135.181 206.495C135.267 214.082 140.097 228.219 140.097 228.219H115.8L107.844 163.891Z" fill="#5321D7"/>
<path d="M79.8115 159.742L63.6074 163.567L68.5514 228.219H131.6C131.6 228.219 129.485 177.067 105.709 161.721L79.8115 159.742Z" fill="#6A3FDC"/>
<path d="M63.6068 163.567C46.9052 167.376 50.8149 180.195 54.0396 206.518C45.7034 213.289 53.701 216.336 53.701 216.336C44.5458 226.041 55.967 228.219 55.967 228.219H86.4563C86.4563 228.219 80.3198 159.755 63.6068 163.567Z" fill="#6A3FDC"/>
<path d="M84.6431 213.287L77.3262 179.7" stroke="#5321D7" stroke-width="0.7128" stroke-miterlimit="10"/>
<path d="M55.9668 228.219C55.9668 228.219 61.1146 216.4 77.3843 210.459C90.874 205.532 110.606 218.321 123.238 206.169L125.577 219.85L86.4561 228.219H55.9668Z" fill="#E9A394"/>
<path d="M109.598 126.445L121.66 144.805L113.92 147.568L112.582 162.489L89.3203 154.407L91.5122 124.057L109.598 126.445Z" fill="#E9A394"/>
<path d="M91.7008 145.73L79.8105 159.742L95.0588 178.429L101.936 156.603L91.7008 145.73Z" fill="#E37A82"/>
<path d="M95.6771 137.055L112.692 131.152L109.599 126.444L92.791 128.194L95.6771 137.055Z" fill="#E37A82"/>
<path d="M94.208 143.487C94.208 143.487 99.3593 153.8 95.7754 133.919C95.7754 133.919 100.664 134.468 104.492 128.017C104.492 128.017 103.303 138.53 114.533 128.017C125.763 117.503 111.486 109.277 94.0411 112.372C78.9205 115.055 63.7892 123.598 85.9045 152.561L94.208 143.487Z" fill="#0A2133"/>
<path d="M91.4535 147.588C90.293 149.144 88.2993 150.556 86.2265 150.858C82.0809 151.462 78.0322 148.189 77.4284 144.043C76.8247 139.898 78.9189 137.745 83.0638 137.141C85.394 136.802 88.0919 137.493 90.1156 138.899C90.7271 139.661 91.4535 147.588 91.4535 147.588Z" fill="#E9A394"/>
<path d="M107.864 141.857C108.485 141.689 108.676 140.404 108.292 138.987C107.907 137.57 107.093 136.558 106.472 136.727C105.851 136.895 105.659 138.18 106.044 139.597C106.428 141.014 107.243 142.026 107.864 141.857Z" fill="#0A2133"/>
<path d="M103.148 135.688C103.148 135.688 102.543 132.278 105.708 133.92L103.148 135.688Z" fill="#0A2133"/>
<path d="M77.9072 160.315L80.6679 157.145L79.655 154.794L85.9041 152.562L103.832 161.577L104.492 168.461L101.458 167.502L96.5056 185.962L77.9072 160.315Z" fill="#6A3FDC"/>
<path d="M94.0947 164.823L104.491 168.461L103.831 161.578" stroke="#5321D7" stroke-width="0.7128" stroke-miterlimit="10"/>
<path d="M95.7749 133.919C95.7749 133.919 97.8662 146.091 100.925 148.594C101.929 149.416 103.83 147.325 112.582 147.15C117.933 147.043 117.929 165.721 110.828 165.186C103.727 164.65 92.9358 160.223 91.3184 146.609C89.9007 134.665 95.7749 133.919 95.7749 133.919Z" fill="#0A2133"/>
<path d="M104.491 150.858C104.491 150.858 106.296 154.219 109.853 151.942" stroke="#C4C6C5" stroke-width="0.7128" stroke-miterlimit="10"/>
<path d="M145.071 220.533H85.2188V224.968C85.2188 226.764 86.675 228.219 88.4705 228.219H145.071C146.867 228.219 148.323 226.763 148.323 224.968V223.785C148.324 221.989 146.867 220.533 145.071 220.533Z" fill="#1C145E"/>
<path d="M193.682 176.079H124.058C121.989 176.079 120.242 177.617 119.98 179.669L114.371 223.587C114.057 226.044 115.972 228.219 118.449 228.219H188.073C190.142 228.219 191.889 226.681 192.151 224.629L197.76 180.711C198.074 178.253 196.159 176.079 193.682 176.079Z" fill="#1C145E"/>
<path d="M197.051 176.079H127.427C125.358 176.079 123.611 177.617 123.349 179.669L117.74 223.587C117.426 226.044 119.341 228.219 121.818 228.219H191.442C193.511 228.219 195.258 226.681 195.521 224.629L201.13 180.711C201.443 178.253 199.529 176.079 197.051 176.079Z" fill="#6876EB"/>
<path d="M163.916 206.868C166.815 204.117 167.158 199.77 164.681 197.16C162.204 194.55 157.846 194.665 154.947 197.416C152.048 200.167 151.705 204.513 154.182 207.123C156.658 209.733 161.016 209.619 163.916 206.868Z" fill="white"/>
<path d="M195.531 227.847H108.868" stroke="#1C145E" stroke-width="0.7128" stroke-miterlimit="10"/>
<path d="M233.832 169.074L262.601 169.619L256.079 134.426L240.782 136.158C240.782 136.158 233.891 146.329 239.333 154.236C245.472 163.159 233.2 163.491 233.832 169.074Z" fill="#0A2133"/>
<path d="M240.781 136.158C240.781 136.158 233.89 146.328 239.332 154.236C245.472 163.159 233.2 163.491 233.832 169.074" stroke="#7079F1" stroke-width="1.4256" stroke-miterlimit="10"/>
<path d="M246.521 164.823C246.521 164.823 233.431 177.667 226.529 226.073H241.1L246.521 164.823Z" fill="#7079F1"/>
<path d="M281.116 161.244L275.419 226.073H233.099L238.367 201.313C238.367 201.313 222.255 192.907 246.521 164.823L252.552 161.72L278.754 159.742L281.116 161.244Z" fill="#C3C8FF"/>
<path d="M246.521 193.836C246.521 193.836 243.984 198.182 246.423 201.67L242.831 226.073" stroke="#7079F1" stroke-width="0.7128" stroke-miterlimit="10"/>
<path d="M240.605 201.425L265.118 202.149" stroke="#7079F1" stroke-width="0.7128" stroke-miterlimit="10"/>
<path d="M269.951 213.628L267.358 182.446" stroke="#7079F1" stroke-width="0.7128" stroke-miterlimit="10"/>
<path d="M281.116 161.244C281.116 161.244 283.453 164.184 286.159 171.002C289.995 180.67 294.57 198.136 294.27 226.072H275.419L281.116 161.244Z" fill="#C3C8FF"/>
<path d="M294.27 228.212C294.27 228.212 284.851 206.671 261.159 212.835C235.291 219.566 225.686 218.308 225.686 218.308L223.725 228.212H294.27Z" fill="#E9A394"/>
<path d="M269.611 208.307L261.205 210.187L280.299 228.211H298.296C298.296 228.211 290.54 209.403 269.611 208.307Z" fill="#7079F1"/>
<path d="M270.131 213.897L274.135 212.674" stroke="#C3C8FF" stroke-width="0.7128" stroke-miterlimit="10"/>
<path d="M225.686 218.308L213.394 215.767L204.583 228.211H223.725L225.686 218.308Z" fill="#E9A394"/>
<path d="M246.521 193.836L269.361 170.995L265.118 168.992L281.116 161.244L273.769 156.57H256.672L246.521 169.259L249.325 169.963L246.521 171.931V193.836Z" fill="#7079F1"/>
<path d="M262.488 164.335L269.95 159.178L261.895 141.168L249.411 149.009L252.928 163.949L246.52 193.837L262.488 164.335Z" fill="#E9A394"/>
<path d="M250.416 153.276L259.178 148.707L251.356 157.265L250.416 153.276Z" fill="#E37A82"/>
<path d="M234.41 127.202L230.584 148.405H236.323L242.767 157.265L259.178 148.707L247.7 123.134L234.41 127.202Z" fill="#E9A394"/>
<path d="M233.483 132.343L233.099 134.672L248.234 132.607L248.002 129.707L233.483 132.343Z" fill="#E37A82"/>
<path d="M276.242 125.591C272.453 115.321 267.821 111.361 267.821 111.361C258.537 102.136 242.666 112.373 242.666 112.373C222.329 107.45 230.584 132.7 230.584 132.7L247.147 130.668C249.463 144.562 257.745 137.527 257.745 137.527L261.607 144.494C261.607 144.494 257.711 147.938 261.774 153.843C265.119 158.705 257.108 160.361 259.178 165.537L291.192 158.902C291.192 137.837 283.089 144.152 276.242 125.591Z" fill="#0A2133"/>
<path d="M229.287 132.863C229.287 132.863 226.358 118.446 231.738 113.755C234.543 111.309 243.379 112.373 243.379 112.373" stroke="#7079F1" stroke-width="1.4256" stroke-miterlimit="10"/>
<path d="M293.288 158.295C293.288 158.295 295.844 148.707 281.914 137.836" stroke="#0A2133" stroke-width="1.4256" stroke-miterlimit="10"/>
<path d="M258.221 145.384C262.03 145.384 265.117 142.297 265.117 138.488C265.117 134.679 262.03 131.592 258.221 131.592C254.412 131.592 251.325 134.679 251.325 138.488C251.325 142.297 254.412 145.384 258.221 145.384Z" fill="#E9A394"/>
<path d="M240.605 147.625L244.881 146.575C244.881 146.575 246.381 158.769 240.605 147.625Z" fill="white"/>
<path d="M237.045 140.42C237.045 140.42 238.406 132.126 241.383 140.42" stroke="#1C145E" stroke-width="0.3564" stroke-miterlimit="10"/>
<path d="M238.095 134.111C238.095 134.111 239.752 131.304 241.716 134.111H238.095Z" fill="#0A2133"/>
<path d="M173.764 59.394C171.284 52.4955 163.485 49.0413 156.649 51.9887C150.767 54.5256 147.648 61.1995 149.473 67.341C150.493 70.7746 152.797 73.4305 155.681 74.9801C158.344 76.41 160.63 78.4507 162.305 80.9662L162.788 81.6918L172.366 78.2483L172.277 77.3851C171.961 74.3286 172.496 71.2707 173.625 68.4131C174.727 65.6239 174.859 62.4377 173.764 59.394Z" fill="#C3C8FF"/>
<path d="M173.764 59.394C171.284 52.4955 163.485 49.0413 156.649 51.9887C150.767 54.5256 147.648 61.1995 149.473 67.341C150.493 70.7746 152.797 73.4305 155.681 74.9801C158.344 76.41 160.63 78.4507 162.305 80.9662L162.788 81.6918L172.366 78.2483L172.277 77.3851C171.961 74.3286 172.496 71.2707 173.625 68.4131C174.727 65.6239 174.859 62.4377 173.764 59.394Z" fill="#C3C8FF"/>
<path d="M164.98 78.867L157.345 68.0994C157.345 68.0994 157.484 65.919 159.88 66.2647C162.277 66.6104 163.707 70.3925 161.997 69.7823C160.287 69.1722 159.682 64.7264 162.918 64.0486C166.154 63.3707 167.235 70.7218 165.447 69.3055C163.659 67.8891 164.036 63.2089 167.501 63.1704L169.534 78.7002" stroke="white" stroke-width="0.7128" stroke-miterlimit="10"/>
<path d="M172.145 85.608L167.647 87.2254C165.937 87.8405 164.051 86.9524 163.437 85.2424L162.486 82.5979C161.871 80.8879 162.759 79.0025 164.469 78.3881L168.967 76.7708C170.677 76.1556 172.562 77.0438 173.177 78.7538L174.128 81.3983C174.742 83.1083 173.855 84.9929 172.145 85.608Z" fill="#0A2133"/>
<path d="M173.203 74.3765L159.658 79.2461L162.035 85.8583L175.58 80.9887L173.203 74.3765Z" fill="#6876EB"/>
<path d="M161.409 47.6708L160.058 39.9233" stroke="#C3C8FF" stroke-width="0.7128" stroke-miterlimit="10"/>
<path d="M151.648 52.2852L145.177 45.9648" stroke="#C3C8FF" stroke-width="0.7128" stroke-miterlimit="10"/>
<path d="M144.904 63.7671L137.521 64.2953" stroke="#C3C8FF" stroke-width="0.7128" stroke-miterlimit="10"/>
<path d="M172.051 51.9161L175.374 45.7539" stroke="#C3C8FF" stroke-width="0.7128" stroke-miterlimit="10"/>
<path d="M276.007 108.832H321.788C323.38 108.832 324.905 107.541 325.193 105.949L329.924 79.8484C330.213 78.2567 329.156 76.9658 327.564 76.9658H281.782C280.191 76.9658 278.666 78.256 278.377 79.8484L273.646 105.949C273.358 107.541 274.415 108.832 276.007 108.832Z" fill="#1C145C"/>
<path d="M312.71 94.9264C314.047 93.7056 314.304 91.812 313.286 90.6968C312.267 89.5816 310.358 89.6671 309.021 90.8878C307.685 92.1086 307.427 94.0022 308.446 95.1174C309.465 96.2326 311.374 96.1471 312.71 94.9264Z" fill="white"/>
<path d="M303.617 94.9264C304.953 93.7056 305.211 91.812 304.192 90.6968C303.174 89.5816 301.264 89.6671 299.928 90.8878C298.592 92.1086 298.334 94.0022 299.353 95.1174C300.371 96.2326 302.281 96.1471 303.617 94.9264Z" fill="white"/>
<path d="M294.523 94.9259C295.859 93.7051 296.117 91.8115 295.098 90.6963C294.079 89.5811 292.17 89.6666 290.834 90.8873C289.497 92.1081 289.24 94.0017 290.259 95.1169C291.277 96.2321 293.186 96.1466 294.523 94.9259Z" fill="white"/>
<path d="M300.646 107.115L284.739 116.569L287.59 106.37L300.646 107.115Z" fill="#1C145C"/>
<path d="M128.522 104.961H82.74C81.1484 104.961 79.6237 103.671 79.335 102.079L74.6041 75.9783C74.3155 74.3866 75.3725 73.0957 76.9642 73.0957H122.746C124.338 73.0957 125.862 74.3859 126.151 75.9783L130.882 102.079C131.171 103.671 130.114 104.961 128.522 104.961Z" fill="#C3C8FF"/>
<path d="M96.0619 91.2358C97.0806 90.1206 96.8231 88.227 95.4867 87.0063C94.1503 85.7855 92.2411 85.7 91.2224 86.8152C90.2037 87.9304 90.4613 89.8241 91.7977 91.0448C93.1341 92.2655 95.0432 92.351 96.0619 91.2358Z" fill="white"/>
<path d="M105.156 91.2358C106.174 90.1206 105.917 88.227 104.58 87.0063C103.244 85.7855 101.335 85.7 100.316 86.8152C99.2975 87.9304 99.555 89.8241 100.891 91.0448C102.228 92.2655 104.137 92.351 105.156 91.2358Z" fill="white"/>
<path d="M114.248 91.2363C115.267 90.1211 115.01 88.2275 113.673 87.0068C112.337 85.786 110.428 85.7005 109.409 86.8157C108.39 87.9309 108.648 89.8246 109.984 91.0453C111.321 92.266 113.23 92.3515 114.248 91.2363Z" fill="white"/>
<path d="M112.19 103.245L114.702 112.371L124.858 102.606L112.19 103.245Z" fill="#C3C8FF"/>
</g>
<defs>
<clipPath id="clip0_577_8467">
<rect width="356.4" height="234" fill="white" transform="translate(0.799805)"/>
</clipPath>
</defs>
</svg>
