<svg width="24" height="25" viewBox="0 0 24 25" fill="none" xmlns="http://www.w3.org/2000/svg">
<path d="M19.0004 11.5002H7.83041L12.7104 6.62016C13.1004 6.23016 13.1004 5.59016 12.7104 5.20016C12.6179 5.10746 12.508 5.03391 12.387 4.98373C12.2661 4.93354 12.1364 4.90771 12.0054 4.90771C11.8744 4.90771 11.7448 4.93354 11.6238 4.98373C11.5028 5.03391 11.3929 5.10746 11.3004 5.20016L4.71041 11.7902C4.61771 11.8827 4.54416 11.9926 4.49398 12.1135C4.4438 12.2345 4.41797 12.3642 4.41797 12.4952C4.41797 12.6261 4.4438 12.7558 4.49398 12.8768C4.54416 12.9978 4.61771 13.1076 4.71041 13.2002L11.3004 19.7902C11.393 19.8827 11.5029 19.9562 11.6239 20.0063C11.7448 20.0564 11.8745 20.0822 12.0054 20.0822C12.1363 20.0822 12.266 20.0564 12.387 20.0063C12.5079 19.9562 12.6178 19.8827 12.7104 19.7902C12.803 19.6976 12.8764 19.5877 12.9265 19.4667C12.9766 19.3457 13.0024 19.2161 13.0024 19.0852C13.0024 18.9542 12.9766 18.8246 12.9265 18.7036C12.8764 18.5827 12.803 18.4727 12.7104 18.3802L7.83041 13.5002H19.0004C19.5504 13.5002 20.0004 13.0502 20.0004 12.5002C20.0004 11.9502 19.5504 11.5002 19.0004 11.5002Z" fill="black"/>
</svg>
