<svg width="19" height="19" viewBox="0 0 19 19" fill="none" xmlns="http://www.w3.org/2000/svg">
<path d="M10.3291 9.96729C10.3291 10.1165 10.2698 10.2595 10.1643 10.365C10.0589 10.4705 9.91579 10.5298 9.7666 10.5298C9.61742 10.5298 9.47434 10.4705 9.36885 10.365C9.26337 10.2595 9.2041 10.1165 9.2041 9.96729C9.2041 9.8181 9.26337 9.67503 9.36885 9.56954C9.47434 9.46405 9.61742 9.40479 9.7666 9.40479C9.91579 9.40479 10.0589 9.46405 10.1643 9.56954C10.2698 9.67503 10.3291 9.8181 10.3291 9.96729ZM6.3916 12.2173C6.54079 12.2173 6.68386 12.158 6.78935 12.0525C6.89484 11.947 6.9541 11.804 6.9541 11.6548C6.9541 11.5056 6.89484 11.3625 6.78935 11.257C6.68386 11.1515 6.54079 11.0923 6.3916 11.0923C6.24242 11.0923 6.09934 11.1515 5.99385 11.257C5.88836 11.3625 5.8291 11.5056 5.8291 11.6548C5.8291 11.804 5.88836 11.947 5.99385 12.0525C6.09934 12.158 6.24242 12.2173 6.3916 12.2173ZM6.9541 13.3423C6.9541 13.4915 6.89484 13.6345 6.78935 13.74C6.68386 13.8455 6.54079 13.9048 6.3916 13.9048C6.24242 13.9048 6.09934 13.8455 5.99385 13.74C5.88836 13.6345 5.8291 13.4915 5.8291 13.3423C5.8291 13.1931 5.88836 13.05 5.99385 12.9445C6.09934 12.839 6.24242 12.7798 6.3916 12.7798C6.54079 12.7798 6.68386 12.839 6.78935 12.9445C6.89484 13.05 6.9541 13.1931 6.9541 13.3423ZM8.0791 12.2173C8.22829 12.2173 8.37136 12.158 8.47685 12.0525C8.58234 11.947 8.6416 11.804 8.6416 11.6548C8.6416 11.5056 8.58234 11.3625 8.47685 11.257C8.37136 11.1515 8.22829 11.0923 8.0791 11.0923C7.92992 11.0923 7.78684 11.1515 7.68135 11.257C7.57587 11.3625 7.5166 11.5056 7.5166 11.6548C7.5166 11.804 7.57587 11.947 7.68135 12.0525C7.78684 12.158 7.92992 12.2173 8.0791 12.2173ZM8.6416 13.3423C8.6416 13.4915 8.58234 13.6345 8.47685 13.74C8.37136 13.8455 8.22829 13.9048 8.0791 13.9048C7.92992 13.9048 7.78684 13.8455 7.68135 13.74C7.57587 13.6345 7.5166 13.4915 7.5166 13.3423C7.5166 13.1931 7.57587 13.05 7.68135 12.9445C7.78684 12.839 7.92992 12.7798 8.0791 12.7798C8.22829 12.7798 8.37136 12.839 8.47685 12.9445C8.58234 13.05 8.6416 13.1931 8.6416 13.3423ZM9.7666 12.2173C9.91579 12.2173 10.0589 12.158 10.1643 12.0525C10.2698 11.947 10.3291 11.804 10.3291 11.6548C10.3291 11.5056 10.2698 11.3625 10.1643 11.257C10.0589 11.1515 9.91579 11.0923 9.7666 11.0923C9.61742 11.0923 9.47434 11.1515 9.36885 11.257C9.26337 11.3625 9.2041 11.5056 9.2041 11.6548C9.2041 11.804 9.26337 11.947 9.36885 12.0525C9.47434 12.158 9.61742 12.2173 9.7666 12.2173ZM10.3291 13.3423C10.3291 13.4915 10.2698 13.6345 10.1643 13.74C10.0589 13.8455 9.91579 13.9048 9.7666 13.9048C9.61742 13.9048 9.47434 13.8455 9.36885 13.74C9.26337 13.6345 9.2041 13.4915 9.2041 13.3423C9.2041 13.1931 9.26337 13.05 9.36885 12.9445C9.47434 12.839 9.61742 12.7798 9.7666 12.7798C9.91579 12.7798 10.0589 12.839 10.1643 12.9445C10.2698 13.05 10.3291 13.1931 10.3291 13.3423ZM11.4541 12.2173C11.6033 12.2173 11.7464 12.158 11.8518 12.0525C11.9573 11.947 12.0166 11.804 12.0166 11.6548C12.0166 11.5056 11.9573 11.3625 11.8518 11.257C11.7464 11.1515 11.6033 11.0923 11.4541 11.0923C11.3049 11.0923 11.1618 11.1515 11.0564 11.257C10.9509 11.3625 10.8916 11.5056 10.8916 11.6548C10.8916 11.804 10.9509 11.947 11.0564 12.0525C11.1618 12.158 11.3049 12.2173 11.4541 12.2173ZM12.0166 13.3423C12.0166 13.4915 11.9573 13.6345 11.8518 13.74C11.7464 13.8455 11.6033 13.9048 11.4541 13.9048C11.3049 13.9048 11.1618 13.8455 11.0564 13.74C10.9509 13.6345 10.8916 13.4915 10.8916 13.3423C10.8916 13.1931 10.9509 13.05 11.0564 12.9445C11.1618 12.839 11.3049 12.7798 11.4541 12.7798C11.6033 12.7798 11.7464 12.839 11.8518 12.9445C11.9573 13.05 12.0166 13.1931 12.0166 13.3423ZM13.1416 12.2173C13.2908 12.2173 13.4339 12.158 13.5393 12.0525C13.6448 11.947 13.7041 11.804 13.7041 11.6548C13.7041 11.5056 13.6448 11.3625 13.5393 11.257C13.4339 11.1515 13.2908 11.0923 13.1416 11.0923C12.9924 11.0923 12.8493 11.1515 12.7439 11.257C12.6384 11.3625 12.5791 11.5056 12.5791 11.6548C12.5791 11.804 12.6384 11.947 12.7439 12.0525C12.8493 12.158 12.9924 12.2173 13.1416 12.2173ZM12.0166 9.96729C12.0166 10.1165 11.9573 10.2595 11.8518 10.365C11.7464 10.4705 11.6033 10.5298 11.4541 10.5298C11.3049 10.5298 11.1618 10.4705 11.0564 10.365C10.9509 10.2595 10.8916 10.1165 10.8916 9.96729C10.8916 9.8181 10.9509 9.67503 11.0564 9.56954C11.1618 9.46405 11.3049 9.40479 11.4541 9.40479C11.6033 9.40479 11.7464 9.46405 11.8518 9.56954C11.9573 9.67503 12.0166 9.8181 12.0166 9.96729ZM13.1416 10.5298C13.2908 10.5298 13.4339 10.4705 13.5393 10.365C13.6448 10.2595 13.7041 10.1165 13.7041 9.96729C13.7041 9.8181 13.6448 9.67503 13.5393 9.56954C13.4339 9.46405 13.2908 9.40479 13.1416 9.40479C12.9924 9.40479 12.8493 9.46405 12.7439 9.56954C12.6384 9.67503 12.5791 9.8181 12.5791 9.96729C12.5791 10.1165 12.6384 10.2595 12.7439 10.365C12.8493 10.4705 12.9924 10.5298 13.1416 10.5298Z" fill="black"/>
<path fill-rule="evenodd" clip-rule="evenodd" d="M5.8291 2.09229C5.97829 2.09229 6.12136 2.15155 6.22685 2.25704C6.33234 2.36253 6.3916 2.5056 6.3916 2.65479V3.77979H13.1416V2.65479C13.1416 2.5056 13.2009 2.36253 13.3064 2.25704C13.4118 2.15155 13.5549 2.09229 13.7041 2.09229C13.8533 2.09229 13.9964 2.15155 14.1018 2.25704C14.2073 2.36253 14.2666 2.5056 14.2666 2.65479V3.77979H14.8291C15.4258 3.77979 15.9981 4.01684 16.4201 4.4388C16.842 4.86075 17.0791 5.43305 17.0791 6.02979V14.4673C17.0791 15.064 16.842 15.6363 16.4201 16.0583C15.9981 16.4802 15.4258 16.7173 14.8291 16.7173H4.7041C4.10736 16.7173 3.53507 16.4802 3.11311 16.0583C2.69115 15.6363 2.4541 15.064 2.4541 14.4673V6.02979C2.4541 5.43305 2.69115 4.86075 3.11311 4.4388C3.53507 4.01684 4.10736 3.77979 4.7041 3.77979H5.2666V2.65479C5.2666 2.5056 5.32586 2.36253 5.43135 2.25704C5.53684 2.15155 5.67992 2.09229 5.8291 2.09229ZM15.9541 8.84229C15.9541 8.54392 15.8356 8.25777 15.6246 8.04679C15.4136 7.83581 15.1275 7.71729 14.8291 7.71729H4.7041C4.40573 7.71729 4.11958 7.83581 3.90861 8.04679C3.69763 8.25777 3.5791 8.54392 3.5791 8.84229V14.4673C3.5791 14.7657 3.69763 15.0518 3.90861 15.2628C4.11958 15.4738 4.40573 15.5923 4.7041 15.5923H14.8291C15.1275 15.5923 15.4136 15.4738 15.6246 15.2628C15.8356 15.0518 15.9541 14.7657 15.9541 14.4673V8.84229Z" fill="black"/>
</svg>
