<svg width="21" height="21" viewBox="0 0 21 21" fill="none" xmlns="http://www.w3.org/2000/svg">
<path fill-rule="evenodd" clip-rule="evenodd" d="M2.06543 4.27642C2.06543 3.60663 2.3315 2.96428 2.80512 2.49066C3.27873 2.01705 3.92109 1.75098 4.59088 1.75098H5.74585C6.46981 1.75098 7.10117 2.24428 7.27711 2.94635L8.20731 6.6697C8.28269 6.97107 8.26747 7.28798 8.16354 7.58073C8.05962 7.87349 7.87162 8.12907 7.62309 8.31545L6.53463 9.13201C6.42098 9.21703 6.39657 9.34162 6.42856 9.42833C6.90366 10.7204 7.6539 11.8938 8.62733 12.8672C9.60077 13.8406 10.7741 14.5909 12.0662 15.066C12.1529 15.098 12.2766 15.0735 12.3625 14.9599L13.1791 13.8714C13.3655 13.6229 13.621 13.4349 13.9138 13.331C14.2065 13.2271 14.5235 13.2118 14.8248 13.2872L18.5482 14.2174C19.2502 14.3934 19.7435 15.0247 19.7435 15.7495V16.9036C19.7435 17.5734 19.4775 18.2158 19.0039 18.6894C18.5302 19.163 17.8879 19.4291 17.2181 19.4291H15.324C8.00191 19.4291 2.06543 13.4926 2.06543 6.17051V4.27642Z" fill="black" fill-opacity="0.8"/>
</svg>
