<svg width="25" height="25" viewBox="0 0 25 25" fill="none" xmlns="http://www.w3.org/2000/svg">
<g id="Frame">
<path id="Vector" fill-rule="evenodd" clip-rule="evenodd" d="M2 5.43164C2 4.63599 2.31607 3.87293 2.87868 3.31032C3.44129 2.74771 4.20435 2.43164 5 2.43164H6.372C7.232 2.43164 7.982 3.01764 8.191 3.85164L9.296 8.27464C9.38554 8.63264 9.36746 9.0091 9.24401 9.35686C9.12055 9.70463 8.89723 10.0082 8.602 10.2296L7.309 11.1996C7.174 11.3006 7.145 11.4486 7.183 11.5516C7.74738 13.0865 8.6386 14.4803 9.79495 15.6367C10.9513 16.793 12.3451 17.6843 13.88 18.2486C13.983 18.2866 14.13 18.2576 14.232 18.1226L15.202 16.8296C15.4234 16.5344 15.727 16.3111 16.0748 16.1876C16.4225 16.0642 16.799 16.0461 17.157 16.1356L21.58 17.2406C22.414 17.4496 23 18.1996 23 19.0606V20.4316C23 21.2273 22.6839 21.9904 22.1213 22.553C21.5587 23.1156 20.7956 23.4316 20 23.4316H17.75C9.052 23.4316 2 16.3796 2 7.68164V5.43164Z" fill="white"/>
</g>
</svg>
