<svg width="15" height="15" viewBox="0 0 15 15" fill="none" xmlns="http://www.w3.org/2000/svg">
<path fill-rule="evenodd" clip-rule="evenodd" d="M7.4668 0.0922852C3.42805 0.0922852 0.154297 3.36603 0.154297 7.40479C0.154297 11.4435 3.42805 14.7173 7.4668 14.7173C11.5055 14.7173 14.7793 11.4435 14.7793 7.40479C14.7793 3.36603 11.5055 0.0922852 7.4668 0.0922852ZM8.0293 2.90479C8.0293 2.7556 7.97003 2.61253 7.86454 2.50704C7.75906 2.40155 7.61598 2.34229 7.4668 2.34229C7.31761 2.34229 7.17454 2.40155 7.06905 2.50704C6.96356 2.61253 6.9043 2.7556 6.9043 2.90479V7.40479C6.9043 7.71529 7.1563 7.96729 7.4668 7.96729H10.8418C10.991 7.96729 11.1341 7.90802 11.2395 7.80253C11.345 7.69704 11.4043 7.55397 11.4043 7.40479C11.4043 7.2556 11.345 7.11253 11.2395 7.00704C11.1341 6.90155 10.991 6.84229 10.8418 6.84229H8.0293V2.90479Z" fill="black"/>
</svg>
