<svg width="232" height="102" viewBox="0 0 232 102" fill="none" xmlns="http://www.w3.org/2000/svg">
<path d="M26.3777 200.381C43.3479 190.814 53.6821 209.144 70.6553 199.575C87.6286 190.006 77.2943 171.675 94.2645 162.108C111.235 152.541 121.572 170.869 138.545 161.3C155.518 151.731 145.181 133.402 162.154 123.833C179.128 114.264 189.462 132.594 206.432 123.027C223.402 113.459 213.071 95.1274 230.044 85.5582C247.018 75.9891 257.352 94.3193 274.325 84.7502C291.298 75.181 280.964 56.8507 297.937 47.2816" stroke="#0A2133" stroke-opacity="0.1" stroke-width="2.02036" stroke-miterlimit="10"/>
<path d="M41.8718 227.863C58.842 218.295 69.1762 236.625 86.1495 227.056C103.123 217.487 92.7885 199.157 109.759 189.589C126.729 180.022 137.066 198.351 154.039 188.781C171.013 179.212 160.675 160.884 177.649 151.315C194.622 141.745 204.956 160.076 221.926 150.508C238.896 140.941 228.565 122.609 245.538 113.04C262.512 103.471 272.846 121.801 289.819 112.232C306.792 102.662 296.458 84.3322 313.431 74.763" stroke="#0A2133" stroke-opacity="0.1" stroke-width="2.02036" stroke-miterlimit="10"/>
<path d="M57.365 255.345C74.3352 245.777 84.6694 264.107 101.643 254.538C118.616 244.969 108.282 226.639 125.252 217.071C142.222 207.504 152.559 225.832 169.533 216.263C186.506 206.694 176.168 188.366 193.142 178.796C210.115 169.227 220.449 187.558 237.419 177.99C254.39 168.423 244.058 150.091 261.032 140.522C278.005 130.952 288.339 149.283 305.312 139.714C322.286 130.144 311.951 111.814 328.925 102.245" stroke="#0A2133" stroke-opacity="0.1" stroke-width="2.02036" stroke-miterlimit="10"/>
<path d="M10.8845 172.9C27.8547 163.332 38.1889 181.663 55.1622 172.093C72.1354 162.524 61.8012 144.194 78.7714 134.627C95.7415 125.059 106.079 143.388 123.052 133.819C140.025 124.249 129.688 105.921 146.661 96.3517C163.634 86.7825 173.969 105.113 190.939 95.5454C207.909 85.9779 197.578 67.6459 214.551 58.0768C231.524 48.5076 241.859 66.8379 258.832 57.2687C275.805 47.6996 265.471 29.3693 282.444 19.8002" stroke="#0A2133" stroke-opacity="0.1" stroke-width="2.02036" stroke-miterlimit="10"/>
<path d="M21.2185 191.229C38.1887 181.662 48.5229 199.992 65.4961 190.423C82.4694 180.854 72.1352 162.524 89.1053 152.956C106.076 143.389 116.413 161.717 133.386 152.148C150.359 142.579 140.022 124.25 156.995 114.681C173.968 105.112 184.303 123.442 201.273 113.875C218.243 104.308 207.912 85.9755 224.885 76.4064C241.858 66.8372 252.193 85.1675 269.166 75.5983C286.139 66.0292 275.805 47.6989 292.778 38.1297" stroke="#0A2133" stroke-opacity="0.1" stroke-width="2.02036" stroke-miterlimit="10"/>
<path d="M36.7117 218.711C53.6819 209.143 64.0161 227.474 80.9893 217.904C97.9625 208.335 87.6283 190.005 104.599 180.438C121.569 170.87 131.906 189.199 148.879 179.63C165.852 170.06 155.515 151.732 172.488 142.163C189.462 132.594 199.796 150.924 216.766 141.356C233.736 131.789 223.405 113.457 240.378 103.888C257.352 94.3186 267.686 112.649 284.659 103.08C301.632 93.5106 291.298 75.1803 308.271 65.6112" stroke="#0A2133" stroke-opacity="0.1" stroke-width="2.02036" stroke-miterlimit="10"/>
<path d="M52.2048 246.193C69.175 236.626 79.5092 254.956 96.4825 245.387C113.456 235.818 103.121 217.487 120.092 207.92C137.062 198.353 147.399 216.681 164.372 207.112C181.346 197.543 171.008 179.214 187.982 169.645C204.955 160.076 215.289 178.406 232.259 168.839C249.229 159.271 238.898 140.939 255.871 131.37C272.845 121.801 283.179 140.131 300.152 130.562C317.125 120.993 306.791 102.663 323.764 93.0936" stroke="#0A2133" stroke-opacity="0.1" stroke-width="2.02036" stroke-miterlimit="10"/>
<path d="M5.72535 163.748C22.6955 154.18 33.0297 172.511 50.003 162.942C66.9762 153.372 56.642 135.042 73.6122 125.475C90.5824 115.907 100.92 134.236 117.893 124.667C134.866 115.097 124.529 96.769 141.502 87.1998C158.475 77.6306 168.81 95.9609 185.78 86.3935C202.75 76.8261 192.419 58.4941 209.392 48.9249C226.365 39.3558 236.699 57.686 253.673 48.1169C270.646 38.5477 260.312 20.2174 277.285 10.6483" stroke="#0A2133" stroke-opacity="0.1" stroke-width="2.02036" stroke-miterlimit="10"/>
<path d="M21.2185 191.229C38.1887 181.662 48.5229 199.992 65.4961 190.423C82.4694 180.854 72.1352 162.524 89.1053 152.956C106.076 143.389 116.413 161.717 133.386 152.148C150.359 142.579 140.022 124.25 156.995 114.681C173.968 105.112 184.303 123.442 201.273 113.875C218.243 104.308 207.912 85.9755 224.885 76.4064C241.858 66.8372 252.193 85.1675 269.166 75.5983C286.139 66.0292 275.805 47.6989 292.778 38.1297" stroke="#0A2133" stroke-opacity="0.1" stroke-width="2.02036" stroke-miterlimit="10"/>
<path d="M36.7117 218.711C53.6819 209.143 64.0161 227.474 80.9893 217.904C97.9625 208.335 87.6283 190.005 104.599 180.438C121.569 170.87 131.906 189.199 148.879 179.63C165.852 170.06 155.515 151.732 172.488 142.163C189.462 132.594 199.796 150.924 216.766 141.356C233.736 131.789 223.405 113.457 240.378 103.888C257.352 94.3186 267.686 112.649 284.659 103.08C301.632 93.5106 291.298 75.1803 308.271 65.6112" stroke="#0A2133" stroke-opacity="0.1" stroke-width="2.02036" stroke-miterlimit="10"/>
<path d="M52.2048 246.193C69.175 236.626 79.5092 254.956 96.4825 245.387C113.456 235.818 103.121 217.487 120.092 207.92C137.062 198.353 147.399 216.681 164.372 207.112C181.346 197.543 171.008 179.214 187.982 169.645C204.955 160.076 215.289 178.406 232.259 168.839C249.229 159.271 238.898 140.939 255.871 131.37C272.845 121.801 283.179 140.131 300.152 130.562C317.125 120.993 306.791 102.663 323.764 93.0936" stroke="#0A2133" stroke-opacity="0.1" stroke-width="2.02036" stroke-miterlimit="10"/>
<path d="M5.72535 163.748C22.6955 154.18 33.0297 172.511 50.003 162.942C66.9762 153.372 56.642 135.042 73.6122 125.475C90.5824 115.907 100.92 134.236 117.893 124.667C134.866 115.097 124.529 96.769 141.502 87.1998C158.475 77.6306 168.81 95.9609 185.78 86.3935C202.75 76.8261 192.419 58.4941 209.392 48.9249C226.365 39.3558 236.699 57.686 253.673 48.1169C270.646 38.5477 260.312 20.2174 277.285 10.6483" stroke="#0A2133" stroke-opacity="0.1" stroke-width="2.02036" stroke-miterlimit="10"/>
<path d="M16.0584 182.078C33.0285 172.511 43.3628 190.841 60.336 181.272C77.3092 171.702 66.975 153.372 83.9452 143.805C100.915 134.237 111.253 152.566 128.226 142.997C145.199 133.428 134.862 115.099 151.835 105.53C168.808 95.9607 179.143 114.291 196.113 104.724C213.083 95.1561 202.752 76.8241 219.725 67.255C236.698 57.6858 247.032 76.0161 264.006 66.4469C280.979 56.8778 270.645 38.5475 287.618 28.9784" stroke="#0A2133" stroke-opacity="0.1" stroke-width="2.02036" stroke-miterlimit="10"/>
<path d="M31.5525 209.559C48.5227 199.992 58.8569 218.322 75.8301 208.753C92.8034 199.184 82.4691 180.854 99.4393 171.286C116.409 161.719 126.747 180.047 143.72 170.478C160.693 160.909 150.356 142.58 167.329 133.011C184.302 123.442 194.637 141.772 211.607 132.205C228.577 122.638 218.246 104.306 235.219 94.7364C252.192 85.1673 262.527 103.498 279.5 93.9284C296.473 84.3592 286.139 66.029 303.112 56.4598" stroke="#0A2133" stroke-opacity="0.1" stroke-width="2.02036" stroke-miterlimit="10"/>
<path d="M47.0457 237.041C64.0158 227.473 74.3501 245.804 91.3233 236.235C108.297 226.665 97.9623 208.335 114.932 198.768C131.903 189.2 142.24 207.529 159.213 197.96C176.186 188.39 165.849 170.062 182.822 160.493C199.796 150.924 210.13 169.254 227.1 159.686C244.07 150.119 233.739 131.787 250.712 122.218C267.686 112.649 278.02 130.979 294.993 121.41C311.966 111.841 301.632 93.5104 318.605 83.9413" stroke="#0A2133" stroke-opacity="0.1" stroke-width="2.02036" stroke-miterlimit="10"/>
<path d="M0.566171 154.596C17.5363 145.029 27.8706 163.359 44.8438 153.79C61.817 144.221 51.4828 125.89 68.453 116.323C85.4232 106.755 95.7605 125.084 112.734 115.515C129.707 105.946 119.37 87.6171 136.343 78.0479C153.316 68.4788 163.65 86.8091 180.621 77.2416C197.591 67.6742 187.26 49.3422 204.233 39.7731C221.206 30.2039 231.54 48.5342 248.513 38.965C265.487 29.3959 255.152 11.0656 272.126 1.49644" stroke="#0A2133" stroke-opacity="0.1" stroke-width="2.02036" stroke-miterlimit="10"/>
</svg>
