<svg width="21" height="22" viewBox="0 0 21 22" fill="none" xmlns="http://www.w3.org/2000/svg">
<path d="M2.06543 8.1123V15.3351C2.06543 16.0049 2.3315 16.6472 2.80512 17.1208C3.27873 17.5944 3.92109 17.8605 4.59088 17.8605H17.2181C17.8879 17.8605 18.5302 17.5944 19.0039 17.1208C19.4775 16.6472 19.7435 16.0049 19.7435 15.3351V8.1123L12.2278 12.7364C11.8298 12.9812 11.3717 13.1109 10.9045 13.1109C10.4372 13.1109 9.97913 12.9812 9.58116 12.7364L2.06543 8.1123Z" fill="black" fill-opacity="0.8"/>
<path d="M19.7435 6.62916V6.49615C19.7435 5.82636 19.4775 5.184 19.0039 4.71039C18.5302 4.23678 17.8879 3.9707 17.2181 3.9707H4.59088C3.92109 3.9707 3.27873 4.23678 2.80512 4.71039C2.3315 5.184 2.06543 5.82636 2.06543 6.49615V6.62916L10.2428 11.6615C10.4418 11.7839 10.6709 11.8488 10.9045 11.8488C11.1381 11.8488 11.3672 11.7839 11.5662 11.6615L19.7435 6.62916Z" fill="black" fill-opacity="0.8"/>
</svg>
