<svg width="42" height="42" viewBox="0 0 42 42" fill="none" xmlns="http://www.w3.org/2000/svg">
<path d="M20.9998 41.7091C32.294 41.7091 41.4498 32.5533 41.4498 21.2591C41.4498 9.96486 32.294 0.809082 20.9998 0.809082C9.70558 0.809082 0.549805 9.96486 0.549805 21.2591C0.549805 32.5533 9.70558 41.7091 20.9998 41.7091Z" fill="#D2E4FE"/>
<path d="M8.40259 38.7426C4.62556 39.0543 2.25396 39.5043 2.25396 40.0046C2.25396 40.9458 10.6467 41.7088 20.9998 41.7088C31.3529 41.7088 39.7456 40.9458 39.7456 40.0046C39.7456 39.5043 37.374 39.0543 33.597 38.7426C33.9863 38.5719 34.3707 38.3836 34.7488 38.1772C38.3991 36.1852 40.7207 32.9244 41.439 29.377C41.4972 29.0894 41.3154 28.8081 41.013 28.7173C39.179 28.1675 37.2256 27.9632 35.2799 28.1343C36.5166 25.1919 36.6497 22.0179 35.7777 19.0833C35.7044 18.8365 35.4451 18.6764 35.1669 18.706C32.2309 19.0194 29.3978 20.0735 27.0279 21.8041C26.0173 18.4252 24.0863 15.4536 21.5317 13.1913C21.2275 12.9219 20.7721 12.9219 20.4679 13.1913C17.9133 15.4536 15.9823 18.4252 14.9717 21.8041C12.6017 20.0735 9.76865 19.0194 6.83272 18.706C6.55451 18.6764 6.29522 18.8365 6.22186 19.0833C5.34992 22.0179 5.48301 25.1919 6.71964 28.1343C4.77399 27.9632 2.8206 28.1675 0.986571 28.7173C0.684167 28.8081 0.502417 29.0894 0.560614 29.377C1.27884 32.9244 3.60051 36.1852 7.25075 38.1772C7.6289 38.3836 8.01328 38.5719 8.40259 38.7426Z" fill="#408CF7"/>
</svg>
