<svg width="19" height="19" viewBox="0 0 19 19" fill="none" xmlns="http://www.w3.org/2000/svg">
<path fill-rule="evenodd" clip-rule="evenodd" d="M6.95616 3.75404C7.27263 3.38896 7.66395 3.09625 8.10356 2.8958C8.54316 2.69534 9.02076 2.59183 9.50391 2.59229C10.5217 2.59229 11.4337 3.04229 12.0517 3.75404C12.5337 3.71962 13.0175 3.78935 13.4701 3.95849C13.9228 4.12763 14.3338 4.39222 14.6752 4.73429C15.0171 5.07558 15.2816 5.48644 15.4507 5.93898C15.6199 6.39152 15.6897 6.87514 15.6554 7.35704C16.0204 7.67358 16.3129 8.06493 16.5132 8.50453C16.7136 8.94413 16.817 9.42169 16.8164 9.90479C16.8169 10.3879 16.7134 10.8655 16.5129 11.3051C16.3124 11.7447 16.0197 12.1361 15.6547 12.4525C15.6889 12.9344 15.6191 13.4181 15.45 13.8706C15.2808 14.3231 15.0163 14.734 14.6744 15.0753C14.3331 15.4172 13.9223 15.6817 13.4697 15.8509C13.0172 16.02 12.5336 16.0898 12.0517 16.0555C11.7352 16.4206 11.3439 16.7133 10.9043 16.9138C10.4647 17.1142 9.98706 17.2177 9.50391 17.2173C9.02076 17.2177 8.54316 17.1142 8.10356 16.9138C7.66395 16.7133 7.27263 16.4206 6.95616 16.0555C6.47419 16.0901 5.99044 16.0204 5.53776 15.8514C5.08508 15.6824 4.67408 15.418 4.33266 15.076C3.99063 14.7347 3.72607 14.3237 3.55693 13.871C3.38779 13.4183 3.31804 12.9346 3.35241 12.4525C2.98747 12.136 2.6949 11.7446 2.49458 11.305C2.29425 10.8654 2.19086 10.3879 2.19141 9.90479C2.19141 8.88704 2.64141 7.97504 3.35316 7.35704C3.31885 6.87514 3.38863 6.3915 3.55777 5.93895C3.72691 5.48641 3.99144 5.07555 4.33341 4.73429C4.67468 4.39232 5.08553 4.12779 5.53807 3.95865C5.99062 3.78951 6.47426 3.71973 6.95616 3.75404ZM12.2114 8.54429C12.2564 8.48432 12.289 8.41597 12.3072 8.34325C12.3254 8.27052 12.3289 8.19489 12.3174 8.1208C12.306 8.04671 12.2798 7.97565 12.2405 7.91181C12.2013 7.84796 12.1496 7.79262 12.0886 7.74902C12.0276 7.70543 11.9585 7.67447 11.8854 7.65796C11.8123 7.64145 11.7366 7.63972 11.6628 7.65288C11.589 7.66604 11.5185 7.69383 11.4556 7.73459C11.3927 7.77536 11.3386 7.8283 11.2964 7.89029L8.86941 11.2878L7.65141 10.0698C7.54478 9.97043 7.40374 9.91633 7.25802 9.91891C7.11229 9.92148 6.97325 9.98051 6.87019 10.0836C6.76713 10.1866 6.7081 10.3257 6.70553 10.4714C6.70296 10.6171 6.75705 10.7582 6.85641 10.8648L8.54391 12.5523C8.60165 12.61 8.67126 12.6544 8.7479 12.6825C8.82454 12.7106 8.90638 12.7217 8.98773 12.715C9.06908 12.7083 9.148 12.6839 9.219 12.6437C9.29001 12.6034 9.3514 12.5482 9.39891 12.4818L12.2114 8.54429Z" fill="#05A827"/>
</svg>
