<svg width="25" height="25" viewBox="0 0 25 25" fill="none" xmlns="http://www.w3.org/2000/svg">
<circle cx="12.1924" cy="12.6285" r="12.1221" fill="black"/>
<path d="M9.34207 18.6899H6.9657V11.0125H9.34207V18.6899ZM8.14256 10.0071C7.36647 10.0071 6.7373 9.37279 6.7373 8.59048C6.7373 7.80808 7.36655 7.17383 8.14256 7.17383C8.91857 7.17383 9.54774 7.80808 9.54774 8.59048C9.54778 9.37283 8.91862 10.0071 8.14256 10.0071ZM18.2475 18.6899H15.8827V14.6599C15.8827 13.5546 15.4628 12.9376 14.5888 12.9376C13.6376 12.9376 13.1407 13.5802 13.1407 14.6599V18.6899H10.8615V11.0125H13.1407V12.0465C13.1407 12.0465 13.8263 10.7783 15.4542 10.7783C17.0822 10.7783 18.2476 11.7723 18.2476 13.8287L18.2475 18.6899Z" fill="white"/>
</svg>
