<svg width="25" height="25" viewBox="0 0 25 25" fill="none" xmlns="http://www.w3.org/2000/svg">
<g id="Frame">
<path id="Vector" fill-rule="evenodd" clip-rule="evenodd" d="M12.04 23.2826L12.11 23.3226L12.138 23.3386C12.249 23.3987 12.3733 23.4301 12.4995 23.4301C12.6257 23.4301 12.75 23.3987 12.861 23.3386L12.889 23.3236L12.96 23.2826C13.3511 23.0507 13.7328 22.8032 14.104 22.5406C15.0651 21.8621 15.963 21.0984 16.787 20.2586C18.731 18.2686 20.75 15.2786 20.75 11.4316C20.75 9.2436 19.8808 7.14518 18.3336 5.59801C16.7865 4.05083 14.688 3.18164 12.5 3.18164C10.312 3.18164 8.21354 4.05083 6.66637 5.59801C5.11919 7.14518 4.25 9.2436 4.25 11.4316C4.25 15.2776 6.27 18.2686 8.213 20.2586C9.03664 21.0983 9.93427 21.8621 10.895 22.5406C11.2666 22.8032 11.6485 23.0508 12.04 23.2826ZM12.5 14.4316C13.2956 14.4316 14.0587 14.1156 14.6213 13.553C15.1839 12.9904 15.5 12.2273 15.5 11.4316C15.5 10.636 15.1839 9.87293 14.6213 9.31032C14.0587 8.74771 13.2956 8.43164 12.5 8.43164C11.7044 8.43164 10.9413 8.74771 10.3787 9.31032C9.81607 9.87293 9.5 10.636 9.5 11.4316C9.5 12.2273 9.81607 12.9904 10.3787 13.553C10.9413 14.1156 11.7044 14.4316 12.5 14.4316Z" fill="white"/>
</g>
</svg>
