<svg width="36" height="42" viewBox="0 0 36 42" fill="none" xmlns="http://www.w3.org/2000/svg">
<path d="M23.9429 30.2653C23.9429 30.0105 24.0874 29.7778 24.3134 29.6511C28.3217 27.4048 31.0338 23.1905 31.0645 18.3463C31.1103 11.1043 25.1455 5.19698 17.7419 5.15211C10.3381 5.10732 4.29909 10.9418 4.25319 18.1839C4.22189 23.132 6.99643 27.4569 11.1187 29.7147C11.3482 29.8405 11.4956 30.075 11.4956 30.3323V30.9887C11.4956 33.269 13.3854 35.1176 15.7166 35.1176H19.7218C22.053 35.1176 23.9429 33.269 23.9429 30.9887V30.2653Z" fill="#F67474"/>
<path d="M12.1387 39.0601C12.1387 37.7535 12.9625 36.6943 13.9787 36.6943H21.3388C22.355 36.6943 23.1788 37.7535 23.1788 39.0601C23.1788 40.3666 22.355 41.4258 21.3388 41.4258H13.9787C12.9625 41.4258 12.1387 40.3666 12.1387 39.0601Z" fill="#FBE3E3"/>
<path d="M24.8474 0.945025C25.1437 0.386164 25.9444 0.386164 26.2408 0.945025L27.8897 4.05515C27.9637 4.19457 28.0777 4.3086 28.2171 4.38249L31.3272 6.03139C31.8862 6.32774 31.8862 7.12845 31.3272 7.4248L28.2171 9.0737C28.0777 9.14767 27.9637 9.2617 27.8897 9.40104L26.2408 12.5112C25.9444 13.0701 25.1437 13.0701 24.8474 12.5112L23.1984 9.40104C23.1246 9.2617 23.0105 9.14767 22.8711 9.0737L19.7609 7.4248C19.2021 7.12845 19.2021 6.32774 19.7609 6.03139L22.8711 4.38249C23.0105 4.3086 23.1246 4.19457 23.1984 4.05515L24.8474 0.945025Z" fill="#FBE3E3"/>
<path d="M18.4163 11.4745C18.5974 11.1329 19.0868 11.1329 19.2678 11.4745L20.2755 13.3751C20.3207 13.4602 20.3904 13.53 20.4755 13.5751L22.3762 14.5828C22.7178 14.7638 22.7178 15.2532 22.3762 15.4343L20.4755 16.4419C20.3904 16.4871 20.3207 16.5568 20.2755 16.642L19.2678 18.5426C19.0868 18.8842 18.5974 18.8842 18.4163 18.5426L17.4086 16.642C17.3635 16.5568 17.2938 16.4871 17.2086 16.4419L15.308 15.4343C14.9664 15.2532 14.9664 14.7638 15.308 14.5828L17.2086 13.5751C17.2938 13.53 17.3635 13.4602 17.4086 13.3751L18.4163 11.4745Z" fill="#FBE3E3"/>
</svg>
