<svg width="21" height="21" viewBox="0 0 21 21" fill="none" xmlns="http://www.w3.org/2000/svg">
<path fill-rule="evenodd" clip-rule="evenodd" d="M10.5177 18.955L10.5766 18.9887L10.6002 19.0022C10.6937 19.0527 10.7983 19.0792 10.9045 19.0792C11.0108 19.0792 11.1154 19.0527 11.2088 19.0022L11.2324 18.9895L11.2922 18.955C11.6214 18.7598 11.9427 18.5514 12.2552 18.3304C13.0643 17.7592 13.8202 17.1163 14.5138 16.4094C16.1503 14.7342 17.8499 12.2171 17.8499 8.97867C17.8499 7.13674 17.1182 5.37026 15.8158 4.06783C14.5133 2.76539 12.7469 2.03369 10.9049 2.03369C9.06301 2.03369 7.29653 2.76539 5.9941 4.06783C4.69166 5.37026 3.95996 7.13674 3.95996 8.97867C3.95996 12.2163 5.66043 14.7342 7.29607 16.4094C7.98943 17.1162 8.74507 17.7592 9.55382 18.3304C9.86661 18.5514 10.1882 18.7598 10.5177 18.955ZM10.9049 11.5041C11.5747 11.5041 12.2171 11.238 12.6907 10.7644C13.1643 10.2908 13.4304 9.64846 13.4304 8.97867C13.4304 8.30888 13.1643 7.66652 12.6907 7.19291C12.2171 6.71929 11.5747 6.45322 10.9049 6.45322C10.2351 6.45322 9.59279 6.71929 9.11918 7.19291C8.64556 7.66652 8.37949 8.30888 8.37949 8.97867C8.37949 9.64846 8.64556 10.2908 9.11918 10.7644C9.59279 11.238 10.2351 11.5041 10.9049 11.5041Z" fill="black" fill-opacity="0.8"/>
</svg>
