<svg width="121" height="45" viewBox="0 0 121 45" fill="none" xmlns="http://www.w3.org/2000/svg">
<rect x="0.164062" width="45" height="45" rx="3.75626" fill="white"/>
<rect x="15.9414" y="11.7195" width="4.88314" height="12.9215" rx="0.601002" fill="#0A2133"/>
<rect x="7.90234" y="16.6027" width="4.88314" height="12.9215" rx="0.601002" transform="rotate(-90 7.90234 16.6027)" fill="#0A2133"/>
<rect x="15.9414" y="27.7963" width="4.88314" height="5.37145" rx="0.601002" fill="#09E738"/>
<rect x="23.7539" y="22.4625" width="4.88314" height="10.7429" rx="0.601002" fill="#09E738"/>
<rect x="31.5664" y="11.7195" width="4.88314" height="21.4858" rx="0.601002" fill="#09E738"/>
<rect width="3.46861" height="7.86218" transform="matrix(0 -1 1 0 53.5039 6.76135)" fill="white"/>
<rect width="3.46861" height="12.9495" transform="translate(58.5898 3.29266)" fill="white"/>
<path d="M64.2855 16.2927V3.28123H70.2336C71.4232 3.28123 72.4455 3.47331 73.3006 3.85745C74.168 4.2416 74.8372 4.79923 75.3081 5.53035C75.7789 6.24908 76.0144 7.10412 76.0144 8.09546C76.0144 9.07442 75.7789 9.92326 75.3081 10.642C74.8372 11.3483 74.168 11.8936 73.3006 12.2777C72.4455 12.6495 71.4232 12.8353 70.2336 12.8353H66.3302L67.9659 11.2926V16.2927H64.2855ZM72.334 16.2927L69.0997 11.5528H73.0218L76.2746 16.2927H72.334ZM67.9659 11.6829L66.3302 9.99141H70.0105C70.7788 9.99141 71.3489 9.82412 71.7206 9.48954C72.1048 9.15496 72.2968 8.69027 72.2968 8.09546C72.2968 7.48826 72.1048 7.01737 71.7206 6.68279C71.3489 6.34821 70.7788 6.18092 70.0105 6.18092H66.3302L67.9659 4.48944V11.6829ZM76.3953 16.2927L82.139 3.28123H85.7636L91.5258 16.2927H87.6967L83.1985 5.08425H84.6483L80.1501 16.2927H76.3953ZM79.5367 13.7647L80.4847 11.0509H86.8417L87.7896 13.7647H79.5367ZM92.4811 16.2927V3.28123H98.6336C100.071 3.28123 101.335 3.54766 102.426 4.08051C103.516 4.61336 104.365 5.36306 104.972 6.32963C105.592 7.29619 105.901 8.44863 105.901 9.78695C105.901 11.1129 105.592 12.2653 104.972 13.2443C104.365 14.2108 103.516 14.9605 102.426 15.4934C101.335 16.0262 100.071 16.2927 98.6336 16.2927H92.4811ZM96.1614 13.3558H98.4849C99.2284 13.3558 99.8728 13.2195 100.418 12.9469C100.976 12.6619 101.409 12.2529 101.719 11.7201C102.029 11.1748 102.184 10.5305 102.184 9.78695C102.184 9.03105 102.029 8.38667 101.719 7.85382C101.409 7.32097 100.976 6.91824 100.418 6.64562C99.8728 6.3606 99.2284 6.2181 98.4849 6.2181H96.1614V13.3558ZM111.133 8.31852H117.174V11.0695H111.133V8.31852ZM111.393 13.4487H118.196V16.2927H107.75V3.28123H117.954V6.12516H111.393V13.4487Z" fill="white"/>
<rect width="5.18364" height="18.4808" transform="translate(54.0312 23.2136)" fill="white"/>
<rect width="5.18364" height="10.217" transform="translate(61.8438 31.4775)" fill="white"/>
<rect width="5.18364" height="18.4808" transform="translate(69.6562 23.2137)" fill="white"/>
<rect width="5.18364" height="5.18364" transform="translate(77.4688 23.2137)" fill="#09E738"/>
<rect width="5.18364" height="10.217" transform="translate(77.4688 31.4775)" fill="white"/>
<path d="M93.4046 41.5308C91.9247 41.5308 90.5064 41.337 89.1498 40.9493C87.7932 40.5441 86.7008 40.0244 85.8728 39.3901L87.3263 36.166C88.1191 36.7298 89.0529 37.1966 90.1276 37.5666C91.2199 37.919 92.3211 38.0952 93.431 38.0952C94.2767 38.0952 94.955 38.0159 95.466 37.8573C95.9945 37.6811 96.3821 37.4433 96.6288 37.1438C96.8754 36.8443 96.9988 36.5007 96.9988 36.1131C96.9988 35.6198 96.805 35.2322 96.4174 34.9503C96.0297 34.6508 95.5188 34.4129 94.8846 34.2368C94.2503 34.043 93.5456 33.8668 92.7704 33.7082C92.0128 33.532 91.2464 33.3206 90.4712 33.074C89.7136 32.8273 89.0177 32.5102 88.3834 32.1226C87.7491 31.735 87.2294 31.224 86.8242 30.5898C86.4366 29.9555 86.2428 29.1451 86.2428 28.1584C86.2428 27.1013 86.5247 26.1411 87.0884 25.2778C87.6699 24.3969 88.5331 23.701 89.6783 23.1901C90.8412 22.6615 92.2947 22.3972 94.0389 22.3972C95.2017 22.3972 96.3469 22.5382 97.4745 22.8201C98.602 23.0844 99.5975 23.4896 100.461 24.0358L99.1394 27.2863C98.2761 26.793 97.4128 26.4318 96.5495 26.2028C95.6862 25.9562 94.8405 25.8328 94.0124 25.8328C93.1844 25.8328 92.5061 25.9297 91.9775 26.1235C91.449 26.3173 91.0702 26.5728 90.8412 26.8899C90.6121 27.1894 90.4976 27.5418 90.4976 27.947C90.4976 28.4227 90.6914 28.8103 91.079 29.1098C91.4666 29.3917 91.9775 29.6208 92.6118 29.7969C93.2461 29.9731 93.942 30.1493 94.6996 30.3255C95.4748 30.5017 96.2412 30.7043 96.9988 30.9333C97.774 31.1624 98.4787 31.4707 99.113 31.8583C99.7472 32.2459 100.258 32.7568 100.646 33.3911C101.051 34.0253 101.254 34.827 101.254 35.796C101.254 36.8355 100.963 37.7869 100.381 38.6502C99.8001 39.5135 98.928 40.2094 97.7652 40.7379C96.62 41.2665 95.1665 41.5308 93.4046 41.5308ZM108.192 30.1669H117.098V33.4968H108.192V30.1669ZM108.509 37.778H118.578V41.2136H104.254V22.7144H118.234V26.15H108.509V37.778Z" fill="white"/>
</svg>
