<svg width="104" height="39" viewBox="0 0 104 39" fill="none" xmlns="http://www.w3.org/2000/svg">
<rect width="39" height="39" rx="3.25543" fill="#0A2133"/>
<rect x="13.6719" y="10.157" width="4.23205" height="11.1987" rx="0.520868" fill="white"/>
<rect x="6.70703" y="14.3892" width="4.23205" height="11.1987" rx="0.520868" transform="rotate(-90 6.70703 14.3892)" fill="white"/>
<rect x="13.6719" y="24.0901" width="4.23205" height="4.65526" rx="0.520868" fill="#09E738"/>
<rect x="20.4453" y="19.4675" width="4.23205" height="9.31052" rx="0.520868" fill="#09E738"/>
<rect x="27.2148" y="10.157" width="4.23205" height="18.621" rx="0.520868" fill="#09E738"/>
<rect width="3.00613" height="6.81389" transform="matrix(0 -1 1 0 46.2266 5.85986)" fill="#0A2133"/>
<rect width="3.00613" height="11.2229" transform="translate(50.6367 2.85376)" fill="#0A2133"/>
<path d="M55.3281 14.8538V3.13784H60.1678C61.045 3.13784 61.802 3.29611 62.4389 3.61266C63.0796 3.92539 63.5735 4.37541 63.9205 4.96273C64.2676 5.54624 64.4411 6.23844 64.4411 7.03933C64.4411 7.85167 64.2638 8.54196 63.9091 9.11021C63.5544 9.67465 63.051 10.1056 62.3988 10.4031C61.7467 10.6967 60.9744 10.8436 60.082 10.8436H57.0214V8.61252H59.5557C59.9828 8.61252 60.3394 8.55722 60.6254 8.44662C60.9153 8.3322 61.1346 8.16058 61.2833 7.93176C61.4321 7.69912 61.5064 7.40164 61.5064 7.03933C61.5064 6.67702 61.4321 6.37764 61.2833 6.14119C61.1346 5.90092 60.9153 5.72167 60.6254 5.60345C60.3356 5.48141 59.979 5.42039 59.5557 5.42039H58.1598V14.8538H55.3281ZM61.924 9.49922L64.8416 14.8538H61.7524L58.8921 9.49922H61.924ZM68.4522 14.8538H65.4088L69.3618 3.13784H73.1317L77.0847 14.8538H74.0413L71.2896 6.0897H71.1981L68.4522 14.8538ZM68.046 10.2429H74.4074V12.3939H68.046V10.2429ZM82.6003 14.8538H78.2697V3.13784H82.5946C83.7883 3.13784 84.8161 3.37239 85.678 3.84148C86.5437 4.30676 87.2111 4.97799 87.6802 5.85516C88.1493 6.72851 88.3839 7.77348 88.3839 8.99008C88.3839 10.2105 88.1493 11.2593 87.6802 12.1364C87.2149 13.0136 86.5494 13.6867 85.6837 14.1558C84.818 14.6211 83.7902 14.8538 82.6003 14.8538ZM81.1015 12.4396H82.4916C83.1475 12.4396 83.7025 12.329 84.1563 12.1078C84.6139 11.8828 84.9591 11.5186 85.1917 11.0152C85.4282 10.508 85.5464 9.83292 85.5464 8.99008C85.5464 8.14724 85.4282 7.47601 85.1917 6.97641C84.9553 6.47299 84.6063 6.11068 84.1449 5.88948C83.6872 5.66447 83.1228 5.55196 82.4515 5.55196H81.1015V12.4396ZM89.9608 14.8538V3.13784H98.1299V5.43755H92.7925V7.84023H97.7123V10.1457H92.7925V12.5541H98.1299V14.8538H89.9608Z" fill="#0A2133"/>
<rect width="4.49249" height="16.0167" transform="translate(46.6836 20.1187)" fill="#0A2133"/>
<rect width="4.49249" height="8.85476" transform="translate(53.4531 27.2805)" fill="#0A2133"/>
<rect width="4.49249" height="16.0167" transform="translate(60.2266 20.1187)" fill="#0A2133"/>
<rect width="4.49249" height="4.49249" transform="translate(66.9961 20.1187)" fill="#09E738"/>
<rect width="4.49249" height="8.85476" transform="translate(66.9961 27.2805)" fill="#0A2133"/>
<path d="M84.1207 25.2519C84.0557 24.5958 83.7764 24.0861 83.283 23.7228C82.7896 23.3595 82.1199 23.1779 81.274 23.1779C80.6993 23.1779 80.214 23.2592 79.8181 23.4219C79.4223 23.5792 79.1187 23.7988 78.9072 24.0807C78.7012 24.3627 78.5981 24.6826 78.5981 25.0405C78.5873 25.3387 78.6496 25.599 78.7852 25.8213C78.9262 26.0436 79.1187 26.2361 79.3627 26.3988C79.6067 26.556 79.8886 26.6943 80.2086 26.8136C80.5285 26.9274 80.8701 27.025 81.2334 27.1064L82.7299 27.4642C83.4565 27.6269 84.1235 27.8438 84.7308 28.1149C85.3381 28.386 85.864 28.7195 86.3087 29.1153C86.7533 29.5112 87.0976 29.9775 87.3416 30.5143C87.591 31.0511 87.7185 31.6665 87.7239 32.3606C87.7185 33.38 87.4582 34.2638 86.9431 35.0121C86.4334 35.7549 85.6959 36.3324 84.7308 36.7445C83.771 37.1512 82.6133 37.3545 81.2578 37.3545C79.913 37.3545 78.7418 37.1485 77.7441 36.7364C76.7518 36.3243 75.9764 35.7143 75.4179 34.9064C74.8649 34.093 74.5748 33.0872 74.5477 31.8888H77.9556C77.9935 32.4473 78.1535 32.9137 78.4355 33.2878C78.7228 33.6565 79.1051 33.9358 79.5823 34.1255C80.0649 34.3099 80.6098 34.4021 81.2171 34.4021C81.8136 34.4021 82.3314 34.3153 82.7706 34.1418C83.2152 33.9683 83.5595 33.727 83.8035 33.4179C84.0475 33.1089 84.1696 32.7537 84.1696 32.3524C84.1696 31.9783 84.0584 31.6638 83.8361 31.409C83.6192 31.1541 83.2993 30.9372 82.8763 30.7583C82.4588 30.5794 81.9464 30.4167 81.3391 30.2703L79.5253 29.8148C78.121 29.4732 77.0121 28.9391 76.1988 28.2125C75.3854 27.4859 74.9815 26.5072 74.9869 25.2763C74.9815 24.2678 75.2499 23.3867 75.7921 22.633C76.3397 21.8793 77.0907 21.2909 78.0451 20.868C78.9994 20.4451 80.0838 20.2336 81.2984 20.2336C82.5347 20.2336 83.6138 20.4451 84.5356 20.868C85.4628 21.2909 86.1839 21.8793 86.6991 22.633C87.2142 23.3867 87.4799 24.2597 87.4961 25.2519H84.1207ZM90.1579 37.1187V20.4613H101.382V23.365H93.6796V27.3341H100.805V30.2377H93.6796V34.215H101.415V37.1187H90.1579Z" fill="#0A2133"/>
</svg>
