<svg width="68" height="81" viewBox="0 0 68 81" fill="none" xmlns="http://www.w3.org/2000/svg">
<path d="M37.4626 2.0411C37.0309 3.06139 36.6777 3.9247 36.6777 4.00319C36.6777 4.27788 39.5031 5.3374 40.1702 5.3374C40.5627 5.3374 41.0336 4.78802 41.3475 3.88546C41.8969 2.47276 41.8576 2.39428 40.5627 1.33476C39.8563 0.74613 39.0322 0.23599 38.7575 0.23599C38.5221 0.23599 37.9335 1.06006 37.4626 2.0411ZM40.6019 2.9829C40.6019 4.23864 39.974 4.67029 38.993 4.16015C38.4828 3.88546 38.0119 3.61077 37.9335 3.57153C37.855 3.49305 38.0904 2.90442 38.4044 2.23731C39.0322 1.09931 39.0715 1.06006 39.8171 1.68793C40.2487 2.08035 40.6019 2.62973 40.6019 2.9829Z" fill="black"/>
<path d="M19.5294 2.86507C19.2939 3.92459 19.0192 4.98411 18.9408 5.29805C18.823 5.88667 21.9231 7.84875 22.6295 7.6133C22.8257 7.53482 23.3358 6.74999 23.7282 5.84743L24.4738 4.19928L22.708 2.62962C21.7662 1.72706 20.7851 1.02071 20.5104 1.02071C20.2357 1.02071 19.8041 1.84478 19.5294 2.86507ZM22.8649 5.37653C22.4333 6.63226 22.2371 6.71075 20.7851 6.04364C19.7648 5.57274 19.7648 5.41577 20.6674 3.02203L21.0206 2.08023L22.1193 3.13976C23.1396 4.1208 23.2181 4.35625 22.8649 5.37653Z" fill="black"/>
<path d="M42.7607 9.61475C35.3833 12.2439 33.8529 12.7933 29.0262 14.7162C26.24 15.8542 23.4146 16.9922 22.7475 17.2669C8.22812 23.5063 6.97239 24.2519 7.44329 26.214C7.6395 26.9596 8.1104 27.3912 9.0522 27.7052C10.7396 28.2938 10.7788 28.8824 9.13068 28.8824C7.32557 28.8824 3.28368 30.8837 2.2634 32.2964C1.16463 33.8268 0.183594 36.8092 0.183594 38.6143C0.222835 43.4018 4.42169 46.2272 12.5447 46.9728C18.7056 47.5222 19.6474 47.6791 20.55 48.5425C21.5703 49.5235 21.6095 50.6615 20.5892 51.5248C18.6664 53.173 20.707 55.5667 22.826 54.1933C24.1995 53.2515 25.2982 51.2501 25.2982 49.5627C25.2982 48.7779 25.3767 48.1108 25.4552 48.1108C25.5337 48.1108 26.5932 48.5817 27.8097 49.1311L30.0072 50.1121L27.1033 52.0742C21.4918 55.8022 17.3322 63.0619 14.1144 74.6381C14.0359 74.8344 12.8194 75.266 11.3675 75.5407C7.83571 76.1686 6.38377 76.9534 6.54073 78.0522C6.77618 79.6218 8.50282 80.0535 15.0954 80.2105C22.7083 80.3674 33.382 79.7788 34.8339 79.1117C37.0315 78.0522 36.0504 77.0711 31.4592 75.6977L30.3996 75.3837L32.1263 72.7938C33.7744 70.3608 39.4252 65.1417 39.8961 65.6126C40.0138 65.6911 39.8569 66.7898 39.5822 68.0456C38.8758 71.0672 38.8758 74.2065 39.6214 74.9128C40.2493 75.5799 40.2493 75.5799 46.0963 73.971C50.8838 72.6368 57.5941 69.4583 57.7903 68.3987C57.8688 67.9671 56.77 66.5544 54.6117 64.4353L51.3154 61.1783L52.6104 60.1187C54.2585 58.8238 54.2978 58.1959 52.7674 57.0971L51.6293 56.2338L52.3749 55.2528C53.7091 53.6046 53.1598 52.035 51.2762 52.035H50.3736L51.1584 51.0147C52.5711 49.2096 52.0218 47.7184 49.9812 47.7184C48.9609 47.7184 48.9217 47.6399 49.1179 46.3842C49.2748 45.3639 49.1571 44.9715 48.5293 44.5006C47.7052 43.9512 47.7052 43.9512 48.9217 40.8119C49.5888 39.1245 50.2166 37.6333 50.2559 37.5548C50.3344 37.4763 50.8445 37.9865 51.4331 38.6536C52.7281 40.184 55.0826 41.4397 56.6915 41.4397C57.8295 41.4397 57.908 41.3612 57.7903 40.184C57.7118 39.1637 57.3979 38.7713 56.3776 38.2612C54.7687 37.5156 54.2978 36.8092 54.6117 35.5535C55.0434 33.7876 55.8282 32.6104 58.6143 29.5495C63.1271 24.5658 64.1082 21.7012 62.774 17.2276C62.0284 14.7946 59.4777 12.2832 57.0839 11.6161C55.2788 11.1452 52.4534 11.5376 50.4129 12.5971C49.1964 13.225 48.647 12.9503 49.2748 12.0085C49.785 11.1844 49.7065 9.49703 49.1571 8.94765C48.4115 8.20206 46.0963 8.43751 42.7607 9.61475ZM47.5875 12.4794C47.4305 12.8718 38.4834 16.8745 31.3807 19.6606C30.0857 20.1708 26.6324 21.5835 23.7286 22.7999C11.6814 27.8621 10.7788 28.176 10.7788 27.3912C10.7788 26.9988 11.4459 26.6849 18.6271 23.781C21.3348 22.6822 25.1413 21.0733 27.1033 20.21C29.0654 19.3859 30.8313 18.6796 30.9883 18.6796C31.1452 18.6796 31.8123 18.4049 32.4794 18.0909C35.4618 16.7175 46.7241 12.0477 47.195 12.0477C47.509 12.0085 47.6659 12.2047 47.5875 12.4794ZM59.1245 13.4604C60.8511 14.6377 62.1069 17.0314 62.46 19.7391C62.774 22.4468 61.3613 25.1937 57.6726 29.3141C53.0813 34.3762 52.4534 37.2801 55.632 38.8105C57.2017 39.5954 57.5941 40.6549 56.2991 40.6549C55.0826 40.6549 53.3952 39.6739 52.1787 38.2219C51.2762 37.1231 51.1192 36.6915 51.2762 35.0826C51.4331 33.5522 51.8256 32.7673 53.3167 30.923C60.7726 21.7797 61.6752 19.5429 59.3599 16.2074C57.6726 13.8529 54.8472 13.3427 52.0218 14.9516C51.08 15.501 50.2559 15.8934 50.1774 15.8149C50.0989 15.7365 49.9812 15.2655 49.942 14.7554C49.8635 14.0491 50.0989 13.6566 51.0015 13.225C53.9838 11.773 56.8092 11.8515 59.1245 13.4604ZM58.1435 16.1289C59.4777 17.4631 59.5169 17.62 59.3599 19.6606C59.203 21.4265 58.8498 22.2898 57.3194 24.4481C56.2991 25.9393 54.6509 28.0583 53.5914 29.2356L51.7078 31.3546L51.4724 25.9C51.3154 22.9177 51.0407 19.7391 50.8445 18.8758C50.4129 17.1099 50.923 16.2074 52.9636 15.3048C55.0826 14.363 56.613 14.5984 58.1435 16.1289ZM33.3428 24.2519C34.1276 24.919 35.1086 26.1355 35.5403 26.9988L36.2859 28.49L39.072 27.0773C42.0152 25.6253 43.8203 25.4291 44.0557 26.6064C44.2519 27.5482 43.1532 29.7065 41.4658 31.6686C40.367 32.9243 40.1708 33.3952 40.6025 33.5129C41.5443 33.8268 44.5266 36.9662 44.5266 37.6333C44.5266 39.2422 41.7012 39.3599 38.3657 37.908L36.7175 37.2016L36.4821 38.7713C35.8542 42.4208 34.363 44.2651 32.7541 43.4018C32.3225 43.1664 31.9693 42.7739 31.9693 42.4992C31.8908 41.2043 31.4984 37.2801 31.3807 36.8877C31.3022 36.5738 30.5566 36.613 28.83 36.9662C25.8476 37.5548 24.5134 37.2016 24.5134 35.7889C24.5134 34.5724 25.9653 33.199 28.4376 32.0217L30.2819 31.1584L30.0857 27.6659C29.811 22.7607 30.6743 21.8974 33.3428 24.2519ZM10.7396 30.3736C11.0928 31.0014 10.8573 31.1977 8.89523 31.7863C7.67874 32.1787 6.14832 32.9635 5.52045 33.5522C2.34188 36.4953 2.7343 41.1258 6.34453 42.9309C8.30661 43.9512 9.32689 44.1082 14.8992 44.4221C17.4891 44.5398 19.9614 44.8145 20.393 44.9715C20.8247 45.1677 21.9234 46.0702 22.8652 47.0513C24.4742 48.6602 24.5526 48.8956 24.2779 50.3083C23.964 52.0742 22.1197 54.1148 21.2171 53.7616C20.3538 53.4477 20.4323 52.7021 21.3741 51.8388C23.0222 50.3476 21.845 47.7576 19.1765 46.9728C18.5487 46.8158 16.2727 46.5411 14.1144 46.3842C3.83306 45.6778 -0.483514 42.0676 1.59629 35.8674C2.49885 33.042 3.12671 32.2179 5.01031 31.1192C7.71798 29.5103 10.1117 29.2356 10.7396 30.3736ZM13.0941 35.0433C15.0169 38.8105 15.7233 39.8308 17.8031 42.0283L19.4512 43.755L14.6245 43.5588C7.6395 43.2841 5.01031 42.1853 4.22548 39.1637C3.91155 37.7902 4.69638 35.475 6.03059 34.2193C7.01163 33.2775 9.68006 32.1395 11.0535 32.061C11.3282 32.0217 12.27 33.3952 13.0941 35.0433ZM48.4508 45.6778C48.4508 46.6981 46.7241 48.1893 43.7025 49.8374L41.0733 51.2894L39.6607 50.4261L38.2087 49.602L39.8176 48.4247C43.7025 45.5601 48.4508 44.0297 48.4508 45.6778ZM51.08 49.1703C51.3154 49.8767 49.2356 51.5641 46.2925 52.9768L43.5456 54.311L42.6823 53.2515C41.662 51.9957 41.7797 51.8388 45.5077 49.9159C48.2546 48.464 50.766 48.1108 51.08 49.1703ZM37.1099 50.3083C38.2872 50.6615 39.6999 51.2894 40.2885 51.6818C41.662 52.6628 43.1139 55.6844 42.8 56.9009C42.486 58.2351 41.505 57.8427 39.1898 55.5275C36.796 53.0945 36.2859 53.0552 36.2859 55.449C36.2466 56.5085 36.0112 58.0389 35.6973 58.863C35.3833 59.7263 35.2656 60.5896 35.3833 60.7859C35.815 61.453 36.7568 59.4124 36.953 57.3326C37.0707 56.1553 37.3062 55.1743 37.4631 55.1743C38.3264 55.1743 39.4252 57.1756 39.7784 59.4909C40.524 63.9644 40.5632 63.8075 36.8745 66.7113C32.8326 69.8507 29.9287 73.6571 28.5945 77.4635L28.1236 78.9155L25.2197 79.1509C23.6501 79.3079 20.55 79.4256 18.3525 79.4649C13.6827 79.5041 13.9182 79.8573 15.0562 74.9913C17.2929 65.7303 21.2563 57.9997 25.6906 54.1148C28.1629 51.9957 32.2832 49.9552 34.5592 49.7197C34.7947 49.6805 35.9327 49.9552 37.1099 50.3083ZM52.218 53.2515C52.9636 54.5072 48.2546 57.7642 45.3114 57.9997C43.9772 58.1174 43.938 58.0782 43.8203 56.7047L43.7025 55.2528L46.5672 54.0755C49.5103 52.8198 51.7471 52.5059 52.218 53.2515ZM52.5319 57.8427C53.1205 58.5491 53.1205 58.6276 52.4534 59.2162C51.5116 60.0795 47.6267 61.7669 45.5077 62.2378C42.6823 62.8657 41.7012 62.0023 43.4671 60.3542C44.3696 59.4909 49.0002 57.6858 51.6293 57.1756C51.7471 57.1756 52.1395 57.4503 52.5319 57.8427ZM55.5143 66.9075C55.5143 67.4962 54.6509 67.9278 51.1977 69.2228C44.8013 71.5773 40.6025 72.5191 40.6025 71.5773C40.6025 71.2241 41.6227 70.7925 43.6633 70.3216C45.3114 69.9292 48.4508 68.9481 50.6091 68.124C54.7294 66.5151 55.5143 66.3189 55.5143 66.9075Z" fill="black"/>
<path d="M3.00863 18.5618C2.73394 19.5428 2.65546 20.5238 2.81242 20.6808C2.96939 20.8378 3.95043 21.0732 4.93147 21.2302L6.73658 21.5049L6.6581 19.7783C6.54037 17.5022 6.61886 17.62 5.2454 17.1491C3.47953 16.5604 3.55801 16.5212 3.00863 18.5618ZM5.59858 19.3858C5.7163 20.6023 5.67706 20.6808 4.81374 20.4454C3.59725 20.0529 3.6365 20.0922 3.95043 18.9149C4.3036 17.3845 5.44161 17.7377 5.59858 19.3858Z" fill="black"/>
<path d="M63.6751 34.4939C63.2827 35.3965 62.9688 36.3383 62.9688 36.5345C63.008 37.0839 65.9904 38.4181 66.5005 38.1042C66.7359 37.9864 67.1676 37.3586 67.4815 36.7699C68.0309 35.6712 67.9917 35.5927 66.6575 34.2192C65.9119 33.4344 65.0878 32.8065 64.8131 32.8065C64.5384 32.8065 64.0283 33.5521 63.6751 34.4939ZM66.265 34.9648C66.7752 35.7104 66.8144 36.1421 66.5005 36.7307C65.9904 37.6725 65.8726 37.7117 64.7346 36.8092C63.9105 36.1421 63.8713 36.0244 64.3814 35.0433C65.0878 33.7483 65.441 33.7091 66.265 34.9648Z" fill="black"/>
<path d="M10.4646 52.8984C10.1899 53.8402 9.87601 54.782 9.75829 55.0175C9.64056 55.2922 10.3862 55.7238 11.5242 56.1162C13.9571 56.9011 13.8002 56.9403 14.0356 55.6453C14.1533 55.0567 14.3496 54.3111 14.5065 53.9579C14.7812 53.2908 13.29 51.9959 11.7596 51.4857C11.0533 51.2895 10.8571 51.4857 10.4646 52.8984ZM12.8976 53.0161C13.4078 53.4086 13.5647 53.8402 13.3685 54.5466C12.8976 56.4694 10.9355 55.5668 11.3672 53.644C11.6419 52.2705 11.8381 52.1921 12.8976 53.0161Z" fill="black"/>
</svg>
