<svg width="96" height="81" viewBox="0 0 96 81" fill="none" xmlns="http://www.w3.org/2000/svg">
<path d="M51.8052 0.884178C51.5306 0.95282 41.7831 1.2274 30.1822 1.5363C6.56859 2.1541 1.42027 2.42867 0.974081 3.11512C0.630859 3.62995 0.630859 4.76257 0.630859 16.2948C0.665182 30.2983 1.04273 44.9538 1.52324 52.3331C1.79781 56.2801 2.10671 61.703 2.20968 64.3458C2.44993 70.4208 2.65587 71.6564 3.41095 71.8967C5.84783 72.6861 59.5277 72.6518 67.2501 71.8624L69.4811 71.6564L69.8586 73.0636C70.3048 74.7454 70.0989 74.9514 67.4218 75.3289C65.3281 75.6721 62.7883 76.7018 62.2048 77.4569C61.4154 78.4865 61.69 79.2416 63.2345 80.031C64.6417 80.7518 64.9162 80.7861 76.1739 80.7175C88.8045 80.6488 93.7468 80.237 94.7422 79.2416C95.5659 78.4179 95.5659 77.8687 94.8108 76.9764C93.9184 75.981 93.0947 75.6378 90.6579 75.1573C88.0837 74.6425 88.2553 74.9514 87.054 68.6361C84.9947 58.0305 83.5532 51.1318 82.7638 48.2144C82.5578 47.4593 81.9057 44.1301 81.3565 40.8351C80.6015 36.4419 80.0523 34.1423 79.2286 32.2546L78.0959 29.6805L77.8557 18.0109C77.6841 11.5927 77.4438 5.24309 77.3065 3.93885C77.032 1.57063 76.9976 1.5363 75.8307 1.12444C75.007 0.849854 71.2658 0.71257 63.4747 0.746887C57.331 0.746887 52.0798 0.815536 51.8052 0.884178ZM74.5264 1.57063C76.1053 1.77656 76.1053 1.81087 76.3112 3.38969C76.4142 4.24775 76.6201 10.1855 76.7574 16.5351L76.9633 28.1016L76.1053 28.4449C75.1099 28.8224 74.6637 30.2983 75.007 32.2203C75.1786 33.2843 75.007 33.1127 73.943 31.0533L72.673 28.6508L72.9476 18.5258C73.0849 12.9656 73.2222 7.54267 73.2222 6.51301L73.2565 4.62529H71.3688C70.3391 4.62529 64.7103 4.83122 58.8412 5.07148C53.0065 5.31174 39.003 5.55199 27.7797 5.58631C10.4813 5.65495 7.18639 5.75793 6.32834 6.16979L5.29867 6.68462L5.05842 13.549C4.81816 20.2419 5.23003 48.7636 5.74486 61.3598C5.91647 65.9933 6.08808 67.7094 6.4313 67.9153C6.70588 68.0869 10.4813 68.2929 14.8402 68.3958C26.0636 68.6361 61.2781 68.4645 65.2251 68.1213L68.5544 67.8467L68.9663 69.1509C69.2752 70.1119 69.2752 70.5238 69.0006 70.7984C68.6917 71.1073 63.8523 71.2789 51.8738 71.4162C36.3602 71.5878 4.0974 71.4848 3.85714 71.2789C3.61689 71.0386 3.06773 65.7187 2.89612 61.9433C2.48426 52.9509 2.00375 43.6839 1.90078 42.208C1.6262 39.0504 1.28298 5.58631 1.48891 4.55665C1.66052 3.76724 1.96942 3.42402 2.65587 3.2524C3.1707 3.11512 9.62326 2.87486 16.9682 2.73757C29.4615 2.463 48.8535 1.81087 51.9768 1.60494C54.7226 1.36469 73.0506 1.36469 74.5264 1.57063ZM27.1276 13.0342C28.6721 13.4804 29.1869 14.0296 29.3928 15.5741C29.5644 16.844 28.9466 18.2855 27.4708 20.1732C25.5144 22.6787 18.4441 26.0766 15.2521 26.0766C13.8792 26.0766 13.8106 26.2826 14.5657 28.5478C15.3207 30.6758 17.4144 32.9067 18.8902 33.147C19.9542 33.2843 20.1602 33.1813 21.0869 31.9114C23.6267 28.3762 29.6674 23.6054 34.4382 21.2715C36.7378 20.1732 40.8907 20.1732 42.6755 21.2372C44.1513 22.1639 44.7005 23.7427 44.1857 25.6304C43.7738 27.2093 41.234 29.7148 38.8657 30.916C37.9734 31.3622 36.8407 31.98 36.3602 32.2889C34.1293 33.6961 28.2602 35.2063 23.5581 35.5839C22.1165 35.6868 20.778 35.9614 20.6407 36.1673C20.2631 36.6822 19.611 38.9818 19.4051 40.5606C19.3021 41.5216 19.508 42.3453 20.4347 44.0958C22.0822 47.3564 23.9356 48.6606 26.9903 48.6949C28.2602 48.7292 28.5691 48.5576 29.736 47.2191C30.4911 46.361 31.2805 45.0224 31.5551 44.1987C32.3445 41.7275 32.9623 40.7322 34.85 38.9131C36.1886 37.6089 37.0123 37.094 38.0077 36.9224C39.7581 36.6478 41.4056 36.9911 41.9547 37.7118C42.195 38.0551 42.6412 38.3983 42.9844 38.5356C43.7738 38.8445 43.7395 39.3593 42.8814 39.6339C42.4352 39.7712 41.8174 39.5996 41.1996 39.1534C40.5818 38.7072 39.6551 38.4326 38.8314 38.4326C37.6645 38.4326 37.2869 38.6385 35.8797 40.1144C34.5411 41.5902 32.5848 45.0568 32.5848 46.0521C32.5848 46.2237 32.4475 46.5326 32.2416 46.7729C32.0699 47.0131 31.4865 47.6996 31.006 48.3174C29.8047 49.8276 28.981 50.2051 27.0589 50.1364C20.7093 49.9992 16.4534 43.9585 18.3068 37.6775C18.6157 36.6135 18.8559 35.5839 18.8559 35.4123C18.8559 35.2063 18.1695 34.6572 17.3801 34.1767C15.664 33.1813 13.3644 30.5728 13.3644 29.6118C13.3644 29.2343 13.1928 28.7881 12.9868 28.5821C12.7809 28.3762 12.5406 27.5525 12.472 26.7287C12.4034 25.8364 12.0601 25.0126 11.6139 24.6008C10.7559 23.8114 9.8292 21.7177 10.1038 21.2715C10.55 20.5851 11.305 20.9626 11.7856 22.1296C12.3004 23.3309 13.3644 23.777 13.3644 22.7817C13.3644 22.4728 13.639 21.8207 13.9822 21.3402C14.3254 20.8253 14.8059 20.0016 15.0462 19.4868C16.3504 16.9126 18.7186 14.9906 22.2881 13.5147C24.4504 12.6567 25.3771 12.5537 27.1276 13.0342ZM69.9616 26.111C71.6777 27.8957 74.5608 34.108 75.0756 37.2313C75.2472 38.158 75.5218 38.6385 75.968 38.7072C76.5514 38.8445 76.5858 38.6385 76.3798 36.3046C76.2769 34.9317 76.0709 32.9754 75.968 31.98C75.7277 29.9207 76.1396 29.097 77.032 29.8521C78.1989 30.8131 80.0866 36.5106 80.4642 40.1487C80.6701 42.2424 81.8027 47.9742 82.8667 52.1615C83.6218 55.2504 84.6515 60.2958 85.4409 64.8606C85.8527 67.2289 86.2989 69.5971 86.4706 70.1806C86.6422 70.7297 86.9511 72.1369 87.157 73.2696C87.3972 74.4022 87.7748 76.2556 88.0494 77.3539C88.2896 78.4865 88.4612 79.4819 88.3583 79.5505C88.2896 79.6192 84.6171 79.7908 80.1896 79.8937L72.1925 80.0654L71.7807 78.212C71.5747 77.1823 71.2658 75.6721 71.1629 74.8141C70.2362 68.5331 67.3188 61.3941 64.7446 59.1975C63.9552 58.5111 62.7196 57.8246 61.9645 57.6187C57.2624 56.4517 55.8552 55.8682 54.6196 54.6327C52.9035 52.9165 52.1484 51.2348 52.1484 49.1411C52.1484 46.9445 52.9378 46.1208 53.8988 47.322C54.2764 47.7682 54.551 48.3517 54.551 48.6263C54.551 49.1754 54.9628 49.7589 56.4043 51.1661C58.1205 52.8136 61.9645 52.9509 63.3374 51.372C64.676 49.8276 65.2251 46.5326 64.4357 44.7136C63.0972 41.7275 60.1455 40.8008 56.0611 42.0707C53.8302 42.7915 53.1781 42.5856 53.1781 41.144C53.1781 38.9474 55.6836 37.8491 60.1455 38.158C62.2391 38.2953 65.1565 39.4279 66.598 40.6979C67.8336 41.7962 67.9366 40.8695 66.8383 38.6042C66.3921 37.6775 65.0879 36.2017 63.6806 34.9317C59.1844 30.916 58.6353 30.2296 58.7383 29.0283C58.8412 28.0673 58.9785 27.9643 60.1455 27.8614C61.0035 27.7927 61.8272 27.9987 62.6167 28.4792C64.5044 29.6461 68.2112 33.9021 69.7213 36.6135C71.0256 39.0161 71.4718 39.4623 71.8493 38.8101C72.1582 38.3296 70.854 34.8974 68.829 30.9847C66.8726 27.2436 66.598 26.1796 67.3188 25.4588C68.0052 24.7724 68.8976 24.9783 69.9616 26.111ZM45.5585 40.0114C45.3869 40.9038 44.2543 41.0754 44.2543 40.2517C44.2543 39.4279 44.9751 38.6729 45.3869 39.0847C45.5585 39.2563 45.6272 39.6682 45.5585 40.0114ZM48.3043 40.4233C48.8192 40.7665 50.8442 41.8648 52.8348 42.8602C57.1938 45.0911 57.4683 45.297 56.8505 46.1208C56.4387 46.7042 56.3357 46.7042 54.7226 45.9491C50.1234 43.8898 46.4509 42.1051 46.2793 41.7962C45.9361 41.247 46.3823 39.8055 46.8971 39.8055C47.1717 39.8055 47.8238 40.0801 48.3043 40.4233ZM34.095 62.0806C34.6441 62.5611 36.875 66.8857 36.6348 67.0916C36.5318 67.2289 23.2835 67.3662 18.2381 67.2975L16.1101 67.2632L16.3161 66.3022C16.8309 64.3115 18.2381 61.806 18.9589 61.6344C20.572 61.2911 33.5801 61.6687 34.095 62.0806Z" fill="black"/>
<path d="M22.3558 15.197C20.3652 16.0207 17.5164 18.1144 17.4821 18.7665C17.4821 18.9724 17.3448 19.2127 17.1732 19.2813C16.83 19.4186 14.7363 23.4686 14.7363 24.0521C14.7363 24.8758 18.1342 24.1551 21.0516 22.7135C25.994 20.2423 29.0143 16.4669 27.3669 14.8194C26.7148 14.1673 24.3465 14.3389 22.3558 15.197Z" fill="black"/>
<path d="M34.0267 23.3309C30.1483 25.2872 25.961 28.6165 23.2153 31.9801C22.5288 32.8381 22.0483 33.6275 22.1856 33.7305C23.1466 34.6915 33.2373 32.5635 35.6742 30.8818C36.1547 30.5385 36.8755 30.161 37.3217 30.058C37.7335 29.9207 38.0767 29.6805 38.0767 29.5089C38.0767 29.3373 38.42 29.097 38.7975 28.994C39.2094 28.8567 40.239 28.136 41.0284 27.3809C42.367 26.1453 42.5386 25.8021 42.5386 24.5322C42.5386 22.6101 41.6119 21.958 38.8318 21.958C37.1157 21.958 36.3263 22.1982 34.0267 23.3309Z" fill="black"/>
</svg>
