<svg width="80" height="81" viewBox="0 0 80 81" fill="none" xmlns="http://www.w3.org/2000/svg">
<path d="M44.9453 21.5188C45.2122 21.5398 45.4794 21.5531 45.7468 21.5661C46.4746 21.6023 47.1873 21.6522 47.869 21.9311C48.137 22.0403 48.399 22.1023 48.6835 22.1524C48.7278 22.1606 48.772 22.1688 48.8163 22.1771C48.9029 22.1933 48.9895 22.2094 49.0761 22.2254C49.496 22.3033 49.8589 22.3829 50.2218 22.6182C50.3218 22.6827 50.4216 22.7278 50.5323 22.7714C50.7876 22.8742 51.021 23.0117 51.2581 23.1504C51.2813 23.164 51.3045 23.1775 51.3284 23.1915C51.4452 23.2597 51.5617 23.3283 51.6781 23.3973C51.7895 23.4632 51.9018 23.5276 52.0142 23.5919C52.1572 23.6753 52.2926 23.7653 52.427 23.8617C52.5157 23.9243 52.6057 23.9842 52.6964 24.0439C53.0061 24.2479 53.2873 24.466 53.5604 24.7178C53.632 24.7835 53.7045 24.8473 53.7783 24.9105C53.9239 25.037 54.0583 25.1743 54.1936 25.3117C54.2337 25.351 54.2337 25.351 54.2746 25.3911C54.3511 25.4691 54.4197 25.5491 54.488 25.6343C54.5679 25.7334 54.6482 25.832 54.7315 25.9283C54.9448 26.175 55.1366 26.4311 55.3226 26.6988C55.3425 26.7262 55.3623 26.7537 55.3827 26.782C55.5246 26.979 55.649 27.1848 55.7722 27.3937C55.8203 27.475 55.8706 27.5539 55.9234 27.6323C56.468 28.502 56.7028 29.6178 56.9132 30.6062C56.9323 30.6954 56.952 30.7844 56.9717 30.8735C56.9811 30.9167 56.9903 30.96 56.9992 31.0033C57.0117 31.0638 57.0251 31.1242 57.0385 31.1846C57.0459 31.2193 57.0532 31.254 57.0609 31.2897C57.1064 31.3994 57.152 31.4236 57.2581 31.473C57.3406 31.5046 57.4228 31.5347 57.5061 31.5637C57.6903 31.6302 57.8521 31.7065 58.0179 31.8118C58.3335 32.0049 58.6819 32.1121 59.031 32.2261C59.5595 32.3988 59.5595 32.3988 59.77 32.5485C59.9925 32.6927 60.2315 32.7588 60.4839 32.8298C60.7951 32.9182 61.0746 33.0167 61.3549 33.1827C61.4422 33.2284 61.5306 33.2721 61.619 33.3157C61.7454 33.3785 61.7454 33.3785 61.8082 33.4098C61.85 33.4304 61.892 33.4507 61.9342 33.4706C62.1047 33.5524 62.2578 33.6521 62.4134 33.7593C62.5713 33.8667 62.727 33.9705 62.8972 34.0577C63.0716 34.1486 63.2209 34.2662 63.3744 34.3877C63.4847 34.4747 63.5988 34.5556 63.7138 34.6363C64.7044 35.3403 65.2872 36.1439 65.613 37.3117C65.6191 37.332 65.6252 37.3523 65.6315 37.3732C65.8166 38.0274 65.5326 38.7753 65.2265 39.3498C65.1427 39.4994 65.0464 39.6328 64.9355 39.7633C64.912 39.7916 64.8885 39.8199 64.8642 39.849C64.4474 40.3066 63.8743 40.5848 63.2904 40.7633C63.2345 40.7813 63.2345 40.7813 63.1775 40.7997C62.9051 40.8801 62.6286 40.9231 62.3488 40.969C61.9209 41.0392 61.5204 41.1489 61.1099 41.2859C60.8943 41.3536 60.691 41.3892 60.4664 41.4087C60.4368 41.4114 60.4072 41.4141 60.3767 41.4168C60.2834 41.4251 60.1901 41.433 60.0968 41.4407C60.0681 41.4431 60.0394 41.4455 60.0098 41.448C59.7983 41.4652 59.5868 41.4798 59.375 41.4932C59.3414 41.4953 59.3077 41.4975 59.273 41.4997C58.7972 41.5292 58.323 41.5411 57.8464 41.5403C57.8207 41.5402 57.7949 41.5402 57.7683 41.5402C57.5106 41.5396 57.2529 41.538 56.9952 41.5348C56.8984 41.5337 56.8016 41.5329 56.7047 41.5321C56.6382 41.5315 56.5716 41.5303 56.5051 41.529C56.2188 41.5268 55.9351 41.534 55.7097 41.7311C55.6607 41.8715 55.6802 41.9748 55.7371 42.1111C55.8103 42.2521 55.9017 42.3808 56 42.5053C56.0171 42.527 56.0341 42.5488 56.0516 42.5713C56.2907 42.7657 56.6225 42.8065 56.9163 42.8651C56.9466 42.8714 56.9768 42.8778 57.008 42.8844C57.0487 42.8926 57.0487 42.8926 57.0903 42.9009C57.1751 42.9292 57.2085 42.9466 57.2581 43.0214C57.2725 43.1241 57.2725 43.1241 57.276 43.2498C57.2779 43.2957 57.2798 43.3415 57.2817 43.3874C57.2841 43.4594 57.2863 43.5313 57.2882 43.6033C57.2902 43.673 57.2931 43.7427 57.2962 43.8123C57.2974 43.8539 57.2987 43.8956 57.2999 43.9384C57.3411 44.1475 57.4898 44.2598 57.6533 44.3883C57.7677 44.4797 57.8794 44.5723 57.988 44.6706C58.0983 44.7697 58.2121 44.8612 58.3298 44.9512C58.477 45.0665 58.6205 45.1861 58.7643 45.3055C58.8894 45.4092 59.0157 45.51 59.1452 45.6081C59.2992 45.7313 59.4176 45.8736 59.5373 46.0297C59.5872 46.0943 59.6381 46.1581 59.6891 46.2219C59.8937 46.4795 60.0863 46.7392 60.2603 47.0185C60.3893 47.2247 60.5331 47.4202 60.6775 47.6159C60.8457 47.8438 61.0061 48.0747 61.1613 48.3117C61.1929 48.3581 61.2245 48.4045 61.2561 48.4508C61.3513 48.5936 61.4393 48.7405 61.5269 48.8879C61.5944 49.0016 61.6627 49.1146 61.7325 49.2269C62.0786 49.784 62.3687 50.3624 62.6452 50.9569C62.6605 50.9896 62.6605 50.9896 62.6761 51.023C62.8238 51.3423 62.9324 51.6742 63.0397 52.0087C63.0611 52.0752 63.0831 52.1415 63.1053 52.2077C63.2564 52.6712 63.2786 53.1488 63.3098 53.6317C63.3433 54.1438 63.4079 54.631 63.604 55.1106C63.6735 55.2843 63.7105 55.4563 63.742 55.6403C63.7474 55.671 63.7528 55.7017 63.7583 55.7334C63.7956 55.9485 63.8295 56.1642 63.8609 56.3803C63.8648 56.4065 63.8686 56.4328 63.8726 56.4599C63.9975 57.3518 63.9756 58.2638 63.9759 59.1625C63.9759 59.2045 63.9759 59.2045 63.9759 59.2474C63.9766 60.586 63.9515 61.9099 63.6192 63.2143C63.5032 63.6705 63.4312 64.1282 63.3831 64.596C63.379 64.6358 63.379 64.6358 63.3747 64.6763C63.3119 65.2891 63.3008 65.9016 63.2926 66.5171C63.2817 67.2952 63.2275 68.0081 62.9649 68.7445C62.7753 69.2826 62.6924 69.8085 62.6452 70.3762C62.6399 70.4348 62.6399 70.4348 62.6346 70.4945C62.6313 70.5327 62.628 70.5708 62.6247 70.6101C62.6201 70.6622 62.6201 70.6622 62.6155 70.7154C62.6147 70.7419 62.6138 70.7683 62.613 70.7956C62.6479 70.8378 62.6479 70.8378 62.7324 70.8316C62.7717 70.8315 62.8109 70.8314 62.8514 70.8313C62.8732 70.8313 62.895 70.8312 62.9175 70.8312C62.9912 70.8311 63.0648 70.8308 63.1385 70.8305C63.1911 70.8304 63.2437 70.8303 63.2963 70.8302C63.4101 70.83 63.5238 70.8296 63.6376 70.8293C63.8183 70.8287 63.9991 70.8284 64.1798 70.8281C64.6939 70.8273 65.2081 70.8262 65.7222 70.8247C66.0058 70.8239 66.2895 70.8234 66.5731 70.8231C66.7229 70.8229 66.8726 70.8226 67.0224 70.822C68.8502 70.8148 68.8502 70.8148 69.3226 70.9569C69.3871 71.0214 69.3871 71.0214 69.3952 71.1403C69.3907 71.272 69.3774 71.3837 69.3226 71.5053C69.1627 71.5904 69.0337 71.6159 68.851 71.6236C68.8274 71.6246 68.8038 71.6257 68.7795 71.6268C68.476 71.6393 68.1721 71.6418 67.8684 71.6445C67.8028 71.6452 67.7372 71.6458 67.6716 71.6465C67.4967 71.6483 67.3219 71.6499 67.147 71.6514C67.0377 71.6524 66.9285 71.6535 66.8193 71.6545C65.8875 71.6635 64.9557 71.6684 64.0238 71.6667C61.898 71.6514 61.898 71.6514 59.7819 71.8265C59.2517 71.894 58.7117 71.8965 58.1778 71.8894C57.4317 71.8805 56.9787 72.0459 56.3871 72.5053C56.3602 72.5259 56.3333 72.5466 56.3056 72.5679C56.1411 72.6982 55.9889 72.8362 55.8382 72.9821C55.5848 73.2266 55.328 73.4375 55.0308 73.6263C54.9689 73.6659 54.9078 73.7065 54.8468 73.7474C54.351 74.0748 53.8005 74.313 53.2544 74.5436C53.1928 74.5701 53.1318 74.5978 53.0707 74.6257C52.7632 74.7631 52.452 74.8492 52.1253 74.9297C51.8314 75.0033 51.5449 75.0919 51.2581 75.1887C51.2183 75.2021 51.1786 75.2156 51.1376 75.2294C50.9643 75.2885 50.7922 75.3494 50.6211 75.4148C50.4575 75.4743 50.2997 75.507 50.1271 75.5274C50.0946 75.5313 50.0622 75.5352 50.0288 75.5392C48.6531 75.6851 47.2323 75.6126 45.8518 75.5917C45.7728 75.5905 45.6937 75.5894 45.6147 75.5884C44.9438 75.5795 44.3928 75.5203 43.7763 75.2411C43.5501 75.1398 43.3239 75.0399 43.0944 74.9464C42.8614 74.8514 42.6543 74.7529 42.4517 74.602C42.3907 74.5615 42.3295 74.5212 42.2682 74.4811C41.9231 74.2503 41.5911 74.019 41.2904 73.7311C41.2631 73.7051 41.2358 73.6792 41.2077 73.6524C41.1818 73.6251 41.1558 73.5979 41.1291 73.5698C41.1091 73.5489 41.0892 73.528 41.0686 73.5065C40.7534 73.1677 40.4864 72.7908 40.2299 72.4065C40.213 72.3818 40.1961 72.3571 40.1788 72.3316C40.0743 72.172 39.9983 72.0104 39.9295 71.8333C39.9207 71.811 39.9119 71.7887 39.9028 71.7657C39.8814 71.7112 39.86 71.6566 39.8388 71.602C39.2934 71.6005 38.7479 71.5994 38.2025 71.5987C37.9493 71.5984 37.696 71.5979 37.4427 71.5972C37.2219 71.5965 37.001 71.5961 36.7802 71.596C36.6633 71.5959 36.5465 71.5957 36.4297 71.5952C36.2989 71.5947 36.1682 71.5947 36.0375 71.5947C35.9991 71.5945 35.9608 71.5942 35.9213 71.594C35.6433 71.5947 35.3538 71.6154 35.0968 71.7311C35.088 71.7505 35.0792 71.7699 35.0701 71.7899C35.0187 71.8853 34.9518 71.9258 34.863 71.9871C34.7096 72.0952 34.5669 72.2061 34.4263 72.3304C34.2563 72.4804 34.0811 72.6226 33.9033 72.7633C33.865 72.7943 33.865 72.7943 33.826 72.8259C33.5571 73.0384 33.2742 73.2298 32.9808 73.4066C32.8811 73.4669 32.7826 73.5287 32.6842 73.5911C32.0183 74.012 31.3245 74.3407 30.5807 74.602C30.5414 74.6161 30.5414 74.6161 30.5013 74.6304C29.8494 74.8622 29.215 74.9479 28.5293 75.0104C28.4504 75.0183 28.3716 75.0277 28.293 75.0382C28.1623 75.0548 28.0319 75.0607 27.9003 75.0638C27.864 75.0648 27.864 75.0648 27.827 75.0659C27.776 75.0673 27.725 75.0686 27.6741 75.0699C27.5979 75.0718 27.5218 75.0739 27.4456 75.076C27.3209 75.0794 27.1963 75.0822 27.0715 75.0845C27.0252 75.0854 26.9788 75.0864 26.9325 75.0875C26.5937 75.0951 26.2685 75.0675 25.9335 75.0234C25.8411 75.0115 25.7486 74.9998 25.6562 74.9882C25.6337 74.9854 25.6113 74.9826 25.5882 74.9797C25.396 74.9563 25.2043 74.9432 25.011 74.9333C24.4754 74.8902 23.9918 74.6065 23.5162 74.3762C23.4646 74.3517 23.413 74.3272 23.3613 74.3028C22.8871 74.0754 22.4547 73.7846 22.0323 73.473C21.9987 73.4484 21.9652 73.4238 21.9306 73.3984C21.4425 73.0365 20.9814 72.6407 20.5404 72.223C20.0109 71.714 20.0109 71.714 19.3111 71.5663C19.2876 71.5663 19.264 71.5664 19.2397 71.5664C19.1608 71.5665 19.0819 71.5668 19.003 71.5671C18.9463 71.5672 18.8896 71.5673 18.833 71.5674C18.7109 71.5676 18.5888 71.5679 18.4668 71.5683C18.2731 71.5689 18.0793 71.5692 17.8856 71.5695C17.3347 71.5703 16.7838 71.5714 16.2329 71.5729C15.9287 71.5737 15.6244 71.5742 15.3202 71.5745C15.1596 71.5747 14.9989 71.575 14.8383 71.5756C13.1168 71.5819 13.1168 71.5819 12.7097 71.4407C12.6313 71.3623 12.6357 71.3408 12.6353 71.2331C12.6394 71.0445 12.6823 70.8775 12.74 70.6988C12.7483 70.6685 12.7566 70.6382 12.7652 70.6069C12.8323 70.3975 12.8323 70.3975 12.9315 70.343C13.0087 70.3242 13.0822 70.3183 13.1613 70.3117C13.1862 70.309 13.2111 70.3062 13.2368 70.3034C13.4981 70.2758 13.7584 70.2753 14.0209 70.2763C14.0708 70.2764 14.1206 70.2764 14.1705 70.2764C14.2772 70.2765 14.3839 70.2767 14.4906 70.277C14.6592 70.2775 14.8278 70.2776 14.9964 70.2778C15.3538 70.2782 15.7112 70.2788 16.0686 70.2794C16.4556 70.2802 16.8426 70.2808 17.2296 70.2812C17.3973 70.2813 17.5651 70.2816 17.7329 70.2821C17.8368 70.2823 17.9407 70.2824 18.0447 70.2825C18.093 70.2826 18.1414 70.2827 18.1898 70.2829C18.2555 70.2831 18.3212 70.2831 18.3869 70.2831C18.4238 70.2832 18.4606 70.2832 18.4986 70.2833C18.5786 70.2888 18.5786 70.2888 18.613 70.2472C18.6598 70.013 18.6593 69.7935 18.5302 69.5849C18.5096 69.5559 18.489 69.527 18.4678 69.4972C18.155 69.0542 17.9735 68.5138 17.7663 68.0159C17.7073 67.8745 17.6488 67.735 17.5764 67.5999C17.4977 67.446 17.4595 67.2835 17.4194 67.1161C17.4112 67.0826 17.4029 67.049 17.3944 67.0144C17.3234 66.7177 17.2713 66.4189 17.2211 66.1182C17.167 65.7965 17.0738 65.505 16.9582 65.2012C16.8859 65.0075 16.8281 64.8127 16.7783 64.6121C16.7685 64.5728 16.7685 64.5728 16.7584 64.5327C16.7003 64.2894 16.6734 64.0493 16.6674 63.7994C16.6667 63.7754 16.6661 63.7514 16.6654 63.7267C16.6633 63.648 16.6614 63.5693 16.6596 63.4905C16.6589 63.4631 16.6582 63.4356 16.6575 63.4073C16.6433 62.8208 16.6402 62.2344 16.641 61.6477C16.6412 61.5096 16.6411 61.3714 16.6409 61.2332C16.6379 58.5623 16.6379 58.5623 17.0516 57.5364C17.1108 57.3814 17.1353 57.2234 17.1593 57.0597C17.1647 57.0236 17.1701 56.9876 17.1756 56.9505C17.2422 56.469 17.2722 55.9833 17.3042 55.4985C17.3523 54.7988 17.4489 54.1418 17.7173 53.4906C17.858 53.1488 17.9529 52.7982 18.0395 52.4391C18.1557 51.97 18.3356 51.5409 18.5321 51.1002C18.5925 50.9622 18.6487 50.8227 18.7049 50.683C18.8285 50.3763 18.9662 50.0857 19.1303 49.7985C19.2252 49.6322 19.3079 49.4646 19.3851 49.2895C19.5097 49.0117 19.6807 48.7741 19.8614 48.5303C19.9129 48.4597 19.9608 48.3872 20.0081 48.3137C20.1135 48.1541 20.2328 48.0072 20.3549 47.8601C20.3684 47.8436 20.382 47.8271 20.3959 47.8101C20.609 47.5513 20.8345 47.3097 21.0744 47.0756C21.2186 46.9345 21.3528 46.7876 21.4839 46.6343C21.9949 46.0496 22.5427 45.5239 23.2506 45.1862C23.3856 45.1191 23.5107 45.0355 23.6363 44.9523C23.8195 44.8335 24.0122 44.7408 24.2097 44.6484C24.2739 44.6181 24.3381 44.5878 24.4023 44.5575C24.4328 44.5432 24.4634 44.5288 24.4948 44.514C24.5703 44.478 24.645 44.4408 24.7196 44.4029C24.8283 44.3481 24.9387 44.3011 25.0525 44.2573C25.104 44.2371 25.104 44.2371 25.1566 44.2166C25.3263 44.1599 25.4842 44.1466 25.6625 44.1495C25.7019 44.1499 25.7413 44.1503 25.7819 44.1507C25.8643 44.1519 25.9467 44.1531 26.0291 44.1545C26.0685 44.1549 26.1078 44.1552 26.1484 44.1556C26.1841 44.1561 26.2199 44.1567 26.2567 44.1572C26.3564 44.1503 26.4263 44.1282 26.5162 44.0859C26.5436 43.6345 26.4344 43.229 26.2259 42.8307C26.0507 42.4756 26.0057 42.0629 25.945 41.6759C25.8468 41.0524 25.6945 40.4548 25.4824 39.8602C25.3687 39.5364 25.3443 39.2308 25.3468 38.8883C25.347 38.847 25.3472 38.8056 25.3474 38.763C25.3533 38.2044 25.3848 37.7917 25.7349 37.3433C25.8134 37.2379 25.8751 37.1306 25.9333 37.0131C25.9678 36.9569 25.9678 36.9569 26.0646 36.8923C26.2357 36.8641 26.4046 36.8548 26.578 36.8522C26.6267 36.8511 26.6753 36.8501 26.7239 36.8491C26.7615 36.8483 26.7615 36.8483 26.7998 36.8476C27.1586 36.8402 27.5159 36.8318 27.873 36.7936C27.9132 36.7893 27.9132 36.7893 27.9542 36.785C28.0026 36.7798 28.051 36.7747 28.0993 36.7696C28.5058 36.7287 29.0868 36.7572 29.4194 37.0214C29.4869 37.1022 29.5355 37.1847 29.5807 37.2794C29.5927 37.3034 29.6046 37.3273 29.617 37.3519C29.6263 37.3706 29.6356 37.3892 29.6452 37.4085C29.7483 37.3856 29.7483 37.3856 29.7928 37.2941C29.9165 36.9945 29.9904 36.6207 29.871 36.3117C29.7169 35.9443 29.7169 35.9443 29.4045 35.7168C29.3626 35.7042 29.3205 35.6922 29.2783 35.6807C29.2556 35.674 29.233 35.6673 29.2097 35.6605C29.06 35.617 28.9091 35.5783 28.7581 35.5395C28.3331 35.4274 27.939 35.2567 27.542 35.0703C27.3841 34.9966 27.2277 34.9326 27.0616 34.8798C26.6949 34.7625 26.3749 34.5328 26.0585 34.3198C25.9987 34.2797 25.9389 34.2396 25.8791 34.1996C25.8501 34.1801 25.8212 34.1607 25.7914 34.1407C25.7008 34.0799 25.61 34.0193 25.5192 33.9588C25.481 33.9334 25.4428 33.9079 25.4047 33.8824C25.2962 33.81 25.1875 33.7381 25.0784 33.6665C24.6899 33.4111 24.3391 33.1379 23.9997 32.8203C23.9263 32.7519 23.8515 32.6862 23.7742 32.6222C23.6741 32.5345 23.5959 32.4502 23.5162 32.344C23.5162 32.3227 23.5162 32.3014 23.5162 32.2794C23.4978 32.2719 23.4793 32.2643 23.4604 32.2565C23.3701 32.2052 23.3162 32.144 23.248 32.0657C23.2227 32.0368 23.1973 32.0078 23.1712 31.9779C23.1466 31.9497 23.1221 31.9214 23.0968 31.8923C23.0763 31.8698 23.0557 31.8472 23.0346 31.8239C22.6982 31.4524 22.504 31.0062 22.2937 30.5559C22.2752 30.5165 22.2566 30.4771 22.238 30.4377C22.0579 30.0583 21.9888 29.7898 21.99 29.3702C21.9894 29.3333 21.9889 29.2964 21.9884 29.2585C21.988 28.5101 22.3054 27.832 22.8201 27.3015C22.9052 27.2155 22.9052 27.2155 22.9814 27.1173C23.0712 27.0137 23.1626 26.9383 23.2742 26.8601C23.2939 26.8462 23.3136 26.8323 23.3339 26.8179C23.4927 26.7087 23.6569 26.6252 23.8342 26.5492C23.934 26.5059 24.0289 26.4572 24.125 26.4065C24.4247 26.256 24.7438 26.1673 25.0657 26.0784C25.3008 26.0134 25.5235 25.9517 25.7383 25.833C26.5048 25.4122 27.5539 25.5378 28.4001 25.5213C28.4361 25.5205 28.4721 25.5198 28.5091 25.5191C29.0902 25.5079 29.6713 25.5012 30.2524 25.4973C30.31 25.4969 30.31 25.4969 30.3686 25.4965C30.7208 25.494 31.073 25.4917 31.4252 25.4899C31.6215 25.4888 31.8177 25.4875 32.0139 25.486C32.0874 25.4855 32.1609 25.4851 32.2344 25.4848C32.3359 25.4844 32.4374 25.4836 32.5389 25.4828C32.5684 25.4827 32.5979 25.4827 32.6283 25.4827C32.8443 25.4803 33.0718 25.4772 33.248 25.3419C33.3068 25.2672 33.3561 25.1949 33.4064 25.1148C33.5197 24.9443 33.6535 24.8023 33.7984 24.6585C33.8251 24.6319 33.8518 24.6053 33.8793 24.5778C34.1171 24.3459 34.3737 24.1557 34.6472 23.9686C34.7365 23.9057 34.8195 23.8375 34.9033 23.7673C35.4377 23.3224 36.0512 22.9923 36.6815 22.7054C36.7161 22.6896 36.7507 22.6738 36.7864 22.6576C36.8549 22.6266 36.9234 22.5957 36.9921 22.5651C37.1781 22.4818 37.1781 22.4818 37.3509 22.3747C37.5152 22.272 37.6991 22.2244 37.8831 22.1665C38.1259 22.0897 38.3567 22.0142 38.5807 21.8923C38.8091 21.7689 39.0139 21.6868 39.2698 21.6499C39.2962 21.646 39.3226 21.642 39.3497 21.6379C41.1997 21.3701 43.085 21.3713 44.9453 21.5188ZM28.2061 26.5331C27.5554 26.6942 26.8989 26.7747 26.2315 26.8238C25.3794 26.8885 24.7256 27.2022 24.0061 27.6444C23.9851 27.6571 23.9641 27.6699 23.9424 27.6831C23.8163 27.762 23.7149 27.8472 23.613 27.9569C23.5829 27.9881 23.5829 27.9881 23.5523 28.02C23.1226 28.4936 23.1225 29.1023 23.1517 29.7132C23.1909 30.1812 23.3295 30.6131 23.613 30.9891C23.6301 31.0138 23.6472 31.0385 23.6649 31.064C23.7936 31.2418 23.9482 31.3928 24.1044 31.546C24.1996 31.6396 24.2911 31.7336 24.3771 31.8359C24.4826 31.9599 24.6006 32.0662 24.7228 32.1735C24.7773 32.2215 24.8311 32.2703 24.8841 32.3199C25.0906 32.5127 25.3137 32.672 25.5484 32.8278C25.5819 32.8502 25.6154 32.8725 25.6499 32.8955C25.7144 32.9385 25.7791 32.9814 25.8438 33.0242C25.9556 33.0994 26.0646 33.1784 26.1728 33.2588C26.2682 33.3179 26.3655 33.3606 26.4684 33.405C26.6097 33.468 26.7461 33.5403 26.8831 33.6121C26.9111 33.6266 26.9392 33.641 26.968 33.6559C27.1162 33.7334 27.2561 33.8152 27.3943 33.9092C27.5848 34.0324 27.7874 34.1023 28.0017 34.1717C28.3701 34.2915 28.7129 34.4278 29.0443 34.6313C29.268 34.7655 29.4912 34.8148 29.748 34.848C29.7929 34.8542 29.7929 34.8542 29.8386 34.8605C29.9993 34.882 30.1587 34.8979 30.3206 34.9065C30.6603 34.9281 31.0081 35.0273 31.2783 35.2391C31.5232 35.4048 31.8185 35.478 32.0968 35.5698C32.2247 35.6123 32.3523 35.6554 32.4799 35.6988C32.509 35.7083 32.538 35.7179 32.568 35.7277C32.7373 35.7852 32.8901 35.8541 33.0474 35.9393C33.3242 36.085 33.6194 36.1416 33.9234 36.2048C34.0328 36.2282 34.1421 36.2519 34.2513 36.2758C34.2903 36.2843 34.2903 36.2843 34.3301 36.293C34.6009 36.3536 34.8603 36.4211 35.0968 36.5698C35.4471 36.7897 35.8555 36.8403 36.2561 36.9085C36.6976 36.9838 37.1116 37.0739 37.5278 37.245C37.9107 37.3997 38.3019 37.5181 38.7058 37.6034C39.0444 37.6764 39.3532 37.7729 39.6685 37.9178C40.1766 38.1513 40.726 38.2272 41.2755 38.3029C41.6825 38.3593 42.0818 38.4245 42.4496 38.6161C42.9568 38.8694 43.5668 38.9074 44.1205 38.9906C44.5896 39.0616 45.0263 39.1449 45.468 39.3219C45.7676 39.4383 46.0717 39.4947 46.3892 39.5375C46.4282 39.543 46.4672 39.5484 46.5074 39.554C46.7767 39.591 47.0464 39.6226 47.3166 39.6524C47.6941 39.6947 48.0556 39.7444 48.4154 39.8722C48.9065 40.0415 49.4247 40.1181 49.9396 40.1746C49.9733 40.1783 50.007 40.1821 50.0417 40.1859C50.7792 40.2597 51.5256 40.2605 52.2662 40.279C52.3828 40.2819 52.4995 40.285 52.6162 40.2883C53.362 40.3095 54.1051 40.3111 54.851 40.2935C55.4036 40.2807 55.9562 40.2744 56.509 40.2708C56.5785 40.2704 56.6479 40.2699 56.7174 40.2694C57.0706 40.2671 57.4238 40.265 57.7771 40.2629C58.4751 40.2588 59.173 40.2542 59.871 40.2472C59.9087 40.2468 59.9463 40.2464 59.9851 40.246C60.1892 40.2439 60.3933 40.2412 60.5974 40.2376C60.6559 40.2366 60.7143 40.2358 60.7728 40.2351C61.0852 40.2312 61.3912 40.2113 61.701 40.1698C61.7449 40.1639 61.7449 40.1639 61.7896 40.1579C62.1684 40.1032 62.4923 39.9724 62.8298 39.7938C63.0432 39.69 63.2759 39.6253 63.5029 39.558C63.7613 39.4755 63.9498 39.3568 64.1291 39.1504C64.1291 39.1291 64.1291 39.1078 64.1291 39.0859C64.151 39.0792 64.173 39.0726 64.1956 39.0657C64.3545 38.9914 64.475 38.8875 64.5746 38.7432C64.6787 38.4475 64.6877 38.1383 64.6855 37.8278C64.6858 37.7928 64.686 37.7578 64.6863 37.7217C64.6844 36.9297 64.3099 36.4661 63.7742 35.9246C63.267 35.4299 62.6776 35.0702 62.0608 34.7298C61.8983 34.64 61.7385 34.5486 61.582 34.4488C61.475 34.3833 61.3643 34.3249 61.2539 34.2655C61.1622 34.2154 61.0717 34.1636 60.9814 34.1111C60.6398 33.9129 60.3085 33.7339 59.9355 33.602C59.809 33.5568 59.6827 33.5111 59.5565 33.4649C59.5231 33.4527 59.4898 33.4406 59.4554 33.428C59.2417 33.3478 59.0437 33.254 58.8448 33.1423C58.5732 32.9905 58.3044 32.9099 58.0018 32.843C57.9107 32.8221 57.8215 32.7958 57.7319 32.7694C57.5616 32.7224 57.5616 32.7224 57.3871 32.7311C57.2994 32.7975 57.2659 32.8554 57.2431 32.9632C57.2319 33.0689 57.2284 33.1731 57.2259 33.2794C57.225 33.3081 57.2242 33.3367 57.2233 33.3662C57.2207 33.4643 57.2191 33.5624 57.2178 33.6605C57.2171 33.6924 57.2164 33.7244 57.2157 33.7573C57.2147 33.9785 57.2311 34.1501 57.3892 34.3178C57.4969 34.3842 57.6048 34.4285 57.723 34.4731C57.7977 34.5019 57.8692 34.5337 57.9416 34.5678C58.1917 34.6799 58.4563 34.7615 58.7202 34.8349C59.0035 34.9137 59.2591 35.0038 59.5162 35.1504C59.5352 35.1612 59.5543 35.1721 59.5739 35.1832C60.5091 35.7187 60.5091 35.7187 60.6452 36.2149C60.6958 36.4977 60.7011 36.7391 60.5484 36.9891C60.4792 37.0819 60.4039 37.1649 60.3226 37.2472C60.2973 37.2751 60.2721 37.3031 60.246 37.3319C59.2393 38.2427 57.8254 38.2358 56.554 38.177C56.3859 38.1665 56.2184 38.152 56.0508 38.1364C55.8162 38.1148 55.5812 38.1037 55.346 38.0917C53.6516 38.0041 53.6516 38.0041 53.2904 37.7633C53.2103 37.7495 53.1326 37.7391 53.052 37.7311C53.0276 37.7285 53.0032 37.7259 52.9781 37.7232C52.8967 37.7147 52.8153 37.7067 52.7339 37.6988C52.7057 37.696 52.6775 37.6932 52.6485 37.6902C52.1741 37.6433 51.7002 37.6175 51.2238 37.6C50.6403 37.5784 50.0641 37.5424 49.4839 37.473C49.4348 37.4673 49.3856 37.4616 49.3365 37.456C48.2899 37.3344 48.2899 37.3344 47.8802 37.1931C47.6841 37.1268 47.4877 37.0799 47.2847 37.0398C47.25 37.0329 47.2154 37.026 47.1796 37.0189C46.7415 36.9347 46.2993 36.88 45.8569 36.8238C45.6896 36.8025 45.5223 36.7809 45.355 36.759C45.2989 36.7521 45.2989 36.7521 45.2416 36.745C44.9758 36.7102 44.7215 36.663 44.4829 36.5364C44.343 36.4629 44.2023 36.4276 44.0484 36.3944C44.0184 36.3877 43.9883 36.381 43.9574 36.3741C43.6837 36.3154 43.4078 36.2727 43.1311 36.2311C41.9851 36.0583 41.9851 36.0583 41.5844 35.8705C41.2202 35.7158 40.8259 35.638 40.4383 35.5671C40.3118 35.5439 40.1855 35.5196 40.0591 35.4954C40.0344 35.4907 40.0097 35.486 39.9842 35.4812C39.1311 35.3183 39.1311 35.3183 38.7847 35.1606C38.3772 34.9993 37.9334 34.9212 37.5041 34.8419C37.0703 34.7618 36.6657 34.651 36.2553 34.4892C36.07 34.4181 35.8812 34.3639 35.6905 34.3094C35.3105 34.2009 34.9546 34.0768 34.5986 33.9022C34.2609 33.7408 33.9076 33.6297 33.5508 33.5185C33.2827 33.4339 33.0315 33.3349 32.7787 33.2115C32.568 33.1094 32.3519 33.0345 32.1291 32.9629C31.7894 32.8501 31.4629 32.7202 31.1375 32.571C30.8977 32.4626 30.6552 32.3754 30.4053 32.2936C30.1285 32.2021 29.8794 32.0967 29.6287 31.9483C29.4549 31.8455 29.2777 31.7597 29.0928 31.6786C28.6256 31.4725 28.1907 31.2543 27.7742 30.9569C27.7443 30.936 27.7144 30.9152 27.6836 30.8937C27.4871 30.7481 27.3469 30.5776 27.2039 30.3818C27.1403 30.2948 27.0743 30.2115 27.0061 30.1282C26.7673 29.8229 26.6816 29.5348 26.7097 29.1504C26.7501 28.9102 26.8716 28.7388 27.0242 28.5557C27.0479 28.527 27.0479 28.527 27.072 28.4978C27.2524 28.2934 27.4395 28.2106 27.7097 28.1827C27.8257 28.1783 27.9416 28.1782 28.0576 28.1784C28.108 28.1783 28.108 28.1783 28.1594 28.1782C28.2683 28.1782 28.3771 28.1784 28.4859 28.1786C28.523 28.1787 28.5601 28.1787 28.5983 28.1788C29.9534 28.1809 29.9534 28.1809 30.5555 28.2348C30.593 28.2382 30.6305 28.2415 30.6692 28.245C30.7397 28.2516 30.8101 28.2588 30.8804 28.2666C30.9113 28.2697 30.9422 28.2728 30.9741 28.2759C31.001 28.2789 31.028 28.2819 31.0558 28.285C31.1511 28.2778 31.1898 28.2484 31.2581 28.1827C31.2911 28.1017 31.3188 28.0238 31.3448 27.9407C31.4197 27.7205 31.5179 27.5718 31.6738 27.397C31.7876 27.2546 31.8449 27.0957 31.9033 26.9246C31.9135 26.8955 31.9238 26.8664 31.9344 26.8364C31.9863 26.6785 32.0174 26.5424 32 26.3762C31.8036 26.1798 31.1758 26.2739 30.9071 26.2735C30.8723 26.2735 30.8374 26.2735 30.8015 26.2735C30.6968 26.2734 30.5922 26.2728 30.4875 26.2722C29.7088 26.2701 28.9621 26.3454 28.2061 26.5331ZM27.871 28.9891C27.8646 29.2185 27.927 29.4558 27.9759 29.6786C27.9851 29.7256 27.9851 29.7256 27.9946 29.7735C28.0337 29.9537 28.0337 29.9537 28.1389 30.1011C28.2302 30.1529 28.3214 30.2025 28.4154 30.2492C28.5855 30.3383 28.7348 30.4391 28.8871 30.5557C29.1503 30.7546 29.4314 30.948 29.7742 30.944C29.9032 30.9052 29.9844 30.822 30.0518 30.7081C30.0664 30.6752 30.0809 30.6423 30.0959 30.6083C30.1205 30.5531 30.1205 30.5531 30.1455 30.4967C30.1621 30.4583 30.1786 30.4198 30.1956 30.3803C30.2206 30.3245 30.2206 30.3245 30.2461 30.2676C30.4003 29.9155 30.5693 29.5108 30.5484 29.1182C30.4969 29.0181 30.4969 29.0181 30.4249 29.005C30.4007 29.003 30.3765 29.001 30.3516 28.999C30.3237 28.9965 30.2957 28.9941 30.2669 28.9916C30.2361 28.9894 30.2052 28.9873 30.1734 28.9851C30.141 28.9826 30.1085 28.9801 30.0751 28.9775C29.4723 28.9342 28.8663 28.9231 28.2621 28.9186C28.2298 28.9181 28.1974 28.9177 28.164 28.9173C28.1199 28.9172 28.1199 28.9172 28.0749 28.9172C28.0366 28.917 28.0366 28.917 27.9975 28.9168C27.9278 28.9191 27.9278 28.9191 27.871 28.9891ZM56.9678 35.6343C56.828 35.8995 56.8666 36.2524 56.869 36.5436C56.8691 36.5773 56.8693 36.6111 56.8694 36.6459C56.8698 36.7281 56.8703 36.8102 56.871 36.8923C57.119 37.0141 57.3673 37.0027 57.6371 36.9992C57.6859 36.9989 57.7346 36.9985 57.7833 36.9982C58.0986 36.995 58.4132 36.9836 58.7279 36.9629C58.7642 36.9607 58.8006 36.9584 58.838 36.9561C59.1078 36.9355 59.3838 36.9018 59.5807 36.6988C59.6209 36.64 59.6209 36.64 59.613 36.5698C59.5305 36.4266 59.4526 36.3435 59.3125 36.2573C59.1311 36.142 58.9588 36.0183 58.7881 35.8877C58.4205 35.612 58.042 35.5297 57.5888 35.5254C57.5605 35.525 57.5323 35.5245 57.5032 35.5241C57.3219 35.5254 57.1252 35.5356 56.9678 35.6343ZM26.7097 37.6665C26.6763 37.7821 26.6635 37.9027 26.6452 38.0214C26.6396 38.0562 26.6341 38.091 26.6283 38.1269C26.571 38.5255 26.5691 38.9217 26.5706 39.3238C26.5707 39.3596 26.5708 39.3955 26.5709 39.4324C26.5682 40.7647 26.5682 40.7647 27.0356 41.9909C27.141 42.1575 27.1776 42.3169 27.2117 42.5093C27.2247 42.5748 27.2379 42.6404 27.2512 42.7059C27.2576 42.7376 27.2641 42.7694 27.2707 42.8021C27.3158 43.0092 27.3822 43.2084 27.4517 43.4085C27.465 43.4481 27.4783 43.4878 27.492 43.5287C27.5557 43.7334 27.5557 43.7334 27.6927 43.8891C27.7971 43.9759 27.8281 44.0697 27.869 44.1948C27.8852 44.2411 27.9015 44.2874 27.9179 44.3336C27.9261 44.3569 27.9342 44.3802 27.9427 44.4042C27.995 44.5475 28.0581 44.6863 28.1194 44.8261C28.1532 44.9055 28.1825 44.9839 28.2097 45.0657C28.2592 45.1853 28.3183 45.2651 28.3977 45.3652C28.5837 45.6254 28.7 45.9426 28.8301 46.2337C28.8569 46.2935 28.8838 46.3531 28.9108 46.4128C29.0843 46.7986 29.2328 47.1739 29.3226 47.5879C29.3781 47.8311 29.4369 48.059 29.5414 48.2864C29.7455 48.7528 29.8587 49.2792 29.9058 49.7842C29.9085 49.8135 29.9113 49.8428 29.9141 49.873C29.9436 50.2118 29.9492 50.5504 29.9537 50.8903C29.9549 50.9627 29.9561 51.0351 29.9573 51.1075C29.9649 51.5797 29.9694 52.052 29.9737 52.5242C29.9746 52.6195 29.9755 52.7147 29.9764 52.81C29.9767 52.8415 29.9771 52.8729 29.9774 52.9054C29.978 52.969 29.9786 53.0327 29.9792 53.0963C29.9811 53.2866 29.9826 53.4768 29.9839 53.6671C29.9848 53.7868 29.9859 53.9066 29.9871 54.0263C29.9876 54.0827 29.988 54.1392 29.9882 54.1956C29.9886 54.2732 29.9894 54.3509 29.9903 54.4285C29.9903 54.4514 29.9903 54.4743 29.9903 54.4978C29.9921 54.615 29.9976 54.6629 30.0646 54.7633C30.1234 54.7876 30.1234 54.7876 30.1925 54.7989C30.2186 54.8039 30.2447 54.8089 30.2715 54.8141C30.4121 54.8372 30.553 54.8554 30.6945 54.8719C30.76 54.88 30.8255 54.888 30.891 54.896C30.9924 54.9083 31.0939 54.9205 31.1954 54.9325C31.7693 55.0009 32.3151 55.0843 32.8549 55.2976C33.1816 55.4211 33.4924 55.4981 33.8388 55.5375C33.8964 55.5455 33.8964 55.5455 33.9551 55.5536C34.1109 55.5731 34.2663 55.5786 34.4231 55.5836C34.4869 55.5859 34.5507 55.5883 34.6145 55.5906C34.6475 55.5918 34.6806 55.593 34.7146 55.5942C35.6581 55.6291 35.6581 55.6291 36.121 55.6807C36.1537 55.6842 36.1863 55.6878 36.22 55.6914C36.5025 55.7261 36.7748 55.7928 37.0363 55.9065C37.0687 55.9203 37.101 55.9341 37.1344 55.9483C37.1904 55.9733 37.2461 55.999 37.3012 56.0259C37.4922 56.1183 37.6901 56.1743 37.9033 56.1827C38.0045 56.1308 38.0045 56.1308 38.0165 56.0534C38.0192 56.0143 38.0192 56.0143 38.022 55.9744C38.0241 55.9454 38.0262 55.9164 38.0283 55.8865C38.0347 55.7411 38.0362 55.5961 38.0351 55.4506C38.035 55.4184 38.0349 55.3863 38.0348 55.3533C38.033 55.0075 38.0266 54.6617 38.0193 54.316C38.018 54.2482 38.0166 54.1804 38.0152 54.1126C38.0124 53.9721 38.0095 53.8315 38.0065 53.6909C38.0028 53.5123 37.9992 53.3337 37.9957 53.1551C37.9929 53.0157 37.99 52.8763 37.9871 52.7368C37.9858 52.671 37.9844 52.6052 37.9831 52.5394C38.0128 51.646 38.0128 51.646 37.8108 50.801C37.7211 50.602 37.6864 50.3946 37.647 50.1809C37.6387 50.1373 37.6303 50.0938 37.622 50.0502C37.6001 49.9361 37.5787 49.822 37.5574 49.7079C37.5358 49.5926 37.5138 49.4774 37.4919 49.3622C37.3624 48.6819 37.3624 48.6819 37.3055 48.3526C37.2039 47.862 36.8751 47.4161 36.5807 47.0214C36.5614 46.9955 36.5421 46.9696 36.5222 46.9429C36.3942 46.7752 36.2578 46.6146 36.1204 46.4545C36.0538 46.3767 35.9924 46.3003 35.9355 46.2149C35.9142 46.2149 35.893 46.2149 35.871 46.2149C35.8632 46.1912 35.8553 46.1674 35.8472 46.143C35.8016 46.0428 35.7512 45.9897 35.6714 45.9145C35.5592 45.806 35.4544 45.6953 35.3529 45.5768C35.2908 45.5058 35.2271 45.4365 35.163 45.3673C34.8838 45.0662 34.6338 44.7514 34.3991 44.4145C34.3132 44.2916 34.2262 44.1716 34.1311 44.0557C33.7753 43.6211 33.4638 43.149 33.1639 42.6749C33.0786 42.5411 32.9919 42.4083 32.9053 42.2754C32.7154 41.9839 32.5276 41.6911 32.3406 41.3977C32.1721 41.1337 32.0001 40.8727 31.8206 40.6161C31.5771 40.2649 31.3975 39.9251 31.2601 39.5194C31.1669 39.2461 31.0585 38.9919 30.8388 38.7956C30.8175 38.7956 30.7962 38.7956 30.7742 38.7956C30.7532 38.8863 30.7324 38.977 30.7117 39.0678C30.7059 39.093 30.7 39.1183 30.6939 39.1443C30.5264 39.8843 30.6001 40.5908 30.9972 41.251C31.118 41.4598 31.2185 41.6811 31.3186 41.9004C31.4765 42.2442 31.6361 42.582 31.8461 42.8974C31.9015 42.9863 31.949 43.0763 31.9962 43.1697C32.1041 43.3829 32.2149 43.5503 32.3909 43.7168C32.5465 43.9186 32.5253 44.1779 32.5222 44.4206C32.5222 44.4688 32.5222 44.4688 32.5222 44.518C32.5207 44.7542 32.5207 44.7542 32.4839 44.8278C32.3212 44.814 32.2515 44.7756 32.1412 44.6565C32.1056 44.6187 32.1056 44.6187 32.0694 44.5802C32.0465 44.5555 32.0236 44.5307 32 44.5053C31.9289 44.4323 31.86 44.3674 31.7803 44.3036C31.5613 44.1226 31.4015 43.895 31.2541 43.6544C31.2363 43.6256 31.2185 43.5967 31.2002 43.567C30.9988 43.2334 30.8283 42.8847 30.6584 42.5343C30.6081 42.4308 30.5569 42.3278 30.5052 42.2249C30.4845 42.1837 30.4639 42.1424 30.4434 42.101C30.3945 42.0025 30.3445 41.9049 30.2921 41.8082C30.1337 41.5115 30.0218 41.2067 29.9151 40.8879C29.8399 40.6634 29.7581 40.4437 29.6674 40.225C29.4771 39.7605 29.3801 39.2959 29.3424 38.7954C29.3142 38.353 29.3142 38.353 29.1291 37.9569C29.0374 37.8815 28.9903 37.8599 28.8727 37.8603C28.7272 37.882 28.6557 37.9357 28.5666 38.0516C28.3182 38.4137 28.4667 39.0503 28.494 39.469C28.4962 39.5026 28.4983 39.5362 28.5006 39.5709C28.5253 39.9503 28.5501 40.3294 28.5968 40.7069C28.6002 40.7349 28.6037 40.763 28.6072 40.7919C28.6441 41.0615 28.7152 41.3233 28.8166 41.5758C28.8305 41.6112 28.8444 41.6467 28.8587 41.6832C28.889 41.7595 28.9194 41.8358 28.9499 41.912C29.12 42.3449 29.2377 42.7925 29.3428 43.2452C29.3878 43.4285 29.4574 43.5631 29.5786 43.7098C29.8297 44.0331 29.9376 44.4217 29.9033 44.8278C29.8572 45.1735 29.8572 45.1735 29.742 45.3117C29.71 45.3117 29.6781 45.3117 29.6452 45.3117C29.6287 45.2778 29.6287 45.2778 29.6119 45.2432C29.4564 44.9388 29.2518 44.7427 28.9924 44.5259C28.8439 44.3877 28.7961 44.2363 28.7339 44.0476C28.6449 43.7848 28.5461 43.5284 28.4381 43.2729C28.3938 43.1681 28.3538 43.062 28.3144 42.9552C28.2913 42.8946 28.2653 42.8351 28.2393 42.7757C28.1965 42.6734 28.1662 42.5764 28.1392 42.469C28.1283 42.4268 28.1174 42.3847 28.1064 42.3426C28.1001 42.3181 28.0937 42.2937 28.0872 42.2686C27.9513 41.7527 27.8095 41.2386 27.6452 40.7311C27.4749 40.1999 27.3897 39.7125 27.3778 39.1549C27.3669 38.6616 27.3558 38.1607 27.1613 37.6988C27.0595 37.6309 27.0338 37.6261 26.9174 37.6282C26.8921 37.6284 26.8667 37.6287 26.8406 37.6289C26.7722 37.6303 26.7722 37.6303 26.7097 37.6665ZM54.1613 42.2472C54.1357 42.3179 54.1118 42.3893 54.0888 42.4609C54.0223 42.6558 53.9423 42.8026 53.8065 42.9569C53.6393 43.1481 53.4969 43.3363 53.3771 43.5597C53.2371 43.8196 53.0694 44.0496 52.8875 44.2815C52.8398 44.3427 52.793 44.4045 52.7465 44.4666C52.5701 44.6999 52.3844 44.8952 52.1613 45.0859C52.0589 45.1826 51.9609 45.2787 51.8749 45.3906C51.804 45.476 51.731 45.5385 51.6432 45.6061C51.5074 45.7085 51.5074 45.7085 51.3871 45.8278C51.3871 45.8491 51.3871 45.8704 51.3871 45.8923C51.3684 45.9007 51.3497 45.909 51.3304 45.9177C51.2524 45.9599 51.1977 46.007 51.1335 46.0681C51.0985 46.1012 51.0985 46.1012 51.0629 46.135C51.0388 46.158 51.0148 46.1811 50.99 46.2048C50.9663 46.2273 50.9426 46.2497 50.9182 46.2728C50.8068 46.3787 50.6968 46.4855 50.5889 46.5948C50.5069 46.6773 50.4227 46.7524 50.3307 46.8238C50.2473 46.8889 50.1647 46.954 50.0845 47.023C49.7979 47.2687 49.48 47.4654 49.1613 47.6665C49.1368 47.6821 49.1122 47.6976 49.0869 47.7137C48.9582 47.795 48.8291 47.8754 48.6995 47.9552C48.6498 47.9863 48.6008 48.0185 48.5518 48.0509C48.3869 48.1578 48.2342 48.2347 48.0323 48.2149C47.9355 48.1504 47.9355 48.1504 47.912 48.0893C47.8767 47.8141 48.0743 47.4794 48.2257 47.2616C48.4732 46.9595 48.7889 46.7287 49.1088 46.5094C49.1872 46.4551 49.2639 46.3985 49.3408 46.3419C49.4339 46.2737 49.5276 46.2068 49.6234 46.1423C49.7979 46.0247 49.9594 45.9097 50.1035 45.7549C50.1747 45.6858 50.2517 45.6311 50.3327 45.5738C50.5952 45.3879 50.8624 45.1694 51.0585 44.9125C51.118 44.8411 51.1736 44.7877 51.244 44.7282C51.3981 44.5947 51.5406 44.451 51.6835 44.3057C51.827 44.1598 51.9674 44.0183 52.1291 43.8923C52.155 43.8604 52.181 43.8285 52.2077 43.7956C52.2904 43.6988 52.2904 43.6988 52.3912 43.6323C52.509 43.5529 52.5624 43.4773 52.5988 43.3403C52.6451 43.0354 52.6509 42.6681 52.5484 42.3762C52.4939 42.3042 52.4939 42.3042 52.4194 42.2794C52.3525 42.2746 52.3525 42.2746 52.2904 42.3117C52.2724 42.3343 52.2544 42.3569 52.2359 42.3803C52.1314 42.5102 52.004 42.5992 51.871 42.6988C51.6499 42.8661 51.4319 43.033 51.2267 43.22C51.1657 43.2755 51.1033 43.3289 51.0404 43.3823C50.9201 43.4868 50.8093 43.5994 50.6976 43.7129C50.5521 43.8605 50.4033 43.9949 50.2388 44.1216C50.0993 44.2316 49.9701 44.3534 49.8388 44.473C49.7534 44.5491 49.6673 44.6241 49.5807 44.6988C49.5334 44.7397 49.5334 44.7397 49.4851 44.7815C49.2551 44.9789 49.0191 45.165 48.7742 45.344C48.7455 45.3655 48.7167 45.387 48.687 45.4091C48.471 45.5692 48.2477 45.7155 48.0205 45.859C47.947 45.9055 47.8737 45.9524 47.8005 45.9992C47.7718 46.0173 47.7432 46.0355 47.7136 46.0541C47.6365 46.1032 47.5597 46.1526 47.483 46.2023C47.1873 46.393 46.8869 46.5738 46.5807 46.7472C46.5311 46.7756 46.5311 46.7756 46.4804 46.8046C46.2717 46.9215 46.065 47.0093 45.8388 47.0859C45.7693 47.1112 45.6999 47.1366 45.6306 47.1623C45.5771 47.182 45.5771 47.182 45.5225 47.2021C45.0004 47.395 45.0004 47.395 44.4839 47.602C44.4522 47.615 44.4522 47.615 44.4199 47.6283C43.9708 47.8133 43.6051 48.0475 43.2404 48.3677C43.1996 48.4032 43.1581 48.4379 43.1165 48.4724C42.858 48.688 42.6969 48.9567 42.5255 49.2437C42.4928 49.2972 42.459 49.3501 42.4249 49.4027C42.2627 49.6563 42.1423 49.9116 42.0323 50.1928C41.9137 50.4894 41.7883 50.7783 41.641 51.0619C41.4534 51.4316 41.3403 51.8144 41.242 52.2149C41.1542 52.5725 41.0474 52.9082 40.9033 53.2472C40.6893 53.7668 40.6068 54.3048 40.5175 54.8572C40.5072 54.921 40.4967 54.9848 40.4861 55.0486C40.4729 55.1293 40.46 55.2101 40.4476 55.2909C40.4129 55.5035 40.3723 55.6761 40.2581 55.8601C40.1938 55.9034 40.1293 55.9465 40.0646 55.9891C40.0484 56.0753 40.0484 56.0753 40.0646 56.1504C40.225 56.2017 40.3743 56.2271 40.5429 56.2345C40.5667 56.2357 40.5906 56.2369 40.6152 56.2381C40.828 56.2483 41.0408 56.2519 41.2538 56.2549C42.8574 56.2776 44.4727 56.3531 46.0653 56.5448C46.4362 56.5889 46.8045 56.6071 47.178 56.6074C47.2215 56.6075 47.2651 56.6077 47.3086 56.6078C47.399 56.608 47.4895 56.608 47.5799 56.608C47.695 56.608 47.8102 56.6084 47.9253 56.609C48.0149 56.6094 48.1045 56.6094 48.1941 56.6094C48.257 56.6095 48.3198 56.6098 48.3827 56.6102C48.7617 56.6174 48.7617 56.6175 49.0928 56.4609C49.3285 56.1215 49.3058 55.5732 49.3461 55.1752C49.4331 54.326 49.4331 54.326 49.6371 53.9427C49.8628 53.5154 49.9955 53.0316 50.1194 52.5661C50.2025 52.2927 50.3612 52.0446 50.5081 51.8016C50.5334 51.7597 50.5334 51.7597 50.5592 51.7169C50.7582 51.3899 50.9652 51.0773 51.2259 50.7956C51.2462 50.7727 51.2664 50.7499 51.2873 50.7264C51.4442 50.5499 51.6048 50.3772 51.7662 50.2048C51.7868 50.1828 51.8073 50.1609 51.8286 50.1382C51.9159 50.0452 52.0033 49.9532 52.0953 49.8648C52.1688 49.8037 52.1688 49.8037 52.1613 49.7311C52.1793 49.7244 52.1973 49.7178 52.2158 49.7109C52.2977 49.6622 52.3473 49.604 52.4052 49.5288C52.4697 49.4514 52.5411 49.3824 52.613 49.3117C53.0799 48.8554 53.0799 48.8554 53.4839 48.344C53.4839 48.3227 53.4839 48.3014 53.4839 48.2794C53.5017 48.2727 53.5194 48.2661 53.5377 48.2592C53.6408 48.1986 53.7091 48.1143 53.7843 48.0234C53.8001 48.0046 53.8158 47.9859 53.832 47.9665C53.9461 47.8279 54.0421 47.6831 54.1353 47.5296C54.2255 47.3922 54.3322 47.2696 54.4387 47.1449C54.5224 47.0463 54.602 46.9453 54.6806 46.8426C54.728 46.7814 54.7759 46.721 54.8245 46.6609C55.1896 46.2079 55.1896 46.2079 55.4577 45.6948C55.5121 45.5601 55.5868 45.5185 55.7097 45.4407C55.9508 45.1346 56.0539 44.7501 56.0468 44.3642C56.0227 44.2231 55.9532 44.1081 55.8388 44.0214C55.7467 44.0078 55.696 44.0118 55.6132 44.0546C55.4781 44.16 55.3631 44.2705 55.2533 44.4021C55.1867 44.4812 55.1167 44.5564 55.0464 44.6323C54.819 44.8631 54.819 44.8631 54.7097 45.1504C54.6618 45.1664 54.6618 45.1664 54.613 45.1827C54.5607 45.2402 54.5607 45.2402 54.5101 45.3117C54.4295 45.419 54.3463 45.5208 54.2561 45.6202C54.1583 45.7284 54.0701 45.8401 53.9839 45.9576C53.8773 46.0982 53.7598 46.2295 53.635 46.354C53.5352 46.454 53.4388 46.5569 53.3428 46.6605C53.3254 46.6791 53.308 46.6978 53.2901 46.717C53.1975 46.8168 53.1064 46.9177 53.0171 47.0205C52.6218 47.4744 52.2069 47.9418 51.7276 48.3079C51.6241 48.3937 51.5314 48.4878 51.4375 48.5839C51.2344 48.7915 51.0195 48.9749 50.7866 49.149C50.7087 49.2158 50.6622 49.277 50.6089 49.3641C50.5484 49.4625 50.5179 49.5041 50.4194 49.5698C50.202 49.5932 49.9766 49.5625 49.7601 49.5395C49.7174 49.5353 49.7174 49.5353 49.6738 49.531C49.5613 49.5195 49.4626 49.5089 49.3549 49.473C49.3043 49.3717 49.3113 49.2943 49.3226 49.1827C49.4112 49.0574 49.5068 49.0091 49.6432 48.9428C49.8849 48.8173 50.0545 48.6215 50.2405 48.4271C50.3202 48.3457 50.406 48.2725 50.4929 48.1989C50.5718 48.13 50.6441 48.055 50.7175 47.9803C50.7735 47.9253 50.8314 47.8746 50.8912 47.8238C51.0342 47.7008 51.1652 47.5669 51.2976 47.4328C51.3884 47.3413 51.4794 47.253 51.5787 47.1706C51.7911 46.9901 51.9735 46.7751 52.1613 46.5698C52.1773 46.5524 52.1932 46.5351 52.2096 46.5172C52.3016 46.4169 52.393 46.3161 52.4839 46.2149C52.5152 46.1802 52.5152 46.1802 52.5471 46.1449C52.6387 46.0418 52.7243 45.9381 52.8045 45.8258C52.8712 45.7349 52.9401 45.6626 53.0263 45.5899C53.4502 45.2317 53.7755 44.749 54.0646 44.2794C54.1013 44.2219 54.1382 44.1645 54.1753 44.1072C54.213 44.0488 54.2505 43.9903 54.288 43.9318C54.3265 43.872 54.3652 43.8123 54.4047 43.7531C54.5921 43.4676 54.6658 43.2117 54.6573 42.8702C54.6573 42.8381 54.6572 42.8061 54.6572 42.7731C54.6548 42.5754 54.6459 42.3918 54.5444 42.2169C54.422 42.1476 54.2626 42.1459 54.1613 42.2472ZM56.1875 43.7573C56.1545 43.7621 56.1214 43.767 56.0874 43.772C55.9961 43.7966 55.9613 43.8196 55.9033 43.8923C55.9764 44.002 56.01 44.0101 56.1291 44.0536C56.161 44.0749 56.193 44.0962 56.2259 44.1182C56.3945 44.1119 56.4962 44.0805 56.613 43.9569C56.6471 43.8751 56.6471 43.8751 56.6452 43.7956C56.5854 43.7216 56.5854 43.7216 56.4924 43.7254C56.3892 43.7309 56.2896 43.7414 56.1875 43.7573ZM27.0323 44.5053C27.0196 44.5304 27.0069 44.5556 26.9939 44.5816C26.9261 44.6802 26.8883 44.6986 26.7763 44.7351C26.7442 44.7457 26.7122 44.7562 26.6792 44.7671C26.5896 44.793 26.5002 44.8151 26.4093 44.8359C25.9776 44.9397 25.5537 45.1033 25.1608 45.3095C25.0179 45.3844 24.8731 45.451 24.7252 45.5152C24.2219 45.7337 23.799 46.0147 23.3952 46.3883C23.2698 46.503 23.1392 46.602 23 46.6988C22.8323 46.8155 22.6795 46.9397 22.5297 47.0792C22.4483 47.1535 22.3641 47.2226 22.2783 47.2915C21.8758 47.618 21.4939 47.9785 21.1613 48.3762C21.1401 48.401 21.1188 48.4259 21.0969 48.4514C20.9643 48.6106 20.8574 48.77 20.762 48.9537C20.712 49.0492 20.6595 49.1427 20.606 49.2362C20.4099 49.5795 20.2324 49.9294 20.0682 50.289C20.0516 50.3253 20.0351 50.3616 20.018 50.399C19.9856 50.4702 19.9534 50.5415 19.9214 50.6129C19.8384 50.796 19.749 50.9691 19.6452 51.1413C19.4962 51.3927 19.4103 51.6593 19.3226 51.9367C19.2152 52.275 19.0957 52.5916 18.9297 52.906C18.7079 53.3298 18.6593 53.7748 18.612 54.2443C18.533 55.0244 18.4018 55.791 18.1659 56.5403C18.0489 56.928 18.0113 57.3311 17.9819 57.7331C17.9799 57.7587 17.978 57.7843 17.9759 57.8106C17.9362 58.3292 17.9133 58.8485 17.8947 59.3683C17.884 59.6607 17.8697 59.952 17.8465 60.2437C17.8049 60.7697 17.7937 61.2937 17.7943 61.821C17.7944 61.8936 17.7944 61.9662 17.7944 62.0387C17.7946 62.745 17.8167 63.4478 17.865 64.1524C17.8676 64.1919 17.8703 64.2314 17.873 64.2721C17.9335 65.1425 18.052 65.9261 18.3708 66.7395C18.4641 66.984 18.5328 67.2311 18.5954 67.4848C18.6995 67.9059 18.8363 68.2658 19.0646 68.6343C19.0822 68.6631 19.0997 68.6918 19.1179 68.7215C19.1479 68.7704 19.1781 68.8192 19.2086 68.8679C19.2502 68.9426 19.2859 69.0163 19.3207 69.0942C19.4766 69.4426 19.6563 69.7311 19.8928 70.03C19.9519 70.1074 20.0035 70.1885 20.0545 70.2714C20.2766 70.6293 20.5469 70.9442 20.8248 71.2591C20.8827 71.325 20.9392 71.392 20.996 71.4589C21.0794 71.5544 21.1691 71.6357 21.2686 71.7143C21.3226 71.7633 21.3226 71.7633 21.3812 71.8397C21.4618 71.9368 21.5526 72.0093 21.6533 72.0839C21.672 72.098 21.6907 72.1121 21.71 72.1266C21.7635 72.167 21.8173 72.2071 21.871 72.2472C21.8949 72.2653 21.9188 72.2834 21.9433 72.302C22.005 72.3487 22.0669 72.3948 22.1291 72.4407C22.1558 72.4605 22.1825 72.4803 22.21 72.5007C22.3635 72.6135 22.5185 72.7228 22.6775 72.8278C22.8839 72.9642 23.0907 73.1039 23.2821 73.2611C23.4496 73.3953 23.617 73.4706 23.8186 73.5415C23.876 73.5624 23.9334 73.5834 23.9907 73.6043C24.0189 73.6145 24.047 73.6248 24.076 73.6353C24.4915 73.7873 24.4915 73.7873 24.6573 73.9266C24.8402 74.0645 25.0015 74.1148 25.2259 74.1504C25.2624 74.1566 25.299 74.1627 25.3367 74.1691C26.6784 74.3647 28.4804 74.4629 29.7149 73.8232C29.85 73.7557 29.9893 73.7023 30.1311 73.6504C30.1572 73.6409 30.1833 73.6313 30.2103 73.6214C30.3394 73.575 30.4688 73.5317 30.6006 73.4935C31.175 73.3232 31.6971 73.0379 32.2271 72.7634C32.3159 72.718 32.4054 72.6743 32.495 72.6308C32.5608 72.5953 32.6052 72.5542 32.6533 72.4972C32.7462 72.3979 32.8434 72.3268 32.9577 72.2532C33.1678 72.1175 33.3672 71.9684 33.5484 71.7956C33.5484 71.7743 33.5484 71.753 33.5484 71.7311C33.5666 71.7235 33.5847 71.716 33.6034 71.7083C33.6958 71.6562 33.7572 71.5917 33.8307 71.5153C33.9489 71.3945 34.0697 71.281 34.198 71.1712C34.2583 71.118 34.3147 71.0626 34.371 71.0053C34.5184 70.8555 34.6764 70.7188 34.8408 70.5879C34.9355 70.5052 35.0141 70.4189 35.0953 70.3233C35.1587 70.2502 35.2243 70.1795 35.2906 70.109C35.5692 69.8112 35.7895 69.4854 36.0049 69.14C36.1297 68.9404 36.2595 68.7447 36.3912 68.5496C36.5458 68.3203 36.6908 68.0879 36.8277 67.8475C36.896 67.7289 36.9666 67.6234 37.0565 67.5194C37.3099 67.2067 37.3877 66.7511 37.494 66.3724C37.5511 66.1736 37.6172 65.9854 37.7037 65.7976C37.9484 65.2648 37.9437 64.6635 37.9505 64.0855C37.9526 63.9159 37.9557 63.7464 37.9588 63.5768C37.9595 63.5417 37.9601 63.5067 37.9608 63.4705C37.9683 63.0894 37.9825 62.7087 37.998 62.3278C37.9993 62.2975 38.0005 62.2671 38.0017 62.2358C38.0148 61.9106 38.0294 61.5855 38.0476 61.2605C38.0952 60.395 38.1159 59.5298 38.1312 58.6632C38.1345 58.4772 38.138 58.2911 38.1416 58.105C38.1484 57.7438 38.1549 57.3826 38.1613 57.0214C38.034 56.932 37.9449 56.9118 37.7902 56.9087C37.7483 56.9076 37.7063 56.9066 37.6631 56.9055C37.6173 56.9047 37.5715 56.904 37.5258 56.9033C37.478 56.9022 37.4303 56.9011 37.3825 56.8998C37.2564 56.8968 37.1303 56.8942 37.0042 56.8918C36.7808 56.8875 36.5575 56.8825 36.3342 56.8771C36.298 56.8762 36.298 56.8762 36.2611 56.8754C35.9468 56.8676 35.6336 56.8545 35.3201 56.8296C35.2889 56.8271 35.2577 56.8247 35.2256 56.8221C34.6069 56.7679 34.0094 56.5998 33.4305 56.3799C33.1627 56.2907 32.904 56.267 32.623 56.2512C31.8549 56.2004 31.157 56.0198 30.4358 55.7614C30.3085 55.716 30.1807 55.6731 30.0522 55.6311C29.7014 55.5155 29.3706 55.3946 29.0483 55.2135C28.7049 55.0238 28.3359 54.8865 27.9724 54.7406C27.8593 54.694 27.7482 54.6438 27.6377 54.5912C27.555 54.5601 27.4998 54.5679 27.4194 54.602C27.2233 54.7982 27.2818 55.301 27.281 55.5683C27.281 55.6254 27.2811 55.6824 27.2811 55.7395C27.2809 55.8008 27.2807 55.8621 27.2804 55.9234C27.28 56.0547 27.2797 56.1859 27.2795 56.3172C27.2793 56.5256 27.2786 56.734 27.2779 56.9424C27.2763 57.3854 27.2752 57.8284 27.2742 58.2714C27.2732 58.7485 27.272 59.2257 27.2702 59.7028C27.2696 59.8756 27.2691 60.0484 27.2689 60.2212C27.2656 63.2752 27.2656 63.2752 26.5226 64.4057C26.44 64.5493 26.3829 64.7061 26.3226 64.8601C26.2452 64.8483 26.2049 64.842 26.155 64.7796C26.0048 64.4658 25.9904 64.1588 25.9941 63.815C25.9944 63.773 25.9946 63.7311 25.9948 63.6878C25.9981 63.2195 26.0119 62.7513 26.0258 62.2831C26.0336 62.0179 26.0408 61.7527 26.0479 61.4875C26.0487 61.4608 26.0494 61.4342 26.0501 61.4067C26.0955 59.7761 26.0955 59.7761 26.0803 58.1453C26.0622 57.5051 26.0597 56.8649 26.0588 56.2244C26.0586 56.1035 26.0583 55.9825 26.0579 55.8616C26.0573 55.7174 26.0571 55.5732 26.0572 55.429C26.0571 55.3755 26.057 55.322 26.0568 55.2686C26.0534 54.4981 26.1466 53.7072 26.5162 53.0214C26.5658 52.9225 26.6151 52.8235 26.6639 52.7243C26.8073 52.4528 26.8073 52.4528 26.9037 52.4158C26.9658 52.4165 26.9658 52.4165 27.0646 52.4407C27.0646 52.4727 27.0646 52.5046 27.0646 52.5375C27.0007 52.5694 27.0007 52.5694 26.9355 52.602C27.1153 52.7219 27.3328 52.707 27.543 52.7161C27.5737 52.7174 27.6043 52.7188 27.6359 52.7203C27.7008 52.7232 27.7656 52.726 27.8305 52.7288C27.9279 52.733 28.0253 52.7375 28.1227 52.742C28.4907 52.7584 28.8575 52.7675 29.2259 52.7633C29.2757 52.6636 29.2502 52.5646 29.238 52.4569C29.2351 52.4315 29.2322 52.4061 29.2293 52.38C29.1928 52.0809 29.1324 51.7865 29.0739 51.4911C29.0179 51.2085 28.9684 50.9249 28.9207 50.6408C28.9083 50.5673 28.8957 50.4938 28.8831 50.4204C28.8096 49.9934 28.7387 49.5691 28.7097 49.1363C28.6704 48.5691 28.561 48.0229 28.3226 47.5053C28.2136 47.2684 28.1198 47.0268 28.0263 46.7835C27.9218 46.5134 27.8133 46.2471 27.6855 45.9871C27.5057 45.6203 27.3652 45.2409 27.2541 44.848C27.2081 44.691 27.1633 44.6035 27.0323 44.5053ZM56.9355 44.9891C56.8181 45.1564 56.7336 45.3321 56.6492 45.5173C56.5639 45.7038 56.4728 45.8689 56.3493 46.0335C56.276 46.1388 56.2164 46.2493 56.1553 46.3621C55.899 46.83 55.5759 47.2673 55.2138 47.6585C55.0828 47.8016 54.9728 47.9535 54.8624 48.1124C54.7593 48.2592 54.6455 48.3903 54.5232 48.5216C54.4179 48.64 54.3255 48.7671 54.2314 48.8945C54.0551 49.1326 53.8667 49.3532 53.6637 49.5685C53.5495 49.691 53.4466 49.8184 53.3468 49.9528C53.2415 50.0944 53.1323 50.2132 52.9955 50.3248C52.911 50.3973 52.8413 50.4796 52.7693 50.5643C52.7025 50.6428 52.6337 50.7192 52.5646 50.7956C52.5399 50.823 52.5152 50.8505 52.4897 50.8787C52.4476 50.9255 52.4055 50.9722 52.3632 51.0189C52.1938 51.2085 52.038 51.4089 51.8826 51.61C51.8421 51.6622 51.8013 51.714 51.7605 51.7658C51.5795 51.9997 51.4304 52.2455 51.2904 52.5053C51.2782 52.5276 51.2661 52.55 51.2535 52.573C50.9616 53.1113 50.7148 53.6168 50.6392 54.2311C50.6312 54.2911 50.6312 54.2911 50.6231 54.3524C50.596 54.5608 50.573 54.7688 50.5586 54.9785C50.5478 55.058 50.5262 55.1226 50.496 55.1968C50.4459 55.3223 50.4459 55.3223 50.4839 55.4407C50.829 55.6133 51.2356 55.611 51.6135 55.6204C51.6417 55.6213 51.6699 55.6223 51.699 55.6232C51.7371 55.6241 51.7371 55.6241 51.7759 55.625C51.8388 55.6343 51.8388 55.6343 51.9033 55.6988C51.9486 55.9358 51.9448 56.1762 51.9456 56.4165C51.9457 56.4395 51.9458 56.4625 51.9459 56.4862C51.9461 56.9472 51.9261 57.4244 51.6775 57.8278C51.6555 57.8482 51.6336 57.8686 51.6109 57.8896C51.5124 57.9956 51.4898 58.1218 51.4517 58.2593C51.4323 58.326 51.4128 58.3927 51.3932 58.4594C51.3823 58.4969 51.3713 58.5344 51.3601 58.573C51.2945 58.7951 51.224 59.0157 51.1542 59.2364C51.1299 59.3132 51.1057 59.3899 51.0816 59.4667C51.0658 59.5166 51.0501 59.5665 51.0343 59.6164C51.0265 59.6414 51.0187 59.6664 51.0106 59.6921C50.9686 59.8248 50.9246 59.9563 50.8771 60.087C50.7379 60.4742 50.6608 60.848 50.6109 61.256C50.5346 61.8747 50.4226 62.4695 50.2568 63.0701C50.2231 63.1928 50.1898 63.3156 50.1577 63.4387C50.1425 63.496 50.1425 63.496 50.127 63.5545C50.035 63.9656 50.0242 64.3676 50.0284 64.7865C50.0294 64.8853 50.03 64.984 50.0304 65.0828C50.0317 65.3632 50.0338 65.6437 50.0361 65.9241C50.0374 66.0966 50.0384 66.2691 50.039 66.4415C50.0393 66.5069 50.0398 66.5722 50.0406 66.6375C50.0416 66.7287 50.042 66.82 50.0423 66.9113C50.0427 66.9378 50.0432 66.9644 50.0436 66.9917C50.0432 67.2791 49.9387 67.513 49.8065 67.7633C49.7879 67.8006 49.7692 67.8378 49.75 67.8762C49.7367 67.9028 49.7234 67.9294 49.7097 67.9569C49.6671 67.9569 49.6246 67.9569 49.5807 67.9569C49.0301 67.3968 49.2152 65.9469 49.2208 65.2329C49.2729 61.6888 49.2729 61.6888 49.7105 60.4056C49.7677 60.2348 49.8202 60.0625 49.873 59.8903C49.8839 59.8552 49.8948 59.82 49.9061 59.7837C49.9573 59.6174 50.0067 59.451 50.0515 59.2828C50.1387 58.9558 50.233 58.6934 50.4194 58.4085C50.5916 58.1121 50.6876 57.8151 50.613 57.473C50.5917 57.4517 50.5704 57.4304 50.5484 57.4085C50.4699 57.4081 50.4699 57.4081 50.3791 57.4222C50.3441 57.4266 50.3091 57.4311 50.273 57.4356C50.2361 57.4406 50.1993 57.4457 50.1613 57.4508C49.6107 57.5241 49.0632 57.5424 48.5083 57.5422C48.4486 57.5423 48.389 57.5424 48.3293 57.5425C48.169 57.5428 48.0087 57.5429 47.8484 57.5429C47.7478 57.5429 47.6472 57.543 47.5466 57.5431C47.1944 57.5434 46.8423 57.5435 46.4901 57.5435C46.1638 57.5435 45.8375 57.5438 45.5112 57.5443C45.2293 57.5447 44.9474 57.5449 44.6655 57.5449C44.4979 57.5449 44.3303 57.545 44.1627 57.5453C44.0049 57.5456 43.8471 57.5456 43.6894 57.5454C43.6321 57.5454 43.5748 57.5454 43.5175 57.5456C42.9762 57.5474 42.4326 57.5158 41.9013 57.4065C41.8685 57.3999 41.8357 57.3932 41.8019 57.3864C41.4559 57.3125 41.1225 57.202 40.7877 57.0887C40.592 57.0231 40.3945 56.9718 40.1936 56.9246C40.1506 56.9139 40.1076 56.9032 40.0646 56.8923C40.028 57.002 40.0183 57.1012 40.0066 57.2163C40.0017 57.2636 39.9967 57.3109 39.9918 57.3582C39.9892 57.3831 39.9866 57.4081 39.9839 57.4338C39.9394 57.8604 39.8876 58.2851 39.8206 58.7089C39.8142 58.7495 39.8079 58.7901 39.8013 58.832C39.7693 59.03 39.7335 59.2265 39.6927 59.423C39.6427 59.6696 39.6086 59.9166 39.5807 60.1665C39.578 60.1902 39.5754 60.2139 39.5726 60.2383C39.4621 61.2371 39.4106 62.2363 39.4093 63.2411C39.4092 63.2774 39.4091 63.3137 39.409 63.351C39.4077 64.0853 39.4437 64.8093 39.5928 65.5294C39.6023 65.5771 39.6118 65.6248 39.6213 65.6725C39.626 65.6963 39.6307 65.72 39.6356 65.7446C39.6452 65.7932 39.6549 65.8419 39.6645 65.8906C39.6718 65.9274 39.6718 65.9274 39.6793 65.965C39.6842 65.99 39.6891 66.015 39.6942 66.0407C39.7047 66.093 39.7154 66.1453 39.7262 66.1975C39.8441 66.7678 39.8861 67.3391 39.9261 67.9194C39.9739 68.6027 40.0587 69.2598 40.2884 69.9085C40.2994 69.9406 40.3104 69.9727 40.3217 70.0057C40.3977 70.2249 40.4804 70.4406 40.5692 70.6548C40.6134 70.7645 40.6517 70.8751 40.6896 70.9871C40.8586 71.466 41.1102 71.9119 41.4299 72.3063C41.4839 72.3762 41.4839 72.3762 41.5425 72.4657C41.6758 72.6626 41.8312 72.8429 41.9827 73.0259C42.0233 73.075 42.0634 73.1244 42.1035 73.1739C42.2558 73.3554 42.4308 73.4916 42.6238 73.6282C42.6799 73.6683 42.7351 73.7094 42.7902 73.7508C42.8286 73.7792 42.8669 73.8076 42.9053 73.8359C42.9223 73.8488 42.9394 73.8617 42.957 73.875C43.2716 74.1037 43.6272 74.1944 44 74.2794C44.2757 74.3423 44.5354 74.4075 44.7913 74.5321C45.5232 74.8781 46.3803 74.8685 47.1714 74.8702C47.2024 74.8703 47.2334 74.8704 47.2653 74.8705C47.8476 74.8717 48.4371 74.8532 49.0061 74.719C49.0353 74.7126 49.0645 74.7063 49.0946 74.6998C49.274 74.6594 49.4443 74.6055 49.616 74.5399C49.6469 74.5285 49.6779 74.517 49.7097 74.5053C49.7412 74.4934 49.7412 74.4934 49.7733 74.4813C49.9606 74.4143 50.1422 74.3828 50.3394 74.3601C50.3868 74.3542 50.3868 74.3542 50.4352 74.3482C50.5354 74.3357 50.6357 74.3237 50.7359 74.3117C51.6119 74.2066 51.6119 74.2066 52.4194 73.8641C52.5822 73.7725 52.7494 73.7108 52.9255 73.6504C52.9673 73.636 52.9673 73.636 53.0099 73.6214C53.1168 73.5849 53.2236 73.5487 53.331 73.5139C53.627 73.4176 53.8562 73.3023 54.0959 73.1027C54.1879 73.0262 54.2818 72.9558 54.3791 72.8863C54.4356 72.8453 54.492 72.8043 54.5484 72.7633C54.5714 72.7467 54.5943 72.7301 54.618 72.713C54.7732 72.5969 54.9156 72.4691 55.057 72.3369C55.078 72.3173 55.0991 72.2976 55.1207 72.2774C55.3474 72.0643 55.5681 71.8453 55.7878 71.625C55.8556 71.5569 55.9237 71.4891 55.9917 71.4212C56.0358 71.3771 56.08 71.3329 56.124 71.2888C56.1439 71.2689 56.1638 71.2491 56.1843 71.2287C56.3048 71.1075 56.4193 70.9825 56.5308 70.8531C56.5759 70.8011 56.6219 70.7505 56.669 70.7004C56.9615 70.3894 57.2194 70.0736 57.4226 69.697C57.4863 69.5816 57.5541 69.4912 57.6472 69.3984C57.8602 69.1725 57.9542 68.854 58.0424 68.5615C58.1313 68.2683 58.2453 68.0139 58.3972 67.7472C58.5714 67.4409 58.6946 67.136 58.8029 66.8012C58.8686 66.5999 58.941 66.412 59.0404 66.225C59.1992 65.9235 59.2962 65.6177 59.3758 65.2876C59.3853 65.2482 59.3949 65.2088 59.4047 65.1682C59.4234 65.0898 59.4417 65.0113 59.4594 64.9326C59.5125 64.7072 59.583 64.5126 59.6942 64.3091C59.799 64.1024 59.8563 63.8991 59.8942 63.6712C59.8988 63.6446 59.9035 63.6181 59.9083 63.5907C59.923 63.5065 59.9373 63.4222 59.9517 63.3379C60.1275 62.3132 60.1275 62.3132 60.1936 62.2472C60.4512 62.2569 60.6748 62.3588 60.9033 62.473C60.9059 62.5624 60.9078 62.6517 60.9093 62.7411C60.9105 62.7782 60.9105 62.7782 60.9118 62.816C60.914 62.9926 60.8825 63.1384 60.8325 63.307C60.7849 63.4928 60.7656 63.6836 60.7414 63.8735C60.6584 64.5151 60.5476 65.1293 60.2775 65.7216C60.1675 65.9647 60.0821 66.2139 59.998 66.4669C59.9062 66.7425 59.8097 67.0057 59.6721 67.2616C59.588 67.4195 59.5242 67.581 59.4638 67.7492C59.4544 67.7752 59.4451 67.8011 59.4355 67.8279C59.4172 67.879 59.399 67.9301 59.3808 67.9813C59.2599 68.3192 59.116 68.6338 58.9447 68.9485C58.8852 69.0583 58.8295 69.1695 58.7751 69.2819C58.5968 69.6496 58.3935 70.0609 58.0928 70.344C57.9891 70.4545 57.964 70.5565 57.9597 70.7048C57.9543 70.8285 57.9543 70.8285 58.0323 70.8923C58.0996 70.9016 58.0996 70.9016 58.1786 70.8991C58.2098 70.899 58.241 70.8989 58.2732 70.8987C58.3252 70.898 58.3252 70.898 58.3783 70.8973C58.4151 70.897 58.4519 70.8967 58.4897 70.8964C58.5941 70.8956 58.6984 70.8944 58.8028 70.8932C58.8972 70.892 58.9916 70.8912 59.0861 70.8903C59.373 70.8876 59.6598 70.8841 59.9467 70.8803C60.083 70.8785 60.2194 70.8769 60.3557 70.8754C60.4625 70.8741 60.5694 70.8727 60.6762 70.8713C60.7265 70.8706 60.7767 70.87 60.827 70.8695C61.2986 70.8939 61.2986 70.8939 61.742 70.7956C61.7053 70.7023 61.6796 70.668 61.5946 70.611C61.5162 70.5375 61.5162 70.5375 61.5007 70.4383C61.5306 70.0695 61.6328 69.7389 61.7894 69.4037C61.8493 69.2639 61.8772 69.1213 61.9044 68.9722C61.9126 68.928 61.9126 68.928 61.921 68.8829C61.9754 68.579 62.0075 68.2736 62.0372 67.9665C62.0968 67.3551 62.1783 66.7561 62.3105 66.1556C62.424 65.6399 62.4874 65.1249 62.5404 64.6C62.5438 64.566 62.5473 64.5319 62.5508 64.4968C62.5608 64.3971 62.5706 64.2974 62.5802 64.1977C62.583 64.1686 62.5859 64.1395 62.5888 64.1095C62.6319 63.6504 62.6516 63.1898 62.6631 62.7289C62.6638 62.7023 62.6645 62.6757 62.6652 62.6483C62.6868 61.7648 62.6824 60.8808 62.6816 59.997C62.6815 59.9024 62.6814 59.8078 62.6814 59.7132C62.6805 58.0591 62.6805 58.0591 62.6681 56.405C62.6674 56.3351 62.6668 56.2652 62.6663 56.1953C62.661 55.5174 62.6166 54.8567 62.4537 54.1968C62.446 54.1639 62.4383 54.131 62.4303 54.0972C62.3887 53.9228 62.3418 53.7512 62.2901 53.5796C62.2078 53.2952 62.165 53.006 62.1201 52.7139C62.0317 52.145 61.8783 51.6465 61.619 51.1323C61.597 51.0879 61.5751 51.0434 61.5532 50.999C61.4987 50.8888 61.4437 50.7789 61.3886 50.6691C61.3537 50.5996 61.3189 50.5299 61.2841 50.4603C61.2611 50.4142 61.2381 50.3681 61.2151 50.322C61.1994 50.2904 61.1994 50.2904 61.1833 50.2582C61.0443 49.9802 60.8967 49.7171 60.7218 49.4601C60.5823 49.2533 60.4526 49.0407 60.3226 48.8278C60.1357 48.522 59.9452 48.2199 59.742 47.9246C59.7224 47.8959 59.7027 47.8671 59.6825 47.8375C59.5361 47.6256 59.3815 47.4201 59.2259 47.2149C59.1984 47.1783 59.171 47.1417 59.1436 47.105C58.9995 46.9138 58.8532 46.7333 58.6775 46.5698C58.5162 46.4085 58.5162 46.4085 58.4674 46.3574C58.338 46.2238 58.2003 46.1071 58.0539 45.9924C57.9655 45.9228 57.8789 45.8513 57.7924 45.7794C57.6758 45.6829 57.557 45.5958 57.4315 45.5113C57.255 45.3863 57.1441 45.2403 57.022 45.0647C56.9952 45.0273 56.9952 45.0273 56.9678 44.9891C56.9571 44.9891 56.9465 44.9891 56.9355 44.9891ZM38.5162 48.3117C38.5205 48.3521 38.5248 48.3926 38.5293 48.4342C38.5702 48.8301 38.5931 49.2241 38.6058 49.6218C38.6256 50.2321 38.6608 50.8402 38.7097 51.4488C38.7124 51.4825 38.7151 51.5162 38.7179 51.551C38.7406 51.8316 38.7635 52.1123 38.7921 52.3924C38.8316 52.7809 38.8504 53.1654 38.8559 53.5558C38.8407 54.1103 38.8407 54.1103 38.9678 54.6343C39.0298 54.633 39.0298 54.633 39.0968 54.602C39.2019 54.4393 39.2105 54.2936 39.2158 54.1061C39.2169 54.0792 39.218 54.0524 39.2191 54.0248C39.2218 53.9591 39.2239 53.8935 39.2259 53.8278C39.2578 53.8385 39.2897 53.8491 39.3226 53.8601C39.3603 53.9479 39.3603 53.9479 39.3932 54.0557C39.4043 54.0913 39.4154 54.1269 39.4268 54.1636C39.435 54.1912 39.4432 54.2188 39.4517 54.2472C39.5744 54.2602 39.5744 54.2602 39.6322 54.208C39.6556 54.1805 39.6556 54.1805 39.6795 54.1524C39.6952 54.1348 39.7108 54.1172 39.727 54.0991C39.8517 53.8939 39.8919 53.6499 39.9324 53.4163C39.9377 53.3871 39.943 53.3578 39.9484 53.3277C39.9651 53.235 39.9816 53.1423 39.998 53.0496C40.0956 52.4988 40.2043 51.9711 40.4113 51.4488C40.4324 51.3949 40.4324 51.3949 40.4538 51.34C40.5683 51.0485 40.6883 50.7596 40.8118 50.4719C40.8503 50.3814 40.8867 50.29 40.9234 50.1988C40.986 50.0484 41.0595 49.9077 41.1392 49.7658C41.2066 49.6428 41.2699 49.5179 41.3327 49.3923C41.344 49.3699 41.3553 49.3475 41.3669 49.3244C41.4511 49.1556 41.489 49.0257 41.5021 48.8379C41.5048 48.7999 41.5075 48.7618 41.5103 48.7226C41.5122 48.6935 41.5142 48.6643 41.5162 48.6343C41.612 48.6183 41.612 48.6183 41.7097 48.602C41.7288 48.5392 41.7288 48.5392 41.742 48.473C41.7078 48.4315 41.7078 48.4315 41.629 48.4376C41.5964 48.438 41.5638 48.4383 41.5303 48.4387C41.4813 48.4392 41.4813 48.4392 41.4314 48.4396C41.4061 48.44 41.3809 48.4403 41.3549 48.4407C41.3549 48.494 41.3549 48.5472 41.3549 48.602C40.7625 48.6903 40.1818 48.5097 39.6103 48.3692C39.3344 48.3017 39.066 48.2438 38.7803 48.2411C38.746 48.2405 38.746 48.2405 38.7111 48.2398C38.6346 48.2484 38.5838 48.2761 38.5162 48.3117ZM38.2259 66.7311C38.1713 66.939 38.1227 67.1468 38.0827 67.3581C37.9133 68.2017 37.4117 68.9983 36.8448 69.6423C36.7166 69.8035 36.6527 69.977 36.6452 70.1827C36.674 70.2913 36.674 70.2913 36.742 70.3762C36.9302 70.4697 37.1383 70.4482 37.343 70.4459C37.4025 70.4456 37.4025 70.4456 37.4631 70.4454C37.5897 70.4448 37.7162 70.4438 37.8428 70.4428C37.9687 70.4419 38.0945 70.4411 38.2204 70.4405C38.2986 70.4401 38.3768 70.4395 38.455 70.4387C38.6667 70.4375 38.8697 70.4478 39.0793 70.4786C39.1659 70.4802 39.1659 70.4802 39.2356 70.4165C39.3157 70.3103 39.311 70.2077 39.3085 70.0798C39.3082 70.0541 39.308 70.0285 39.3077 70.002C39.2992 69.7478 39.2329 69.5235 39.1518 69.2842C39.1133 69.1668 39.081 69.0478 39.0484 68.9286C39.0417 68.9044 39.035 68.8802 39.028 68.8553C38.9946 68.7345 38.9623 68.6136 38.932 68.492C38.7379 67.5468 38.7379 67.5468 38.2904 66.7311C38.2691 66.7311 38.2478 66.7311 38.2259 66.7311Z" fill="black"/>
<path d="M38.9536 4.41454C38.9861 4.42872 39.0186 4.4429 39.052 4.45751C39.0881 4.47327 39.1242 4.48903 39.1613 4.50526C39.5148 4.65455 39.8719 4.77467 40.242 4.87672C40.5201 4.95417 40.784 5.04036 41.0262 5.20083C41.1573 5.28504 41.2875 5.35995 41.4276 5.42827C41.969 5.69326 41.969 5.69326 42.1128 5.95171C42.2088 6.08967 42.3617 6.13216 42.5161 6.18268C42.5472 6.19329 42.5783 6.20389 42.6103 6.21482C43.2338 6.40015 43.9681 6.13339 44.5484 5.89236C45.0904 5.66915 45.0904 5.66915 45.3226 5.6343C45.3645 5.62764 45.4064 5.62099 45.4496 5.61414C45.8029 5.57985 46.1642 5.59791 46.5181 5.61414C46.5549 5.61562 46.5549 5.61562 46.5925 5.61714C47.0289 5.64016 47.0289 5.64016 47.1903 5.77958C47.2166 5.81214 47.243 5.8447 47.2702 5.87825C47.3836 6.01343 47.4953 6.1259 47.6371 6.23309C47.9872 6.51359 48.0983 6.89142 48.2325 7.30339C48.2562 7.37093 48.2834 7.43486 48.3133 7.49985C48.3947 7.69998 48.3343 7.87633 48.2543 8.07016C48.2083 8.19966 48.1792 8.33384 48.1491 8.46778C48.0714 8.79894 47.9301 9.066 47.7359 9.34397C47.7141 9.37537 47.6923 9.40677 47.6699 9.43912C47.5239 9.64731 47.3766 9.84408 47.1936 10.0214C47.1661 10.0483 47.1661 10.0483 47.138 10.0758C46.8591 10.3482 46.5716 10.5964 46.2581 10.8278C46.1867 10.8829 46.1158 10.9385 46.045 10.9943C45.9844 11.0408 45.9234 11.0857 45.8613 11.1301C45.6182 11.3064 45.4841 11.4401 45.3871 11.7311C45.3821 11.7794 45.3786 11.8279 45.3761 11.8764C45.3745 11.9059 45.3728 11.9353 45.3712 11.9657C45.3695 11.9976 45.3679 12.0296 45.3662 12.0625C45.3623 12.1311 45.3585 12.1997 45.3546 12.2684C45.3487 12.3758 45.3428 12.4832 45.3372 12.5906C45.3032 13.2317 45.2663 13.8581 45.0423 14.4649C45.0281 14.5048 45.0138 14.5446 44.9991 14.5857C44.8227 15.0692 44.6084 15.5017 44.3272 15.9321C44.2751 16.0127 44.2256 16.0948 44.1754 16.1766C44.076 16.333 43.9615 16.4729 43.8424 16.6145C43.7827 16.6883 43.7316 16.7617 43.6815 16.842C43.4682 17.171 43.1659 17.4448 42.871 17.6988C42.8448 17.7214 42.8187 17.7439 42.7917 17.7671C42.6029 17.9239 42.4019 18.0522 42.1908 18.177C42.1437 18.2059 42.0973 18.236 42.0512 18.2666C41.8307 18.4123 41.6067 18.5247 41.3629 18.6262C41.3261 18.6417 41.2893 18.6571 41.2515 18.673C40.9869 18.781 40.7368 18.861 40.4516 18.8924C40.4284 18.895 40.4053 18.8977 40.3814 18.9004C40.1937 18.9209 40.009 18.9293 39.8203 18.9288C39.7913 18.9289 39.7623 18.9289 39.7324 18.929C39.6375 18.9291 39.5425 18.929 39.4476 18.9289C39.3807 18.9289 39.3139 18.929 39.247 18.929C39.1071 18.929 38.9672 18.929 38.8273 18.9288C38.6496 18.9286 38.4719 18.9287 38.2942 18.9289C38.1561 18.9291 38.018 18.929 37.8799 18.9289C37.8144 18.9289 37.749 18.9289 37.6836 18.929C37.3696 18.9293 37.0564 18.9272 36.7428 18.9102C36.708 18.9083 36.708 18.9083 36.6726 18.9064C36.4717 18.8941 36.2772 18.8637 36.0806 18.8218C36.0292 18.8111 36.0292 18.8111 35.9766 18.8001C35.1573 18.6226 34.3008 18.2935 33.619 17.8016C33.3676 17.6232 33.1166 17.5286 32.8065 17.5698C32.3193 17.6605 32.3193 17.6605 31.8921 17.8903C31.3712 18.2949 30.503 18.3031 29.871 18.3117C29.8296 18.3124 29.7882 18.313 29.7455 18.3137C28.6628 18.3295 28.6628 18.3295 28.1936 18.2472C28.163 18.2428 28.1325 18.2384 28.1011 18.2338C27.6056 18.1304 27.2036 17.4859 26.9244 17.1032C26.6576 16.6948 26.6859 16.2715 26.7758 15.8134C26.806 15.7005 26.8472 15.6074 26.9032 15.5053C26.9245 15.5053 26.9458 15.5053 26.9677 15.5053C26.9754 15.4889 26.983 15.4726 26.9909 15.4557C27.3317 14.8003 27.7522 14.3095 28.3871 13.9246C28.4281 13.8992 28.4691 13.8736 28.5101 13.848C28.5304 13.8354 28.5508 13.8227 28.5717 13.8097C28.6497 13.7605 28.7271 13.7103 28.8045 13.6601C29.0273 13.5157 29.2533 13.3789 29.4839 13.2472C29.5039 13.2354 29.5239 13.2236 29.5445 13.2114C29.829 13.0441 30.1125 12.9106 30.4317 12.8233C30.5201 12.8013 30.5201 12.8013 30.5806 12.7311C30.592 12.6453 30.5996 12.5621 30.6047 12.4759C30.6065 12.4501 30.6084 12.4243 30.6103 12.3977C30.618 12.2874 30.6252 12.1771 30.6323 12.0668C30.6857 11.2607 30.8754 10.5753 31.1801 9.82822C31.2354 9.69213 31.2875 9.5555 31.3365 9.41704C31.4323 9.14728 31.5584 8.90914 31.7097 8.66655C31.7215 8.6475 31.7332 8.62845 31.7454 8.60883C31.8834 8.38677 32.0284 8.17082 32.1838 7.96053C32.2801 7.83029 32.3749 7.69905 32.4698 7.56776C32.4972 7.52993 32.4972 7.52993 32.5251 7.49133C32.6195 7.36079 32.7121 7.22938 32.8024 7.09599C32.8826 6.98032 32.9707 6.88506 33.0726 6.7884C33.1353 6.7247 33.1881 6.65722 33.2419 6.58591C33.4187 6.35484 33.612 6.18544 33.8501 6.01799C33.963 5.93719 34.0699 5.85635 34.1653 5.75526C34.4379 5.49455 34.7568 5.32162 35.0912 5.15378C35.1379 5.13003 35.1843 5.10557 35.2303 5.08041C35.4904 4.94183 35.7675 4.85541 36.0464 4.76333C36.3355 4.66766 36.6194 4.57277 36.8951 4.44234C37.4652 4.17676 38.3799 4.15145 38.9536 4.41454ZM36.9436 5.52946C36.9152 5.53144 36.8869 5.53342 36.8578 5.53547C36.4766 5.57122 36.1416 5.71078 35.8105 5.89639C35.777 5.91486 35.7436 5.93333 35.7091 5.95236C35.3183 6.17071 34.9578 6.41291 34.6129 6.69881C34.5834 6.72164 34.5539 6.74447 34.5234 6.76799C34.3448 6.90775 34.2002 7.04918 34.0633 7.22994C33.9975 7.31498 33.9275 7.39378 33.8548 7.47301C33.6597 7.68727 33.4823 7.91386 33.3104 8.1469C33.2484 8.22757 33.1826 8.30459 33.1169 8.38228C32.7971 8.77336 32.5732 9.23141 32.3373 9.67583C32.2988 9.74746 32.2594 9.81823 32.2189 9.88871C31.806 10.6376 31.8212 11.5995 31.7628 12.4311C31.7451 12.6807 31.7451 12.6807 31.7246 12.7999C31.664 13.1767 31.6974 13.577 31.7881 13.945C31.8112 14.0412 31.8324 14.1377 31.8537 14.2343C31.8709 14.3112 31.888 14.3881 31.9052 14.4649C31.9135 14.5022 31.9218 14.5396 31.9304 14.578C31.9384 14.613 31.9465 14.6481 31.9548 14.6842C31.9619 14.7157 31.9691 14.7473 31.9764 14.7798C31.9977 14.8671 31.9977 14.8671 32.0645 14.9569C32.3878 15.0162 32.6436 14.8085 32.9003 14.6356C33.2232 14.4226 33.5753 14.2941 33.9349 14.1558C34.0714 14.103 34.2072 14.0485 34.3427 13.9932C34.3639 13.9847 34.385 13.9763 34.4068 13.9676C34.5049 13.9276 34.5948 13.8839 34.6861 13.8298C34.7998 13.7642 34.9145 13.7215 35.0396 13.681C35.084 13.6663 35.1284 13.6516 35.1728 13.6369C35.2413 13.6145 35.3098 13.5922 35.3785 13.57C35.7484 13.4502 36.0825 13.3061 36.4052 13.0839C36.6318 12.9283 36.8831 12.819 37.1331 12.7069C37.3355 12.6146 37.5286 12.5084 37.722 12.3985C37.8978 12.2988 38.0767 12.2074 38.2581 12.1182C38.2984 12.098 38.2984 12.098 38.3396 12.0774C38.698 11.8987 39.0582 11.7364 39.4335 11.596C39.8092 11.4554 40.1649 11.3 40.5068 11.0892C40.6824 10.983 40.8651 10.8989 41.0524 10.8157C41.2945 10.7066 41.5347 10.5956 41.7712 10.4749C41.8963 10.4113 42.0223 10.3501 42.1495 10.2905C42.5479 10.1065 42.5479 10.1065 42.9254 9.8843C43.1211 9.75592 43.3288 9.68718 43.552 9.62166C43.7366 9.5642 43.8306 9.50908 43.9355 9.34397C43.949 9.22294 43.949 9.22294 43.9355 9.11817C43.9122 9.10827 43.889 9.09836 43.865 9.08816C43.6041 8.96398 43.4983 8.83164 43.377 8.57381C43.2669 8.35114 43.1559 8.15062 43 7.95688C42.9708 7.91862 42.9416 7.88032 42.9126 7.84196C42.7657 7.65166 42.6198 7.4682 42.4437 7.30353C42.3871 7.2472 42.3871 7.2472 42.325 7.16794C42.0797 6.86718 41.7081 6.65326 41.3871 6.44075C41.3604 6.42287 41.3337 6.40499 41.3062 6.38656C41.0702 6.23682 40.8127 6.12497 40.5601 6.00652C40.384 5.92372 40.21 5.83691 40.0371 5.74759C39.1929 5.3174 37.8645 5.46051 36.9436 5.52946ZM45.4194 7.11817C45.3749 7.17073 45.3319 7.22454 45.2903 7.27946C45.0655 7.39557 44.8165 7.43386 44.5703 7.47994C44.4072 7.51474 44.247 7.56095 44.0968 7.6343C44.0317 7.76453 44.0542 7.91441 44.0907 8.05164C44.1549 8.21209 44.2894 8.28864 44.4293 8.38077C44.5161 8.44075 44.5161 8.44075 44.5878 8.51282C44.6393 8.57736 44.6393 8.57736 44.7097 8.56978C44.719 8.59573 44.7283 8.62168 44.7379 8.64841C44.7656 8.73535 44.7656 8.73535 44.8387 8.76333C44.9286 8.78495 44.9286 8.78495 45.0323 8.76333C45.1453 8.67667 45.2345 8.57208 45.3145 8.45486C45.4128 8.34838 45.5273 8.2959 45.6563 8.23195C45.7763 8.1629 45.8488 8.09901 45.91 7.97376C45.9481 7.80371 45.9507 7.63469 45.9556 7.46091C45.9569 7.42486 45.9581 7.38881 45.9594 7.35166C45.9625 7.26308 45.9652 7.1745 45.9677 7.08591C45.7682 6.99814 45.6195 7.04051 45.4194 7.11817ZM43.7742 12.3117C43.7245 12.3326 43.6748 12.3535 43.625 12.3742C43.3793 12.4852 43.1557 12.6366 42.933 12.7873C42.68 12.9577 42.4305 13.1067 42.146 13.2186C41.9989 13.2777 41.8704 13.351 41.7366 13.4366C41.5226 13.571 41.3024 13.6642 41.0665 13.7553C40.7418 13.8841 40.4328 14.0283 40.1285 14.2008C39.8878 14.3369 39.6413 14.4567 39.3909 14.5739C39.2172 14.6556 39.0483 14.7417 38.8811 14.8359C38.6827 14.9459 38.4786 15.0192 38.2638 15.0907C37.9211 15.2061 37.5915 15.3521 37.2597 15.4952C37.1448 15.5446 37.0294 15.593 36.914 15.6412C36.5964 15.7738 36.2814 15.9118 35.9677 16.0537C35.9471 16.0629 35.9265 16.0722 35.9053 16.0817C35.0926 16.4475 35.0926 16.4475 34.4054 17.0034C34.3548 17.0537 34.3548 17.0537 34.2641 17.1222C34.1844 17.1905 34.1594 17.2446 34.129 17.344C34.2592 17.5156 34.5409 17.5096 34.7419 17.5375C34.9203 17.5591 35.0991 17.5749 35.2781 17.5907C35.892 17.646 36.4746 17.7325 37.0541 17.9506C37.6513 18.1653 38.2684 18.1878 38.8972 18.1928C38.9193 18.1931 38.9414 18.1934 38.9642 18.1937C39.5743 18.2011 40.0704 18.0561 40.6133 17.7797C40.7588 17.7057 40.9054 17.6345 41.0529 17.5646C41.091 17.5465 41.1291 17.5284 41.1683 17.5098C41.2438 17.474 41.3193 17.4385 41.395 17.4031C41.6012 17.3051 41.7951 17.1989 41.9855 17.0727C42.0659 17.0205 42.1481 16.9733 42.2319 16.9266C42.5016 16.764 42.6586 16.5633 42.8095 16.2899C42.8771 16.172 42.9515 16.0609 43.0282 15.9488C43.1837 15.7199 43.3187 15.4821 43.4521 15.24C43.4966 15.1597 43.5422 15.0803 43.5887 15.0012C43.6022 14.9782 43.6157 14.9552 43.6295 14.9314C43.6774 14.8601 43.6774 14.8601 43.7584 14.7725C43.8589 14.6538 43.8875 14.5275 43.9214 14.3782C43.9349 14.3235 43.9483 14.2687 43.9618 14.2139C43.9746 14.1605 43.9873 14.1071 44 14.0537C44.0898 13.6869 44.1888 13.3394 44.3911 13.0174C44.5427 12.7728 44.6235 12.5046 44.5806 12.2149C44.5002 12.1345 44.4705 12.1391 44.3589 12.1363C44.1395 12.14 43.9695 12.2186 43.7742 12.3117ZM29.9299 14.6872C29.7974 14.7978 29.6569 14.8967 29.5162 14.9966C29.422 15.0644 29.3554 15.1174 29.2903 15.2149C29.2825 15.3295 29.2825 15.3295 29.3226 15.4407C29.7074 15.6671 30.2452 15.5828 30.6694 15.5274C30.6997 15.5236 30.73 15.5199 30.7613 15.5159C30.9127 15.4945 31.0397 15.4764 31.1613 15.3762C31.1917 15.285 31.1979 15.2268 31.1976 15.1323C31.1977 15.107 31.1978 15.0816 31.1978 15.0555C31.1977 14.9871 31.1977 14.9871 31.1613 14.9246C31.1081 14.8914 31.0544 14.8591 31 14.8278C30.9677 14.7956 30.9677 14.7956 30.9657 14.7129C30.9664 14.687 30.9671 14.661 30.9677 14.6343C31.0529 14.5917 31.1381 14.5491 31.2258 14.5053C31.2258 14.4733 31.2258 14.4414 31.2258 14.4085C30.7579 14.2791 30.2938 14.375 29.9299 14.6872Z" fill="black"/>
<path d="M15.5819 15.6869C15.9266 16.0073 16.1809 16.4263 16.3548 16.8601C16.3641 16.8825 16.3734 16.9049 16.3831 16.928C16.5497 17.3303 16.6762 17.7417 16.7944 18.1602C16.8806 18.4647 16.9755 18.7654 17.0786 19.0646C17.136 19.2318 17.1857 19.3975 17.2258 19.5698C17.9466 19.7775 18.7825 19.4213 19.4295 19.115C19.4544 19.1035 19.4793 19.092 19.505 19.0801C19.5272 19.0696 19.5495 19.0591 19.5724 19.0484C19.804 18.9625 20.0572 18.982 20.3006 18.9814C20.3741 18.9811 20.4475 18.98 20.521 18.979C21.1174 18.9746 21.5934 19.148 22.0322 19.5698C22.1158 19.7109 22.1079 19.8391 22.1068 19.9992C22.1066 20.0279 22.1065 20.0565 22.1063 20.086C22.0996 20.455 22.0755 20.8109 21.8064 21.0859C21.7798 21.1152 21.7533 21.1446 21.7259 21.1748C21.4816 21.438 21.2046 21.6352 20.9032 21.8278C20.8679 21.8507 20.8327 21.8736 20.7963 21.8971C20.1656 22.2961 19.4785 22.6137 18.7862 22.8895C18.7057 22.921 18.7057 22.921 18.6451 22.9891C18.5705 23.4752 18.7579 23.9444 18.9697 24.3681C19.1123 24.6533 19.2226 24.8957 19.258 25.2149C19.2644 25.2562 19.2707 25.2975 19.2773 25.34C19.3274 25.6985 19.3309 26.0607 19.3339 26.422C19.3344 26.4778 19.3351 26.5337 19.336 26.5895C19.3516 27.6486 19.3516 27.6486 19.0548 27.9708C19.0276 27.9959 19.0276 27.9959 19 28.0214C18.9795 28.0417 18.9591 28.062 18.9381 28.083C18.6053 28.3965 18.1929 28.4296 17.7554 28.4184C17.4363 28.402 17.16 28.2839 16.9354 28.0536C16.9354 28.0323 16.9354 28.011 16.9354 27.9891C16.9035 27.9785 16.8716 27.9678 16.8387 27.9569C16.79 27.9086 16.79 27.9086 16.7379 27.846C16.6519 27.7443 16.564 27.6454 16.4738 27.5476C16.3041 27.3593 16.1508 27.1601 16 26.9569C15.9864 26.9387 15.9729 26.9206 15.959 26.9019C15.5686 26.3756 15.2741 25.897 15.2062 25.2332C15.1958 25.1392 15.1817 25.0491 15.1612 24.9569C14.9254 24.9988 14.7673 25.1361 14.5806 25.2794C14.543 25.3048 14.543 25.3048 14.5046 25.3307C14.2891 25.4806 14.1538 25.6795 14.0099 25.8943C13.9677 25.9569 13.9245 26.0187 13.8809 26.0805C13.7061 26.3291 13.5435 26.583 13.3868 26.8434C13.2759 27.027 13.1574 27.2031 13.0335 27.3781C12.9717 27.4672 12.9151 27.5578 12.8588 27.6504C12.7355 27.8463 12.5872 28.0176 12.4353 28.1912C12.3853 28.2492 12.3368 28.3081 12.2884 28.3674C11.9757 28.7484 11.6912 28.9502 11.1935 29.0214C10.8652 29.052 10.4958 29.0491 10.1915 28.9125C9.98808 28.6369 9.9951 28.2085 9.99341 27.877C9.99322 27.8483 9.99304 27.8197 9.99285 27.7902C9.99255 27.7298 9.99234 27.6695 9.99221 27.6092C9.9919 27.5183 9.9909 27.4274 9.98988 27.3365C9.98658 26.7721 10.078 26.2851 10.3528 25.7855C10.5539 25.4171 10.6614 25.0568 10.7252 24.6434C10.7534 24.4723 10.7887 24.3515 10.9032 24.2149C10.9629 24.1732 10.9629 24.1732 11.0201 24.1444C11.1248 24.0736 11.1514 24.0155 11.1774 23.8923C11.2038 23.6865 11.1854 23.4847 11.1612 23.2794C11.1373 23.2896 11.1134 23.2997 11.0888 23.3102C10.869 23.3937 10.6719 23.3765 10.4446 23.3329C10.3498 23.3164 10.2566 23.3034 10.1611 23.2925C8.53681 23.1074 8.53681 23.1074 8.09673 22.6988C7.97449 22.463 7.96186 22.2387 7.96165 21.979C7.96126 21.9531 7.96086 21.9272 7.96046 21.9005C7.95987 21.6563 7.99641 21.4267 8.10278 21.2048C8.12043 21.1661 8.12043 21.1661 8.13844 21.1266C8.31678 20.8903 8.63331 20.8691 8.9052 20.8137C9.28574 20.7357 9.66413 20.6516 10.01 20.4669C10.3515 20.2875 10.7817 20.3095 11.1572 20.2976C11.6446 20.299 11.6446 20.299 12.0967 20.1504C12.1344 20.094 12.1344 20.094 12.159 20.0257C12.1692 20.0001 12.1795 19.9746 12.19 19.9483C12.2057 19.9066 12.2057 19.9066 12.2217 19.8641C12.2329 19.8349 12.2441 19.8056 12.2556 19.7754C12.2894 19.6856 12.3222 19.5955 12.3548 19.5052C12.3639 19.481 12.373 19.4568 12.3823 19.4319C12.5476 18.9848 12.6081 18.5179 12.6716 18.0478C12.7313 17.6139 12.847 17.271 13.0645 16.8883C13.2053 16.6389 13.2053 16.6389 13.3277 16.3801C13.4267 16.1503 13.577 15.9795 13.7742 15.8278C13.8041 15.7898 13.8336 15.7515 13.8629 15.7129C14.0095 15.5373 14.2214 15.4981 14.4424 15.477C14.8192 15.4564 15.2712 15.4382 15.5819 15.6869ZM14.4596 16.6464C14.4391 16.6634 14.4185 16.6805 14.3973 16.6981C14.1351 16.9243 14.0407 17.162 13.9576 17.4931C13.8871 17.7603 13.8081 18.0193 13.7096 18.2774C13.4545 18.9649 13.3245 19.6162 13.2686 20.3452C13.2664 20.373 13.2642 20.4009 13.2619 20.4295C13.2578 20.4817 13.254 20.5339 13.2506 20.5861C13.2372 20.7578 13.1949 20.8944 13.129 21.0536C13.1183 21.0856 13.1077 21.1175 13.0967 21.1504C13.0278 21.1827 13.0278 21.1827 12.9354 21.2149C12.902 21.2302 12.8685 21.2455 12.834 21.2613C12.2281 21.5194 11.5563 21.4776 10.9088 21.4927C10.5939 21.5002 10.2794 21.5108 9.96494 21.5297C9.90348 21.5333 9.84199 21.5366 9.78051 21.54C9.45163 21.5612 9.13951 21.6125 8.84673 21.7694C8.8143 21.7864 8.78187 21.8035 8.74845 21.8211C8.725 21.834 8.70154 21.8468 8.67738 21.8601C8.68868 21.942 8.70185 21.9814 8.7613 22.0403C8.86164 22.0994 8.96621 22.1354 9.07657 22.1706C9.09745 22.1775 9.11832 22.1845 9.13983 22.1917C9.3681 22.2663 9.58147 22.2849 9.81937 22.289C9.86425 22.29 9.86425 22.29 9.91004 22.2909C10.0085 22.293 10.1069 22.2948 10.2054 22.2967C10.2738 22.2981 10.3422 22.2995 10.4106 22.3009C10.5904 22.3046 10.7702 22.3081 10.95 22.3116C11.1336 22.3151 11.3171 22.3189 11.5007 22.3226C11.8607 22.3299 12.2206 22.337 12.5806 22.344C12.5776 22.4736 12.5741 22.6033 12.5704 22.733C12.5691 22.777 12.568 22.8211 12.567 22.8652C12.5655 22.9287 12.5636 22.9923 12.5617 23.0559C12.5607 23.0941 12.5597 23.1323 12.5586 23.1716C12.5347 23.4221 12.5347 23.4221 12.4516 23.5052C12.3659 23.5199 12.2799 23.5279 12.1935 23.5375C12.1352 23.7037 12.0863 23.8685 12.0443 24.0395C11.9846 24.2674 11.9072 24.4863 11.8246 24.7069C11.8126 24.7389 11.8006 24.7709 11.7883 24.804C11.7161 24.9934 11.6369 25.1782 11.552 25.3622C11.3062 25.8995 11.2148 26.4456 11.2076 27.0335C11.2063 27.0942 11.2063 27.0942 11.205 27.1561C11.2011 27.3909 11.2011 27.3909 11.3007 27.5956C11.3834 27.674 11.3834 27.674 11.4959 27.6927C11.6984 27.6473 11.7895 27.5172 11.8989 27.3471C11.9419 27.2759 11.9845 27.2046 12.0268 27.133C12.0959 27.0192 12.1752 26.9158 12.258 26.8117C12.4157 26.6121 12.5479 26.4018 12.6774 26.1827C12.7 26.1452 12.7227 26.1077 12.7454 26.0703C12.8202 25.9469 12.8941 25.8229 12.9677 25.6988C12.9813 25.6759 12.9949 25.6531 13.0089 25.6295C13.2048 25.2992 13.3887 24.9642 13.5646 24.6228C13.673 24.4127 13.7857 24.2055 13.9012 23.9992C13.9965 23.8287 14.0849 23.6606 14.1572 23.479C14.3002 23.1232 14.3002 23.1232 14.4799 23.0459C14.548 23.0234 14.6166 23.0025 14.6857 22.9834C14.7799 22.9598 14.7799 22.9598 14.8709 22.8923C14.9368 22.886 14.9368 22.886 15.006 22.8883C15.0466 22.8896 15.0872 22.891 15.129 22.8923C15.1963 23.0399 15.2413 23.1743 15.2742 23.3339C15.405 23.9028 15.66 24.4532 15.9153 24.9763C15.9581 25.0659 15.9956 25.1542 16.0302 25.2472C16.1753 25.6215 16.3875 25.9714 16.6092 26.3048C16.6525 26.3706 16.6944 26.4373 16.7345 26.5051C16.8295 26.6656 16.9198 26.7837 17.0645 26.9024C17.2385 27.0479 17.311 27.2024 17.3978 27.4072C17.4582 27.5174 17.4971 27.5553 17.6129 27.602C17.7667 27.6039 17.8991 27.5645 18.0221 27.473C18.3465 27.0521 18.4247 26.8094 18.3588 26.2808C18.3237 26.0324 18.2668 25.7888 18.2106 25.5446C18.1608 25.3278 18.1139 25.111 18.0707 24.8928C18.0658 24.8683 18.0609 24.8438 18.0558 24.8186C18.017 24.6239 18.017 24.6239 17.9984 24.5268C17.9327 24.185 17.8462 23.9022 17.6568 23.6097C17.4056 23.1972 17.2824 22.7976 17.3225 22.3117C17.4146 22.2196 17.5171 22.2251 17.6411 22.2089C18.233 22.119 18.7647 21.8635 19.3019 21.6096C19.3808 21.5727 19.4601 21.537 19.5399 21.502C19.6682 21.4454 19.794 21.3848 19.9193 21.3218C19.9412 21.3109 19.9631 21.3 19.9857 21.2888C20.1022 21.2304 20.2171 21.1701 20.3306 21.1059C20.582 20.9651 20.8103 20.8567 21.0967 20.8086C21.1655 20.7972 21.1655 20.7972 21.258 20.7633C21.3268 20.6533 21.3256 20.6154 21.2963 20.4871C21.2355 20.3643 21.1503 20.3245 21.0271 20.2738C19.9647 19.9654 18.6989 20.2919 17.6774 20.6343C17.6404 20.6463 17.6034 20.6584 17.5654 20.6708C17.3859 20.7287 17.3859 20.7287 17.211 20.7987C17.115 20.8328 17.0372 20.8364 16.9354 20.8359C16.8865 20.8361 16.8865 20.8361 16.8367 20.8364C16.7372 20.8274 16.6685 20.8105 16.5806 20.7633C16.5434 20.7128 16.5434 20.7128 16.5181 20.6484C16.5078 20.6224 16.4975 20.5964 16.4869 20.5696C16.4752 20.5377 16.4636 20.5058 16.4516 20.473C16.4444 20.4537 16.4372 20.4344 16.4298 20.4145C16.3782 20.2757 16.3292 20.1361 16.282 19.9957C16.2668 19.9506 16.2514 19.9056 16.2357 19.8606C16.1156 19.5142 16.0603 19.1674 16.0195 18.8031C15.9627 18.3374 15.7561 17.9331 15.5604 17.5115C15.3958 17.149 15.2877 16.7892 15.2448 16.3938C15.2331 16.3006 15.2331 16.3006 15.129 16.2472C14.8628 16.2472 14.655 16.4813 14.4596 16.6464Z" fill="black"/>
<path d="M63.08 12.9118C63.1136 12.9116 63.1136 12.9116 63.1479 12.9115C63.195 12.9114 63.242 12.9116 63.289 12.912C63.361 12.9125 63.433 12.912 63.505 12.9114C63.5508 12.9114 63.5967 12.9116 63.6425 12.9118C63.684 12.9119 63.7255 12.912 63.7683 12.9121C63.871 12.9246 63.871 12.9246 63.931 12.9627C63.9797 13.0404 63.9937 13.1091 64.0102 13.1993C64.0202 13.2519 64.0202 13.2519 64.0304 13.3055C64.037 13.3422 64.0436 13.3788 64.0504 13.4165C64.0638 13.4886 64.0773 13.5607 64.0908 13.6328C64.0972 13.6671 64.1036 13.7015 64.1101 13.7369C64.128 13.8322 64.128 13.8322 64.1662 13.9382C64.2597 14.3329 64.1655 14.7545 64.1042 15.1481C64.0889 15.2461 64.0741 15.3441 64.0593 15.4421C64.035 15.6031 64.0096 15.7639 63.9835 15.9246C63.9728 15.9901 63.9623 16.0557 63.9519 16.1213C63.9363 16.2185 63.9201 16.3155 63.9037 16.4125C63.8968 16.4564 63.8968 16.4564 63.8898 16.5011C63.8534 16.7093 63.8037 16.8575 63.625 16.9851C63.5335 17.0669 63.5073 17.124 63.4854 17.2432C63.4803 17.4755 63.6756 17.6544 63.823 17.814C63.949 17.9447 64.0857 18.0498 64.2355 18.1526C64.3827 18.258 64.5125 18.3825 64.6452 18.5053C64.7836 18.6325 64.9308 18.7421 65.0847 18.85C65.2801 18.9872 65.4625 19.1348 65.6425 19.2915C65.7044 19.3452 65.7661 19.394 65.8323 19.4428C66.0317 19.5905 66.1769 19.758 66.3226 19.9569C66.3493 19.993 66.3493 19.993 66.3766 20.03C66.5607 20.2909 66.6358 20.5136 66.5966 20.8327C66.5473 21.1161 66.4121 21.289 66.2258 21.5053C66.2063 21.5287 66.1868 21.5522 66.1667 21.5763C65.8763 21.9198 65.5177 22.1738 65.0574 22.2225C64.4462 22.2587 63.9538 22.0916 63.4071 21.8338C63.3823 21.8221 63.3575 21.8104 63.3319 21.7983C63.2831 21.7752 63.2345 21.7518 63.186 21.7282C63.0078 21.6442 62.8344 21.5976 62.6411 21.5617C62.6136 21.5561 62.586 21.5506 62.5576 21.5448C62.4022 21.5147 62.2549 21.4896 62.0968 21.5053C62.0266 21.6105 62.0174 21.667 62.0011 21.7907C61.996 21.8282 61.9908 21.8657 61.9854 21.9044C61.9751 21.9828 61.9648 22.0613 61.9544 22.1398C61.907 22.4834 61.8136 22.7852 61.6855 23.1061C61.5868 23.3581 61.5047 23.6116 61.4314 23.8722C61.3079 24.3066 61.1519 24.699 60.9395 25.098C60.924 25.1275 60.9084 25.1571 60.8924 25.1875C60.7426 25.4612 60.5776 25.7277 60.2661 25.8238C60.1228 25.867 60.1228 25.867 59.9995 25.947C59.9355 25.9891 59.9355 25.9891 59.8412 25.9845C59.7411 25.9566 59.6632 25.9206 59.5726 25.8702C59.3787 25.768 59.1809 25.7029 58.9695 25.6458C58.9456 25.6387 58.9217 25.6315 58.897 25.6242C58.8757 25.6183 58.8543 25.6125 58.8323 25.6064C58.7393 25.5478 58.7167 25.4775 58.6774 25.3762C58.6631 25.2872 58.6529 25.2033 58.6468 25.1139C58.6448 25.0887 58.6428 25.0634 58.6407 25.0375C58.6343 24.9555 58.6286 24.8735 58.623 24.7915C58.6209 24.7636 58.6189 24.7356 58.6168 24.7067C58.5761 24.1463 58.5473 23.5818 58.597 23.0211C58.6189 22.757 58.6177 22.4931 58.6171 22.2282C58.6169 22.1412 58.6171 22.0541 58.6173 21.9671C58.6173 21.9118 58.6172 21.8564 58.6172 21.8011C58.6173 21.7621 58.6173 21.7621 58.6174 21.7222C58.6281 21.6041 58.6281 21.6041 58.5806 21.5053C58.2215 21.4494 57.8657 21.6266 57.5413 21.7602C57.3524 21.8347 57.16 21.9001 56.9681 21.9665C56.9115 21.9862 56.8552 22.0065 56.7989 22.0268C56.2858 22.2078 55.7717 22.2531 55.2319 22.2553C55.1691 22.2563 55.1691 22.2563 55.1051 22.2573C55.0649 22.2574 55.0247 22.2576 54.9832 22.2578C54.9469 22.2581 54.9106 22.2584 54.8733 22.2587C54.7614 22.2457 54.702 22.2184 54.6129 22.1504C54.54 22.0102 54.4961 21.8638 54.4482 21.7135C54.4051 21.5951 54.3477 21.484 54.2899 21.3721C54.2078 21.1333 54.2674 20.9716 54.3727 20.7529C54.3888 20.7211 54.4048 20.6892 54.4214 20.6565C54.4377 20.6234 54.454 20.5904 54.4708 20.5564C54.7333 20.0317 55.0525 19.6302 55.529 19.2846C55.5787 19.2486 55.6279 19.212 55.6772 19.1754C55.7626 19.1122 55.8486 19.0503 55.9355 18.9891C55.9564 18.9743 55.9774 18.9594 55.999 18.9441C56.1285 18.8577 56.2608 18.7993 56.4052 18.7411C56.5849 18.6663 56.7451 18.5786 56.9073 18.471C56.9275 18.4577 56.9477 18.4444 56.9686 18.4308C57.1055 18.3372 57.2289 18.242 57.2811 18.078C57.2981 17.911 57.2935 17.8089 57.1935 17.6665C57.133 17.604 57.0706 17.5439 57.0078 17.4837C56.8986 17.3701 56.8095 17.2432 56.7167 17.1161C56.6533 17.0322 56.5875 16.9553 56.5161 16.8782C56.187 16.5145 55.9601 16.088 55.754 15.6464C55.7059 15.5479 55.6631 15.484 55.5766 15.4165C55.4711 15.334 55.4323 15.2759 55.3871 15.1504C55.3761 14.9813 55.4018 14.8535 55.4597 14.6948C55.4731 14.6568 55.4866 14.6188 55.5005 14.5796C55.6051 14.3467 55.7666 14.2167 56 14.1182C56.1323 14.0941 56.259 14.0951 56.3931 14.1C56.4295 14.1008 56.4659 14.1015 56.5034 14.1023C57.2326 14.1236 57.8766 14.2151 58.4895 14.6206C58.6314 14.7132 58.7817 14.7802 58.9364 14.8486C59.1302 14.937 59.3165 15.0251 59.4456 15.1988C59.6085 15.4088 59.9367 15.5226 60.1935 15.5698C60.3049 15.5654 60.3635 15.5567 60.4502 15.4861C60.532 15.3897 60.578 15.2848 60.629 15.1706C60.7532 14.9081 60.9174 14.7106 61.1115 14.4974C61.2114 14.3837 61.302 14.2621 61.3926 14.1409C61.488 14.0161 61.5887 13.926 61.7097 13.8278C61.7471 13.7865 61.7836 13.7442 61.8185 13.7008C61.9757 13.5178 62.1444 13.3967 62.3629 13.2956C62.5066 13.2277 62.562 13.1581 62.6452 13.0214C62.7927 12.929 62.9075 12.9122 63.08 12.9118ZM62.9516 14.098C62.8255 14.1799 62.74 14.293 62.6452 14.4085C62.496 14.5848 62.3381 14.7488 62.1738 14.9111C62.1107 14.975 62.0518 15.0395 61.9939 15.1081C61.8401 15.2881 61.6688 15.4519 61.5008 15.6185C61.4717 15.6474 61.4717 15.6474 61.4421 15.6768C61.4071 15.7113 61.3719 15.7455 61.3363 15.7794C61.2984 15.8159 61.2619 15.854 61.2258 15.8923C61.2258 15.9136 61.2258 15.9349 61.2258 15.9569C61.2071 15.9656 61.1884 15.9743 61.1691 15.9833C61.0967 16.0214 61.0363 16.0641 60.9718 16.1141C60.8937 16.1741 60.8172 16.2286 60.7339 16.2815C60.5294 16.4255 60.4791 16.5945 60.4194 16.8278C60.3425 16.8189 60.3425 16.8189 60.2581 16.7956C60.224 16.745 60.224 16.745 60.1976 16.6807C60.0766 16.4663 59.8269 16.3808 59.6129 16.2794C59.412 16.1831 59.2309 16.0811 59.0498 15.9508C58.7669 15.7492 58.465 15.5812 58.162 15.4126C57.6533 15.1288 57.6533 15.1288 57.4466 14.9894C57.2779 14.8972 57.1183 14.883 56.9294 14.8863C56.9065 14.8863 56.8836 14.8863 56.8599 14.8864C56.7585 14.8872 56.6775 14.8923 56.5806 14.9246C56.5268 15.1357 56.576 15.2527 56.6774 15.4407C56.7057 15.4934 56.7057 15.4934 56.7345 15.5472C56.8532 15.7635 56.9827 15.9661 57.1309 16.1636C57.1927 16.2461 57.2518 16.3299 57.3105 16.4145C57.3467 16.4663 57.383 16.518 57.4194 16.5698C57.4437 16.6048 57.4437 16.6048 57.4685 16.6405C57.544 16.7457 57.615 16.8333 57.7177 16.9125C57.8349 17.006 57.9112 17.122 57.9939 17.2452C58.1429 17.4649 58.309 17.6114 58.5484 17.7311C58.6099 17.9926 58.5886 18.3041 58.4622 18.5424C58.3781 18.6453 58.2881 18.7104 58.1754 18.7774C58.1552 18.7899 58.135 18.8024 58.1142 18.8153C58.0735 18.8405 58.0326 18.8655 57.9917 18.8904C57.9172 18.9357 57.8437 18.9825 57.7702 19.0294C57.7419 19.0474 57.7137 19.0653 57.6846 19.0838C57.517 19.1912 57.3505 19.3003 57.1838 19.4091C57.0103 19.522 56.8354 19.6324 56.6593 19.7411C56.2377 20.0031 56.2377 20.0031 55.8866 20.3504C55.8387 20.4085 55.8387 20.4085 55.754 20.4891C55.6564 20.5919 55.5745 20.698 55.5161 20.8278C55.5168 20.9212 55.5168 20.9212 55.5484 20.9891C55.9911 21.1114 56.3843 21.0798 56.8266 20.9851C56.8775 20.9749 56.9284 20.9649 56.9793 20.9548C57.1265 20.9255 57.273 20.8936 57.4194 20.8601C57.4426 20.8548 57.4658 20.8495 57.4897 20.844C57.556 20.8286 57.6222 20.8124 57.6883 20.7958C57.7259 20.7865 57.7636 20.7771 57.8025 20.7675C57.9531 20.713 58.0397 20.6374 58.131 20.5073C58.3286 20.2634 58.7068 20.216 59 20.1827C59.152 20.1751 59.3035 20.175 59.4556 20.1766C59.4949 20.1766 59.5341 20.1767 59.5746 20.1767C59.8619 20.1781 59.8619 20.1781 59.9355 20.2149C59.9748 20.938 59.8181 21.597 59.5484 22.2631C59.2822 22.9308 59.3016 23.6686 59.3226 24.3762C59.3241 24.433 59.3241 24.433 59.3256 24.491C59.3274 24.528 59.3292 24.5649 59.331 24.603C59.3325 24.6362 59.3339 24.6693 59.3354 24.7034C59.3595 24.8177 59.4022 24.8744 59.4839 24.9569C59.5806 24.9811 59.5806 24.9811 59.6774 24.9569C59.8093 24.8529 59.8605 24.7236 59.9254 24.5738C60.0087 24.3887 60.0985 24.2162 60.2117 24.0476C60.4716 23.6568 60.627 23.2685 60.7276 22.811C60.8377 22.31 60.9821 21.8286 61.1511 21.3448C61.1674 21.2978 61.1837 21.2509 61.1998 21.2038C61.2077 21.181 61.2156 21.1581 61.2238 21.1345C61.2877 20.944 61.3343 20.7512 61.3718 20.5538C61.4004 20.4151 61.4308 20.33 61.5484 20.2472C61.6265 20.2315 61.6265 20.2315 61.7131 20.2323C61.7448 20.2324 61.7766 20.2326 61.8093 20.2327C61.8423 20.2335 61.8753 20.2343 61.9093 20.2351C61.9578 20.2352 61.9578 20.2352 62.0074 20.2352C62.4037 20.2399 62.4037 20.2399 62.5806 20.3117C62.6327 20.377 62.6327 20.377 62.6552 20.4528C62.6948 20.5779 62.7354 20.6476 62.8387 20.7311C62.9334 20.7719 62.9334 20.7719 63.0383 20.7996C63.0727 20.8097 63.1071 20.8197 63.1425 20.8301C63.1997 20.8449 63.1997 20.8449 63.2581 20.8601C63.2876 20.8681 63.2876 20.8681 63.3177 20.8764C63.5452 20.9333 63.7775 20.9509 64.0105 20.9708C64.0817 20.9769 64.1529 20.9835 64.2241 20.9901C64.4586 21.0112 64.6929 21.0264 64.9283 21.0302C64.9897 21.0313 64.9897 21.0313 65.0524 21.0324C65.1698 21.0205 65.2294 20.9955 65.3226 20.9246C65.399 20.7972 65.4219 20.65 65.3871 20.5053C65.2766 20.331 65.1047 20.1715 64.9355 20.0536C64.9142 20.0536 64.8929 20.0536 64.871 20.0536C64.8646 20.0365 64.8582 20.0193 64.8517 20.0016C64.7858 19.8895 64.6946 19.8119 64.5988 19.725C64.5785 19.7064 64.5583 19.6879 64.5374 19.6687C64.3636 19.5106 64.1835 19.3615 64 19.2149C63.9415 19.1666 63.883 19.1182 63.8246 19.0698C63.4456 18.7598 63.047 18.4718 62.6419 18.197C62.5806 18.1504 62.5806 18.1504 62.5484 18.0859C62.5119 17.5792 62.594 17.1271 62.7198 16.6383C62.7361 16.5718 62.7524 16.5054 62.7686 16.4388C62.7844 16.375 62.8002 16.3112 62.8162 16.2474C62.8234 16.2183 62.8307 16.1891 62.8382 16.1591C62.9427 15.754 62.9427 15.754 63.0822 15.6197C63.1799 15.5182 63.2056 15.4213 63.2339 15.2875C63.2391 15.2645 63.2444 15.2416 63.2498 15.2179C63.2856 15.0565 63.3152 14.8965 63.3226 14.7311C63.3239 14.7074 63.3252 14.6837 63.3265 14.6594C63.3317 14.4819 63.3034 14.3217 63.2581 14.1504C63.1082 14.0968 63.1082 14.0968 62.9516 14.098Z" fill="black"/>
</svg>
