<svg width="25" height="25" viewBox="0 0 25 25" fill="none" xmlns="http://www.w3.org/2000/svg">
<circle cx="12.8253" cy="12.6285" r="12.1221" fill="black"/>
<path d="M19.4926 8.53736C19.0022 8.76824 18.4754 8.92425 17.9216 8.99476C18.4866 8.63533 18.92 8.06494 19.1243 7.38598C18.5958 7.71923 18.0103 7.96135 17.3872 8.09115C16.888 7.52704 16.1775 7.17383 15.3905 7.17383C13.8801 7.17383 12.6551 8.47557 12.6551 10.0819C12.6552 10.3045 12.6788 10.5264 12.7255 10.7434C10.4511 10.6216 8.43619 9.46404 7.08666 7.7055C6.85179 8.13609 6.71669 8.63533 6.71669 9.16701C6.71669 10.1754 7.20003 11.066 7.93349 11.587C7.49908 11.5723 7.07426 11.4476 6.69438 11.2232V11.2607C6.69438 12.6691 7.63694 13.8442 8.88897 14.1113C8.65404 14.1786 8.41174 14.2126 8.1684 14.2124C7.9956 14.2125 7.82317 14.1954 7.65339 14.1612C8.00163 15.3157 9.01172 16.1569 10.2091 16.1793C9.27245 16.9594 8.09265 17.4243 6.81124 17.4243C6.59043 17.4243 6.37255 17.4106 6.1582 17.3837C7.36915 18.2094 8.80677 18.6899 10.3513 18.6899C15.3841 18.6899 18.1354 14.2604 18.1354 10.4188C18.1354 10.294 18.1324 10.168 18.1272 10.0432C18.6616 9.63253 19.1255 9.12145 19.4913 8.53922L19.4926 8.53736Z" fill="white"/>
</svg>
