<svg width="36" height="42" viewBox="0 0 36 42" fill="none" xmlns="http://www.w3.org/2000/svg">
<path d="M20.5112 1.234C19.1954 -0.0819078 16.8046 -0.0819078 15.4888 1.234C13.4826 3.24064 10.4527 5.52719 7.0625 5.52719C5.24731 5.52719 3.53529 5.03807 2.02854 4.17234C1.38576 3.80309 0.5 4.23167 0.5 4.97297V22.7994C0.5 26.9219 2.39753 30.7607 5.53492 32.9854L16.2293 40.5688C17.3084 41.334 18.6916 41.3341 19.7707 40.5688L30.4651 32.9855C33.6025 30.7607 35.5 26.9219 35.5 22.7994V4.97297C35.5 4.23167 34.6142 3.80309 33.9715 4.17234C32.4647 5.03807 30.7528 5.52719 28.9375 5.52719C25.5473 5.52719 22.5174 3.24064 20.5112 1.234Z" fill="#9875FF"/>
<path d="M8.375 21.7954C8.375 27.1648 12.6843 31.5176 18 31.5176C23.3157 31.5176 27.625 27.1648 27.625 21.7954V21.3684C27.625 20.933 27.2756 20.5801 26.8446 20.5801H9.15541C8.72439 20.5801 8.375 20.933 8.375 21.3684V21.7954Z" fill="#E9DEFF"/>
<path d="M13.1875 14.5037C13.1875 17.1884 15.3421 19.3648 18 19.3648C20.6579 19.3648 22.8125 17.1884 22.8125 14.5037C22.8125 11.819 20.6579 9.64258 18 9.64258C15.3421 9.64258 13.1875 11.819 13.1875 14.5037Z" fill="#E9DEFF"/>
</svg>
