<svg width="26" height="25" viewBox="0 0 26 25" fill="none" xmlns="http://www.w3.org/2000/svg">
<circle cx="13.0928" cy="12.6285" r="12.1221" fill="black"/>
<mask id="mask0_480_16844" style="mask-type:luminance" maskUnits="userSpaceOnUse" x="6" y="5" width="15" height="15">
<path d="M6.12305 5.65869H20.0635V19.5991H6.12305V5.65869Z" fill="white"/>
</mask>
<g mask="url(#mask0_480_16844)">
<path d="M14.4066 5.76075L13.9884 5.70206C12.7315 5.52058 11.4489 5.70012 10.2902 6.21974C9.13142 6.73936 8.14424 7.57765 7.44372 8.63689C6.69839 9.64939 6.25408 10.8518 6.16192 12.1056C6.06976 13.3595 6.3335 14.6139 6.92279 15.7245C6.9831 15.8358 7.02065 15.958 7.03324 16.084C7.04584 16.21 7.03323 16.3372 6.99616 16.4582C6.69534 17.4927 6.41653 18.5346 6.12305 19.6278L6.4899 19.5178C7.48041 19.2536 8.47091 18.9895 9.46142 18.7474C9.67048 18.7039 9.88779 18.7244 10.0851 18.8061C10.9737 19.2398 11.9449 19.4784 12.9334 19.5059C13.9218 19.5334 14.9048 19.3491 15.8161 18.9655C16.7275 18.5818 17.5463 18.0077 18.2176 17.2815C18.8888 16.5554 19.397 15.6941 19.7079 14.7554C20.0189 13.8167 20.1254 12.8224 20.0205 11.8391C19.9155 10.8558 19.6015 9.90638 19.0994 9.05448C18.5973 8.20259 17.9188 7.46794 17.1094 6.89985C16.3 6.33177 15.3785 5.94338 14.4066 5.76075ZM16.2556 15.387C15.9889 15.6257 15.6637 15.7895 15.3132 15.8617C14.9626 15.9339 14.5992 15.9119 14.2599 15.7979C12.7224 15.365 11.3886 14.4003 10.4959 13.0758C10.155 12.6074 9.88088 12.0937 9.68153 11.5497C9.57357 11.2341 9.5541 10.8949 9.62524 10.5689C9.69638 10.243 9.8554 9.94274 10.0851 9.70077C10.1969 9.55807 10.3491 9.45236 10.5218 9.39739C10.6946 9.34243 10.8799 9.34076 11.0536 9.39261C11.2003 9.42929 11.303 9.64207 11.4351 9.80349C11.5422 10.1065 11.6677 10.4029 11.8093 10.6913C11.9167 10.8384 11.9616 11.022 11.9341 11.2021C11.9066 11.3822 11.809 11.5441 11.6625 11.6524C11.3324 11.9459 11.3837 12.188 11.6185 12.5182C12.1376 13.266 12.8538 13.8552 13.6876 14.2204C13.9224 14.3231 14.0985 14.3451 14.2525 14.103C14.3186 14.0076 14.4066 13.9269 14.48 13.8389C14.9055 13.3033 14.7735 13.3106 15.4485 13.6041C15.6635 13.6943 15.8718 13.8 16.0721 13.9196C16.2702 14.037 16.5711 14.1617 16.6151 14.3378C16.6574 14.5288 16.6463 14.7279 16.5829 14.913C16.5194 15.0981 16.4062 15.2621 16.2556 15.387Z" fill="white"/>
</g>
</svg>
