<svg width="23" height="23" viewBox="0 0 23 23" fill="none" xmlns="http://www.w3.org/2000/svg">
<g clip-path="url(#clip0_1_11)">
<path d="M17.5577 3.89566C17.2847 3.89566 17.0179 3.9766 16.791 4.12824C16.564 4.27987 16.3872 4.4954 16.2827 4.74756C16.1783 4.99972 16.1509 5.27719 16.2042 5.54489C16.2574 5.81258 16.3889 6.05847 16.5819 6.25147C16.7749 6.44447 17.0208 6.5759 17.2884 6.62915C17.5561 6.6824 17.8336 6.65507 18.0858 6.55062C18.3379 6.44617 18.5535 6.26929 18.7051 6.04235C18.8567 5.81541 18.9377 5.5486 18.9377 5.27566C18.9377 4.90967 18.7923 4.55866 18.5335 4.29986C18.2747 4.04106 17.9237 3.89566 17.5577 3.89566ZM22.8477 6.67866C22.8253 5.72451 22.6466 4.78048 22.3187 3.88416C22.0263 3.11727 21.5712 2.42283 20.9847 1.84866C20.4152 1.2592 19.7192 0.806967 18.9492 0.526164C18.0552 0.188249 17.1101 0.00545562 16.1547 -0.0143359C14.9357 -0.0833359 14.5447 -0.0833359 11.4167 -0.0833359C8.28867 -0.0833359 7.89767 -0.0833359 6.67867 -0.0143359C5.7232 0.00545562 4.77812 0.188249 3.88417 0.526164C3.1156 0.80981 2.42015 1.26166 1.84867 1.84866C1.25921 2.41812 0.806975 3.11417 0.526172 3.88416C0.188257 4.77811 0.00546324 5.72319 -0.0143283 6.67866C-0.0833283 7.89766 -0.0833282 8.28866 -0.0833282 11.4167C-0.0833282 14.5447 -0.0833283 14.9357 -0.0143283 16.1547C0.00546324 17.1101 0.188257 18.0552 0.526172 18.9492C0.806975 19.7192 1.25921 20.4152 1.84867 20.9847C2.42015 21.5717 3.1156 22.0235 3.88417 22.3072C4.77812 22.6451 5.7232 22.8279 6.67867 22.8477C7.89767 22.9167 8.28867 22.9167 11.4167 22.9167C14.5447 22.9167 14.9357 22.9167 16.1547 22.8477C17.1101 22.8279 18.0552 22.6451 18.9492 22.3072C19.7192 22.0264 20.4152 21.5741 20.9847 20.9847C21.5737 20.4126 22.0293 19.7176 22.3187 18.9492C22.6466 18.0528 22.8253 17.1088 22.8477 16.1547C22.8477 14.9357 22.9167 14.5447 22.9167 11.4167C22.9167 8.28866 22.9167 7.89766 22.8477 6.67866ZM20.7777 16.0167C20.7693 16.7467 20.6371 17.4699 20.3867 18.1557C20.2031 18.6561 19.9081 19.1084 19.5242 19.4782C19.1512 19.8582 18.6999 20.1526 18.2017 20.3407C17.5159 20.5911 16.7927 20.7233 16.0627 20.7317C14.9127 20.7892 14.4872 20.8007 11.4627 20.8007C8.43817 20.8007 8.01267 20.8007 6.86267 20.7317C6.1047 20.7459 5.34996 20.6291 4.63167 20.3867C4.15532 20.189 3.72473 19.8954 3.36667 19.5242C2.98497 19.1547 2.69374 18.7021 2.51567 18.2017C2.23491 17.5061 2.07918 16.7664 2.05567 16.0167C2.05567 14.8667 1.98667 14.4412 1.98667 11.4167C1.98667 8.39216 1.98667 7.96666 2.05567 6.81666C2.06083 6.07038 2.19706 5.3308 2.45817 4.63166C2.66063 4.14626 2.97138 3.71357 3.36667 3.36666C3.71606 2.97126 4.14785 2.65722 4.63167 2.44666C5.33266 2.19371 6.07147 2.06151 6.81667 2.05566C7.96667 2.05566 8.39217 1.98666 11.4167 1.98666C14.4412 1.98666 14.8667 1.98666 16.0167 2.05566C16.7467 2.06404 17.4699 2.19625 18.1557 2.44666C18.6783 2.64061 19.1473 2.95594 19.5242 3.36666C19.901 3.71992 20.1955 4.15181 20.3867 4.63166C20.6423 5.33194 20.7746 6.07121 20.7777 6.81666C20.8352 7.96666 20.8467 8.39216 20.8467 11.4167C20.8467 14.4412 20.8352 14.8667 20.7777 16.0167ZM11.4167 5.51716C10.2504 5.51944 9.11088 5.86737 8.14222 6.51699C7.17357 7.16662 6.41921 8.08879 5.97445 9.16698C5.52969 10.2452 5.4145 11.431 5.64343 12.5746C5.87237 13.7183 6.43514 14.7684 7.26066 15.5923C8.08617 16.4162 9.13738 16.9769 10.2815 17.2036C11.4255 17.4303 12.6111 17.3128 13.6885 16.866C14.7658 16.4191 15.6865 15.663 16.3342 14.6931C16.982 13.7231 17.3277 12.583 17.3277 11.4167C17.3292 10.6405 17.1773 9.87176 16.8806 9.15456C16.5839 8.43737 16.1484 7.7859 15.5991 7.23762C15.0497 6.68935 14.3974 6.25509 13.6796 5.95983C12.9619 5.66457 12.1928 5.51413 11.4167 5.51716ZM11.4167 15.2462C10.6593 15.2462 9.91887 15.0216 9.28912 14.6008C8.65936 14.18 8.16852 13.5819 7.87867 12.8822C7.58883 12.1824 7.51299 11.4124 7.66075 10.6696C7.80852 9.92672 8.17324 9.24436 8.70881 8.7088C9.24437 8.17323 9.92672 7.80851 10.6696 7.66075C11.4124 7.51298 12.1824 7.58882 12.8822 7.87867C13.5819 8.16851 14.18 8.65935 14.6008 9.28911C15.0216 9.91887 15.2462 10.6593 15.2462 11.4167C15.2462 11.9196 15.1471 12.4175 14.9547 12.8822C14.7622 13.3468 14.4801 13.7689 14.1245 14.1245C13.7689 14.4801 13.3468 14.7622 12.8822 14.9547C12.4175 15.1471 11.9196 15.2462 11.4167 15.2462Z" fill="white"/>
</g>
<defs>
<clipPath id="clip0_1_11">
<rect width="23" height="23" fill="white"/>
</clipPath>
</defs>
</svg>
