<svg width="24" height="24" viewBox="0 0 24 24" fill="none" xmlns="http://www.w3.org/2000/svg">
<path d="M17.769 14.7865C17.5393 14.6716 16.0462 13.9825 15.8165 13.8676C15.5868 13.7528 15.3571 13.7528 15.1273 13.9825C14.8976 14.2122 14.4382 14.9013 14.2085 15.1311C14.0936 15.3608 13.8639 15.3608 13.6342 15.2459C12.8302 14.9013 12.0262 14.4419 11.3371 13.8676C10.7628 13.2934 10.1885 12.6042 9.72909 11.9151C9.61423 11.6854 9.72909 11.4556 9.84395 11.3408C9.9588 11.2259 10.0737 10.9962 10.3034 10.8814C10.4182 10.7665 10.5331 10.5368 10.5331 10.4219C10.6479 10.3071 10.6479 10.0774 10.5331 9.96251C10.4182 9.84766 9.84395 8.46938 9.61423 7.8951C9.49938 7.0911 9.26966 7.0911 9.03995 7.0911H8.46567C8.23596 7.0911 7.89139 7.32082 7.77653 7.43567C7.08739 8.12481 6.74282 8.92881 6.74282 9.84766C6.85768 10.8814 7.20225 11.9151 7.89139 12.8339C9.15481 14.6716 10.7628 16.1648 12.7154 17.0836C13.2896 17.3133 13.7491 17.543 14.3233 17.6579C14.8976 17.8876 15.4719 17.8876 16.161 17.7728C16.965 17.6579 17.6542 17.0836 18.1136 16.3945C18.3433 15.935 18.3433 15.4756 18.2285 15.0162L17.769 14.7865ZM20.6405 4.33455C16.161 -0.144852 8.92509 -0.144852 4.44569 4.33455C0.770287 8.00996 0.0811486 13.6379 2.60799 18.1173L1 23.975L7.08739 22.367C8.81024 23.2859 10.6479 23.7453 12.4856 23.7453C18.8027 23.7453 23.8564 18.6916 23.8564 12.3745C23.9713 9.38823 22.7079 6.51682 20.6405 4.33455ZM17.5393 20.4144C16.0462 21.3333 14.3233 21.9076 12.4856 21.9076C10.7628 21.9076 9.15481 21.4482 7.66167 20.6442L7.3171 20.4144L3.75655 21.3333L4.67541 17.8876L4.44569 17.543C1.68914 12.9488 3.06742 7.20596 7.54682 4.33455C12.0262 1.46314 17.769 2.95627 20.5256 7.32082C23.2821 11.8002 22.0187 17.6579 17.5393 20.4144Z" fill="white"/>
</svg>
