<svg width="24" height="24" viewBox="0 0 24 24" fill="none" xmlns="http://www.w3.org/2000/svg">
<g clip-path="url(#clip0_1_3)">
<path d="M23.9857 10.2019C24.0396 8.64137 23.6983 7.09256 22.9936 5.69924C22.5154 5.12753 21.8518 4.74171 21.1184 4.60902C18.0849 4.33377 15.0388 4.22095 11.9932 4.27105C8.95875 4.21868 5.92364 4.32785 2.90078 4.59812C2.30314 4.70683 1.75007 4.98716 1.30906 5.40488C0.327858 6.30977 0.218836 7.85788 0.109814 9.16615C-0.0483641 11.5184 -0.0483641 13.8786 0.109814 16.2308C0.141354 16.9671 0.250991 17.698 0.43688 18.4112C0.568334 18.9619 0.834291 19.4713 1.21094 19.8939C1.65495 20.3338 2.2209 20.63 2.83537 20.7443C5.18579 21.0344 7.55408 21.1547 9.9218 21.1041C13.7376 21.1586 17.0846 21.1041 21.0421 20.7988C21.6716 20.6916 22.2535 20.3949 22.7101 19.9484C23.0153 19.6431 23.2433 19.2693 23.3751 18.8582C23.765 17.6618 23.9565 16.4097 23.942 15.1515C23.9857 14.5409 23.9857 10.856 23.9857 10.2019ZM9.52932 15.8056V9.05712L15.9834 12.4477C14.1737 13.4507 11.7861 14.5845 9.52932 15.8056Z" fill="white"/>
</g>
<defs>
<clipPath id="clip0_1_3">
<rect width="24" height="24" fill="white"/>
</clipPath>
</defs>
</svg>
