<svg width="25" height="25" viewBox="0 0 25 25" fill="none" xmlns="http://www.w3.org/2000/svg">
<g id="mingcute:whatsapp-fill" clip-path="url(#clip0_1510_18805)">
<g id="Group">
<path id="Vector" fill-rule="evenodd" clip-rule="evenodd" d="M12.5 2.93164C6.977 2.93164 2.5 7.40864 2.5 12.9316C2.5 14.8216 3.025 16.5916 3.938 18.0996L3.046 21.1316C2.99478 21.3057 2.99141 21.4904 3.03624 21.6662C3.08107 21.8421 3.17245 22.0026 3.30076 22.1309C3.42907 22.2592 3.58958 22.3506 3.76542 22.3954C3.94125 22.4402 4.12592 22.4369 4.3 22.3856L7.332 21.4936C8.89074 22.4366 10.6782 22.934 12.5 22.9316C18.023 22.9316 22.5 18.4546 22.5 12.9316C22.5 7.40864 18.023 2.93164 12.5 2.93164ZM10.238 15.1946C12.261 17.2166 14.192 17.4836 14.874 17.5086C15.911 17.5466 16.921 16.7546 17.314 15.8356C17.3632 15.7212 17.381 15.5958 17.3655 15.4722C17.35 15.3486 17.3019 15.2314 17.226 15.1326C16.678 14.4326 15.937 13.9296 15.213 13.4296C15.0619 13.3249 14.8761 13.2828 14.6946 13.3123C14.5131 13.3417 14.3502 13.4405 14.24 13.5876L13.64 14.5026C13.6083 14.5516 13.5591 14.5868 13.5025 14.6009C13.4459 14.615 13.386 14.607 13.335 14.5786C12.928 14.3456 12.335 13.9496 11.909 13.5236C11.483 13.0976 11.111 12.5316 10.902 12.1506C10.8767 12.1021 10.8696 12.0461 10.8819 11.9928C10.8941 11.9395 10.925 11.8922 10.969 11.8596L11.893 11.1736C12.0252 11.0592 12.1106 10.9 12.1328 10.7266C12.1549 10.5531 12.1123 10.3776 12.013 10.2336C11.565 9.57764 11.043 8.74364 10.286 8.19064C10.1881 8.1203 10.0737 8.07643 9.95385 8.06329C9.83402 8.05015 9.71282 8.06818 9.602 8.11564C8.682 8.50964 7.886 9.51964 7.924 10.5586C7.949 11.2406 8.216 13.1716 10.238 15.1946Z" fill="white"/>
</g>
</g>
<defs>
<clipPath id="clip0_1510_18805">
<rect width="24" height="24" fill="white" transform="translate(0.5 0.931641)"/>
</clipPath>
</defs>
</svg>
