<svg width="40" height="40" viewBox="0 0 40 40" fill="none" xmlns="http://www.w3.org/2000/svg">
<path fill-rule="evenodd" clip-rule="evenodd" d="M34.8554 27.1912L33.5739 16.8667C32.7933 13.1827 30.5838 11.6666 28.4774 11.6666H11.5529C9.41703 11.6666 7.13391 13.0766 6.47107 16.8667L5.17484 27.1912C4.11429 34.7715 8.0177 36.6666 13.1142 36.6666H26.9308C32.0126 36.6666 35.7981 33.9225 34.8554 27.1912ZM15.1617 20.2476C14.3482 20.2476 13.6887 19.5688 13.6887 18.7315C13.6887 17.8942 14.3482 17.2154 15.1617 17.2154C15.9752 17.2154 16.6346 17.8942 16.6346 18.7315C16.6346 19.5688 15.9752 20.2476 15.1617 20.2476ZM23.3367 18.7315C23.3367 19.5688 23.9962 20.2476 24.8097 20.2476C25.6232 20.2476 26.2827 19.5688 26.2827 18.7315C26.2827 17.8942 25.6232 17.2154 24.8097 17.2154C23.9962 17.2154 23.3367 17.8942 23.3367 18.7315Z" fill="#FF9076"/>
<path opacity="0.4" d="M28.2897 11.2905C28.295 11.4198 28.2701 11.5485 28.2172 11.6666H25.822C25.7756 11.5466 25.751 11.4192 25.7494 11.2905C25.7494 8.09469 23.1497 5.50395 19.9429 5.50395C16.736 5.50395 14.1364 8.09469 14.1364 11.2905C14.1583 11.4149 14.1583 11.5422 14.1364 11.6666H11.6831C11.6611 11.5422 11.6611 11.4149 11.6831 11.2905C11.8695 6.84316 15.5416 3.33331 20.0082 3.33331C24.4748 3.33331 28.1469 6.84316 28.3333 11.2905H28.2897Z" fill="#FF9076"/>
</svg>
