<svg width="40" height="40" viewBox="0 0 40 40" fill="none" xmlns="http://www.w3.org/2000/svg">
<path opacity="0.4" d="M35.5517 12.4042C34.8534 11.9643 33.9951 11.9253 33.2634 12.2976L30.7934 13.5446C29.88 14.0049 29.3134 14.9355 29.3134 15.971V25.6935C29.3134 26.7291 29.88 27.658 30.7934 28.1216L33.2617 29.367C33.5967 29.5396 33.9551 29.6225 34.3134 29.6225C34.7434 29.6225 35.1701 29.5006 35.5517 29.2621C36.2501 28.8238 36.6668 28.0641 36.6668 27.2316V14.4363C36.6668 13.6039 36.2501 12.8441 35.5517 12.4042" fill="#0487FF"/>
<path d="M19.8419 33.3333H10.1884C6.15174 33.3333 3.33337 30.5499 3.33337 26.5651V15.1015C3.33337 11.115 6.15174 8.33331 10.1884 8.33331H19.8419C23.8786 8.33331 26.6969 11.115 26.6969 15.1015V26.5651C26.6969 30.5499 23.8786 33.3333 19.8419 33.3333" fill="#0487FF"/>
</svg>
