<svg width="40" height="40" viewBox="0 0 40 40" fill="none" xmlns="http://www.w3.org/2000/svg">
<path opacity="0.4" d="M19.6267 36.3957C15.8216 34.0455 12.2845 31.2742 9.07991 28.1327C6.81761 25.8896 5.08987 23.1508 4.02871 20.1254C2.13265 14.2254 4.33978 7.48247 10.502 5.48066C13.7545 4.45922 17.2918 5.08626 20.0118 7.16639V7.16639C22.7328 5.08858 26.2691 4.46175 29.5217 5.48066C35.6839 7.48247 37.9059 14.2254 36.0098 20.1254C34.9573 23.1479 33.2398 25.8865 30.9882 28.1327C27.7807 31.2708 24.244 34.0418 20.4414 36.3957L20.0267 36.6667L19.6267 36.3957Z" fill="#FF5FA2"/>
<path d="M20.0182 36.6667L19.6267 36.3958C15.8169 34.0457 12.2748 31.2745 9.06507 28.1327C6.79204 25.8927 5.05401 23.1537 3.98424 20.1255C2.103 14.2254 4.31012 7.48248 10.4723 5.48067C13.7248 4.45923 17.3088 5.08675 20.0182 7.1843V36.6667Z" fill="#FF5FA2"/>
<path d="M30.3842 16.6654V16.6654C30.0494 16.6438 29.7376 16.4765 29.5219 16.2026C29.3061 15.9287 29.2054 15.5723 29.2433 15.2169V15.2169C29.2795 14.0463 28.6134 12.9808 27.5863 12.5663C26.935 12.3885 26.5405 11.6831 26.7035 10.9875C26.8581 10.303 27.499 9.87745 28.1431 10.0315C28.2245 10.045 28.3028 10.0745 28.374 10.1184C30.4335 10.911 31.767 13.044 31.6608 15.3763C31.6575 15.7298 31.5197 16.0666 31.279 16.3097C31.0382 16.5527 30.7153 16.6811 30.3842 16.6654Z" fill="#FF5FA2"/>
</svg>
