<svg width="429" height="42" viewBox="0 0 429 42" fill="none" xmlns="http://www.w3.org/2000/svg">
<path fill-rule="evenodd" clip-rule="evenodd" d="M428.121 0.353751C428.2 0.333012 428.257 0.261393 428.257 0.179524C428.257 0.0803755 428.176 0 428.077 0H1.07309C0.480438 0 0 0.480438 0 1.07309C0 1.51248 0.269279 1.90637 0.674098 2.07721C9.7622 5.91256 15.8522 12.9516 15.8522 21C15.8522 29.0633 9.73975 36.1134 0.623866 39.9439C0.249193 40.1014 0 40.4659 0 40.8723C0 41.4204 0.444369 41.8648 0.99253 41.8648H428.153C428.21 41.8648 428.257 41.8185 428.257 41.7615C428.257 41.7143 428.224 41.6731 428.179 41.6612C416.316 38.574 407.852 30.4885 407.852 21C407.852 11.5268 416.289 3.4521 428.121 0.353751Z" fill="url(#paint0_linear_62_309)"/>
<path d="M68.3205 12.8V8.672H76.0325V32H71.4245V12.8H68.3205ZM84.6936 19.648C82.5602 18.5387 81.4936 16.8213 81.4936 14.496C81.4936 13.344 81.7816 12.2987 82.3576 11.36C82.9549 10.4 83.8402 9.64267 85.0136 9.088C86.2082 8.512 87.6589 8.224 89.3656 8.224C91.0722 8.224 92.5122 8.512 93.6856 9.088C94.8802 9.64267 95.7656 10.4 96.3416 11.36C96.9389 12.2987 97.2376 13.344 97.2376 14.496C97.2376 15.6693 96.9496 16.704 96.3736 17.6C95.7976 18.4747 95.0296 19.1573 94.0696 19.648C95.2429 20.16 96.1602 20.9067 96.8216 21.888C97.4829 22.8693 97.8136 24.032 97.8136 25.376C97.8136 26.8267 97.4402 28.096 96.6936 29.184C95.9682 30.2507 94.9656 31.072 93.6856 31.648C92.4056 32.224 90.9656 32.512 89.3656 32.512C87.7656 32.512 86.3256 32.224 85.0456 31.648C83.7869 31.072 82.7842 30.2507 82.0376 29.184C81.3122 28.096 80.9496 26.8267 80.9496 25.376C80.9496 24.032 81.2802 22.8693 81.9416 21.888C82.6029 20.8853 83.5202 20.1387 84.6936 19.648ZM92.8856 15.136C92.8856 14.0907 92.5656 13.28 91.9256 12.704C91.3069 12.128 90.4536 11.84 89.3656 11.84C88.2989 11.84 87.4456 12.128 86.8056 12.704C86.1869 13.28 85.8776 14.1013 85.8776 15.168C85.8776 16.128 86.1976 16.896 86.8376 17.472C87.4989 18.048 88.3416 18.336 89.3656 18.336C90.3896 18.336 91.2322 18.048 91.8936 17.472C92.5549 16.8747 92.8856 16.096 92.8856 15.136ZM89.3656 21.6C88.1496 21.6 87.1576 21.9093 86.3896 22.528C85.6429 23.1467 85.2696 24.032 85.2696 25.184C85.2696 26.2507 85.6322 27.1253 86.3576 27.808C87.1042 28.4693 88.1069 28.8 89.3656 28.8C90.6242 28.8 91.6162 28.4587 92.3416 27.776C93.0669 27.0933 93.4296 26.2293 93.4296 25.184C93.4296 24.0533 93.0562 23.1787 92.3096 22.56C91.5629 21.92 90.5816 21.6 89.3656 21.6ZM104.442 12.5712V17.7168C104.442 18.0752 104.525 18.3376 104.691 18.504C104.871 18.6576 105.165 18.7344 105.575 18.7344H106.823V21H105.133C102.867 21 101.735 19.8992 101.735 17.6976V12.5712H100.467V10.3632H101.735V7.7328H104.442V10.3632H106.823V12.5712H104.442ZM115.078 10.2096C115.884 10.2096 116.601 10.3888 117.228 10.7472C117.855 11.0928 118.342 11.6112 118.687 12.3024C119.046 12.9808 119.225 13.8 119.225 14.76V21H116.537V15.1248C116.537 14.28 116.326 13.6336 115.903 13.1856C115.481 12.7248 114.905 12.4944 114.175 12.4944C113.433 12.4944 112.844 12.7248 112.409 13.1856C111.986 13.6336 111.775 14.28 111.775 15.1248V21H109.087V6.792H111.775V11.688C112.121 11.2272 112.582 10.8688 113.158 10.6128C113.734 10.344 114.374 10.2096 115.078 10.2096ZM141.32 32.224C139.229 32.224 137.309 31.7333 135.56 30.752C133.81 29.7707 132.424 28.416 131.4 26.688C130.376 24.9387 129.864 22.9653 129.864 20.768C129.864 18.592 130.376 16.64 131.4 14.912C132.424 13.1627 133.81 11.7973 135.56 10.816C137.309 9.83467 139.229 9.344 141.32 9.344C143.432 9.344 145.352 9.83467 147.08 10.816C148.829 11.7973 150.205 13.1627 151.208 14.912C152.232 16.64 152.744 18.592 152.744 20.768C152.744 22.9653 152.232 24.9387 151.208 26.688C150.205 28.416 148.829 29.7707 147.08 30.752C145.33 31.7333 143.41 32.224 141.32 32.224ZM141.32 28.224C142.664 28.224 143.848 27.9253 144.872 27.328C145.896 26.7093 146.696 25.8347 147.272 24.704C147.848 23.5733 148.136 22.2613 148.136 20.768C148.136 19.2747 147.848 17.9733 147.272 16.864C146.696 15.7333 145.896 14.8693 144.872 14.272C143.848 13.6747 142.664 13.376 141.32 13.376C139.976 13.376 138.781 13.6747 137.736 14.272C136.712 14.8693 135.912 15.7333 135.336 16.864C134.76 17.9733 134.472 19.2747 134.472 20.768C134.472 22.2613 134.76 23.5733 135.336 24.704C135.912 25.8347 136.712 26.7093 137.736 27.328C138.781 27.9253 139.976 28.224 141.32 28.224ZM155.256 23.136C155.256 21.3013 155.629 19.7013 156.376 18.336C157.123 16.9493 158.157 15.8827 159.48 15.136C160.803 14.368 162.317 13.984 164.024 13.984C166.221 13.984 168.035 14.5387 169.464 15.648C170.915 16.736 171.885 18.272 172.376 20.256H167.544C167.288 19.488 166.851 18.8907 166.232 18.464C165.635 18.016 164.888 17.792 163.992 17.792C162.712 17.792 161.699 18.2613 160.952 19.2C160.205 20.1173 159.832 21.4293 159.832 23.136C159.832 24.8213 160.205 26.1333 160.952 27.072C161.699 27.9893 162.712 28.448 163.992 28.448C165.805 28.448 166.989 27.6373 167.544 26.016H172.376C171.885 27.936 170.915 29.4613 169.464 30.592C168.013 31.7227 166.2 32.288 164.024 32.288C162.317 32.288 160.803 31.9147 159.48 31.168C158.157 30.4 157.123 29.3333 156.376 27.968C155.629 26.5813 155.256 24.9707 155.256 23.136ZM181.205 17.952V26.528C181.205 27.1253 181.344 27.5627 181.621 27.84C181.92 28.096 182.411 28.224 183.093 28.224H185.173V32H182.357C178.581 32 176.693 30.1653 176.693 26.496V17.952H174.581V14.272H176.693V9.888H181.205V14.272H185.173V17.952H181.205ZM201.899 17.952V26.528C201.899 27.1253 202.038 27.5627 202.315 27.84C202.614 28.096 203.104 28.224 203.787 28.224H205.867V32H203.051C199.275 32 197.387 30.1653 197.387 26.496V17.952H195.275V14.272H197.387V9.888H201.899V14.272H205.867V17.952H201.899ZM217.293 32.288C215.586 32.288 214.05 31.9147 212.685 31.168C211.319 30.4 210.242 29.3227 209.453 27.936C208.685 26.5493 208.301 24.9493 208.301 23.136C208.301 21.3227 208.695 19.7227 209.485 18.336C210.295 16.9493 211.394 15.8827 212.781 15.136C214.167 14.368 215.714 13.984 217.421 13.984C219.127 13.984 220.674 14.368 222.061 15.136C223.447 15.8827 224.535 16.9493 225.325 18.336C226.135 19.7227 226.541 21.3227 226.541 23.136C226.541 24.9493 226.125 26.5493 225.293 27.936C224.482 29.3227 223.373 30.4 221.965 31.168C220.578 31.9147 219.021 32.288 217.293 32.288ZM217.293 28.384C218.103 28.384 218.861 28.192 219.565 27.808C220.29 27.4027 220.866 26.8053 221.293 26.016C221.719 25.2267 221.933 24.2667 221.933 23.136C221.933 21.4507 221.485 20.16 220.589 19.264C219.714 18.3467 218.637 17.888 217.357 17.888C216.077 17.888 214.999 18.3467 214.125 19.264C213.271 20.16 212.845 21.4507 212.845 23.136C212.845 24.8213 213.261 26.1227 214.093 27.04C214.946 27.936 216.013 28.384 217.293 28.384ZM239.01 26.944C241.058 25.2373 242.69 23.8187 243.906 22.688C245.122 21.536 246.136 20.3413 246.946 19.104C247.757 17.8667 248.162 16.6507 248.162 15.456C248.162 14.368 247.906 13.5147 247.394 12.896C246.882 12.2773 246.093 11.968 245.026 11.968C243.96 11.968 243.138 12.3307 242.562 13.056C241.986 13.76 241.688 14.7307 241.666 15.968H237.314C237.4 13.408 238.157 11.4667 239.586 10.144C241.037 8.82133 242.872 8.16 245.09 8.16C247.522 8.16 249.389 8.81067 250.69 10.112C251.992 11.392 252.642 13.088 252.642 15.2C252.642 16.864 252.194 18.4533 251.298 19.968C250.402 21.4827 249.378 22.8053 248.226 23.936C247.074 25.0453 245.57 26.3893 243.714 27.968H253.154V31.68H237.346V28.352L239.01 26.944ZM256.309 20.032C256.309 16.3413 256.97 13.4507 258.293 11.36C259.637 9.26933 261.855 8.224 264.949 8.224C268.042 8.224 270.25 9.26933 271.573 11.36C272.917 13.4507 273.589 16.3413 273.589 20.032C273.589 23.744 272.917 26.656 271.573 28.768C270.25 30.88 268.042 31.936 264.949 31.936C261.855 31.936 259.637 30.88 258.293 28.768C256.97 26.656 256.309 23.744 256.309 20.032ZM269.173 20.032C269.173 18.4533 269.066 17.1307 268.853 16.064C268.661 14.976 268.255 14.0907 267.637 13.408C267.039 12.7253 266.143 12.384 264.949 12.384C263.754 12.384 262.847 12.7253 262.229 13.408C261.631 14.0907 261.226 14.976 261.013 16.064C260.821 17.1307 260.725 18.4533 260.725 20.032C260.725 21.6533 260.821 23.0187 261.013 24.128C261.205 25.216 261.61 26.1013 262.229 26.784C262.847 27.4453 263.754 27.776 264.949 27.776C266.143 27.776 267.05 27.4453 267.669 26.784C268.287 26.1013 268.693 25.216 268.885 24.128C269.077 23.0187 269.173 21.6533 269.173 20.032ZM280.086 12.5712V17.7168C280.086 18.0752 280.169 18.3376 280.335 18.504C280.515 18.6576 280.809 18.7344 281.219 18.7344H282.467V21H280.777C278.511 21 277.379 19.8992 277.379 17.6976V12.5712H276.111V10.3632H277.379V7.7328H280.086V10.3632H282.467V12.5712H280.086ZM290.722 10.2096C291.528 10.2096 292.245 10.3888 292.872 10.7472C293.499 11.0928 293.986 11.6112 294.331 12.3024C294.69 12.9808 294.869 13.8 294.869 14.76V21H292.181V15.1248C292.181 14.28 291.97 13.6336 291.547 13.1856C291.125 12.7248 290.549 12.4944 289.819 12.4944C289.077 12.4944 288.488 12.7248 288.053 13.1856C287.63 13.6336 287.419 14.28 287.419 15.1248V21H284.731V6.792H287.419V11.688C287.765 11.2272 288.226 10.8688 288.802 10.6128C289.378 10.344 290.018 10.2096 290.722 10.2096ZM316.964 32.224C314.873 32.224 312.953 31.7333 311.204 30.752C309.454 29.7707 308.068 28.416 307.044 26.688C306.02 24.9387 305.508 22.9653 305.508 20.768C305.508 18.592 306.02 16.64 307.044 14.912C308.068 13.1627 309.454 11.7973 311.204 10.816C312.953 9.83467 314.873 9.344 316.964 9.344C319.076 9.344 320.996 9.83467 322.724 10.816C324.473 11.7973 325.849 13.1627 326.852 14.912C327.876 16.64 328.388 18.592 328.388 20.768C328.388 22.9653 327.876 24.9387 326.852 26.688C325.849 28.416 324.473 29.7707 322.724 30.752C320.974 31.7333 319.054 32.224 316.964 32.224ZM316.964 28.224C318.308 28.224 319.492 27.9253 320.516 27.328C321.54 26.7093 322.34 25.8347 322.916 24.704C323.492 23.5733 323.78 22.2613 323.78 20.768C323.78 19.2747 323.492 17.9733 322.916 16.864C322.34 15.7333 321.54 14.8693 320.516 14.272C319.492 13.6747 318.308 13.376 316.964 13.376C315.62 13.376 314.425 13.6747 313.38 14.272C312.356 14.8693 311.556 15.7333 310.98 16.864C310.404 17.9733 310.116 19.2747 310.116 20.768C310.116 22.2613 310.404 23.5733 310.98 24.704C311.556 25.8347 312.356 26.7093 313.38 27.328C314.425 27.9253 315.62 28.224 316.964 28.224ZM330.9 23.136C330.9 21.3013 331.273 19.7013 332.02 18.336C332.767 16.9493 333.801 15.8827 335.124 15.136C336.447 14.368 337.961 13.984 339.668 13.984C341.865 13.984 343.679 14.5387 345.108 15.648C346.559 16.736 347.529 18.272 348.02 20.256H343.188C342.932 19.488 342.495 18.8907 341.876 18.464C341.279 18.016 340.532 17.792 339.636 17.792C338.356 17.792 337.343 18.2613 336.596 19.2C335.849 20.1173 335.476 21.4293 335.476 23.136C335.476 24.8213 335.849 26.1333 336.596 27.072C337.343 27.9893 338.356 28.448 339.636 28.448C341.449 28.448 342.633 27.6373 343.188 26.016H348.02C347.529 27.936 346.559 29.4613 345.108 30.592C343.657 31.7227 341.844 32.288 339.668 32.288C337.961 32.288 336.447 31.9147 335.124 31.168C333.801 30.4 332.767 29.3333 332.02 27.968C331.273 26.5813 330.9 24.9707 330.9 23.136ZM356.849 17.952V26.528C356.849 27.1253 356.988 27.5627 357.265 27.84C357.564 28.096 358.055 28.224 358.737 28.224H360.817V32H358.001C354.225 32 352.337 30.1653 352.337 26.496V17.952H350.225V14.272H352.337V9.888H356.849V14.272H360.817V17.952H356.849Z" fill="#212115"/>
<defs>
<linearGradient id="paint0_linear_62_309" x1="0.0672607" y1="20.9324" x2="428.189" y2="20.9324" gradientUnits="userSpaceOnUse">
<stop stop-color="#E5CA7D"/>
<stop offset="1" stop-color="#E5D388"/>
</linearGradient>
</defs>
</svg>
