<svg width="43" height="42" viewBox="0 0 43 42" fill="none" xmlns="http://www.w3.org/2000/svg">
<g id="fi_2370264">
<g id="Group">
<path id="Vector" d="M32.576 20.6271H35.5057C36.168 20.6271 36.7068 20.0882 36.7068 19.4259V16.4962C36.7068 15.8339 36.168 15.2951 35.5057 15.2951H32.576C31.9137 15.2951 31.3748 15.8339 31.3748 16.4962V19.4259C31.3748 20.0882 31.9137 20.6271 32.576 20.6271ZM32.6053 16.5255H35.4764V19.3966H32.6053V16.5255ZM32.576 28.4201H35.5057C36.168 28.4201 36.7068 27.8812 36.7068 27.2189V24.2892C36.7068 23.6269 36.168 23.088 35.5057 23.088H32.576C31.9137 23.088 31.3748 23.6269 31.3748 24.2892V27.2189C31.3748 27.8812 31.9137 28.4201 32.576 28.4201ZM32.6053 24.3185H35.4764V27.1896H32.6053V24.3185ZM24.2157 20.6271H27.1454C27.8077 20.6271 28.3465 20.0882 28.3465 19.4259V16.4962C28.3465 15.8339 27.8077 15.2951 27.1454 15.2951H24.2157C23.5534 15.2951 23.0145 15.8339 23.0145 16.4962V19.4259C23.0145 20.0882 23.5534 20.6271 24.2157 20.6271ZM24.245 16.5255H27.1161V19.3966H24.245V16.5255ZM10.4248 30.5156H7.49511C6.83279 30.5156 6.29392 31.0545 6.29392 31.7168V34.6465C6.29392 35.3088 6.83279 35.8477 7.49511 35.8477H10.4248C11.0871 35.8477 11.626 35.3088 11.626 34.6465V31.7168C11.626 31.0545 11.0871 30.5156 10.4248 30.5156ZM10.3955 34.6172H7.52439V31.7461H10.3955V34.6172ZM10.4248 15.2951H7.49511C6.83279 15.2951 6.29392 15.8339 6.29392 16.4962V19.4259C6.29392 20.0882 6.83279 20.6271 7.49511 20.6271H10.4248C11.0871 20.6271 11.626 20.0882 11.626 19.4259V16.4962C11.626 15.8338 11.0871 15.2951 10.4248 15.2951ZM10.3955 19.3966H7.52439V16.5255H10.3955V19.3966ZM24.2157 28.2374H27.1454C27.8077 28.2374 28.3465 27.6985 28.3465 27.0362V24.1065C28.3465 23.4442 27.8077 22.9053 27.1454 22.9053H24.2157C23.5534 22.9053 23.0145 23.4442 23.0145 24.1065V27.0362C23.0145 27.6985 23.5534 28.2374 24.2157 28.2374ZM24.245 24.1358H27.1161V27.0069H24.245V24.1358ZM37.3179 2.81154H34.6875V1.87089C34.6875 0.839262 33.8482 0 32.8166 0H32.5341C31.5025 0 30.6633 0.839262 30.6633 1.87089V2.81154H12.3375V1.87089C12.3375 0.839262 11.4982 0 10.4666 0H10.1841C9.15247 0 8.31321 0.839262 8.31321 1.87089V2.81154H5.68287C3.98442 2.81154 2.6026 4.19336 2.6026 5.89181V38.9238C2.6026 40.6201 3.98253 42 5.67877 42H37.3222C39.0184 42 40.3983 40.6201 40.3983 38.9238V5.89181C40.3983 4.19336 39.0164 2.81154 37.3179 2.81154ZM31.8937 1.87089C31.8937 1.51774 32.181 1.23047 32.5342 1.23047H32.8167C33.1698 1.23047 33.4571 1.51774 33.4571 1.87089V2.81154H31.8937V1.87089ZM9.54376 1.87089C9.54376 1.51774 9.83103 1.23047 10.1842 1.23047H10.4667C10.8198 1.23047 11.1071 1.51774 11.1071 1.87089V2.81154H9.54384V1.87089H9.54376ZM39.1678 38.9238C39.1678 39.9416 38.3398 40.7695 37.3221 40.7695H5.67869C4.66093 40.7695 3.83299 39.9416 3.83299 38.9238V38.92C4.34847 39.3084 4.98922 39.5391 5.68287 39.5391H30.6272C31.45 39.5391 32.2235 39.2187 32.8053 38.6368L39.1678 32.2743V38.9238ZM32.1775 37.5245C32.2257 37.3254 32.252 37.1177 32.252 36.9041V32.7972C32.252 32.0229 32.8821 31.3928 33.6565 31.3928H37.7632C37.9769 31.3928 38.1846 31.3665 38.3836 31.3183L32.1775 37.5245ZM39.1678 11.6036H12.9527C12.613 11.6036 12.3375 11.8791 12.3375 12.2189C12.3375 12.5587 12.613 12.8341 12.9527 12.8341H39.1678V28.7579C39.1678 29.5323 38.5377 30.1624 37.7632 30.1624H33.6565C32.2036 30.1624 31.0215 31.3445 31.0215 32.7973V36.9041C31.0215 37.6786 30.3914 38.3087 29.6171 38.3087H5.68287C4.6629 38.3087 3.83307 37.4788 3.83307 36.4588V12.8341H10.4918C10.8316 12.8341 11.107 12.5587 11.107 12.2189C11.107 11.8791 10.8316 11.6036 10.4918 11.6036H3.83299V5.89181C3.83299 4.87184 4.66281 4.04201 5.68279 4.04201H8.31321V5.85096C8.31321 6.88259 9.15247 7.72185 10.1841 7.72185C10.5239 7.72185 10.7993 7.44639 10.7993 7.10661C10.7993 6.76684 10.5239 6.49138 10.1841 6.49138C9.83095 6.49138 9.54367 6.20411 9.54367 5.85096V4.04201H30.6633V5.85096C30.6633 6.88259 31.5025 7.72185 32.5342 7.72185C32.8739 7.72185 33.1494 7.44639 33.1494 7.10661C33.1494 6.76684 32.8739 6.49138 32.5342 6.49138C32.181 6.49138 31.8937 6.20411 31.8937 5.85096V4.04201H37.318C38.338 4.04201 39.1678 4.87184 39.1678 5.89181V11.6036ZM10.4248 22.9053H7.49511C6.83279 22.9053 6.29392 23.4442 6.29392 24.1065V27.0362C6.29392 27.6985 6.83279 28.2374 7.49511 28.2374H10.4248C11.0871 28.2374 11.626 27.6985 11.626 27.0362V24.1065C11.626 23.4441 11.0871 22.9053 10.4248 22.9053ZM10.3955 27.0069H7.52439V24.1358H10.3955V27.0069ZM15.8554 20.6271H18.7851C19.4474 20.6271 19.9863 20.0882 19.9863 19.4259V16.4962C19.9863 15.8339 19.4474 15.2951 18.7851 15.2951H15.8554C15.1931 15.2951 14.6542 15.8339 14.6542 16.4962V19.4259C14.6542 20.0882 15.1931 20.6271 15.8554 20.6271ZM15.8847 16.5255H18.7558V19.3966H15.8847V16.5255ZM24.2442 34.6172C24.229 34.291 23.9597 34.0312 23.6297 34.0312C23.2899 34.0312 23.0144 34.3067 23.0144 34.6465C23.0144 35.3088 23.5533 35.8477 24.2156 35.8477H27.1453C27.8076 35.8477 28.3465 35.3088 28.3465 34.6465V31.7168C28.3465 31.0545 27.8076 30.5156 27.1453 30.5156H24.2156C23.5533 30.5156 23.0144 31.0545 23.0144 31.7168V32.5617C23.0144 32.9015 23.2899 33.177 23.6297 33.177C23.9694 33.177 24.2449 32.9015 24.2449 32.5617V31.7461H27.116V34.6172H24.2442ZM15.8554 28.2374H18.7851C19.4474 28.2374 19.9863 27.6985 19.9863 27.0362V24.1065C19.9863 23.4442 19.4474 22.9053 18.7851 22.9053H15.8554C15.1931 22.9053 14.6542 23.4442 14.6542 24.1065V27.0362C14.6542 27.6985 15.1931 28.2374 15.8554 28.2374ZM15.8847 24.1358H18.7558V27.0069H15.8847V24.1358ZM15.8554 35.8477H18.7851C19.4474 35.8477 19.9863 35.3088 19.9863 34.6465V31.7168C19.9863 31.0545 19.4474 30.5156 18.7851 30.5156H15.8554C15.1931 30.5156 14.6542 31.0545 14.6542 31.7168V34.6465C14.6542 35.3088 15.1931 35.8477 15.8554 35.8477ZM15.8847 31.7461H18.7558V34.6172H15.8847V31.7461Z" fill="white"/>
</g>
</g>
</svg>
