<svg width="429" height="42" viewBox="0 0 429 42" fill="none" xmlns="http://www.w3.org/2000/svg">
<rect x="17" y="0.5" width="395" height="40.8648" stroke="black"/>
<rect x="17" y="0.5" width="395" height="40.8648" stroke="black" stroke-opacity="0.2"/>
<path fill-rule="evenodd" clip-rule="evenodd" d="M428.621 0.353751C428.701 0.333012 428.757 0.261393 428.757 0.179524C428.757 0.0803755 428.676 0 428.577 0H1.57312C0.980468 0 0.500031 0.480438 0.500031 1.07309C0.500031 1.51248 0.769309 1.90637 1.17413 2.07721C10.2622 5.91256 16.3522 12.9516 16.3522 21C16.3522 29.0633 10.2398 36.1134 1.1239 39.9439C0.749224 40.1014 0.500031 40.4659 0.500031 40.8723C0.500031 41.4204 0.944399 41.8648 1.49256 41.8648H428.653C428.71 41.8648 428.757 41.8185 428.757 41.7615C428.757 41.7143 428.724 41.6731 428.679 41.6612C416.816 38.574 408.352 30.4885 408.352 21C408.352 11.5268 416.789 3.4521 428.621 0.353751Z" fill="#A62C2E"/>
<path d="M105.991 26.944C108.039 25.2373 109.671 23.8187 110.887 22.688C112.103 21.536 113.117 20.3413 113.927 19.104C114.738 17.8667 115.143 16.6507 115.143 15.456C115.143 14.368 114.887 13.5147 114.375 12.896C113.863 12.2773 113.074 11.968 112.007 11.968C110.941 11.968 110.119 12.3307 109.543 13.056C108.967 13.76 108.669 14.7307 108.647 15.968H104.295C104.381 13.408 105.138 11.4667 106.567 10.144C108.018 8.82133 109.853 8.16 112.071 8.16C114.503 8.16 116.37 8.81067 117.671 10.112C118.973 11.392 119.623 13.088 119.623 15.2C119.623 16.864 119.175 18.4533 118.279 19.968C117.383 21.4827 116.359 22.8053 115.207 23.936C114.055 25.0453 112.551 26.3893 110.695 27.968H120.135V31.68H104.327V28.352L105.991 26.944ZM135.386 14.496C135.172 13.6 134.799 12.928 134.266 12.48C133.754 12.032 133.007 11.808 132.026 11.808C130.554 11.808 129.466 12.4053 128.762 13.6C128.079 14.7733 127.727 16.6933 127.706 19.36C128.218 18.5067 128.964 17.8453 129.946 17.376C130.927 16.8853 131.994 16.64 133.146 16.64C134.532 16.64 135.759 16.9387 136.826 17.536C137.892 18.1333 138.724 19.008 139.322 20.16C139.919 21.2907 140.218 22.656 140.218 24.256C140.218 25.7707 139.908 27.1253 139.29 28.32C138.692 29.4933 137.807 30.4107 136.634 31.072C135.46 31.7333 134.063 32.064 132.442 32.064C130.223 32.064 128.474 31.5733 127.194 30.592C125.935 29.6107 125.05 28.2453 124.538 26.496C124.047 24.7253 123.802 22.5493 123.802 19.968C123.802 16.064 124.474 13.12 125.818 11.136C127.162 9.13067 129.284 8.128 132.186 8.128C134.426 8.128 136.164 8.736 137.402 9.952C138.639 11.168 139.354 12.6827 139.546 14.496H135.386ZM132.122 20.32C130.991 20.32 130.042 20.6507 129.274 21.312C128.506 21.9733 128.122 22.9333 128.122 24.192C128.122 25.4507 128.474 26.4427 129.178 27.168C129.903 27.8933 130.916 28.256 132.218 28.256C133.37 28.256 134.276 27.904 134.938 27.2C135.62 26.496 135.962 25.5467 135.962 24.352C135.962 23.1147 135.631 22.1333 134.97 21.408C134.33 20.6827 133.38 20.32 132.122 20.32ZM146.848 12.5712V17.7168C146.848 18.0752 146.931 18.3376 147.098 18.504C147.277 18.6576 147.571 18.7344 147.981 18.7344H149.229V21H147.539C145.274 21 144.141 19.8992 144.141 17.6976V12.5712H142.874V10.3632H144.141V7.7328H146.848V10.3632H149.229V12.5712H146.848ZM157.484 10.2096C158.29 10.2096 159.007 10.3888 159.634 10.7472C160.261 11.0928 160.748 11.6112 161.093 12.3024C161.452 12.9808 161.631 13.8 161.631 14.76V21H158.943V15.1248C158.943 14.28 158.732 13.6336 158.309 13.1856C157.887 12.7248 157.311 12.4944 156.581 12.4944C155.839 12.4944 155.25 12.7248 154.815 13.1856C154.393 13.6336 154.181 14.28 154.181 15.1248V21H151.493V6.792H154.181V11.688C154.527 11.2272 154.988 10.8688 155.564 10.6128C156.14 10.344 156.78 10.2096 157.484 10.2096ZM190.542 32L188.11 29.6C186.041 31.456 183.513 32.384 180.526 32.384C178.883 32.384 177.433 32.1067 176.174 31.552C174.937 30.976 173.977 30.176 173.294 29.152C172.611 28.1067 172.27 26.9013 172.27 25.536C172.27 24.064 172.686 22.7413 173.518 21.568C174.35 20.3947 175.577 19.4453 177.198 18.72C176.622 18.016 176.206 17.344 175.95 16.704C175.694 16.0427 175.566 15.3387 175.566 14.592C175.566 13.568 175.833 12.6507 176.366 11.84C176.899 11.008 177.657 10.3573 178.638 9.888C179.641 9.41866 180.803 9.184 182.126 9.184C183.47 9.184 184.622 9.44 185.582 9.952C186.542 10.464 187.257 11.1467 187.726 12C188.195 12.8533 188.398 13.8027 188.334 14.848H183.982C184.003 14.144 183.833 13.6107 183.47 13.248C183.107 12.864 182.617 12.672 181.998 12.672C181.401 12.672 180.899 12.8533 180.494 13.216C180.11 13.5573 179.918 14.0053 179.918 14.56C179.918 15.0933 180.078 15.6267 180.398 16.16C180.718 16.672 181.241 17.312 181.966 18.08L187.598 23.648C187.641 23.6053 187.673 23.5627 187.694 23.52C187.715 23.4773 187.737 23.4347 187.758 23.392L189.582 20.352H194.254L192.014 24.288C191.587 25.12 191.129 25.9093 190.638 26.656L196.046 32H190.542ZM180.654 28.672C182.403 28.672 183.95 28.0533 185.294 26.816L179.79 21.376C177.721 22.2933 176.686 23.5947 176.686 25.28C176.686 26.24 177.049 27.0507 177.774 27.712C178.499 28.352 179.459 28.672 180.654 28.672ZM207.448 26.944C209.496 25.2373 211.128 23.8187 212.344 22.688C213.56 21.536 214.573 20.3413 215.384 19.104C216.194 17.8667 216.6 16.6507 216.6 15.456C216.6 14.368 216.344 13.5147 215.832 12.896C215.32 12.2773 214.53 11.968 213.464 11.968C212.397 11.968 211.576 12.3307 211 13.056C210.424 13.76 210.125 14.7307 210.104 15.968H205.752C205.837 13.408 206.594 11.4667 208.024 10.144C209.474 8.82133 211.309 8.16 213.528 8.16C215.96 8.16 217.826 8.81067 219.128 10.112C220.429 11.392 221.08 13.088 221.08 15.2C221.08 16.864 220.632 18.4533 219.736 19.968C218.84 21.4827 217.816 22.8053 216.664 23.936C215.512 25.0453 214.008 26.3893 212.152 27.968H221.592V31.68H205.784V28.352L207.448 26.944ZM239.594 12.064L231.082 32H226.538L235.114 12.576H224.17V8.736H239.594V12.064ZM245.367 12.5712V17.7168C245.367 18.0752 245.45 18.3376 245.617 18.504C245.796 18.6576 246.09 18.7344 246.5 18.7344H247.748V21H246.058C243.793 21 242.66 19.8992 242.66 17.6976V12.5712H241.393V10.3632H242.66V7.7328H245.367V10.3632H247.748V12.5712H245.367ZM256.003 10.2096C256.809 10.2096 257.526 10.3888 258.153 10.7472C258.78 11.0928 259.267 11.6112 259.612 12.3024C259.971 12.9808 260.15 13.8 260.15 14.76V21H257.462V15.1248C257.462 14.28 257.251 13.6336 256.828 13.1856C256.406 12.7248 255.83 12.4944 255.1 12.4944C254.358 12.4944 253.769 12.7248 253.334 13.1856C252.912 13.6336 252.7 14.28 252.7 15.1248V21H250.012V6.792H252.7V11.688C253.046 11.2272 253.507 10.8688 254.083 10.6128C254.659 10.344 255.299 10.2096 256.003 10.2096ZM282.245 32.224C280.154 32.224 278.234 31.7333 276.485 30.752C274.736 29.7707 273.349 28.416 272.325 26.688C271.301 24.9387 270.789 22.9653 270.789 20.768C270.789 18.592 271.301 16.64 272.325 14.912C273.349 13.1627 274.736 11.7973 276.485 10.816C278.234 9.83467 280.154 9.344 282.245 9.344C284.357 9.344 286.277 9.83467 288.005 10.816C289.754 11.7973 291.13 13.1627 292.133 14.912C293.157 16.64 293.669 18.592 293.669 20.768C293.669 22.9653 293.157 24.9387 292.133 26.688C291.13 28.416 289.754 29.7707 288.005 30.752C286.256 31.7333 284.336 32.224 282.245 32.224ZM282.245 28.224C283.589 28.224 284.773 27.9253 285.797 27.328C286.821 26.7093 287.621 25.8347 288.197 24.704C288.773 23.5733 289.061 22.2613 289.061 20.768C289.061 19.2747 288.773 17.9733 288.197 16.864C287.621 15.7333 286.821 14.8693 285.797 14.272C284.773 13.6747 283.589 13.376 282.245 13.376C280.901 13.376 279.706 13.6747 278.661 14.272C277.637 14.8693 276.837 15.7333 276.261 16.864C275.685 17.9733 275.397 19.2747 275.397 20.768C275.397 22.2613 275.685 23.5733 276.261 24.704C276.837 25.8347 277.637 26.7093 278.661 27.328C279.706 27.9253 280.901 28.224 282.245 28.224ZM296.181 23.136C296.181 21.3013 296.554 19.7013 297.301 18.336C298.048 16.9493 299.082 15.8827 300.405 15.136C301.728 14.368 303.242 13.984 304.949 13.984C307.146 13.984 308.96 14.5387 310.389 15.648C311.84 16.736 312.81 18.272 313.301 20.256H308.469C308.213 19.488 307.776 18.8907 307.157 18.464C306.56 18.016 305.813 17.792 304.917 17.792C303.637 17.792 302.624 18.2613 301.877 19.2C301.13 20.1173 300.757 21.4293 300.757 23.136C300.757 24.8213 301.13 26.1333 301.877 27.072C302.624 27.9893 303.637 28.448 304.917 28.448C306.73 28.448 307.914 27.6373 308.469 26.016H313.301C312.81 27.936 311.84 29.4613 310.389 30.592C308.938 31.7227 307.125 32.288 304.949 32.288C303.242 32.288 301.728 31.9147 300.405 31.168C299.082 30.4 298.048 29.3333 297.301 27.968C296.554 26.5813 296.181 24.9707 296.181 23.136ZM322.13 17.952V26.528C322.13 27.1253 322.269 27.5627 322.546 27.84C322.845 28.096 323.336 28.224 324.018 28.224H326.098V32H323.282C319.506 32 317.618 30.1653 317.618 26.496V17.952H315.506V14.272H317.618V9.888H322.13V14.272H326.098V17.952H322.13Z" fill="white"/>
</svg>
