<svg width="24" height="24" viewBox="0 0 24 24" fill="none" xmlns="http://www.w3.org/2000/svg">
<g id="fi_5913507" clip-path="url(#clip0_49_1800)">
<g id="Group">
<path id="Vector" d="M12.8266 18.0417C12.4578 17.6729 11.86 17.6729 11.4913 18.0417C11.1776 18.3554 11.1246 18.845 11.3637 19.2185L12.0129 20.2325C12.0811 20.339 12.2367 20.339 12.3049 20.2325L12.9541 19.2185C13.1933 18.845 13.1402 18.3554 12.8266 18.0417Z" fill="white"/>
<path id="Vector_2" d="M14.3095 19.7317C14.0715 19.7014 13.8524 19.7863 13.7004 19.9383C13.2733 20.3655 13.0749 20.9347 13.1051 21.4939C13.1105 21.594 13.2337 21.6414 13.3028 21.5688C13.5321 21.3284 13.8556 21.1785 14.2141 21.1785C14.6425 21.1785 14.9844 20.8075 14.936 20.3693C14.8997 20.0409 14.6373 19.7734 14.3095 19.7317Z" fill="white"/>
<path id="Vector_3" d="M9.69047 19.7317C9.36267 19.7734 9.10026 20.0409 9.06403 20.3693C9.01561 20.8075 9.35747 21.1785 9.7859 21.1785C10.1444 21.1785 10.4679 21.3284 10.6972 21.5688C10.7663 21.6414 10.8895 21.594 10.8949 21.4939C10.9251 20.9347 10.7267 20.3655 10.2996 19.9383C10.1475 19.7863 9.92845 19.7014 9.69047 19.7317Z" fill="white"/>
<path id="Vector_4" d="M19.2319 1.8347C19.4609 1.8347 19.6472 2.02098 19.6472 2.24996C19.6472 2.50886 19.8571 2.71871 20.1159 2.71871C20.3748 2.71871 20.5847 2.50886 20.5847 2.24996C20.5847 2.02098 20.771 1.8347 21 1.8347C21.2588 1.8347 21.4687 1.62484 21.4687 1.36595C21.4687 1.10706 21.2588 0.897199 21 0.897199C20.771 0.897199 20.5847 0.710918 20.5847 0.481934C20.5847 0.223043 20.3748 0.0131836 20.1159 0.0131836C19.8571 0.0131836 19.6472 0.223043 19.6472 0.481934C19.6472 0.710918 19.4609 0.897199 19.2319 0.897199C18.9731 0.897199 18.7632 1.10706 18.7632 1.36595C18.7632 1.62484 18.9731 1.8347 19.2319 1.8347Z" fill="white"/>
<path id="Vector_5" d="M16.9891 5.73405C17.2881 5.73405 17.5313 5.97728 17.5313 6.27625C17.5313 6.53514 17.7412 6.745 18 6.745C18.2589 6.745 18.4688 6.53514 18.4688 6.27625C18.4688 5.97728 18.7119 5.73405 19.0109 5.73405C19.2698 5.73405 19.4797 5.52419 19.4797 5.2653C19.4797 5.00641 19.2698 4.79655 19.0109 4.79655C18.7119 4.79655 18.4688 4.55336 18.4688 4.25439C18.4688 3.9955 18.2589 3.78564 18 3.78564C17.7412 3.78564 17.5313 3.9955 17.5313 4.25439C17.5313 4.55336 17.2881 4.79655 16.9891 4.79655C16.7303 4.79655 16.5204 5.00641 16.5204 5.2653C16.5204 5.52419 16.7302 5.73405 16.9891 5.73405Z" fill="white"/>
<path id="Vector_6" d="M20.7041 13.4217C18.794 12.6628 16.3179 12.2382 13.7157 12.2211C13.3662 11.8705 13.0357 11.5009 12.7253 11.1149C14.0452 10.3423 14.8978 8.79083 14.8978 7.06897C14.8978 3.71296 12.3762 1.9679 12.2689 1.89524C12.1101 1.78785 11.9021 1.78785 11.7435 1.89524C11.6361 1.9679 9.11447 3.71291 9.11447 7.06897C9.11447 8.78722 9.96347 10.3358 11.2785 11.1102C10.9671 11.4979 10.6353 11.8691 10.2843 12.2212C7.68211 12.2382 5.20598 12.6628 3.29587 13.4217C1.17052 14.2661 0 15.4476 0 16.7487C0 16.8287 0.0205313 16.9075 0.0595781 16.9774C1.22709 19.0655 2.92908 20.8195 4.98169 22.0499C7.09561 23.3172 9.52252 23.987 12 23.987C14.4775 23.987 16.9043 23.3172 19.0183 22.05C21.0709 20.8196 22.7729 19.0655 23.9404 16.9775C23.9795 16.9075 24 16.8288 24 16.7487C24 15.4476 22.8295 14.2661 20.7041 13.4217ZM20.358 14.2929C21.7653 14.8521 22.6806 15.5535 22.9663 16.2712C20.9239 16.2008 18.9715 15.69 17.1559 14.7494C16.3175 14.3151 15.5231 13.7907 14.7878 13.1913C16.8612 13.3027 18.8415 13.6904 20.358 14.2929ZM10.052 7.06893C10.052 5.88022 10.4209 4.78246 11.1484 3.80615C11.4673 3.37818 11.7899 3.0673 12.0065 2.88037C12.5939 3.38713 13.9604 4.80913 13.9604 7.06893C13.9604 7.95894 13.6848 8.78924 13.2139 9.43021C13.3681 9.09177 13.4554 8.70674 13.4554 8.29804C13.4554 6.84416 12.5902 5.92813 12.1968 5.58679C12.0876 5.49201 11.9248 5.49201 11.8155 5.58679C11.4222 5.92813 10.557 6.84416 10.557 8.29804C10.557 8.70674 10.6443 9.09177 10.7985 9.43026C10.3275 8.78929 10.052 7.95899 10.052 7.06893ZM3.64205 14.2929C5.15855 13.6904 7.13888 13.3027 9.21216 13.1913C8.47692 13.7906 7.68253 14.315 6.84408 14.7494C5.02856 15.69 3.07608 16.2008 1.03369 16.2711C1.31939 15.5535 2.23467 14.8521 3.64205 14.2929ZM18.5363 21.2459C16.5679 22.4258 14.3077 23.0495 12 23.0495C9.69225 23.0495 7.43203 22.4258 5.4637 21.2459C4.94391 20.9343 4.44834 20.5865 3.98025 20.2064C5.44425 19.9242 6.8422 19.4078 8.14608 18.6644C9.62658 17.8204 10.9226 16.7224 12 15.3998C13.0759 16.7206 14.3698 17.8173 15.8479 18.661C17.1534 19.4062 18.5535 19.9238 20.0198 20.2064C19.5517 20.5865 19.0561 20.9343 18.5363 21.2459ZM20.918 19.4039C17.6521 18.965 14.7174 17.3005 12.6484 14.7103C12.4903 14.5123 12.254 14.3988 12 14.3988C12 14.3988 12 14.3988 12 14.3988C11.7461 14.3988 11.5098 14.5123 11.3516 14.7103C9.28228 17.3009 6.34795 18.965 3.08194 19.4038C2.40469 18.739 1.80164 17.9994 1.28616 17.1989C3.38864 17.0958 5.40019 16.5533 7.27533 15.5819C9.08911 14.6422 10.7117 13.3113 12 11.7112C13.2883 13.3113 14.9109 14.6422 16.7247 15.5819C18.5999 16.5533 20.6114 17.0958 22.7138 17.1989C22.1984 17.9995 21.5953 18.7391 20.918 19.4039Z" fill="white"/>
</g>
</g>
<defs>
<clipPath id="clip0_49_1800">
<rect width="24" height="24" fill="white"/>
</clipPath>
</defs>
</svg>
