<svg width="42" height="42" viewBox="0 0 42 42" fill="none" xmlns="http://www.w3.org/2000/svg">
<g id="fi_2989838">
<g id="Layer 11">
<path id="Vector" d="M15.186 30.1875C14.8545 30.1864 14.5356 30.0598 14.2935 29.8331C13.095 28.6952 12.1405 27.3253 11.4883 25.8067C10.8361 24.2881 10.4997 22.6527 10.4997 21C10.4997 19.3473 10.8361 17.7119 11.4883 16.1933C12.1405 14.6748 13.095 13.3048 14.2935 12.1669C14.5518 11.9575 14.88 11.8539 15.2117 11.877C15.5434 11.9002 15.8539 12.0484 16.0806 12.2917C16.3072 12.5351 16.4331 12.8553 16.4327 13.1879C16.4323 13.5204 16.3057 13.8404 16.0785 14.0831C15.1456 14.9774 14.4031 16.0512 13.896 17.2399C13.3888 18.4286 13.1273 19.7077 13.1273 21C13.1273 22.2924 13.3888 23.5714 13.896 24.7601C14.4031 25.9488 15.1456 27.0226 16.0785 27.9169C16.2704 28.0966 16.404 28.3297 16.4618 28.5862C16.5197 28.8426 16.4992 29.1105 16.403 29.3552C16.3069 29.5998 16.1395 29.81 15.9225 29.9584C15.7055 30.1068 15.4489 30.1866 15.186 30.1875ZM9.93604 33.705C10.1805 33.4591 10.3177 33.1265 10.3177 32.7797C10.3177 32.433 10.1805 32.1003 9.93604 31.8544C8.46767 30.4535 7.2988 28.7692 6.50018 26.9035C5.70155 25.0378 5.28978 23.0295 5.28978 21C5.28978 18.9706 5.70155 16.9622 6.50018 15.0965C7.2988 13.2308 8.46767 11.5466 9.93604 10.1456C10.1902 9.90024 10.3364 9.56394 10.3425 9.21073C10.3487 8.85751 10.2143 8.51632 9.96885 8.26221C9.72344 8.0081 9.38714 7.86189 9.03393 7.85573C8.68072 7.84958 8.33953 7.98399 8.08541 8.2294C6.35649 9.87685 4.98009 11.8582 4.03964 14.0534C3.09918 16.2486 2.61426 18.6119 2.61426 21C2.61426 23.3882 3.09918 25.7515 4.03964 27.9466C4.98009 30.1418 6.35649 32.1232 8.08541 33.7706C8.21171 33.8895 8.3603 33.9821 8.52259 34.0432C8.68489 34.1042 8.85768 34.1325 9.03097 34.1264C9.20427 34.1203 9.37464 34.0799 9.53224 34.0076C9.68984 33.9353 9.83154 33.8324 9.94916 33.705H9.93604ZM27.6942 29.8331C28.8927 28.6952 29.8472 27.3253 30.4994 25.8067C31.1516 24.2881 31.488 22.6527 31.488 21C31.488 19.3473 31.1516 17.7119 30.4994 16.1933C29.8472 14.6748 28.8927 13.3048 27.6942 12.1669C27.5683 12.0488 27.4205 11.9567 27.2591 11.8958C27.0976 11.8348 26.9258 11.8063 26.7533 11.8118C26.5809 11.8173 26.4112 11.8567 26.254 11.9277C26.0967 11.9988 25.955 12.1001 25.837 12.226C25.7189 12.3518 25.6268 12.4996 25.5659 12.6611C25.5049 12.8225 25.4764 12.9943 25.4819 13.1668C25.4874 13.3392 25.5268 13.5089 25.5978 13.6662C25.6689 13.8234 25.7702 13.9651 25.896 14.0831C26.8341 14.9745 27.581 16.0474 28.0913 17.2365C28.6017 18.4256 28.8649 19.706 28.8649 21C28.8649 22.294 28.6017 23.5745 28.0913 24.7636C27.581 25.9527 26.8341 27.0255 25.896 27.9169C25.6427 28.154 25.4935 28.4819 25.4812 28.8287C25.4689 29.1755 25.5945 29.513 25.8304 29.7675C25.9543 29.9011 26.1046 30.0074 26.2718 30.0797C26.4391 30.1521 26.6195 30.1888 26.8017 30.1875C27.1332 30.1864 27.4521 30.0598 27.6942 29.8331ZM33.8892 33.7706C35.6231 32.1261 37.0041 30.1457 37.9477 27.9502C38.8914 25.7546 39.3781 23.3898 39.3781 21C39.3781 18.6102 38.8914 16.2455 37.9477 14.0499C37.0041 11.8543 35.6231 9.87391 33.8892 8.2294C33.6309 8.01996 33.3027 7.91637 32.971 7.93955C32.6393 7.96272 32.3288 8.11094 32.1021 8.35425C31.8755 8.59756 31.7496 8.91783 31.75 9.25035C31.7504 9.58287 31.877 9.90285 32.1042 10.1456C33.5725 11.5466 34.7414 13.2308 35.54 15.0965C36.3387 16.9622 36.7504 18.9706 36.7504 21C36.7504 23.0295 36.3387 25.0378 35.54 26.9035C34.7414 28.7692 33.5725 30.4535 32.1042 31.8544C31.8508 32.0915 31.7016 32.4194 31.6894 32.7662C31.6771 33.113 31.8026 33.4505 32.0385 33.705C32.1609 33.837 32.3091 33.9424 32.4739 34.0146C32.6388 34.0869 32.8167 34.1244 32.9967 34.125C33.3282 34.1239 33.6471 33.9973 33.8892 33.7706ZM23.6254 21C23.6254 20.4808 23.4715 19.9733 23.183 19.5417C22.8946 19.11 22.4846 18.7735 22.005 18.5748C21.5253 18.3762 20.9975 18.3242 20.4883 18.4255C19.9791 18.5267 19.5114 18.7768 19.1443 19.1439C18.7771 19.511 18.5271 19.9787 18.4259 20.4879C18.3246 20.9971 18.3766 21.5249 18.5752 22.0046C18.7739 22.4842 19.1104 22.8942 19.542 23.1826C19.9737 23.4711 20.4812 23.625 21.0004 23.625C21.6966 23.625 22.3643 23.3485 22.8566 22.8562C23.3489 22.3639 23.6254 21.6962 23.6254 21Z" fill="white"/>
</g>
</g>
</svg>
