<svg width="43" height="42" viewBox="0 0 43 42" fill="none" xmlns="http://www.w3.org/2000/svg">
<g id="fi_5923588">
<g id="43.Kumbh Kalash">
<path id="Vector" d="M24.155 14.717C24.0406 14.717 23.9298 14.6771 23.8416 14.6042C23.7534 14.5314 23.6933 14.43 23.6717 14.3177C23.2239 11.9877 22.1215 10.0934 21.5042 9.17151C20.8788 10.0933 19.7764 11.9876 19.3285 14.3177C19.3123 14.4022 19.2742 14.481 19.218 14.5461C19.1618 14.6113 19.0895 14.6606 19.0083 14.6891C18.9271 14.7176 18.8399 14.7244 18.7553 14.7087C18.6707 14.6929 18.5917 14.6553 18.5261 14.5995C17.5339 13.7712 16.4176 13.104 15.2181 12.6225C15.1314 12.5867 15.0567 12.527 15.0029 12.4503C14.949 12.3735 14.9181 12.283 14.914 12.1893C14.9022 11.926 14.8962 11.6559 14.8962 11.3865C14.8962 6.71504 18.6926 2.74869 20.3248 1.26024C20.6452 0.965345 21.0648 0.801674 21.5003 0.801697C21.9357 0.80172 22.3553 0.965434 22.6756 1.26036C24.3077 2.74869 28.1041 6.71504 28.1041 11.3865C28.1041 11.6564 28.0981 11.9268 28.0864 12.1902C28.0822 12.2839 28.0513 12.3745 27.9973 12.4513C27.9434 12.528 27.8686 12.5878 27.7818 12.6235C26.5822 13.1041 25.4659 13.771 24.4742 14.5995C24.3851 14.6753 24.272 14.717 24.155 14.717ZM15.8865 11.8368C16.8241 12.2408 17.7132 12.7493 18.537 13.3524C19.0865 11.2134 20.0893 9.50312 20.6782 8.6238C20.7686 8.48885 20.8909 8.37824 21.0343 8.30175C21.1776 8.22526 21.3376 8.18524 21.5 8.18521C21.6625 8.18519 21.8225 8.22517 21.9658 8.30162C22.1092 8.37807 22.2315 8.48864 22.322 8.62357C22.911 9.50316 23.9137 11.2134 24.4633 13.3523C25.2869 12.749 26.176 12.2408 27.1139 11.8373C27.1177 11.6879 27.1197 11.5372 27.1197 11.3865C27.1197 7.10723 23.5479 3.38803 22.0122 1.98765C21.8727 1.85913 21.6899 1.78778 21.5003 1.78776C21.3106 1.78774 21.1278 1.85904 20.9882 1.98753C19.4524 3.38803 15.8806 7.10723 15.8806 11.3865C15.8806 11.5369 15.8826 11.6874 15.8865 11.8368Z" fill="white"/>
<path id="Vector_2" d="M21.5006 17.6397C21.4235 17.6397 21.3474 17.6216 21.2786 17.5868C21.2098 17.5521 21.1501 17.5016 21.1044 17.4395C20.5002 16.6258 19.836 15.8584 19.1173 15.1438C18.9315 14.9579 18.7328 14.775 18.5267 14.6C18.4602 14.5436 18.4099 14.4705 18.381 14.3882C18.352 14.306 18.3454 14.2175 18.3619 14.1319C18.8426 11.6313 20.0194 9.60757 20.6782 8.62383C20.7686 8.48888 20.8909 8.37827 21.0343 8.30178C21.1776 8.22529 21.3376 8.18527 21.5 8.18524C21.6625 8.18522 21.8225 8.2252 21.9658 8.30165C22.1092 8.3781 22.2315 8.48867 22.322 8.62359C22.9809 9.60765 24.1578 11.6314 24.6384 14.1319C24.6549 14.2175 24.6483 14.306 24.6193 14.3882C24.5904 14.4705 24.5401 14.5436 24.4736 14.6C24.2675 14.775 24.0688 14.9579 23.883 15.1438C23.1644 15.8581 22.5006 16.6255 21.897 17.4393C21.8513 17.5014 21.7916 17.5519 21.7228 17.5867C21.654 17.6216 21.5779 17.6397 21.5008 17.6397L21.5006 17.6397ZM19.3849 14.0423C19.5328 14.1748 19.6762 14.3105 19.8134 14.4477C20.4118 15.0442 20.975 15.6749 21.5004 16.3366C22.0254 15.6748 22.5886 15.0441 23.1869 14.4476C23.3241 14.3105 23.4676 14.1748 23.6154 14.0424C23.1372 11.8389 22.097 10.0568 21.5042 9.17153C20.9036 10.0567 19.8632 11.8387 19.3849 14.0423Z" fill="white"/>
<path id="Vector_3" d="M20.6786 18.8645H14.984C14.9143 18.8645 14.8453 18.8496 14.7818 18.821C14.7182 18.7923 14.6615 18.7505 14.6153 18.6983C12.5395 16.3507 11.7296 13.4732 11.4316 11.9668C11.4 11.8074 11.4082 11.6428 11.4554 11.4874C11.5026 11.3319 11.5874 11.1905 11.7023 11.0757C11.8172 10.9609 11.9586 10.8761 12.114 10.8289C12.2695 10.7817 12.4341 10.7736 12.5935 10.8052C13.9336 11.07 17.3209 11.9551 19.8134 14.4476C20.5669 15.1972 21.2633 16.002 21.8968 16.8555C21.9592 16.9401 21.9928 17.0425 21.9928 17.1477C21.9927 17.2528 21.959 17.3552 21.8965 17.4398C21.6012 17.8399 21.3333 18.239 21.1003 18.6261C21.0565 18.6988 20.9947 18.759 20.9208 18.8007C20.8469 18.8425 20.7635 18.8645 20.6786 18.8645ZM15.209 17.8801H20.4036C20.5545 17.6402 20.7168 17.3973 20.8891 17.1535C20.3426 16.4459 19.7508 15.7746 19.1173 15.1437C16.8158 12.8422 13.6546 12.0183 12.4023 11.7709C12.6163 12.8821 13.3232 15.6516 15.209 17.8801Z" fill="white"/>
<path id="Vector_4" d="M28.0163 18.8645H20.6786C20.5915 18.8645 20.5059 18.8413 20.4306 18.7974C20.3553 18.7535 20.2931 18.6904 20.2502 18.6145C20.2073 18.5386 20.1853 18.4527 20.1865 18.3656C20.1877 18.2785 20.212 18.1932 20.2569 18.1185C20.9895 16.9012 22.0027 15.6319 23.1869 14.4477C25.6806 11.9549 29.0671 11.07 30.4073 10.8052C30.5665 10.7737 30.7311 10.7819 30.8864 10.829C31.0417 10.8762 31.1831 10.9609 31.2979 11.0757C31.4127 11.1904 31.4975 11.3317 31.5447 11.487C31.592 11.6423 31.6003 11.8068 31.5689 11.9661L31.5688 11.9666C31.2719 13.4716 30.4635 16.3475 28.385 18.6983C28.3388 18.7505 28.2821 18.7924 28.2185 18.821C28.155 18.8497 28.086 18.8645 28.0163 18.8645ZM21.5818 17.8801H27.7913C29.6796 15.649 30.3848 12.8821 30.6029 11.7765C30.6032 11.7754 30.6033 11.7743 30.6033 11.7733C29.3461 12.0182 26.1855 12.842 23.8829 15.1438C23.035 15.9848 22.2649 16.9006 21.5818 17.8801Z" fill="white"/>
<path id="Vector_5" d="M9.85769 26.2169C9.76277 26.2169 9.66988 26.1894 9.59021 26.1377C9.51055 26.0861 9.44751 26.0126 9.4087 25.9259C9.36989 25.8393 9.35695 25.7433 9.37146 25.6495C9.38596 25.5557 9.42728 25.4681 9.49044 25.3972L9.50931 25.3759L10.1504 24.6584C10.2374 24.5611 10.3594 24.5023 10.4898 24.495C10.6201 24.4877 10.748 24.5324 10.8454 24.6194C10.9427 24.7064 11.0015 24.8285 11.0088 24.9588C11.0161 25.0891 10.9714 25.217 10.8844 25.3144L10.2253 26.0522C10.1791 26.1041 10.1225 26.1456 10.0592 26.174C9.9958 26.2024 9.92713 26.217 9.85769 26.2169Z" fill="white"/>
<path id="Vector_6" d="M26.4019 38.7857H16.5984C15.672 38.7852 14.7562 38.5893 13.9106 38.2109C13.065 37.8325 12.3087 37.2801 11.691 36.5897L9.50981 34.1501C8.66379 33.2023 8.10968 32.0301 7.91417 30.7748C7.71866 29.5195 7.89008 28.2344 8.4078 27.0741C8.43398 27.0148 8.47162 26.9613 8.51856 26.9165C8.56551 26.8718 8.62082 26.8368 8.68134 26.8135C8.74186 26.7902 8.80638 26.7791 8.8712 26.7808C8.93601 26.7826 8.99985 26.7971 9.05904 26.8236C9.11823 26.85 9.17161 26.8879 9.2161 26.9351C9.2606 26.9823 9.29534 27.0378 9.31832 27.0984C9.3413 27.159 9.35208 27.2236 9.35003 27.2884C9.34798 27.3532 9.33315 27.417 9.30638 27.476C8.86609 28.4628 8.72032 29.5557 8.88661 30.6234C9.0529 31.6911 9.52416 32.6879 10.2437 33.494L12.4249 35.9336C12.9502 36.5208 13.5934 36.9906 14.3125 37.3124C15.0317 37.6343 15.8106 37.8009 16.5984 37.8014H26.402C27.1898 37.8009 27.9687 37.6343 28.6878 37.3124C29.407 36.9906 30.0502 36.5208 30.5755 35.9336L32.7567 33.494C33.675 32.4681 34.1828 31.1396 34.1828 29.7627C34.1828 28.3858 33.675 27.0573 32.7567 26.0314L28.906 21.724H14.0943L12.2707 23.764C12.2278 23.8128 12.1756 23.8526 12.1173 23.8811C12.0589 23.9096 11.9955 23.9262 11.9306 23.9301C11.8658 23.934 11.8009 23.925 11.7395 23.9037C11.6782 23.8823 11.6217 23.849 11.5733 23.8058C11.5248 23.7625 11.4855 23.71 11.4574 23.6515C11.4293 23.5929 11.4131 23.5294 11.4097 23.4645C11.4064 23.3996 11.4158 23.3347 11.4376 23.2736C11.4594 23.2124 11.4931 23.1561 11.5368 23.108L13.5072 20.9039C13.5533 20.8522 13.6099 20.8109 13.6731 20.7826C13.7364 20.7543 13.8048 20.7397 13.8741 20.7397H29.1262C29.1955 20.7397 29.264 20.7543 29.3272 20.7826C29.3904 20.8109 29.447 20.8522 29.4931 20.9038L33.4905 25.3754C34.5703 26.5816 35.1674 28.1437 35.1674 29.7627C35.1674 31.3817 34.5703 32.9438 33.4905 34.15L31.3093 36.5897C30.6916 37.2801 29.9353 37.8325 29.0897 38.2109C28.2442 38.5893 27.3283 38.7852 26.4019 38.7857Z" fill="white"/>
<path id="Vector_7" d="M30.312 21.7239H12.6884C12.2407 21.7234 11.8115 21.5453 11.495 21.2288C11.1784 20.9122 11.0004 20.483 10.9998 20.0353V19.5689C11.0004 19.1213 11.1784 18.6921 11.495 18.3755C11.8115 18.059 12.2407 17.8809 12.6884 17.8804H30.312C30.7597 17.8809 31.1889 18.059 31.5054 18.3755C31.822 18.6921 32 19.1213 32.0006 19.5689V20.0353C32 20.483 31.822 20.9122 31.5054 21.2288C31.1889 21.5453 30.7597 21.7234 30.312 21.7239ZM12.6884 18.8647C12.5017 18.865 12.3227 18.9392 12.1907 19.0712C12.0587 19.2033 11.9844 19.3822 11.9842 19.5689V20.0353C11.9844 20.222 12.0587 20.401 12.1907 20.533C12.3227 20.6651 12.5017 20.7393 12.6884 20.7395H30.312C30.4987 20.7393 30.6777 20.6651 30.8097 20.533C30.9417 20.401 31.016 20.222 31.0162 20.0353V19.5689C31.016 19.3822 30.9417 19.2033 30.8097 19.0712C30.6777 18.9392 30.4987 18.865 30.312 18.8647H12.6884Z" fill="white"/>
<path id="Vector_8" d="M28.1003 41.5898H14.9001C14.4613 41.5893 14.0407 41.4148 13.7304 41.1045C13.4201 40.7943 13.2456 40.3736 13.2451 39.9349V39.4559C13.2456 39.0171 13.4202 38.5965 13.7304 38.2862C14.0407 37.976 14.4613 37.8015 14.9001 37.801H28.1003C28.5391 37.8015 28.9597 37.976 29.27 38.2862C29.5803 38.5965 29.7548 39.0171 29.7553 39.4559V39.9349C29.7548 40.3736 29.5803 40.7943 29.27 41.1045C28.9598 41.4148 28.5391 41.5893 28.1003 41.5898ZM14.9001 38.7853C14.7223 38.7855 14.5519 38.8563 14.4261 38.982C14.3004 39.1077 14.2297 39.2781 14.2295 39.4559V39.9349C14.2297 40.1126 14.3004 40.2831 14.4261 40.4088C14.5518 40.5345 14.7223 40.6052 14.9001 40.6054H28.1003C28.2781 40.6053 28.4486 40.5345 28.5743 40.4088C28.7 40.2831 28.7707 40.1126 28.7709 39.9349V39.4559C28.7707 39.2781 28.7 39.1077 28.5743 38.982C28.4486 38.8562 28.2781 38.7855 28.1003 38.7853H14.9001Z" fill="white"/>
<path id="Vector_9" d="M21.5002 34.4411H17.0292C16.8986 34.4411 16.7734 34.3892 16.6811 34.2969C16.5888 34.2046 16.537 34.0794 16.537 33.9489C16.537 33.8184 16.5888 33.6932 16.6811 33.6009C16.7734 33.5086 16.8986 33.4567 17.0292 33.4567H21.008V25.0068C21.008 24.8762 21.0599 24.751 21.1522 24.6587C21.2445 24.5664 21.3697 24.5146 21.5002 24.5146H25.9713C26.1018 24.5146 26.227 24.5664 26.3193 24.6587C26.4116 24.751 26.4635 24.8762 26.4635 25.0068C26.4635 25.1373 26.4116 25.2625 26.3193 25.3548C26.227 25.4471 26.1018 25.499 25.9713 25.499H21.9924V33.9489C21.9924 34.0794 21.9405 34.2046 21.8482 34.2969C21.7559 34.3892 21.6307 34.4411 21.5002 34.4411Z" fill="white"/>
<path id="Vector_10" d="M25.9713 34.4411C25.8407 34.4411 25.7155 34.3892 25.6232 34.2969C25.5309 34.2046 25.4791 34.0794 25.4791 33.9489V29.97H17.0292C16.8986 29.97 16.7734 29.9182 16.6811 29.8259C16.5888 29.7336 16.537 29.6084 16.537 29.4778V25.0068C16.537 24.8762 16.5888 24.751 16.6811 24.6587C16.7734 24.5664 16.8986 24.5146 17.0292 24.5146C17.1597 24.5146 17.2849 24.5664 17.3772 24.6587C17.4695 24.751 17.5213 24.8762 17.5213 25.0068V28.9857H25.9713C26.1018 28.9857 26.227 29.0375 26.3193 29.1298C26.4116 29.2221 26.4635 29.3473 26.4635 29.4778V33.9489C26.4635 34.0794 26.4116 34.2046 26.3193 34.2969C26.227 34.3892 26.1018 34.4411 25.9713 34.4411Z" fill="white"/>
<path id="Vector_11" d="M19.218 27.7672C19.0875 27.7672 18.9623 27.7153 18.87 27.623C18.7777 27.5307 18.7258 27.4055 18.7258 27.275V27.2552C18.7258 27.1247 18.7777 26.9995 18.87 26.9072C18.9623 26.8149 19.0875 26.7631 19.218 26.7631C19.3485 26.7631 19.4737 26.8149 19.566 26.9072C19.6583 26.9995 19.7102 27.1247 19.7102 27.2552V27.275C19.7102 27.4055 19.6583 27.5307 19.566 27.623C19.4737 27.7153 19.3485 27.7672 19.218 27.7672Z" fill="white"/>
<path id="Vector_12" d="M23.7894 27.7672C23.6589 27.7672 23.5337 27.7153 23.4414 27.623C23.3491 27.5307 23.2972 27.4055 23.2972 27.275V27.2552C23.2972 27.1247 23.3491 26.9995 23.4414 26.9072C23.5337 26.8149 23.6589 26.7631 23.7894 26.7631C23.9199 26.7631 24.0451 26.8149 24.1374 26.9072C24.2297 26.9995 24.2816 27.1247 24.2816 27.2552V27.275C24.2816 27.4055 24.2297 27.5307 24.1374 27.623C24.0451 27.7153 23.9199 27.7672 23.7894 27.7672Z" fill="white"/>
<path id="Vector_13" d="M23.7894 32.5252C23.6589 32.5252 23.5337 32.4733 23.4414 32.381C23.3491 32.2887 23.2972 32.1635 23.2972 32.033V32.0132C23.2972 31.8827 23.3491 31.7575 23.4414 31.6652C23.5337 31.5729 23.6589 31.5211 23.7894 31.5211C23.9199 31.5211 24.0451 31.5729 24.1374 31.6652C24.2297 31.7575 24.2816 31.8827 24.2816 32.0132V32.033C24.2816 32.1635 24.2297 32.2887 24.1374 32.381C24.0451 32.4733 23.9199 32.5252 23.7894 32.5252Z" fill="white"/>
<path id="Vector_14" d="M19.218 32.5252C19.0875 32.5252 18.9623 32.4733 18.87 32.381C18.7777 32.2887 18.7258 32.1635 18.7258 32.033V32.0132C18.7258 31.8827 18.7777 31.7575 18.87 31.6652C18.9623 31.5729 19.0875 31.5211 19.218 31.5211C19.3485 31.5211 19.4737 31.5729 19.566 31.6652C19.6583 31.7575 19.7102 31.8827 19.7102 32.0132V32.033C19.7102 32.1635 19.6583 32.2887 19.566 32.381C19.4737 32.4733 19.3485 32.5252 19.218 32.5252Z" fill="white"/>
</g>
</g>
</svg>
