<svg width="21" height="20" viewBox="0 0 18 18" fill="none" xmlns="http://www.w3.org/2000/svg">
<path d="M3.90039 2.20001H14.1004M3.90039 15.8H14.1004M12.8254 2.20001V3.96918C12.8254 4.64112 12.5998 5.29361 12.1848 5.82207L10.2398 8.29883C9.86897 8.77097 9.87778 9.43781 10.2609 9.9L12.135 12.1608C12.5812 12.6991 12.8254 13.3763 12.8254 14.0754V15.8M5.17539 2.20001V3.96918C5.17539 4.64112 5.40097 5.29361 5.81598 5.82207L7.76103 8.29883C8.13181 8.77097 8.123 9.43781 7.73988 9.9L5.86575 12.1608C5.41957 12.6991 5.17539 13.3763 5.17539 14.0754V15.8" stroke="white" stroke-width="0.73" stroke-linecap="round" stroke-linejoin="round"/>
</svg>
