<svg xmlns="http://www.w3.org/2000/svg" width="17" height="22" viewBox="0 0 17 22" fill="none">
  <path d="M12.25 5C12.25 5.99456 11.8549 6.94839 11.1516 7.65165C10.4484 8.35491 9.49454 8.75 8.49998 8.75C7.50541 8.75 6.55159 8.35491 5.84833 7.65165C5.14506 6.94839 4.74998 5.99456 4.74998 5C4.74998 4.00544 5.14506 3.05161 5.84833 2.34835C6.55159 1.64509 7.50541 1.25 8.49998 1.25C9.49454 1.25 10.4484 1.64509 11.1516 2.34835C11.8549 3.05161 12.25 4.00544 12.25 5ZM1.00098 19.118C1.03311 17.1504 1.83731 15.2742 3.24015 13.894C4.64299 12.5139 6.53206 11.7405 8.49998 11.7405C10.4679 11.7405 12.357 12.5139 13.7598 13.894C15.1626 15.2742 15.9668 17.1504 15.999 19.118C13.6464 20.1968 11.0881 20.7535 8.49998 20.75C5.82398 20.75 3.28398 20.166 1.00098 19.118Z" stroke="white" stroke-width="1.5" stroke-linecap="round" stroke-linejoin="round"/>
</svg>