<svg xmlns="http://www.w3.org/2000/svg" width="22" height="18" viewBox="0 0 22 18" fill="none">
  <path d="M10 8.99664C10 9.19556 9.92098 9.38632 9.78033 9.52697C9.63968 9.66763 9.44891 9.74664 9.25 9.74664H4.75C4.55109 9.74664 4.36032 9.66763 4.21967 9.52697C4.07902 9.38632 4 9.19556 4 8.99664C4 8.79773 4.07902 8.60697 4.21967 8.46631C4.36032 8.32566 4.55109 8.24664 4.75 8.24664H9.25C9.44891 8.24664 9.63968 8.32566 9.78033 8.46631C9.92098 8.60697 10 8.79773 10 8.99664ZM9.25 5.24664H4.75C4.55109 5.24664 4.36032 5.32566 4.21967 5.46631C4.07902 5.60697 4 5.79773 4 5.99664C4 6.19556 4.07902 6.38632 4.21967 6.52697C4.36032 6.66763 4.55109 6.74664 4.75 6.74664H9.25C9.44891 6.74664 9.63968 6.66763 9.78033 6.52697C9.92098 6.38632 10 6.19556 10 5.99664C10 5.79773 9.92098 5.60697 9.78033 5.46631C9.63968 5.32566 9.44891 5.24664 9.25 5.24664ZM19.75 11.3845V17.2466C19.7512 17.3789 19.7174 17.5091 19.6521 17.624C19.5867 17.739 19.4921 17.8346 19.3779 17.9012C19.2637 17.9679 19.1339 18.0031 19.0017 18.0034C18.8695 18.0037 18.7395 17.969 18.625 17.9029L16.375 16.6148L14.125 17.9029C14.0105 17.969 13.8805 18.0037 13.7483 18.0034C13.6161 18.0031 13.4863 17.9679 13.3721 17.9012C13.2579 17.8346 13.1633 17.739 13.0979 17.624C13.0326 17.5091 12.9988 17.3789 13 17.2466V14.9966H1.75C1.35218 14.9966 0.970644 14.8386 0.68934 14.5573C0.408035 14.276 0.25 13.8945 0.25 13.4966V1.49664C0.25 1.09882 0.408035 0.717287 0.68934 0.435983C0.970644 0.154678 1.35218 -0.00335693 1.75 -0.00335693H18.25C18.6478 -0.00335693 19.0294 0.154678 19.3107 0.435983C19.592 0.717287 19.75 1.09882 19.75 1.49664V4.35883C20.2241 4.81285 20.6014 5.35814 20.8592 5.96185C21.1169 6.56556 21.2498 7.21521 21.2498 7.87164C21.2498 8.52808 21.1169 9.17772 20.8592 9.78144C20.6014 10.3851 20.2241 10.9304 19.75 11.3845ZM13 13.4966V11.3845C12.1827 10.5962 11.6662 9.54744 11.5396 8.41906C11.4129 7.29068 11.6842 6.15349 12.3065 5.20374C12.9287 4.25398 13.863 3.55123 14.9481 3.21675C16.0332 2.88228 17.201 2.93706 18.25 3.37164V1.49664H1.75V13.4966H13ZM18.25 12.3716C17.656 12.6198 17.0187 12.7476 16.375 12.7476C15.7313 12.7476 15.094 12.6198 14.5 12.3716V15.9548L16 15.096C16.1133 15.0312 16.2416 14.9972 16.3722 14.9972C16.5027 14.9972 16.631 15.0312 16.7444 15.096L18.2444 15.9548L18.25 12.3716ZM19.75 7.87164C19.75 7.20413 19.5521 6.55161 19.1812 5.99659C18.8104 5.44158 18.2833 5.009 17.6666 4.75355C17.0499 4.4981 16.3713 4.43127 15.7166 4.56149C15.0619 4.69172 14.4605 5.01316 13.9885 5.48516C13.5165 5.95716 13.1951 6.55853 13.0648 7.21321C12.9346 7.8679 13.0015 8.5465 13.2569 9.1632C13.5124 9.7799 13.9449 10.307 14.5 10.6779C15.055 11.0487 15.7075 11.2466 16.375 11.2466C16.8182 11.2466 17.2571 11.1593 17.6666 10.9897C18.076 10.8201 18.4481 10.5715 18.7615 10.2581C19.0749 9.94473 19.3235 9.57267 19.4931 9.1632C19.6627 8.75373 19.75 8.31485 19.75 7.87164Z" fill="white"/>
</svg>