<svg xmlns="http://www.w3.org/2000/svg" width="24" height="20" viewBox="0 0 24 20" fill="none">
  <path d="M4.04342 8.05689C3.76073 10.221 3.59228 12.3984 3.53878 14.5802C6.49757 15.8162 9.33053 17.334 11.9985 19.1128C14.6667 17.3339 17.5 15.8161 20.4592 14.5802C20.4056 12.3984 20.2372 10.221 19.9545 8.05689M19.9545 8.05689C20.8538 7.75472 21.7655 7.47516 22.6864 7.22027C19.3323 4.86896 15.7519 2.85825 11.9985 1.21802C8.245 2.85859 4.66461 4.86965 1.31055 7.2213C2.22864 7.47478 3.1396 7.75341 4.0424 8.05689C6.78516 8.97903 9.44638 10.1279 11.9985 11.4917C14.5502 10.1279 17.2121 8.97901 19.9545 8.05689ZM6.6026 13.0447C6.80704 13.0447 7.00311 12.9635 7.14767 12.8189C7.29223 12.6744 7.37344 12.4783 7.37344 12.2739C7.37344 12.0694 7.29223 11.8734 7.14767 11.7288C7.00311 11.5843 6.80704 11.503 6.6026 11.503C6.39817 11.503 6.2021 11.5843 6.05754 11.7288C5.91298 11.8734 5.83177 12.0694 5.83177 12.2739C5.83177 12.4783 5.91298 12.6744 6.05754 12.8189C6.2021 12.9635 6.39817 13.0447 6.6026 13.0447ZM6.6026 13.0447V9.26762C8.34648 8.18365 10.1477 7.19485 11.9985 6.30555M4.79679 18.1764C5.37026 17.6044 5.82502 16.9246 6.13493 16.1762C6.44483 15.4278 6.60377 14.6256 6.6026 13.8156V12.2739" stroke="white" stroke-width="1.54168" stroke-linecap="round" stroke-linejoin="round"/>
</svg>