<svg xmlns="http://www.w3.org/2000/svg" width="13" height="14" viewBox="0 0 13 14" fill="none">
  <path d="M4.08115 9.17943H2.48534C1.47408 9.17943 0.654297 8.48975 0.654297 7.47849C0.654297 6.46723 1.47408 5.64744 2.48534 5.64744C2.55411 5.64744 2.62199 5.65124 2.68879 5.65862V5.64744H2.71398C2.69735 5.51415 2.68879 5.37834 2.68879 5.24054C2.68879 3.44275 4.14619 1.98535 5.94398 1.98535C7.1614 1.98535 8.22272 2.65366 8.7811 3.64342C8.91755 3.62334 9.05715 3.61295 9.19918 3.61295C10.7722 3.61295 12.0475 4.88817 12.0475 6.46124C12.0475 7.89616 10.9864 8.95315 9.60608 9.15059H8.13107M6.14743 5.85089V12.1147M6.14743 12.1147L4.70421 10.7083M6.14743 12.1147L7.55251 10.7083" stroke="white" stroke-width="0.934596" stroke-linecap="round" stroke-linejoin="round"/>
</svg>