<svg xmlns="http://www.w3.org/2000/svg" width="23" height="24" viewBox="0 0 23 24" fill="none">
  <path d="M9.0255 6.77217C10.3917 5.57633 12.6083 5.57633 13.9745 6.77217C15.3418 7.968 15.3418 9.907 13.9745 11.1028C13.7377 11.3117 13.4728 11.4832 13.1928 11.6185C12.3237 12.0397 11.5012 12.784 11.5012 13.75V14.625M22 12C22 13.3789 21.7284 14.7443 21.2007 16.0182C20.6731 17.2921 19.8996 18.4496 18.9246 19.4246C17.9496 20.3996 16.7921 21.1731 15.5182 21.7007C14.2443 22.2284 12.8789 22.5 11.5 22.5C10.1211 22.5 8.75574 22.2284 7.48182 21.7007C6.20791 21.1731 5.05039 20.3996 4.07538 19.4246C3.10036 18.4496 2.32694 17.2921 1.79926 16.0182C1.27159 14.7443 1 13.3789 1 12C1 9.21523 2.10625 6.54451 4.07538 4.57538C6.04451 2.60625 8.71523 1.5 11.5 1.5C14.2848 1.5 16.9555 2.60625 18.9246 4.57538C20.8938 6.54451 22 9.21523 22 12ZM11.5 18.125H11.5093V18.1343H11.5V18.125Z" stroke="white" stroke-width="1.5" stroke-linecap="round" stroke-linejoin="round"/>
</svg>