<svg xmlns="http://www.w3.org/2000/svg" width="22" height="18" viewBox="0 0 22 18" fill="none">
  <path d="M1.25 15.054C6.58561 15.0496 11.898 15.7562 17.047 17.155C17.774 17.353 18.5 16.813 18.5 16.059V15.054M2.75 0.803955V1.55396C2.75 1.75287 2.67098 1.94363 2.53033 2.08429C2.38968 2.22494 2.19891 2.30396 2 2.30396H1.25M1.25 2.30396V1.92896C1.25 1.30796 1.754 0.803955 2.375 0.803955H19.25M1.25 2.30396V11.304M19.25 0.803955V1.55396C19.25 1.96796 19.586 2.30396 20 2.30396H20.75M19.25 0.803955H19.625C20.246 0.803955 20.75 1.30796 20.75 1.92896V11.679C20.75 12.3 20.246 12.804 19.625 12.804H19.25M1.25 11.304V11.679C1.25 11.9773 1.36853 12.2635 1.5795 12.4745C1.79048 12.6854 2.07663 12.804 2.375 12.804H2.75M1.25 11.304H2C2.19891 11.304 2.38968 11.383 2.53033 11.5236C2.67098 11.6643 2.75 11.855 2.75 12.054V12.804M19.25 12.804V12.054C19.25 11.855 19.329 11.6643 19.4697 11.5236C19.6103 11.383 19.8011 11.304 20 11.304H20.75M19.25 12.804H2.75M14 6.80396C14 7.5996 13.6839 8.36267 13.1213 8.92528C12.5587 9.48788 11.7956 9.80396 11 9.80396C10.2044 9.80396 9.44129 9.48788 8.87868 8.92528C8.31607 8.36267 8 7.5996 8 6.80396C8 6.00831 8.31607 5.24524 8.87868 4.68263C9.44129 4.12003 10.2044 3.80396 11 3.80396C11.7956 3.80396 12.5587 4.12003 13.1213 4.68263C13.6839 5.24524 14 6.00831 14 6.80396ZM17 6.80396H17.008V6.81196H17V6.80396ZM5 6.80396H5.008V6.81196H5V6.80396Z" stroke="white" stroke-width="1.5" stroke-linecap="round" stroke-linejoin="round"/>
</svg>