<svg width="1567" height="2028" viewBox="0 0 1567 2028" fill="none" xmlns="http://www.w3.org/2000/svg">
<g clip-path="url(#clip0_215_141)">
<mask id="mask0_215_141" style="mask-type:luminance" maskUnits="userSpaceOnUse" x="0" y="0" width="1567" height="2028">
<path d="M0 4.57764e-05H1567V2028H0V4.57764e-05Z" fill="white"/>
</mask>
<g mask="url(#mask0_215_141)">
<path d="M783.5 1016.87L1567 1173.81V856.336L783.5 1016.87Z" fill="url(#paint0_radial_215_141)"/>
<path d="M1567 657.208V161.116L785.707 1016.15L1567 657.208Z" fill="url(#paint1_radial_215_141)"/>
<path d="M787.069 1014.28L1356.83 0.000181416H901.214L787.069 1014.28Z" fill="url(#paint2_radial_215_141)"/>
<path d="M787.069 1011.96L668.666 0.00012207H212.73L787.069 1011.96Z" fill="url(#paint3_radial_215_141)"/>
<path d="M785.707 1010.08L0 157.792V653.295L785.707 1010.08Z" fill="url(#paint4_radial_215_141)"/>
<path d="M783.5 1009.36L0 852.423V1169.9L783.5 1009.36Z" fill="url(#paint5_radial_215_141)"/>
<path d="M781.295 1010.08L0 1369.02V1865.12L781.295 1010.08Z" fill="url(#paint6_radial_215_141)"/>
<path d="M779.933 1011.96L209.179 2028H665.588L779.933 1011.96Z" fill="url(#paint7_radial_215_141)"/>
<path d="M779.933 1014.28L898.541 2028H1355.28L779.933 1014.28Z" fill="url(#paint8_radial_215_141)"/>
<path d="M781.295 1016.15L1567 1868.44V1372.94L781.295 1016.15Z" fill="url(#paint9_radial_215_141)"/>
</g>
</g>
<defs>
<radialGradient id="paint0_radial_215_141" cx="0" cy="0" r="1" gradientUnits="userSpaceOnUse" gradientTransform="translate(783.5 1014) rotate(90) scale(1014 783.5)">
<stop stop-color="white"/>
<stop offset="1" stop-color="white" stop-opacity="0"/>
</radialGradient>
<radialGradient id="paint1_radial_215_141" cx="0" cy="0" r="1" gradientUnits="userSpaceOnUse" gradientTransform="translate(783.5 1014) rotate(90) scale(1014 783.5)">
<stop stop-color="white"/>
<stop offset="1" stop-color="white" stop-opacity="0"/>
</radialGradient>
<radialGradient id="paint2_radial_215_141" cx="0" cy="0" r="1" gradientUnits="userSpaceOnUse" gradientTransform="translate(783.5 1014) rotate(90) scale(1014 783.5)">
<stop stop-color="white"/>
<stop offset="1" stop-color="white" stop-opacity="0"/>
</radialGradient>
<radialGradient id="paint3_radial_215_141" cx="0" cy="0" r="1" gradientUnits="userSpaceOnUse" gradientTransform="translate(783.5 1014) rotate(90) scale(1014 783.5)">
<stop stop-color="white"/>
<stop offset="1" stop-color="white" stop-opacity="0"/>
</radialGradient>
<radialGradient id="paint4_radial_215_141" cx="0" cy="0" r="1" gradientUnits="userSpaceOnUse" gradientTransform="translate(783.5 1014) rotate(90) scale(1014 783.5)">
<stop stop-color="white"/>
<stop offset="1" stop-color="white" stop-opacity="0"/>
</radialGradient>
<radialGradient id="paint5_radial_215_141" cx="0" cy="0" r="1" gradientUnits="userSpaceOnUse" gradientTransform="translate(783.5 1014) rotate(90) scale(1014 783.5)">
<stop stop-color="white"/>
<stop offset="1" stop-color="white" stop-opacity="0"/>
</radialGradient>
<radialGradient id="paint6_radial_215_141" cx="0" cy="0" r="1" gradientUnits="userSpaceOnUse" gradientTransform="translate(783.5 1014) rotate(90) scale(1014 783.5)">
<stop stop-color="white"/>
<stop offset="1" stop-color="white" stop-opacity="0"/>
</radialGradient>
<radialGradient id="paint7_radial_215_141" cx="0" cy="0" r="1" gradientUnits="userSpaceOnUse" gradientTransform="translate(783.5 1014) rotate(90) scale(1014 783.5)">
<stop stop-color="white"/>
<stop offset="1" stop-color="white" stop-opacity="0"/>
</radialGradient>
<radialGradient id="paint8_radial_215_141" cx="0" cy="0" r="1" gradientUnits="userSpaceOnUse" gradientTransform="translate(783.5 1014) rotate(90) scale(1014 783.5)">
<stop stop-color="white"/>
<stop offset="1" stop-color="white" stop-opacity="0"/>
</radialGradient>
<radialGradient id="paint9_radial_215_141" cx="0" cy="0" r="1" gradientUnits="userSpaceOnUse" gradientTransform="translate(783.5 1014) rotate(90) scale(1014 783.5)">
<stop stop-color="white"/>
<stop offset="1" stop-color="white" stop-opacity="0"/>
</radialGradient>
<clipPath id="clip0_215_141">
<rect width="1567" height="2028" fill="white"/>
</clipPath>
</defs>
</svg>
