<svg xmlns="http://www.w3.org/2000/svg" width="87" height="90" viewBox="0 0 87 90" fill="none">
  <path fill-rule="evenodd" clip-rule="evenodd" d="M49.3369 47.1919C48.4733 47.3054 47.7407 47.5546 47.1205 47.8823C46.9262 48.5563 46.8326 49.324 46.8993 50.1923C46.1328 49.7769 45.3944 49.5475 44.7005 49.448C44.147 49.8798 43.6204 50.4462 43.1629 51.1881C42.7872 50.4018 42.325 49.7816 41.8206 49.2936C41.1197 49.317 40.3614 49.4656 39.5551 49.7968C39.7143 48.9402 39.7037 48.1655 39.5832 47.4751C39.0028 47.0819 38.3006 46.7566 37.4546 46.5506C38.0865 45.9503 38.5324 45.3184 38.8413 44.6888C38.6026 44.03 38.2258 43.3536 37.6629 42.6889C38.5265 42.5754 39.259 42.3273 39.8793 41.9985C40.0723 41.3245 40.166 40.5568 40.1004 39.6885C40.8657 40.1039 41.6053 40.3333 42.2992 40.4328C42.8528 40.001 43.3793 39.4346 43.8369 38.6938C44.2125 39.4802 44.6748 40.0993 45.178 40.5884C45.8789 40.5638 46.6384 40.4152 47.4446 40.0841C47.2855 40.9418 47.296 41.7153 47.4166 42.4057C47.997 42.7989 48.6991 43.1242 49.5452 43.3302C48.9132 43.9305 48.4662 44.5624 48.1585 45.192C48.3972 45.8508 48.7728 46.5272 49.3369 47.1919ZM47.6307 43.1851C47.3159 42.992 46.8666 43.0435 46.4195 43.0505C46.6091 42.6468 46.8408 42.2571 46.7928 41.8909C46.7811 41.7949 46.5752 41.6428 46.3563 41.4251C46.0977 41.2554 45.907 41.0846 45.8099 41.0916C45.4424 41.1209 45.1077 41.4274 44.7508 41.6954C44.6666 41.2566 44.6256 40.8061 44.3717 40.5369C44.305 40.4667 44.0487 40.4655 43.7433 40.4176C43.4355 40.4316 43.1804 40.407 43.1067 40.469C42.8258 40.7089 42.7357 41.1525 42.6047 41.5796C42.2782 41.2742 41.9798 40.9336 41.617 40.8658C41.5222 40.8482 41.3139 40.9968 41.0389 41.1372C40.7979 41.3315 40.5767 41.4602 40.5533 41.5538C40.4667 41.9131 40.6551 42.325 40.8002 42.7474C40.3567 42.6924 39.9155 42.5918 39.5809 42.751C39.4943 42.7919 39.4135 43.0353 39.2731 43.3103C39.1923 43.6087 39.0894 43.8428 39.1256 43.9317C39.2661 44.2734 39.6616 44.4969 40.0267 44.7532C39.6359 44.9685 39.2193 45.1475 39.0426 45.4717C38.9969 45.5571 39.0742 45.8005 39.1221 46.1059C39.2321 46.395 39.286 46.6454 39.3679 46.6957C39.6827 46.8888 40.1332 46.8373 40.5802 46.8303C40.3906 47.2352 40.1589 47.6237 40.2057 47.99C40.2186 48.0859 40.4246 48.238 40.6434 48.4557C40.902 48.6254 41.0928 48.7962 41.1887 48.7892C41.5573 48.76 41.8908 48.4534 42.2478 48.1854C42.3332 48.6242 42.3741 49.0747 42.6281 49.3439C42.6936 49.4141 42.9499 49.4153 43.2553 49.4633C43.5642 49.4492 43.8193 49.475 43.8919 49.4118C44.1739 49.1719 44.2628 48.7284 44.3951 48.3012C44.7204 48.6067 45.02 48.9472 45.3827 49.0151C45.4775 49.0326 45.6858 48.884 45.9608 48.7436C46.2019 48.5493 46.4231 48.4206 46.4453 48.327C46.5319 47.9677 46.3446 47.5558 46.1995 47.1334C46.6431 47.1884 47.0842 47.289 47.4177 47.1299C47.5055 47.0889 47.5862 46.8455 47.7255 46.5705C47.8074 46.2721 47.9104 46.0381 47.8741 45.9491C47.7325 45.6074 47.3382 45.3851 46.973 45.1276C47.3639 44.9123 47.7805 44.7333 47.9572 44.4091C48.0028 44.3237 47.9256 44.0803 47.8764 43.7749C47.7676 43.4858 47.7126 43.2354 47.6307 43.1851Z" fill="url(#paint0_radial_2016_15548)" fill-opacity="0.3"/>
  <path d="M65.1995 39.1633C65.5154 39.8514 65.7038 40.6191 65.7237 41.4886C65.9461 40.5582 65.9625 39.7344 65.8232 38.9972C65.5763 38.288 65.1527 37.5812 64.4985 36.8838C64.9128 37.6491 65.1304 38.4086 65.1995 39.1633Z" fill="url(#paint1_radial_2016_15548)" fill-opacity="0.3"/>
  <path d="M64.452 53.0213C64.3022 53.7632 64.0038 54.4958 63.5088 55.2108C64.2355 54.5882 64.7328 53.9317 65.0535 53.253C65.2711 52.5345 65.3437 51.7142 65.2231 50.7651C65.1096 51.6287 64.8393 52.3707 64.452 53.0213Z" fill="url(#paint2_radial_2016_15548)" fill-opacity="0.3"/>
  <path d="M55.7006 63.7924C55.1436 64.3049 54.4719 64.7215 53.6504 65.0094C54.6041 64.9333 55.3917 64.6946 56.0505 64.3342C56.6496 63.8801 57.1903 63.2599 57.6502 62.4209C57.0522 63.0516 56.3969 63.494 55.7006 63.7924Z" fill="url(#paint3_radial_2016_15548)" fill-opacity="0.3"/>
  <path d="M42.2892 67.364C41.5379 67.4506 40.7492 67.3933 39.916 67.144C40.7328 67.6426 41.5098 67.9117 42.2553 68.0077C43.0054 67.9924 43.8081 67.8076 44.6729 67.4003C43.8187 67.5595 43.0288 67.5314 42.2892 67.364Z" fill="url(#paint4_radial_2016_15548)" fill-opacity="0.3"/>
  <path d="M29.3404 62.3691C28.6804 61.997 28.0766 61.488 27.5488 60.7964C27.9174 61.6787 28.3879 62.3551 28.9344 62.87C29.5499 63.2995 30.3082 63.6213 31.2479 63.8003C30.4626 63.4258 29.8401 62.939 29.3404 62.3691Z" fill="url(#paint5_radial_2016_15548)" fill-opacity="0.3"/>
  <path d="M21.7999 50.7194C21.4851 50.0302 21.2967 49.2625 21.2756 48.3931C21.0545 49.3234 21.0381 50.1472 21.1773 50.8844C21.4231 51.5947 21.8467 52.3004 22.502 52.9978C22.0866 52.2325 21.8689 51.473 21.7999 50.7194Z" fill="url(#paint6_radial_2016_15548)" fill-opacity="0.3"/>
  <path d="M22.5488 36.8604C22.6986 36.1184 22.9958 35.3859 23.4908 34.6709C22.7653 35.2934 22.2679 35.9499 21.9461 36.6287C21.7296 37.3472 21.6571 38.1675 21.7765 39.1165C21.89 38.2541 22.1614 37.511 22.5488 36.8604Z" fill="url(#paint7_radial_2016_15548)" fill-opacity="0.3"/>
  <path d="M31.2999 26.0881C31.8569 25.5756 32.5286 25.159 33.3489 24.8711C32.3963 24.9472 31.6076 25.187 30.9488 25.5463C30.3508 26.0003 29.8102 26.6206 29.3491 27.4596C29.9483 26.8288 30.6036 26.3865 31.2999 26.0881Z" fill="url(#paint8_radial_2016_15548)" fill-opacity="0.3"/>
  <path d="M44.7104 22.5176C45.4628 22.431 46.2515 22.4884 47.0847 22.7376C46.2679 22.2403 45.4897 21.97 44.7455 21.874C43.9942 21.8892 43.1926 22.0741 42.3267 22.4814C43.1821 22.3234 43.972 22.3503 44.7104 22.5176Z" fill="url(#paint9_radial_2016_15548)" fill-opacity="0.3"/>
  <path d="M57.6604 27.5117C58.3192 27.8839 58.923 28.3929 59.4508 29.0845C59.0833 28.2022 58.6129 27.5269 58.0664 27.0109C57.4497 26.5826 56.6926 26.2596 55.7529 26.0806C56.5381 26.455 57.1607 26.9418 57.6604 27.5117Z" fill="url(#paint10_radial_2016_15548)" fill-opacity="0.3"/>
  <path fill-rule="evenodd" clip-rule="evenodd" d="M62.6253 52.3161C62.9284 55.2626 62.3059 57.6147 61.1403 59.2706C59.7571 60.7509 57.5829 61.8415 54.6375 62.1493C53.1513 64.7097 51.265 66.2474 49.3482 66.9027C47.36 67.2865 44.9587 66.891 42.396 65.4083C39.6869 66.6066 37.2576 66.7412 35.3221 66.1455C33.4872 65.2878 31.7775 63.557 30.5757 60.8504C27.6806 60.2278 25.6363 58.909 24.4204 57.2883C23.4398 55.5166 23.0747 53.1106 23.6926 50.2144C21.7161 48.0097 20.8373 45.7407 20.8057 43.715C21.0549 41.7046 22.1725 39.5444 24.376 37.5644C24.0729 34.619 24.6954 32.2669 25.8598 30.6099C27.243 29.1296 29.4184 28.039 32.3638 27.7324C33.85 25.1708 35.7363 23.6331 37.6531 22.9778C39.6413 22.594 42.0414 22.9895 44.6053 24.4722C47.3132 23.2739 49.7425 23.1393 51.678 23.7349C53.5129 24.5927 55.2226 26.3246 56.4256 29.0313C59.3207 29.6527 61.365 30.9715 62.5809 32.5922C63.5603 34.3651 63.9266 36.7699 63.3075 39.6661C65.2852 41.872 66.164 44.1398 66.1945 46.1655C65.9464 48.1759 64.8277 50.3361 62.6253 52.3161ZM62.5832 36.7242C63.0045 35.7787 62.7856 34.2984 62.0332 32.9468C61.1076 31.7064 59.8473 30.9013 58.8116 30.8978C56.9264 30.8908 55.4449 31.36 54.2736 31.6795C54.3461 30.4683 54.5018 28.9213 54.1097 27.077C53.8932 26.0636 52.8471 24.9953 51.444 24.3434C49.966 23.8847 48.4728 23.9737 47.6326 24.5798C46.1044 25.6822 45.1811 26.9331 44.4216 27.881C43.7674 26.8571 42.9846 25.5137 41.5838 24.2533C40.8138 23.5606 39.3382 23.3113 37.8205 23.6086C36.3554 24.1059 35.1992 25.0549 34.8762 26.0391C34.2876 27.8295 34.2759 29.3847 34.2186 30.597C33.0881 30.1535 31.664 29.5275 29.7905 29.3309C28.7596 29.222 27.4197 29.8879 26.3665 31.0206C25.4736 32.2845 25.0968 33.732 25.4139 34.7185C25.9897 36.5124 26.8942 37.7774 27.5601 38.7932C26.3852 39.0986 24.8651 39.4286 23.2338 40.3706C22.3363 40.889 21.6435 42.2148 21.4575 43.7501C21.4774 45.2972 22.0227 46.6897 22.8594 47.3017C24.3806 48.4146 25.8551 48.9061 26.9914 49.3367C26.2202 50.274 25.1846 51.4337 24.4181 53.1563C23.9968 54.103 24.2156 55.5821 24.9681 56.9337C25.8937 58.1741 27.154 58.9804 28.1897 58.9827C30.0737 58.9897 31.5563 58.5205 32.7277 58.201C32.6552 59.4134 32.4995 60.9604 32.8916 62.8034C33.1069 63.8168 34.1542 64.8852 35.5573 65.537C37.0341 65.9958 38.5273 65.9068 39.3675 65.3007C40.8958 64.1983 41.8191 62.9474 42.5797 62.0007C43.2327 63.0234 44.0167 64.3668 45.4174 65.6271C46.1874 66.3211 47.6619 66.5692 49.1808 66.2719C50.6459 65.7758 51.8009 64.8256 52.1251 63.8414C52.7125 62.051 52.7242 60.4958 52.7827 59.2835C53.9131 59.727 55.3361 60.353 57.2108 60.5496C58.2406 60.6585 59.5804 59.9926 60.6336 58.8598C61.5277 57.596 61.9045 56.1485 61.5874 55.162C61.0116 53.3681 60.107 52.1031 59.4412 51.0885C60.6161 50.7831 62.135 50.4531 63.7674 49.5099C64.665 48.9915 65.3578 47.6657 65.5438 46.1303C65.5239 44.5833 64.9774 43.1908 64.1419 42.5788C62.6206 41.4659 61.145 40.9744 60.0099 40.545C60.7811 39.6064 61.8167 38.4468 62.5832 36.7242ZM63.5837 46.2134C62.8477 48.2238 60.2837 49.7042 59.7431 49.8329C59.3277 49.9312 58.5401 49.2969 58.1797 48.9856C57.8556 49.0313 58.2183 50.1418 57.549 50.3583C57.9 50.968 56.8855 51.5472 57.0949 51.7988C57.57 51.8105 58.5799 51.869 58.8222 52.2213C59.1358 52.68 60.0415 55.4978 59.2376 57.4813C59.2118 57.5457 59.1837 57.6042 59.1545 57.658C59.1089 57.6978 59.0574 57.7364 58.9989 57.7751C57.2225 58.9687 54.2782 58.6597 53.7657 58.4456C53.3713 58.2818 53.1069 57.3046 52.9992 56.8412C52.709 56.6879 52.3497 57.7996 51.6816 57.582C51.6067 58.2806 50.4458 58.153 50.4669 58.4795C50.8449 58.7686 51.6277 59.4098 51.616 59.837C51.6008 60.3916 50.6775 63.2048 48.8602 64.3364C48.8017 64.3739 48.7455 64.4043 48.6905 64.43C48.6297 64.4359 48.5641 64.437 48.4951 64.4335C46.3571 64.3551 44.156 62.374 43.8669 61.9C43.6446 61.5349 44.005 60.5894 44.1887 60.1518C44.0448 59.8569 43.1016 60.5449 42.6885 59.9762C42.2181 60.497 41.3533 59.7118 41.1778 59.9891C41.3147 60.4443 41.571 61.4238 41.31 61.762C40.9718 62.202 38.5706 63.935 36.4361 63.7829C36.3671 63.7782 36.3027 63.77 36.243 63.7583C36.1915 63.7267 36.1377 63.6893 36.0839 63.6472C34.3999 62.326 33.7833 59.4297 33.8289 58.8762C33.8628 58.4503 34.7101 57.8979 35.1161 57.651C35.1735 57.3292 34.0056 57.3304 34.0056 56.6271C33.3187 56.7722 33.0811 55.6289 32.7757 55.7506C32.6189 56.1988 32.2503 57.1408 31.8407 57.2625C31.3083 57.4193 28.3476 57.41 26.7105 56.0315C26.6567 55.987 26.6099 55.9425 26.5678 55.8981C26.5444 55.8431 26.5233 55.781 26.5046 55.7143C25.9183 53.6559 27.1224 50.9516 27.484 50.5303C27.7625 50.205 28.7724 50.2553 29.2464 50.2963C29.4816 50.0681 28.536 49.3823 28.9503 48.8148C28.309 48.5281 28.7876 47.4632 28.4705 47.3825C28.0797 47.6528 27.2278 48.1981 26.8252 48.0553C26.3021 47.8693 23.9126 46.1222 23.3977 44.045C23.3801 43.9772 23.3684 43.914 23.3602 43.8531C23.3743 43.7934 23.393 43.7314 23.4176 43.6671C24.1536 41.6566 26.7175 40.1763 27.257 40.0488C27.6736 39.9493 28.4612 40.5836 28.8204 40.8948C29.1457 40.8492 28.783 39.7387 29.4511 39.5222C29.1013 38.9125 30.1158 38.3333 29.9064 38.0817C29.4301 38.07 28.4202 38.0115 28.1791 37.6592C27.8643 37.2017 26.9586 34.3826 27.7637 32.3991C27.7895 32.3348 27.8164 32.2763 27.8456 32.2224C27.8924 32.1838 27.9439 32.144 28.0013 32.1054C29.7776 30.9118 32.723 31.2219 33.2344 31.4349C33.63 31.5999 33.8944 32.5758 34.0021 33.0392C34.2923 33.1925 34.6515 32.0809 35.3197 32.2985C35.3946 31.6011 36.5555 31.7274 36.5332 31.401C36.1553 31.1119 35.3736 30.4706 35.3853 30.0435C35.3993 29.4888 36.3238 26.6757 38.1399 25.5441C38.1984 25.5078 38.2558 25.4762 38.3108 25.4505C38.3716 25.4458 38.436 25.4446 38.5062 25.447C40.6442 25.5254 42.8453 27.5065 43.1332 27.9804C43.3567 28.3456 42.9963 29.2911 42.8114 29.7287C42.9553 30.0236 43.8997 29.3355 44.3116 29.9043C44.7832 29.3835 45.648 30.1687 45.8223 29.8914C45.6866 29.4362 45.4303 28.4579 45.6913 28.1185C46.0295 27.6785 48.4296 25.9455 50.5652 26.0976C50.6342 26.1023 50.6986 26.1105 50.7583 26.1222C50.8097 26.1538 50.8636 26.1912 50.9174 26.2345C52.6013 27.5545 53.218 30.4508 53.1724 31.0043C53.1385 31.4302 52.2912 31.9837 51.884 32.2295C51.8278 32.5524 52.9957 32.5501 52.9945 33.2534C53.6826 33.1083 53.9202 34.2516 54.2244 34.131C54.3824 33.6817 54.7498 32.7397 55.1606 32.6191C55.693 32.4612 58.6536 32.4705 60.2908 33.849C60.3446 33.8935 60.3914 33.938 60.4324 33.9824C60.4569 34.0386 60.478 34.0995 60.4967 34.1662C61.083 36.2245 59.8788 38.9289 59.5173 39.3502C59.2387 39.6755 58.2277 39.6252 57.7549 39.5842C57.5185 39.8124 58.4641 40.4981 58.051 41.0657C58.6923 41.3536 58.2125 42.4184 58.5308 42.4992C58.9216 42.2277 59.7735 41.6824 60.1761 41.8252C60.6992 42.0112 63.0887 43.7595 63.6036 45.8366C63.6212 45.9033 63.6329 45.9677 63.6399 46.0274C63.6258 46.087 63.6071 46.1491 63.5837 46.2134ZM50.9244 29.6433C50.6693 29.0149 50.3265 28.555 49.9403 28.2414C49.4441 28.2145 48.8813 28.3245 48.2704 28.6194C45.1893 30.2577 44.9868 33.8221 46.762 36.4843C49.8642 35.7038 52.1075 32.9269 50.9244 29.6433ZM40.5154 28.2016C39.9397 27.8424 39.392 27.6727 38.8947 27.6446C38.4781 27.9161 38.0873 28.335 37.7666 28.933C36.236 32.0691 38.168 35.0719 41.1684 36.1824C43.2198 33.7262 43.4023 30.1617 40.5154 28.2016ZM31.2462 33.1528C30.5699 33.2007 30.0269 33.3845 29.6091 33.6548C29.4301 34.1193 29.361 34.6881 29.4523 35.3609C30.0585 38.7978 33.3854 40.0909 36.4654 39.225C36.6819 36.0338 34.7346 33.0416 31.2462 33.1528ZM26.6579 42.6069C26.1383 43.0433 25.8083 43.5114 25.6281 43.976C25.7568 44.4569 26.0353 44.9566 26.5046 45.4469C29.0147 47.8716 32.4668 46.9624 34.4503 44.4523C32.7488 41.7421 29.4149 40.4665 26.6579 42.6069ZM28.5033 52.9526C28.3395 53.6103 28.3476 54.1837 28.474 54.6647C28.8614 54.9783 29.3809 55.2193 30.0491 55.3399C33.5047 55.8255 35.7632 53.0615 35.892 49.8645C32.922 48.6732 29.4757 49.6 28.5033 52.9526ZM36.0769 60.2372C36.332 60.8667 36.6737 61.3255 37.0598 61.6391C37.5572 61.666 38.1189 61.556 38.7309 61.2611C41.812 59.6228 42.0145 56.0584 40.2393 53.3962C37.1359 54.1779 34.8926 56.9547 36.0769 60.2372ZM46.4858 61.68C47.0616 62.0381 47.6081 62.2078 48.1054 62.2359C48.5232 61.9644 48.9128 61.5455 49.2347 60.9475C50.7641 57.8113 48.8333 54.8086 45.8329 53.6981C43.7815 56.1543 43.5989 59.7188 46.4858 61.68ZM55.755 56.7277C56.4314 56.6798 56.9744 56.496 57.3922 56.2257C57.5712 55.7611 57.6402 55.1924 57.5478 54.5196C56.9428 51.0838 53.6147 49.7896 50.5348 50.6555C50.3194 53.8467 52.2667 56.8389 55.755 56.7277ZM60.3434 47.2736C60.8618 46.8372 61.193 46.3691 61.372 45.9057C61.2433 45.4247 60.966 44.9239 60.4967 44.4335C57.9855 42.0089 54.5333 42.9181 52.551 45.4294C54.2525 48.1384 57.5864 49.4139 60.3434 47.2736ZM58.498 36.929C58.6607 36.2702 58.6536 35.6968 58.5261 35.2158C58.1399 34.9022 57.6203 34.6612 56.9522 34.5406C53.4965 34.055 51.238 36.819 51.1093 40.016C54.0781 41.2085 57.5256 40.2805 58.498 36.929ZM49.0182 30.9095C49.2522 30.913 49.4921 30.9692 49.4909 31.1892C49.4874 32.171 48.8684 32.7221 48.1288 32.941C47.7274 32.2821 47.6385 31.4571 48.295 30.7281C48.4413 30.5643 48.6566 30.6825 48.8321 30.8369C48.9023 30.714 48.9749 30.6216 49.0486 30.5537C49.058 30.6532 49.0498 30.7714 49.0182 30.9095ZM39.7174 30.3454C39.9093 30.2109 40.1351 30.1161 40.2639 30.2939C40.8384 31.0909 40.6617 31.9006 40.1913 32.5127C39.4786 32.2154 38.9228 31.5999 39.0246 30.6239C39.048 30.4051 39.2914 30.3747 39.5243 30.3969C39.5091 30.2565 39.5138 30.1383 39.5325 30.04C39.5992 30.1149 39.6612 30.2155 39.7174 30.3454ZM31.8618 35.3563C31.9367 35.1351 32.0642 34.9245 32.2737 34.9935C33.2052 35.3001 33.5387 36.0595 33.5188 36.8307C32.7675 37.0086 31.9566 36.8389 31.4651 35.9893C31.3551 35.7986 31.5341 35.6301 31.7354 35.5107C31.6406 35.4066 31.5739 35.3083 31.5329 35.2182C31.6301 35.2404 31.7401 35.2849 31.8618 35.3563ZM28.4506 44.0287C28.3816 43.8051 28.3617 43.5594 28.5712 43.4927C29.5061 43.1931 30.2211 43.6109 30.6576 44.2475C30.1556 44.8326 29.3985 45.1708 28.5021 44.7729C28.3008 44.684 28.3476 44.4417 28.4401 44.2276C28.302 44.1995 28.1908 44.1585 28.1031 44.1094C28.1955 44.0696 28.3102 44.0415 28.4506 44.0287ZM30.7887 53.0486C30.6015 52.9082 30.4411 52.7209 30.571 52.5442C31.1515 51.752 31.9753 51.6701 32.7032 51.9275C32.64 52.6975 32.228 53.416 31.2673 53.6208C31.0532 53.6665 30.949 53.4441 30.8975 53.2159C30.7688 53.2745 30.6553 53.306 30.5558 53.3178C30.6061 53.2323 30.6834 53.141 30.7887 53.0486ZM37.9819 58.971C37.7479 58.9675 37.5092 58.9113 37.5104 58.6913C37.5139 57.7107 38.1329 57.1595 38.8725 56.9395C39.2739 57.5995 39.3628 58.4234 38.7063 59.1536C38.5589 59.3162 38.3435 59.198 38.168 59.0436C38.099 59.1664 38.0252 59.2589 37.9515 59.3268C37.9433 59.2273 37.9515 59.1091 37.9819 58.971ZM47.2839 59.5351C47.092 59.6696 46.865 59.7644 46.7374 59.5865C46.1629 58.7908 46.3396 57.981 46.81 57.3678C47.5215 57.6662 48.0773 58.2806 47.9755 59.2565C47.9533 59.4754 47.7087 59.5058 47.4758 59.4836C47.4922 59.624 47.4875 59.7422 47.4676 59.8405C47.4021 59.7656 47.3389 59.6649 47.2839 59.5351ZM55.1395 54.5242C55.0646 54.7454 54.9359 54.956 54.7276 54.887C53.7949 54.5804 53.4626 53.8209 53.4825 53.0498C54.2338 52.8719 55.0447 53.0428 55.5362 53.8923C55.6462 54.0819 55.466 54.2504 55.2659 54.3698C55.3607 54.4739 55.4262 54.5722 55.4683 54.6635C55.3712 54.6413 55.2612 54.5968 55.1395 54.5242ZM58.5507 45.853C58.6185 46.0765 58.6396 46.3211 58.4301 46.3878C57.4951 46.6885 56.7801 46.2696 56.3425 45.6342C56.8457 45.0479 57.6016 44.7097 58.4992 45.1076C58.7005 45.1965 58.6536 45.4388 58.5612 45.6529C58.6993 45.681 58.8104 45.7219 58.8982 45.7711C58.8058 45.8109 58.6911 45.8401 58.5507 45.853ZM52.1812 41.171C51.8009 41.0949 51.8629 42.2628 50.6717 42.1727C50.3206 42.147 49.6477 41.8591 48.9901 41.3875C48.8298 40.5953 48.8415 39.8627 48.9632 39.5316C49.3681 38.4082 50.4084 38.9429 50.495 38.565C50.2621 38.318 49.8748 37.8722 49.6243 37.4018C49.113 37.2543 48.5969 36.9653 48.3079 36.7886C47.9556 36.9501 48.6917 37.8593 47.6759 38.4854C47.3764 38.6726 46.6625 38.8341 45.8528 38.84C45.2583 38.2923 44.837 37.6932 44.7411 37.3538C44.4076 36.207 45.5637 36.028 45.4116 35.671C45.0781 35.609 44.5023 35.4756 44.0237 35.2416C43.5229 35.423 42.9366 35.4932 42.5984 35.5201C42.4088 35.8583 43.5381 36.1602 43.084 37.2649C42.9518 37.5913 42.4685 38.1413 41.8179 38.6223C41.014 38.5287 40.3224 38.2911 40.045 38.0735C39.1018 37.3409 39.9315 36.5171 39.598 36.3182C39.2926 36.4633 38.7484 36.6938 38.223 36.7862C37.9246 37.2274 37.4905 37.6288 37.233 37.8488C37.2787 38.2338 38.3705 37.8149 38.6525 38.9757C38.7367 39.3174 38.67 40.0464 38.4255 40.8176C37.721 41.2143 37.0212 41.4296 36.669 41.4168C35.4742 41.3781 35.6626 40.2243 35.2753 40.2582C35.1126 40.5555 34.8084 41.0622 34.4386 41.4448C34.4561 41.9785 34.3414 42.5577 34.2619 42.8877C34.5252 43.1721 35.1618 42.1914 36.0722 42.9638C36.3413 43.192 36.7158 43.8204 36.9721 44.588C36.635 45.3229 36.195 45.908 35.9025 46.1046C34.9137 46.7763 34.3871 45.7325 34.0945 45.9876C34.1378 46.3234 34.1893 46.912 34.1144 47.4398C34.4421 47.8599 34.6902 48.397 34.8201 48.7095C35.2004 48.7855 35.1383 47.6177 36.3284 47.7078C36.6807 47.7335 37.3535 48.0226 38.0112 48.493C38.1715 49.2852 38.1587 50.0178 38.0381 50.3489C37.6321 51.4723 36.5929 50.9375 36.5063 51.3155C36.7392 51.5624 37.1265 52.0083 37.3758 52.4787C37.8883 52.6273 38.4044 52.9152 38.6934 53.0919C39.0457 52.9304 38.3084 52.0223 39.3253 51.3951C39.6249 51.209 40.3387 51.0464 41.1474 51.0405C41.743 51.5882 42.1631 52.1873 42.2602 52.5267C42.5926 53.6735 41.4376 53.8525 41.5897 54.2094C41.922 54.2726 42.4978 54.4049 42.9764 54.6389C43.4784 54.4575 44.0647 54.3873 44.4029 54.3616C44.5924 54.0234 43.4632 53.7215 43.9172 52.6156C44.0495 52.2891 44.5316 51.7391 45.1822 51.2582C45.9862 51.3518 46.6789 51.5894 46.9563 51.807C47.8994 52.5396 47.0698 53.3634 47.4021 53.5623C47.7087 53.4172 48.2528 53.1867 48.7771 53.0942C49.0767 52.6531 49.5097 52.2517 49.7683 52.0317C49.7226 51.6467 48.6308 52.0668 48.3488 50.906C48.2646 50.5631 48.3313 49.834 48.5747 49.0629C49.2803 48.6662 49.9801 48.4509 50.3323 48.4637C51.5259 48.5024 51.3387 49.6573 51.7249 49.6222C51.8875 49.325 52.1918 48.8183 52.5627 48.4356C52.5452 47.9032 52.6598 47.3228 52.7394 46.994C52.4761 46.7084 51.8395 47.6891 50.9291 46.9167C50.66 46.6897 50.2855 46.0601 50.0292 45.2925C50.3662 44.5576 50.8062 43.9725 51.0988 43.7759C52.0876 43.1042 52.6142 44.1492 52.9068 43.8941C52.8635 43.5571 52.8108 42.9684 52.8869 42.4407C52.5592 42.0206 52.3111 41.4846 52.1812 41.171ZM56.2126 36.8319C56.3987 36.9723 56.5601 37.1595 56.4303 37.3362C55.8498 38.1285 55.0248 38.2104 54.2981 37.9529C54.3602 37.1829 54.7732 36.4644 55.7328 36.2597C55.9481 36.214 56.0523 36.4364 56.1038 36.6645C56.2325 36.606 56.346 36.5744 56.4455 36.5627C56.394 36.6482 56.3179 36.7394 56.2126 36.8319Z" fill="url(#paint11_radial_2016_15548)" fill-opacity="0.3"/>
  <path d="M84.2059 47.1383C83.9496 45.0342 82.5734 42.4375 77.8692 40.9256C80.4203 39.3962 81.6607 39.7121 81.5905 41.8758C84.9677 41.9554 83.6746 44.1191 83.8338 44.4093C84.2936 45.2531 86.3743 45.1115 85.4182 47.2038C86.1437 49.3862 84.09 49.0211 83.5412 49.811C83.3528 50.0825 84.406 52.3726 81.0393 52.0882C80.8766 54.2473 79.6093 54.4275 77.2373 52.6324C82.0761 51.6354 83.7249 49.2025 84.2059 47.1383Z" fill="url(#paint12_radial_2016_15548)" fill-opacity="0.3"/>
  <path d="M75.1411 70.6442C76.1708 68.7917 76.5828 65.8826 73.6666 61.8945C76.6296 62.1555 77.4464 63.1408 76.1182 64.8505C78.8038 66.8995 76.4856 67.8895 76.4435 68.2183C76.3195 69.1709 78.0865 70.2802 76.0831 71.4095C75.3868 73.6024 73.9404 72.0999 73.0324 72.417C72.7199 72.5259 72.2249 74.9973 69.6692 72.788C68.2684 74.438 67.1369 73.84 66.2744 70.9941C70.775 73.0314 73.5379 72.032 75.1411 70.6442Z" fill="url(#paint13_radial_2016_15548)" fill-opacity="0.3"/>
  <path d="M53.9892 84.3334C55.9119 83.4394 57.955 81.3283 57.9398 76.3877C60.1831 78.3408 60.265 79.6186 58.1856 80.2201C59.1545 83.4569 56.6971 82.8952 56.47 83.1351C55.8089 83.8337 56.5871 85.7692 54.3017 85.5059C52.4504 86.8716 52.1625 84.805 51.2416 84.5276C50.9256 84.4317 49.072 86.1414 48.3032 82.8507C46.2003 83.3633 45.6363 82.2142 46.6111 79.4045C49.0545 83.698 51.877 84.5136 53.9892 84.3334Z" fill="url(#paint14_radial_2016_15548)" fill-opacity="0.3"/>
  <path d="M28.8316 82.975C30.9122 83.3823 33.8061 82.8756 36.6977 78.8688C37.3647 81.7686 36.6802 82.8498 34.644 82.1138C33.5253 85.3014 31.8671 83.4033 31.5418 83.4642C30.5963 83.6409 30.0884 85.6642 28.3951 84.1078C26.0945 84.1242 27.0763 82.2835 26.4947 81.5181C26.2946 81.2548 23.7915 81.5474 25.1021 78.4346C23.0999 77.612 23.3187 76.3505 25.7598 74.6514C25.2121 79.5604 27.0166 81.8797 28.8316 82.975Z" fill="url(#paint15_radial_2016_15548)" fill-opacity="0.3"/>
  <path d="M9.27787 67.0894C10.7219 68.641 13.3607 69.9318 18.0544 68.3906C16.8901 71.1277 15.7011 71.6005 14.4865 69.8089C11.7072 71.7304 11.4814 69.2203 11.183 69.0787C10.3135 68.6656 8.71383 70.0043 8.25862 67.7494C6.38746 66.4095 8.26448 65.4979 8.24341 64.5371C8.23639 64.206 6.03874 62.9714 8.92915 61.2231C7.79288 59.3812 8.71149 58.4895 11.685 58.5492C8.35692 62.1991 8.45288 65.1363 9.27787 67.0894Z" fill="url(#paint16_radial_2016_15548)" fill-opacity="0.3"/>
  <path d="M2.79459 42.7431C3.05087 44.8483 4.42703 47.4438 9.13009 48.9557C6.57904 50.4863 5.33979 50.1692 5.41 48.0055C2.03279 47.9259 3.32469 45.7622 3.16672 45.472C2.70683 44.6283 0.625029 44.7699 1.58226 42.6775C0.85673 40.4951 2.91044 40.8602 3.4581 40.0703C3.64767 39.7988 2.59449 37.5087 5.96117 37.7931C6.12383 35.6352 7.39116 35.4539 9.762 37.2501C4.9232 38.246 3.27555 40.6788 2.79459 42.7431Z" fill="url(#paint17_radial_2016_15548)" fill-opacity="0.3"/>
  <path d="M11.8602 19.2374C10.8304 21.0899 10.4185 23.999 13.3346 27.9871C10.3717 27.7261 9.5537 26.7408 10.8831 25.0311C8.19743 22.9821 10.5144 21.9921 10.5577 21.6644C10.6818 20.7107 8.91477 19.6025 10.9182 18.4721C11.6133 16.2791 13.0608 17.7817 13.9689 17.4646C14.2802 17.3569 14.7752 14.8843 17.3309 17.0936C18.7316 15.4436 19.8632 16.0416 20.7268 18.8887C16.2262 16.8502 13.4634 17.8496 11.8602 19.2374Z" fill="url(#paint18_radial_2016_15548)" fill-opacity="0.3"/>
  <path d="M33.0117 5.54927C31.0891 6.44214 29.0459 8.55319 29.0611 13.4938C26.8179 11.5407 26.7348 10.264 28.8154 9.66138C27.8465 6.42576 30.3039 6.98629 30.5309 6.7464C31.1921 6.04778 30.4139 4.11226 32.6993 4.37556C34.5506 3.00993 34.8384 5.07651 35.7582 5.35385C36.0753 5.44981 37.9278 3.74131 38.6978 7.03076C40.8006 6.5182 41.3647 7.66735 40.3899 10.477C37.9465 6.18353 35.124 5.36789 33.0117 5.54927Z" fill="url(#paint19_radial_2016_15548)" fill-opacity="0.3"/>
  <path d="M58.1697 6.90645C56.089 6.49922 53.1951 7.00709 50.3035 11.0127C49.6365 8.1141 50.3211 7.03166 52.3572 7.76772C53.476 4.58008 55.1341 6.47815 55.4595 6.4173C56.4038 6.2406 56.9117 4.21731 58.6061 5.77369C60.9068 5.75731 59.925 7.59804 60.5065 8.36335C60.7067 8.62665 63.2097 8.3341 61.8991 11.448C63.9013 12.2695 63.6825 13.531 61.2414 15.2313C61.7891 10.3211 59.9846 8.00176 58.1697 6.90645Z" fill="url(#paint20_radial_2016_15548)" fill-opacity="0.3"/>
  <path d="M77.7233 22.792C76.2793 21.2403 73.6405 19.9496 68.9468 21.4907C70.11 18.7536 71.3001 18.2808 72.5147 20.0724C75.294 18.1509 75.5198 20.661 75.8182 20.8038C76.6865 21.2157 78.2874 19.8782 78.7426 22.1332C80.6126 23.4719 78.7367 24.3835 78.7578 25.3454C78.7648 25.6754 80.9625 26.9099 78.0709 28.6582C79.2083 30.5001 78.2897 31.3918 75.3162 31.3321C78.6443 27.6823 78.5483 24.7451 77.7233 22.792Z" fill="url(#paint21_radial_2016_15548)" fill-opacity="0.3"/>
  <path d="M84.9952 39.9401C84.5143 36.7162 77.266 38.7547 75.7764 40.0806C78.5345 35.4653 87.0653 35.4079 86.9998 40.6434C86.9799 42.263 84.7308 43.2647 83.0773 41.9283C81.4788 40.6341 83.0527 37.8935 84.9952 39.9401Z" fill="url(#paint22_radial_2016_15548)" fill-opacity="0.3"/>
  <path d="M74.1312 16.5056C71.8481 14.1804 67.1813 20.0888 66.7566 22.0372C66.2744 16.6823 73.1424 11.6212 76.1673 15.8959C77.1023 17.2171 75.8725 19.3504 73.7485 19.2404C71.6948 19.1339 71.3578 15.9907 74.1312 16.5056Z" fill="url(#paint23_radial_2016_15548)" fill-opacity="0.3"/>
  <path d="M51.5682 3.93183C48.3537 3.39353 48.0518 10.9168 48.8522 12.7423C45.3158 8.6934 47.8961 0.562803 52.8566 2.24205C54.3896 2.76162 54.6482 5.21086 52.8648 6.37054C51.1411 7.49042 49.0207 5.1465 51.5682 3.93183Z" fill="url(#paint24_radial_2016_15548)" fill-opacity="0.3"/>
  <path d="M25.9225 7.02276C23.0051 8.47616 27.1828 14.7403 28.9041 15.7466C23.6628 14.5495 20.9713 6.45404 25.9716 4.89884C27.5175 4.41671 29.1663 6.24691 28.4045 8.23275C27.6684 10.1531 24.5756 9.50243 25.9225 7.02276Z" fill="url(#paint25_radial_2016_15548)" fill-opacity="0.3"/>
  <path d="M6.99179 24.596C5.48573 27.4864 12.5468 30.0983 14.5314 29.9006C9.5873 32.0128 2.65149 27.0453 5.78179 22.8477C6.74955 21.55 9.15901 22.0614 9.71018 24.1151C10.2438 26.1009 7.35923 27.3928 6.99179 24.596Z" fill="url(#paint26_radial_2016_15548)" fill-opacity="0.3"/>
  <path d="M2.0061 49.9407C2.48705 53.1647 9.73531 51.1262 11.2238 49.8003C8.46681 54.4156 -0.0639991 54.4741 0.000362215 49.2374C0.0214259 47.6191 2.27056 46.6162 3.92406 47.9537C5.52257 49.2468 3.94747 51.9874 2.0061 49.9407Z" fill="url(#paint27_radial_2016_15548)" fill-opacity="0.3"/>
  <path d="M12.8703 73.3753C15.1534 75.7005 19.8202 69.7921 20.2449 67.8438C20.7259 73.1986 13.8591 78.2598 10.8341 73.985C9.89915 72.6638 11.129 70.5305 13.253 70.6405C15.3067 70.747 15.6437 73.8902 12.8703 73.3753Z" fill="url(#paint28_radial_2016_15548)" fill-opacity="0.3"/>
  <path d="M35.4328 85.9492C38.6474 86.4886 38.9493 78.9642 38.1477 77.1387C41.6852 81.1876 39.1038 89.3194 34.1444 87.6389C32.6115 87.1194 32.3528 84.6701 34.1351 83.5116C35.86 82.3906 37.9792 84.7345 35.4328 85.9492Z" fill="url(#paint29_radial_2016_15548)" fill-opacity="0.3"/>
  <path d="M61.0784 82.8587C63.9957 81.4053 59.8181 75.1411 58.0967 74.1348C63.338 75.3319 66.0295 83.4274 61.0292 84.9838C59.4834 85.4647 57.8346 83.6357 58.5952 81.6487C59.3312 79.7295 62.4253 80.379 61.0784 82.8587Z" fill="url(#paint30_radial_2016_15548)" fill-opacity="0.3"/>
  <path d="M80.0084 65.2858C81.5144 62.3943 74.4522 59.7824 72.4688 59.9801C77.4117 57.8679 84.3475 62.8354 81.2172 67.033C80.2495 68.3307 77.8412 67.8205 77.2888 65.7656C76.7564 63.7798 79.6409 62.4879 80.0084 65.2858Z" fill="url(#paint31_radial_2016_15548)" fill-opacity="0.3"/>
  <path d="M84.2153 54.3786C83.3903 57.5323 76.403 54.7262 75.0654 53.247C77.3111 58.1326 85.7857 59.1086 86.2842 53.8953C86.4387 52.2839 84.3101 51.0447 82.522 52.1962C80.7936 53.3102 82.0644 56.2041 84.2153 54.3786Z" fill="url(#paint32_radial_2016_15548)" fill-opacity="0.3"/>
  <path d="M81.9862 28.6444C83.1727 31.6799 75.8707 33.5172 73.9199 33.1064C78.6066 35.7394 86.0374 31.5477 83.3764 27.0366C82.5537 25.6428 80.1045 25.8909 79.3345 27.8744C78.5914 29.7912 81.3203 31.3862 81.9862 28.6444Z" fill="url(#paint33_radial_2016_15548)" fill-opacity="0.3"/>
  <path d="M65.0581 9.13508C67.8022 10.8939 62.974 16.6724 61.1543 17.4868C66.4939 16.8619 70.0408 9.10348 65.2371 7.01817C63.7522 6.37339 61.9161 8.01402 62.4591 10.0712C62.9845 12.0594 66.13 11.7458 65.0581 9.13508Z" fill="url(#paint34_radial_2016_15548)" fill-opacity="0.3"/>
  <path d="M39.8948 3.3019C43.148 3.11233 42.6378 10.6239 41.6455 12.3534C45.5973 8.70825 43.9075 0.347129 38.7949 1.4834C37.2151 1.83446 36.6943 4.24158 38.342 5.58614C39.9358 6.88507 42.2949 4.78338 39.8948 3.3019Z" fill="url(#paint35_radial_2016_15548)" fill-opacity="0.3"/>
  <path d="M16.1078 13.3743C18.6284 11.3077 22.6317 17.6842 22.8447 19.6677C23.9002 14.3959 17.6174 8.62444 14.1501 12.5481C13.0782 13.7616 14.0717 16.0143 16.1944 16.1337C18.2481 16.2495 18.921 13.1613 16.1078 13.3743Z" fill="url(#paint36_radial_2016_15548)" fill-opacity="0.3"/>
  <path d="M2.78537 35.5031C3.61036 32.3494 10.5965 35.1555 11.9352 36.6347C9.68958 31.7502 1.21495 30.7731 0.716443 35.9864C0.561976 37.5978 2.68941 38.837 4.47749 37.6855C6.20705 36.5715 4.93621 33.6776 2.78537 35.5031Z" fill="url(#paint37_radial_2016_15548)" fill-opacity="0.3"/>
  <path d="M5.01394 61.237C3.82852 58.2015 11.1306 56.3643 13.0813 56.775C8.3935 54.142 0.963856 58.3337 3.62373 62.8449C4.44639 64.2386 6.8968 63.9905 7.6668 62.007C8.40988 60.0902 5.68096 58.4952 5.01394 61.237Z" fill="url(#paint38_radial_2016_15548)" fill-opacity="0.3"/>
  <path d="M21.9431 80.7468C19.199 78.988 24.0272 73.2095 25.8469 72.395C20.5073 73.0199 16.9592 80.7784 21.7629 82.8637C23.2479 83.5085 25.0839 81.8678 24.541 79.8106C24.0167 77.8224 20.8712 78.1372 21.9431 80.7468Z" fill="url(#paint39_radial_2016_15548)" fill-opacity="0.3"/>
  <path d="M47.106 86.5789C43.8528 86.7696 44.3618 79.2569 45.3553 77.5273C41.4024 81.1725 43.0933 89.5348 48.2048 88.3974C49.7857 88.0463 50.3065 85.6404 48.6588 84.2946C47.065 82.9957 44.7047 85.0974 47.106 86.5789Z" fill="url(#paint40_radial_2016_15548)" fill-opacity="0.3"/>
  <path d="M70.8912 76.5079C68.3706 78.5733 64.3673 72.1969 64.1544 70.2134C63.1 75.4852 69.3817 81.2566 72.8502 77.3329C73.9221 76.1194 72.9286 73.8668 70.8046 73.7474C68.7521 73.6327 68.078 76.7209 70.8912 76.5079Z" fill="url(#paint41_radial_2016_15548)" fill-opacity="0.3"/>
  <path d="M86.9912 33.3605C86.5161 34.1399 85.5612 34.8748 84.0446 35.1474C82.0916 35.4997 80.7985 36.0274 80.1654 36.7307C80.4673 34.8478 82.8908 34.622 84.1734 34.1106C82.8066 34.306 80.5914 35.3148 79.3931 33.8309C80.293 34.127 81.6773 33.9409 83.5461 33.2763C84.9972 32.759 86.192 32.9205 86.9912 33.3605Z" fill="url(#paint42_radial_2016_15548)" fill-opacity="0.3"/>
  <path d="M85.4921 61.135C84.6496 61.4872 83.4454 61.5188 82.0576 60.8495C80.2707 59.9859 78.9144 59.6523 77.9888 59.8501C79.3392 58.5032 81.4339 59.746 82.7702 60.0853C81.5509 59.4405 79.166 58.9549 79.0689 57.0498C79.6224 57.8175 80.8511 58.4821 82.755 59.0415C84.233 59.4768 85.1036 60.3088 85.4921 61.135Z" fill="url(#paint43_radial_2016_15548)" fill-opacity="0.3"/>
  <path d="M67.9531 82.7243C67.0649 82.5136 66.0714 81.8326 65.3435 80.474C64.405 78.7257 63.5039 77.6596 62.6392 77.2746C64.522 76.9797 65.4863 79.2148 66.3686 80.2762C65.7613 79.037 64.1171 77.2419 65.1574 75.6445C65.1551 76.5912 65.7589 77.8504 66.9689 79.422C67.9098 80.6425 68.1251 81.8279 67.9531 82.7243Z" fill="url(#paint44_radial_2016_15548)" fill-opacity="0.3"/>
  <path d="M41.0745 89.8812C40.48 89.1897 40.0763 88.0534 40.2858 86.5274C40.5538 84.5615 40.452 83.1678 39.978 82.3486C41.676 83.2169 41.1424 85.5924 41.2313 86.9686C41.4689 85.61 41.1939 83.1912 42.9749 82.5101C42.4156 83.2743 42.164 84.6481 42.2201 86.6316C42.2623 88.1716 41.7404 89.2575 41.0745 89.8812Z" fill="url(#paint45_radial_2016_15548)" fill-opacity="0.3"/>
  <path d="M15.1224 79.8728C15.0487 78.9636 15.3904 77.8074 16.4564 76.6957C17.8291 75.2634 18.5651 74.0756 18.6634 73.1348C19.5271 74.8351 17.6992 76.4429 16.962 77.6096C17.9531 76.6489 19.1514 74.5308 20.9933 75.027C20.0911 75.316 19.08 76.2791 17.9601 77.9162C17.0895 79.1882 16.0281 79.7593 15.1224 79.8728Z" fill="url(#paint46_radial_2016_15548)" fill-opacity="0.3"/>
  <path d="M0.00976562 56.5211C0.483699 55.7417 1.43976 55.0068 2.95635 54.7342C4.90825 54.3819 6.20133 53.8542 6.83441 53.1509C6.53366 55.0337 4.11017 55.2596 2.82762 55.771C4.19442 55.5767 6.40962 54.5668 7.60674 56.0507C6.70802 55.7546 5.32367 55.9407 3.45485 56.6065C2.00263 57.1226 0.809016 56.9611 0.00976562 56.5211Z" fill="url(#paint47_radial_2016_15548)" fill-opacity="0.3"/>
  <path d="M1.50879 28.7462C2.35134 28.394 3.55548 28.3624 4.94334 29.0329C6.72908 29.8954 8.08535 30.2289 9.01215 30.0311C7.66173 31.378 5.56706 30.1365 4.22952 29.7959C5.44887 30.4419 7.83492 30.9275 7.93205 32.8314C7.37737 32.0638 6.14983 31.4003 4.2459 30.8397C2.76793 30.4044 1.8973 29.5724 1.50879 28.7462Z" fill="url(#paint48_radial_2016_15548)" fill-opacity="0.3"/>
  <path d="M19.0477 7.15674C19.9359 7.36738 20.9282 8.04961 21.6573 9.40704C22.5958 11.1553 23.4968 12.2214 24.3616 12.6064C22.4776 12.9025 21.5133 10.6662 20.6322 9.60481C21.2395 10.8441 22.8836 12.6392 21.8422 14.2377C21.8457 13.291 21.2418 12.0306 20.0307 10.4591C19.091 9.23853 18.8757 8.05312 19.0477 7.15674Z" fill="url(#paint49_radial_2016_15548)" fill-opacity="0.3"/>
  <path d="M45.9263 0C46.5208 0.692762 46.9233 1.82786 46.715 3.35498C46.4459 5.31976 46.5488 6.71347 47.0228 7.53262C45.3248 6.66432 45.8584 4.28881 45.7695 2.91264C45.5319 4.27125 45.8069 6.69007 44.0259 7.37113C44.5852 6.60698 44.8368 5.23316 44.7807 3.24966C44.7374 1.70967 45.2604 0.62489 45.9263 0Z" fill="url(#paint50_radial_2016_15548)" fill-opacity="0.3"/>
  <path d="M71.8781 10.0088C71.953 10.918 71.6113 12.0742 70.5452 13.1859C69.1725 14.6182 68.4365 15.806 68.337 16.7468C67.4746 15.0465 69.3024 13.4387 70.0397 12.272C69.0485 13.2327 67.849 15.352 66.0083 14.8546C66.9094 14.5656 67.9204 13.6025 69.0415 11.9654C69.9121 10.6934 70.9735 10.1223 71.8781 10.0088Z" fill="url(#paint51_radial_2016_15548)" fill-opacity="0.3"/>
  <path d="M66.8088 38.7348C66.3642 39.5294 66.0915 40.434 66.0669 41.4883C65.8411 40.5404 65.8282 39.7049 65.9757 38.956C65.476 38.3802 65.0711 37.6477 64.7949 36.7139C65.3414 37.6161 66.0272 38.2656 66.8088 38.7348Z" fill="url(#paint52_radial_2016_15548)" fill-opacity="0.3"/>
  <path d="M66.0048 53.6206C65.1775 54.0021 64.4251 54.5731 63.7861 55.4122C64.1606 54.5135 64.6416 53.8289 65.2009 53.3105C65.1354 52.551 65.2372 51.7202 65.5637 50.8027C65.4747 51.8536 65.6479 52.7816 66.0048 53.6206Z" fill="url(#paint53_radial_2016_15548)" fill-opacity="0.3"/>
  <path d="M56.6061 65.19C55.7121 65.0133 54.7677 65.0332 53.7578 65.3363C54.5887 64.8284 55.3809 64.5581 56.138 64.4668C56.5312 63.8139 57.1023 63.2019 57.905 62.6519C57.2158 63.4488 56.8097 64.3018 56.6061 65.19Z" fill="url(#paint54_radial_2016_15548)" fill-opacity="0.3"/>
  <path d="M42.2006 69.0256C41.5816 68.3574 40.8057 67.818 39.811 67.4692C40.7811 67.5476 41.5804 67.7934 42.2474 68.1655C42.9495 67.8671 43.7698 67.7091 44.7435 67.7349C43.7172 67.9748 42.8875 68.4276 42.2006 69.0256Z" fill="url(#paint55_radial_2016_15548)" fill-opacity="0.3"/>
  <path d="M28.291 63.6614C28.1834 62.7569 27.8733 61.8652 27.2729 60.998C28.0125 61.6311 28.5145 62.3005 28.8352 62.9921C29.5783 63.1653 30.3354 63.5187 31.1077 64.1131C30.1353 63.7036 29.1991 63.5819 28.291 63.6614Z" fill="url(#paint56_radial_2016_15548)" fill-opacity="0.3"/>
  <path d="M20.1924 51.1472C20.6371 50.3515 20.9097 49.4469 20.9343 48.3926C21.1601 49.3404 21.173 50.1771 21.0256 50.9249C21.5252 51.5006 21.9301 52.2332 22.2051 53.167C21.6598 52.2648 20.9741 51.6153 20.1924 51.1472Z" fill="url(#paint57_radial_2016_15548)" fill-opacity="0.3"/>
  <path d="M20.9951 36.2608C21.8236 35.8793 22.5749 35.3083 23.215 34.4692C22.8405 35.368 22.3596 36.0525 21.8002 36.5709C21.8657 37.3316 21.7628 38.1612 21.4375 39.0787C21.5264 38.0278 21.352 37.0999 20.9951 36.2608Z" fill="url(#paint58_radial_2016_15548)" fill-opacity="0.3"/>
  <path d="M30.3956 24.6915C31.2896 24.8682 32.234 24.8483 33.2439 24.5464C32.4119 25.0531 31.6208 25.3234 30.8637 25.4147C30.4705 26.0688 29.8994 26.6797 29.0967 27.2308C29.7859 26.4328 30.1908 25.5797 30.3956 24.6915Z" fill="url(#paint59_radial_2016_15548)" fill-opacity="0.3"/>
  <path d="M44.8004 20.8555C45.4194 21.5248 46.1953 22.0631 47.1899 22.4118C46.2187 22.3334 45.4194 22.0877 44.7536 21.7167C44.0514 22.014 43.23 22.1731 42.2563 22.1462C43.2838 21.9063 44.1135 21.4534 44.8004 20.8555Z" fill="url(#paint60_radial_2016_15548)" fill-opacity="0.3"/>
  <path d="M58.7102 26.2193C58.8167 27.1238 59.128 28.0155 59.7283 28.8838C58.9888 28.2496 58.4867 27.5802 58.1661 26.8886C57.423 26.7166 56.6659 26.362 55.8936 25.7676C56.866 26.1772 57.8022 26.2989 58.7102 26.2193Z" fill="url(#paint61_radial_2016_15548)" fill-opacity="0.3"/>
  <path fill-rule="evenodd" clip-rule="evenodd" d="M80.3496 50.1025C79.2953 50.6631 78.8833 49.5689 78.5662 49.7901C78.5779 50.4127 78.5276 51.8871 77.7892 52.1867C75.9847 52.9251 74.2236 52.4886 73.2383 52.0931C72.4835 51.7888 73.1458 50.6912 72.824 50.5718C72.4063 50.7988 71.5005 51.2505 71.1155 51.0645C70.6158 50.8234 68.4276 48.8282 68.1397 46.7078C68.1163 46.5393 68.1198 46.3953 68.1455 46.2713C68.1327 46.1461 68.1444 46.0021 68.1865 45.8371C68.7014 43.76 71.091 42.0117 71.614 41.8257C72.0178 41.6829 72.8685 42.2282 73.2593 42.4997C73.5917 42.4143 73.0522 41.2534 73.8351 41.0323C74.8567 40.7444 76.6553 40.4998 78.3696 41.429C79.0718 41.8058 78.9629 43.2767 78.8845 43.8946C79.1759 44.1497 79.7037 43.1047 80.6913 43.7764C81.1957 44.1146 82.1365 45.6043 82.236 47.0319C81.9832 48.4409 80.8879 49.8194 80.3496 50.1025ZM67.2538 49.8884C69.895 52.2979 72.6122 52.4664 73.0042 53.9783C73.3541 55.3263 71.8434 55.551 71.3578 55.4633C73.0487 56.8769 77.7272 56.0378 77.9179 58.2144C76.3148 59.7006 73.4115 55.9372 71.2091 55.8483C71.6281 56.1104 72.5958 57.2911 71.4326 58.0553C70.1267 58.9119 67.9993 57.2127 64.4243 57.2244C63.3805 57.2279 62.1073 58.0471 61.1805 59.305C60.1402 60.4694 59.5984 61.883 59.809 62.9058C60.5298 66.407 62.6292 68.1413 62.057 69.5947C61.5479 70.8901 60.194 70.1845 59.8523 69.8275C60.3894 71.9655 64.6677 74.0368 63.5431 75.9103C61.3724 76.1701 61.2355 71.419 59.5047 70.0522C59.6908 70.5098 59.7797 72.0346 58.3895 71.969C56.8285 71.8953 56.1065 69.2694 53.2079 67.1782C52.3606 66.5673 50.8499 66.4819 49.3614 66.9535C47.8343 67.2847 46.5658 68.1097 46.1351 69.0611C44.6595 72.3177 45.3394 74.9542 44.0217 75.7944C42.848 76.5434 42.1681 75.1766 42.1014 74.6862C41.2799 76.7318 43.5232 80.9223 41.5117 81.7765C39.603 80.7105 42.2852 76.7868 41.6884 74.664C41.569 75.1438 40.7452 76.4298 39.6592 75.5592C38.4399 74.5821 39.3994 72.0334 38.2831 68.6374C37.9566 67.6451 36.7852 66.6879 35.3025 66.1952C33.8725 65.5657 32.3618 65.4872 31.4537 66.0045C28.3468 67.7715 27.3463 70.3038 25.7864 70.209C24.3974 70.1248 24.6502 68.6187 24.8842 68.1834C23.0165 69.356 22.3694 74.0649 20.2396 73.5734C19.3222 71.5887 23.7982 69.9902 24.5636 67.9225C24.1844 68.2407 22.7626 68.7966 22.3963 67.4544C21.9844 65.9471 24.257 64.4493 25.3511 61.0451C25.6706 60.0516 25.2844 58.5877 24.3752 57.318C23.5888 55.9676 22.4115 55.0162 21.3736 54.9016C17.8208 54.5049 15.5237 55.9641 14.3172 54.9718C13.243 54.0871 14.3324 53.0175 14.7771 52.8022C12.5783 52.6536 9.28652 56.0823 7.85185 54.4323C8.27663 52.2885 12.8369 53.626 14.6706 52.4032C14.178 52.4383 12.7012 52.0521 13.1938 50.7497C13.7462 49.2881 16.4657 49.4133 19.3503 47.3022C20.194 46.6855 20.7417 45.2754 20.7534 43.7132C20.9102 42.1592 20.517 40.6976 19.7446 39.9931C17.1035 37.5849 14.3874 37.4152 13.9954 35.9033C13.6455 34.5564 15.1563 34.3317 15.6419 34.4183C13.951 33.0058 9.27248 33.8449 9.08056 31.6671C10.6849 30.181 13.5882 33.9443 15.7905 34.0333C15.3716 33.7712 14.4038 32.5904 15.567 31.8274C16.873 30.9697 18.9992 32.6688 22.5742 32.6571C23.6192 32.6536 24.8912 31.8345 25.8192 30.5777C26.8595 29.4121 27.4001 27.9985 27.1895 26.9758C26.4687 23.4745 24.3705 21.7403 24.9415 20.2869C25.4517 18.9914 26.8057 19.6971 27.1474 20.054C26.6091 17.916 22.3308 15.8448 23.4565 13.9713C25.6273 13.7115 25.7642 18.4637 27.4938 19.8293C27.3089 19.3718 27.2199 17.847 28.6101 17.9125C30.17 17.9874 30.892 20.6122 33.7918 22.7033C34.6379 23.3142 36.1486 23.3996 37.6383 22.928C39.1654 22.5969 40.4339 21.7719 40.8645 20.8205C42.339 17.5638 41.6603 14.9273 42.9779 14.0871C44.1505 13.3394 44.8315 14.7062 44.8982 15.1953C45.7197 13.1498 43.4764 8.95927 45.488 8.10502C47.3966 9.17108 44.7145 13.0948 45.3113 15.2175C45.4307 14.7377 46.2545 13.4529 47.3404 14.3235C48.5586 15.2994 47.6002 17.8482 48.7166 21.2441C49.0419 22.2364 50.2145 23.1937 51.6971 23.6863C53.1259 24.3159 54.6379 24.3943 55.5448 23.8782C58.6528 22.11 59.6534 19.5789 61.2121 19.6725C62.6023 19.7568 62.3483 21.2628 62.1155 21.6981C63.9819 20.5268 64.6302 15.8178 66.76 16.3082C67.6775 18.2928 63.2014 19.8913 62.4361 21.9591C62.8141 21.6408 64.2359 21.0849 64.6033 22.4283C65.0152 23.9344 62.7415 25.4323 61.6486 28.8364C61.3291 29.8299 61.7153 31.2938 62.6245 32.5635C63.4109 33.9139 64.5869 34.8653 65.6249 34.9811C69.1777 35.3778 71.4759 33.9174 72.6813 34.9098C73.7567 35.7944 72.666 36.864 72.2214 37.0793C74.4214 37.2279 77.7131 33.7992 79.1466 35.4492C78.723 37.593 74.1616 36.2555 72.3279 37.4784C72.8205 37.4444 74.2985 37.8294 73.8058 39.1319C73.2535 40.5935 70.5339 40.4682 67.6482 42.5793C66.8057 43.196 66.258 44.6061 66.2463 46.1683C66.0895 47.7235 66.4827 49.1839 67.2538 49.8884ZM59.7961 11.4893C60.0032 12.6653 58.8354 12.7191 58.9477 13.0901C59.5434 13.2703 60.93 13.7735 60.9862 14.5692C61.1313 16.513 60.1718 18.0529 59.4919 18.8674C58.9688 19.4923 58.1297 18.5234 57.9168 18.7913C58.0034 19.2594 58.1532 20.2599 57.8571 20.5689C57.4733 20.9703 54.9 22.4342 52.7948 22.0527C52.6263 22.0235 52.4905 21.9755 52.3805 21.9123C52.2577 21.8854 52.1242 21.8304 51.9803 21.7391C50.1642 20.6075 49.2397 17.7943 49.2256 17.2396C49.2128 16.8125 49.9956 16.1713 50.3736 15.8822C50.3959 15.5405 49.1238 15.695 49.1566 14.8817C49.1987 13.8215 49.5217 12.0357 50.9341 10.6923C51.5111 10.1412 52.8755 10.6982 53.4384 10.965C53.7719 10.7661 52.9411 9.94224 53.8842 9.20969C54.3629 8.83523 56.0702 8.40108 57.458 8.74746C58.7195 9.42267 59.6931 10.8901 59.7961 11.4893ZM37.0216 8.29927C37.8805 9.12895 36.9666 9.85916 37.2755 10.092C37.8641 9.88841 39.2812 9.48118 39.795 10.0909C41.0553 11.5782 41.1828 13.3885 41.1114 14.4475C41.0553 15.2597 39.8078 14.9694 39.7938 15.3111C40.1378 15.6388 40.847 16.3608 40.7896 16.7844C40.7147 17.3344 39.493 20.0318 37.5657 20.9609C37.4124 21.0358 37.2743 21.0768 37.1491 21.0908C37.0333 21.1411 36.8928 21.1739 36.7232 21.1856C34.5887 21.3377 32.1874 19.6046 31.8493 19.1646C31.5883 18.8253 31.8446 17.847 31.9815 17.3918C31.7978 17.1016 30.8604 17.9745 30.4076 17.2982C29.819 16.4147 29.0302 14.7799 29.3836 12.8631C29.5264 12.0779 30.9576 11.7268 31.5696 11.6121C31.7217 11.2552 30.5667 11.0762 30.8991 9.92937C31.0652 9.34544 32.191 7.99034 33.518 7.45438C34.9363 7.26013 36.5863 7.87566 37.0216 8.29927ZM16.7208 19.105C17.9039 19.2711 17.5938 20.3992 17.9811 20.4062C18.3369 19.8948 19.2438 18.7328 20.0185 18.9247C21.9119 19.387 23.0797 20.776 23.6438 21.6747C24.0768 22.3652 22.896 22.8625 23.0856 23.1492C23.5572 23.2112 24.5542 23.3774 24.7566 23.7542C25.0199 24.2433 25.6167 27.1431 24.6045 29.0283C24.5238 29.1793 24.436 29.2928 24.3424 29.3782C24.2792 29.487 24.1844 29.5959 24.0545 29.7059C22.4162 31.0832 19.4556 31.0925 18.9232 30.9357C18.5136 30.814 18.145 29.872 17.9882 29.4238C17.6699 29.2963 17.4241 30.5543 16.66 30.2722C15.6641 29.9036 14.0656 29.0447 13.2243 27.287C12.8791 26.5685 13.8304 25.4428 14.2576 24.9888C14.171 24.6108 13.1318 25.1456 12.7258 24.0222C12.5175 23.4523 12.6321 21.6946 13.3904 20.4811C14.4226 19.49 16.1205 19.0172 16.7208 19.105ZM6.64887 39.779C7.7044 39.2185 8.11514 40.3138 8.43344 40.0914C8.42174 39.4689 8.47206 37.9944 9.21046 37.6949C11.0149 36.9564 12.7761 37.3941 13.7614 37.7885C14.5162 38.0927 13.8538 39.1904 14.1756 39.3097C14.5934 39.0827 15.498 38.631 15.883 38.8171C16.3838 39.0581 18.5709 41.0533 18.86 43.1738C18.8834 43.3423 18.8799 43.4874 18.8541 43.6102C18.8658 43.7366 18.8541 43.8794 18.8132 44.0456C18.2971 46.1227 15.9075 47.8698 15.3845 48.0559C14.9819 48.1986 14.13 47.6533 13.7392 47.383C13.4068 47.4672 13.9474 48.6293 13.1634 48.8504C12.1418 49.1371 10.3432 49.3817 8.63003 48.4537C7.92791 48.0757 8.03557 46.6048 8.11514 45.9881C7.82259 45.733 7.296 46.7768 6.30834 46.1051C5.80398 45.7669 4.86314 44.2773 4.76367 42.8496C5.01644 41.4418 6.11175 40.0622 6.64887 39.779ZM10.6533 62.4248C11.1776 61.3517 12.1535 61.9953 12.2799 61.6291C11.9043 61.1317 11.0793 59.91 11.5005 59.2337C12.5256 57.5755 14.2072 56.8944 15.237 56.6346C16.0269 56.4369 16.1357 57.7136 16.4657 57.6211C16.6705 57.1928 17.1374 56.2953 17.5587 56.2192C18.1052 56.1197 21.0471 56.4486 22.5274 57.9944C22.6456 58.1173 22.7263 58.2355 22.779 58.3513C22.8621 58.4449 22.9381 58.569 23.0013 58.727C23.8053 60.7105 22.8995 63.5283 22.5847 63.9859C22.3437 64.3393 21.3338 64.3978 20.8587 64.4095C20.6387 64.6728 21.7586 65.2942 21.2554 65.9343C20.5977 66.7674 19.2859 68.0219 17.3539 68.2782C16.564 68.3859 15.787 67.1326 15.4886 66.5861C15.1024 66.551 15.2897 67.706 14.0961 67.7446C13.4887 67.7656 11.8516 67.1138 10.933 66.0173C10.3093 64.7301 10.3842 62.9701 10.6533 62.4248ZM27.2035 78.3923C26.9964 77.2162 28.1643 77.1636 28.0508 76.7914C27.4551 76.6112 26.0696 76.108 26.0123 75.3123C25.8672 73.3686 26.8279 71.8286 27.5078 71.0141C28.0309 70.3892 28.8687 71.3582 29.0817 71.0902C28.9963 70.6221 28.8465 69.6216 29.1426 69.3126C29.5252 68.9113 32.0997 67.4473 34.2049 67.8288C34.3734 67.8581 34.5091 67.9072 34.618 67.9693C34.742 67.9962 34.8742 68.0523 35.0193 68.1424C36.8355 69.274 37.76 72.0872 37.774 72.6419C37.7857 73.0702 37.004 73.7103 36.6249 73.9993C36.6026 74.341 37.8746 74.1866 37.8431 74.9999C37.7998 76.0601 37.4779 77.8458 36.0643 79.1892C35.4886 79.7404 34.1241 79.1833 33.5613 78.9165C33.2278 79.1155 34.0574 79.9393 33.1143 80.6718C32.6368 81.0463 30.9295 81.4816 29.5404 81.1341C28.279 80.4589 27.3053 78.9914 27.2035 78.3923ZM49.9781 81.5823C49.1192 80.7526 50.0331 80.0236 49.723 79.7895C49.1344 79.9931 47.7184 80.4004 47.2047 79.7907C45.9444 78.3034 45.8157 76.493 45.8871 75.434C45.9432 74.6219 47.1918 74.9133 47.2059 74.5704C46.8607 74.2427 46.1515 73.5207 46.21 73.0971C46.2837 72.5471 47.5054 69.8509 49.4328 68.9206C49.5861 68.8457 49.7253 68.8048 49.8505 68.7919C49.9664 68.7416 50.1068 68.7077 50.2765 68.696C52.4109 68.5438 54.8122 70.2769 55.1504 70.7169C55.4114 71.0563 55.1551 72.0346 55.0182 72.4898C55.2007 72.78 56.1392 71.907 56.5921 72.5845C57.1807 73.4669 57.9694 75.1017 57.616 77.0185C57.4733 77.8037 56.0409 78.1547 55.4301 78.2694C55.2768 78.6263 56.4329 78.8054 56.1006 79.9522C55.9333 80.5361 54.8075 81.8912 53.4805 82.4272C52.0634 82.6226 50.4122 82.007 49.9781 81.5823ZM70.2776 70.7766C69.0957 70.6104 69.4058 69.4823 69.0185 69.4753C68.6616 69.9867 67.7547 71.1487 66.9812 70.958C65.0878 70.4946 63.9199 69.1055 63.3547 68.2068C62.9229 67.5164 64.1036 67.019 63.9141 66.7335C63.4425 66.6715 62.4443 66.5042 62.2418 66.1273C61.9797 65.6382 61.3817 62.7384 62.3951 60.8532C62.4747 60.7023 62.5625 60.5888 62.6561 60.5033C62.7205 60.3945 62.8141 60.2857 62.9451 60.1757C64.5834 58.7984 67.5441 58.789 68.0765 58.9458C68.4861 59.0675 68.8535 60.0095 69.0115 60.4577C69.3298 60.5853 69.5755 59.3273 70.3397 59.6093C71.3344 59.9779 72.934 60.8368 73.7742 62.5957C74.1206 63.313 73.1681 64.4387 72.7409 64.8928C72.8275 65.2708 73.8678 64.736 74.2727 65.8594C74.481 66.4293 74.3675 68.1881 73.6081 69.4004C72.5759 70.3916 70.8791 70.8643 70.2776 70.7766ZM71.0781 48.4373C73.7122 51.5969 78.1461 50.2921 80.1483 46.9196C78.5206 43.3505 74.2528 41.5764 71.2946 44.4341C70.665 45.0917 70.3783 45.7669 70.3362 46.3895C70.3116 47.0132 70.5234 47.7153 71.0781 48.4373ZM76.3463 27.4567C75.8221 28.5298 74.8461 27.8862 74.7198 28.2536C75.0954 28.7498 75.9204 29.9715 75.4991 30.6479C74.474 32.3061 72.7913 32.9883 71.7626 33.2469C70.9728 33.4447 70.8639 32.168 70.5339 32.2604C70.3291 32.6887 69.8611 33.5863 69.441 33.6623C68.8945 33.7618 65.9526 33.433 64.4723 31.8871C64.3541 31.7642 64.2722 31.6461 64.2207 31.5302C64.1364 31.4366 64.0615 31.3137 63.9983 31.1546C63.1944 29.1722 64.1001 26.3532 64.4137 25.8957C64.656 25.5423 65.6659 25.4838 66.141 25.4732C66.3598 25.2088 65.2399 24.5874 65.7443 23.9473C66.4019 23.1153 67.7126 21.8596 69.6457 21.6033C70.4356 21.4957 71.2115 22.749 71.5111 23.2955C71.8972 23.3306 71.71 22.1756 72.9036 22.1381C73.5109 22.1159 75.1469 22.7677 76.0667 23.8642C76.6904 25.1526 76.6143 26.9126 76.3463 27.4567ZM55.347 19.793C59.1654 18.2636 59.2953 13.6436 56.7068 10.697C52.8088 11.1429 49.8037 14.6535 51.607 18.3502C52.0377 19.1518 52.5912 19.6327 53.1704 19.8656C53.7555 20.0809 54.4892 20.0973 55.347 19.793ZM38.3018 17.6317C40.4936 14.1503 37.8828 10.3366 34.0563 9.47416C31.1647 12.1258 30.7961 16.7318 34.4284 18.6638C35.2487 19.0581 35.9789 19.1213 36.5839 18.9692C37.1854 18.8007 37.7881 18.3829 38.3018 17.6317ZM23.2436 25.9027C22.9697 21.7976 18.6154 20.2471 15.0135 21.7988C14.2318 25.6429 16.6424 29.5865 20.7159 29.0143C21.6111 28.8516 22.2395 28.4736 22.6397 27.995C23.0259 27.5047 23.2681 26.8119 23.2436 25.9027ZM15.9216 41.4454C13.2875 38.2858 8.85354 39.5894 6.85132 42.9619C8.47908 46.5311 12.7456 48.3051 15.7051 45.4475C16.3347 44.7898 16.6202 44.1146 16.6623 43.4921C16.6881 42.8683 16.4763 42.1662 15.9216 41.4454ZM19.1338 58.3232C15.1446 57.3145 12.3244 60.9761 12.6871 64.8822C16.1018 66.8119 20.5977 65.7388 21.3116 61.6876C21.4344 60.7865 21.2683 60.0715 20.9371 59.5438C20.5907 59.0242 20.0068 58.5807 19.1338 58.3232ZM31.6527 70.0897C27.8331 71.618 27.7044 76.2379 30.2929 79.1845C34.1908 78.7398 37.1959 75.2292 35.3926 71.5314C34.962 70.7298 34.4073 70.2488 33.8292 70.0171C33.2441 69.8006 32.5104 69.7842 31.6527 70.0897ZM48.6967 72.2499C46.5061 75.7312 49.1168 79.5449 52.9434 80.4074C55.835 77.7557 56.2024 73.1498 52.5701 71.2189C51.751 70.8234 51.0196 70.7602 50.4146 70.9123C49.8143 71.0808 49.2116 71.4998 48.6967 72.2499ZM63.7561 63.9789C64.0299 68.0839 68.3831 69.6345 71.9862 68.0828C72.7667 64.2386 70.3572 60.295 66.2837 60.8684C65.3885 61.0299 64.7601 61.4091 64.3599 61.8877C63.9726 62.3768 63.7315 63.0696 63.7561 63.9789ZM73.1365 47.981C72.9457 47.871 73.0183 47.6357 73.133 47.4321C72.3548 47.1841 72.5268 46.6071 72.9176 46.5287C72.5373 46.4094 72.4285 45.8173 73.2289 45.6534C73.1365 45.4393 73.0908 45.197 73.2909 45.1081C74.6624 44.4996 75.7051 45.6136 76.0163 46.6961C75.5904 47.7399 74.4342 48.7346 73.1365 47.981ZM67.8659 31.5595C71.8539 32.567 74.6741 28.9054 74.3114 24.9993C70.8967 23.0696 66.4019 24.1427 65.6881 28.1939C65.5652 29.095 65.7314 29.81 66.0626 30.3389C66.409 30.8573 66.9929 31.302 67.8659 31.5595ZM55.5494 17.6949C55.3856 17.8411 55.1843 17.6995 55.0264 17.5275C54.5501 18.191 54.0539 17.8493 54.1007 17.4538C53.869 17.7779 53.2722 17.6984 53.3647 16.8862C53.1318 16.9085 52.8872 16.8781 52.865 16.6592C52.7094 15.1672 54.0914 14.5201 55.2171 14.5587C56.0772 15.2866 56.667 16.6932 55.5494 17.6949ZM37.2334 15.8155C37.1866 16.0308 36.9408 16.0343 36.7115 15.9875C36.7161 16.8043 36.1147 16.8195 35.9192 16.472C35.9227 16.871 35.3926 17.1577 34.9913 16.4462C34.8157 16.6007 34.5992 16.7189 34.453 16.5551C33.4501 15.4399 34.1873 14.1047 35.1212 13.4739C36.2446 13.5558 37.5482 14.3481 37.2334 15.8155ZM62.0769 32.9181C60.5837 30.7743 59.9939 27.4766 61.1266 23.2428C57.2146 25.2193 53.8667 25.3176 51.4619 24.2948C48.9939 23.4382 46.5786 21.1165 45.0071 17.0255C43.0037 20.9235 40.3531 22.9713 37.8056 23.5576C35.3049 24.3159 31.9873 23.8572 28.3106 21.4711C28.9811 25.802 28.0402 29.0178 26.3247 30.9884C24.7473 33.0714 21.7925 34.6511 17.4159 34.8817C20.5053 37.9909 21.6334 41.1446 21.4028 43.7483C21.3513 46.3602 19.8909 49.3747 16.4845 52.134C20.8119 52.8338 23.5782 54.7225 24.9216 56.9635C26.416 59.1073 27.0058 62.4049 25.8718 66.6387C29.7838 64.6623 33.133 64.564 35.5366 65.5867C38.0057 66.4433 40.421 68.765 41.9926 72.856C43.996 68.9581 46.6465 66.9102 49.1929 66.3239C51.6936 65.5657 55.0123 66.0244 58.6891 68.4104C58.0174 64.0795 58.9594 60.8649 60.6749 58.8943C62.2524 56.8102 65.206 55.2304 69.5837 54.9999C66.4944 51.8906 65.3663 48.7369 65.5957 46.1332C65.6471 43.5213 67.1087 40.5069 70.514 37.7475C66.1878 37.0477 63.4214 35.159 62.0769 32.9181ZM13.8632 41.9006C14.0528 42.0106 13.9814 42.2458 13.8655 42.4494C14.6449 42.6975 14.4729 43.2744 14.082 43.3528C14.4623 43.4722 14.5712 44.0655 13.7696 44.2281C13.862 44.4423 13.9088 44.6845 13.7076 44.7734C12.3372 45.3819 11.2946 44.2691 10.9833 43.1855C11.4093 42.1428 12.5654 41.147 13.8632 41.9006ZM17.7366 59.9007C17.9542 59.8784 18.035 60.1113 18.0607 60.343C18.8366 60.0867 19.0378 60.6543 18.7664 60.9468C19.1443 60.8205 19.5808 61.2359 19.0285 61.8385C19.2298 61.9579 19.41 62.1264 19.2988 62.316C18.5487 63.6149 17.0497 63.327 16.1615 62.6331C15.8935 61.539 16.2434 60.054 17.7366 59.9007ZM31.4502 72.1879C31.6129 72.0404 31.8153 72.182 31.9733 72.354C32.4496 71.6905 32.9457 72.0322 32.8989 72.4277C33.1306 72.1036 33.7274 72.1832 33.635 72.9953C33.8679 72.9731 34.1113 73.0035 34.1335 73.2223C34.2903 74.7143 32.9083 75.3615 31.7826 75.3228C30.9213 74.5961 30.3327 73.1884 31.4502 72.1879ZM49.7663 74.066C49.8119 73.8519 50.0588 73.8472 50.287 73.894C50.2823 73.0772 50.885 73.062 51.0804 73.4095C51.0757 73.0105 51.6058 72.725 52.0084 73.4365C52.1839 73.282 52.3992 73.1626 52.5467 73.3265C53.5496 74.4417 52.8123 75.7769 51.8785 76.4076C50.7539 76.3257 49.4503 75.5335 49.7663 74.066ZM65.6893 64.8202C65.6003 64.6201 65.7969 64.4715 66.0099 64.3744C65.5254 63.7167 66.0029 63.3504 66.3657 63.5166C66.1281 63.196 66.3891 62.653 67.1321 62.9924C67.1836 62.7642 67.2878 62.5418 67.5031 62.5875C68.9705 62.8999 69.1589 64.4142 68.7739 65.4732C67.8167 66.0677 66.2954 66.1929 65.6893 64.8202ZM73.2769 46.5966C73.4454 46.6902 73.8269 46.7405 74.137 46.5943C73.8444 46.4164 73.4594 46.4246 73.2827 46.5007C73.2371 46.5205 73.1926 46.5334 73.1505 46.5416C73.1915 46.5533 73.2348 46.572 73.2769 46.5966ZM69.2631 29.9809C69.0443 30.0031 68.9647 29.7702 68.9378 29.5385C68.1619 29.7948 67.9618 29.2272 68.2321 28.9347C67.8542 29.0611 67.4188 28.6456 67.9712 28.043C67.7699 27.9236 67.5897 27.7551 67.6997 27.5655C68.451 26.2666 69.9488 26.5545 70.837 27.2484C71.1062 28.3426 70.7563 29.8276 69.2631 29.9809ZM54.2763 17.132C54.4179 17.0021 54.5829 16.6534 54.5407 16.314C54.2798 16.5364 54.1686 16.9061 54.1861 17.0981C54.1908 17.1472 54.1897 17.1928 54.185 17.2361C54.2096 17.1999 54.24 17.1659 54.2763 17.132ZM35.8724 16.1092C35.9099 15.9208 35.8397 15.5417 35.6045 15.2913C35.526 15.6248 35.6524 15.9887 35.78 16.1338C35.8127 16.1713 35.8385 16.2087 35.8596 16.2473C35.8584 16.2028 35.8619 16.1572 35.8724 16.1092ZM21.3104 25.0613C21.3993 25.2626 21.2027 25.41 20.9897 25.5072C21.4742 26.1648 20.9956 26.5311 20.634 26.3649C20.8704 26.6856 20.6106 27.2285 19.8664 26.8892C19.816 27.1174 19.7107 27.3397 19.4966 27.2941C18.0291 26.9816 17.8407 25.4674 18.2257 24.4083C19.183 23.815 20.703 23.6887 21.3104 25.0613ZM13.7228 43.2849C13.5543 43.1913 13.1716 43.141 12.8615 43.2873C13.154 43.4651 13.5402 43.4569 13.7169 43.3809C13.7626 43.361 13.8059 43.3481 13.8492 43.3399C13.807 43.3282 13.7649 43.3095 13.7228 43.2849ZM18.4364 61.1037C18.2444 61.1271 17.9063 61.3108 17.7413 61.6115C18.083 61.5834 18.3896 61.3506 18.4878 61.1844C18.5136 61.1423 18.5405 61.106 18.5709 61.0744C18.53 61.0884 18.4855 61.099 18.4364 61.1037ZM32.7234 72.7495C32.5818 72.8794 32.4156 73.2282 32.4589 73.5675C32.7199 73.3452 32.8299 72.9754 32.8135 72.7835C32.8077 72.7343 32.8088 72.6887 32.8147 72.6454C32.7901 72.6817 32.7597 72.7168 32.7234 72.7495ZM51.1272 73.7723C51.0886 73.9607 51.16 74.3399 51.394 74.5903C51.4736 74.2568 51.3461 73.8928 51.2197 73.7477C51.1869 73.7115 51.1612 73.6728 51.1401 73.6354C51.1413 73.6787 51.1366 73.7243 51.1272 73.7723ZM66.6173 63.7834C66.6968 63.9578 66.9777 64.2234 67.3135 64.2878C67.1825 63.9707 66.8653 63.7507 66.6781 63.7085C66.6289 63.698 66.5857 63.6828 66.547 63.6641C66.5728 63.698 66.5974 63.7378 66.6173 63.7834ZM68.5633 28.7779C68.754 28.7556 69.0934 28.5708 69.2584 28.27C68.9167 28.2981 68.6101 28.531 68.5106 28.6971C68.4861 28.7393 68.458 28.7755 68.4287 28.8071C68.4697 28.7931 68.5142 28.7826 68.5633 28.7779ZM20.3824 26.0993C20.3017 25.9237 20.022 25.6581 19.685 25.5949C19.8172 25.9109 20.1343 26.1309 20.3216 26.173C20.3695 26.1835 20.4128 26.1987 20.4526 26.2175C20.4257 26.1835 20.4023 26.1437 20.3824 26.0993Z" fill="url(#paint62_radial_2016_15548)" fill-opacity="0.3"/>
  <defs>
    <radialGradient id="paint0_radial_2016_15548" cx="0" cy="0" r="1" gradientUnits="userSpaceOnUse" gradientTransform="translate(43.4999 44.941) rotate(90) scale(6.24715 6.04529)">
      <stop stop-color="#070B25"/>
      <stop offset="1" stop-color="#590103"/>
    </radialGradient>
    <radialGradient id="paint1_radial_2016_15548" cx="0" cy="0" r="1" gradientUnits="userSpaceOnUse" gradientTransform="translate(65.2056 39.1862) rotate(90) scale(2.30238 0.707019)">
      <stop stop-color="#070B25"/>
      <stop offset="1" stop-color="#590103"/>
    </radialGradient>
    <radialGradient id="paint2_radial_2016_15548" cx="0" cy="0" r="1" gradientUnits="userSpaceOnUse" gradientTransform="translate(64.395 52.9879) rotate(90) scale(2.22281 0.886165)">
      <stop stop-color="#070B25"/>
      <stop offset="1" stop-color="#590103"/>
    </radialGradient>
    <radialGradient id="paint3_radial_2016_15548" cx="0" cy="0" r="1" gradientUnits="userSpaceOnUse" gradientTransform="translate(55.6503 63.7151) rotate(90) scale(1.29425 1.99988)">
      <stop stop-color="#070B25"/>
      <stop offset="1" stop-color="#590103"/>
    </radialGradient>
    <radialGradient id="paint4_radial_2016_15548" cx="0" cy="0" r="1" gradientUnits="userSpaceOnUse" gradientTransform="translate(42.2945 67.5758) rotate(90) scale(0.431806 2.37844)">
      <stop stop-color="#070B25"/>
      <stop offset="1" stop-color="#590103"/>
    </radialGradient>
    <radialGradient id="paint5_radial_2016_15548" cx="0" cy="0" r="1" gradientUnits="userSpaceOnUse" gradientTransform="translate(29.3983 62.2983) rotate(90) scale(1.50196 1.84951)">
      <stop stop-color="#070B25"/>
      <stop offset="1" stop-color="#590103"/>
    </radialGradient>
    <radialGradient id="paint6_radial_2016_15548" cx="0" cy="0" r="1" gradientUnits="userSpaceOnUse" gradientTransform="translate(21.795 50.6954) rotate(90) scale(2.30238 0.707064)">
      <stop stop-color="#070B25"/>
      <stop offset="1" stop-color="#590103"/>
    </radialGradient>
    <radialGradient id="paint7_radial_2016_15548" cx="0" cy="0" r="1" gradientUnits="userSpaceOnUse" gradientTransform="translate(22.605 36.8937) rotate(90) scale(2.22281 0.885782)">
      <stop stop-color="#070B25"/>
      <stop offset="1" stop-color="#590103"/>
    </radialGradient>
    <radialGradient id="paint8_radial_2016_15548" cx="0" cy="0" r="1" gradientUnits="userSpaceOnUse" gradientTransform="translate(31.349 26.1653) rotate(90) scale(1.29425 1.99988)">
      <stop stop-color="#070B25"/>
      <stop offset="1" stop-color="#590103"/>
    </radialGradient>
    <radialGradient id="paint9_radial_2016_15548" cx="0" cy="0" r="1" gradientUnits="userSpaceOnUse" gradientTransform="translate(44.7057 22.3058) rotate(90) scale(0.431806 2.37903)">
      <stop stop-color="#070B25"/>
      <stop offset="1" stop-color="#590103"/>
    </radialGradient>
    <radialGradient id="paint10_radial_2016_15548" cx="0" cy="0" r="1" gradientUnits="userSpaceOnUse" gradientTransform="translate(57.6019 27.5825) rotate(90) scale(1.50196 1.84893)">
      <stop stop-color="#070B25"/>
      <stop offset="1" stop-color="#590103"/>
    </radialGradient>
    <radialGradient id="paint11_radial_2016_15548" cx="0" cy="0" r="1" gradientUnits="userSpaceOnUse" gradientTransform="translate(43.5001 44.9402) rotate(90) scale(22.0999 22.6944)">
      <stop stop-color="#070B25"/>
      <stop offset="1" stop-color="#590103"/>
    </radialGradient>
    <radialGradient id="paint12_radial_2016_15548" cx="0" cy="0" r="1" gradientUnits="userSpaceOnUse" gradientTransform="translate(81.4519 46.9153) rotate(90) scale(6.94022 4.21462)">
      <stop stop-color="#070B25"/>
      <stop offset="1" stop-color="#590103"/>
    </radialGradient>
    <radialGradient id="paint13_radial_2016_15548" cx="0" cy="0" r="1" gradientUnits="userSpaceOnUse" gradientTransform="translate(71.8437 67.7988) rotate(90) scale(5.90428 5.56932)">
      <stop stop-color="#070B25"/>
      <stop offset="1" stop-color="#590103"/>
    </radialGradient>
    <radialGradient id="paint14_radial_2016_15548" cx="0" cy="0" r="1" gradientUnits="userSpaceOnUse" gradientTransform="translate(52.917 81.1781) rotate(90) scale(4.79036 6.76905)">
      <stop stop-color="#070B25"/>
      <stop offset="1" stop-color="#590103"/>
    </radialGradient>
    <radialGradient id="paint15_radial_2016_15548" cx="0" cy="0" r="1" gradientUnits="userSpaceOnUse" gradientTransform="translate(30.3466 79.6719) rotate(90) scale(5.02058 6.59803)">
      <stop stop-color="#070B25"/>
      <stop offset="1" stop-color="#590103"/>
    </radialGradient>
    <radialGradient id="paint16_radial_2016_15548" cx="0" cy="0" r="1" gradientUnits="userSpaceOnUse" gradientTransform="translate(12.7411 64.7092) rotate(90) scale(6.16284 5.31334)">
      <stop stop-color="#070B25"/>
      <stop offset="1" stop-color="#590103"/>
    </radialGradient>
    <radialGradient id="paint17_radial_2016_15548" cx="0" cy="0" r="1" gradientUnits="userSpaceOnUse" gradientTransform="translate(5.54775 42.9665) rotate(90) scale(6.94018 4.21425)">
      <stop stop-color="#070B25"/>
      <stop offset="1" stop-color="#590103"/>
    </radialGradient>
    <radialGradient id="paint18_radial_2016_15548" cx="0" cy="0" r="1" gradientUnits="userSpaceOnUse" gradientTransform="translate(15.1574 22.0829) rotate(90) scale(5.90417 5.56947)">
      <stop stop-color="#070B25"/>
      <stop offset="1" stop-color="#590103"/>
    </radialGradient>
    <radialGradient id="paint19_radial_2016_15548" cx="0" cy="0" r="1" gradientUnits="userSpaceOnUse" gradientTransform="translate(34.0837 8.70344) rotate(90) scale(4.79036 6.76928)">
      <stop stop-color="#070B25"/>
      <stop offset="1" stop-color="#590103"/>
    </radialGradient>
    <radialGradient id="paint20_radial_2016_15548" cx="0" cy="0" r="1" gradientUnits="userSpaceOnUse" gradientTransform="translate(56.6547 10.2101) rotate(90) scale(5.02116 6.59803)">
      <stop stop-color="#070B25"/>
      <stop offset="1" stop-color="#590103"/>
    </radialGradient>
    <radialGradient id="paint21_radial_2016_15548" cx="0" cy="0" r="1" gradientUnits="userSpaceOnUse" gradientTransform="translate(74.2599 25.1721) rotate(90) scale(6.16284 5.31308)">
      <stop stop-color="#070B25"/>
      <stop offset="1" stop-color="#590103"/>
    </radialGradient>
    <radialGradient id="paint22_radial_2016_15548" cx="0" cy="0" r="1" gradientUnits="userSpaceOnUse" gradientTransform="translate(81.3883 39.6075) rotate(90) scale(2.94197 5.61191)">
      <stop stop-color="#070B25"/>
      <stop offset="1" stop-color="#590103"/>
    </radialGradient>
    <radialGradient id="paint23_radial_2016_15548" cx="0" cy="0" r="1" gradientUnits="userSpaceOnUse" gradientTransform="translate(71.6084 18.1665) rotate(90) scale(3.87063 4.87599)">
      <stop stop-color="#070B25"/>
      <stop offset="1" stop-color="#590103"/>
    </radialGradient>
    <radialGradient id="paint24_radial_2016_15548" cx="0" cy="0" r="1" gradientUnits="userSpaceOnUse" gradientTransform="translate(50.6601 7.37958) rotate(90) scale(5.36273 3.44624)">
      <stop stop-color="#070B25"/>
      <stop offset="1" stop-color="#590103"/>
    </radialGradient>
    <radialGradient id="paint25_radial_2016_15548" cx="0" cy="0" r="1" gradientUnits="userSpaceOnUse" gradientTransform="translate(26.112 10.2837) rotate(90) scale(5.46292 2.79216)">
      <stop stop-color="#070B25"/>
      <stop offset="1" stop-color="#590103"/>
    </radialGradient>
    <radialGradient id="paint26_radial_2016_15548" cx="0" cy="0" r="1" gradientUnits="userSpaceOnUse" gradientTransform="translate(9.76498 26.2699) rotate(90) scale(4.13322 4.76644)">
      <stop stop-color="#070B25"/>
      <stop offset="1" stop-color="#590103"/>
    </radialGradient>
    <radialGradient id="paint27_radial_2016_15548" cx="0" cy="0" r="1" gradientUnits="userSpaceOnUse" gradientTransform="translate(5.61191 50.2739) rotate(90) scale(2.94188 5.61191)">
      <stop stop-color="#070B25"/>
      <stop offset="1" stop-color="#590103"/>
    </radialGradient>
    <radialGradient id="paint28_radial_2016_15548" cx="0" cy="0" r="1" gradientUnits="userSpaceOnUse" gradientTransform="translate(15.393 71.7144) rotate(90) scale(3.87064 4.87594)">
      <stop stop-color="#070B25"/>
      <stop offset="1" stop-color="#590103"/>
    </radialGradient>
    <radialGradient id="paint29_radial_2016_15548" cx="0" cy="0" r="1" gradientUnits="userSpaceOnUse" gradientTransform="translate(36.3406 82.5015) rotate(90) scale(5.36287 3.44602)">
      <stop stop-color="#070B25"/>
      <stop offset="1" stop-color="#590103"/>
    </radialGradient>
    <radialGradient id="paint30_radial_2016_15548" cx="0" cy="0" r="1" gradientUnits="userSpaceOnUse" gradientTransform="translate(60.8888 79.5981) rotate(90) scale(5.46336 2.79216)">
      <stop stop-color="#070B25"/>
      <stop offset="1" stop-color="#590103"/>
    </radialGradient>
    <radialGradient id="paint31_radial_2016_15548" cx="0" cy="0" r="1" gradientUnits="userSpaceOnUse" gradientTransform="translate(77.2346 63.6109) rotate(90) scale(4.13337 4.76586)">
      <stop stop-color="#070B25"/>
      <stop offset="1" stop-color="#590103"/>
    </radialGradient>
    <radialGradient id="paint32_radial_2016_15548" cx="0" cy="0" r="1" gradientUnits="userSpaceOnUse" gradientTransform="translate(80.6788 54.5646) rotate(90) scale(2.81801 5.61335)">
      <stop stop-color="#070B25"/>
      <stop offset="1" stop-color="#590103"/>
    </radialGradient>
    <radialGradient id="paint33_radial_2016_15548" cx="0" cy="0" r="1" gradientUnits="userSpaceOnUse" gradientTransform="translate(78.9282 30.0396) rotate(90) scale(3.88334 5.00829)">
      <stop stop-color="#070B25"/>
      <stop offset="1" stop-color="#590103"/>
    </radialGradient>
    <radialGradient id="paint34_radial_2016_15548" cx="0" cy="0" r="1" gradientUnits="userSpaceOnUse" gradientTransform="translate(64.3273 12.1814) rotate(90) scale(5.30543 3.17302)">
      <stop stop-color="#070B25"/>
      <stop offset="1" stop-color="#590103"/>
    </radialGradient>
    <radialGradient id="paint35_radial_2016_15548" cx="0" cy="0" r="1" gradientUnits="userSpaceOnUse" gradientTransform="translate(40.5797 6.86581) rotate(90) scale(5.48763 3.24866)">
      <stop stop-color="#070B25"/>
      <stop offset="1" stop-color="#590103"/>
    </radialGradient>
    <radialGradient id="paint36_radial_2016_15548" cx="0" cy="0" r="1" gradientUnits="userSpaceOnUse" gradientTransform="translate(18.3387 15.4615) rotate(90) scale(4.20615 4.62391)">
      <stop stop-color="#070B25"/>
      <stop offset="1" stop-color="#590103"/>
    </radialGradient>
    <radialGradient id="paint37_radial_2016_15548" cx="0" cy="0" r="1" gradientUnits="userSpaceOnUse" gradientTransform="translate(6.32185 35.3173) rotate(90) scale(2.81781 5.61336)">
      <stop stop-color="#070B25"/>
      <stop offset="1" stop-color="#590103"/>
    </radialGradient>
    <radialGradient id="paint38_radial_2016_15548" cx="0" cy="0" r="1" gradientUnits="userSpaceOnUse" gradientTransform="translate(8.07265 59.8418) rotate(90) scale(3.88334 5.00869)">
      <stop stop-color="#070B25"/>
      <stop offset="1" stop-color="#590103"/>
    </radialGradient>
    <radialGradient id="paint39_radial_2016_15548" cx="0" cy="0" r="1" gradientUnits="userSpaceOnUse" gradientTransform="translate(22.6735 77.7004) rotate(90) scale(5.30543 3.17346)">
      <stop stop-color="#070B25"/>
      <stop offset="1" stop-color="#590103"/>
    </radialGradient>
    <radialGradient id="paint40_radial_2016_15548" cx="0" cy="0" r="1" gradientUnits="userSpaceOnUse" gradientTransform="translate(46.4208 83.0151) rotate(90) scale(5.48773 3.2489)">
      <stop stop-color="#070B25"/>
      <stop offset="1" stop-color="#590103"/>
    </radialGradient>
    <radialGradient id="paint41_radial_2016_15548" cx="0" cy="0" r="1" gradientUnits="userSpaceOnUse" gradientTransform="translate(68.661 74.4195) rotate(90) scale(4.20616 4.62436)">
      <stop stop-color="#070B25"/>
      <stop offset="1" stop-color="#590103"/>
    </radialGradient>
    <radialGradient id="paint42_radial_2016_15548" cx="0" cy="0" r="1" gradientUnits="userSpaceOnUse" gradientTransform="translate(83.1921 34.8422) rotate(90) scale(1.88855 3.79907)">
      <stop stop-color="#070B25"/>
      <stop offset="1" stop-color="#590103"/>
    </radialGradient>
    <radialGradient id="paint43_radial_2016_15548" cx="0" cy="0" r="1" gradientUnits="userSpaceOnUse" gradientTransform="translate(81.7405 59.2156) rotate(90) scale(2.16577 3.75168)">
      <stop stop-color="#070B25"/>
      <stop offset="1" stop-color="#590103"/>
    </radialGradient>
    <radialGradient id="paint44_radial_2016_15548" cx="0" cy="0" r="1" gradientUnits="userSpaceOnUse" gradientTransform="translate(65.3231 79.1844) rotate(90) scale(3.53987 2.68397)">
      <stop stop-color="#070B25"/>
      <stop offset="1" stop-color="#590103"/>
    </radialGradient>
    <radialGradient id="paint45_radial_2016_15548" cx="0" cy="0" r="1" gradientUnits="userSpaceOnUse" gradientTransform="translate(41.4765 86.1149) rotate(90) scale(3.76631 1.49845)">
      <stop stop-color="#070B25"/>
      <stop offset="1" stop-color="#590103"/>
    </radialGradient>
    <radialGradient id="paint46_radial_2016_15548" cx="0" cy="0" r="1" gradientUnits="userSpaceOnUse" gradientTransform="translate(18.0531 76.5038) rotate(90) scale(3.36902 2.94027)">
      <stop stop-color="#070B25"/>
      <stop offset="1" stop-color="#590103"/>
    </radialGradient>
    <radialGradient id="paint47_radial_2016_15548" cx="0" cy="0" r="1" gradientUnits="userSpaceOnUse" gradientTransform="translate(3.80825 55.0395) rotate(90) scale(1.88865 3.79849)">
      <stop stop-color="#070B25"/>
      <stop offset="1" stop-color="#590103"/>
    </radialGradient>
    <radialGradient id="paint48_radial_2016_15548" cx="0" cy="0" r="1" gradientUnits="userSpaceOnUse" gradientTransform="translate(5.26047 30.6657) rotate(90) scale(2.16572 3.75168)">
      <stop stop-color="#070B25"/>
      <stop offset="1" stop-color="#590103"/>
    </radialGradient>
    <radialGradient id="paint49_radial_2016_15548" cx="0" cy="0" r="1" gradientUnits="userSpaceOnUse" gradientTransform="translate(21.6776 10.6972) rotate(90) scale(3.54046 2.68398)">
      <stop stop-color="#070B25"/>
      <stop offset="1" stop-color="#590103"/>
    </radialGradient>
    <radialGradient id="paint50_radial_2016_15548" cx="0" cy="0" r="1" gradientUnits="userSpaceOnUse" gradientTransform="translate(45.5243 3.76631) rotate(90) scale(3.76631 1.49845)">
      <stop stop-color="#070B25"/>
      <stop offset="1" stop-color="#590103"/>
    </radialGradient>
    <radialGradient id="paint51_radial_2016_15548" cx="0" cy="0" r="1" gradientUnits="userSpaceOnUse" gradientTransform="translate(68.9481 13.3778) rotate(90) scale(3.36902 2.93982)">
      <stop stop-color="#070B25"/>
      <stop offset="1" stop-color="#590103"/>
    </radialGradient>
    <radialGradient id="paint52_radial_2016_15548" cx="0" cy="0" r="1" gradientUnits="userSpaceOnUse" gradientTransform="translate(65.8019 39.1011) rotate(90) scale(2.38722 1.00696)">
      <stop stop-color="#070B25"/>
      <stop offset="1" stop-color="#590103"/>
    </radialGradient>
    <radialGradient id="paint53_radial_2016_15548" cx="0" cy="0" r="1" gradientUnits="userSpaceOnUse" gradientTransform="translate(64.8955 53.1075) rotate(90) scale(2.30472 1.10936)">
      <stop stop-color="#070B25"/>
      <stop offset="1" stop-color="#590103"/>
    </radialGradient>
    <radialGradient id="paint54_radial_2016_15548" cx="0" cy="0" r="1" gradientUnits="userSpaceOnUse" gradientTransform="translate(55.8314 63.9941) rotate(90) scale(1.34223 2.07361)">
      <stop stop-color="#070B25"/>
      <stop offset="1" stop-color="#590103"/>
    </radialGradient>
    <radialGradient id="paint55_radial_2016_15548" cx="0" cy="0" r="1" gradientUnits="userSpaceOnUse" gradientTransform="translate(42.2772 68.2474) rotate(90) scale(0.77819 2.46621)">
      <stop stop-color="#070B25"/>
      <stop offset="1" stop-color="#590103"/>
    </radialGradient>
    <radialGradient id="paint56_radial_2016_15548" cx="0" cy="0" r="1" gradientUnits="userSpaceOnUse" gradientTransform="translate(29.1903 62.5556) rotate(90) scale(1.55754 1.91738)">
      <stop stop-color="#070B25"/>
      <stop offset="1" stop-color="#590103"/>
    </radialGradient>
    <radialGradient id="paint57_radial_2016_15548" cx="0" cy="0" r="1" gradientUnits="userSpaceOnUse" gradientTransform="translate(21.1988 50.7798) rotate(90) scale(2.38722 1.00638)">
      <stop stop-color="#070B25"/>
      <stop offset="1" stop-color="#590103"/>
    </radialGradient>
    <radialGradient id="paint58_radial_2016_15548" cx="0" cy="0" r="1" gradientUnits="userSpaceOnUse" gradientTransform="translate(22.1051 36.774) rotate(90) scale(2.30472 1.10994)">
      <stop stop-color="#070B25"/>
      <stop offset="1" stop-color="#590103"/>
    </radialGradient>
    <radialGradient id="paint59_radial_2016_15548" cx="0" cy="0" r="1" gradientUnits="userSpaceOnUse" gradientTransform="translate(31.1703 25.8886) rotate(90) scale(1.34222 2.07361)">
      <stop stop-color="#070B25"/>
      <stop offset="1" stop-color="#590103"/>
    </radialGradient>
    <radialGradient id="paint60_radial_2016_15548" cx="0" cy="0" r="1" gradientUnits="userSpaceOnUse" gradientTransform="translate(44.7231 21.6337) rotate(90) scale(0.778186 2.46679)">
      <stop stop-color="#070B25"/>
      <stop offset="1" stop-color="#590103"/>
    </radialGradient>
    <radialGradient id="paint61_radial_2016_15548" cx="0" cy="0" r="1" gradientUnits="userSpaceOnUse" gradientTransform="translate(57.8109 27.3257) rotate(90) scale(1.55813 1.91738)">
      <stop stop-color="#070B25"/>
      <stop offset="1" stop-color="#590103"/>
    </radialGradient>
    <radialGradient id="paint62_radial_2016_15548" cx="0" cy="0" r="1" gradientUnits="userSpaceOnUse" gradientTransform="translate(43.4998 44.941) rotate(90) scale(37.5235 38.7362)">
      <stop stop-color="#070B25"/>
      <stop offset="1" stop-color="#590103"/>
    </radialGradient>
  </defs>
</svg>