<svg xmlns="http://www.w3.org/2000/svg" xmlns:xlink="http://www.w3.org/1999/xlink" width="1080" zoomAndPan="magnify"
    viewBox="0 0 810 225" height="300" preserveAspectRatio="xMidYMid meet" version="1.0">
    <defs>
        <clipPath id="fdd24eb5d4">
            <path
                d="M 5.828125 53.5625 L 138.460938 53.5625 L 138.460938 186.199219 L 5.828125 186.199219 Z M 5.828125 53.5625 "
                clip-rule="nonzero" />
        </clipPath>
        <clipPath id="f0682fc4f7">
            <path
                d="M 72.144531 53.5625 C 35.519531 53.5625 5.828125 83.253906 5.828125 119.882812 C 5.828125 156.507812 35.519531 186.199219 72.144531 186.199219 C 108.769531 186.199219 138.460938 156.507812 138.460938 119.882812 C 138.460938 83.253906 108.769531 53.5625 72.144531 53.5625 Z M 72.144531 53.5625 "
                clip-rule="nonzero" />
        </clipPath>
        <clipPath id="4fdcef2853">
            <path
                d="M 5.828125 53.5625 L 138.375 53.5625 L 138.375 186.109375 L 5.828125 186.109375 Z M 5.828125 53.5625 "
                clip-rule="nonzero" />
        </clipPath>
        <clipPath id="e79a62354e">
            <path
                d="M 72.101562 53.5625 C 35.5 53.5625 5.828125 83.234375 5.828125 119.835938 C 5.828125 156.4375 35.5 186.109375 72.101562 186.109375 C 108.703125 186.109375 138.375 156.4375 138.375 119.835938 C 138.375 83.234375 108.703125 53.5625 72.101562 53.5625 Z M 72.101562 53.5625 "
                clip-rule="nonzero" />
        </clipPath>
        <clipPath id="107b577079">
            <path
                d="M 338.683594 58.085938 L 471.320312 58.085938 L 471.320312 190.722656 L 338.683594 190.722656 Z M 338.683594 58.085938 "
                clip-rule="nonzero" />
        </clipPath>
        <clipPath id="f7770a8d19">
            <path
                d="M 405 58.085938 C 368.375 58.085938 338.683594 87.777344 338.683594 124.402344 C 338.683594 161.03125 368.375 190.722656 405 190.722656 C 441.628906 190.722656 471.320312 161.03125 471.320312 124.402344 C 471.320312 87.777344 441.628906 58.085938 405 58.085938 Z M 405 58.085938 "
                clip-rule="nonzero" />
        </clipPath>
        <clipPath id="2ff8c58688">
            <path
                d="M 338.683594 58.085938 L 471.230469 58.085938 L 471.230469 190.632812 L 338.683594 190.632812 Z M 338.683594 58.085938 "
                clip-rule="nonzero" />
        </clipPath>
        <clipPath id="6855e2142d">
            <path
                d="M 404.957031 58.085938 C 368.355469 58.085938 338.683594 87.757812 338.683594 124.359375 C 338.683594 160.960938 368.355469 190.632812 404.957031 190.632812 C 441.558594 190.632812 471.230469 160.960938 471.230469 124.359375 C 471.230469 87.757812 441.558594 58.085938 404.957031 58.085938 Z M 404.957031 58.085938 "
                clip-rule="nonzero" />
        </clipPath>
        <clipPath id="0d0fb59e44">
            <path
                d="M 671.539062 58.085938 L 804.171875 58.085938 L 804.171875 190.722656 L 671.539062 190.722656 Z M 671.539062 58.085938 "
                clip-rule="nonzero" />
        </clipPath>
        <clipPath id="307bf7ffea">
            <path
                d="M 737.855469 58.085938 C 701.230469 58.085938 671.539062 87.777344 671.539062 124.402344 C 671.539062 161.03125 701.230469 190.722656 737.855469 190.722656 C 774.480469 190.722656 804.171875 161.03125 804.171875 124.402344 C 804.171875 87.777344 774.480469 58.085938 737.855469 58.085938 Z M 737.855469 58.085938 "
                clip-rule="nonzero" />
        </clipPath>
        <clipPath id="9ddfb2c6ff">
            <path
                d="M 671.539062 58.085938 L 804.082031 58.085938 L 804.082031 190.632812 L 671.539062 190.632812 Z M 671.539062 58.085938 "
                clip-rule="nonzero" />
        </clipPath>
        <clipPath id="b839576826">
            <path
                d="M 737.8125 58.085938 C 701.207031 58.085938 671.539062 87.757812 671.539062 124.359375 C 671.539062 160.960938 701.207031 190.632812 737.8125 190.632812 C 774.414062 190.632812 804.082031 160.960938 804.082031 124.359375 C 804.082031 87.757812 774.414062 58.085938 737.8125 58.085938 Z M 737.8125 58.085938 "
                clip-rule="nonzero" />
        </clipPath>
        <clipPath id="fdd246a24e">
            <path
                d="M 20.738281 37.820312 L 206.128906 37.820312 L 206.128906 163.4375 L 20.738281 163.4375 Z M 20.738281 37.820312 "
                clip-rule="nonzero" />
        </clipPath>
        <clipPath id="e78cb19b95">
            <path
                d="M 353.59375 42.34375 L 538.984375 42.34375 L 538.984375 167.957031 L 353.59375 167.957031 Z M 353.59375 42.34375 "
                clip-rule="nonzero" />
        </clipPath>
    </defs>
    <g clip-path="url(#fdd24eb5d4)">
        <g clip-path="url(#f0682fc4f7)">
            <path fill="#e5e7eb"
                d="M 5.828125 53.5625 L 138.460938 53.5625 L 138.460938 186.199219 L 5.828125 186.199219 Z M 5.828125 53.5625 "
                fill-opacity="1" fill-rule="nonzero" />
        </g>
    </g>
    <g clip-path="url(#4fdcef2853)">
        <g clip-path="url(#e79a62354e)">
            <path stroke-linecap="butt" transform="matrix(0.865786, 0, 0, 0.865786, 5.826776, 53.564209)" fill="none"
                stroke-linejoin="miter"
                d="M 76.548732 -0.00197343 C 34.27318 -0.00197343 0.0015585 34.269648 0.0015585 76.5452 C 0.0015585 118.820752 34.27318 153.092373 76.548732 153.092373 C 118.824284 153.092373 153.095905 118.820752 153.095905 76.5452 C 153.095905 34.269648 118.824284 -0.00197343 76.548732 -0.00197343 Z M 76.548732 -0.00197343 "
                stroke="#000000" stroke-width="6.925879" stroke-opacity="1" stroke-miterlimit="4" />
        </g>
    </g>
    <g clip-path="url(#107b577079)">
        <g clip-path="url(#f7770a8d19)">
            <path fill="#e5e7eb"
                d="M 338.683594 58.085938 L 471.320312 58.085938 L 471.320312 190.722656 L 338.683594 190.722656 Z M 338.683594 58.085938 "
                fill-opacity="1" fill-rule="nonzero" />
        </g>
    </g>
    <g clip-path="url(#2ff8c58688)">
        <g clip-path="url(#6855e2142d)">
            <path stroke-linecap="butt" transform="matrix(0.865786, 0, 0, 0.865786, 338.683961, 58.085794)" fill="none"
                stroke-linejoin="miter"
                d="M 76.546749 0.000165769 C 34.271197 0.000165769 -0.000424283 34.271787 -0.000424283 76.547339 C -0.000424283 118.822891 34.271197 153.094512 76.546749 153.094512 C 118.822301 153.094512 153.093922 118.822891 153.093922 76.547339 C 153.093922 34.271787 118.822301 0.000165769 76.546749 0.000165769 Z M 76.546749 0.000165769 "
                stroke="#000000" stroke-width="6.925879" stroke-opacity="1" stroke-miterlimit="4" />
        </g>
    </g>
    <g clip-path="url(#0d0fb59e44)">
        <g clip-path="url(#307bf7ffea)">
            <path fill="#e5e7eb"
                d="M 671.539062 58.085938 L 804.171875 58.085938 L 804.171875 190.722656 L 671.539062 190.722656 Z M 671.539062 58.085938 "
                fill-opacity="1" fill-rule="nonzero" />
        </g>
    </g>
    <g clip-path="url(#9ddfb2c6ff)">
        <g clip-path="url(#b839576826)">
            <path stroke-linecap="butt" transform="matrix(0.865786, 0, 0, 0.865786, 671.537444, 58.085794)" fill="none"
                stroke-linejoin="miter"
                d="M 76.549043 0.000165769 C 34.268979 0.000165769 0.00186938 34.271787 0.00186938 76.547339 C 0.00186938 118.822891 34.268979 153.094512 76.549043 153.094512 C 118.824594 153.094512 153.091704 118.822891 153.091704 76.547339 C 153.091704 34.271787 118.824594 0.000165769 76.549043 0.000165769 Z M 76.549043 0.000165769 "
                stroke="#000000" stroke-width="6.925879" stroke-opacity="1" stroke-miterlimit="4" />
        </g>
    </g>
    <g clip-path="url(#fdd246a24e)">
        <path fill="#4185f4"
            d="M 67.378906 163.410156 L 20.835938 118.007812 L 47.171875 93.257812 L 66.074219 118.960938 C 66.074219 118.960938 126.835938 55.03125 206.015625 37.820312 C 115.714844 83.097656 67.378906 163.410156 67.378906 163.410156 Z M 67.378906 163.410156 "
            fill-opacity="1" fill-rule="nonzero" />
    </g>
    <g clip-path="url(#e78cb19b95)">
        <path fill="#4185f4"
            d="M 400.234375 167.929688 L 353.691406 122.53125 L 380.03125 97.78125 L 398.929688 123.484375 C 398.929688 123.484375 459.691406 59.550781 538.875 42.34375 C 448.574219 87.617188 400.234375 167.929688 400.234375 167.929688 Z M 400.234375 167.929688 "
            fill-opacity="1" fill-rule="nonzero" />
    </g>
    <path stroke-linecap="butt"
        transform="matrix(0.865964, 0.000736703, -0.000737002, 0.866316, 138.474839, 120.768111)" fill="none"
        stroke-linejoin="miter" d="M 0.000884656 4.001156 L 231.106153 3.998515 " stroke="#000000" stroke-width="8"
        stroke-opacity="1" stroke-miterlimit="4" />
    <path stroke-linecap="butt"
        transform="matrix(0.865964, 0.000736703, -0.000737002, 0.866316, 471.325492, 120.768111)" fill="none"
        stroke-linejoin="miter" d="M 0.00193455 4.001155 L 231.107203 3.998515 " stroke="#000000" stroke-width="8"
        stroke-opacity="1" stroke-miterlimit="4" />
</svg>