<svg width="59" height="40" viewBox="0 0 59 40" fill="none" xmlns="http://www.w3.org/2000/svg">
<rect width="11.044" height="36.7456" transform="matrix(0.941117 -0.338082 0.380769 0.92467 0 5.93945)" fill="white"/>
<rect width="11.044" height="38.6614" transform="matrix(0.941117 -0.338082 0.380769 0.92467 20.1504 3.73438)" fill="white"/>
<rect width="11.0058" height="39.141" transform="matrix(0.915075 0.403283 -0.45091 0.892569 27.8574 0.625)" fill="white"/>
<rect width="11.0058" height="36.8858" transform="matrix(0.915075 0.403283 -0.45091 0.892569 47.7197 2.20508)" fill="white"/>
<ellipse cx="7.88823" cy="9.13978" rx="1.856" ry="1.73353" fill="black"/>
<ellipse cx="6.49565" cy="17.8068" rx="1.856" ry="1.73353" fill="black"/>
<ellipse cx="13.9205" cy="13.9064" rx="1.856" ry="1.73353" fill="black"/>
<ellipse cx="20.4156" cy="23.4406" rx="1.856" ry="1.73353" fill="black"/>
<ellipse cx="24.5923" cy="28.2081" rx="1.856" ry="1.73353" fill="black"/>
<ellipse cx="36.1919" cy="31.6749" rx="1.856" ry="1.73353" fill="black"/>
<ellipse cx="12.064" cy="23.8742" rx="1.856" ry="1.73353" fill="black"/>
<ellipse cx="16.7037" cy="28.2081" rx="1.856" ry="1.73353" fill="black"/>
<ellipse cx="1.856" cy="6.1056" rx="1.856" ry="1.73353" fill="black"/>
<ellipse cx="9.7437" cy="4.3722" rx="1.856" ry="1.73353" fill="black"/>
<ellipse cx="15.7759" cy="35.1417" rx="1.856" ry="1.73353" fill="black"/>
<ellipse cx="27.3765" cy="23.007" rx="1.856" ry="1.73353" fill="black"/>
<ellipse cx="38.9761" cy="10.8722" rx="1.856" ry="1.73353" fill="black"/>
<ellipse cx="42.688" cy="17.3732" rx="1.856" ry="1.73353" fill="black"/>
<ellipse cx="34.3355" cy="23.4406" rx="1.856" ry="1.73353" fill="black"/>
<ellipse cx="40.8316" cy="36.8761" rx="1.856" ry="1.73353" fill="black"/>
<ellipse cx="42.688" cy="29.9415" rx="1.856" ry="1.73353" fill="black"/>
<ellipse cx="49.648" cy="19.9738" rx="1.856" ry="1.73353" fill="black"/>
<ellipse cx="29.232" cy="14.339" rx="1.856" ry="1.73353" fill="black"/>
<ellipse cx="34.3355" cy="17.8068" rx="1.856" ry="1.73353" fill="black"/>
<ellipse cx="44.0796" cy="23.8742" rx="1.856" ry="1.73353" fill="black"/>
<ellipse cx="38.9761" cy="10.8722" rx="1.856" ry="1.73353" fill="black"/>
<ellipse cx="24.1285" cy="5.672" rx="1.856" ry="1.73353" fill="black"/>
<ellipse cx="34.3355" cy="5.672" rx="1.856" ry="1.73353" fill="black"/>
<ellipse cx="29.232" cy="2.20521" rx="1.856" ry="1.73353" fill="black"/>
<ellipse cx="23.6636" cy="15.6398" rx="1.856" ry="1.73353" fill="black"/>
<ellipse cx="49.648" cy="13.9064" rx="1.856" ry="1.73353" fill="black"/>
<ellipse cx="56.1441" cy="7.839" rx="1.856" ry="1.73353" fill="black"/>
<ellipse cx="47.7915" cy="7.4054" rx="1.856" ry="1.73353" fill="black"/>
<line y1="-0.5" x2="7.99443" y2="-0.5" transform="matrix(0.986687 -0.162631 0.185654 0.982615 1.85547 5.67188)" stroke="black"/>
<line y1="-0.5" x2="7.36332" y2="-0.5" transform="matrix(0.882211 0.470855 -0.521878 0.85302 1.85547 5.67188)" stroke="black"/>
<line y1="-0.5" x2="10.2342" y2="-0.5" transform="matrix(-0.226691 0.973967 -0.980002 -0.198986 13.9199 13.9062)" stroke="black"/>
<line y1="-0.5" x2="8.36324" y2="-0.5" transform="matrix(0.998656 -0.0518199 0.0593756 0.998236 47.792 7.83887)" stroke="black"/>
<line x1="50.1475" y1="13.9062" x2="50.1475" y2="19.5402" stroke="black"/>
<line y1="-0.5" x2="8.39686" y2="-0.5" transform="matrix(-0.994658 0.103225 -0.118128 -0.992998 42.6885 16.9395)" stroke="black"/>
<line y1="-0.5" x2="7.29871" y2="-0.5" transform="matrix(0.635729 0.771912 -0.812123 0.583487 34.3359 5.23828)" stroke="black"/>
<line y1="-0.5" x2="7.61897" y2="-0.5" transform="matrix(-0.730808 0.682583 -0.730808 -0.682583 29.2324 0.47168)" stroke="black"/>
<line x1="29.7324" y1="0.47168" x2="29.7324" y2="15.64" stroke="black"/>
<line y1="-0.5" x2="10.2315" y2="-0.5" transform="matrix(0.362801 0.931867 -0.946876 0.321598 23.6641 14.3398)" stroke="black"/>
<line y1="-0.5" x2="6.76049" y2="-0.5" transform="matrix(0.274537 -0.961577 0.970354 0.241686 27.376 22.1406)" stroke="black"/>
<line y1="-0.5" x2="5.7282" y2="-0.5" transform="matrix(0.89103 0.453945 -0.504295 0.863532 11.6006 23.874)" stroke="black"/>
<line y1="-0.5" x2="8.71717" y2="-0.5" transform="matrix(-0.106457 0.994317 -0.995667 -0.0929965 16.7041 26.4746)" stroke="black"/>
<line y1="-0.5" x2="5.39036" y2="-0.5" transform="matrix(-0.946876 -0.321598 0.362801 -0.931867 12.9922 12.6055)" stroke="black"/>
<line y1="-0.5" x2="7.31192" y2="-0.5" transform="matrix(0.31729 -0.948329 0.959945 0.280188 6.03223 17.8066)" stroke="black"/>
<line y1="-0.5" x2="9.23332" y2="-0.5" transform="matrix(0.753791 0.657114 -0.70685 0.707364 5.10449 16.9395)" stroke="black"/>
<line y1="-0.5" x2="11.6068" y2="-0.5" transform="matrix(-0.23986 -0.970807 0.97755 -0.210702 14.8477 35.1426)" stroke="black"/>
<line y1="-0.5" x2="10.2356" y2="-0.5" transform="matrix(0.861306 -0.508087 0.560156 0.828387 15.7764 35.1426)" stroke="black"/>
<line y1="-0.5" x2="7.72647" y2="-0.5" transform="matrix(0.540479 0.841357 -0.872354 0.488874 20.416 23.0078)" stroke="black"/>
<line y1="-0.5" x2="7.86516" y2="-0.5" transform="matrix(0.471955 -0.881623 0.906065 0.423138 20.416 23.0078)" stroke="black"/>
<line y1="-0.5" x2="10.2447" y2="-0.5" transform="matrix(0.996415 -0.0846058 0.096874 0.995297 24.1279 6.10547)" stroke="black"/>
<line y1="-0.5" x2="14.2254" y2="-0.5" transform="matrix(0.815441 -0.57884 0.63115 0.775661 22.7363 13.9062)" stroke="black"/>
<line y1="-0.5" x2="10.2172" y2="-0.5" transform="matrix(0.9991 0.0424169 -0.0486084 0.998818 24.1279 15.6396)" stroke="black"/>
<line y1="-0.5" x2="8.34335" y2="-0.5" transform="matrix(-0.556132 0.831094 -0.863619 -0.504144 38.9756 10.873)" stroke="black"/>
<line y1="-0.5" x2="7.48588" y2="-0.5" transform="matrix(0.495867 0.868398 -0.895092 0.445881 45.9355 6.10547)" stroke="black"/>
<line y1="-0.5" x2="18.5106" y2="-0.5" transform="matrix(-0.827203 0.561904 -0.614371 -0.789017 58 7.40625)" stroke="black"/>
<line y1="-0.5" x2="5.9318" y2="-0.5" transform="matrix(0.31289 0.949789 -0.961098 0.276208 42.2236 17.8066)" stroke="black"/>
<line y1="-0.5" x2="8.199" y2="-0.5" transform="matrix(-0.848884 0.528579 -0.580958 -0.813933 49.6475 19.541)" stroke="black"/>
<line y1="-0.5" x2="8.86412" y2="-0.5" transform="matrix(-0.209383 -0.977834 0.982996 -0.183626 36.1924 31.6748)" stroke="black"/>
<line y1="-0.5" x2="11.7135" y2="-0.5" transform="matrix(0.831864 0.554979 -0.607472 0.794341 34.3359 17.373)" stroke="black"/>
<line y1="-0.5" x2="11.0939" y2="-0.5" transform="matrix(0.711023 -0.703169 0.749924 0.661525 36.1924 31.6748)" stroke="black"/>
<line y1="-0.5" x2="7.31192" y2="-0.5" transform="matrix(0.31729 -0.948329 0.959945 0.280188 40.832 36.875)" stroke="black"/>
<line y1="-0.5" x2="10.7021" y2="-0.5" transform="matrix(0.823765 0.566931 -0.619367 0.785102 34.3359 23.4414)" stroke="black"/>
<line y1="-0.5" x2="6.01838" y2="-0.5" transform="matrix(-0.693874 -0.720096 0.765474 -0.643466 40.832 36.875)" stroke="black"/>
<line x1="12.0645" y1="22.5078" x2="20.4165" y2="22.5078" stroke="black"/>
<line y1="-0.5" x2="5.38365" y2="-0.5" transform="matrix(-0.258561 0.965995 -0.973805 -0.227386 9.74414 3.93848)" stroke="black"/>
<line y1="-0.5" x2="9.63548" y2="-0.5" transform="matrix(-0.144466 0.98951 -0.991986 -0.126345 24.1279 4.37207)" stroke="black"/>
<line x1="33.8359" y1="22.1406" x2="33.8359" y2="16.94" stroke="black"/>
<line x1="27.376" y1="22.5078" x2="34.336" y2="22.5078" stroke="black"/>
</svg>
