<svg xmlns="http://www.w3.org/2000/svg" width="23" height="23" viewBox="0 0 23 23" fill="none">
  <g clip-path="url(#clip0_177_1619)">
    <path d="M7.95563 12.7665H6.24547C5.9633 12.7665 5.73243 12.5356 5.73243 12.2534V10.5433C5.73243 10.2611 5.9633 10.0302 6.24547 10.0302H7.95563C8.23781 10.0302 8.46868 10.2611 8.46868 10.5433V12.2534C8.46868 12.5356 8.23781 12.7665 7.95563 12.7665ZM12.5731 12.2534V10.5433C12.5731 10.2611 12.3422 10.0302 12.06 10.0302H10.3498C10.0677 10.0302 9.8368 10.2611 9.8368 10.5433V12.2534C9.8368 12.5356 10.0677 12.7665 10.3498 12.7665H12.06C12.3422 12.7665 12.5731 12.5356 12.5731 12.2534ZM16.6774 12.2534V10.5433C16.6774 10.2611 16.4466 10.0302 16.1644 10.0302H14.4542C14.172 10.0302 13.9412 10.2611 13.9412 10.5433V12.2534C13.9412 12.5356 14.172 12.7665 14.4542 12.7665H16.1644C16.4466 12.7665 16.6774 12.5356 16.6774 12.2534ZM12.5731 16.3578V14.6477C12.5731 14.3655 12.3422 14.1346 12.06 14.1346H10.3498C10.0677 14.1346 9.8368 14.3655 9.8368 14.6477V16.3578C9.8368 16.64 10.0677 16.8709 10.3498 16.8709H12.06C12.3422 16.8709 12.5731 16.64 12.5731 16.3578ZM8.46868 16.3578V14.6477C8.46868 14.3655 8.23781 14.1346 7.95563 14.1346H6.24547C5.9633 14.1346 5.73243 14.3655 5.73243 14.6477V16.3578C5.73243 16.64 5.9633 16.8709 6.24547 16.8709H7.95563C8.23781 16.8709 8.46868 16.64 8.46868 16.3578ZM16.6774 16.3578V14.6477C16.6774 14.3655 16.4466 14.1346 16.1644 14.1346H14.4542C14.172 14.1346 13.9412 14.3655 13.9412 14.6477V16.3578C13.9412 16.64 14.172 16.8709 14.4542 16.8709H16.1644C16.4466 16.8709 16.6774 16.64 16.6774 16.3578ZM20.7818 5.24181V20.2912C20.7818 21.4242 19.8626 22.3434 18.7296 22.3434H3.68024C2.54726 22.3434 1.62805 21.4242 1.62805 20.2912V5.24181C1.62805 4.10883 2.54726 3.18962 3.68024 3.18962H5.73243V0.966416C5.73243 0.68424 5.9633 0.453369 6.24547 0.453369H7.95563C8.23781 0.453369 8.46868 0.68424 8.46868 0.966416V3.18962H13.9412V0.966416C13.9412 0.68424 14.172 0.453369 14.4542 0.453369H16.1644C16.4466 0.453369 16.6774 0.68424 16.6774 0.966416V3.18962H18.7296C19.8626 3.18962 20.7818 4.10883 20.7818 5.24181ZM18.7296 20.0347V7.29399H3.68024V20.0347C3.68024 20.1757 3.79567 20.2912 3.93676 20.2912H18.4731C18.6142 20.2912 18.7296 20.1757 18.7296 20.0347Z" fill="white"/>
  </g>
  <defs>
    <clipPath id="clip0_177_1619">
      <rect width="21.89" height="21.89" fill="white" transform="translate(0.260132 0.453369)"/>
    </clipPath>
  </defs>
</svg>