<svg xmlns="http://www.w3.org/2000/svg" width="23" height="23" viewBox="0 0 23 23" fill="none">
  <g clip-path="url(#clip0_64_1700)">
    <path d="M11.2 0.581055C5.31329 0.581055 0.543762 5.35059 0.543762 11.2373C0.543762 17.124 5.31329 21.8936 11.2 21.8936C17.0867 21.8936 21.8563 17.124 21.8563 11.2373C21.8563 5.35059 17.0867 0.581055 11.2 0.581055ZM17.3875 12.4404C17.3875 12.724 17.1555 12.9561 16.8719 12.9561H12.9188V16.9092C12.9188 17.1928 12.6867 17.4248 12.4031 17.4248H9.99689C9.71329 17.4248 9.48126 17.1928 9.48126 16.9092V12.9561H5.52814C5.24454 12.9561 5.01251 12.724 5.01251 12.4404V10.0342C5.01251 9.75059 5.24454 9.51855 5.52814 9.51855H9.48126V5.56543C9.48126 5.28184 9.71329 5.0498 9.99689 5.0498H12.4031C12.6867 5.0498 12.9188 5.28184 12.9188 5.56543V9.51855H16.8719C17.1555 9.51855 17.3875 9.75059 17.3875 10.0342V12.4404Z" fill="#FF7700"/>
  </g>
  <defs>
    <clipPath id="clip0_64_1700">
      <rect width="22" height="22" fill="white" transform="translate(0.200012 0.237305)"/>
    </clipPath>
  </defs>
</svg>