<svg width="150" height="100" viewBox="0 0 194 194" fill="none" xmlns="http://www.w3.org/2000/svg">
<g clip-path="url(#clip0_265_267)">
<path d="M52.5579 51.9102H50.1253L45.5796 74.6445H57.1036L52.5579 51.9102Z" fill="white"/>
<path d="M144.505 97.3789C146.959 103.971 150.223 109.308 153.836 113.849C157.448 109.308 161.092 103.971 163.546 97.3789H144.505Z" fill="white"/>
<path d="M176.949 34.4805H106.366L121.083 152.578C121.343 157.408 120.023 161.956 116.87 165.516L91.9468 194H176.949C186.352 194 194 186.351 194 176.949V51.9102C194 42.508 186.352 34.4805 176.949 34.4805ZM176.949 97.3789H175.432C172.198 107.754 167.069 115.873 161.739 122.274C165.915 126.091 170.379 129.222 174.818 132.729C177.266 134.689 177.666 138.263 175.701 140.716C173.745 143.166 170.156 143.563 167.714 141.599C162.891 137.792 158.363 134.605 153.836 130.451C149.309 134.605 145.161 137.792 140.338 141.599C137.895 143.563 134.307 143.166 132.351 140.716C130.386 138.263 130.785 134.689 133.233 132.729C137.672 129.222 141.758 126.091 145.933 122.274C140.603 115.874 135.853 107.755 132.62 97.3789H131.102C127.96 97.3789 125.418 94.8368 125.418 91.6953C125.418 88.5538 127.96 86.0117 131.102 86.0117H148.153V80.3281C148.153 77.1866 150.695 74.6445 153.836 74.6445C156.978 74.6445 159.52 77.1866 159.52 80.3281V86.0117H176.949C180.091 86.0117 182.633 88.5538 182.633 91.6953C182.633 94.8368 180.091 97.3789 176.949 97.3789Z" fill="white"/>
<path d="M92.5153 14.9361C91.4551 6.4217 84.1786 0 75.5979 0H17.0508C7.6486 0 0 7.6486 0 17.0508V142.848C0 152.25 7.6486 159.898 17.0508 159.898C51.0273 159.898 75.4694 159.898 106.681 159.898C108.34 158.003 109.729 156.816 109.788 154.343C109.802 153.722 92.5922 15.5514 92.5153 14.9361ZM69.6975 108.635C66.6837 109.255 63.6309 107.299 63.0095 104.178L59.3769 86.0117H43.3071L39.6745 104.178C39.0641 107.253 36.0999 109.273 32.9864 108.635C29.9116 108.019 27.9133 105.028 28.5294 101.947L39.8962 45.1111C40.4289 42.458 42.7603 40.543 45.4688 40.543H57.2148C59.9233 40.543 62.2547 42.458 62.7874 45.1111L74.1546 101.947C74.7707 105.028 72.7727 108.019 69.6975 108.635Z" fill="white"/>
<path d="M66.4077 171.266L67.383 179.064C68.0332 184.286 71.5032 189.612 77.2111 192.271C87.9826 180.414 81.4658 187.587 96.2924 171.266H66.4077Z" fill="white"/>
</g>
<defs>
<clipPath id="clip0_265_267">
<rect width="194" height="194" fill="white"/>
</clipPath>
</defs>
</svg>
