<svg width="312" height="240" viewBox="0 0 312 240" fill="none" xmlns="http://www.w3.org/2000/svg">
<rect x="56.9508" y="0.564697" width="198.921" height="51.0361" rx="8.26884" stroke="#FF7700" stroke-width="0.68907" stroke-linecap="round" stroke-dasharray="2.76 2.76"/>
<path d="M152.746 24.1893C152.424 24.2966 152.25 24.6445 152.358 24.9664C152.465 25.2883 152.813 25.4623 153.135 25.355L152.746 24.1893ZM158.045 25.1124L157.989 24.5005L157.989 24.5005L158.045 25.1124ZM161.107 24.4318L161.377 24.984L161.377 24.984L161.107 24.4318ZM164.034 21.7698L163.556 21.3831L163.556 21.3831L164.034 21.7698ZM162.032 20.1041L162.467 20.5386L162.467 20.5386L162.032 20.1041ZM160.685 21.4519L161.119 21.8863L161.119 21.8863L160.685 21.4519ZM157.024 21.4355C156.685 21.4355 156.41 21.7105 156.41 22.0499C156.41 22.3892 156.685 22.6643 157.024 22.6643V21.4355ZM163.723 19.9367L163.382 20.448L163.382 20.448L163.723 19.9367ZM153.976 19.4902L154.251 20.0398L154.251 20.0398L153.976 19.4902ZM157.64 19.1552L157.801 18.5624L157.801 18.5624L157.64 19.1552ZM159.07 19.5453L158.908 20.138L158.908 20.138L159.07 19.5453ZM159.523 21.252L159.089 20.8176L159.089 20.8176L159.523 21.252ZM158.291 21.6154C158.051 21.8553 158.051 22.2444 158.291 22.4843C158.531 22.7242 158.92 22.7242 159.16 22.4843L158.291 21.6154ZM153.135 25.355C153.27 25.3098 153.51 25.2896 153.886 25.3164C154.249 25.3423 154.671 25.4057 155.142 25.4797C156.049 25.6222 157.157 25.8103 158.101 25.7243L157.989 24.5005C157.232 24.5696 156.297 24.4173 155.333 24.2658C154.869 24.1929 154.397 24.1209 153.973 24.0907C153.562 24.0614 153.121 24.0643 152.746 24.1893L153.135 25.355ZM158.101 25.7243C158.739 25.6662 159.255 25.6404 159.735 25.5535C160.246 25.4609 160.729 25.3004 161.377 24.984L160.838 23.8797C160.268 24.1577 159.894 24.2759 159.516 24.3443C159.107 24.4184 158.701 24.4357 157.989 24.5005L158.101 25.7243ZM161.377 24.984C161.991 24.6844 162.592 24.1962 163.117 23.6913C163.649 23.1806 164.133 22.6236 164.511 22.1565L163.556 21.3831C163.197 21.8265 162.748 22.3418 162.266 22.8052C161.778 23.2743 161.284 23.6619 160.838 23.8797L161.377 24.984ZM161.598 19.6697L160.25 21.0174L161.119 21.8863L162.467 20.5386L161.598 19.6697ZM159.241 21.4355H157.024V22.6643H159.241V21.4355ZM160.25 21.0174C159.983 21.2851 159.619 21.4355 159.241 21.4355V22.6643C159.945 22.6643 160.621 22.3844 161.119 21.8863L160.25 21.0174ZM164.063 19.4255C163.288 18.9089 162.257 19.0111 161.598 19.6697L162.467 20.5386C162.711 20.2941 163.094 20.2562 163.382 20.448L164.063 19.4255ZM164.511 22.1565C165.226 21.2736 164.961 20.0241 164.063 19.4255L163.382 20.448C163.726 20.6771 163.78 21.1064 163.556 21.3831L164.511 22.1565ZM149.198 19.2614H151.92V18.0326H149.198V19.2614ZM151.986 19.3276V25.4527H153.215V19.3276H151.986ZM151.92 25.5189H149.198V26.7477H151.92V25.5189ZM149.131 25.4527V19.3276H147.903V25.4527H149.131ZM149.198 25.5189C149.161 25.5189 149.131 25.4892 149.131 25.4527H147.903C147.903 26.1679 148.482 26.7477 149.198 26.7477V25.5189ZM151.986 25.4527C151.986 25.4892 151.956 25.5189 151.92 25.5189V26.7477C152.635 26.7477 153.215 26.1679 153.215 25.4527H151.986ZM151.92 19.2614C151.956 19.2614 151.986 19.291 151.986 19.3276H153.215C153.215 18.6124 152.635 18.0326 151.92 18.0326V19.2614ZM149.198 18.0326C148.482 18.0326 147.903 18.6124 147.903 19.3276H149.131C149.131 19.291 149.161 19.2614 149.198 19.2614V18.0326ZM153.215 20.5577L154.251 20.0398L153.702 18.9407L152.666 19.4586L153.215 20.5577ZM156.107 19.6017H156.386V18.3729H156.107V19.6017ZM157.478 19.7479L158.908 20.138L159.232 18.9525L157.801 18.5624L157.478 19.7479ZM159.089 20.8176L158.291 21.6154L159.16 22.4843L159.958 21.6865L159.089 20.8176ZM158.908 20.138C159.21 20.2202 159.31 20.5969 159.089 20.8176L159.958 21.6865C160.846 20.7986 160.443 19.2829 159.232 18.9525L158.908 20.138ZM156.386 19.6017C156.755 19.6017 157.122 19.6509 157.478 19.7479L157.801 18.5624C157.34 18.4366 156.864 18.3729 156.386 18.3729V19.6017ZM154.251 20.0398C154.827 19.7517 155.463 19.6017 156.107 19.6017V18.3729C155.272 18.3729 154.449 18.5673 153.702 18.9407L154.251 20.0398ZM160.833 13.883C160.833 15.0472 159.89 15.9909 158.725 15.9909V17.2197C160.568 17.2197 162.062 15.7258 162.062 13.883H160.833ZM158.725 15.9909C157.561 15.9909 156.618 15.0472 156.618 13.883H155.389C155.389 15.7258 156.883 17.2197 158.725 17.2197V15.9909ZM156.618 13.883C156.618 12.7189 157.561 11.7752 158.725 11.7752V10.5463C156.883 10.5463 155.389 12.0402 155.389 13.883H156.618ZM158.725 11.7752C159.89 11.7752 160.833 12.7189 160.833 13.883H162.062C162.062 12.0402 160.568 10.5463 158.725 10.5463V11.7752ZM156.003 13.2686C154.839 13.2686 153.895 12.3249 153.895 11.1608H152.667C152.667 13.0035 154.16 14.4974 156.003 14.4974V13.2686ZM153.895 11.1608C153.895 9.99661 154.839 9.05288 156.003 9.05288V7.82407C154.16 7.82407 152.667 9.31796 152.667 11.1608H153.895ZM156.003 9.05288C157.167 9.05288 158.111 9.99661 158.111 11.1608H159.34C159.34 9.31796 157.846 7.82407 156.003 7.82407V9.05288Z" fill="black"/>
<path d="M82.8638 41.9124C82.1752 41.9124 81.593 41.8024 81.1173 41.5823C80.6487 41.3622 80.2902 41.0605 80.0417 40.6771C79.7932 40.2866 79.6689 39.8464 79.6689 39.3565H81.1492C81.1492 39.5624 81.206 39.7647 81.3196 39.9635C81.4332 40.1552 81.6143 40.3114 81.8628 40.4321C82.1184 40.5528 82.452 40.6132 82.8638 40.6132C83.233 40.6132 83.5419 40.5599 83.7903 40.4534C84.0388 40.3469 84.2234 40.2085 84.3441 40.0381C84.4648 39.8606 84.5252 39.6618 84.5252 39.4417C84.5252 39.1648 84.408 38.9447 84.1737 38.7814C83.9394 38.611 83.5774 38.5045 83.0875 38.4619L82.4059 38.4087C81.6604 38.3448 81.064 38.1141 80.6168 37.7165C80.1766 37.3118 79.9565 36.7793 79.9565 36.119C79.9565 35.622 80.0736 35.1961 80.3079 34.8411C80.5422 34.479 80.8688 34.2021 81.2877 34.0104C81.7137 33.8116 82.2107 33.7122 82.7786 33.7122C83.3679 33.7122 83.8755 33.8151 84.3015 34.021C84.7275 34.2269 85.0577 34.518 85.2919 34.8943C85.5262 35.2635 85.6434 35.7001 85.6434 36.2042H84.1631C84.1631 35.9912 84.1098 35.796 84.0033 35.6185C83.9039 35.4339 83.7513 35.2883 83.5454 35.1819C83.3466 35.0683 83.091 35.0115 82.7786 35.0115C82.4804 35.0115 82.232 35.0612 82.0332 35.1606C81.8344 35.2599 81.6853 35.3948 81.5859 35.5652C81.4865 35.7356 81.4368 35.9202 81.4368 36.119C81.4368 36.3604 81.5255 36.5734 81.703 36.758C81.8805 36.9355 82.161 37.0384 82.5443 37.0668L83.2259 37.1307C83.7797 37.1733 84.266 37.2905 84.6849 37.4822C85.1038 37.6739 85.4268 37.933 85.654 38.2596C85.8883 38.5862 86.0055 38.9802 86.0055 39.4417C86.0055 39.9316 85.8777 40.3647 85.6221 40.741C85.3665 41.1102 85.0009 41.3977 84.5252 41.6036C84.0566 41.8095 83.5028 41.9124 82.8638 41.9124ZM89.7843 41.7846C89.2518 41.7846 88.8116 41.7172 88.4637 41.5823C88.1229 41.4403 87.8673 41.206 87.6969 40.8794C87.5265 40.5457 87.4413 40.0984 87.4413 39.5376L87.452 34.2979H88.8364L88.8258 39.6334C88.8258 39.9174 88.9003 40.1375 89.0494 40.2937C89.2056 40.4428 89.4257 40.5173 89.7097 40.5173H90.6149V41.7846H89.7843ZM86.5255 37.0136V35.9273H90.6149V37.0136H86.5255ZM91.8574 41.7101V35.9273H93.0288V38.3767H92.9969C92.9969 37.5461 93.1744 36.9177 93.5294 36.4918C93.8844 36.0658 94.4062 35.8528 95.0949 35.8528H95.3079V37.1414H94.9032C94.4062 37.1414 94.0192 37.2763 93.7424 37.5461C93.4726 37.8088 93.3377 38.1922 93.3377 38.6962V41.7101H91.8574ZM99.7707 41.7101V39.9955H99.5258V38.0892C99.5258 37.7555 99.4441 37.507 99.2808 37.3437C99.1175 37.1804 98.8655 37.0988 98.5247 37.0988C98.3472 37.0988 98.1342 37.1023 97.8857 37.1094C97.6372 37.1165 97.3852 37.1272 97.1296 37.1414C96.8811 37.1485 96.6575 37.1591 96.4587 37.1733V35.9167C96.622 35.9025 96.8066 35.8883 97.0125 35.8741C97.2184 35.8599 97.4278 35.8528 97.6408 35.8528C97.8609 35.8457 98.0668 35.8421 98.2585 35.8421C98.8548 35.8421 99.3483 35.9202 99.7388 36.0764C100.136 36.2326 100.435 36.4776 100.633 36.8112C100.839 37.1449 100.942 37.5816 100.942 38.1212V41.7101H99.7707ZM97.907 41.8592C97.4881 41.8592 97.119 41.7846 96.7995 41.6355C96.4871 41.4864 96.2421 41.2734 96.0646 40.9966C95.8942 40.7197 95.8091 40.386 95.8091 39.9955C95.8091 39.5695 95.912 39.2216 96.1179 38.9518C96.3309 38.682 96.6255 38.4797 97.0018 38.3448C97.3852 38.2099 97.8325 38.1425 98.3437 38.1425H99.6855V39.0264H98.3224C97.9816 39.0264 97.7189 39.1116 97.5343 39.282C97.3568 39.4453 97.2681 39.6583 97.2681 39.9209C97.2681 40.1836 97.3568 40.3966 97.5343 40.5599C97.7189 40.7232 97.9816 40.8049 98.3224 40.8049C98.5283 40.8049 98.7164 40.7694 98.8868 40.6984C99.0643 40.6203 99.2098 40.4925 99.3234 40.315C99.4441 40.1304 99.5116 39.8819 99.5258 39.5695L99.8879 39.9848C99.8524 40.3895 99.753 40.7303 99.5897 41.0072C99.4335 41.2841 99.2134 41.4971 98.9294 41.6462C98.6525 41.7882 98.3117 41.8592 97.907 41.8592ZM105.041 41.7846C104.509 41.7846 104.068 41.7172 103.721 41.5823C103.38 41.4403 103.124 41.206 102.954 40.8794C102.783 40.5457 102.698 40.0984 102.698 39.5376L102.709 34.2979H104.093L104.083 39.6334C104.083 39.9174 104.157 40.1375 104.306 40.2937C104.462 40.4428 104.683 40.5173 104.967 40.5173H105.872V41.7846H105.041ZM101.782 37.0136V35.9273H105.872V37.0136H101.782ZM109.671 41.9124C109.174 41.9124 108.737 41.8272 108.361 41.6568C107.992 41.4864 107.683 41.2592 107.434 40.9753C107.193 40.6842 107.008 40.3611 106.881 40.0061C106.76 39.6512 106.7 39.2891 106.7 38.9199V38.7175C106.7 38.3341 106.76 37.965 106.881 37.61C107.008 37.2479 107.193 36.9284 107.434 36.6515C107.683 36.3675 107.988 36.1439 108.35 35.9806C108.712 35.8102 109.131 35.725 109.607 35.725C110.232 35.725 110.754 35.8634 111.172 36.1403C111.598 36.4101 111.918 36.7686 112.131 37.2159C112.344 37.6561 112.45 38.1318 112.45 38.643V39.1755H107.328V38.2702H111.524L111.066 38.7175C111.066 38.3483 111.013 38.0324 110.906 37.7697C110.8 37.507 110.636 37.3047 110.416 37.1627C110.203 37.0207 109.934 36.9497 109.607 36.9497C109.28 36.9497 109.004 37.0242 108.776 37.1733C108.549 37.3224 108.375 37.539 108.254 37.823C108.141 38.0999 108.084 38.4335 108.084 38.824C108.084 39.1861 108.141 39.5092 108.254 39.7931C108.368 40.07 108.542 40.2901 108.776 40.4534C109.011 40.6096 109.309 40.6877 109.671 40.6877C110.033 40.6877 110.328 40.6167 110.555 40.4747C110.782 40.3256 110.928 40.1446 110.991 39.9316H112.355C112.269 40.3292 112.106 40.6771 111.865 40.9753C111.623 41.2734 111.314 41.5042 110.938 41.6675C110.569 41.8308 110.147 41.9124 109.671 41.9124ZM115.945 43.9891C115.668 43.9891 115.384 43.9785 115.093 43.9572C114.809 43.9359 114.543 43.9075 114.294 43.872V42.6366C114.55 42.665 114.823 42.6899 115.114 42.7111C115.405 42.7395 115.679 42.7537 115.934 42.7537C116.41 42.7537 116.793 42.6969 117.084 42.5834C117.382 42.4698 117.599 42.2887 117.734 42.0402C117.876 41.7988 117.947 41.49 117.947 41.1137V39.9742L118.266 39.25C118.245 39.7825 118.135 40.2369 117.936 40.6132C117.737 40.9824 117.468 41.2663 117.127 41.4651C116.786 41.6568 116.392 41.7527 115.945 41.7527C115.547 41.7527 115.185 41.6781 114.859 41.529C114.539 41.3799 114.262 41.1741 114.028 40.9114C113.801 40.6487 113.623 40.3398 113.495 39.9848C113.368 39.6299 113.304 39.25 113.304 38.8453V38.6217C113.304 38.217 113.368 37.8407 113.495 37.4928C113.63 37.1378 113.818 36.829 114.06 36.5663C114.301 36.3036 114.589 36.1013 114.922 35.9593C115.256 35.8173 115.625 35.7463 116.03 35.7463C116.506 35.7463 116.917 35.8492 117.265 36.0551C117.62 36.261 117.897 36.5592 118.096 36.9497C118.295 37.3402 118.405 37.8194 118.426 38.3874L118.171 38.43V35.9273H119.342V41.0285C119.342 41.7314 119.221 42.2994 118.98 42.7324C118.739 43.1655 118.366 43.4815 117.862 43.6803C117.365 43.8862 116.726 43.9891 115.945 43.9891ZM116.371 40.4854C116.655 40.4854 116.914 40.4215 117.148 40.2937C117.382 40.1659 117.571 39.9813 117.713 39.7399C117.855 39.4985 117.926 39.2074 117.926 38.8666V38.4939C117.926 38.1673 117.851 37.8904 117.702 37.6632C117.56 37.436 117.372 37.2656 117.138 37.152C116.903 37.0313 116.648 36.971 116.371 36.971C116.058 36.971 115.781 37.0455 115.54 37.1946C115.306 37.3366 115.121 37.539 114.986 37.8017C114.851 38.0644 114.784 38.3767 114.784 38.7388C114.784 39.0938 114.851 39.4027 114.986 39.6654C115.121 39.928 115.306 40.1304 115.54 40.2724C115.781 40.4144 116.058 40.4854 116.371 40.4854ZM120.786 43.9891V42.7218H121.873C122.078 42.7218 122.249 42.6934 122.384 42.6366C122.526 42.5869 122.643 42.5017 122.735 42.381C122.827 42.2674 122.898 42.1077 122.948 41.9018L124.503 35.9273H125.919L124.205 42.2213C124.091 42.6544 123.931 42.9987 123.726 43.2543C123.52 43.517 123.253 43.7051 122.927 43.8187C122.607 43.9323 122.21 43.9891 121.734 43.9891H120.786ZM122.586 41.5823V40.4108H123.821V41.5823H122.586ZM122.086 41.5823L120.211 35.9273H121.702L123.481 41.5823H122.086ZM130.63 41.7101L128.649 33.9358H130.215L131.823 40.6984L131.408 40.4534H132.473L132.004 40.6984L133.271 34.234H134.571L132.994 41.7101H130.63ZM135.273 41.7101L133.559 34.234H134.911L136.37 40.6984L135.912 40.4534H136.956L136.551 40.6984L137.968 33.9358H139.448L137.68 41.7101H135.273ZM140.692 41.7101V35.9273H142.172V41.7101H140.692ZM139.883 37.0349V35.9273H142.172V37.0349H139.883ZM141.235 35.2351C140.944 35.2351 140.728 35.1606 140.586 35.0115C140.451 34.8553 140.383 34.6636 140.383 34.4364C140.383 34.195 140.451 33.9997 140.586 33.8506C140.728 33.7016 140.944 33.627 141.235 33.627C141.526 33.627 141.739 33.7016 141.874 33.8506C142.009 33.9997 142.077 34.195 142.077 34.4364C142.077 34.6636 142.009 34.8553 141.874 35.0115C141.739 35.1606 141.526 35.2351 141.235 35.2351ZM146.392 41.7846C145.859 41.7846 145.419 41.7172 145.071 41.5823C144.73 41.4403 144.475 41.206 144.304 40.8794C144.134 40.5457 144.049 40.0984 144.049 39.5376L144.059 34.2979H145.444L145.433 39.6334C145.433 39.9174 145.508 40.1375 145.657 40.2937C145.813 40.4428 146.033 40.5173 146.317 40.5173H147.222V41.7846H146.392ZM143.133 37.0136V35.9273H147.222V37.0136H143.133ZM148.465 41.7101V33.9358H149.945V38.4726H149.689C149.689 37.8904 149.764 37.397 149.913 36.9923C150.062 36.5876 150.282 36.2788 150.573 36.0658C150.872 35.8528 151.248 35.7463 151.702 35.7463H151.766C152.426 35.7463 152.927 35.9735 153.268 36.4279C153.609 36.8822 153.779 37.5425 153.779 38.4087V41.7101H152.299V38.2702C152.299 37.9011 152.192 37.61 151.979 37.397C151.773 37.184 151.5 37.0775 151.159 37.0775C150.797 37.0775 150.502 37.1982 150.275 37.4396C150.055 37.6739 149.945 37.9827 149.945 38.3661V41.7101H148.465Z" fill="#041C33"/>
<path d="M160.257 33.7122C160.832 33.7122 161.318 33.8116 161.716 34.0104C162.12 34.2021 162.447 34.4683 162.695 34.8091C162.944 35.1499 163.125 35.5475 163.239 36.0019C163.352 36.4492 163.409 36.9248 163.409 37.4289V37.8975C163.409 39.1684 163.086 40.1339 162.44 40.7942C161.801 41.4474 160.86 41.774 159.618 41.774C159.348 41.774 159.096 41.7669 158.862 41.7527C158.627 41.7385 158.393 41.7172 158.159 41.6888V40.4215C158.393 40.4499 158.631 40.4712 158.872 40.4854C159.121 40.4996 159.387 40.5067 159.671 40.5067C160.267 40.5067 160.736 40.4037 161.077 40.1978C161.418 39.9919 161.659 39.6902 161.801 39.2926C161.95 38.895 162.025 38.4016 162.025 37.8123V37.1201L162.365 36.6302C162.358 37.1769 162.248 37.6313 162.035 37.9934C161.829 38.3483 161.542 38.6181 161.173 38.8027C160.803 38.9802 160.381 39.069 159.905 39.069C159.351 39.069 158.879 38.9589 158.489 38.7388C158.098 38.5187 157.797 38.2135 157.584 37.823C157.378 37.4325 157.275 36.9781 157.275 36.4598C157.275 35.9202 157.395 35.4445 157.637 35.0328C157.878 34.6139 158.219 34.2908 158.659 34.0636C159.107 33.8293 159.639 33.7122 160.257 33.7122ZM160.289 34.9795C159.955 34.9795 159.671 35.0434 159.437 35.1712C159.202 35.2919 159.025 35.4623 158.904 35.6824C158.783 35.9025 158.723 36.1545 158.723 36.4385C158.723 36.7296 158.78 36.9852 158.894 37.2053C159.014 37.4254 159.188 37.5958 159.415 37.7165C159.643 37.8372 159.916 37.8975 160.235 37.8975C160.541 37.8975 160.818 37.8443 161.066 37.7378C161.322 37.6242 161.52 37.4609 161.662 37.2479C161.812 37.0278 161.886 36.758 161.886 36.4385C161.886 36.1616 161.826 35.9131 161.705 35.693C161.591 35.4729 161.414 35.299 161.173 35.1712C160.938 35.0434 160.644 34.9795 160.289 34.9795ZM167.485 41.9124C166.874 41.9124 166.349 41.7917 165.909 41.5503C165.476 41.3089 165.142 40.9895 164.908 40.5919C164.681 40.1872 164.567 39.747 164.567 39.2713H166.026C166.026 39.5411 166.086 39.7789 166.207 39.9848C166.335 40.1907 166.509 40.354 166.729 40.4747C166.949 40.5883 167.205 40.6451 167.496 40.6451C167.801 40.6451 168.064 40.5812 168.284 40.4534C168.504 40.3256 168.671 40.1517 168.784 39.9316C168.905 39.7115 168.965 39.4595 168.965 39.1755C168.965 38.8986 168.905 38.6501 168.784 38.43C168.671 38.2028 168.504 38.0253 168.284 37.8975C168.071 37.7626 167.812 37.6952 167.506 37.6952C167.251 37.6952 167.009 37.7449 166.782 37.8443C166.555 37.9437 166.377 38.075 166.25 38.2383H164.855L165.249 33.9358H169.753V35.2245H165.909L166.441 34.8091L166.186 37.4928L165.824 37.3863C166.03 37.152 166.282 36.9568 166.58 36.8006C166.878 36.6444 167.254 36.5663 167.709 36.5663C168.284 36.5663 168.774 36.6835 169.178 36.9177C169.583 37.152 169.892 37.4644 170.105 37.8549C170.318 38.2383 170.424 38.6572 170.424 39.1116V39.25C170.424 39.7115 170.311 40.1446 170.083 40.5493C169.856 40.954 169.523 41.2841 169.082 41.5397C168.649 41.7882 168.117 41.9124 167.485 41.9124ZM173.478 41.7101L176.342 33.9358H177.567L174.702 41.7101H173.478ZM172.924 38.1744C172.512 38.1744 172.171 38.0821 171.902 37.8975C171.632 37.7058 171.429 37.4538 171.295 37.1414C171.167 36.829 171.103 36.4882 171.103 36.119V35.8421C171.103 35.4374 171.17 35.0825 171.305 34.7772C171.44 34.4648 171.642 34.2234 171.912 34.053C172.189 33.8755 172.526 33.7867 172.924 33.7867C173.336 33.7867 173.677 33.8755 173.946 34.053C174.216 34.2234 174.418 34.4648 174.553 34.7772C174.688 35.0825 174.756 35.4374 174.756 35.8421V36.119C174.756 36.4882 174.688 36.829 174.553 37.1414C174.426 37.4538 174.227 37.7058 173.957 37.8975C173.694 38.0821 173.35 38.1744 172.924 38.1744ZM172.924 37.184C173.18 37.184 173.368 37.0917 173.488 36.9071C173.616 36.7154 173.68 36.4101 173.68 35.9912C173.68 35.5368 173.616 35.2209 173.488 35.0434C173.361 34.8659 173.172 34.7772 172.924 34.7772C172.675 34.7772 172.487 34.8659 172.36 35.0434C172.239 35.2209 172.178 35.5333 172.178 35.9806C172.178 36.3995 172.239 36.7048 172.36 36.8964C172.487 37.0881 172.675 37.184 172.924 37.184ZM178.068 41.8698C177.656 41.8698 177.315 41.7775 177.045 41.5929C176.776 41.4012 176.573 41.1492 176.438 40.8368C176.311 40.5244 176.247 40.1836 176.247 39.8144V39.5376C176.247 39.1329 176.314 38.7779 176.449 38.4726C176.584 38.1602 176.786 37.9188 177.056 37.7484C177.333 37.5709 177.67 37.4822 178.068 37.4822C178.48 37.4822 178.82 37.5709 179.09 37.7484C179.36 37.9188 179.562 38.1602 179.697 38.4726C179.832 38.7779 179.899 39.1329 179.899 39.5376V39.8144C179.899 40.1836 179.832 40.5244 179.697 40.8368C179.569 41.1492 179.371 41.4012 179.101 41.5929C178.838 41.7775 178.494 41.8698 178.068 41.8698ZM178.068 40.8794C178.323 40.8794 178.511 40.7871 178.632 40.6025C178.76 40.4108 178.824 40.1055 178.824 39.6867C178.824 39.2323 178.76 38.9163 178.632 38.7388C178.504 38.5613 178.316 38.4726 178.068 38.4726C177.819 38.4726 177.631 38.5613 177.503 38.7388C177.383 38.9163 177.322 39.2287 177.322 39.676C177.322 40.0949 177.383 40.4002 177.503 40.5919C177.631 40.7836 177.819 40.8794 178.068 40.8794ZM182.655 41.7101L185.307 33.9358H187.778L190.504 41.7101H188.949L186.638 34.9689L187.181 35.2032H185.85L186.404 34.9689L184.168 41.7101H182.655ZM184.508 39.6441L184.988 38.3661H188.14L188.608 39.6441H184.508ZM194.025 41.9124C193.521 41.9124 193.084 41.8272 192.715 41.6568C192.353 41.4864 192.048 41.2592 191.799 40.9753C191.558 40.6913 191.377 40.3718 191.256 40.0168C191.136 39.6618 191.075 39.2997 191.075 38.9305V38.7282C191.075 38.3377 191.136 37.965 191.256 37.61C191.384 37.2479 191.572 36.9284 191.821 36.6515C192.069 36.3675 192.374 36.1439 192.737 35.9806C193.106 35.8102 193.532 35.725 194.014 35.725C194.519 35.725 194.969 35.8244 195.367 36.0232C195.765 36.2149 196.081 36.4847 196.315 36.8325C196.556 37.1804 196.691 37.5851 196.719 38.0466H195.282C195.246 37.7484 195.118 37.4999 194.898 37.3011C194.685 37.1023 194.391 37.0029 194.014 37.0029C193.688 37.0029 193.415 37.081 193.194 37.2372C192.981 37.3934 192.822 37.61 192.715 37.8869C192.609 38.1567 192.555 38.469 192.555 38.824C192.555 39.1648 192.605 39.4737 192.705 39.7505C192.811 40.0274 192.971 40.244 193.184 40.4002C193.404 40.5564 193.684 40.6345 194.025 40.6345C194.281 40.6345 194.501 40.5883 194.685 40.496C194.87 40.4037 195.016 40.2759 195.122 40.1126C195.236 39.9493 195.307 39.7647 195.335 39.5589H196.773C196.744 40.0274 196.606 40.4392 196.357 40.7942C196.116 41.1421 195.793 41.4154 195.388 41.6142C194.991 41.813 194.536 41.9124 194.025 41.9124ZM200.525 41.9124C200.021 41.9124 199.584 41.8272 199.215 41.6568C198.853 41.4864 198.548 41.2592 198.299 40.9753C198.058 40.6913 197.877 40.3718 197.756 40.0168C197.636 39.6618 197.575 39.2997 197.575 38.9305V38.7282C197.575 38.3377 197.636 37.965 197.756 37.61C197.884 37.2479 198.072 36.9284 198.321 36.6515C198.569 36.3675 198.874 36.1439 199.237 35.9806C199.606 35.8102 200.032 35.725 200.514 35.725C201.019 35.725 201.469 35.8244 201.867 36.0232C202.265 36.2149 202.581 36.4847 202.815 36.8325C203.056 37.1804 203.191 37.5851 203.22 38.0466H201.782C201.746 37.7484 201.619 37.4999 201.398 37.3011C201.185 37.1023 200.891 37.0029 200.514 37.0029C200.188 37.0029 199.915 37.081 199.694 37.2372C199.481 37.3934 199.322 37.61 199.215 37.8869C199.109 38.1567 199.055 38.469 199.055 38.824C199.055 39.1648 199.105 39.4737 199.205 39.7505C199.311 40.0274 199.471 40.244 199.684 40.4002C199.904 40.5564 200.184 40.6345 200.525 40.6345C200.781 40.6345 201.001 40.5883 201.185 40.496C201.37 40.4037 201.516 40.2759 201.622 40.1126C201.736 39.9493 201.807 39.7647 201.835 39.5589H203.273C203.244 40.0274 203.106 40.4392 202.857 40.7942C202.616 41.1421 202.293 41.4154 201.888 41.6142C201.491 41.813 201.036 41.9124 200.525 41.9124ZM206.429 41.8911C205.761 41.8911 205.243 41.671 204.874 41.2308C204.512 40.7907 204.331 40.1375 204.331 39.2713V35.9167H205.811V39.3991C205.811 39.7541 205.911 40.0381 206.109 40.2511C206.308 40.457 206.578 40.5599 206.919 40.5599C207.259 40.5599 207.536 40.4499 207.749 40.2298C207.969 40.0097 208.079 39.7115 208.079 39.3352V35.9167H209.56V41.7101H208.388V39.25H208.505C208.505 39.8322 208.431 40.3185 208.282 40.709C208.133 41.0995 207.909 41.3941 207.611 41.5929C207.313 41.7917 206.94 41.8911 206.493 41.8911H206.429ZM211.26 41.7101V35.9273H212.432V38.3767H212.4C212.4 37.5461 212.577 36.9177 212.932 36.4918C213.287 36.0658 213.809 35.8528 214.498 35.8528H214.711V37.1414H214.306C213.809 37.1414 213.422 37.2763 213.145 37.5461C212.875 37.8088 212.741 38.1922 212.741 38.6962V41.7101H211.26ZM219.174 41.7101V39.9955H218.929V38.0892C218.929 37.7555 218.847 37.507 218.684 37.3437C218.52 37.1804 218.268 37.0988 217.928 37.0988C217.75 37.0988 217.537 37.1023 217.289 37.1094C217.04 37.1165 216.788 37.1272 216.532 37.1414C216.284 37.1485 216.06 37.1591 215.862 37.1733V35.9167C216.025 35.9025 216.209 35.8883 216.415 35.8741C216.621 35.8599 216.831 35.8528 217.044 35.8528C217.264 35.8457 217.47 35.8421 217.661 35.8421C218.258 35.8421 218.751 35.9202 219.142 36.0764C219.539 36.2326 219.837 36.4776 220.036 36.8112C220.242 37.1449 220.345 37.5816 220.345 38.1212V41.7101H219.174ZM217.31 41.8592C216.891 41.8592 216.522 41.7846 216.202 41.6355C215.89 41.4864 215.645 41.2734 215.468 40.9966C215.297 40.7197 215.212 40.386 215.212 39.9955C215.212 39.5695 215.315 39.2216 215.521 38.9518C215.734 38.682 216.028 38.4797 216.405 38.3448C216.788 38.2099 217.235 38.1425 217.747 38.1425H219.088V39.0264H217.725C217.384 39.0264 217.122 39.1116 216.937 39.282C216.76 39.4453 216.671 39.6583 216.671 39.9209C216.671 40.1836 216.76 40.3966 216.937 40.5599C217.122 40.7232 217.384 40.8049 217.725 40.8049C217.931 40.8049 218.119 40.7694 218.29 40.6984C218.467 40.6203 218.613 40.4925 218.726 40.315C218.847 40.1304 218.914 39.8819 218.929 39.5695L219.291 39.9848C219.255 40.3895 219.156 40.7303 218.993 41.0072C218.836 41.2841 218.616 41.4971 218.332 41.6462C218.055 41.7882 217.715 41.8592 217.31 41.8592ZM224.497 41.9124C223.993 41.9124 223.557 41.8272 223.187 41.6568C222.825 41.4864 222.52 41.2592 222.271 40.9753C222.03 40.6913 221.849 40.3718 221.728 40.0168C221.608 39.6618 221.547 39.2997 221.547 38.9305V38.7282C221.547 38.3377 221.608 37.965 221.728 37.61C221.856 37.2479 222.044 36.9284 222.293 36.6515C222.541 36.3675 222.847 36.1439 223.209 35.9806C223.578 35.8102 224.004 35.725 224.487 35.725C224.991 35.725 225.442 35.8244 225.839 36.0232C226.237 36.2149 226.553 36.4847 226.787 36.8325C227.028 37.1804 227.163 37.5851 227.192 38.0466H225.754C225.718 37.7484 225.591 37.4999 225.371 37.3011C225.158 37.1023 224.863 37.0029 224.487 37.0029C224.16 37.0029 223.887 37.081 223.667 37.2372C223.454 37.3934 223.294 37.61 223.187 37.8869C223.081 38.1567 223.028 38.469 223.028 38.824C223.028 39.1648 223.077 39.4737 223.177 39.7505C223.283 40.0274 223.443 40.244 223.656 40.4002C223.876 40.5564 224.156 40.6345 224.497 40.6345C224.753 40.6345 224.973 40.5883 225.158 40.496C225.342 40.4037 225.488 40.2759 225.594 40.1126C225.708 39.9493 225.779 39.7647 225.807 39.5589H227.245C227.216 40.0274 227.078 40.4392 226.83 40.7942C226.588 41.1421 226.265 41.4154 225.86 41.6142C225.463 41.813 225.008 41.9124 224.497 41.9124ZM228.26 43.9891V42.7218H229.347C229.552 42.7218 229.723 42.6934 229.858 42.6366C230 42.5869 230.117 42.5017 230.209 42.381C230.301 42.2674 230.372 42.1077 230.422 41.9018L231.977 35.9273H233.393L231.679 42.2213C231.565 42.6544 231.406 42.9987 231.2 43.2543C230.994 43.517 230.727 43.7051 230.401 43.8187C230.081 43.9323 229.684 43.9891 229.208 43.9891H228.26ZM230.06 41.5823V40.4108H231.295V41.5823H230.06ZM229.56 41.5823L227.685 35.9273H229.176L230.955 41.5823H229.56Z" fill="#FF7700"/>
<rect x="1" y="176" width="134.105" height="62.7774" rx="8.2126" stroke="#FF7700" stroke-width="0.684384" stroke-linecap="round" stroke-dasharray="2.74 2.74"/>
<path d="M64.4124 199.464C64.0927 199.57 63.9199 199.916 64.0265 200.236C64.1331 200.555 64.4787 200.728 64.7984 200.622L64.4124 199.464ZM69.675 200.381L69.6196 199.773L69.6196 199.773L69.675 200.381ZM72.7167 199.705L72.9843 200.253L72.9843 200.253L72.7167 199.705ZM75.6231 197.061L75.1489 196.677L75.1489 196.677L75.6231 197.061ZM73.6353 195.406L74.0668 195.838L74.0668 195.838L73.6353 195.406ZM72.2967 196.745L72.7282 197.177L72.7282 197.177L72.2967 196.745ZM68.661 196.729C68.324 196.729 68.0508 197.002 68.0508 197.339C68.0508 197.676 68.324 197.949 68.661 197.949V196.729ZM75.3141 195.24L74.9756 195.748L74.9756 195.748L75.3141 195.24ZM65.6342 194.797L65.9071 195.343L65.9071 195.343L65.6342 194.797ZM69.2724 194.464L69.4329 193.875L69.4329 193.875L69.2724 194.464ZM70.6931 194.851L70.5326 195.44L70.5326 195.44L70.6931 194.851ZM71.1433 196.547L70.7118 196.115L70.7118 196.115L71.1433 196.547ZM69.9194 196.908C69.6811 197.146 69.6811 197.532 69.9194 197.77C70.1577 198.009 70.5441 198.009 70.7824 197.77L69.9194 196.908ZM64.7984 200.622C64.933 200.577 65.1709 200.557 65.5442 200.583C65.9051 200.609 66.3235 200.672 66.792 200.746C67.6931 200.887 68.793 201.074 69.7303 200.988L69.6196 199.773C68.8671 199.842 67.9392 199.69 66.9814 199.54C66.5205 199.468 66.0517 199.396 65.631 199.366C65.2228 199.337 64.7848 199.34 64.4124 199.464L64.7984 200.622ZM69.7303 200.988C70.364 200.931 70.8766 200.905 71.3535 200.819C71.8615 200.727 72.3404 200.567 72.9843 200.253L72.4491 199.156C71.8833 199.432 71.5116 199.55 71.1362 199.618C70.7299 199.691 70.3263 199.709 69.6196 199.773L69.7303 200.988ZM72.9843 200.253C73.594 199.956 74.191 199.471 74.7129 198.969C75.2408 198.462 75.7216 197.909 76.0973 197.445L75.1489 196.677C74.7923 197.117 74.3464 197.629 73.8673 198.089C73.3824 198.555 72.8923 198.94 72.4491 199.156L72.9843 200.253ZM73.2038 194.975L71.8652 196.314L72.7282 197.177L74.0668 195.838L73.2038 194.975ZM70.8628 196.729H68.661V197.949H70.8628V196.729ZM71.8652 196.314C71.5994 196.579 71.2388 196.729 70.8628 196.729V197.949C71.5625 197.949 72.2335 197.671 72.7282 197.177L71.8652 196.314ZM75.6526 194.733C74.8828 194.219 73.8579 194.321 73.2038 194.975L74.0668 195.838C74.3095 195.595 74.6899 195.558 74.9756 195.748L75.6526 194.733ZM76.0973 197.445C76.8075 196.568 76.5443 195.327 75.6526 194.733L74.9756 195.748C75.317 195.976 75.3715 196.402 75.1489 196.677L76.0973 197.445ZM60.8877 194.57H63.5915V193.349H60.8877V194.57ZM63.6572 194.635V200.719H64.8777V194.635H63.6572ZM63.5915 200.784H60.8877V202.005H63.5915V200.784ZM60.822 200.719V194.635H59.6016V200.719H60.822ZM60.8877 200.784C60.8514 200.784 60.822 200.755 60.822 200.719H59.6016C59.6016 201.429 60.1774 202.005 60.8877 202.005V200.784ZM63.6572 200.719C63.6572 200.755 63.6278 200.784 63.5915 200.784V202.005C64.3018 202.005 64.8777 201.429 64.8777 200.719H63.6572ZM63.5915 194.57C63.6278 194.57 63.6572 194.599 63.6572 194.635H64.8777C64.8777 193.925 64.3018 193.349 63.5915 193.349V194.57ZM60.8877 193.349C60.1774 193.349 59.6016 193.925 59.6016 194.635H60.822C60.822 194.599 60.8514 194.57 60.8877 194.57V193.349ZM64.8783 195.857L65.9071 195.343L65.3613 194.251L64.3325 194.765L64.8783 195.857ZM67.7502 194.907H68.0274V193.687H67.7502V194.907ZM69.1118 195.053L70.5326 195.44L70.8537 194.263L69.4329 193.875L69.1118 195.053ZM70.7118 196.115L69.9194 196.908L70.7824 197.77L71.5748 196.978L70.7118 196.115ZM70.5326 195.44C70.8316 195.522 70.931 195.896 70.7118 196.115L71.5748 196.978C72.4566 196.096 72.0568 194.591 70.8537 194.263L70.5326 195.44ZM68.0274 194.907C68.3937 194.907 68.7584 194.956 69.1118 195.053L69.4329 193.875C68.9749 193.75 68.5022 193.687 68.0274 193.687V194.907ZM65.9071 195.343C66.4793 195.056 67.1104 194.907 67.7502 194.907V193.687C66.9209 193.687 66.103 193.88 65.3613 194.251L65.9071 195.343ZM72.4444 189.228C72.4444 190.384 71.5071 191.321 70.3509 191.321V192.542C72.1812 192.542 73.6649 191.058 73.6649 189.228H72.4444ZM70.3509 191.321C69.1947 191.321 68.2574 190.384 68.2574 189.228H67.0369C67.0369 191.058 68.5206 192.542 70.3509 192.542V191.321ZM68.2574 189.228C68.2574 188.071 69.1947 187.134 70.3509 187.134V185.914C68.5206 185.914 67.0369 187.397 67.0369 189.228H68.2574ZM70.3509 187.134C71.5071 187.134 72.4444 188.071 72.4444 189.228H73.6649C73.6649 187.397 72.1812 185.914 70.3509 185.914V187.134ZM67.6471 188.617C66.4909 188.617 65.5536 187.68 65.5536 186.524H64.3332C64.3332 188.354 65.8169 189.838 67.6471 189.838V188.617ZM65.5536 186.524C65.5536 185.368 66.4909 184.43 67.6471 184.43V183.21C65.8169 183.21 64.3332 184.694 64.3332 186.524H65.5536ZM67.6471 184.43C68.8034 184.43 69.7407 185.368 69.7407 186.524H70.9611C70.9611 184.694 69.4774 183.21 67.6471 183.21V184.43Z" fill="black"/>
<path d="M21.1383 217.135C20.4543 217.135 19.8761 217.025 19.4036 216.807C18.9383 216.588 18.5822 216.288 18.3353 215.908C18.0885 215.52 17.9651 215.083 17.9651 214.596H19.4354C19.4354 214.801 19.4918 215.001 19.6046 215.199C19.7174 215.389 19.8973 215.544 20.1441 215.664C20.3979 215.784 20.7293 215.844 21.1383 215.844C21.505 215.844 21.8117 215.791 22.0585 215.685C22.3053 215.58 22.4887 215.442 22.6085 215.273C22.7284 215.097 22.7884 214.899 22.7884 214.681C22.7884 214.406 22.672 214.187 22.4393 214.025C22.2066 213.856 21.847 213.75 21.3604 213.708L20.6835 213.655C19.9431 213.591 19.3508 213.362 18.9065 212.967C18.4693 212.565 18.2507 212.036 18.2507 211.381C18.2507 210.887 18.3671 210.464 18.5998 210.111C18.8325 209.752 19.1568 209.477 19.5729 209.286C19.996 209.089 20.4896 208.99 21.0537 208.99C21.639 208.99 22.1431 209.092 22.5662 209.297C22.9893 209.501 23.3172 209.79 23.5499 210.164C23.7826 210.531 23.899 210.965 23.899 211.465H22.4287C22.4287 211.254 22.3758 211.06 22.2701 210.883C22.1714 210.7 22.0197 210.556 21.8153 210.45C21.6178 210.337 21.364 210.281 21.0537 210.281C20.7575 210.281 20.5107 210.33 20.3133 210.429C20.1158 210.527 19.9678 210.661 19.869 210.831C19.7703 211 19.721 211.183 19.721 211.381C19.721 211.62 19.8091 211.832 19.9854 212.015C20.1617 212.191 20.4402 212.294 20.821 212.322L21.4979 212.385C22.048 212.428 22.531 212.544 22.947 212.734C23.3631 212.925 23.6839 213.182 23.9095 213.507C24.1422 213.831 24.2586 214.222 24.2586 214.681C24.2586 215.167 24.1317 215.597 23.8778 215.971C23.624 216.338 23.2608 216.623 22.7884 216.828C22.323 217.032 21.7729 217.135 21.1383 217.135ZM28.0117 217.008C27.4828 217.008 27.0456 216.941 26.7001 216.807C26.3616 216.666 26.1078 216.433 25.9386 216.109C25.7693 215.777 25.6847 215.333 25.6847 214.776L25.6953 209.572H27.0703L27.0597 214.871C27.0597 215.153 27.1338 215.372 27.2819 215.527C27.437 215.675 27.6556 215.749 27.9376 215.749H28.8367V217.008H28.0117ZM24.7751 212.269V211.19H28.8367V212.269H24.7751ZM30.0707 216.934V211.19H31.2342V213.623H31.2025C31.2025 212.798 31.3787 212.174 31.7313 211.751C32.0839 211.328 32.6022 211.116 33.2862 211.116H33.4977V212.396H33.0958C32.6022 212.396 32.2179 212.53 31.9429 212.798C31.6749 213.059 31.5409 213.44 31.5409 213.94V216.934H30.0707ZM37.9302 216.934V215.231H37.6869V213.337C37.6869 213.006 37.6059 212.759 37.4437 212.597C37.2815 212.435 37.0312 212.354 36.6927 212.354C36.5164 212.354 36.3049 212.357 36.0581 212.364C35.8113 212.371 35.5609 212.382 35.3071 212.396C35.0603 212.403 34.8382 212.414 34.6407 212.428V211.18C34.8029 211.165 34.9862 211.151 35.1907 211.137C35.3952 211.123 35.6032 211.116 35.8148 211.116C36.0334 211.109 36.2379 211.106 36.4283 211.106C37.0206 211.106 37.5107 211.183 37.8985 211.338C38.2934 211.493 38.5895 211.737 38.787 212.068C38.9915 212.399 39.0937 212.833 39.0937 213.369V216.934H37.9302ZM36.0792 217.082C35.6632 217.082 35.2965 217.008 34.9792 216.86C34.6689 216.711 34.4256 216.5 34.2494 216.225C34.0801 215.95 33.9955 215.618 33.9955 215.231C33.9955 214.808 34.0977 214.462 34.3022 214.194C34.5138 213.926 34.8064 213.725 35.1801 213.591C35.5609 213.457 36.0052 213.39 36.5129 213.39H37.8456V214.268H36.4917C36.1533 214.268 35.8923 214.353 35.709 214.522C35.5327 214.684 35.4446 214.896 35.4446 215.157C35.4446 215.418 35.5327 215.629 35.709 215.791C35.8923 215.953 36.1533 216.035 36.4917 216.035C36.6962 216.035 36.8831 215.999 37.0523 215.929C37.2286 215.851 37.3732 215.724 37.486 215.548C37.6059 215.365 37.6728 215.118 37.6869 214.808L38.0466 215.22C38.0113 215.622 37.9126 215.96 37.7504 216.235C37.5953 216.511 37.3767 216.722 37.0946 216.87C36.8196 217.011 36.4811 217.082 36.0792 217.082ZM43.1648 217.008C42.6359 217.008 42.1987 216.941 41.8532 216.807C41.5147 216.666 41.2609 216.433 41.0917 216.109C40.9224 215.777 40.8378 215.333 40.8378 214.776L40.8484 209.572H42.2234L42.2128 214.871C42.2128 215.153 42.2869 215.372 42.435 215.527C42.5901 215.675 42.8087 215.749 43.0907 215.749H43.9898V217.008H43.1648ZM39.9282 212.269V211.19H43.9898V212.269H39.9282ZM47.7631 217.135C47.2695 217.135 46.8358 217.05 46.4621 216.881C46.0954 216.711 45.7887 216.486 45.5419 216.204C45.3021 215.915 45.1188 215.594 44.9918 215.241C44.872 214.889 44.812 214.529 44.812 214.162V213.961C44.812 213.581 44.872 213.214 44.9918 212.861C45.1188 212.502 45.3021 212.184 45.5419 211.909C45.7887 211.627 46.0919 211.405 46.4515 211.243C46.8111 211.074 47.2272 210.989 47.6996 210.989C48.3201 210.989 48.8384 211.127 49.2545 211.402C49.6775 211.67 49.9949 212.026 50.2064 212.47C50.418 212.907 50.5237 213.38 50.5237 213.887V214.416H45.4361V213.517H49.6035L49.1487 213.961C49.1487 213.595 49.0958 213.281 48.99 213.02C48.8843 212.759 48.7221 212.558 48.5035 212.417C48.2919 212.276 48.024 212.206 47.6996 212.206C47.3752 212.206 47.1002 212.28 46.8746 212.428C46.6489 212.576 46.4762 212.791 46.3563 213.073C46.2435 213.348 46.1871 213.679 46.1871 214.067C46.1871 214.427 46.2435 214.748 46.3563 215.03C46.4691 215.305 46.6419 215.523 46.8746 215.685C47.1073 215.841 47.4034 215.918 47.7631 215.918C48.1227 215.918 48.4153 215.848 48.641 215.707C48.8666 215.559 49.0112 215.379 49.0746 215.167H50.4285C50.3439 215.562 50.1817 215.908 49.942 216.204C49.7022 216.5 49.3955 216.729 49.0218 216.891C48.6551 217.053 48.2355 217.135 47.7631 217.135ZM53.9943 219.197C53.7193 219.197 53.4372 219.187 53.1481 219.165C52.8661 219.144 52.6016 219.116 52.3548 219.081V217.854C52.6087 217.882 52.8802 217.907 53.1693 217.928C53.4584 217.956 53.7299 217.97 53.9837 217.97C54.4562 217.97 54.8369 217.914 55.1261 217.801C55.4222 217.688 55.6373 217.508 55.7713 217.261C55.9123 217.022 55.9828 216.715 55.9828 216.341V215.21L56.3001 214.49C56.279 215.019 56.1697 215.47 55.9722 215.844C55.7748 216.211 55.5068 216.493 55.1684 216.69C54.8299 216.881 54.4385 216.976 53.9943 216.976C53.5994 216.976 53.2398 216.902 52.9154 216.754C52.5981 216.606 52.3231 216.401 52.0904 216.14C51.8647 215.879 51.6885 215.573 51.5615 215.22C51.4346 214.868 51.3711 214.49 51.3711 214.088V213.866C51.3711 213.464 51.4346 213.091 51.5615 212.745C51.6955 212.392 51.8824 212.086 52.1221 211.825C52.3619 211.564 52.6475 211.363 52.9789 211.222C53.3103 211.081 53.677 211.01 54.0789 211.01C54.5514 211.01 54.9603 211.113 55.3059 211.317C55.6584 211.522 55.9334 211.818 56.1309 212.206C56.3283 212.593 56.4376 213.069 56.4588 213.634L56.2049 213.676V211.19H57.3684V216.257C57.3684 216.955 57.2485 217.519 57.0088 217.949C56.769 218.379 56.3988 218.693 55.8982 218.89C55.4046 219.095 54.77 219.197 53.9943 219.197ZM54.4174 215.717C54.6994 215.717 54.9568 215.654 55.1895 215.527C55.4222 215.4 55.6091 215.217 55.7501 214.977C55.8911 214.737 55.9617 214.448 55.9617 214.109V213.739C55.9617 213.415 55.8876 213.14 55.7395 212.914C55.5985 212.689 55.4116 212.519 55.1789 212.407C54.9462 212.287 54.6924 212.227 54.4174 212.227C54.1071 212.227 53.8321 212.301 53.5924 212.449C53.3597 212.59 53.1763 212.791 53.0423 213.052C52.9084 213.313 52.8414 213.623 52.8414 213.983C52.8414 214.335 52.9084 214.642 53.0423 214.903C53.1763 215.164 53.3597 215.365 53.5924 215.506C53.8321 215.647 54.1071 215.717 54.4174 215.717ZM58.8029 219.197V217.938H59.8818C60.0862 217.938 60.2555 217.91 60.3895 217.854C60.5305 217.804 60.6468 217.72 60.7385 217.6C60.8302 217.487 60.9007 217.328 60.9501 217.124L62.4943 211.19H63.9011L62.1982 217.441C62.0853 217.871 61.9267 218.213 61.7222 218.467C61.5177 218.728 61.2533 218.915 60.9289 219.028C60.6116 219.141 60.2167 219.197 59.7443 219.197H58.8029ZM60.5904 216.807V215.643H61.8174V216.807H60.5904ZM60.0933 216.807L58.2317 211.19H59.7125L61.4789 216.807H60.0933ZM68.5799 216.934L66.6125 209.212H68.1674L69.7645 215.929L69.352 215.685H70.4097L69.9443 215.929L71.203 209.508H72.4934L70.928 216.934H68.5799ZM73.1915 216.934L71.4886 209.508H72.8319L74.281 215.929L73.8262 215.685H74.8627L74.4608 215.929L75.8676 209.212H77.3378L75.582 216.934H73.1915ZM78.5733 216.934V211.19H80.0435V216.934H78.5733ZM77.7694 212.29V211.19H80.0435V212.29H77.7694ZM79.1127 210.503C78.8236 210.503 78.6085 210.429 78.4675 210.281C78.3335 210.125 78.2665 209.935 78.2665 209.709C78.2665 209.47 78.3335 209.276 78.4675 209.128C78.6085 208.98 78.8236 208.905 79.1127 208.905C79.4018 208.905 79.6134 208.98 79.7473 209.128C79.8813 209.276 79.9483 209.47 79.9483 209.709C79.9483 209.935 79.8813 210.125 79.7473 210.281C79.6134 210.429 79.4018 210.503 79.1127 210.503ZM84.2341 217.008C83.7053 217.008 83.2681 216.941 82.9226 216.807C82.5841 216.666 82.3302 216.433 82.161 216.109C81.9918 215.777 81.9072 215.333 81.9072 214.776L81.9177 209.572H83.2928L83.2822 214.871C83.2822 215.153 83.3562 215.372 83.5043 215.527C83.6594 215.675 83.878 215.749 84.1601 215.749H85.0592V217.008H84.2341ZM80.9975 212.269V211.19H85.0592V212.269H80.9975ZM86.2932 216.934V209.212H87.7634V213.718H87.5095C87.5095 213.14 87.5836 212.65 87.7317 212.248C87.8797 211.846 88.0983 211.539 88.3874 211.328C88.6836 211.116 89.0573 211.01 89.5086 211.01H89.5721C90.2279 211.01 90.725 211.236 91.0635 211.687C91.4019 212.139 91.5712 212.794 91.5712 213.655V216.934H90.1009V213.517C90.1009 213.15 89.9952 212.861 89.7836 212.65C89.5791 212.438 89.3077 212.333 88.9692 212.333C88.6096 212.333 88.3169 212.452 88.0913 212.692C87.8727 212.925 87.7634 213.232 87.7634 213.612V216.934H86.2932ZM54.4351 228.934V221.159H55.9371V228.934H54.4351ZM59.1525 228.934L56.7832 225.57H58.465L60.9084 228.934H59.1525ZM55.4928 226.353V225.136H57.4602C57.7352 225.136 57.9714 225.08 58.1689 224.967C58.3734 224.854 58.532 224.696 58.6448 224.491C58.7577 224.287 58.8141 224.054 58.8141 223.793C58.8141 223.525 58.7577 223.289 58.6448 223.084C58.532 222.88 58.3734 222.721 58.1689 222.608C57.9714 222.496 57.7352 222.439 57.4602 222.439H55.4928V221.159H57.3015C57.9221 221.159 58.458 221.251 58.9093 221.434C59.3676 221.618 59.7202 221.896 59.967 222.27C60.2138 222.644 60.3372 223.113 60.3372 223.677V223.846C60.3372 224.417 60.2103 224.886 59.9564 225.253C59.7096 225.619 59.3606 225.894 58.9093 226.078C58.458 226.261 57.9221 226.353 57.3015 226.353H55.4928ZM64.3984 229.135C63.9048 229.135 63.4712 229.05 63.0974 228.881C62.7308 228.711 62.424 228.486 62.1772 228.204C61.9375 227.915 61.7541 227.594 61.6272 227.241C61.5073 226.889 61.4474 226.529 61.4474 226.162V225.961C61.4474 225.581 61.5073 225.214 61.6272 224.861C61.7541 224.502 61.9375 224.184 62.1772 223.909C62.424 223.627 62.7272 223.405 63.0869 223.243C63.4465 223.074 63.8625 222.989 64.335 222.989C64.9555 222.989 65.4738 223.127 65.8898 223.402C66.3129 223.67 66.6302 224.026 66.8418 224.47C67.0533 224.907 67.1591 225.38 67.1591 225.887V226.416H62.0714V225.517H66.2389L65.784 225.961C65.784 225.595 65.7312 225.281 65.6254 225.02C65.5196 224.759 65.3574 224.558 65.1388 224.417C64.9273 224.276 64.6593 224.206 64.335 224.206C64.0106 224.206 63.7356 224.28 63.5099 224.428C63.2843 224.576 63.1115 224.791 62.9917 225.073C62.8788 225.348 62.8224 225.679 62.8224 226.067C62.8224 226.427 62.8788 226.748 62.9917 227.03C63.1045 227.305 63.2772 227.523 63.5099 227.685C63.7426 227.841 64.0388 227.918 64.3984 227.918C64.7581 227.918 65.0507 227.848 65.2763 227.707C65.502 227.559 65.6465 227.379 65.71 227.167H67.0639C66.9793 227.562 66.8171 227.908 66.5773 228.204C66.3376 228.5 66.0309 228.729 65.6571 228.891C65.2904 229.053 64.8709 229.135 64.3984 229.135ZM72.6393 231.049V227.231L73.073 226.554C73.0518 227.104 72.939 227.573 72.7345 227.96C72.53 228.341 72.255 228.63 71.9095 228.828C71.564 229.025 71.1656 229.124 70.7143 229.124C70.3053 229.124 69.9351 229.05 69.6037 228.902C69.2722 228.747 68.9867 228.535 68.7469 228.267C68.5142 227.992 68.3309 227.678 68.1969 227.326C68.07 226.966 68.0065 226.578 68.0065 226.162V225.94C68.0065 225.531 68.0735 225.15 68.2075 224.798C68.3414 224.438 68.5283 224.128 68.7681 223.867C69.0149 223.599 69.304 223.391 69.6354 223.243C69.9739 223.088 70.3511 223.01 70.7672 223.01C71.2467 223.01 71.6627 223.113 72.0153 223.317C72.3678 223.522 72.6428 223.821 72.8403 224.216C73.0448 224.604 73.1576 225.08 73.1788 225.644H72.9461V223.19H74.1096V231.049H72.6393ZM71.095 227.865C71.3842 227.865 71.6486 227.802 71.8883 227.675C72.1281 227.541 72.3185 227.351 72.4595 227.104C72.6076 226.85 72.6816 226.554 72.6816 226.215V225.792C72.6816 225.454 72.6076 225.172 72.4595 224.946C72.3114 224.713 72.1175 224.537 71.8778 224.417C71.638 224.29 71.3771 224.227 71.095 224.227C70.7777 224.227 70.4957 224.304 70.2489 224.459C70.0091 224.608 69.8187 224.823 69.6777 225.105C69.5437 225.38 69.4767 225.697 69.4767 226.057C69.4767 226.416 69.5473 226.734 69.6883 227.009C69.8293 227.276 70.0197 227.488 70.2594 227.643C70.5063 227.791 70.7848 227.865 71.095 227.865ZM77.7399 229.113C77.077 229.113 76.5623 228.895 76.1956 228.458C75.836 228.02 75.6561 227.372 75.6561 226.511V223.18H77.1264V226.638C77.1264 226.991 77.2251 227.273 77.4225 227.485C77.62 227.689 77.8879 227.791 78.2264 227.791C78.5649 227.791 78.8399 227.682 79.0514 227.463C79.27 227.245 79.3793 226.949 79.3793 226.575V223.18H80.8496V228.934H79.6861V226.49H79.8024C79.8024 227.068 79.7284 227.552 79.5803 227.939C79.4322 228.327 79.2101 228.62 78.9139 228.817C78.6178 229.015 78.2476 229.113 77.8033 229.113H77.7399ZM82.8135 228.934V223.19H84.2837V228.934H82.8135ZM82.0096 224.29V223.19H84.2837V224.29H82.0096ZM83.3529 222.503C83.0638 222.503 82.8487 222.429 82.7077 222.281C82.5737 222.125 82.5067 221.935 82.5067 221.709C82.5067 221.47 82.5737 221.276 82.7077 221.128C82.8487 220.98 83.0638 220.905 83.3529 220.905C83.642 220.905 83.8536 220.98 83.9875 221.128C84.1215 221.276 84.1885 221.47 84.1885 221.709C84.1885 221.935 84.1215 222.125 83.9875 222.281C83.8536 222.429 83.642 222.503 83.3529 222.503ZM85.9781 228.934V223.19H87.1416V225.623H87.1099C87.1099 224.798 87.2862 224.174 87.6387 223.751C87.9913 223.328 88.5096 223.116 89.1936 223.116H89.4051V224.396H89.0032C88.5096 224.396 88.1253 224.53 87.8503 224.798C87.5823 225.059 87.4483 225.44 87.4483 225.94V228.934H85.9781ZM92.9177 229.135C92.4241 229.135 91.9904 229.05 91.6167 228.881C91.25 228.711 90.9433 228.486 90.6965 228.204C90.4567 227.915 90.2734 227.594 90.1464 227.241C90.0266 226.889 89.9666 226.529 89.9666 226.162V225.961C89.9666 225.581 90.0266 225.214 90.1464 224.861C90.2734 224.502 90.4567 224.184 90.6965 223.909C90.9433 223.627 91.2465 223.405 91.6061 223.243C91.9657 223.074 92.3818 222.989 92.8542 222.989C93.4747 222.989 93.993 223.127 94.4091 223.402C94.8322 223.67 95.1495 224.026 95.361 224.47C95.5726 224.907 95.6783 225.38 95.6783 225.887V226.416H90.5907V225.517H94.7581L94.3033 225.961C94.3033 225.595 94.2504 225.281 94.1446 225.02C94.0389 224.759 93.8767 224.558 93.6581 224.417C93.4465 224.276 93.1786 224.206 92.8542 224.206C92.5298 224.206 92.2548 224.28 92.0292 224.428C91.8035 224.576 91.6308 224.791 91.5109 225.073C91.3981 225.348 91.3417 225.679 91.3417 226.067C91.3417 226.427 91.3981 226.748 91.5109 227.03C91.6237 227.305 91.7965 227.523 92.0292 227.685C92.2619 227.841 92.558 227.918 92.9177 227.918C93.2773 227.918 93.5699 227.848 93.7956 227.707C94.0212 227.559 94.1658 227.379 94.2292 227.167H95.5831C95.4985 227.562 95.3363 227.908 95.0966 228.204C94.8568 228.5 94.5501 228.729 94.1764 228.891C93.8097 229.053 93.3901 229.135 92.9177 229.135ZM96.9065 228.934V223.19H98.07V225.655H97.9642C97.9642 225.076 98.0383 224.593 98.1864 224.206C98.3344 223.811 98.553 223.515 98.8422 223.317C99.1383 223.113 99.505 223.01 99.9422 223.01H100.006C100.45 223.01 100.817 223.113 101.106 223.317C101.402 223.515 101.62 223.811 101.761 224.206C101.91 224.593 101.984 225.076 101.984 225.655H101.613C101.613 225.076 101.687 224.593 101.836 224.206C101.991 223.811 102.213 223.515 102.502 223.317C102.798 223.113 103.165 223.01 103.602 223.01H103.665C104.11 223.01 104.48 223.113 104.776 223.317C105.072 223.515 105.294 223.811 105.442 224.206C105.597 224.593 105.675 225.076 105.675 225.655V228.934H104.205V225.517C104.205 225.158 104.113 224.872 103.93 224.66C103.746 224.442 103.486 224.333 103.147 224.333C102.809 224.333 102.537 224.445 102.333 224.671C102.128 224.89 102.026 225.186 102.026 225.559V228.934H100.556V225.517C100.556 225.158 100.464 224.872 100.281 224.66C100.097 224.442 99.8364 224.333 99.4979 224.333C99.1595 224.333 98.888 224.445 98.6835 224.671C98.479 224.89 98.3768 225.186 98.3768 225.559V228.934H96.9065ZM109.816 229.135C109.323 229.135 108.889 229.05 108.515 228.881C108.149 228.711 107.842 228.486 107.595 228.204C107.355 227.915 107.172 227.594 107.045 227.241C106.925 226.889 106.865 226.529 106.865 226.162V225.961C106.865 225.581 106.925 225.214 107.045 224.861C107.172 224.502 107.355 224.184 107.595 223.909C107.842 223.627 108.145 223.405 108.505 223.243C108.864 223.074 109.281 222.989 109.753 222.989C110.373 222.989 110.892 223.127 111.308 223.402C111.731 223.67 112.048 224.026 112.26 224.47C112.471 224.907 112.577 225.38 112.577 225.887V226.416H107.489V225.517H111.657L111.202 225.961C111.202 225.595 111.149 225.281 111.043 225.02C110.938 224.759 110.775 224.558 110.557 224.417C110.345 224.276 110.077 224.206 109.753 224.206C109.429 224.206 109.154 224.28 108.928 224.428C108.702 224.576 108.53 224.791 108.41 225.073C108.297 225.348 108.24 225.679 108.24 226.067C108.24 226.427 108.297 226.748 108.41 227.03C108.522 227.305 108.695 227.523 108.928 227.685C109.161 227.841 109.457 227.918 109.816 227.918C110.176 227.918 110.469 227.848 110.694 227.707C110.92 227.559 111.065 227.379 111.128 227.167H112.482C112.397 227.562 112.235 227.908 111.995 228.204C111.756 228.5 111.449 228.729 111.075 228.891C110.708 229.053 110.289 229.135 109.816 229.135ZM113.805 228.934V223.19H114.969V225.655H114.863C114.863 225.069 114.941 224.583 115.096 224.195C115.251 223.8 115.48 223.504 115.783 223.307C116.093 223.109 116.478 223.01 116.936 223.01H117C117.684 223.01 118.202 223.232 118.554 223.677C118.907 224.114 119.083 224.77 119.083 225.644V228.934H117.613V225.517C117.613 225.165 117.511 224.879 117.306 224.66C117.109 224.442 116.834 224.333 116.481 224.333C116.122 224.333 115.829 224.445 115.603 224.671C115.385 224.89 115.276 225.186 115.276 225.559V228.934H113.805ZM123.16 229.008C122.631 229.008 122.194 228.941 121.849 228.807C121.51 228.666 121.256 228.433 121.087 228.109C120.918 227.777 120.833 227.333 120.833 226.776L120.844 221.572H122.219L122.208 226.871C122.208 227.153 122.282 227.372 122.43 227.527C122.585 227.675 122.804 227.749 123.086 227.749H123.985V229.008H123.16ZM119.924 224.269V223.19H123.985V224.269H119.924Z" fill="#041C33"/>
<path d="M95.5509 216.934V209.212H97.0529V216.934H95.5509ZM96.8414 216.934V215.611H100.173V216.934H96.8414ZM103.789 217.135C103.296 217.135 102.862 217.05 102.488 216.881C102.122 216.711 101.815 216.486 101.568 216.204C101.328 215.915 101.145 215.594 101.018 215.241C100.898 214.889 100.838 214.529 100.838 214.162V213.961C100.838 213.581 100.898 213.214 101.018 212.861C101.145 212.502 101.328 212.184 101.568 211.909C101.815 211.627 102.118 211.405 102.478 211.243C102.837 211.074 103.253 210.989 103.726 210.989C104.346 210.989 104.865 211.127 105.281 211.402C105.704 211.67 106.021 212.026 106.233 212.47C106.444 212.907 106.55 213.38 106.55 213.887V214.416H101.462V213.517H105.63L105.175 213.961C105.175 213.595 105.122 213.281 105.016 213.02C104.91 212.759 104.748 212.558 104.53 212.417C104.318 212.276 104.05 212.206 103.726 212.206C103.401 212.206 103.126 212.28 102.901 212.428C102.675 212.576 102.502 212.791 102.383 213.073C102.27 213.348 102.213 213.679 102.213 214.067C102.213 214.427 102.27 214.748 102.383 215.03C102.495 215.305 102.668 215.523 102.901 215.685C103.133 215.841 103.43 215.918 103.789 215.918C104.149 215.918 104.442 215.848 104.667 215.707C104.893 215.559 105.037 215.379 105.101 215.167H106.455C106.37 215.562 106.208 215.908 105.968 216.204C105.728 216.5 105.422 216.729 105.048 216.891C104.681 217.053 104.262 217.135 103.789 217.135ZM109.862 217.113C109.072 217.113 108.452 216.948 108 216.616C107.556 216.278 107.323 215.812 107.302 215.22H108.624C108.645 215.418 108.755 215.597 108.952 215.76C109.15 215.922 109.46 216.003 109.883 216.003C110.236 216.003 110.514 215.939 110.719 215.812C110.93 215.685 111.036 215.513 111.036 215.294C111.036 215.104 110.955 214.952 110.793 214.839C110.637 214.726 110.37 214.652 109.989 214.617L109.481 214.564C108.839 214.494 108.346 214.31 108 214.014C107.655 213.718 107.482 213.323 107.482 212.83C107.482 212.435 107.581 212.103 107.778 211.835C107.976 211.567 108.247 211.366 108.593 211.232C108.945 211.091 109.347 211.021 109.798 211.021C110.504 211.021 111.075 211.176 111.512 211.486C111.949 211.797 112.178 212.251 112.199 212.851H110.877C110.863 212.653 110.764 212.484 110.581 212.343C110.398 212.202 110.133 212.132 109.788 212.132C109.478 212.132 109.238 212.191 109.069 212.311C108.899 212.431 108.815 212.586 108.815 212.777C108.815 212.96 108.882 213.101 109.016 213.2C109.157 213.299 109.382 213.366 109.693 213.401L110.2 213.454C110.877 213.524 111.406 213.711 111.787 214.014C112.175 214.317 112.369 214.726 112.369 215.241C112.369 215.622 112.263 215.953 112.051 216.235C111.847 216.511 111.558 216.726 111.184 216.881C110.81 217.036 110.37 217.113 109.862 217.113ZM115.667 217.113C114.877 217.113 114.257 216.948 113.805 216.616C113.361 216.278 113.128 215.812 113.107 215.22H114.429C114.451 215.418 114.56 215.597 114.757 215.76C114.955 215.922 115.265 216.003 115.688 216.003C116.041 216.003 116.319 215.939 116.524 215.812C116.735 215.685 116.841 215.513 116.841 215.294C116.841 215.104 116.76 214.952 116.598 214.839C116.443 214.726 116.175 214.652 115.794 214.617L115.286 214.564C114.644 214.494 114.151 214.31 113.805 214.014C113.46 213.718 113.287 213.323 113.287 212.83C113.287 212.435 113.386 212.103 113.583 211.835C113.781 211.567 114.052 211.366 114.398 211.232C114.75 211.091 115.152 211.021 115.603 211.021C116.309 211.021 116.88 211.176 117.317 211.486C117.754 211.797 117.983 212.251 118.004 212.851H116.682C116.668 212.653 116.569 212.484 116.386 212.343C116.203 212.202 115.938 212.132 115.593 212.132C115.283 212.132 115.043 212.191 114.874 212.311C114.704 212.431 114.62 212.586 114.62 212.777C114.62 212.96 114.687 213.101 114.821 213.2C114.962 213.299 115.187 213.366 115.498 213.401L116.005 213.454C116.682 213.524 117.211 213.711 117.592 214.014C117.98 214.317 118.174 214.726 118.174 215.241C118.174 215.622 118.068 215.953 117.856 216.235C117.652 216.511 117.363 216.726 116.989 216.881C116.615 217.036 116.175 217.113 115.667 217.113ZM16.1536 229.135C15.4555 229.135 14.8561 229.011 14.3555 228.764C13.8548 228.518 13.4458 228.197 13.1285 227.802C12.8182 227.407 12.5891 226.977 12.441 226.511C12.2929 226.046 12.2189 225.598 12.2189 225.168V224.935C12.2189 224.456 12.2929 223.983 12.441 223.518C12.5961 223.053 12.8323 222.63 13.1497 222.249C13.467 221.868 13.8689 221.565 14.3555 221.339C14.8491 221.106 15.4308 220.99 16.1007 220.99C16.7988 220.99 17.4052 221.117 17.92 221.371C18.4418 221.618 18.8578 221.97 19.1681 222.429C19.4784 222.88 19.6652 223.409 19.7287 224.015H18.2161C18.1597 223.663 18.0328 223.366 17.8354 223.127C17.645 222.88 17.4017 222.697 17.1055 222.577C16.8094 222.45 16.4744 222.386 16.1007 222.386C15.7199 222.386 15.3815 222.453 15.0853 222.587C14.7891 222.714 14.5423 222.898 14.3449 223.137C14.1474 223.377 13.9958 223.659 13.8901 223.983C13.7913 224.308 13.742 224.667 13.742 225.062C13.742 225.443 13.7913 225.796 13.8901 226.12C13.9958 226.444 14.151 226.73 14.3555 226.977C14.56 227.217 14.8103 227.403 15.1064 227.537C15.4097 227.671 15.7587 227.738 16.1536 227.738C16.7318 227.738 17.2184 227.597 17.6132 227.315C18.0152 227.026 18.2585 226.624 18.3431 226.109H19.8556C19.7851 226.659 19.5982 227.164 19.295 227.622C18.9918 228.08 18.5758 228.447 18.0469 228.722C17.5181 228.997 16.8869 229.135 16.1536 229.135ZM24.4866 228.934V227.231H24.2433V225.337C24.2433 225.006 24.1623 224.759 24.0001 224.597C23.8379 224.435 23.5876 224.354 23.2491 224.354C23.0728 224.354 22.8613 224.357 22.6145 224.364C22.3677 224.371 22.1173 224.382 21.8635 224.396C21.6167 224.403 21.3945 224.414 21.1971 224.428V223.18C21.3593 223.165 21.5426 223.151 21.7471 223.137C21.9516 223.123 22.1596 223.116 22.3712 223.116C22.5898 223.109 22.7943 223.106 22.9847 223.106C23.577 223.106 24.0671 223.183 24.4549 223.338C24.8498 223.493 25.1459 223.737 25.3434 224.068C25.5479 224.399 25.6501 224.833 25.6501 225.369V228.934H24.4866ZM22.6356 229.082C22.2196 229.082 21.8529 229.008 21.5356 228.86C21.2253 228.711 20.982 228.5 20.8057 228.225C20.6365 227.95 20.5519 227.618 20.5519 227.231C20.5519 226.808 20.6541 226.462 20.8586 226.194C21.0702 225.926 21.3628 225.725 21.7365 225.591C22.1173 225.457 22.5616 225.39 23.0693 225.39H24.402V226.268H23.0481C22.7096 226.268 22.4487 226.353 22.2654 226.522C22.0891 226.684 22.001 226.896 22.001 227.157C22.001 227.418 22.0891 227.629 22.2654 227.791C22.4487 227.953 22.7096 228.035 23.0481 228.035C23.2526 228.035 23.4395 227.999 23.6087 227.929C23.785 227.851 23.9296 227.724 24.0424 227.548C24.1623 227.365 24.2292 227.118 24.2433 226.808L24.603 227.22C24.5677 227.622 24.469 227.96 24.3068 228.235C24.1517 228.511 23.9331 228.722 23.651 228.87C23.376 229.011 23.0375 229.082 22.6356 229.082ZM27.225 231.049V223.19H28.3885V225.665L28.2086 225.655C28.2368 225.069 28.3567 224.579 28.5683 224.184C28.7869 223.79 29.076 223.497 29.4356 223.307C29.7952 223.109 30.1972 223.01 30.6414 223.01C31.0504 223.01 31.4171 223.084 31.7414 223.232C32.0729 223.381 32.3549 223.589 32.5876 223.857C32.8274 224.124 33.0107 224.438 33.1376 224.798C33.2646 225.15 33.328 225.531 33.328 225.94V226.162C33.328 226.578 33.2646 226.966 33.1376 227.326C33.0178 227.678 32.8379 227.992 32.5982 228.267C32.3655 228.535 32.0834 228.747 31.752 228.902C31.4206 229.05 31.0504 229.124 30.6414 229.124C30.2113 229.124 29.8164 229.036 29.4568 228.86C29.1042 228.676 28.8186 228.398 28.6 228.024C28.3814 227.643 28.258 227.153 28.2298 226.554L28.6952 227.262V231.049H27.225ZM30.2712 227.886C30.5885 227.886 30.8635 227.809 31.0962 227.654C31.336 227.499 31.5228 227.284 31.6568 227.009C31.7908 226.726 31.8578 226.409 31.8578 226.057C31.8578 225.69 31.7908 225.373 31.6568 225.105C31.5228 224.837 31.336 224.629 31.0962 224.481C30.8635 224.325 30.5885 224.248 30.2712 224.248C29.9821 224.248 29.7141 224.311 29.4673 224.438C29.2276 224.565 29.0301 224.752 28.875 224.999C28.7269 225.246 28.6529 225.542 28.6529 225.887V226.31C28.6529 226.642 28.7305 226.924 28.8856 227.157C29.0407 227.389 29.2417 227.569 29.4885 227.696C29.7353 227.823 29.9962 227.886 30.2712 227.886ZM34.8958 228.934V223.19H36.366V228.934H34.8958ZM34.0919 224.29V223.19H36.366V224.29H34.0919ZM35.4352 222.503C35.1461 222.503 34.931 222.429 34.79 222.281C34.656 222.125 34.589 221.935 34.589 221.709C34.589 221.47 34.656 221.276 34.79 221.128C34.931 220.98 35.1461 220.905 35.4352 220.905C35.7243 220.905 35.9359 220.98 36.0698 221.128C36.2038 221.276 36.2708 221.47 36.2708 221.709C36.2708 221.935 36.2038 222.125 36.0698 222.281C35.9359 222.429 35.7243 222.503 35.4352 222.503ZM40.5566 229.008C40.0278 229.008 39.5906 228.941 39.2451 228.807C38.9066 228.666 38.6527 228.433 38.4835 228.109C38.3143 227.777 38.2296 227.333 38.2296 226.776L38.2402 221.572H39.6153L39.6047 226.871C39.6047 227.153 39.6787 227.372 39.8268 227.527C39.9819 227.675 40.2005 227.749 40.4826 227.749H41.3817V229.008H40.5566ZM37.32 224.269V223.19H41.3817V224.269H37.32ZM46.0749 228.934V227.231H45.8316V225.337C45.8316 225.006 45.7505 224.759 45.5883 224.597C45.4262 224.435 45.1758 224.354 44.8374 224.354C44.6611 224.354 44.4495 224.357 44.2027 224.364C43.9559 224.371 43.7056 224.382 43.4517 224.396C43.2049 224.403 42.9828 224.414 42.7854 224.428V223.18C42.9476 223.165 43.1309 223.151 43.3354 223.137C43.5399 223.123 43.7479 223.116 43.9594 223.116C44.178 223.109 44.3825 223.106 44.5729 223.106C45.1652 223.106 45.6553 223.183 46.0432 223.338C46.438 223.493 46.7342 223.737 46.9316 224.068C47.1361 224.399 47.2384 224.833 47.2384 225.369V228.934H46.0749ZM44.2239 229.082C43.8078 229.082 43.4412 229.008 43.1238 228.86C42.8136 228.711 42.5703 228.5 42.394 228.225C42.2248 227.95 42.1402 227.618 42.1402 227.231C42.1402 226.808 42.2424 226.462 42.4469 226.194C42.6584 225.926 42.9511 225.725 43.3248 225.591C43.7056 225.457 44.1498 225.39 44.6575 225.39H45.9903V226.268H44.6364C44.2979 226.268 44.037 226.353 43.8537 226.522C43.6774 226.684 43.5892 226.896 43.5892 227.157C43.5892 227.418 43.6774 227.629 43.8537 227.791C44.037 227.953 44.2979 228.035 44.6364 228.035C44.8409 228.035 45.0277 227.999 45.197 227.929C45.3733 227.851 45.5178 227.724 45.6306 227.548C45.7505 227.365 45.8175 227.118 45.8316 226.808L46.1912 227.22C46.156 227.622 46.0573 227.96 45.8951 228.235C45.7399 228.511 45.5213 228.722 45.2393 228.87C44.9643 229.011 44.6258 229.082 44.2239 229.082ZM48.8873 228.934V221.212H50.3575V228.934H48.8873ZM48.168 222.312V221.212H50.3575V222.312H48.168Z" fill="#FF7700"/>
<rect x="176.895" y="176" width="134.105" height="62.7774" rx="8.2126" stroke="#FF7700" stroke-width="0.684384" stroke-linecap="round" stroke-dasharray="2.74 2.74"/>
<path d="M249.722 191.864L244.022 200.191C243.735 200.604 243.059 200.419 243.059 199.92L243.051 195.158C243.051 194.609 242.586 194.17 242.012 194.161L238.609 194.119C238.195 194.111 237.95 193.68 238.178 193.351L243.878 185.024C244.165 184.611 244.841 184.796 244.841 185.295L244.849 190.057C244.849 190.606 245.314 191.045 245.888 191.054L249.291 191.096C249.696 191.096 249.941 191.535 249.722 191.864Z" stroke="black" stroke-width="1.22045" stroke-linecap="round" stroke-linejoin="round"/>
<path d="M199.786 217.135C199.102 217.135 198.524 217.025 198.051 216.807C197.586 216.588 197.23 216.288 196.983 215.908C196.736 215.52 196.613 215.083 196.613 214.596H198.083C198.083 214.801 198.139 215.001 198.252 215.199C198.365 215.389 198.545 215.544 198.792 215.664C199.045 215.784 199.377 215.844 199.786 215.844C200.153 215.844 200.459 215.791 200.706 215.685C200.953 215.58 201.136 215.442 201.256 215.273C201.376 215.097 201.436 214.899 201.436 214.681C201.436 214.406 201.32 214.187 201.087 214.025C200.854 213.856 200.495 213.75 200.008 213.708L199.331 213.655C198.591 213.591 197.998 213.362 197.554 212.967C197.117 212.565 196.898 212.036 196.898 211.381C196.898 210.887 197.015 210.464 197.247 210.111C197.48 209.752 197.804 209.477 198.22 209.286C198.644 209.089 199.137 208.99 199.701 208.99C200.287 208.99 200.791 209.092 201.214 209.297C201.637 209.501 201.965 209.79 202.197 210.164C202.43 210.531 202.547 210.965 202.547 211.465H201.076C201.076 211.254 201.023 211.06 200.918 210.883C200.819 210.7 200.667 210.556 200.463 210.45C200.265 210.337 200.011 210.281 199.701 210.281C199.405 210.281 199.158 210.33 198.961 210.429C198.763 210.527 198.615 210.661 198.517 210.831C198.418 211 198.369 211.183 198.369 211.381C198.369 211.62 198.457 211.832 198.633 212.015C198.809 212.191 199.088 212.294 199.469 212.322L200.145 212.385C200.695 212.428 201.179 212.544 201.595 212.734C202.011 212.925 202.331 213.182 202.557 213.507C202.79 213.831 202.906 214.222 202.906 214.681C202.906 215.167 202.779 215.597 202.525 215.971C202.271 216.338 201.908 216.623 201.436 216.828C200.97 217.032 200.42 217.135 199.786 217.135ZM206.659 217.008C206.13 217.008 205.693 216.941 205.348 216.807C205.009 216.666 204.755 216.433 204.586 216.109C204.417 215.777 204.332 215.333 204.332 214.776L204.343 209.572H205.718L205.707 214.871C205.707 215.153 205.781 215.372 205.929 215.527C206.085 215.675 206.303 215.749 206.585 215.749H207.484V217.008H206.659ZM203.423 212.269V211.19H207.484V212.269H203.423ZM211.258 217.135C210.764 217.135 210.33 217.05 209.957 216.881C209.59 216.711 209.283 216.486 209.036 216.204C208.797 215.915 208.613 215.594 208.486 215.241C208.366 214.889 208.306 214.529 208.306 214.162V213.961C208.306 213.581 208.366 213.214 208.486 212.861C208.613 212.502 208.797 212.184 209.036 211.909C209.283 211.627 209.586 211.405 209.946 211.243C210.306 211.074 210.722 210.989 211.194 210.989C211.815 210.989 212.333 211.127 212.749 211.402C213.172 211.67 213.489 212.026 213.701 212.47C213.912 212.907 214.018 213.38 214.018 213.887V214.416H208.931V213.517H213.098L212.643 213.961C212.643 213.595 212.59 213.281 212.484 213.02C212.379 212.759 212.217 212.558 211.998 212.417C211.786 212.276 211.518 212.206 211.194 212.206C210.87 212.206 210.595 212.28 210.369 212.428C210.143 212.576 209.971 212.791 209.851 213.073C209.738 213.348 209.681 213.679 209.681 214.067C209.681 214.427 209.738 214.748 209.851 215.03C209.964 215.305 210.136 215.523 210.369 215.685C210.602 215.841 210.898 215.918 211.258 215.918C211.617 215.918 211.91 215.848 212.135 215.707C212.361 215.559 212.506 215.379 212.569 215.167H213.923C213.838 215.562 213.676 215.908 213.436 216.204C213.197 216.5 212.89 216.729 212.516 216.891C212.15 217.053 211.73 217.135 211.258 217.135ZM215.246 219.049V211.19H216.41V213.665L216.23 213.655C216.258 213.069 216.378 212.579 216.59 212.184C216.808 211.79 217.097 211.497 217.457 211.307C217.817 211.109 218.219 211.01 218.663 211.01C219.072 211.01 219.438 211.084 219.763 211.232C220.094 211.381 220.376 211.589 220.609 211.857C220.849 212.124 221.032 212.438 221.159 212.798C221.286 213.15 221.349 213.531 221.349 213.94V214.162C221.349 214.578 221.286 214.966 221.159 215.326C221.039 215.678 220.859 215.992 220.62 216.267C220.387 216.535 220.105 216.747 219.773 216.902C219.442 217.05 219.072 217.124 218.663 217.124C218.233 217.124 217.838 217.036 217.478 216.86C217.126 216.676 216.84 216.398 216.621 216.024C216.403 215.643 216.279 215.153 216.251 214.554L216.717 215.262V219.049H215.246ZM218.293 215.886C218.61 215.886 218.885 215.809 219.118 215.654C219.357 215.499 219.544 215.284 219.678 215.009C219.812 214.726 219.879 214.409 219.879 214.057C219.879 213.69 219.812 213.373 219.678 213.105C219.544 212.837 219.357 212.629 219.118 212.481C218.885 212.325 218.61 212.248 218.293 212.248C218.003 212.248 217.736 212.311 217.489 212.438C217.249 212.565 217.052 212.752 216.896 212.999C216.748 213.246 216.674 213.542 216.674 213.887V214.31C216.674 214.642 216.752 214.924 216.907 215.157C217.062 215.389 217.263 215.569 217.51 215.696C217.757 215.823 218.018 215.886 218.293 215.886ZM226.3 216.986V215.781H228.236C228.588 215.781 228.856 215.685 229.039 215.495C229.223 215.298 229.314 215.03 229.314 214.691C229.314 214.353 229.223 214.092 229.039 213.909C228.856 213.718 228.588 213.623 228.236 213.623H226.3V212.703H228.13C228.645 212.703 229.103 212.766 229.505 212.893C229.914 213.013 230.231 213.217 230.457 213.507C230.69 213.796 230.806 214.184 230.806 214.67V214.818C230.806 215.276 230.704 215.668 230.499 215.992C230.302 216.31 230.002 216.556 229.6 216.733C229.205 216.902 228.715 216.986 228.13 216.986H226.3ZM225.041 216.986V209.159H226.512V216.986H225.041ZM226.3 213.38V212.459H227.95C228.31 212.459 228.574 212.364 228.743 212.174C228.913 211.983 228.997 211.73 228.997 211.412C228.997 211.095 228.913 210.841 228.743 210.651C228.574 210.46 228.31 210.365 227.95 210.365H226.3V209.159H227.813C228.687 209.159 229.35 209.343 229.801 209.709C230.259 210.076 230.489 210.601 230.489 211.285V211.433C230.489 211.913 230.372 212.297 230.139 212.586C229.914 212.868 229.6 213.073 229.198 213.2C228.796 213.32 228.334 213.38 227.813 213.38H226.3ZM232.038 219.197V217.938H233.117C233.321 217.938 233.49 217.91 233.624 217.854C233.765 217.804 233.882 217.72 233.973 217.6C234.065 217.487 234.136 217.328 234.185 217.124L235.729 211.19H237.136L235.433 217.441C235.32 217.871 235.162 218.213 234.957 218.467C234.753 218.728 234.488 218.915 234.164 219.028C233.847 219.141 233.452 219.197 232.979 219.197H232.038ZM233.825 216.807V215.643H235.052V216.807H233.825ZM233.328 216.807L231.467 211.19H232.947L234.714 216.807H233.328ZM243.179 217.135C242.495 217.135 241.917 217.025 241.445 216.807C240.979 216.588 240.623 216.288 240.376 215.908C240.13 215.52 240.006 215.083 240.006 214.596H241.476C241.476 214.801 241.533 215.001 241.646 215.199C241.758 215.389 241.938 215.544 242.185 215.664C242.439 215.784 242.77 215.844 243.179 215.844C243.546 215.844 243.853 215.791 244.1 215.685C244.346 215.58 244.53 215.442 244.65 215.273C244.769 215.097 244.829 214.899 244.829 214.681C244.829 214.406 244.713 214.187 244.48 214.025C244.248 213.856 243.888 213.75 243.401 213.708L242.724 213.655C241.984 213.591 241.392 213.362 240.948 212.967C240.51 212.565 240.292 212.036 240.292 211.381C240.292 210.887 240.408 210.464 240.641 210.111C240.873 209.752 241.198 209.477 241.614 209.286C242.037 209.089 242.531 208.99 243.095 208.99C243.68 208.99 244.184 209.092 244.607 209.297C245.03 209.501 245.358 209.79 245.591 210.164C245.824 210.531 245.94 210.965 245.94 211.465H244.47C244.47 211.254 244.417 211.06 244.311 210.883C244.212 210.7 244.061 210.556 243.856 210.45C243.659 210.337 243.405 210.281 243.095 210.281C242.799 210.281 242.552 210.33 242.354 210.429C242.157 210.527 242.009 210.661 241.91 210.831C241.811 211 241.762 211.183 241.762 211.381C241.762 211.62 241.85 211.832 242.026 212.015C242.203 212.191 242.481 212.294 242.862 212.322L243.539 212.385C244.089 212.428 244.572 212.544 244.988 212.734C245.404 212.925 245.725 213.182 245.951 213.507C246.183 213.831 246.3 214.222 246.3 214.681C246.3 215.167 246.173 215.597 245.919 215.971C245.665 216.338 245.302 216.623 244.829 216.828C244.364 217.032 243.814 217.135 243.179 217.135ZM250.053 217.008C249.524 217.008 249.087 216.941 248.741 216.807C248.403 216.666 248.149 216.433 247.98 216.109C247.81 215.777 247.726 215.333 247.726 214.776L247.736 209.572H249.111L249.101 214.871C249.101 215.153 249.175 215.372 249.323 215.527C249.478 215.675 249.697 215.749 249.979 215.749H250.878V217.008H250.053ZM246.816 212.269V211.19H250.878V212.269H246.816ZM254.651 217.135C254.157 217.135 253.724 217.05 253.35 216.881C252.983 216.711 252.677 216.486 252.43 216.204C252.19 215.915 252.007 215.594 251.88 215.241C251.76 214.889 251.7 214.529 251.7 214.162V213.961C251.7 213.581 251.76 213.214 251.88 212.861C252.007 212.502 252.19 212.184 252.43 211.909C252.677 211.627 252.98 211.405 253.339 211.243C253.699 211.074 254.115 210.989 254.587 210.989C255.208 210.989 255.726 211.127 256.142 211.402C256.565 211.67 256.883 212.026 257.094 212.47C257.306 212.907 257.412 213.38 257.412 213.887V214.416H252.324V213.517H256.491L256.037 213.961C256.037 213.595 255.984 213.281 255.878 213.02C255.772 212.759 255.61 212.558 255.391 212.417C255.18 212.276 254.912 212.206 254.587 212.206C254.263 212.206 253.988 212.28 253.762 212.428C253.537 212.576 253.364 212.791 253.244 213.073C253.131 213.348 253.075 213.679 253.075 214.067C253.075 214.427 253.131 214.748 253.244 215.03C253.357 215.305 253.53 215.523 253.762 215.685C253.995 215.841 254.291 215.918 254.651 215.918C255.011 215.918 255.303 215.848 255.529 215.707C255.755 215.559 255.899 215.379 255.963 215.167H257.316C257.232 215.562 257.07 215.908 256.83 216.204C256.59 216.5 256.283 216.729 255.91 216.891C255.543 217.053 255.123 217.135 254.651 217.135ZM258.64 219.049V211.19H259.803V213.665L259.623 213.655C259.652 213.069 259.772 212.579 259.983 212.184C260.202 211.79 260.491 211.497 260.85 211.307C261.21 211.109 261.612 211.01 262.056 211.01C262.465 211.01 262.832 211.084 263.156 211.232C263.488 211.381 263.77 211.589 264.002 211.857C264.242 212.124 264.426 212.438 264.552 212.798C264.679 213.15 264.743 213.531 264.743 213.94V214.162C264.743 214.578 264.679 214.966 264.552 215.326C264.433 215.678 264.253 215.992 264.013 216.267C263.78 216.535 263.498 216.747 263.167 216.902C262.835 217.05 262.465 217.124 262.056 217.124C261.626 217.124 261.231 217.036 260.872 216.86C260.519 216.676 260.233 216.398 260.015 216.024C259.796 215.643 259.673 215.153 259.645 214.554L260.11 215.262V219.049H258.64ZM261.686 215.886C262.003 215.886 262.278 215.809 262.511 215.654C262.751 215.499 262.938 215.284 263.072 215.009C263.206 214.726 263.273 214.409 263.273 214.057C263.273 213.69 263.206 213.373 263.072 213.105C262.938 212.837 262.751 212.629 262.511 212.481C262.278 212.325 262.003 212.248 261.686 212.248C261.397 212.248 261.129 212.311 260.882 212.438C260.642 212.565 260.445 212.752 260.29 212.999C260.142 213.246 260.068 213.542 260.068 213.887V214.31C260.068 214.642 260.145 214.924 260.3 215.157C260.456 215.389 260.657 215.569 260.903 215.696C261.15 215.823 261.411 215.886 261.686 215.886Z" fill="#041C33"/>
<path d="M268.435 216.934V209.212H269.905V216.934H268.435ZM269.693 216.934V215.664H273.194V216.934H269.693ZM269.693 213.644V212.375H272.919V213.644H269.693ZM269.693 210.481V209.212H273.11V210.481H269.693ZM278.099 216.934V215.231H277.856V213.337C277.856 213.006 277.775 212.759 277.613 212.597C277.45 212.435 277.2 212.354 276.862 212.354C276.685 212.354 276.474 212.357 276.227 212.364C275.98 212.371 275.73 212.382 275.476 212.396C275.229 212.403 275.007 212.414 274.81 212.428V211.18C274.972 211.165 275.155 211.151 275.36 211.137C275.564 211.123 275.772 211.116 275.984 211.116C276.202 211.109 276.407 211.106 276.597 211.106C277.19 211.106 277.68 211.183 278.067 211.338C278.462 211.493 278.758 211.737 278.956 212.068C279.16 212.399 279.263 212.833 279.263 213.369V216.934H278.099ZM276.248 217.082C275.832 217.082 275.465 217.008 275.148 216.86C274.838 216.711 274.595 216.5 274.418 216.225C274.249 215.95 274.164 215.618 274.164 215.231C274.164 214.808 274.267 214.462 274.471 214.194C274.683 213.926 274.975 213.725 275.349 213.591C275.73 213.457 276.174 213.39 276.682 213.39H278.015V214.268H276.661C276.322 214.268 276.061 214.353 275.878 214.522C275.702 214.684 275.614 214.896 275.614 215.157C275.614 215.418 275.702 215.629 275.878 215.791C276.061 215.953 276.322 216.035 276.661 216.035C276.865 216.035 277.052 215.999 277.221 215.929C277.398 215.851 277.542 215.724 277.655 215.548C277.775 215.365 277.842 215.118 277.856 214.808L278.216 215.22C278.18 215.622 278.082 215.96 277.919 216.235C277.764 216.511 277.546 216.722 277.264 216.87C276.989 217.011 276.65 217.082 276.248 217.082ZM282.921 217.113C282.131 217.113 281.511 216.948 281.06 216.616C280.615 216.278 280.383 215.812 280.362 215.22H281.684C281.705 215.418 281.814 215.597 282.012 215.76C282.209 215.922 282.519 216.003 282.942 216.003C283.295 216.003 283.573 215.939 283.778 215.812C283.99 215.685 284.095 215.513 284.095 215.294C284.095 215.104 284.014 214.952 283.852 214.839C283.697 214.726 283.429 214.652 283.048 214.617L282.54 214.564C281.899 214.494 281.405 214.31 281.06 214.014C280.714 213.718 280.541 213.323 280.541 212.83C280.541 212.435 280.64 212.103 280.837 211.835C281.035 211.567 281.306 211.366 281.652 211.232C282.005 211.091 282.406 211.021 282.858 211.021C283.563 211.021 284.134 211.176 284.571 211.486C285.008 211.797 285.238 212.251 285.259 212.851H283.937C283.923 212.653 283.824 212.484 283.64 212.343C283.457 212.202 283.193 212.132 282.847 212.132C282.537 212.132 282.297 212.191 282.128 212.311C281.959 212.431 281.874 212.586 281.874 212.777C281.874 212.96 281.941 213.101 282.075 213.2C282.216 213.299 282.442 213.366 282.752 213.401L283.26 213.454C283.937 213.524 284.465 213.711 284.846 214.014C285.234 214.317 285.428 214.726 285.428 215.241C285.428 215.622 285.322 215.953 285.111 216.235C284.906 216.511 284.617 216.726 284.243 216.881C283.87 217.036 283.429 217.113 282.921 217.113ZM286.422 219.197V217.938H287.501C287.705 217.938 287.874 217.91 288.008 217.854C288.149 217.804 288.266 217.72 288.357 217.6C288.449 217.487 288.52 217.328 288.569 217.124L290.113 211.19H291.52L289.817 217.441C289.704 217.871 289.545 218.213 289.341 218.467C289.137 218.728 288.872 218.915 288.548 219.028C288.23 219.141 287.836 219.197 287.363 219.197H286.422ZM288.209 216.807V215.643H289.436V216.807H288.209ZM287.712 216.807L285.851 211.19H287.331L289.098 216.807H287.712ZM221.225 228.934V221.212H222.727V228.934H221.225ZM222.515 228.934V227.611H225.847V228.934H222.515ZM229.463 229.135C228.969 229.135 228.536 229.05 228.162 228.881C227.795 228.711 227.489 228.486 227.242 228.204C227.002 227.915 226.819 227.594 226.692 227.241C226.572 226.889 226.512 226.529 226.512 226.162V225.961C226.512 225.581 226.572 225.214 226.692 224.861C226.819 224.502 227.002 224.184 227.242 223.909C227.489 223.627 227.792 223.405 228.151 223.243C228.511 223.074 228.927 222.989 229.399 222.989C230.02 222.989 230.538 223.127 230.954 223.402C231.377 223.67 231.695 224.026 231.906 224.47C232.118 224.907 232.224 225.38 232.224 225.887V226.416H227.136V225.517H231.303L230.849 225.961C230.849 225.595 230.796 225.281 230.69 225.02C230.584 224.759 230.422 224.558 230.203 224.417C229.992 224.276 229.724 224.206 229.399 224.206C229.075 224.206 228.8 224.28 228.574 224.428C228.349 224.576 228.176 224.791 228.056 225.073C227.943 225.348 227.887 225.679 227.887 226.067C227.887 226.427 227.943 226.748 228.056 227.03C228.169 227.305 228.342 227.523 228.574 227.685C228.807 227.841 229.103 227.918 229.463 227.918C229.823 227.918 230.115 227.848 230.341 227.707C230.566 227.559 230.711 227.379 230.774 227.167H232.128C232.044 227.562 231.882 227.908 231.642 228.204C231.402 228.5 231.095 228.729 230.722 228.891C230.355 229.053 229.935 229.135 229.463 229.135ZM236.932 228.934V227.231H236.688V225.337C236.688 225.006 236.607 224.759 236.445 224.597C236.283 224.435 236.033 224.354 235.694 224.354C235.518 224.354 235.306 224.357 235.06 224.364C234.813 224.371 234.562 224.382 234.309 224.396C234.062 224.403 233.84 224.414 233.642 224.428V223.18C233.804 223.165 233.988 223.151 234.192 223.137C234.397 223.123 234.605 223.116 234.816 223.116C235.035 223.109 235.239 223.106 235.43 223.106C236.022 223.106 236.512 223.183 236.9 223.338C237.295 223.493 237.591 223.737 237.788 224.068C237.993 224.399 238.095 224.833 238.095 225.369V228.934H236.932ZM235.081 229.082C234.665 229.082 234.298 229.008 233.981 228.86C233.67 228.711 233.427 228.5 233.251 228.225C233.082 227.95 232.997 227.618 232.997 227.231C232.997 226.808 233.099 226.462 233.304 226.194C233.515 225.926 233.808 225.725 234.182 225.591C234.562 225.457 235.007 225.39 235.514 225.39H236.847V226.268H235.493C235.155 226.268 234.894 226.353 234.71 226.522C234.534 226.684 234.446 226.896 234.446 227.157C234.446 227.418 234.534 227.629 234.71 227.791C234.894 227.953 235.155 228.035 235.493 228.035C235.698 228.035 235.885 227.999 236.054 227.929C236.23 227.851 236.375 227.724 236.487 227.548C236.607 227.365 236.674 227.118 236.688 226.808L237.048 227.22C237.013 227.622 236.914 227.96 236.752 228.235C236.597 228.511 236.378 228.722 236.096 228.87C235.821 229.011 235.483 229.082 235.081 229.082ZM239.67 228.934V223.19H240.834V225.623H240.802C240.802 224.798 240.978 224.174 241.331 223.751C241.683 223.328 242.202 223.116 242.885 223.116H243.097V224.396H242.695C242.202 224.396 241.817 224.53 241.542 224.798C241.274 225.059 241.14 225.44 241.14 225.94V228.934H239.67ZM244.081 228.934V223.19H245.244V225.655H245.138C245.138 225.069 245.216 224.583 245.371 224.195C245.526 223.8 245.755 223.504 246.059 223.307C246.369 223.109 246.753 223.01 247.211 223.01H247.275C247.959 223.01 248.477 223.232 248.83 223.677C249.182 224.114 249.359 224.77 249.359 225.644V228.934H247.888V225.517C247.888 225.165 247.786 224.879 247.582 224.66C247.384 224.442 247.109 224.333 246.757 224.333C246.397 224.333 246.104 224.445 245.879 224.671C245.66 224.89 245.551 225.186 245.551 225.559V228.934H244.081ZM251.214 228.934V223.19H252.685V228.934H251.214ZM250.41 224.29V223.19H252.685V224.29H250.41ZM251.754 222.503C251.465 222.503 251.25 222.429 251.109 222.281C250.975 222.125 250.908 221.935 250.908 221.709C250.908 221.47 250.975 221.276 251.109 221.128C251.25 220.98 251.465 220.905 251.754 220.905C252.043 220.905 252.254 220.98 252.388 221.128C252.522 221.276 252.589 221.47 252.589 221.709C252.589 221.935 252.522 222.125 252.388 222.281C252.254 222.429 252.043 222.503 251.754 222.503ZM254.379 228.934V223.19H255.542V225.655H255.437C255.437 225.069 255.514 224.583 255.669 224.195C255.825 223.8 256.054 223.504 256.357 223.307C256.667 223.109 257.051 223.01 257.51 223.01H257.573C258.257 223.01 258.776 223.232 259.128 223.677C259.481 224.114 259.657 224.77 259.657 225.644V228.934H258.187V225.517C258.187 225.165 258.085 224.879 257.88 224.66C257.683 224.442 257.408 224.333 257.055 224.333C256.695 224.333 256.403 224.445 256.177 224.671C255.958 224.89 255.849 225.186 255.849 225.559V228.934H254.379ZM263.48 231.197C263.205 231.197 262.923 231.187 262.634 231.165C262.352 231.144 262.087 231.116 261.841 231.081V229.854C262.094 229.882 262.366 229.907 262.655 229.928C262.944 229.956 263.216 229.97 263.469 229.97C263.942 229.97 264.323 229.914 264.612 229.801C264.908 229.688 265.123 229.508 265.257 229.261C265.398 229.022 265.469 228.715 265.469 228.341V227.21L265.786 226.49C265.765 227.019 265.655 227.47 265.458 227.844C265.26 228.211 264.993 228.493 264.654 228.69C264.316 228.881 263.924 228.976 263.48 228.976C263.085 228.976 262.725 228.902 262.401 228.754C262.084 228.606 261.809 228.401 261.576 228.14C261.35 227.879 261.174 227.573 261.047 227.22C260.92 226.868 260.857 226.49 260.857 226.088V225.866C260.857 225.464 260.92 225.091 261.047 224.745C261.181 224.392 261.368 224.086 261.608 223.825C261.848 223.564 262.133 223.363 262.465 223.222C262.796 223.081 263.163 223.01 263.565 223.01C264.037 223.01 264.446 223.113 264.792 223.317C265.144 223.522 265.419 223.818 265.617 224.206C265.814 224.593 265.923 225.069 265.944 225.634L265.691 225.676V223.19H266.854V228.257C266.854 228.955 266.734 229.519 266.495 229.949C266.255 230.379 265.885 230.693 265.384 230.89C264.89 231.095 264.256 231.197 263.48 231.197ZM263.903 227.717C264.185 227.717 264.443 227.654 264.675 227.527C264.908 227.4 265.095 227.217 265.236 226.977C265.377 226.737 265.447 226.448 265.447 226.109V225.739C265.447 225.415 265.373 225.14 265.225 224.914C265.084 224.689 264.897 224.519 264.665 224.407C264.432 224.287 264.178 224.227 263.903 224.227C263.593 224.227 263.318 224.301 263.078 224.449C262.845 224.59 262.662 224.791 262.528 225.052C262.394 225.313 262.327 225.623 262.327 225.983C262.327 226.335 262.394 226.642 262.528 226.903C262.662 227.164 262.845 227.365 263.078 227.506C263.318 227.647 263.593 227.717 263.903 227.717Z" fill="#FF7700"/>
<rect x="120.5" y="85.3744" width="71.16" height="71.16" rx="35.58" fill="#FF7700"/>
<rect x="120.5" y="85.3744" width="71.16" height="71.16" rx="35.58" stroke="#FF7700" stroke-opacity="0.15" stroke-width="12.2971"/>
<path d="M132.408 109.126L130.157 104.339H131.933L133.549 107.922L133.243 107.826H134.13L133.803 107.922L135.261 104.339H136.941L134.87 109.126H132.408ZM132.788 112.053V108.883H134.49V112.053H132.788ZM140.033 112.254C139.526 112.254 139.075 112.177 138.68 112.022C138.286 111.86 137.951 111.641 137.676 111.366C137.409 111.092 137.204 110.778 137.064 110.426C136.923 110.067 136.852 109.69 136.852 109.295V109.052C136.852 108.651 136.923 108.27 137.064 107.911C137.211 107.545 137.423 107.224 137.698 106.949C137.979 106.675 138.318 106.46 138.712 106.305C139.107 106.143 139.547 106.062 140.033 106.062C140.533 106.062 140.977 106.143 141.364 106.305C141.759 106.46 142.094 106.675 142.368 106.949C142.643 107.224 142.854 107.545 143.002 107.911C143.15 108.27 143.224 108.651 143.224 109.052V109.295C143.224 109.69 143.154 110.067 143.013 110.426C142.872 110.778 142.664 111.092 142.389 111.366C142.122 111.641 141.791 111.86 141.396 112.022C141.002 112.177 140.547 112.254 140.033 112.254ZM140.033 110.828C140.364 110.828 140.639 110.757 140.857 110.616C141.076 110.475 141.241 110.278 141.354 110.024C141.474 109.771 141.533 109.489 141.533 109.179C141.533 108.848 141.474 108.559 141.354 108.313C141.234 108.059 141.061 107.858 140.836 107.71C140.618 107.562 140.35 107.488 140.033 107.488C139.723 107.488 139.455 107.562 139.23 107.71C139.004 107.858 138.832 108.059 138.712 108.313C138.599 108.559 138.543 108.848 138.543 109.179C138.543 109.489 138.599 109.771 138.712 110.024C138.825 110.278 138.994 110.475 139.219 110.616C139.445 110.757 139.716 110.828 140.033 110.828ZM146.359 112.233C145.69 112.233 145.176 112.018 144.816 111.588C144.457 111.152 144.277 110.496 144.277 109.623V106.263H145.968V109.707C145.968 110.017 146.056 110.264 146.232 110.447C146.408 110.63 146.644 110.722 146.94 110.722C147.243 110.722 147.49 110.627 147.68 110.437C147.87 110.246 147.965 109.989 147.965 109.665V106.263H149.656V112.053H148.314V109.612H148.43C148.43 110.197 148.353 110.687 148.198 111.081C148.05 111.469 147.828 111.757 147.532 111.948C147.236 112.138 146.87 112.233 146.433 112.233H146.359ZM153.434 112.053V106.263H154.776V108.756H154.681C154.681 108.165 154.755 107.671 154.903 107.277C155.051 106.882 155.272 106.587 155.568 106.389C155.864 106.185 156.227 106.083 156.657 106.083H156.731C157.167 106.083 157.53 106.185 157.819 106.389C158.115 106.587 158.337 106.882 158.485 107.277C158.64 107.671 158.717 108.165 158.717 108.756H158.305C158.305 108.165 158.379 107.671 158.527 107.277C158.682 106.882 158.908 106.587 159.203 106.389C159.499 106.185 159.862 106.083 160.292 106.083H160.366C160.803 106.083 161.169 106.185 161.465 106.389C161.768 106.587 161.997 106.882 162.152 107.277C162.307 107.671 162.384 108.165 162.384 108.756V112.053H160.693V108.661C160.693 108.344 160.609 108.087 160.44 107.89C160.278 107.693 160.045 107.594 159.742 107.594C159.439 107.594 159.2 107.696 159.024 107.9C158.848 108.098 158.76 108.362 158.76 108.693V112.053H157.058V108.661C157.058 108.344 156.974 108.087 156.805 107.89C156.643 107.693 156.414 107.594 156.118 107.594C155.808 107.594 155.565 107.696 155.389 107.9C155.213 108.098 155.124 108.362 155.124 108.693V112.053H153.434ZM165.78 112.233C165.111 112.233 164.597 112.018 164.238 111.588C163.878 111.152 163.699 110.496 163.699 109.623V106.263H165.389V109.707C165.389 110.017 165.477 110.264 165.654 110.447C165.83 110.63 166.066 110.722 166.362 110.722C166.665 110.722 166.911 110.627 167.101 110.437C167.291 110.246 167.387 109.989 167.387 109.665V106.263H169.077V112.053H167.735V109.612H167.852C167.852 110.197 167.774 110.687 167.619 111.081C167.471 111.469 167.249 111.757 166.953 111.948C166.657 112.138 166.291 112.233 165.854 112.233H165.78ZM172.834 112.233C172.01 112.233 171.365 112.064 170.901 111.726C170.436 111.388 170.189 110.912 170.161 110.299H171.661C171.69 110.482 171.799 110.648 171.989 110.796C172.186 110.937 172.479 111.007 172.866 111.007C173.162 111.007 173.405 110.958 173.595 110.859C173.792 110.754 173.891 110.606 173.891 110.415C173.891 110.246 173.817 110.113 173.669 110.014C173.521 109.908 173.257 109.834 172.877 109.792L172.422 109.75C171.725 109.679 171.2 109.486 170.848 109.169C170.502 108.851 170.33 108.446 170.33 107.953C170.33 107.545 170.432 107.203 170.636 106.928C170.841 106.654 171.122 106.446 171.482 106.305C171.848 106.164 172.264 106.093 172.729 106.093C173.475 106.093 174.078 106.259 174.536 106.59C174.994 106.914 175.233 107.386 175.254 108.006H173.754C173.725 107.816 173.627 107.657 173.458 107.531C173.289 107.397 173.039 107.33 172.707 107.33C172.447 107.33 172.239 107.379 172.084 107.478C171.929 107.576 171.852 107.71 171.852 107.879C171.852 108.041 171.918 108.165 172.052 108.249C172.186 108.334 172.405 108.394 172.707 108.429L173.162 108.471C173.873 108.549 174.426 108.746 174.821 109.063C175.215 109.38 175.413 109.806 175.413 110.341C175.413 110.729 175.307 111.067 175.096 111.356C174.884 111.638 174.585 111.856 174.197 112.011C173.81 112.159 173.356 112.233 172.834 112.233ZM179.139 112.127C178.555 112.127 178.083 112.057 177.723 111.916C177.364 111.768 177.1 111.525 176.931 111.187C176.769 110.842 176.688 110.377 176.688 109.792V104.699H178.262V109.855C178.262 110.13 178.333 110.341 178.474 110.489C178.622 110.63 178.829 110.701 179.097 110.701H179.953V112.127H179.139ZM175.811 107.499V106.263H179.953V107.499H175.811ZM134.501 127.22V125.793H134.871C135.132 125.793 135.329 125.723 135.463 125.582C135.596 125.448 135.663 125.254 135.663 125.001V119.263H137.301V124.948C137.301 125.504 137.213 125.948 137.037 126.279C136.868 126.61 136.597 126.85 136.223 126.998C135.857 127.146 135.385 127.22 134.807 127.22H134.501ZM134.86 120.509V119.263H137.301V120.509H134.86ZM136.266 118.671C135.949 118.671 135.713 118.59 135.558 118.428C135.41 118.259 135.336 118.047 135.336 117.794C135.336 117.533 135.41 117.322 135.558 117.16C135.713 116.991 135.949 116.906 136.266 116.906C136.59 116.906 136.826 116.991 136.974 117.16C137.122 117.322 137.196 117.533 137.196 117.794C137.196 118.047 137.122 118.259 136.974 118.428C136.826 118.59 136.59 118.671 136.266 118.671ZM141.632 125.254C141.125 125.254 140.674 125.177 140.28 125.022C139.885 124.86 139.551 124.641 139.276 124.366C139.008 124.092 138.804 123.778 138.663 123.426C138.522 123.067 138.452 122.69 138.452 122.295V122.052C138.452 121.651 138.522 121.27 138.663 120.911C138.811 120.545 139.022 120.224 139.297 119.949C139.579 119.675 139.917 119.46 140.312 119.305C140.706 119.143 141.146 119.062 141.632 119.062C142.133 119.062 142.576 119.143 142.964 119.305C143.358 119.46 143.693 119.675 143.968 119.949C144.243 120.224 144.454 120.545 144.602 120.911C144.75 121.27 144.824 121.651 144.824 122.052V122.295C144.824 122.69 144.753 123.067 144.612 123.426C144.471 123.778 144.264 124.092 143.989 124.366C143.721 124.641 143.39 124.86 142.996 125.022C142.601 125.177 142.147 125.254 141.632 125.254ZM141.632 123.828C141.964 123.828 142.238 123.757 142.457 123.616C142.675 123.475 142.841 123.278 142.953 123.024C143.073 122.771 143.133 122.489 143.133 122.179C143.133 121.848 143.073 121.559 142.953 121.313C142.834 121.059 142.661 120.858 142.436 120.71C142.217 120.562 141.949 120.488 141.632 120.488C141.322 120.488 141.055 120.562 140.829 120.71C140.604 120.858 140.431 121.059 140.312 121.313C140.199 121.559 140.142 121.848 140.142 122.179C140.142 122.489 140.199 122.771 140.312 123.024C140.424 123.278 140.593 123.475 140.819 123.616C141.044 123.757 141.315 123.828 141.632 123.828ZM146.278 125.053V119.263H147.969V125.053H146.278ZM145.507 120.509V119.263H147.969V120.509H145.507ZM146.934 118.692C146.617 118.692 146.381 118.611 146.226 118.449C146.078 118.28 146.004 118.068 146.004 117.815C146.004 117.554 146.078 117.343 146.226 117.181C146.381 117.012 146.617 116.927 146.934 116.927C147.251 116.927 147.483 117.012 147.631 117.181C147.786 117.343 147.864 117.554 147.864 117.815C147.864 118.068 147.786 118.28 147.631 118.449C147.483 118.611 147.251 118.692 146.934 118.692ZM149.533 125.053V119.263H150.875V121.746H150.78C150.78 121.154 150.854 120.661 151.002 120.266C151.157 119.872 151.389 119.576 151.699 119.379C152.009 119.182 152.386 119.083 152.83 119.083H152.904C153.58 119.083 154.094 119.305 154.447 119.749C154.806 120.185 154.986 120.851 154.986 121.746V125.053H153.295V121.651C153.295 121.341 153.203 121.087 153.02 120.89C152.837 120.693 152.59 120.594 152.28 120.594C151.963 120.594 151.706 120.696 151.509 120.9C151.319 121.098 151.224 121.358 151.224 121.682V125.053H149.533ZM161.276 125.127C160.692 125.127 160.22 125.057 159.86 124.916C159.501 124.768 159.237 124.525 159.068 124.187C158.906 123.842 158.825 123.377 158.825 122.792V117.699H160.399V122.855C160.399 123.13 160.47 123.341 160.611 123.489C160.759 123.63 160.966 123.701 161.234 123.701H162.09V125.127H161.276ZM157.948 120.499V119.263H162.09V120.499H157.948ZM163.227 125.053V117.339H164.918V121.788H164.664C164.664 121.203 164.738 120.71 164.886 120.309C165.034 119.907 165.252 119.604 165.541 119.4C165.83 119.189 166.193 119.083 166.63 119.083H166.704C167.345 119.083 167.834 119.312 168.172 119.77C168.511 120.221 168.68 120.883 168.68 121.756V125.053H166.989V121.651C166.989 121.334 166.894 121.08 166.704 120.89C166.52 120.693 166.277 120.594 165.974 120.594C165.657 120.594 165.4 120.696 165.203 120.9C165.013 121.105 164.918 121.376 164.918 121.714V125.053H163.227ZM172.773 125.254C172.28 125.254 171.843 125.17 171.462 125.001C171.089 124.831 170.776 124.606 170.522 124.324C170.275 124.035 170.085 123.715 169.951 123.363C169.824 123.003 169.761 122.637 169.761 122.264V122.052C169.761 121.665 169.824 121.295 169.951 120.943C170.085 120.583 170.275 120.263 170.522 119.981C170.768 119.699 171.075 119.477 171.441 119.315C171.815 119.146 172.237 119.062 172.709 119.062C173.329 119.062 173.851 119.203 174.273 119.484C174.703 119.759 175.031 120.122 175.256 120.573C175.481 121.017 175.594 121.503 175.594 122.031V122.602H170.469V121.64H174.569L174.02 122.084C174.02 121.739 173.97 121.443 173.872 121.196C173.773 120.95 173.625 120.763 173.428 120.636C173.238 120.502 172.998 120.435 172.709 120.435C172.413 120.435 172.163 120.502 171.959 120.636C171.755 120.77 171.6 120.967 171.494 121.228C171.388 121.482 171.336 121.795 171.336 122.169C171.336 122.514 171.385 122.817 171.484 123.077C171.582 123.331 171.737 123.528 171.948 123.669C172.16 123.81 172.435 123.88 172.773 123.88C173.083 123.88 173.336 123.821 173.534 123.701C173.731 123.581 173.865 123.433 173.935 123.257H175.488C175.404 123.644 175.238 123.99 174.992 124.293C174.745 124.595 174.435 124.831 174.062 125.001C173.689 125.17 173.259 125.254 172.773 125.254ZM144.666 138.254C144.166 138.254 143.729 138.173 143.356 138.011C142.99 137.842 142.683 137.617 142.437 137.335C142.19 137.053 142.007 136.736 141.887 136.384C141.767 136.024 141.708 135.655 141.708 135.274V135.073C141.708 134.679 141.771 134.302 141.898 133.943C142.025 133.576 142.211 133.252 142.458 132.971C142.704 132.689 143.011 132.467 143.377 132.305C143.751 132.143 144.177 132.062 144.656 132.062C145.177 132.062 145.639 132.164 146.04 132.368C146.442 132.565 146.762 132.844 147.002 133.203C147.241 133.562 147.375 133.974 147.403 134.439H145.744C145.716 134.179 145.61 133.96 145.427 133.784C145.251 133.601 144.994 133.509 144.656 133.509C144.374 133.509 144.138 133.58 143.948 133.721C143.765 133.862 143.627 134.055 143.536 134.302C143.444 134.549 143.398 134.841 143.398 135.179C143.398 135.489 143.441 135.771 143.525 136.024C143.61 136.271 143.743 136.465 143.927 136.606C144.117 136.739 144.363 136.806 144.666 136.806C144.892 136.806 145.082 136.768 145.237 136.69C145.399 136.606 145.526 136.493 145.617 136.352C145.716 136.204 145.776 136.035 145.797 135.845H147.445C147.424 136.324 147.291 136.747 147.044 137.113C146.797 137.472 146.47 137.754 146.061 137.958C145.653 138.155 145.188 138.254 144.666 138.254ZM148.601 138.053V130.339H150.302V138.053H148.601ZM147.914 131.586V130.339H150.302V131.586H147.914ZM155.358 138.053V136.341H155.072V134.482C155.072 134.186 155.002 133.964 154.861 133.816C154.72 133.668 154.495 133.594 154.185 133.594C154.03 133.594 153.826 133.598 153.572 133.605C153.318 133.612 153.058 133.622 152.79 133.636C152.522 133.65 152.279 133.664 152.061 133.679V132.252C152.223 132.238 152.413 132.224 152.631 132.21C152.85 132.196 153.075 132.185 153.308 132.178C153.54 132.171 153.759 132.167 153.963 132.167C154.555 132.167 155.051 132.252 155.453 132.421C155.861 132.59 156.171 132.847 156.383 133.192C156.594 133.531 156.7 133.967 156.7 134.503V138.053H155.358ZM153.508 138.201C153.093 138.201 152.727 138.127 152.41 137.979C152.1 137.831 151.856 137.62 151.68 137.345C151.504 137.064 151.416 136.729 151.416 136.341C151.416 135.919 151.525 135.574 151.744 135.306C151.962 135.031 152.269 134.83 152.663 134.704C153.058 134.57 153.512 134.503 154.026 134.503H155.263V135.443H154.016C153.72 135.443 153.491 135.517 153.329 135.665C153.174 135.806 153.096 136 153.096 136.246C153.096 136.479 153.174 136.669 153.329 136.817C153.491 136.958 153.72 137.028 154.016 137.028C154.206 137.028 154.375 136.997 154.523 136.933C154.678 136.863 154.805 136.747 154.903 136.585C155.002 136.422 155.058 136.197 155.072 135.908L155.474 136.331C155.439 136.732 155.34 137.071 155.178 137.345C155.023 137.62 154.805 137.831 154.523 137.979C154.248 138.127 153.91 138.201 153.508 138.201ZM160.332 138.233C159.508 138.233 158.863 138.064 158.398 137.726C157.933 137.388 157.687 136.912 157.659 136.299H159.159C159.187 136.482 159.297 136.648 159.487 136.796C159.684 136.937 159.976 137.007 160.364 137.007C160.66 137.007 160.903 136.958 161.093 136.859C161.29 136.754 161.389 136.606 161.389 136.415C161.389 136.246 161.315 136.113 161.167 136.014C161.019 135.908 160.755 135.834 160.375 135.792L159.92 135.75C159.223 135.679 158.698 135.486 158.346 135.169C158 134.851 157.828 134.446 157.828 133.953C157.828 133.545 157.93 133.203 158.134 132.928C158.339 132.654 158.62 132.446 158.98 132.305C159.346 132.164 159.762 132.093 160.227 132.093C160.973 132.093 161.576 132.259 162.034 132.59C162.491 132.914 162.731 133.386 162.752 134.006H161.252C161.223 133.816 161.125 133.657 160.956 133.531C160.787 133.397 160.537 133.33 160.205 133.33C159.945 133.33 159.737 133.379 159.582 133.478C159.427 133.576 159.349 133.71 159.349 133.879C159.349 134.041 159.416 134.165 159.55 134.249C159.684 134.334 159.903 134.394 160.205 134.429L160.66 134.471C161.371 134.549 161.924 134.746 162.319 135.063C162.713 135.38 162.911 135.806 162.911 136.341C162.911 136.729 162.805 137.067 162.594 137.356C162.382 137.638 162.083 137.856 161.695 138.011C161.308 138.159 160.854 138.233 160.332 138.233ZM166.204 138.233C165.38 138.233 164.735 138.064 164.27 137.726C163.805 137.388 163.559 136.912 163.531 136.299H165.031C165.059 136.482 165.168 136.648 165.359 136.796C165.556 136.937 165.848 137.007 166.236 137.007C166.532 137.007 166.775 136.958 166.965 136.859C167.162 136.754 167.261 136.606 167.261 136.415C167.261 136.246 167.187 136.113 167.039 136.014C166.891 135.908 166.627 135.834 166.246 135.792L165.792 135.75C165.094 135.679 164.57 135.486 164.217 135.169C163.872 134.851 163.7 134.446 163.7 133.953C163.7 133.545 163.802 133.203 164.006 132.928C164.21 132.654 164.492 132.446 164.851 132.305C165.218 132.164 165.633 132.093 166.098 132.093C166.845 132.093 167.447 132.259 167.905 132.59C168.363 132.914 168.603 133.386 168.624 134.006H167.123C167.095 133.816 166.997 133.657 166.827 133.531C166.658 133.397 166.408 133.33 166.077 133.33C165.817 133.33 165.609 133.379 165.454 133.478C165.299 133.576 165.221 133.71 165.221 133.879C165.221 134.041 165.288 134.165 165.422 134.249C165.556 134.334 165.774 134.394 166.077 134.429L166.532 134.471C167.243 134.549 167.796 134.746 168.191 135.063C168.585 135.38 168.782 135.806 168.782 136.341C168.782 136.729 168.677 137.067 168.465 137.356C168.254 137.638 167.955 137.856 167.567 138.011C167.18 138.159 166.725 138.233 166.204 138.233Z" fill="white"/>
<line x1="62.8132" y1="170.65" x2="119.506" y2="150.679" stroke="#FF7700" stroke-linecap="round" stroke-dasharray="3.93 3.93"/>
<line x1="155.51" y1="78.4904" x2="155.99" y2="53.7777" stroke="#FF7700" stroke-linecap="round" stroke-dasharray="1.96 1.96"/>
<line x1="0.5" y1="-0.5" x2="60.6072" y2="-0.5" transform="matrix(-0.943188 -0.332259 -0.332259 0.943188 245.982 171.287)" stroke="#FF7700" stroke-linecap="round" stroke-dasharray="3.93 3.93"/>
</svg>
