<svg xmlns="http://www.w3.org/2000/svg" width="23" height="23" viewBox="0 0 23 23" fill="none">
  <g clip-path="url(#clip0_177_1655)">
    <path d="M18.9297 2.31562H19.1007C19.3841 2.31562 19.6138 2.0859 19.6138 1.80257V0.776475C19.6138 0.493144 19.3841 0.263428 19.1007 0.263428H3.70934C3.42601 0.263428 3.19629 0.493144 3.19629 0.776475V1.80257C3.19629 2.0859 3.42601 2.31562 3.70934 2.31562H3.88035C3.88035 5.76004 5.25651 9.40451 8.03518 11.2084C5.24416 13.0204 3.88035 16.6767 3.88035 20.1012H3.70934C3.42601 20.1012 3.19629 20.331 3.19629 20.6143V21.6404C3.19629 21.9237 3.42601 22.1534 3.70934 22.1534H19.1007C19.3841 22.1534 19.6138 21.9237 19.6138 21.6404V20.6143C19.6138 20.331 19.3841 20.1012 19.1007 20.1012H18.9297C18.9297 16.6568 17.5536 13.0123 14.7749 11.2084C17.566 9.39647 18.9297 5.7402 18.9297 2.31562ZM5.93254 2.31562H16.8775C16.8775 6.66027 14.4274 10.1823 11.405 10.1823C8.38264 10.1823 5.93254 6.66031 5.93254 2.31562ZM16.8775 20.1012H5.93254C5.93254 15.7566 8.38268 12.2345 11.405 12.2345C14.4274 12.2345 16.8775 15.7566 16.8775 20.1012Z" fill="white"/>
  </g>
  <defs>
    <clipPath id="clip0_177_1655">
      <rect width="21.89" height="21.89" fill="white" transform="translate(0.460083 0.263428)"/>
    </clipPath>
  </defs>
</svg>