<svg width="43" height="44" viewBox="0 0 43 44" fill="none" xmlns="http://www.w3.org/2000/svg">
<g id="fi_1584808">
<g id="XMLID_1031_">
<g id="XMLID_971_">
<g id="XMLID_977_">
<path id="XMLID_1030_" d="M32.9952 12.5668H33.8943C34.2079 12.5668 34.4623 12.3124 34.4623 11.9988C34.4623 11.6851 34.2079 11.4308 33.8943 11.4308H31.7359C31.4223 11.4308 31.1679 11.6851 31.1679 11.9988V14.1571C31.1679 14.4708 31.4223 14.7251 31.7359 14.7251C32.0496 14.7251 32.3039 14.4708 32.3039 14.1571V13.5322C34.0273 15.8394 34.9641 18.6388 34.9641 21.5504C34.9641 28.947 28.9466 34.9645 21.5501 34.9645C14.1535 34.9645 8.13603 28.947 8.13603 21.5504C8.13603 14.1539 14.1535 8.1364 21.5501 8.1364C22.0971 8.1364 22.6476 8.16963 23.1865 8.23512C23.4975 8.27272 23.7811 8.05126 23.8189 7.73983C23.8568 7.42846 23.6351 7.14526 23.3237 7.10744C22.7394 7.03644 22.1428 7.00043 21.5501 7.00043C17.6636 7.00043 14.0098 8.51388 11.2617 11.262C8.51352 14.0101 7.00006 17.664 7.00006 21.5504C7.00006 25.4369 8.51352 29.0907 11.2617 31.8388C14.0098 34.587 17.6636 36.1004 21.5501 36.1004C25.4365 36.1004 29.0904 34.587 31.8385 31.8388C34.5866 29.0907 36.1001 25.4369 36.1001 21.5504C36.1001 18.2708 35.0044 15.1224 32.9952 12.5668Z" fill="#F8DF14"/>
<path id="XMLID_1029_" d="M13.1612 15.5778C12.8961 15.41 12.5452 15.489 12.3774 15.7539C11.0807 17.8018 10.5067 20.2647 10.7611 22.6889C11.0193 25.1491 12.1266 27.4691 13.879 29.2216C15.9939 31.3365 18.772 32.394 21.5502 32.394C24.3283 32.394 27.1063 31.3366 29.2213 29.2216C33.4511 24.9918 33.4511 18.1093 29.2213 13.8795C27.4715 12.1297 25.1553 11.0228 22.6992 10.7627C20.2795 10.5062 17.8192 11.0758 15.7721 12.3661C15.5067 12.5333 15.4273 12.8841 15.5945 13.1494C15.7617 13.4148 16.1125 13.4943 16.3778 13.3271C20.2366 10.895 25.1876 11.4523 28.418 14.6827C32.2049 18.4696 32.2049 24.6314 28.418 28.4183C24.6311 32.2053 18.4692 32.2053 14.6823 28.4183C11.4966 25.2326 10.9309 20.162 13.3372 16.3616C13.505 16.0965 13.4262 15.7456 13.1612 15.5778Z" fill="#F8DF14"/>
<path id="XMLID_1028_" d="M28.934 22.1277H29.6345C29.9481 22.1277 30.2024 21.8733 30.2024 21.5597C30.2024 21.246 29.9481 20.9917 29.6345 20.9917H28.934C28.6204 20.9917 28.366 21.246 28.366 21.5597C28.366 21.8733 28.6203 22.1277 28.934 22.1277Z" fill="#F8DF14"/>
<path id="XMLID_1004_" d="M12.8978 21.5413C12.8978 21.8549 13.1522 22.1092 13.4658 22.1092H14.1663C14.4799 22.1092 14.7342 21.8549 14.7342 21.5413C14.7342 21.2276 14.4799 20.9733 14.1663 20.9733H13.4658C13.1522 20.9733 12.8978 21.2276 12.8978 21.5413Z" fill="#F8DF14"/>
<path id="XMLID_1001_" d="M22.1273 14.1666V13.4662C22.1273 13.1525 21.873 12.8982 21.5593 12.8982C21.2457 12.8982 20.9913 13.1525 20.9913 13.4662V14.1666C20.9913 14.4803 21.2457 14.7346 21.5593 14.7346C21.873 14.7346 22.1273 14.4803 22.1273 14.1666Z" fill="#F8DF14"/>
<path id="XMLID_1415_" d="M20.9729 28.9344V29.6348C20.9729 29.9485 21.2272 30.2028 21.5409 30.2028C21.8545 30.2028 22.1089 29.9485 22.1089 29.6348V28.9344C22.1089 28.6207 21.8545 28.3664 21.5409 28.3664C21.2272 28.3664 20.9729 28.6207 20.9729 28.9344Z" fill="#F8DF14"/>
<path id="XMLID_996_" d="M18.7031 17.9002C18.4813 17.6784 18.1217 17.6784 17.8998 17.9002C17.678 18.122 17.678 18.4816 17.8998 18.7035L19.8248 20.6285C19.6773 20.9034 19.5934 21.2173 19.5934 21.5505C19.5934 22.6294 20.4711 23.5072 21.5501 23.5072C22.629 23.5072 23.5068 22.6294 23.5068 21.5505C23.5068 21.2173 23.4229 20.9034 23.2754 20.6285L27.1595 16.7444C27.3813 16.5226 27.3813 16.1629 27.1595 15.9411C26.9376 15.7193 26.5781 15.7193 26.3562 15.9411L22.4721 19.8252C22.1972 19.6776 21.8833 19.5938 21.5501 19.5938C21.2169 19.5938 20.903 19.6777 20.6281 19.8252L18.7031 17.9002ZM22.3708 21.5505C22.3708 22.003 22.0027 22.3712 21.5501 22.3712C21.0975 22.3712 20.7293 22.003 20.7293 21.5505C20.7293 21.0979 21.0975 20.7297 21.5501 20.7297C22.0027 20.7297 22.3708 21.0979 22.3708 21.5505Z" fill="#F8DF14"/>
<path id="XMLID_980_" d="M14.682 14.6824C14.7882 14.5767 14.8489 14.4302 14.8489 14.2808C14.8489 14.1314 14.7882 13.9855 14.682 13.8792C14.5764 13.7737 14.4303 13.7128 14.2804 13.7128C14.1311 13.7128 13.9845 13.7736 13.8789 13.8792C13.7733 13.9849 13.7125 14.1314 13.7125 14.2808C13.7125 14.4308 13.7732 14.5767 13.8789 14.6824C13.9845 14.788 14.1311 14.8488 14.2804 14.8488C14.4303 14.8488 14.5764 14.788 14.682 14.6824Z" fill="#F8DF14"/>
<path id="XMLID_979_" d="M25.4846 8.6975C25.6346 8.6975 25.7811 8.63723 25.8867 8.53108C25.9923 8.42543 26.0532 8.2794 26.0532 8.12951C26.0532 7.98013 25.9924 7.83359 25.8867 7.72794C25.7811 7.62235 25.6346 7.56152 25.4846 7.56152C25.3352 7.56152 25.1886 7.6223 25.083 7.72794C24.9774 7.83359 24.9166 7.98013 24.9166 8.12951C24.9166 8.27946 24.9773 8.42543 25.083 8.53108C25.1886 8.63723 25.3352 8.6975 25.4846 8.6975Z" fill="#F8DF14"/>
</g>
</g>
</g>
</g>
</svg>
