<svg width="102" height="13" viewBox="0 0 102 13" fill="none" xmlns="http://www.w3.org/2000/svg">
<mask id="mask0_0_1008" style="mask-type:luminance" maskUnits="userSpaceOnUse" x="0" y="0" width="102" height="13">
<path d="M0.880615 0.855164L101.469 0.855164V12.2961H0.880615V0.855164Z" fill="white"/>
</mask>
<g mask="url(#mask0_0_1008)">
<path d="M47.9732 0.947931C45.0229 1.01092 42.5297 1.12762 40.6576 1.29852C40.1282 1.34344 39.1992 1.42451 38.5879 1.47821C37.0046 1.61297 31.1617 2.31415 28.866 2.64667C28.5244 2.69159 27.5715 2.81706 26.7483 2.9162C25.9301 3.01482 25.1602 3.11395 25.0397 3.1408C24.9194 3.16765 23.5672 3.36541 22.0319 3.59001C20.4963 3.80584 18.4078 4.11099 17.3874 4.26383C16.367 4.40788 14.4757 4.67741 13.1762 4.8478C9.08019 5.39615 7.29967 5.70182 5.78826 6.11488C5.26363 6.25894 4.9173 6.3937 4.86425 6.48355C4.8162 6.56409 4.57069 6.66323 4.23853 6.74378C2.8957 7.04945 2.33274 7.26528 1.63008 7.75063C1.17766 8.06508 1.14378 8.11 1.03324 8.47814C0.941591 8.79259 0.927427 8.9098 0.965754 9.03527C1.00436 9.15248 1.00436 9.21495 0.951312 9.29602C0.859939 9.44007 0.859939 9.87121 0.951312 10.0148C1.0138 10.1139 1.0138 10.1407 0.951312 10.2306C0.845497 10.3834 0.888823 10.5812 1.08601 10.9137C1.1871 11.0753 1.25931 11.2638 1.24487 11.3268C1.20655 11.5245 1.26431 11.7223 1.40373 11.8483C1.76478 12.1983 3.7475 12.3424 5.28307 12.1359C5.86519 12.0548 6.90501 11.9381 7.59323 11.857C8.28144 11.7853 8.96466 11.7042 9.10908 11.6861C9.2535 11.6593 9.64343 11.6144 9.9756 11.5875C10.3075 11.5607 10.7166 11.5157 10.8899 11.4977C11.2123 11.4615 11.9344 11.3985 12.9354 11.318C13.2531 11.2999 13.816 11.255 14.1868 11.2188C14.8461 11.1651 15.0628 11.2281 14.5429 11.3268C13.5275 11.5064 13.5803 11.5338 14.9328 11.4889C18.0081 11.3985 23.6921 10.8595 27.1815 10.3292C27.9756 10.2125 29.0826 10.0509 29.6361 9.96983C30.1943 9.89806 31.2772 9.72715 32.0426 9.61046C32.8125 9.48499 34.0542 9.30479 34.8099 9.20617C35.5656 9.10755 36.9854 8.9005 37.9625 8.75696C39.6852 8.50551 41.6154 8.25354 43.9495 7.99331C44.5655 7.93031 45.0854 7.84925 45.0998 7.8224C45.124 7.76818 43.7956 7.72326 43.4876 7.75941C43.401 7.77748 43.3288 7.74133 43.3288 7.69641C43.3288 7.65149 43.3671 7.62464 43.4154 7.62464C43.4923 7.63342 44.4214 7.54358 45.1576 7.45374C45.3309 7.43618 45.8411 7.39126 46.2885 7.36389C46.741 7.33705 47.3234 7.30142 47.588 7.27405C47.8527 7.25598 48.5795 7.21106 49.2005 7.18421C49.8213 7.15736 50.4614 7.11244 50.6203 7.09437C50.7791 7.0763 51.5923 7.03138 52.425 7.00453C53.2576 6.97768 54.2105 6.94153 54.5427 6.91468C54.8748 6.88784 56.1646 6.85169 57.4063 6.82484C58.6528 6.79799 59.9379 6.75307 60.27 6.735C63.2926 6.54654 84.7725 6.49232 87.7997 6.66323C88.8729 6.72622 90.4226 6.81606 91.2408 6.86976C93.0458 6.9689 95.2643 7.04067 95.1632 6.98645C95.1201 6.9689 94.7399 6.89661 94.3211 6.83414L93.551 6.71693L94.2731 6.69886C94.6724 6.6813 95.0382 6.63638 95.0913 6.59146C95.1682 6.52847 95.1585 6.5104 95.0335 6.53724C94.9468 6.55532 94.8746 6.53724 94.8746 6.49232C94.8746 6.4567 95.0093 6.42055 95.1776 6.42055C95.3654 6.42055 95.452 6.4567 95.4087 6.50162C95.3704 6.55532 95.4232 6.56409 95.5531 6.53724C95.8806 6.46547 99.365 7.04945 100.703 7.40004C100.896 7.44496 101.001 7.43618 101.059 7.35512C101.107 7.29212 101.208 7.26528 101.305 7.29212C101.41 7.32827 101.468 7.3102 101.468 7.23843C101.468 7.18421 101.42 7.13929 101.357 7.13929C101.295 7.13929 101.204 7.0763 101.151 7.00453C101.059 6.87906 101.059 6.86976 101.17 6.81606C101.314 6.735 101.305 6.62709 101.146 6.56409C99.4708 5.89957 92.4295 4.69548 84.5992 3.72477C83.781 3.62615 82.5776 3.46403 81.928 3.36541C81.2781 3.26627 80.2819 3.12273 79.7139 3.05096C79.1462 2.96989 78.2991 2.8532 77.837 2.78143C77.3749 2.70915 76.4556 2.58368 75.7915 2.51139C75.1322 2.43962 73.9291 2.29608 73.1203 2.19694C69.3662 1.73895 67.8407 1.62226 63.302 1.42451C62.5224 1.38836 61.8245 1.35222 61.7523 1.34344C61.6753 1.33467 61.2038 1.32537 60.6983 1.31659C60.1448 1.3073 59.7934 1.26238 59.8129 1.21746C59.8273 1.16376 59.7984 1.12762 59.7551 1.13691C59.3749 1.14569 58.7925 1.09199 58.5134 1.02022C58.0946 0.90301 52.04 0.867383 47.9732 0.947931ZM42.3759 4.63249C42.3564 4.66812 42.0293 4.72233 41.6443 4.74918C41.2591 4.78532 40.8597 4.83024 40.7539 4.8478C40.6478 4.86587 40.2582 4.91079 39.8874 4.93764C39.5169 4.96501 39.1078 5.00993 38.9731 5.02748C38.8431 5.05485 38.5157 5.09048 38.251 5.11733C37.9863 5.14469 37.6928 5.18032 37.6014 5.20768C37.51 5.22524 37.197 5.27016 36.9035 5.29753C36.6146 5.33315 36.3116 5.3693 36.2297 5.38737C36.1528 5.40492 35.8784 5.44107 35.6281 5.47721C35.1854 5.53091 34.9302 5.56705 34.2806 5.6569C34.1073 5.67445 33.7751 5.71989 33.5346 5.74674C32.928 5.81851 32.4179 5.8815 32.1629 5.92642C31.9127 5.97134 30.9259 6.11488 30.334 6.19595C30.1077 6.2228 29.8286 6.26772 29.7083 6.28579C29.5881 6.30386 29.3087 6.34878 29.0826 6.37563C28.8565 6.40248 28.5532 6.43862 28.4088 6.46547C28.2644 6.48355 27.9708 6.52847 27.7589 6.55532C27.2249 6.62709 26.888 6.67201 25.834 6.82484C24.6403 6.99575 22.9895 7.20228 22.3204 7.27405C22.0319 7.30142 21.6178 7.34634 21.4061 7.36389C21.1942 7.39126 20.8718 7.42689 20.684 7.45374C19.7889 7.55287 19.0043 7.60657 19.0238 7.56165C19.0527 7.50795 19.4134 7.43618 20.0344 7.36389C20.2605 7.33705 20.5205 7.30142 20.6118 7.27405C20.7035 7.25598 20.9632 7.21106 21.1895 7.18421C21.9597 7.08559 22.2243 7.04945 22.489 7.00453C22.6334 6.97768 23.6874 6.84291 24.8233 6.69008C25.964 6.54654 27.3162 6.35756 27.8311 6.28579C30.4879 5.90835 33.8809 5.45914 36.663 5.11733C36.8507 5.09977 37.2259 5.05485 37.505 5.02748C37.7842 5.00063 38.381 4.94694 38.8287 4.89272C39.873 4.78532 40.4362 4.73111 41.3072 4.65934C41.6924 4.63249 42.0101 4.59635 42.0148 4.58757C42.0437 4.54265 42.4048 4.58757 42.3759 4.63249ZM66.6231 4.89272C69.5637 4.99186 70.531 5.02748 74.0588 5.20768C78.1692 5.423 79.6756 5.53091 80.2674 5.67445C80.4696 5.71989 80.4888 5.73744 80.3877 5.80044C80.3205 5.83658 80.2963 5.86343 80.3302 5.87221C80.3591 5.8815 80.3877 5.92642 80.3877 5.97134C80.3877 6.07926 80.4841 6.07926 64.2166 6.10611C57.5316 6.11488 51.6982 6.15103 51.2457 6.18665C50.5817 6.23209 46.6399 6.27701 46.2935 6.24965C46.1152 6.23209 46.2646 6.11488 46.4954 6.09681C47.362 6.01626 47.9491 5.97134 48.7673 5.91713C49.2822 5.89028 49.7732 5.85465 49.8501 5.83658C49.9321 5.81851 50.1726 5.80044 50.3892 5.80044C50.7214 5.79166 50.7791 5.77359 50.7597 5.6569C50.7405 5.56705 50.7597 5.52213 50.8128 5.52213C50.8655 5.52213 50.885 5.56705 50.8655 5.6569C50.8464 5.76481 50.8897 5.79166 51.0966 5.79166C51.3229 5.79166 51.3613 5.76481 51.3902 5.58461L51.424 5.38737L51.4912 5.83658L51.5201 5.62953C51.5443 5.45914 51.5779 5.423 51.7368 5.44107C51.9342 5.44985 53.5417 5.3693 54.3022 5.29753C54.5524 5.27946 55.4956 5.23453 56.3957 5.19839C57.2955 5.16225 58.1187 5.12662 58.2245 5.11733C58.3304 5.10855 58.9225 5.09048 59.5385 5.0817C60.1834 5.0817 60.655 5.03678 60.655 4.99186C60.655 4.93764 59.6443 4.90201 58.1426 4.89272C56.7615 4.89272 55.6208 4.86587 55.6064 4.8478C55.5678 4.76725 64.0433 4.80288 66.6231 4.89272ZM51.1738 5.55776C51.1738 5.58461 51.1544 5.62953 51.1255 5.6569C51.1016 5.68374 51.0774 5.66567 51.0774 5.62075C51.0774 5.56705 51.1016 5.52213 51.1255 5.52213C51.1544 5.52213 51.1738 5.53969 51.1738 5.55776ZM39.3967 5.85465C39.3628 5.87221 39.2956 5.87221 39.2522 5.85465C39.2042 5.82729 39.2331 5.80973 39.31 5.80973C39.3917 5.80973 39.4255 5.82729 39.3967 5.85465ZM38.4532 5.9352C38.4388 5.96205 38.3954 5.97134 38.3618 5.94449C38.3232 5.91713 38.3377 5.89028 38.3907 5.89028C38.4438 5.8815 38.4724 5.90835 38.4532 5.9352ZM80.5804 5.97134C80.5804 6.01626 80.561 6.06118 80.5371 6.06118C80.5082 6.06118 80.4743 6.01626 80.4599 5.97134C80.4454 5.91713 80.4649 5.8815 80.5032 5.8815C80.5465 5.8815 80.5804 5.91713 80.5804 5.97134ZM37.9286 6.03434C37.8805 6.05189 37.8036 6.05189 37.7603 6.03434C37.7119 6.00697 37.7506 5.98941 37.8419 5.98941C37.9336 5.98941 37.9719 6.00697 37.9286 6.03434ZM37.2309 6.12418C37.1682 6.14173 37.0623 6.14173 36.9901 6.12418C36.9132 6.10611 36.966 6.08803 37.0959 6.08803C37.2309 6.08803 37.2884 6.10611 37.2309 6.12418ZM46.1249 6.26772C46.0625 6.38441 46 6.29457 46.048 6.1598C46.0625 6.10611 46.1008 6.08803 46.1297 6.11488C46.1586 6.15103 46.1586 6.20473 46.1249 6.26772ZM36.5088 6.21402C36.4463 6.23209 36.3405 6.23209 36.2683 6.21402C36.1911 6.19595 36.2441 6.17788 36.3741 6.17788C36.5088 6.17788 36.5666 6.19595 36.5088 6.21402ZM88.536 6.21402C88.5024 6.23209 88.4446 6.23209 88.4157 6.21402C88.3819 6.18665 88.406 6.1691 88.4735 6.1691C88.5407 6.1691 88.5649 6.18665 88.536 6.21402ZM93.1083 6.21402C93.0747 6.23209 93.0169 6.23209 92.988 6.21402C92.9541 6.18665 92.9783 6.1691 93.0458 6.1691C93.113 6.1691 93.1372 6.18665 93.1083 6.21402ZM35.7628 6.30386C35.6859 6.32193 35.5704 6.32193 35.4982 6.30386C35.4212 6.28579 35.4837 6.26772 35.6281 6.26772C35.7726 6.26772 35.835 6.28579 35.7628 6.30386ZM89.6911 6.30386C89.6044 6.32193 89.46 6.32193 89.3784 6.30386C89.2917 6.28579 89.3589 6.26772 89.5322 6.26772C89.7055 6.26772 89.773 6.28579 89.6911 6.30386ZM93.9265 6.30386C93.864 6.32193 93.7579 6.32193 93.6857 6.30386C93.6087 6.28579 93.6618 6.26772 93.7918 6.26772C93.9265 6.26772 93.9842 6.28579 93.9265 6.30386ZM34.9205 6.3937C34.8869 6.41178 34.8291 6.41178 34.8002 6.3937C34.7666 6.36685 34.7908 6.34878 34.858 6.34878C34.9255 6.34878 34.9494 6.36685 34.9205 6.3937ZM35.1324 6.38441C35.1179 6.41178 35.0746 6.42055 35.041 6.3937C35.0024 6.36685 35.0169 6.33949 35.0699 6.33949C35.1227 6.33071 35.1516 6.35756 35.1324 6.38441ZM90.5815 6.3937C90.5093 6.41178 90.3793 6.41178 90.2926 6.3937C90.206 6.37563 90.2638 6.35756 90.4226 6.35756C90.5815 6.35756 90.6537 6.37563 90.5815 6.3937ZM94.6002 6.3937C94.5378 6.41178 94.4317 6.41178 94.3594 6.3937C94.2825 6.37563 94.3356 6.35756 94.4655 6.35756C94.6002 6.35756 94.658 6.37563 94.6002 6.3937ZM91.4719 6.48355C91.4094 6.50162 91.3033 6.50162 91.2311 6.48355C91.1542 6.46547 91.2072 6.4474 91.3372 6.4474C91.4719 6.4474 91.5297 6.46547 91.4719 6.48355ZM92.242 6.57339C92.1793 6.59146 92.0832 6.59146 92.0254 6.57339C91.9626 6.55532 92.011 6.53724 92.1312 6.53724C92.2515 6.53724 92.2998 6.55532 92.242 6.57339ZM93.1083 6.66323C93.0458 6.6813 92.9397 6.6813 92.8675 6.66323C92.7906 6.64516 92.8436 6.62709 92.9736 6.62709C93.1083 6.62709 93.166 6.64516 93.1083 6.66323ZM18.8313 7.5885C18.8313 7.64271 18.7205 7.66956 18.5808 7.66079L18.3258 7.65149L18.5425 7.5885C18.6627 7.55287 18.7735 7.51673 18.7974 7.51673C18.8169 7.50795 18.8313 7.5348 18.8313 7.5885ZM18.9754 7.5348C18.9754 7.56165 18.9563 7.60657 18.9274 7.63342C18.9032 7.66079 18.8793 7.64271 18.8793 7.59779C18.8793 7.54358 18.9032 7.49866 18.9274 7.49866C18.9563 7.49866 18.9754 7.51673 18.9754 7.5348ZM18.3017 7.62464C18.3017 7.65149 18.2825 7.69641 18.2536 7.72326C18.2295 7.75063 18.2056 7.73256 18.2056 7.68764C18.2056 7.63342 18.2295 7.5885 18.2536 7.5885C18.2825 7.5885 18.3017 7.60657 18.3017 7.62464ZM43.2229 7.74133C43.1746 7.75941 43.0977 7.75941 43.0544 7.74133C43.0063 7.71449 43.0446 7.69641 43.1363 7.69641C43.2277 7.69641 43.266 7.71449 43.2229 7.74133ZM12.4157 9.25987C12.4013 9.28724 12.358 9.29602 12.3241 9.26917C12.2858 9.24232 12.3002 9.21495 12.353 9.21495C12.406 9.20617 12.4349 9.23302 12.4157 9.25987ZM12.6082 9.25987C12.5938 9.28724 12.5504 9.29602 12.5165 9.26917C12.4782 9.24232 12.4927 9.21495 12.5454 9.21495C12.5985 9.20617 12.6274 9.23302 12.6082 9.25987ZM11.8861 9.35901C11.79 9.37708 11.6359 9.37708 11.5492 9.35901C11.4676 9.34094 11.5492 9.32287 11.7322 9.32287C11.92 9.32287 11.9872 9.34094 11.8861 9.35901ZM10.5049 9.52991C8.46419 9.82629 6.19736 10.2936 6.12987 10.4283C6.1157 10.4645 6.36094 10.4645 6.67866 10.4283C6.99639 10.4015 7.46325 10.3473 7.71348 10.3292C7.96372 10.3024 8.29588 10.2574 8.44975 10.2306C8.6711 10.1944 8.72414 10.2125 8.72414 10.3204C8.72414 10.3922 8.69526 10.4733 8.66638 10.5001C8.60389 10.545 9.06575 10.5094 9.80701 10.4103C10.0189 10.3741 10.1825 10.3741 10.1681 10.4015C10.1392 10.4552 7.93011 10.8058 7.44881 10.8326C7.31883 10.8414 7.12136 10.8775 7.01555 10.9225C6.90973 10.9586 6.61617 11.0216 6.36594 11.0485C5.83159 11.1202 5.79298 11.129 5.25891 11.255C5.03256 11.3087 4.58985 11.381 4.27213 11.4078C3.95469 11.4347 3.3384 11.4977 2.9007 11.5514C2.19304 11.6505 2.06806 11.6412 1.7309 11.4977C1.44706 11.381 1.33625 11.2911 1.28348 11.129C1.13434 10.7066 1.28348 10.6349 2.39523 10.5992C2.84765 10.5812 3.68029 10.482 4.24825 10.3834C5.12421 10.2306 8.15146 9.77208 10.1197 9.49377C10.423 9.44885 10.813 9.41271 10.9863 9.41271C11.1596 9.41271 10.9429 9.46692 10.5049 9.52991ZM1.84171 9.9342C1.84171 9.9972 1.54815 10.1046 1.38457 10.1046C1.2932 10.0958 1.2932 10.0958 1.37957 9.96983C1.46622 9.84436 1.84171 9.817 1.84171 9.9342ZM9.01298 10.3024C9.01298 10.3473 8.9791 10.3741 8.94077 10.3741C8.90217 10.3741 8.85412 10.3741 8.83496 10.3834C8.81552 10.3834 8.79163 10.3473 8.78191 10.3024C8.77219 10.2487 8.82052 10.2218 8.89273 10.2306C8.95994 10.2306 9.01298 10.2667 9.01298 10.3024ZM10.3461 10.4283C10.3316 10.4552 10.2883 10.4645 10.2547 10.4371C10.2161 10.4103 10.2306 10.3834 10.2836 10.3834C10.3364 10.3741 10.3653 10.4015 10.3461 10.4283Z" fill="#F67124"/>
</g>
</svg>
