<svg width="28" height="28" viewBox="0 0 28 28" fill="none" xmlns="http://www.w3.org/2000/svg">
<g id="fi_2448367" clip-path="url(#clip0_245_2535)">
<g id="Group">
<path id="Vector" d="M7.85297 15.9631C7.85297 16.1896 8.03655 16.3732 8.26312 16.3732H10.842C10.6698 16.8678 10.2016 17.2237 9.65208 17.2237H8.80048C8.54126 17.2237 8.31021 17.3687 8.19744 17.6021C8.08473 17.8356 8.11486 18.1067 8.27614 18.3097L10.7802 21.462C10.8612 21.5639 10.9809 21.6171 11.1017 21.6171C11.1911 21.6171 11.2811 21.588 11.3565 21.5281C11.5339 21.3872 11.5635 21.1291 11.4226 20.9518L9.11275 18.044H9.65208C10.6568 18.044 11.4975 17.3254 11.691 16.3733H12.4099C12.6364 16.3733 12.82 16.1896 12.82 15.9631C12.82 15.7366 12.6364 15.553 12.4099 15.553H11.7008C11.6459 15.2444 11.5211 14.9545 11.3333 14.7025H12.4099C12.6365 14.7025 12.8201 14.5189 12.8201 14.2924C12.8201 14.0658 12.6365 13.8822 12.4099 13.8822L8.26318 13.8821C8.03661 13.8821 7.85302 14.0658 7.85302 14.2923C7.85302 14.5188 8.03661 14.7025 8.26318 14.7025H9.1478L9.14884 14.7025H9.70304C10.026 14.7028 10.3297 14.8286 10.5581 15.057C10.6991 15.198 10.8007 15.3678 10.8582 15.553H8.26312C8.03655 15.5529 7.85297 15.7365 7.85297 15.9631Z" fill="#F8DF14"/>
<path id="Vector_2" d="M27.7677 24.1418L25.7797 20.6985C25.6664 20.5022 25.4155 20.435 25.2194 20.5483C25.0232 20.6616 24.956 20.9125 25.0693 21.1086L27.0573 24.5519C27.3097 24.9892 27.1593 25.5504 26.7221 25.8029C26.2848 26.0553 25.7235 25.905 25.4711 25.4677L21.8902 19.2655C21.768 19.0537 21.7355 18.8069 21.7988 18.5706C21.8621 18.3344 22.0136 18.1368 22.2255 18.0146C22.4372 17.8923 22.6839 17.8597 22.9204 17.9231C23.1566 17.9864 23.3542 18.1379 23.4765 18.3497L24.1122 19.451C24.2254 19.6472 24.4762 19.7144 24.6725 19.6011C24.8686 19.4878 24.9359 19.237 24.8226 19.0408L24.1869 17.9396C23.955 17.538 23.5806 17.2507 23.1326 17.1307C22.6846 17.0107 22.2169 17.0722 21.8153 17.3041C21.4136 17.5359 21.1264 17.9103 21.0064 18.3583C20.8864 18.8062 20.9479 19.2741 21.1798 19.6756L21.7261 20.6219H20.6665C20.576 19.1357 19.3973 16.7522 17.1579 13.5302C16.0035 11.8694 14.8393 10.3836 14.1979 9.5852C14.5958 9.47363 14.9263 9.20014 15.1139 8.84035C16.0391 8.95454 16.7766 9.83348 17.0524 10.719C17.1084 10.8987 17.1586 11.0805 17.2117 11.273C17.4162 12.0138 17.6276 12.7799 18.1763 13.3858C18.2572 13.4752 18.3686 13.5206 18.4804 13.5206C18.5786 13.5206 18.6771 13.4855 18.7556 13.4144C18.9235 13.2624 18.9364 13.0029 18.7843 12.8351C18.3665 12.3737 18.1897 11.733 18.0025 11.0547C17.9499 10.8643 17.8955 10.6674 17.8356 10.475C17.6265 9.8034 17.2368 9.18871 16.7383 8.74416C16.2973 8.35085 15.7992 8.1106 15.2758 8.03431C15.256 7.79396 15.1788 7.56969 15.0578 7.37533C15.6526 7.01554 16.2161 6.96014 16.7705 7.20678C17.0193 7.31769 17.2553 7.48771 17.5052 7.6678C17.9226 7.96847 18.3541 8.27942 18.9138 8.36725C18.9354 8.37064 18.9568 8.37228 18.9779 8.37228C19.1764 8.37228 19.3508 8.22791 19.3826 8.02562C19.4178 7.80184 19.2648 7.59195 19.041 7.55684C18.6748 7.49936 18.3397 7.25786 17.9848 7.0022C17.7123 6.80581 17.4304 6.60276 17.1043 6.4574C16.2362 6.07109 15.3134 6.19441 14.4207 6.81128C14.2915 6.75129 14.1524 6.70929 14.0064 6.68867C14.225 6.42929 14.4299 6.13906 14.6153 5.82401C14.7197 5.64617 14.8133 5.46843 14.8934 5.29578C14.9888 5.09032 14.8995 4.84642 14.694 4.75104C14.4886 4.65572 14.2447 4.74497 14.1493 4.95043C14.0802 5.09935 13.999 5.25351 13.9081 5.40838C13.6047 5.92414 13.2467 6.35858 12.8673 6.67374H11.862C11.9127 6.49284 11.9605 6.29853 12.0049 6.09083C12.0946 5.6705 12.1557 5.26603 12.1864 4.88853C12.2049 4.66272 12.0369 4.46475 11.8111 4.44632C11.5858 4.42745 11.3874 4.59595 11.3689 4.8217C11.3409 5.16421 11.285 5.53362 11.2026 5.91955C11.1434 6.1966 11.0765 6.45188 11.0057 6.67369H9.66738C9.59705 6.45341 9.53016 6.19818 9.47066 5.9196C9.38798 5.5322 9.33231 5.163 9.30507 4.82235C9.28697 4.59655 9.09015 4.42817 8.86347 4.44621C8.63766 4.46431 8.46928 4.66196 8.48733 4.88776C8.51746 5.26385 8.57838 5.66859 8.66851 6.09088C8.71302 6.29919 8.76077 6.49338 8.81124 6.67363H7.80554C7.42606 6.35842 7.06813 5.92398 6.76484 5.40844C6.01606 4.13444 6.03285 3.09817 6.81356 2.41145C7.08252 2.17449 7.50224 1.89772 8.03889 2.22699C8.55809 2.545 9.16163 2.56135 9.65332 2.27091C10.0918 2.01213 10.5808 2.0118 11.0196 2.27085C11.5112 2.56124 12.115 2.54489 12.635 2.22683C12.8916 2.06922 13.298 1.91697 13.8599 2.41135C14.1567 2.67297 14.3453 2.98666 14.4204 3.34371C14.4671 3.56542 14.6845 3.70722 14.9062 3.66063C15.1279 3.61398 15.2698 3.39649 15.2231 3.17478C15.1108 2.64092 14.8346 2.17701 14.402 1.79573C13.7044 1.18197 12.9245 1.0867 12.2065 1.52738C11.9464 1.68635 11.6659 1.69986 11.4368 1.56456C11.0894 1.35943 10.7194 1.25547 10.3368 1.25547C9.95399 1.25547 9.5837 1.35943 9.23627 1.56456C9.00713 1.69986 8.72697 1.68646 8.46775 1.52765C7.74877 1.08649 6.96877 1.1817 6.27167 1.79567C5.76499 2.24138 5.46557 2.81992 5.40591 3.46884C5.34006 4.18382 5.55942 4.97624 6.05784 5.82428C6.24306 6.13917 6.44798 6.42929 6.66656 6.68862C5.94709 6.79039 5.39185 7.40989 5.39185 8.15698C5.39185 8.8362 5.8509 9.40987 6.47494 9.58498C6.08113 10.075 5.49106 10.8229 4.83016 11.7079C4.69459 11.8895 4.73183 12.1465 4.91334 12.282C4.98706 12.337 5.07313 12.3635 5.1585 12.3635C5.28346 12.3635 5.40689 12.3066 5.48745 12.1988C6.41243 10.9602 7.19566 9.99459 7.48666 9.64027H13.1866C13.6067 10.152 15.0529 11.9385 16.4846 13.9983C19.0932 17.7515 19.7705 19.6612 19.8454 20.6218H14.6683C13.7111 20.6218 12.9324 21.4007 12.9324 22.3582C12.9324 22.8893 13.1725 23.3652 13.5494 23.6839C13.1723 24.0026 12.9322 24.4786 12.9322 25.0099C12.9322 25.3458 13.0284 25.6595 13.1942 25.9255H5.50052C4.47108 25.9255 3.2819 25.2905 2.55992 24.6612C1.76629 23.9695 0.820251 22.7385 0.820251 20.8029C0.820251 19.8854 1.43324 17.9191 4.3535 13.7624C4.48371 13.577 4.43903 13.3212 4.2537 13.191C4.06825 13.0608 3.81248 13.1055 3.68232 13.2908C1.23888 16.7688 -6.10352e-05 19.2963 -6.10352e-05 20.8029C-6.10352e-05 23.0469 1.09894 24.4759 2.02092 25.2797C3.04275 26.1704 4.40857 26.746 5.50052 26.746L21.8297 26.7461C22.787 26.7461 23.5658 25.9673 23.5658 25.01C23.5658 24.4788 23.3257 24.0027 22.9486 23.684C23.0758 23.5766 23.1872 23.4513 23.2793 23.312L24.7606 25.8779C25.0818 26.4342 25.6666 26.7456 26.2671 26.7456C26.5614 26.7456 26.8595 26.6708 27.1322 26.5133C27.9612 26.0347 28.2463 24.9708 27.7677 24.1418ZM6.21195 8.15714C6.21195 7.79156 6.50939 7.49417 6.87492 7.49417H13.7979C14.1635 7.49417 14.4609 7.79161 14.4609 8.15714C14.4609 8.52273 14.1635 8.82012 13.7979 8.82012H6.87492C6.50939 8.82012 6.21195 8.52267 6.21195 8.15714ZM22.7455 25.01C22.7455 25.515 22.3346 25.9258 21.8297 25.9258H15.1759C15.1746 25.9258 15.1734 25.9256 15.1722 25.9256H14.6644C14.1612 25.9236 13.7523 25.5138 13.7523 25.01C13.7523 24.505 14.1631 24.0942 14.668 24.0942H21.8295C22.3346 24.0942 22.7455 24.505 22.7455 25.01ZM21.8295 23.2739H14.668C14.1631 23.2739 13.7524 22.8632 13.7524 22.3583C13.7524 21.8532 14.1631 21.4423 14.6679 21.4423H21.8294C21.9821 21.4423 22.1301 21.4802 22.2629 21.5516L22.7441 22.3852C22.7297 22.8775 22.3256 23.2739 21.8295 23.2739Z" fill="#F8DF14"/>
</g>
</g>
<defs>
<clipPath id="clip0_245_2535">
<rect width="28" height="28" fill="white" transform="translate(-6.10352e-05 0.000305176)"/>
</clipPath>
</defs>
</svg>
