<svg width="30" height="30" viewBox="0 0 30 30" fill="none" xmlns="http://www.w3.org/2000/svg">
<g id="fi_125842" clip-path="url(#clip0_245_2516)">
<g id="Group">
<g id="Group_2">
<path id="Vector" d="M22.3605 6.05591C23.8905 6.05591 25.1336 4.8068 25.1336 3.27082C25.1336 1.73483 23.8905 0.485718 22.3605 0.485718C20.8305 0.485718 19.5873 1.74081 19.5873 3.27082C19.5873 4.80083 20.8305 6.05591 22.3605 6.05591ZM22.3605 1.92608C23.0956 1.92608 23.6992 2.52972 23.6992 3.27679C23.6992 4.02387 23.1016 4.62751 22.3605 4.62751C21.6194 4.62751 21.0217 4.01789 21.0217 3.27082C21.0217 2.52374 21.6194 1.92608 22.3605 1.92608Z" fill="#F8DF14"/>
<path id="Vector_2" d="M6.00844 24.0156C4.47843 24.0156 3.23529 25.2647 3.23529 26.8007C3.23529 28.3367 4.47843 29.5858 6.00844 29.5858C7.53845 29.5858 8.78158 28.3367 8.78158 26.8007C8.78158 25.2647 7.53247 24.0156 6.00844 24.0156ZM6.00844 28.1514C5.27331 28.1514 4.66968 27.5478 4.66968 26.8007C4.66968 26.0596 5.26734 25.45 6.00844 25.45C6.74954 25.45 7.3472 26.0536 7.3472 26.8007C7.34122 27.5418 6.74356 28.1514 6.00844 28.1514Z" fill="#F8DF14"/>
<path id="Vector_3" d="M12.8636 12.8274C13.0011 12.9649 13.1864 13.0366 13.3716 13.0366C13.5569 13.0366 13.7362 12.9649 13.8796 12.8274C14.1605 12.5465 14.1605 12.0923 13.8796 11.8114L12.3855 10.3172L13.8796 8.82307C14.1605 8.54217 14.1605 8.08795 13.8796 7.80705C13.5987 7.52615 13.1445 7.52615 12.8636 7.80705L11.3695 9.3012L9.87532 7.80705C9.59442 7.52615 9.1402 7.52615 8.8593 7.80705C8.5784 8.08795 8.5784 8.54217 8.8593 8.82307L10.3534 10.3172L8.8593 11.8114C8.5784 12.0923 8.5784 12.5465 8.8593 12.8274C8.99676 12.9649 9.18203 13.0366 9.36731 13.0366C9.55258 13.0366 9.73188 12.9649 9.87532 12.8274L11.3695 11.3332L12.8636 12.8274Z" fill="#F8DF14"/>
<path id="Vector_4" d="M24.8707 19.312C24.5898 19.0311 24.1356 19.0311 23.8547 19.312L22.3605 20.8061L20.8663 19.312C20.5854 19.0311 20.1312 19.0311 19.8503 19.312C19.5694 19.5929 19.5694 20.0471 19.8503 20.328L21.3445 21.8222L19.8503 23.3163C19.5694 23.5972 19.5694 24.0514 19.8503 24.3323C19.9878 24.4698 20.1731 24.5415 20.3583 24.5415C20.5436 24.5415 20.7229 24.4698 20.8663 24.3323L22.3605 22.8382L23.8547 24.3323C23.9921 24.4698 24.1774 24.5415 24.3627 24.5415C24.5479 24.5415 24.7272 24.4698 24.8707 24.3323C25.1516 24.0514 25.1516 23.5972 24.8707 23.3163L23.3765 21.8222L24.8707 20.328C25.1516 20.0411 25.1516 19.5929 24.8707 19.312Z" fill="#F8DF14"/>
<path id="Vector_5" d="M16.3719 23.0116C16.091 22.7307 15.6368 22.7307 15.3559 23.0116L13.8617 24.5057L12.3676 23.0116C12.0867 22.7307 11.6324 22.7307 11.3515 23.0116C11.0706 23.2925 11.0706 23.7467 11.3515 24.0276L12.8457 25.5218L11.3515 27.0159C11.0706 27.2968 11.0706 27.751 11.3515 28.0319C11.489 28.1694 11.6743 28.2411 11.8596 28.2411C12.0448 28.2411 12.2241 28.1694 12.3676 28.0319L13.8617 26.5378L15.3559 28.0319C15.4933 28.1694 15.6786 28.2411 15.8639 28.2411C16.0492 28.2411 16.2285 28.1694 16.3719 28.0319C16.6528 27.751 16.6528 27.2968 16.3719 27.0159L14.8777 25.5218L16.3719 24.0276C16.6468 23.7467 16.6468 23.2925 16.3719 23.0116Z" fill="#F8DF14"/>
<path id="Vector_6" d="M11.7281 17.6207C12.1225 17.6207 12.4452 17.2979 12.4452 16.9035C12.4452 16.509 12.1225 16.1863 11.7281 16.1863C11.3336 16.1863 11.0109 16.509 11.0109 16.9035C11.0109 17.2979 11.3276 17.6207 11.7281 17.6207Z" fill="#F8DF14"/>
<path id="Vector_7" d="M6.41487 19.7364C6.5344 19.8141 6.67186 19.8559 6.80933 19.8559C7.04241 19.8559 7.26953 19.7423 7.40699 19.5332C7.62214 19.2045 7.5325 18.7562 7.20378 18.541C6.87507 18.3259 6.42682 18.4155 6.21167 18.7443C5.99053 19.073 6.08018 19.5212 6.41487 19.7364Z" fill="#F8DF14"/>
<path id="Vector_8" d="M8.6561 16.6703C8.29153 16.8317 8.13016 17.256 8.29153 17.6146C8.41106 17.8836 8.67403 18.039 8.94895 18.039C9.04458 18.039 9.14618 18.021 9.24181 17.9792C9.60638 17.8178 9.76775 17.3935 9.60638 17.0349C9.43898 16.6703 9.0147 16.5089 8.6561 16.6703Z" fill="#F8DF14"/>
<path id="Vector_9" d="M14.5669 17.6207C14.963 17.6207 15.2841 17.2996 15.2841 16.9035C15.2841 16.5074 14.963 16.1863 14.5669 16.1863C14.1708 16.1863 13.8497 16.5074 13.8497 16.9035C13.8497 17.2996 14.1708 17.6207 14.5669 17.6207Z" fill="#F8DF14"/>
<path id="Vector_10" d="M6.00845 22.5394C6.1997 22.5394 6.38498 22.4617 6.51646 22.3302C6.64795 22.1987 6.72565 22.0134 6.72565 21.8222C6.72565 21.6309 6.64795 21.4456 6.51646 21.3142C6.38498 21.1827 6.1997 21.105 6.00845 21.105C5.8172 21.105 5.63193 21.1827 5.50044 21.3142C5.36896 21.4456 5.29126 21.6309 5.29126 21.8222C5.29126 22.0134 5.36896 22.1987 5.50044 22.3302C5.63193 22.4617 5.8172 22.5394 6.00845 22.5394Z" fill="#F8DF14"/>
<path id="Vector_11" d="M25.6356 10.6579L22.8625 7.88475C22.5816 7.60385 22.1274 7.60385 21.8465 7.88475L19.0733 10.6579C18.7924 10.9388 18.7924 11.393 19.0733 11.6739C19.3542 11.9548 19.8084 11.9548 20.0893 11.6739L21.6373 10.126V11.9787C21.6373 14.2976 19.7367 16.1803 17.3999 16.1803C17.0054 16.1803 16.6827 16.503 16.6827 16.8975C16.6827 17.2919 17.0054 17.6147 17.3999 17.6147C20.5256 17.6147 23.0717 15.0866 23.0717 11.9787V10.12L24.6196 11.6679C24.7571 11.8054 24.9424 11.8771 25.1276 11.8771C25.3129 11.8771 25.4922 11.8054 25.6356 11.6679C25.9165 11.393 25.9165 10.9388 25.6356 10.6579Z" fill="#F8DF14"/>
</g>
</g>
</g>
<defs>
<clipPath id="clip0_245_2516">
<rect width="30" height="30" fill="blue"/>
<rect width="29.1001" height="29.1001" fill="white" transform="translate(-0.00933838 0.485718)"/>
</clipPath>
</defs>
</svg>
