<svg width="21" height="19" viewBox="0 0 21 19" fill="none" xmlns="http://www.w3.org/2000/svg">
<path d="M19.6342 8.79857L15.7671 12.1355L16.9453 17.1259C17.0103 17.3968 16.9935 17.6809 16.8972 17.9423C16.8008 18.2037 16.6291 18.4307 16.4038 18.5945C16.1785 18.7584 15.9097 18.8518 15.6313 18.863C15.3529 18.8742 15.0775 18.8026 14.8398 18.6573L10.4999 15.9864L6.15752 18.6573C5.91985 18.8018 5.64474 18.8727 5.36685 18.8611C5.08895 18.8495 4.8207 18.756 4.59587 18.5922C4.37104 18.4285 4.19968 18.2019 4.10336 17.941C4.00705 17.68 3.9901 17.3965 4.05463 17.1259L5.23713 12.1355L1.36995 8.79857C1.15966 8.61682 1.00757 8.37715 0.932681 8.10948C0.857793 7.84181 0.863422 7.55801 0.948866 7.29352C1.03431 7.02903 1.19578 6.79558 1.41311 6.62231C1.63044 6.44904 1.89401 6.34364 2.17088 6.31927L7.2412 5.91021L9.19713 1.17677C9.303 0.918803 9.48319 0.698142 9.7148 0.542845C9.9464 0.387547 10.2189 0.304626 10.4978 0.304626C10.7766 0.304626 11.0492 0.387547 11.2808 0.542845C11.5124 0.698142 11.6926 0.918803 11.7985 1.17677L13.7535 5.91021L18.8239 6.31927C19.1013 6.34274 19.3656 6.44755 19.5837 6.62057C19.8019 6.7936 19.9641 7.02715 20.05 7.29196C20.136 7.55677 20.1419 7.84106 20.0671 8.10922C19.9922 8.37738 19.8398 8.61747 19.6291 8.79943L19.6342 8.79857Z" fill="url(#paint0_linear_708_20484)"/>
<defs>
<linearGradient id="paint0_linear_708_20484" x1="23.831" y1="18.8642" x2="-3.9093" y2="18.5771" gradientUnits="userSpaceOnUse">
<stop stop-color="#8C6115"/>
<stop offset="0.179091" stop-color="#E5C384"/>
<stop offset="0.397356" stop-color="#E4C791"/>
<stop offset="0.636649" stop-color="#FFEAC4"/>
<stop offset="0.828211" stop-color="#E6B966"/>
<stop offset="1" stop-color="#996F25"/>
</linearGradient>
</defs>
</svg>
