<svg width="428" height="2056" viewBox="0 0 428 2056" fill="none" xmlns="http://www.w3.org/2000/svg">
<g opacity="0.3">
<path d="M535.436 278.019C535.436 253.187 532.757 227.369 527.355 201.779C521.923 176.037 514.002 150.565 503.142 123.905C494.249 102.073 483.229 79.1876 469.456 53.9414L469.206 54.2567C499.29 109.407 517.129 154.951 527.046 201.93C539.697 261.862 537.379 323.038 520.688 369.775C483.97 472.581 391.441 487.126 339.556 486.646C326.47 486.524 312.99 485.863 299.956 485.224C243.738 482.465 185.606 479.613 135.59 517.93C117.673 531.655 101.635 550.938 87.9198 575.241C74.7152 598.639 64.2894 625.531 56.9327 655.17C49.5754 684.81 45.7161 715.459 45.4624 746.28C45.2045 778.292 48.8635 808.856 56.353 837.135C62.8626 861.71 72.0799 885.312 83.75 907.281C94.387 927.303 107.403 946.599 122.437 964.642C147.376 994.575 178.639 1022.16 218.014 1048.97C230.668 1057.59 243.733 1066.03 256.367 1074.19C310.422 1109.11 366.321 1145.22 409.088 1207.09C444.412 1258.2 470.731 1340.52 449.902 1409.2C426.345 1486.86 356.209 1503.78 302.179 1480.27C275.434 1468.63 249.903 1449.78 225.215 1431.55C199.871 1412.84 173.664 1393.48 146.119 1381.91C128.485 1374.51 111.08 1371.78 95.785 1374C77.5502 1376.66 62.5485 1386.13 51.1948 1402.14C36.3372 1423.1 29.1091 1454.45 30.8405 1490.43C32.427 1523.37 41.3344 1557.3 55.2791 1583.51C75.4259 1621.38 103.133 1648.14 129.927 1674.01C139.757 1683.51 149.92 1693.32 159.561 1703.54C242.994 1791.99 302.443 1929.6 322.657 2081.07L322.979 2080.97C317.983 2043.54 310.478 2006.39 300.671 1970.54C290.978 1935.09 278.986 1900.75 265.036 1868.46C251.084 1836.16 235.112 1805.79 217.564 1778.17C199.813 1750.23 180.361 1725 159.747 1703.14C150.101 1692.92 139.934 1683.09 130.101 1673.59C103.329 1647.74 75.6454 1621.01 55.5316 1583.2C28.2739 1531.96 18.9501 1448.31 51.4162 1402.5C80.919 1360.88 127.412 1374.58 146.033 1382.39C173.549 1393.94 199.742 1413.29 225.073 1431.99C249.774 1450.23 275.317 1469.09 302.088 1480.74C356.248 1504.3 426.563 1487.31 450.194 1409.41C459.803 1377.74 460.095 1340.54 451.039 1301.85C443.115 1267.99 428.295 1234.21 409.313 1206.74C366.504 1144.8 310.578 1108.67 256.495 1073.74C243.862 1065.58 230.798 1057.14 218.147 1048.52C162.914 1010.91 86.0808 948.056 56.6545 836.947C25.8636 720.692 62.0789 574.8 135.736 518.371C185.679 480.111 243.768 482.961 299.946 485.717C312.98 486.357 326.464 487.018 339.556 487.139C378.732 487.503 414.777 479.309 443.797 463.446C479.914 443.704 505.882 412.267 520.974 370.01C530.576 343.121 535.436 311.465 535.436 278.019Z" fill="#FBB040"/>
<path d="M519.986 291.906C519.986 267.118 517.175 241.425 511.778 217.117C498.24 156.15 475.33 99.6233 454.924 51.425L454.651 51.6922C475.048 99.8657 497.944 156.362 511.47 217.275C524.082 274.067 522.154 333.035 506.185 379.059C471.862 477.955 384.346 493.36 335.234 493.741C322.849 493.837 310.094 493.42 297.759 493.016C244.671 491.282 189.776 489.487 142.588 526.868C125.667 540.275 110.551 558.978 97.6574 582.456C85.2268 605.09 75.452 631.042 68.6032 659.59C61.7454 688.172 58.2187 717.709 58.1206 747.38C58.0225 778.212 61.6491 807.68 68.9125 834.941C75.23 858.648 84.1302 881.446 95.3661 902.702C105.604 922.069 118.114 940.772 132.547 958.301C156.432 987.306 186.398 1014.23 224.158 1040.59C237.227 1049.72 250.785 1058.57 263.894 1067.12C314.957 1100.44 367.758 1134.88 406.855 1195.4C440.495 1247.46 463.782 1332.99 439.968 1406.68C415.684 1481.83 349.295 1499.28 296.263 1477.67C270.23 1467.07 245.337 1449.55 221.263 1432.62C196.614 1415.28 171.126 1397.35 144.366 1386.79C127.192 1380.01 110.273 1377.66 95.4384 1380C77.7134 1382.8 63.0891 1392.06 51.9723 1407.54C20.3397 1451.55 28.0003 1532.44 53.24 1582.13C68.3758 1611.94 87.8914 1634.15 106.726 1653.73C111.884 1659.08 117.188 1664.43 122.317 1669.61C131.479 1678.86 140.953 1688.42 149.932 1698.36C181.313 1733.14 209.138 1775.83 232.634 1825.28C266.265 1896.04 290.006 1979.11 301.295 2065.54L301.614 2065.44C290.315 1978.95 266.554 1895.8 232.898 1824.99C209.382 1775.5 181.532 1732.76 150.124 1697.96C141.139 1688.01 131.662 1678.45 122.497 1669.2C117.369 1664.02 112.065 1658.67 106.909 1653.32C88.0972 1633.77 68.6056 1611.59 53.4967 1581.83C28.3455 1532.31 20.6956 1451.73 52.1919 1407.89C72.4673 1379.68 106.034 1372.16 144.285 1387.26C171.016 1397.81 196.49 1415.73 221.126 1433.06C245.213 1450.01 270.119 1467.53 296.179 1478.15C323.324 1489.21 353.479 1489.41 378.907 1478.69C407.804 1466.5 429.021 1441.68 440.258 1406.9C450.932 1373.87 452.792 1335.28 445.634 1295.31C439.146 1259.09 425.458 1223.48 407.086 1195.05C367.943 1134.47 315.116 1100 264.025 1066.67C250.915 1058.11 237.36 1049.27 224.294 1040.14C171.366 1003.19 97.7058 941.676 69.214 834.758C39.4982 723.225 73.1678 582.432 142.738 527.306C189.852 489.983 244.705 491.776 297.752 493.51C310.091 493.913 322.849 494.331 335.237 494.234C372.322 493.947 406.377 485.563 433.724 469.988C467.855 450.548 492.331 420.033 506.474 379.289C514.678 355.639 519.193 328.838 519.895 299.629C519.957 297.067 519.986 294.491 519.986 291.906Z" fill="#FBAC3F"/>
<path d="M504.494 305.556C504.494 281.14 501.649 256.003 496.199 232.457C483.947 179.554 467.292 129.674 451.182 81.4378C447.428 70.1924 443.882 59.5705 440.387 48.9086L440.098 49.1285C443.589 59.7913 447.138 70.4142 450.893 81.6604C466.996 129.884 483.648 179.748 495.889 232.62C508.183 285.707 506.61 343.921 491.684 388.343C459.751 483.321 377.249 499.592 330.913 500.837C319.231 501.15 307.201 500.978 295.567 500.813C245.606 500.1 193.946 499.363 149.585 535.807C133.661 548.897 119.465 567.019 107.393 589.672C95.7382 611.543 86.6131 636.554 80.2728 664.012C73.9152 691.54 70.7067 719.956 70.7779 748.486C70.8371 778.157 74.4344 806.51 81.4711 832.749C87.596 855.586 96.1792 877.579 106.982 898.126C116.821 916.834 128.824 934.946 142.658 951.961C165.487 980.038 194.156 1006.29 230.302 1032.22C243.448 1041.65 257.149 1050.71 270.399 1059.47C318.766 1091.45 368.785 1124.51 404.622 1183.7C442.572 1246.37 453.022 1337.02 430.034 1404.16C405.408 1476.09 341.123 1494.27 290.347 1475.08C265.022 1465.51 240.762 1449.33 217.298 1433.69C193.349 1417.72 168.583 1401.21 142.613 1391.65C125.897 1385.5 109.464 1383.54 95.0909 1386C77.8749 1388.93 63.6294 1397.99 52.7489 1412.92C45.3491 1423.08 39.7914 1435.63 36.2299 1450.25C32.9336 1463.77 31.4128 1478.72 31.7101 1494.68C32.2725 1524.85 39.3755 1556.22 51.1994 1580.75C65.028 1609.46 83.0265 1630.95 100.416 1649.91C105.147 1655.07 110.012 1660.23 114.719 1665.21C123.209 1674.2 131.988 1683.51 140.303 1693.19C169.28 1726.92 194.907 1768.31 216.47 1816.19C247.165 1884.36 269.108 1965.21 279.929 2050L280.248 2049.91C269.42 1965.05 247.459 1884.13 216.738 1815.92C195.155 1767.98 169.505 1726.56 140.501 1692.8C132.181 1683.11 123.398 1673.8 114.904 1664.81C110.2 1659.82 105.334 1654.67 100.605 1649.51C83.2377 1630.58 65.2632 1609.11 51.4621 1580.46C28.4221 1532.66 22.4468 1455.16 52.9667 1413.29C80.0424 1376.15 120.707 1384.09 142.536 1392.13C168.479 1401.68 193.231 1418.19 217.168 1434.14C240.643 1449.8 264.918 1465.98 290.269 1475.56C341.169 1494.81 405.62 1476.54 430.32 1404.39C438.521 1380.45 442.686 1353.84 442.686 1326.04C442.686 1313.82 441.883 1301.37 440.264 1288.81C435.303 1250.32 422.73 1212.87 404.859 1183.37C368.977 1124.1 318.928 1091.02 270.529 1059.02C257.28 1050.26 243.583 1041.2 230.441 1031.77C179.817 995.458 109.328 935.297 81.772 832.566C53.1342 725.767 84.2595 590.067 149.739 536.241C194.026 499.858 245.644 500.594 295.564 501.307C307.201 501.472 319.234 501.644 330.917 501.331C365.912 500.39 397.981 491.813 423.654 476.53C455.798 457.393 478.782 427.798 491.973 388.568C499.676 365.642 503.867 339.816 504.432 311.809C504.474 309.732 504.494 307.644 504.494 305.556Z" fill="#FAA83E"/>
<path d="M488.975 319.331C488.975 295.294 486.105 270.663 480.621 247.798C471.396 209.342 460.565 171.431 450.095 134.769C441.284 103.919 432.959 74.7808 425.853 46.3929L425.551 46.5683C432.66 74.9671 440.985 104.11 449.796 134.965C460.266 171.622 471.093 209.525 480.315 247.967C492.401 298.349 491.231 354.298 477.185 397.63C447.638 488.678 370.153 505.818 326.593 507.934C315.615 508.466 304.31 508.54 293.376 508.613C246.543 508.921 198.117 509.241 156.584 544.747C141.657 557.519 128.384 575.063 117.133 596.889C106.252 617.997 97.7775 642.067 91.9451 668.434C86.0882 694.913 83.2273 722.224 83.4373 749.588C83.658 778.094 87.2224 805.341 94.0324 830.562C99.9652 852.526 108.231 873.714 118.6 893.549C128.04 911.601 139.536 929.12 152.771 945.617C174.544 972.765 201.915 998.352 236.448 1023.85C249.445 1033.44 263.048 1042.59 276.203 1051.44C322.071 1082.28 369.502 1114.18 402.391 1172C439.219 1236.74 446.338 1329.03 420.103 1401.66C395.256 1470.43 333.045 1489.35 284.433 1472.48C259.814 1463.95 236.178 1449.11 213.322 1434.76C190.075 1420.17 166.037 1405.08 140.862 1396.52C124.604 1391 108.658 1389.42 94.7461 1392C78.0399 1395.08 64.1718 1403.94 53.5282 1418.32C46.2912 1428.09 40.7824 1440.16 37.1546 1454.19C33.8319 1467.04 32.1472 1481.24 32.1472 1496.4C32.1472 1496.53 32.1472 1496.66 32.1479 1496.81C32.2041 1525.59 38.405 1555.69 49.1621 1579.38C61.683 1606.99 78.1637 1627.75 94.1083 1646.09C98.4169 1651.06 102.851 1656.02 107.139 1660.82C114.952 1669.56 123.032 1678.59 130.676 1688.01C157.244 1720.69 180.671 1760.77 200.308 1807.11C228.063 1872.61 248.209 1951.23 258.569 2034.47L258.888 2034.37C248.52 1951.07 228.359 1872.39 200.582 1806.84C180.926 1760.46 157.475 1720.34 130.88 1687.63C123.231 1678.21 115.148 1669.17 107.332 1660.42C103.045 1655.62 98.612 1650.67 94.3046 1645.7C78.3815 1627.39 61.9247 1606.64 49.4296 1579.1C28.0468 1532 23.8135 1459.12 53.7442 1418.68C80.1355 1383.04 119.609 1389.8 140.791 1397C165.939 1405.55 189.964 1420.63 213.198 1435.22C236.067 1449.58 259.716 1464.42 284.362 1472.96C310.154 1481.91 337.602 1480.79 361.642 1469.78C388.459 1457.51 408.775 1434.04 420.385 1401.89C433.394 1365.89 438.423 1324.56 434.928 1282.36C433.254 1262.1 429.643 1242.33 424.202 1223.58C418.692 1204.61 411.437 1187.15 402.635 1171.68C369.7 1113.78 322.237 1081.85 276.336 1050.98C263.185 1042.14 249.582 1032.99 236.59 1023.4C188.27 987.731 120.951 928.908 94.3333 830.375C66.7753 728.306 95.3563 597.703 156.744 545.178C198.203 509.734 246.586 509.415 293.376 509.107C304.314 509.034 315.622 508.959 326.602 508.427C359.975 506.807 389.239 498.277 413.582 483.072C443.741 464.237 465.237 435.564 477.474 397.848C484.564 375.983 488.526 350.447 488.939 324.002C488.965 322.449 488.975 320.891 488.975 319.331Z" fill="#FAA43D"/>
<path d="M473.414 333.055C473.414 309.659 470.632 285.745 465.041 263.137C459.034 238.85 452.582 214.321 446.344 190.599C432.805 139.108 420.015 90.4717 411.313 43.8727L411.001 44.0072C419.709 90.6308 432.5 139.278 446.045 190.782C452.28 214.502 458.728 239.028 464.735 263.311C476.56 311.118 475.793 364.801 462.681 406.914C436.878 489.657 372.083 511.377 322.268 515.029C311.997 515.78 301.416 516.102 291.184 516.414C247.479 517.743 202.287 519.118 163.58 553.686C149.651 566.141 137.299 583.104 126.868 604.105C116.764 624.448 108.94 647.579 103.615 672.856C98.2585 698.279 95.7279 724.464 96.0946 750.693C96.4763 778.029 100.008 804.164 106.591 828.369C112.332 849.458 120.28 869.846 130.215 888.97C139.256 906.366 150.246 923.292 162.88 939.276C183.885 965.851 209.213 990.061 242.591 1015.47C255.28 1025.13 268.616 1034.29 281.511 1043.15C324.999 1073.02 369.966 1103.91 400.157 1160.3C435.399 1226.12 439.423 1322.1 410.168 1399.14C384.042 1467.93 323.608 1484.04 278.517 1469.88C254.596 1462.39 231.581 1448.89 209.324 1435.84C186.787 1422.61 163.482 1408.94 139.108 1401.39C118.516 1395 80.1158 1389.4 54.3054 1423.7C25.2518 1462.32 27.8381 1532.49 47.1216 1578C58.3352 1604.5 73.2981 1624.55 87.7968 1642.29C91.6878 1647.05 95.6925 1651.81 99.5656 1656.42C106.699 1664.91 114.074 1673.68 121.046 1682.83C145.196 1714.46 166.425 1753.22 184.144 1798.02C208.95 1860.75 227.298 1937.13 237.203 2018.93L237.523 2018.85C227.61 1936.99 209.249 1860.55 184.422 1797.77C166.686 1752.92 145.434 1714.12 121.258 1682.45C114.281 1673.31 106.902 1664.52 99.766 1656.03C95.8935 1651.43 91.89 1646.66 88.0008 1641.89C73.5231 1624.2 58.5835 1604.17 47.3949 1577.73C28.185 1532.39 25.5982 1462.52 54.519 1424.07C80.2247 1389.91 118.509 1395.5 139.043 1401.87C163.391 1409.42 186.682 1423.09 209.207 1436.3C231.476 1449.36 254.504 1462.86 278.452 1470.37C303.383 1478.19 329.885 1476.41 353.074 1465.36C378.889 1453.07 398.73 1430.25 410.451 1399.38C417.59 1380.58 422.856 1360.31 426.103 1339.11C429.289 1318.33 430.471 1297.08 429.62 1275.95C427.871 1232.51 417.772 1192.42 400.407 1159.99C370.172 1103.51 325.168 1072.6 281.643 1042.7C268.752 1033.84 255.42 1024.68 242.737 1015.03C196.718 979.997 132.569 922.517 106.891 828.181C80.4174 730.849 106.453 605.339 163.745 554.112C202.378 519.609 247.527 518.236 291.19 516.907C301.426 516.596 312.01 516.274 322.285 515.522C353.535 513.231 380.865 504.514 403.512 489.612C431.68 471.078 451.684 443.325 462.976 407.125C469.923 384.813 473.414 359.26 473.414 333.055Z" fill="#F9A03C"/>
<path d="M457.869 347.116C457.869 324.074 455.071 300.559 449.46 278.478C446.973 268.699 444.422 258.738 441.951 249.106C424.054 179.272 405.545 107.061 396.773 41.3519L396.454 41.4501C405.23 107.201 423.745 179.432 441.649 249.285C444.119 258.917 446.671 268.877 449.158 278.656C460.677 323.99 460.31 375.408 448.179 416.199C424.633 495.185 364.359 517.398 317.944 522.125C308.378 523.097 298.526 523.668 288.992 524.22C248.415 526.569 206.456 528.998 170.576 562.626C157.643 574.766 146.214 591.149 136.604 611.322C127.275 630.903 120.102 653.094 115.284 677.279C105.253 727.619 106.626 780.503 119.149 826.177C129.861 865.215 147.473 900.135 172.989 932.936C192.92 958.554 216.988 982.121 248.734 1007.09C260.999 1016.75 273.936 1025.86 286.447 1034.68C327.637 1063.71 370.226 1093.72 397.923 1148.6C431.709 1215.55 432.638 1315.22 400.234 1396.62C374.084 1462.32 315.74 1479.31 272.6 1467.29C249.369 1460.83 226.968 1448.67 205.305 1436.91C183.483 1425.07 160.92 1412.82 137.353 1406.26C121.792 1401.92 107.223 1401.16 94.0504 1403.99C78.3625 1407.36 65.2511 1415.81 55.0814 1429.09C38.1963 1451.15 33.7627 1480.4 33.0161 1501.05C32.0768 1527.05 36.4739 1554.6 45.0798 1576.63C54.9875 1602.02 68.4321 1621.36 81.4853 1638.47C84.9618 1643.03 88.5429 1647.61 92.0068 1652.03C98.4542 1660.27 105.122 1668.79 111.415 1677.65C133.139 1708.21 152.169 1745.66 167.978 1788.94C189.825 1848.74 206.374 1922.89 215.837 2003.4L216.157 2003.31C211.5 1963.7 205.152 1925.57 197.289 1890.02C189.16 1853.26 179.395 1819.17 168.263 1788.7C152.437 1745.38 133.385 1707.89 111.635 1677.28C105.337 1668.41 98.666 1659.89 92.2156 1651.66C88.7529 1647.23 85.173 1642.66 81.6977 1638.1C68.6654 1621.01 55.2435 1601.71 45.3598 1576.37C28.3323 1532.79 27.3925 1465.93 55.2932 1429.47C80.3127 1396.79 117.409 1401.2 137.294 1406.75C160.835 1413.29 183.386 1425.54 205.196 1437.37C226.871 1449.14 249.285 1461.31 272.541 1467.77C296.618 1474.49 322.189 1472.06 344.54 1460.97C369.374 1448.64 388.727 1426.48 400.514 1396.88C408.253 1377.44 414.231 1356.58 418.281 1334.91C422.299 1313.4 424.333 1291.55 424.333 1269.94C424.333 1269.83 424.333 1269.71 424.333 1269.6C424.288 1224.06 415.245 1182.11 398.18 1148.3C370.437 1093.32 327.809 1063.28 286.583 1034.23C274.076 1025.42 261.141 1016.3 248.883 1006.65C201.468 969.352 143.906 915.111 119.449 825.989C94.0612 733.392 117.553 612.979 170.746 563.047C206.554 529.487 248.47 527.061 289.005 524.713C298.539 524.162 308.397 523.591 317.967 522.617C347.095 519.651 372.488 510.747 393.441 496.154C419.62 477.919 438.135 451.087 448.475 416.403C454.732 395.366 457.869 371.507 457.869 347.116Z" fill="#F99C3B"/>
<path d="M442.314 361.279C442.314 338.571 439.503 315.412 433.88 293.819C410.648 204.61 389.218 117.979 382.229 38.8301L381.907 38.8955C388.899 118.101 410.336 204.762 433.578 294.001C444.759 336.942 444.798 386.096 433.675 425.487C412.381 500.697 356.634 523.411 313.621 529.222C304.763 530.418 295.632 531.238 286.804 532.032C249.353 535.399 210.626 538.88 177.571 571.569C165.638 583.393 155.13 599.197 146.339 618.54C137.787 637.359 131.265 658.611 126.953 681.705C117.961 729.857 119.65 780.385 131.708 823.991C142.043 861.319 158.853 894.882 183.098 926.592C201.954 951.256 224.762 974.172 254.877 998.717C266.634 1008.3 279.074 1017.34 291.104 1026.08C330.045 1054.37 370.309 1083.62 395.689 1136.9C428.646 1206.09 426.53 1307.06 390.3 1394.11C364.075 1457.12 309.317 1474.96 266.683 1464.69C244.134 1459.27 222.338 1448.45 201.26 1437.99C180.163 1427.52 158.348 1416.69 135.598 1411.14C120.502 1407.43 106.406 1407.05 93.7023 1409.99C78.5234 1413.5 65.7907 1421.74 55.8579 1434.48C39.4078 1455.58 34.5931 1483.48 33.451 1503.17C32.0235 1527.77 35.518 1554.04 43.0392 1575.24C51.6403 1599.55 63.5665 1618.16 75.1732 1634.65C78.2422 1639.02 81.4058 1643.41 84.4653 1647.65C90.2217 1655.63 96.1748 1663.88 101.784 1672.47C121.073 1701.96 137.905 1738.09 151.813 1779.86C170.95 1837.31 185.302 1907.3 194.472 1987.87L194.792 1987.78C185.617 1907.16 171.254 1837.13 152.104 1779.63C138.18 1737.82 121.328 1701.65 102.014 1672.11C96.3991 1663.52 90.4442 1655.26 84.6842 1647.28C81.6253 1643.04 78.463 1638.67 75.3951 1634.29C63.8087 1617.83 51.9047 1599.25 43.3251 1575.01C28.6949 1533.77 28.1875 1470.63 56.0679 1434.86C80.3989 1403.66 116.307 1406.91 135.547 1411.63C158.271 1417.17 180.074 1427.99 201.16 1438.46C222.249 1448.93 244.058 1459.76 266.631 1465.18C289.863 1470.78 314.514 1467.73 336.039 1456.6C359.911 1444.25 378.77 1422.74 390.576 1394.38C398.943 1374.27 405.642 1352.85 410.483 1330.72C415.387 1308.28 418.277 1285.6 419.067 1263.3C419.213 1259.14 419.288 1255.01 419.288 1250.91C419.288 1208.11 411.291 1168.82 395.953 1136.62C370.524 1083.22 330.221 1053.95 291.244 1025.63C279.217 1016.89 266.78 1007.86 255.03 998.283C210.107 961.67 155.526 908.747 132.007 823.797C107.292 734.424 127.811 621.461 177.749 571.982C210.731 539.366 249.414 535.888 286.823 532.524C295.655 531.731 304.786 530.909 313.646 529.714C340.655 526.065 364.114 516.975 383.37 502.695C407.557 484.758 424.583 458.847 433.974 425.682C439.536 405.984 442.314 383.855 442.314 361.279Z" fill="#F89739"/>
<path d="M426.758 375.56C426.758 353.153 423.933 330.311 418.3 309.16C395.755 224.495 372.107 125.868 367.686 36.3042L367.361 36.3414C371.788 125.972 395.443 224.645 417.998 309.346C428.816 349.96 429.254 396.848 419.174 434.773C400.123 506.186 348.905 529.41 309.294 536.319C301.145 537.738 292.746 538.811 284.623 539.848C250.294 544.231 214.798 548.763 184.568 580.509C173.633 592.019 164.047 607.243 156.076 625.758C148.302 643.815 142.43 664.126 138.623 686.128C130.67 732.088 132.675 780.271 144.267 821.798C154.225 857.423 170.234 889.628 193.209 920.251C210.986 943.948 232.534 966.217 261.021 990.343C272.203 999.808 284.064 1008.74 295.538 1017.37C332.265 1045.01 370.241 1073.58 393.457 1125.2C425.168 1195.71 420.029 1300.27 380.367 1391.6C354.288 1451.64 301.506 1470.27 260.764 1462.1C238.889 1457.73 217.688 1448.24 197.185 1439.08C176.822 1429.97 155.766 1420.57 133.845 1416C111.067 1411.24 79.1835 1411.52 56.6353 1439.86C40.6225 1460.02 35.4261 1486.56 33.8867 1505.29C31.9801 1528.5 34.5723 1553.49 40.9988 1573.86C48.2933 1597.06 58.7005 1614.95 68.8612 1630.84C71.5289 1635.02 74.2808 1639.21 76.9424 1643.28C82.0013 1650.99 87.2335 1658.97 92.153 1667.28C108.997 1695.68 123.632 1730.49 135.65 1770.77C151.733 1824.65 164.336 1892.47 173.109 1972.33L173.429 1972.26C164.652 1892.35 152.041 1824.49 135.946 1770.57C123.914 1730.25 109.262 1695.39 92.3947 1666.95C87.4693 1658.63 82.2352 1650.65 77.1728 1642.93C74.5123 1638.87 71.7603 1634.67 69.0939 1630.49C58.9529 1614.64 48.5667 1596.79 41.2919 1573.65C28.8321 1534.14 30.0483 1473.97 56.8429 1440.24C79.2995 1412.01 111.088 1411.74 133.8 1416.49C155.698 1421.05 176.742 1430.46 197.093 1439.55C217.608 1448.72 238.822 1458.21 260.722 1462.59C283.118 1467.08 306.856 1463.4 327.569 1452.25C350.498 1439.89 368.85 1419.01 380.64 1391.87C389.666 1371.09 397.09 1349.11 402.704 1326.55C408.493 1303.3 412.228 1279.92 413.811 1257.06C415.472 1233.05 414.731 1209.89 411.604 1188.24C408.286 1165.22 402.269 1143.92 393.726 1124.93C370.462 1073.2 332.447 1044.59 295.681 1016.93C284.213 1008.3 272.352 999.374 261.177 989.908C218.745 953.976 167.142 902.372 144.567 821.605C120.965 737.056 138.992 629.083 184.752 580.915C214.912 549.245 250.363 544.718 284.649 540.34C292.775 539.302 301.178 538.229 309.333 536.809C349.032 529.886 400.364 506.596 419.473 434.958C424.337 416.671 426.758 396.302 426.758 375.56Z" fill="#F89338"/>
<path d="M411.207 389.982C411.207 367.84 408.366 345.256 402.72 324.501C382.206 249.053 354.746 136.831 353.144 33.7772L352.818 33.7881C353.494 77.27 358.582 124.483 368.366 178.126C376.326 221.745 387.462 269.686 402.421 324.69C412.846 363.03 413.687 407.654 404.671 444.06C387.852 511.65 341.172 535.397 304.971 543.415C297.531 545.061 289.859 546.388 282.438 547.671C251.235 553.068 218.969 558.649 191.562 589.451C181.627 600.648 172.963 615.292 165.811 632.977C158.816 650.273 153.595 669.644 150.293 690.552C143.38 734.32 145.7 780.152 156.826 819.605C178.489 896.308 227.172 946.663 267.164 981.963C277.715 991.281 288.94 1000.07 299.79 1008.58C334.326 1035.64 370.036 1063.62 391.226 1113.51C428.321 1200.84 404.807 1313.12 370.432 1389.08C342.803 1450.14 290.899 1465.17 254.847 1459.5C233.631 1456.18 213.011 1448.05 193.07 1440.18C173.453 1432.45 153.17 1424.45 132.09 1420.87C110.103 1417.12 79.2997 1418.31 57.4132 1445.26C31.321 1477.41 28.3782 1533.59 38.9577 1572.48C44.9468 1594.58 53.8351 1611.75 62.5474 1627.01C64.822 1631.02 67.1713 1635.03 69.4435 1638.92C73.797 1646.38 78.2989 1654.08 82.5207 1662.1C96.9112 1689.37 109.348 1722.88 119.485 1761.68C132.642 1812.03 143.194 1875.85 151.744 1956.8L152.065 1956.72C143.511 1875.74 132.953 1811.88 119.787 1761.5C109.638 1722.65 97.1851 1689.1 82.7744 1661.78C78.5477 1653.76 74.0429 1646.05 69.6864 1638.6C67.4148 1634.71 65.0667 1630.69 62.7934 1626.69C54.0989 1611.46 45.2292 1594.34 39.2581 1572.29C28.7246 1533.58 31.6488 1477.64 57.6178 1445.64C79.417 1418.8 110.128 1417.62 132.053 1421.37C153.11 1424.93 173.383 1432.93 192.989 1440.66C212.941 1448.53 233.574 1456.67 254.814 1459.99C276.379 1463.38 299.218 1459.09 319.123 1447.91C341.123 1435.55 358.959 1415.31 370.703 1389.36C390.83 1344.88 403.923 1297 408.561 1250.88C411.071 1225.97 411.032 1201.97 408.451 1179.54C405.685 1155.51 399.983 1133.21 391.499 1113.23C370.26 1063.24 334.512 1035.23 299.939 1008.14C289.092 999.635 277.871 990.847 267.326 981.539C227.378 946.278 178.75 895.983 157.125 819.413C134.643 739.692 150.178 636.709 191.756 589.848C219.092 559.125 251.314 553.551 282.474 548.161C289.898 546.878 297.569 545.551 305.016 543.903C327.776 538.862 347.361 529.398 363.229 515.773C383.435 498.426 397.48 474.357 404.976 444.234C409.136 427.426 411.207 408.864 411.207 389.982Z" fill="#F78F37"/>
<path d="M406.439 1197.92C406.439 1188.71 406.053 1179.69 405.279 1170.91C403.072 1145.87 397.686 1122.53 389.271 1101.55C369.943 1053.34 336.443 1025.85 304.048 999.27C293.874 990.92 283.349 982.284 273.475 973.164C236.01 938.564 190.353 889.572 169.685 817.219C148.328 742.329 161.373 644.337 198.761 598.779C223.278 569.007 252.271 562.39 280.31 555.992C287.026 554.459 293.969 552.874 300.704 550.998C321.335 545.242 338.985 535.59 353.164 522.312C371.373 505.257 383.927 482.108 390.477 453.509C398.437 418.555 397.189 376.063 387.142 339.842C353.271 217.715 337.389 116.779 338.599 31.2487L338.273 31.2378C337.071 116.836 352.953 217.841 386.842 340.033C396.86 376.146 398.102 418.506 390.168 453.348C378.453 504.517 348.333 537.208 300.646 550.513C293.913 552.387 286.974 553.971 280.261 555.504C252.18 561.912 223.143 568.539 198.558 598.394C189.624 609.279 181.883 623.344 175.548 640.196C169.333 656.734 164.762 675.163 161.964 694.975C156.091 736.552 158.727 780.038 169.386 817.417C178.587 849.626 192.995 879.114 213.429 907.566C229.04 929.301 248.067 950.277 273.308 973.588C283.19 982.713 293.715 991.35 303.896 999.704C336.251 1026.26 369.712 1053.71 388.994 1101.81C419.409 1177.66 408.757 1284.11 360.5 1386.57C338.014 1434.32 294.219 1461.92 248.931 1456.9C228.357 1454.65 208.303 1447.86 188.908 1441.31C170.053 1434.93 150.558 1428.33 130.335 1425.74C109.138 1422.99 79.4157 1425.09 58.1915 1450.65C46.2115 1465.08 38.1087 1485.45 34.7603 1509.53C31.9275 1529.9 32.7136 1552.34 36.9182 1571.09C41.6007 1592.1 48.9694 1608.55 56.2352 1623.19C58.1239 1627.02 60.0778 1630.87 61.9676 1634.6C65.608 1641.77 69.3728 1649.19 72.8893 1656.91C84.8155 1683.02 95.054 1715.22 103.322 1752.59C116.346 1811.45 124.624 1884.34 130.38 1941.27L130.702 1941.2C124.943 1884.24 116.662 1811.33 103.63 1752.44C95.3526 1715.02 85.1003 1682.77 73.1568 1656.63C69.6349 1648.89 65.8682 1641.48 62.2249 1634.3C60.3362 1630.57 58.3829 1626.73 56.4948 1622.89C49.2452 1608.28 41.8938 1591.87 37.2257 1570.94C29.2001 1535.14 32.4019 1482.35 58.3937 1451.03C79.5335 1425.58 109.17 1423.49 130.308 1426.23C150.508 1428.82 169.994 1435.41 188.837 1441.79C208.243 1448.35 228.31 1455.13 248.907 1457.4C269.649 1459.69 291.593 1454.79 310.699 1443.6C331.789 1431.25 349.1 1411.63 360.767 1386.85C382.536 1340.63 397.25 1291.49 403.316 1244.76C405.397 1228.72 406.439 1213.06 406.439 1197.92Z" fill="#F78B36"/>
<path d="M402.686 1181.77C402.686 1175.18 402.484 1168.7 402.081 1162.33C400.433 1136.27 395.372 1111.89 387.044 1089.86C369.514 1043.49 338.257 1016.46 308.027 990.323C298.571 982.145 288.791 973.687 279.625 964.794C242.462 928.739 201.83 882.744 182.244 815.027C161.678 743.785 172.01 652.721 205.767 607.71C227.464 578.892 253.232 571.235 278.152 563.831C284.159 562.046 290.368 560.201 296.391 558.091C339.219 543.068 365.993 511.003 375.976 462.784C378.775 449.171 380.157 434.405 380.157 419.389C380.159 397.62 377.257 375.319 371.562 355.183C336.326 230.536 320.344 120.699 324.056 28.7183L323.73 28.6883C321.741 77.9693 325.411 132.801 334.64 191.656C342.62 242.553 354.942 297.637 371.266 355.377C380.855 389.298 382.5 429.395 375.667 462.636C365.724 510.676 339.024 542.63 296.316 557.61C290.299 559.718 284.091 561.563 278.09 563.346C253.128 570.763 227.317 578.433 205.553 607.338C197.62 617.915 190.801 631.399 185.284 647.417C179.849 663.195 175.93 680.685 173.634 699.399C168.803 738.788 171.755 779.92 181.946 815.224C190.767 845.725 204.373 873.856 223.539 901.22C242.615 928.462 264.585 950.786 279.449 965.209C288.625 974.112 298.406 982.57 307.868 990.752C338.056 1016.86 369.274 1043.85 386.761 1090.1C429.138 1202.2 375.567 1333.02 350.567 1384.05C328.382 1429.35 286.164 1456.93 243.013 1454.31C223.062 1453.12 203.55 1447.7 184.683 1442.45C166.61 1437.43 147.922 1432.23 128.581 1430.61C98.8943 1428.09 75.4739 1436.64 58.9693 1456.04C47.3393 1469.72 39.1187 1488.95 35.1971 1511.65C31.9247 1530.6 31.8074 1551.75 34.8776 1569.7C38.2225 1589.44 44.0848 1605.23 49.9207 1619.37C51.3578 1622.84 52.842 1626.34 54.2784 1629.73C57.2763 1636.8 60.3758 1644.11 63.2564 1651.71C72.8416 1676.96 80.6596 1706.97 87.1578 1743.51C96.5378 1796.2 102.882 1862.05 109.016 1925.73L109.338 1925.66C103.202 1861.97 96.8567 1796.1 87.4713 1743.37C80.9665 1706.81 73.1378 1676.74 63.5382 1651.46C60.6534 1643.86 57.5515 1636.53 54.5513 1629.46C53.1161 1626.07 51.6317 1622.57 50.1959 1619.1C44.3737 1605.01 38.5264 1589.25 35.1923 1569.58C29.3659 1535.51 34.3841 1485.57 59.1685 1456.43C75.6092 1437.11 98.9566 1428.58 128.562 1431.11C147.884 1432.72 166.562 1437.91 184.623 1442.93C203.504 1448.19 223.026 1453.61 243 1454.81C263.212 1456.03 283.717 1450.67 302.297 1439.31C322.485 1426.96 339.268 1407.95 350.83 1384.34C374.299 1336.43 390.633 1286.07 398.063 1238.71C401.141 1219.12 402.686 1200.03 402.686 1181.77Z" fill="#F68735"/>
<path d="M399.119 1166.26C399.119 1134.43 394.344 1104.96 384.817 1078.17C368.983 1033.67 339.96 1007.04 311.895 981.292C303.196 973.313 294.202 965.062 285.773 956.426C251.231 921.036 213.412 876.305 194.802 812.835C175.398 746.522 183.291 660.34 212.772 616.639C231.654 588.78 254.198 580.089 275.999 571.684C281.294 569.643 286.771 567.532 292.077 565.185C308.684 557.831 322.075 548.083 333.029 535.384C347.244 518.901 356.817 497.594 361.478 472.058C363.624 460.192 364.679 447.446 364.679 434.479C364.679 412.788 361.728 390.465 355.984 370.525C318.808 241.459 303.174 125.608 309.512 26.189L309.187 26.1409C305.845 78.5834 308.725 136.551 317.749 198.437C325.703 252.976 338.468 310.942 355.686 370.722C364.833 402.484 366.883 440.316 361.163 471.927C352.975 516.791 329.701 548.008 291.989 564.71C286.684 567.056 281.213 569.165 275.921 571.205C254.077 579.626 231.49 588.334 212.545 616.285C198.626 636.917 188.952 668.007 185.304 703.825C181.515 741.025 184.782 779.807 194.505 813.033C213.148 876.617 251.012 921.407 285.592 956.83C294.027 965.476 303.024 973.732 311.726 981.716C339.755 1007.43 368.74 1034.02 384.531 1078.41C425.526 1193.65 367.488 1328.79 340.633 1381.55C314.134 1433.59 269.771 1451.92 237.094 1451.71C217.738 1451.62 198.743 1447.56 180.373 1443.64C163.109 1439.95 145.258 1436.14 126.824 1435.48C98.281 1434.42 75.7131 1443.14 59.7469 1461.43C48.4681 1474.35 40.1296 1492.44 35.6338 1513.76C31.8875 1531.53 30.8944 1550.91 32.8363 1568.31C34.8824 1586.93 39.2215 1602.01 43.6049 1615.53C44.6758 1618.83 45.7849 1622.17 46.8575 1625.38C49.1231 1632.18 51.4653 1639.21 53.6226 1646.51C60.691 1670.39 66.3732 1699.13 70.9929 1734.41C75.572 1769.33 79.0478 1810.28 82.7276 1853.63C84.2867 1871.99 85.8978 1890.97 87.6513 1910.2L87.9731 1910.13C86.2197 1890.9 84.6086 1871.93 83.0501 1853.57C79.3697 1810.2 75.8926 1769.25 71.3118 1734.31C66.6873 1699 60.9979 1670.21 53.9193 1646.31C51.7585 1639 49.4145 1631.96 47.1477 1625.16C46.0757 1621.94 44.9665 1618.61 43.8969 1615.31C39.5236 1601.83 35.1958 1586.79 33.157 1568.23C29.4287 1534.81 36.2649 1488.95 59.9426 1461.82C75.8484 1443.61 98.3481 1434.91 126.816 1435.97C145.232 1436.64 163.073 1440.44 180.328 1444.12C198.708 1448.05 217.715 1452.11 237.092 1452.21C256.483 1452.33 276.13 1446.4 293.91 1435.03C313.211 1422.7 329.457 1404.3 340.892 1381.85C366.103 1332.32 384.053 1280.76 392.797 1232.74C397.013 1209.6 399.116 1187.41 399.119 1166.26Z" fill="#F68334"/>
<path d="M395.633 1151.28C395.633 1120.89 391.28 1092.54 382.585 1066.49C368.361 1023.86 341.567 997.576 315.654 972.158C307.752 964.405 299.584 956.391 291.922 948.051C258.383 911.56 224.927 869.659 207.359 810.643C188.824 748.24 194.162 668.672 219.777 625.564C235.848 598.67 255.172 588.951 273.863 579.552C278.442 577.248 283.178 574.866 287.768 572.274C321.037 553.465 340.403 523.716 346.976 481.331C349.222 466.685 349.84 450.351 348.767 434.092C347.665 417.438 344.775 400.762 340.403 385.865C313.457 294.037 283.698 156.655 294.965 23.6571L294.643 23.5935C289.933 79.1887 292.02 140.3 300.841 205.231C308.734 263.338 321.947 324.179 340.104 386.067C348.8 415.694 351.25 451.265 346.66 481.219C340.114 523.43 320.813 553.064 287.654 571.812C283.071 574.4 278.335 576.781 273.758 579.084C255.031 588.502 235.665 598.243 219.536 625.234C207.61 645.305 199.596 674.789 196.972 708.253C194.227 743.258 197.81 779.693 207.063 810.846C215.121 837.914 227.123 863.324 243.756 888.536C259.746 912.775 277.795 933.287 291.731 948.456C299.398 956.801 307.574 964.819 315.479 972.572C341.356 997.957 368.111 1024.2 382.296 1066.71C420.542 1181.3 366.385 1311.58 330.701 1379.03C308.929 1420.18 270.79 1447.03 231.173 1449.12C212.377 1450.13 193.861 1447.47 175.954 1444.88C159.534 1442.52 142.555 1440.07 125.067 1440.35C97.6627 1440.75 75.9473 1449.65 60.5231 1466.82C49.4422 1479.16 41.2151 1495.67 36.0707 1515.88C31.926 1532.18 30.0523 1550.3 30.7959 1566.92C31.5455 1584.41 34.3591 1598.78 37.2887 1611.69C38.006 1614.85 38.7526 1618.04 39.4741 1621.13C40.9943 1627.62 42.5659 1634.33 43.9885 1641.31C48.5413 1663.54 52.0871 1691.02 54.8283 1725.31C56.4879 1746.04 57.8632 1769.06 59.3194 1793.44C61.2565 1825.84 63.2595 1859.36 66.2855 1894.67L66.6079 1894.6C63.5825 1859.3 61.5802 1825.8 59.6436 1793.39C58.1869 1769.01 56.8109 1745.99 55.1508 1725.25C52.4078 1690.93 48.8578 1663.42 44.2991 1641.16C42.8752 1634.18 41.3018 1627.45 39.781 1620.96C39.059 1617.88 38.3124 1614.69 37.5962 1611.53C34.6744 1598.65 31.8674 1584.32 31.1208 1566.88C29.81 1537.57 36.7749 1493.88 60.7158 1467.21C76.0831 1450.11 97.735 1441.23 125.07 1440.85C142.542 1440.57 159.512 1443.02 175.923 1445.38C193.84 1447.96 212.367 1450.63 231.184 1449.61C249.758 1448.64 268.551 1442.12 285.535 1430.77C303.959 1418.46 319.665 1400.68 330.954 1379.34C357.937 1328.34 377.495 1275.6 387.51 1226.85C392.925 1200.48 395.633 1175.24 395.633 1151.28Z" fill="#F57F33"/>
<path d="M392.227 1136.6C392.227 1107.52 388.271 1080.19 380.359 1054.8C367.656 1014.04 343.082 988.037 319.317 962.889C312.248 955.409 304.934 947.676 298.069 939.682C267.26 903.828 236.468 863.112 219.918 808.451C200.175 743.08 208.721 670.031 226.784 634.488C240.049 608.564 256.16 597.826 271.74 587.44C275.602 584.865 279.596 582.204 283.461 579.361C295.732 570.327 305.36 560.214 312.898 548.447C323.104 532.511 329.693 513.048 332.476 490.602C335.993 461.809 333.201 429.225 324.824 401.206C296.437 306.282 265.691 163.289 280.422 21.1254L280.1 21.0472C274.012 79.7995 275.296 144.059 283.91 212.042C291.721 273.685 305.386 337.398 324.528 401.411C332.879 429.34 335.661 461.815 332.157 490.511C325.741 542.243 301.212 565.742 283.318 578.916C279.46 581.755 275.468 584.416 271.61 586.988C255.992 597.398 239.844 608.163 226.528 634.185C216.605 653.71 210.253 681.585 208.642 712.683C206.919 745.974 210.715 779.16 219.623 808.654C236.202 863.417 267.03 904.179 297.874 940.076C304.742 948.071 312.059 955.813 319.133 963.299C342.861 988.407 367.399 1014.38 380.063 1055.01C417.047 1173.67 358.785 1307.37 320.768 1376.51C299.109 1415.9 263.402 1442.07 225.253 1446.52C206.968 1448.69 188.88 1447.43 171.387 1446.22C155.859 1445.14 139.803 1444.03 123.311 1445.22C96.671 1447.1 76.3878 1455.92 61.3016 1472.21C32.8409 1502.94 29.1976 1551.4 28.759 1565.52C28.2158 1581.9 29.5033 1595.55 30.9762 1607.84C31.3471 1610.94 31.739 1614.07 32.1177 1617.09C32.8846 1623.21 33.6773 1629.54 34.3581 1636.11C36.4891 1656.48 37.8178 1681.19 38.6655 1716.22C38.8725 1724.69 39.0502 1733.48 39.2387 1742.79C40.0661 1783.69 41.0035 1830.05 44.9209 1879.13L45.2439 1879.07C41.3278 1830.01 40.3903 1783.67 39.5635 1742.78C39.3751 1733.46 39.1974 1724.67 38.9904 1716.2C38.1421 1681.15 36.8121 1656.42 34.6788 1636.02C33.9979 1629.44 33.2047 1623.12 32.4377 1617C32.0584 1613.98 31.6666 1610.85 31.2962 1607.76C29.8269 1595.48 28.5425 1581.88 29.0839 1565.54C29.5207 1551.48 33.149 1503.21 61.4901 1472.61C76.5236 1456.38 96.7499 1447.59 123.326 1445.71C139.803 1444.52 155.852 1445.64 171.372 1446.71C188.875 1447.93 206.974 1449.18 225.279 1447.02C243.041 1444.95 260.987 1437.86 277.175 1426.53C294.731 1414.25 309.891 1397.06 321.014 1376.83C334.566 1352.19 346.469 1327.17 356.4 1302.47C367.542 1274.75 376.218 1247.37 382.186 1221.05C388.882 1191.55 392.227 1163.34 392.227 1136.6Z" fill="#F57B32"/>
<path d="M388.871 1122.1C388.871 1094.24 385.292 1067.86 378.135 1043.11C366.875 1004.19 344.508 978.392 322.88 953.446C316.677 946.292 310.261 938.894 304.225 931.31C278.042 898.45 248.744 858.967 232.479 806.252C213.933 745.992 219.104 678.714 233.795 643.404C244.262 618.461 257.167 606.714 269.643 595.354C272.782 592.499 276.023 589.546 279.16 586.441C295.058 570.678 313.836 546.595 317.981 499.869C320.321 472.804 317.139 442.434 309.247 416.546C267.019 278.053 251.618 136.722 265.879 18.5902L265.56 18.5011C258.084 80.4251 258.552 147.839 266.951 218.872C274.658 284.05 288.792 350.627 308.951 416.753C316.82 442.557 319.993 472.828 317.659 499.804C313.531 546.329 294.821 570.322 278.985 586.027C275.851 589.127 272.61 592.078 269.477 594.93C256.966 606.32 244.029 618.097 233.521 643.14C218.782 678.565 213.59 746.041 232.184 806.464C248.478 859.274 277.805 898.796 304.017 931.696C310.06 939.28 316.476 946.682 322.681 953.837C344.278 978.747 366.612 1004.51 377.836 1043.31C385.279 1069.04 388.462 1095.38 388.462 1121.57C388.462 1220.89 342.759 1318.16 310.836 1374C289.656 1411.03 255.451 1437.18 219.336 1443.93C201.493 1447.29 183.759 1447.49 166.61 1447.69C152.042 1447.87 136.979 1448.04 121.556 1450.09C96.061 1453.45 76.607 1462.43 62.0826 1477.58C51.7268 1488.41 43.2717 1502.71 36.9529 1520.12C30.7808 1537.11 27.9851 1553.42 26.727 1564.11C24.9101 1579.27 24.7144 1592.12 24.6696 1603.99C24.654 1608.07 24.6803 1612.2 24.7054 1616.19C24.736 1620.93 24.7671 1625.84 24.7324 1630.89C24.6223 1650.06 23.7818 1672.73 22.8084 1698.97L22.5069 1707.12C20.824 1752.97 19.378 1806.68 23.5592 1863.59L23.8823 1863.54C19.7035 1806.66 21.1489 1752.98 22.8318 1707.14L23.1327 1699C24.1066 1672.75 24.9471 1650.07 25.0572 1630.89C25.0919 1625.83 25.0609 1620.93 25.0304 1616.19C25.0052 1612.19 24.9789 1608.07 24.9944 1603.99C25.0393 1592.15 25.235 1579.31 27.0471 1564.2C29.0399 1547.26 36.463 1504.95 62.2668 1478C76.7434 1462.89 96.1459 1453.93 121.584 1450.58C136.995 1448.54 152.051 1448.36 166.612 1448.19C183.771 1447.99 201.514 1447.79 219.376 1444.42C236.33 1441.25 253.432 1433.6 268.83 1422.3C285.762 1409.88 299.98 1393.74 311.08 1374.32C325.435 1349.22 338.101 1323.76 348.728 1298.66C360.722 1270.34 370.171 1242.31 376.818 1215.35C384.85 1182.77 388.868 1151.61 388.871 1122.1Z" fill="#F47731"/>
<path d="M385.523 1107.64C385.527 1080.98 382.322 1055.52 375.905 1031.42C366.014 994.263 345.835 968.577 326.322 943.74C321.027 937 315.553 930.028 310.375 922.947C285.586 889.035 260.122 851.927 245.037 804.061C227.092 746.97 230.264 685.382 240.804 652.319C248.437 628.377 258.142 615.66 267.53 603.362C269.949 600.193 272.451 596.916 274.863 593.511C280.668 585.305 287.335 575.083 292.777 561.489C299.037 545.837 302.538 528.713 303.481 509.137C303.624 505.998 303.695 502.811 303.695 499.599C303.695 476.898 300.148 452.713 293.668 431.888C249.268 289.205 234.233 141.527 251.334 16.0567L251.016 15.9568C242.141 81.0788 241.785 151.656 249.959 225.73C257.544 294.464 272.152 363.897 293.375 432.099C300.747 455.797 304.313 483.862 303.155 509.102C301.173 550.346 288.278 573.871 274.642 593.15C272.233 596.548 269.734 599.822 267.319 602.987C257.905 615.319 248.174 628.07 240.512 652.104C234.628 670.557 231.591 695.213 231.967 721.531C232.377 750.373 236.795 778.987 244.744 804.273C259.856 852.219 285.346 889.37 310.157 923.313C315.338 930.403 320.816 937.375 326.114 944.12C345.597 968.917 365.741 994.559 375.603 1031.61C382.237 1056.53 385.107 1081.87 385.107 1107.02C385.107 1211.87 335.28 1313.71 300.903 1371.48C279.924 1406.74 248.036 1432.2 213.416 1441.34C195.912 1445.99 179.203 1447.64 161.513 1449.4C148.009 1450.74 134.045 1452.12 119.798 1454.97C95.0996 1459.86 77.0078 1468.75 62.8615 1482.97C52.8725 1493.04 44.3044 1506.24 37.3945 1522.23C32.1963 1534.26 27.923 1547.87 24.6954 1562.71C21.5707 1576.92 19.8065 1589.08 18.3659 1600.14C17.764 1604.74 17.1987 1609.22 16.5998 1613.96C16.117 1617.78 15.6271 1621.66 15.1102 1625.66C14.6651 1629.14 14.2002 1632.73 13.7204 1636.44C11.4189 1654.22 8.80999 1674.36 6.34759 1698.01C0.546314 1753.83 -0.81233 1802.9 2.19509 1848.06L2.51875 1848.01C-0.48686 1802.9 0.871723 1753.87 6.66878 1698.09C9.13 1674.45 11.7378 1654.3 14.0393 1636.53C14.5191 1632.82 14.984 1629.24 15.4291 1625.75C15.9466 1621.75 16.4365 1617.88 16.9193 1614.05C17.5176 1609.31 18.0829 1604.84 18.6847 1600.23C20.1236 1589.2 21.8848 1577.04 25.0035 1562.87C32.511 1528.37 45.6636 1500.89 63.041 1483.39C77.1443 1469.21 95.1924 1460.34 119.841 1455.46C134.077 1452.61 148.036 1451.23 161.535 1449.89C179.233 1448.13 195.951 1446.48 213.471 1441.82C229.623 1437.56 245.883 1429.36 260.493 1418.1C276.56 1405.72 290.235 1390.15 301.143 1371.82C316.294 1346.36 329.726 1320.49 341.056 1294.95C353.87 1266.07 364.074 1237.4 371.384 1209.77C380.81 1174.13 385.523 1140 385.523 1107.64Z" fill="#F47330"/>
<path d="M382.16 1093.06C382.163 1067.6 379.335 1043.12 373.676 1019.74C365.072 984.189 347.051 958.483 329.622 933.622C325.279 927.429 320.794 921.031 316.523 914.582C292.456 878.22 271.409 844.649 257.594 801.867C241.096 750.633 240.792 694.313 247.809 661.223C252.669 638.311 259.196 624.629 265.509 611.399C267.18 607.899 268.906 604.281 270.564 600.564C278.32 583.15 288.939 559.301 288.978 518.401C288.945 494.488 285.077 469.212 278.085 447.228C231.434 300.533 216.768 146.507 236.787 13.5219L236.471 13.412C226.181 81.7647 224.986 155.516 232.922 232.619C240.366 304.948 255.463 377.225 277.792 447.443C284.765 469.361 288.62 494.562 288.653 518.401C288.614 559.149 278.027 582.926 270.294 600.288C268.639 603.997 266.917 607.613 265.246 611.109C258.917 624.371 252.376 638.084 247.5 661.072C240.462 694.254 240.764 750.727 257.302 802.085C271.139 844.929 292.206 878.541 316.295 914.932C320.566 921.386 325.059 927.79 329.398 933.982C346.801 958.804 364.793 984.47 373.371 1019.91C379.222 1044.08 381.78 1068.48 381.78 1092.62C381.78 1203.56 327.782 1309.59 290.967 1368.97C270.531 1401.94 240.105 1427.36 207.492 1438.75C190.17 1444.81 173.535 1448.05 155.925 1451.47C143.642 1453.86 130.942 1456.32 118.038 1459.84C101.957 1464.19 81.2418 1471.37 63.6376 1488.37C41.6595 1509.61 29.7279 1540.17 22.6649 1561.3C18.2157 1574.53 14.9422 1585.92 12.0663 1596.27C9.48664 1605.56 7.45859 1613.01 5.49033 1620.45C1.05426 1637.26 -4.69494 1660.23 -9.81241 1688.91C-18.7067 1738.8 -21.8595 1787.12 -19.1734 1832.52L-18.8503 1832.48C-21.5304 1787.14 -18.3837 1738.87 -9.49896 1689.04C-4.3851 1660.39 1.3588 1637.43 5.79184 1620.63C7.75949 1613.2 9.78696 1605.75 12.366 1596.46C15.2388 1586.12 18.5101 1574.73 22.9545 1561.53C30.0007 1540.45 41.9012 1509.96 63.8122 1488.78C81.368 1471.83 102.044 1464.67 118.095 1460.33C130.991 1456.81 143.688 1454.34 155.966 1451.96C173.585 1448.54 190.227 1445.3 207.565 1439.22C222.916 1433.87 238.337 1425.11 252.158 1413.91C267.365 1401.57 280.501 1386.57 291.205 1369.31C307.135 1343.61 321.324 1317.37 333.376 1291.33C346.97 1261.95 357.899 1232.67 365.859 1204.29C376.722 1165.57 382.16 1128.37 382.16 1093.06Z" fill="#F36E2E"/>
<path d="M378.758 1078.13C378.758 1053.98 376.323 1030.59 371.448 1008.06C364.056 973.866 348.128 947.913 332.724 922.81C329.402 917.403 325.97 911.808 322.677 906.219L321.289 903.864C303.541 873.764 283.424 839.653 270.152 799.677C254.236 751.603 251.942 699.84 254.816 670.123C256.929 648.287 260.299 633.689 263.563 619.572C264.457 615.692 265.383 611.68 266.265 607.6C266.602 606.036 266.953 604.437 267.311 602.798C271.329 584.492 276.328 561.711 274.478 527.663C273.224 505.539 268.972 482.421 262.506 462.57C214.226 314.291 199.55 149.696 222.244 10.9892L221.929 10.8701C210.208 82.5027 208.159 159.442 215.837 239.552C219.473 277.482 225.318 315.873 233.209 353.662C240.955 390.75 250.715 427.466 262.217 462.789C268.663 482.586 272.902 505.64 274.153 527.705C275.999 561.651 271.013 584.379 267.002 602.642C266.645 604.282 266.293 605.882 265.955 607.446C265.078 611.521 264.152 615.53 263.254 619.408C259.988 633.547 256.611 648.168 254.495 670.051C252.793 687.649 253.083 709.089 255.311 730.41C257.859 754.817 262.891 778.845 269.863 799.899C283.154 839.929 303.285 874.069 321.046 904.19L322.436 906.544C325.729 912.139 329.165 917.733 332.487 923.145C347.865 948.21 363.77 974.123 371.138 1008.21C402.018 1150.99 327.943 1293.95 281.038 1366.46C260.868 1397.63 232.648 1422.4 201.571 1436.15C184.167 1443.89 167.334 1448.9 149.514 1454.2C138.722 1457.41 127.563 1460.74 116.281 1464.71C100.955 1470.1 81.2101 1478.26 64.4183 1493.75C42.1442 1514.34 28.157 1543.98 20.6424 1559.9C14.664 1572.5 9.77267 1583.42 5.77633 1592.42C2.25741 1600.35 -0.915688 1607.54 -4.12055 1615.23C-13.2445 1637.16 -20.183 1657.68 -25.9681 1679.81C-34.2001 1711.34 -43.4072 1760.73 -40.5356 1816.99L-40.2125 1816.96C-43.0782 1760.79 -33.8831 1711.47 -25.6631 1679.99C-19.8899 1657.89 -12.9585 1637.4 -3.84596 1615.5C-0.643501 1607.82 2.52843 1600.63 6.04556 1592.7C10.0407 1583.7 14.9308 1572.78 20.9062 1560.19C28.4077 1544.29 42.3698 1514.71 64.5871 1494.18C81.3394 1478.71 101.052 1470.56 116.354 1465.2C127.63 1461.22 138.787 1457.9 149.577 1454.69C167.404 1449.38 184.244 1444.37 201.662 1436.64C232.791 1422.84 261.063 1398.04 281.269 1366.81C297.957 1341 312.903 1314.43 325.69 1287.8C340.008 1258 351.623 1228.11 360.217 1198.95C372.569 1157.04 378.758 1116.62 378.758 1078.13Z" fill="#F36A2D"/>
<path d="M375.281 1062.51C375.281 1039.89 373.262 1017.82 369.222 996.366C362.939 963.032 348.984 936.402 335.485 910.647C333.294 906.464 331.028 902.139 328.831 897.853C326.988 894.263 325.122 890.649 323.24 887.01C308.876 859.215 294.025 830.472 282.713 797.478C270.745 762.485 262.933 718.198 261.819 679.012C261.23 658.376 261.493 642.976 261.747 628.083C261.822 623.707 261.9 619.182 261.955 614.623C261.997 610.644 262.108 606.532 262.225 602.176C262.677 585.185 263.239 564.037 259.976 536.919C258.211 522.525 254.515 500.603 246.93 477.91C196.234 326.243 181.936 155.132 207.7 8.45153L207.386 8.3252C200.76 46.0508 196.691 85.7294 195.294 126.261C193.941 165.564 195.082 206.031 198.688 246.536C202.216 286.157 208.123 326.067 216.245 365.157C224.273 403.803 234.5 441.814 246.639 478.134C254.208 500.775 257.896 522.647 259.657 537.01C262.914 564.072 262.375 584.305 261.9 602.156C261.783 606.515 261.672 610.63 261.63 614.614C261.575 619.171 261.497 623.695 261.422 628.07C261.169 642.972 260.905 658.381 261.493 679.034C261.994 696.62 263.892 715.922 266.987 734.857C270.666 757.374 275.861 778.517 282.423 797.706C293.752 830.744 308.613 859.501 322.984 887.316C324.866 890.955 326.731 894.57 328.574 898.159C330.775 902.445 333.041 906.77 335.231 910.953C348.708 936.669 362.646 963.263 368.91 996.504C397.479 1148.11 319.893 1291.79 271.106 1363.94C246 1401.07 216.216 1422.29 195.65 1433.57C177.672 1443.44 160.133 1450.62 141.562 1458.23C132.763 1461.83 123.664 1465.55 114.523 1469.59C99.0075 1476.41 81.0137 1485.26 65.199 1499.14C45.2939 1516.64 30.8508 1539.31 19.2459 1557.52L18.6213 1558.5C11.3597 1569.85 5.3401 1579.28 -0.512005 1588.58C-4.73808 1595.25 -9.23994 1602.4 -13.7286 1610.02C-25.5901 1630.21 -34.6118 1649.49 -42.1199 1670.7C-50.5612 1694.57 -64.357 1743.3 -61.8981 1801.46L-61.5751 1801.42C-64.028 1743.39 -50.2562 1694.76 -41.8328 1670.94C-34.3426 1649.76 -25.3329 1630.51 -13.4863 1610.35C-9.00123 1602.73 -4.50179 1595.59 -0.277508 1588.92C5.57403 1579.62 11.5937 1570.2 18.8553 1558.85L19.4793 1557.87C31.0698 1539.67 45.4961 1517.03 65.3617 1499.57C81.1466 1485.71 99.1169 1476.88 114.613 1470.06C123.751 1466.03 132.849 1462.3 141.647 1458.7C160.224 1451.09 177.77 1443.91 195.76 1434.04C216.356 1422.75 246.185 1401.48 271.333 1364.3C308.171 1309.81 336.902 1250.84 354.42 1193.75C368.315 1148.46 375.281 1104.55 375.281 1062.51Z" fill="#F2662C"/>
<path d="M371.68 1045.6C371.68 1024.85 370.116 1004.48 366.989 984.684C361.674 951.018 349.385 922.69 337.497 895.301C336.656 893.365 335.817 891.434 334.982 889.499C331.5 881.445 327.96 873.52 324.215 865.131C314.298 842.911 304.043 819.93 295.267 795.287C284.491 764.954 275.588 728.829 268.811 687.9C265.625 668.426 262.862 652.286 260.19 636.677C259.339 631.688 258.487 626.715 257.626 621.651C256.317 613.979 255.157 605.913 253.93 597.375C251.792 582.505 249.37 565.65 245.467 546.175C241.592 527.016 236.841 509.21 231.346 493.251C178.109 338.621 164.188 160.995 193.153 5.9169L192.84 5.78149C185.498 45.0893 180.832 86.3674 178.97 128.468C177.156 169.5 177.991 211.598 181.451 253.594C184.858 294.94 190.823 336.372 199.181 376.736C207.506 416.945 218.231 456.222 231.058 493.479C236.544 509.411 241.287 527.19 245.156 546.318C249.055 565.775 251.476 582.619 253.613 597.48C254.841 606.023 256.001 614.093 257.31 621.776C258.172 626.839 259.024 631.813 259.878 636.801C262.547 652.409 265.31 668.548 268.495 688.019C275.279 728.987 284.192 765.156 294.981 795.518C303.764 820.187 314.025 843.177 323.949 865.407C327.691 873.797 331.227 881.716 334.708 889.77C335.547 891.705 336.386 893.637 337.224 895.572C349.095 922.927 361.372 951.216 366.674 984.802C393.208 1152.88 301.732 1304.18 261.169 1361.43C241.88 1388.66 217.175 1412.71 189.724 1430.97C170.114 1444.05 150.748 1454.3 130.246 1465.14C124.539 1468.17 118.638 1471.29 112.76 1474.47C98.2169 1482.29 81.4084 1491.73 65.9753 1504.53C48.1946 1519.29 33.4967 1536.88 20.529 1552.42C19.2014 1554.01 17.8918 1555.57 16.5978 1557.1C11.8082 1562.8 7.14062 1568.3 2.62618 1573.62C-0.554718 1577.37 -3.69135 1581.06 -6.80466 1584.75C-12.1458 1591.05 -17.8221 1597.78 -23.3439 1604.83C-38.0191 1623.57 -49.1167 1641.61 -58.276 1661.6C-66.2626 1679.04 -72.7417 1698.72 -77.0133 1718.52C-81.8831 1741.1 -83.9889 1763.77 -83.265 1785.92L-82.9419 1785.89C-84.7846 1729.37 -68.1112 1683.94 -58.0068 1661.88C-48.8655 1641.94 -37.7858 1623.93 -23.1346 1605.2C-17.6187 1598.16 -11.9442 1591.43 -6.60482 1585.13C-3.49151 1581.45 -0.355499 1577.76 2.82541 1574.01C7.33985 1568.69 12.008 1563.19 16.7982 1557.5C18.0922 1555.96 19.4024 1554.39 20.7293 1552.8C33.6875 1537.28 48.3747 1519.71 66.1308 1504.97C81.5436 1492.18 98.3378 1482.76 112.869 1474.93C118.745 1471.75 124.646 1468.63 130.353 1465.62C150.861 1454.77 170.232 1444.51 189.855 1431.43C217.338 1413.13 242.075 1389.06 261.39 1361.79C299.485 1308.02 329.576 1248.17 348.412 1188.69C359.094 1154.95 366.189 1121.24 369.495 1088.5C370.952 1074.07 371.68 1059.75 371.68 1045.6Z" fill="#F2622B"/>
<path d="M368.023 1026.57C368.023 1008.44 366.938 990.54 364.767 973.001C360.534 938.827 350.773 908.885 341.139 881.144C334.982 863.422 328.264 846.146 321.151 827.851C316.753 816.538 312.206 804.836 307.827 793.09C296.22 761.883 286.224 730.02 277.405 701.903L275.803 696.793C270.242 679.012 264.728 662.667 259.398 646.862C257.399 640.927 255.328 634.791 253.297 628.699C247.728 612.007 242.449 594.166 236.86 575.277C234.967 568.878 233.008 562.261 230.963 555.427C225.462 537.125 220.635 522.242 215.77 508.589C159.825 351.565 146.282 167.424 178.612 3.38103L178.301 3.23926C170.237 44.1538 164.959 87.0423 162.613 130.714C160.312 173.523 160.817 217.273 164.112 260.75C167.38 303.867 173.398 346.823 182.001 388.427C190.641 430.205 201.906 470.714 215.484 508.825C220.345 522.468 225.17 537.34 230.667 555.631C232.712 562.464 234.67 569.08 236.563 575.479C242.155 594.373 247.435 612.22 253.006 628.922C255.038 635.016 257.106 641.152 259.108 647.087C264.439 662.889 269.949 679.23 275.511 697.005L277.113 702.116C285.935 730.237 295.93 762.11 307.544 793.331C311.923 805.083 316.474 816.785 320.871 828.102C327.984 846.387 334.7 863.66 340.853 881.371C350.474 909.082 360.222 938.985 364.448 973.095C379.988 1098.58 337.667 1242.82 251.241 1358.92C232.212 1384.48 209.523 1407.85 183.805 1428.39C159.525 1447.8 134.858 1463.84 111.004 1479.34L110.612 1479.59C96.1192 1489.01 81.1317 1498.74 66.7593 1509.92C50.8057 1522.33 36.301 1535.71 22.2737 1548.64C19.6833 1551.03 17.1204 1553.4 14.5808 1555.72C9.68234 1560.2 4.78806 1564.66 0.0546875 1568.96C-4.35983 1572.96 -8.73667 1576.93 -13.0914 1580.92C-19.4335 1586.71 -26.1937 1592.92 -32.948 1599.64C-50.5068 1617.08 -63.6863 1633.89 -74.419 1652.51C-83.7457 1668.68 -91.4093 1687.27 -96.5782 1706.26C-102.387 1727.6 -105.091 1749.18 -104.625 1770.39L-104.302 1770.36C-105.175 1730.39 -94.1972 1687.56 -74.1736 1652.83C-63.4649 1634.24 -50.3034 1617.48 -32.7685 1600.05C-26.0202 1593.34 -19.266 1587.13 -12.9239 1581.34C-8.56915 1577.36 -4.19229 1573.39 0.221008 1569.38C4.95499 1565.07 9.8493 1560.63 14.749 1556.14C17.2885 1553.81 19.852 1551.45 22.4425 1549.06C36.4649 1536.14 50.9648 1522.77 66.9071 1510.37C81.2699 1499.18 96.252 1489.45 110.74 1480.05L111.132 1479.79C134.992 1464.28 159.665 1448.24 183.956 1428.83C209.697 1408.27 232.408 1384.87 251.457 1359.29C290.623 1306.67 321.983 1245.97 342.146 1183.76C353.285 1149.38 360.931 1114.7 364.867 1080.68C366.97 1062.5 368.023 1044.42 368.023 1026.57Z" fill="#F15E2A"/>
<path d="M364.336 1003.98C364.336 989.622 363.738 975.386 362.532 961.324C360.237 934.502 355.927 908.248 349.351 881.06C343.49 856.826 335.949 832.398 326.295 806.372C308.362 758.011 285.612 711.236 263.606 665.998C241.411 620.365 218.458 573.177 200.186 523.929C142.184 367.601 128.68 172.055 164.063 0.844734L163.753 0.69751C154.958 43.2515 149.05 87.7686 146.191 133.011C143.37 177.667 143.513 223.099 146.617 268.045C149.72 312.992 155.787 357.48 164.647 400.274C173.625 443.63 185.486 485.316 199.902 524.172C218.185 573.446 241.143 620.646 263.346 666.292C307.263 756.579 352.673 849.938 362.21 961.387C373.854 1097.43 328.655 1245.11 241.305 1356.4C176.921 1438.44 98.9221 1493.44 23.4914 1546.63C9.4025 1556.56 -5.16615 1566.83 -19.3903 1577.1C-45.3844 1595.87 -70.3914 1615.07 -90.5765 1643.41C-113.484 1675.57 -126.394 1716.19 -125.993 1754.85L-125.67 1754.84C-126.065 1716.31 -113.191 1675.84 -90.3551 1643.77C-70.2059 1615.48 -45.2228 1596.3 -19.2466 1577.54C-5.02794 1567.28 9.54004 1557 23.6277 1547.07C99.0782 1493.87 177.097 1438.86 241.514 1356.78C281.555 1305.76 314.066 1244.26 335.533 1178.92C347.021 1143.97 355.189 1108.29 359.811 1072.88C362.828 1049.78 364.336 1026.73 364.336 1003.98Z" fill="#F15A29"/>
</g>
</svg>
