<svg width="662" height="1870" viewBox="0 0 662 1870" fill="none" xmlns="http://www.w3.org/2000/svg">
<g opacity="0.3">
<path d="M0.564246 1592.05C0.564245 1616.88 3.24262 1642.7 8.64491 1668.29C14.0766 1694.03 21.998 1719.5 32.8581 1746.16C41.7512 1767.99 52.7704 1790.88 66.5434 1816.13L66.7935 1815.81C36.7097 1760.66 18.871 1715.12 8.95373 1668.14C-3.69723 1608.21 -1.3796 1547.03 15.312 1500.29C52.0298 1397.49 144.559 1382.94 196.443 1383.42C209.53 1383.54 223.009 1384.2 236.044 1384.84C292.262 1387.6 350.394 1390.46 400.409 1352.14C418.327 1338.41 434.365 1319.13 448.08 1294.83C461.285 1271.43 471.71 1244.54 479.067 1214.9C486.425 1185.26 490.284 1154.61 490.537 1123.79C490.795 1091.78 487.136 1061.21 479.647 1032.93C473.137 1008.36 463.92 984.755 452.25 962.787C441.613 942.765 428.597 923.469 413.563 905.426C388.624 875.493 357.361 847.911 317.986 821.099C305.331 812.477 292.267 804.038 279.632 795.876C225.578 760.959 169.679 724.853 126.911 662.973C91.5881 611.863 65.2685 529.545 86.0979 460.868C109.655 383.212 179.791 366.29 233.821 389.8C260.566 401.442 286.096 420.29 310.785 438.521C336.128 457.233 362.335 476.59 389.881 488.159C407.514 495.556 424.919 498.292 440.215 496.065C458.45 493.412 473.451 483.942 484.805 467.929C499.663 446.963 506.891 415.619 505.159 379.64C503.573 346.697 494.665 312.772 480.721 286.562C460.574 248.693 432.867 221.929 406.073 196.056C396.243 186.559 386.08 176.744 376.439 166.529C293.006 78.0768 233.557 -59.5321 213.343 -211L213.021 -210.9C218.017 -173.476 225.522 -136.325 235.329 -100.473C245.022 -65.0211 257.014 -30.678 270.964 1.61122C284.915 33.9096 300.888 64.2814 318.436 91.8994C336.187 119.836 355.639 145.073 376.253 166.929C385.899 177.153 396.066 186.977 405.898 196.474C432.671 222.329 460.354 249.056 480.468 286.871C507.726 338.109 517.05 421.763 484.584 467.565C455.081 509.188 408.588 495.493 389.967 487.677C362.45 476.126 336.258 456.778 310.927 438.075C286.226 419.836 260.683 400.979 233.912 389.328C179.752 365.763 109.437 382.757 85.8054 460.659C76.1968 492.33 75.9049 529.527 84.9606 568.214C92.8851 602.075 107.704 635.855 126.687 663.328C169.496 725.271 225.422 761.395 279.505 796.331C292.138 804.493 305.202 812.932 317.853 821.548C373.086 859.159 449.919 922.012 479.345 1033.12C510.136 1149.38 473.921 1295.27 400.263 1351.7C350.321 1389.96 292.232 1387.11 236.054 1384.35C223.02 1383.71 209.536 1383.05 196.443 1382.93C157.268 1382.57 121.223 1390.76 92.2025 1406.62C56.0859 1426.36 30.1181 1457.8 15.0254 1500.06C5.42374 1526.95 0.564247 1558.6 0.564246 1592.05Z" fill="#FBB040"/>
<path d="M16.0135 1578.16C16.0135 1602.95 18.8253 1628.64 24.2216 1652.95C37.7595 1713.92 60.6696 1770.44 81.076 1818.64L81.3488 1818.38C60.9519 1770.2 38.0556 1713.71 24.5303 1652.79C11.918 1596 13.8456 1537.03 29.8153 1491.01C64.1377 1392.11 151.654 1376.71 200.766 1376.33C213.151 1376.23 225.906 1376.65 238.241 1377.05C291.329 1378.79 346.224 1380.58 393.412 1343.2C410.332 1329.79 425.449 1311.09 438.343 1287.61C450.773 1264.98 460.548 1239.03 467.397 1210.48C474.255 1181.9 477.781 1152.36 477.879 1122.69C477.978 1091.86 474.351 1062.39 467.088 1035.13C460.77 1011.42 451.87 988.622 440.634 967.366C430.396 947.999 417.885 929.296 403.453 911.767C379.568 882.762 349.601 855.841 311.841 829.473C298.773 820.344 285.215 811.5 272.105 802.949C221.043 769.63 168.242 735.186 129.144 674.67C95.5047 622.606 72.2183 537.079 96.0318 463.386C120.316 388.238 186.705 370.789 239.736 392.4C265.77 402.997 290.663 420.518 314.737 437.449C339.386 454.789 364.874 472.719 391.633 483.279C408.808 490.059 425.727 492.413 440.562 490.068C458.287 487.269 472.911 478.008 484.028 462.532C515.66 418.519 508 337.628 482.76 287.935C467.624 258.127 448.109 235.916 429.274 216.341C424.116 210.988 418.812 205.635 413.683 200.455C404.521 191.213 395.047 181.652 386.068 171.71C354.687 136.931 326.862 94.2357 303.365 44.7885C269.735 -25.9698 245.994 -109.042 234.705 -195.468L234.386 -195.368C245.685 -108.879 269.446 -25.7334 303.102 45.0794C326.618 94.563 354.468 137.303 385.876 172.11C394.861 182.061 404.338 191.622 413.503 200.864C418.631 206.044 423.934 211.397 429.091 216.75C447.903 236.298 467.395 258.481 482.503 288.235C507.655 337.755 515.304 418.337 483.808 462.177C463.533 490.386 429.966 497.911 391.715 482.807C364.984 472.256 339.509 454.334 314.874 437.004C290.787 420.055 265.881 402.533 239.821 391.919C212.676 380.859 182.521 380.659 157.092 391.382C128.196 403.569 106.979 428.388 95.7422 463.168C85.0676 496.202 83.2082 534.789 90.3657 574.758C96.8538 610.982 110.542 646.589 128.914 675.016C168.057 735.595 220.884 770.066 271.975 803.397C285.085 811.955 298.64 820.798 311.706 829.923C364.634 866.883 438.294 928.392 466.786 1035.31C496.502 1146.84 462.832 1287.64 393.262 1342.76C346.148 1380.08 291.294 1378.29 238.248 1376.56C225.909 1376.15 213.151 1375.74 200.763 1375.83C163.678 1376.12 129.622 1384.51 102.276 1400.08C68.1454 1419.52 43.669 1450.04 29.5263 1490.78C21.3219 1514.43 16.8068 1541.23 16.1045 1570.44C16.0429 1573 16.0135 1575.58 16.0135 1578.16Z" fill="#FBAC3F"/>
<path d="M31.5049 1564.51C31.5049 1588.93 34.3495 1614.06 39.8002 1637.61C52.0519 1690.51 68.7072 1740.39 84.817 1788.63C88.571 1799.88 92.1175 1810.5 95.6119 1821.16L95.9008 1820.94C92.41 1810.28 88.8606 1799.65 85.106 1788.41C69.0034 1740.18 52.351 1690.32 40.1095 1637.45C27.816 1584.36 29.3888 1526.15 44.3153 1481.72C76.2482 1386.75 158.75 1370.48 205.086 1369.23C216.768 1368.92 228.798 1369.09 240.432 1369.25C290.393 1369.97 342.053 1370.71 386.414 1334.26C402.338 1321.17 416.534 1303.05 428.606 1280.4C440.261 1258.53 449.386 1233.51 455.726 1206.06C462.084 1178.53 465.292 1150.11 465.221 1121.58C465.162 1091.91 461.565 1063.56 454.528 1037.32C448.403 1014.48 439.82 992.489 429.017 971.942C419.178 953.234 407.175 935.122 393.341 918.106C370.512 890.03 341.843 863.776 305.697 837.849C292.551 828.417 278.85 819.361 265.6 810.601C217.233 778.62 167.214 745.556 131.377 686.366C93.4271 623.696 82.9768 533.044 105.965 465.903C130.591 393.982 194.876 375.797 245.652 394.99C270.977 404.56 295.237 420.736 318.701 436.377C342.65 452.344 367.416 468.857 393.386 478.417C410.102 484.57 426.535 486.524 440.908 484.07C458.124 481.134 472.37 472.074 483.25 457.151C490.65 446.991 496.208 434.441 499.769 419.818C503.066 406.296 504.586 391.346 504.289 375.388C503.727 345.216 496.624 313.845 484.8 289.316C470.971 260.608 452.973 239.115 435.583 220.158C430.852 214.996 425.987 209.843 421.28 204.853C412.79 195.866 404.011 186.559 395.696 176.881C366.719 143.147 341.092 101.76 319.529 53.8763C288.834 -14.292 266.891 -95.1377 256.07 -179.937L255.751 -179.846C266.579 -94.9833 288.54 -14.0649 319.261 54.1489C340.844 102.087 366.494 143.51 395.498 177.272C403.818 186.959 412.601 196.265 421.095 205.262C425.799 210.252 430.665 215.395 435.394 220.557C452.761 239.487 470.736 260.953 484.537 289.607C507.577 337.409 513.552 414.911 483.032 456.779C455.957 493.921 415.292 485.978 393.462 477.936C367.52 468.384 342.768 451.88 318.831 435.931C295.356 420.273 271.081 404.087 245.73 394.509C194.83 375.261 130.379 393.527 105.679 465.676C97.4779 489.623 93.3134 516.232 93.3134 544.032C93.3134 556.246 94.1163 568.696 95.7352 581.256C100.696 619.752 113.269 657.194 131.14 686.702C167.022 745.965 217.071 779.049 265.47 811.051C278.719 819.811 292.416 828.866 305.558 838.293C356.182 874.61 426.671 934.771 454.227 1037.5C482.865 1144.3 451.74 1280 386.259 1333.83C341.973 1370.21 290.355 1369.47 240.435 1368.76C228.798 1368.6 216.765 1368.42 205.082 1368.74C170.087 1369.68 138.018 1378.25 112.345 1393.54C80.2009 1412.67 57.2166 1442.27 44.0263 1481.5C36.3226 1504.43 32.1324 1530.25 31.5671 1558.26C31.5246 1560.34 31.5049 1562.42 31.5049 1564.51Z" fill="#FAA83E"/>
<path d="M47.0259 1550.74C47.0259 1574.77 49.8958 1599.4 55.3794 1622.27C64.6044 1660.73 75.4352 1698.64 85.9052 1735.3C94.7169 1766.15 103.042 1795.29 110.148 1823.67L110.45 1823.5C103.341 1795.1 95.016 1765.96 86.2044 1735.1C75.7343 1698.45 64.9071 1660.54 55.6851 1622.1C43.5998 1571.72 44.7699 1515.77 58.8151 1472.44C88.3623 1381.39 165.848 1364.25 209.408 1362.13C220.385 1361.6 231.691 1361.53 242.625 1361.45C289.457 1361.15 337.884 1360.83 379.417 1325.32C394.343 1312.55 407.617 1295.01 418.868 1273.18C429.748 1252.07 438.223 1228 444.056 1201.63C449.912 1175.15 452.773 1147.84 452.563 1120.48C452.343 1091.97 448.778 1064.73 441.968 1039.51C436.035 1017.54 427.77 996.354 417.401 976.519C407.961 958.467 396.465 940.948 383.23 924.451C361.457 897.303 334.085 871.716 299.552 846.221C286.556 836.627 272.952 827.479 259.798 818.63C213.93 787.784 166.498 755.888 133.609 698.071C96.7815 633.328 89.6629 541.041 115.897 468.411C140.744 399.633 202.956 380.721 251.568 397.589C276.187 406.122 299.822 420.954 322.679 435.303C345.925 449.899 369.963 464.984 395.138 473.545C411.396 479.071 427.343 480.643 441.255 478.071C457.961 474.99 471.829 466.13 482.472 451.752C489.709 441.974 495.218 429.905 498.846 415.873C502.169 403.032 503.853 388.828 503.853 373.669C503.853 373.533 503.853 373.406 503.853 373.26C503.797 344.479 497.596 314.38 486.839 290.688C474.318 263.079 457.837 242.313 441.892 223.974C437.584 219.012 433.149 214.05 428.862 209.251C421.049 200.509 412.969 191.475 405.325 182.06C378.757 149.38 355.329 109.303 335.692 62.9544C307.937 -2.54197 287.792 -81.1615 277.432 -164.406L277.113 -164.306C287.48 -81.0068 307.642 -2.32396 335.419 63.2271C355.074 109.612 378.526 149.726 405.12 182.442C412.77 191.857 420.852 200.899 428.669 209.651C432.956 214.449 437.389 219.402 441.696 224.364C457.619 242.677 474.076 263.424 486.571 290.97C507.954 338.072 512.187 410.948 482.256 451.389C455.865 487.032 416.391 480.27 395.209 473.064C370.061 464.521 346.037 449.435 322.803 434.849C299.933 420.49 276.284 405.65 251.639 397.107C225.846 388.155 198.399 389.282 174.358 400.288C147.542 412.556 127.225 436.03 115.615 468.174C102.606 504.181 97.5778 545.512 101.072 587.707C102.746 607.964 106.357 627.739 111.799 646.488C117.308 665.454 124.564 682.921 133.366 698.389C166.3 756.288 213.764 788.213 259.664 819.084C272.816 827.928 286.419 837.077 299.41 846.666C347.731 882.337 415.049 941.16 441.667 1039.69C469.225 1141.76 440.644 1272.36 379.257 1324.89C337.797 1360.33 289.414 1360.65 242.625 1360.96C231.687 1361.03 220.379 1361.11 209.398 1361.64C176.026 1363.26 146.761 1371.79 122.418 1387C92.2599 1405.83 70.764 1434.5 58.5262 1472.22C51.4369 1494.09 47.4746 1519.62 47.0618 1546.07C47.0355 1547.62 47.0259 1549.18 47.0259 1550.74Z" fill="#FAA43D"/>
<path d="M62.5859 1537.01C62.5859 1560.41 65.3684 1584.32 70.9591 1606.93C76.9661 1631.22 83.4183 1655.75 89.6563 1679.47C103.195 1730.96 115.985 1779.6 124.687 1826.2L124.999 1826.06C116.291 1779.44 103.5 1730.79 89.9554 1679.29C83.7204 1655.57 77.2718 1631.04 71.2648 1606.76C59.4397 1558.95 60.2067 1505.27 73.3192 1463.15C99.1218 1380.41 163.917 1358.69 213.732 1355.04C224.003 1354.29 234.584 1353.97 244.816 1353.65C288.521 1352.32 333.713 1350.95 372.42 1316.38C386.349 1303.93 398.701 1286.96 409.132 1265.96C419.236 1245.62 427.06 1222.49 432.385 1197.21C437.742 1171.79 440.272 1145.6 439.905 1119.37C439.524 1092.04 435.992 1065.9 429.409 1041.7C423.668 1020.61 415.72 1000.22 405.785 981.098C396.744 963.702 385.754 946.776 373.12 930.792C352.115 904.217 326.787 880.007 293.409 854.597C280.72 844.939 267.384 835.78 254.489 826.922C211.001 797.048 166.034 766.158 135.843 709.768C100.601 643.944 96.5769 547.967 125.831 470.929C151.958 402.134 212.392 386.03 257.483 400.189C281.404 407.678 304.419 421.182 326.676 434.232C349.213 447.455 372.518 461.123 396.892 468.675C417.484 475.064 455.884 480.671 481.695 446.365C510.748 407.75 508.162 337.583 488.878 292.07C477.665 265.57 462.702 245.513 448.203 227.783C444.312 223.021 440.308 218.258 436.434 213.651C429.301 205.163 421.926 196.384 414.954 187.241C390.804 155.607 369.575 116.847 351.856 72.0435C327.05 9.31887 308.702 -67.0648 298.797 -148.865L298.477 -148.783C308.39 -66.9195 326.751 9.51882 351.578 72.298C369.314 117.147 390.566 155.952 414.742 187.614C421.719 196.757 429.098 205.545 436.234 214.042C440.107 218.64 444.11 223.411 447.999 228.173C462.477 245.868 477.417 265.897 488.605 292.334C507.815 337.673 510.402 407.55 481.481 446.001C455.775 480.163 417.491 474.564 396.957 468.194C372.609 460.651 349.318 446.983 326.793 433.769C304.524 420.709 281.496 407.205 257.548 399.698C232.617 391.874 206.115 393.655 182.926 404.706C157.111 417.002 137.27 439.821 125.549 470.684C118.41 489.487 113.144 509.762 109.897 530.955C106.711 551.739 105.529 572.986 106.38 594.115C108.129 637.556 118.228 677.651 135.593 710.077C165.828 766.558 210.832 797.472 254.357 827.371C267.248 836.229 280.58 845.388 293.263 855.042C339.282 890.071 403.431 947.551 429.109 1041.89C455.583 1139.22 429.547 1264.73 372.255 1315.96C333.622 1350.46 288.473 1351.83 244.81 1353.16C234.574 1353.47 223.99 1353.79 213.715 1354.55C182.464 1356.84 155.135 1365.55 132.488 1380.46C104.319 1398.99 84.3157 1426.74 73.0236 1462.94C66.0773 1485.25 62.5859 1510.81 62.5859 1537.01Z" fill="#F9A03C"/>
<path d="M78.1305 1522.95C78.1305 1545.99 80.9292 1569.51 86.5396 1591.59C89.0265 1601.37 91.5781 1611.33 94.0483 1620.96C111.946 1690.8 130.454 1763.01 139.227 1828.72L139.546 1828.62C130.77 1762.87 112.254 1690.64 94.351 1620.78C91.8802 1611.15 89.3286 1601.19 86.8417 1591.41C75.3223 1546.08 75.6897 1494.66 87.8204 1453.87C111.367 1374.88 171.641 1352.67 218.055 1347.94C227.621 1346.97 237.474 1346.4 247.008 1345.85C287.584 1343.5 329.544 1341.07 365.424 1307.44C378.356 1295.3 389.786 1278.92 399.396 1258.75C408.725 1239.16 415.897 1216.97 420.716 1192.79C430.746 1142.45 429.374 1089.57 416.85 1043.89C406.138 1004.85 388.527 969.933 363.011 937.132C343.08 911.514 319.011 887.947 287.266 862.977C275.001 853.323 262.064 844.209 249.553 835.39C208.363 806.36 165.774 776.344 138.077 721.464C104.291 654.522 103.361 554.846 135.766 473.446C161.916 407.75 220.259 390.756 263.4 402.779C286.631 409.24 309.032 421.4 330.695 433.16C352.516 445.001 375.08 457.252 398.647 463.804C414.208 468.148 428.776 468.911 441.949 466.076C457.637 462.704 470.749 454.262 480.918 440.975C497.803 418.919 502.237 389.665 502.984 369.017C503.923 343.017 499.526 315.471 490.92 293.442C481.012 268.051 467.568 248.712 454.514 231.599C451.038 227.037 447.457 222.457 443.993 218.04C437.546 209.798 430.878 201.282 424.584 192.421C402.861 161.859 383.83 124.408 368.021 81.1311C346.175 21.3237 329.626 -52.8244 320.162 -133.334L319.842 -133.243C324.5 -93.629 330.848 -55.5052 338.711 -19.9534C346.84 16.8071 356.605 50.8956 367.737 81.3673C383.563 124.689 402.615 162.177 424.364 192.785C430.663 201.655 437.334 210.179 443.784 218.413C447.247 222.839 450.827 227.41 454.302 231.972C467.334 249.057 480.756 268.36 490.64 293.697C507.667 337.282 508.607 404.142 480.707 440.603C455.687 473.283 418.591 468.866 398.705 463.322C375.164 456.779 352.613 444.529 330.804 432.696C309.129 420.927 286.715 408.759 263.459 402.297C239.382 395.581 213.81 398.008 191.46 409.095C166.626 421.427 147.272 443.584 135.486 473.192C127.747 492.631 121.769 513.487 117.719 535.162C113.701 556.664 111.666 578.52 111.666 600.131C111.666 600.24 111.666 600.359 111.666 600.468C111.712 646.007 120.754 687.957 137.819 721.764C165.563 776.744 208.19 806.785 249.416 835.839C261.924 844.652 274.858 853.767 287.117 863.416C334.532 900.716 392.094 954.957 416.55 1044.08C441.939 1136.68 418.447 1257.09 365.253 1307.02C329.446 1340.58 287.53 1343.01 246.995 1345.35C237.461 1345.91 227.602 1346.48 218.033 1347.45C188.905 1350.42 163.512 1359.32 142.559 1373.91C116.379 1392.15 97.8645 1418.98 87.5249 1453.67C81.2678 1474.7 78.1305 1498.56 78.1305 1522.95Z" fill="#F99C3B"/>
<path d="M93.6844 1508.79C93.6844 1531.5 96.4962 1554.66 102.119 1576.25C125.351 1665.46 146.781 1752.09 153.77 1831.24L154.092 1831.17C147.1 1751.97 125.663 1665.31 102.421 1576.07C91.2399 1533.13 91.201 1483.97 102.324 1444.58C123.618 1369.37 179.364 1346.66 222.378 1340.85C231.236 1339.65 240.367 1338.83 249.195 1338.04C286.646 1334.67 325.373 1331.19 358.428 1298.5C370.361 1286.68 380.869 1270.87 389.659 1251.53C398.212 1232.71 404.734 1211.46 409.046 1188.36C418.038 1140.21 416.349 1089.68 404.291 1046.08C393.956 1008.75 377.146 975.186 352.9 943.476C334.045 918.812 311.237 895.896 281.122 871.35C269.364 861.765 256.925 852.729 244.895 843.99C205.954 815.702 165.69 786.451 140.31 733.168C107.353 663.973 109.469 563.007 145.699 475.963C171.924 412.947 226.682 395.108 269.316 405.377C291.865 410.794 313.66 421.617 334.739 432.077C355.835 442.547 377.651 453.379 400.401 458.932C415.497 462.64 429.593 463.022 442.297 460.077C457.476 456.569 470.208 448.327 480.141 435.585C496.591 414.483 501.406 386.583 502.548 366.899C503.976 342.298 500.481 316.025 492.96 294.823C484.359 270.522 472.433 251.91 460.826 235.415C457.757 231.044 454.593 226.655 451.534 222.42C445.777 214.44 439.824 206.189 434.215 197.601C414.926 168.11 398.094 131.977 384.185 90.2091C365.049 32.7555 350.696 -37.2304 341.526 -117.804L341.206 -117.713C350.382 -37.0942 364.745 32.9372 383.895 90.4362C397.819 132.25 414.671 168.419 433.985 197.955C439.6 206.543 445.555 214.804 451.315 222.783C454.374 227.027 457.536 231.398 460.604 235.779C472.19 252.237 484.094 270.822 492.674 295.059C507.304 336.3 507.812 399.434 479.931 435.213C455.6 466.411 419.692 463.158 400.452 458.441C377.728 452.898 355.925 442.074 334.839 431.605C313.75 421.135 291.941 410.312 269.367 404.886C246.136 399.288 221.485 402.342 199.959 413.465C176.088 425.816 157.229 447.327 145.423 475.69C137.056 495.802 130.357 517.222 125.516 539.351C120.612 561.789 117.722 584.472 116.932 606.765C116.786 610.927 116.711 615.062 116.711 619.161C116.711 661.956 124.707 701.252 140.046 733.45C165.475 786.845 205.778 816.122 244.755 844.434C256.782 853.174 269.218 862.21 280.969 871.785C325.892 908.398 380.473 961.321 403.992 1046.27C428.707 1135.64 408.188 1248.61 358.25 1298.09C325.268 1330.7 286.585 1334.18 249.176 1337.54C240.344 1338.34 231.213 1339.16 222.353 1340.35C195.344 1344 171.885 1353.09 152.629 1367.37C128.442 1385.31 111.416 1411.22 102.025 1444.39C96.4633 1464.08 93.6844 1486.21 93.6844 1508.79Z" fill="#F89739"/>
<path d="M109.241 1494.51C109.241 1516.91 112.066 1539.76 117.699 1560.91C140.244 1645.57 163.892 1744.2 168.313 1833.76L168.638 1833.73C164.21 1744.1 140.556 1645.42 118.001 1560.72C107.183 1520.11 106.745 1473.22 116.825 1435.3C135.876 1363.88 187.094 1340.66 226.705 1333.75C234.854 1332.33 243.253 1331.26 251.376 1330.22C285.705 1325.84 321.201 1321.3 351.431 1289.56C362.366 1278.05 371.952 1262.83 379.923 1244.31C387.697 1226.25 393.569 1205.94 397.376 1183.94C405.329 1137.98 403.324 1089.8 391.732 1048.27C381.774 1012.64 365.765 980.44 342.79 949.817C325.013 926.12 303.465 903.851 274.978 879.724C263.796 870.259 251.935 861.331 240.461 852.696C203.734 825.059 165.758 796.485 142.542 744.865C110.831 674.361 115.97 569.796 155.632 478.471C181.711 418.428 234.493 399.798 275.235 407.968C297.11 412.339 318.311 421.827 338.814 430.987C359.177 440.093 380.233 449.499 402.154 454.07C424.932 458.832 456.816 458.551 479.364 430.206C495.377 410.049 500.573 383.503 502.112 364.773C504.019 341.571 501.427 316.58 495 296.205C487.706 273.003 477.299 255.118 467.138 239.233C464.47 235.043 461.718 230.854 459.057 226.791C453.998 219.076 448.766 211.097 443.846 202.79C427.002 174.391 412.367 139.575 400.349 99.2974C384.266 45.4154 371.663 -22.3986 362.89 -102.263L362.57 -102.19C371.347 -22.2803 383.958 45.5788 400.053 99.4973C412.085 139.82 426.737 174.681 443.604 203.118C448.53 211.433 453.764 219.421 458.826 227.137C461.487 231.199 464.239 235.398 466.905 239.578C477.046 255.427 487.432 273.276 494.707 296.414C507.167 335.928 505.951 396.099 479.156 429.824C456.7 458.06 424.911 458.324 402.199 453.58C380.301 449.018 359.257 439.612 338.906 430.515C318.391 421.345 297.177 411.857 275.277 407.477C252.881 402.987 229.143 406.668 208.43 417.819C185.501 430.178 167.149 451.053 155.359 478.199C146.333 498.983 138.909 520.957 133.295 543.523C127.506 566.769 123.771 590.153 122.188 613.008C120.527 637.019 121.268 660.175 124.395 681.831C127.713 704.851 133.73 726.144 142.273 745.137C165.537 796.869 203.552 825.473 240.318 853.141C251.786 861.771 263.647 870.694 274.822 880.16C317.254 916.091 368.857 967.696 391.432 1048.46C415.034 1133.01 397.007 1240.99 351.247 1289.15C321.087 1320.82 285.636 1325.35 251.35 1329.73C243.224 1330.77 234.821 1331.84 226.666 1333.26C186.967 1340.18 135.635 1363.47 116.526 1435.11C111.662 1453.4 109.241 1473.77 109.241 1494.51Z" fill="#F89338"/>
<path d="M124.792 1480.09C124.792 1502.23 127.633 1524.81 133.279 1545.57C153.793 1621.01 181.253 1733.24 182.855 1836.29L183.181 1836.28C182.505 1792.8 177.417 1745.58 167.634 1691.94C159.673 1648.32 148.537 1600.38 133.578 1545.38C123.153 1507.04 122.312 1462.41 131.329 1426.01C148.147 1358.42 194.827 1334.67 231.028 1326.65C238.469 1325.01 246.14 1323.68 253.561 1322.4C284.764 1317 317.03 1311.42 344.437 1280.62C354.372 1269.42 363.036 1254.78 370.188 1237.09C377.183 1219.79 382.404 1200.42 385.706 1179.52C392.619 1135.75 390.299 1089.92 379.173 1050.46C357.51 973.76 308.827 923.405 268.835 888.105C258.284 878.787 247.059 869.993 236.21 861.49C201.673 834.432 165.963 806.449 144.773 756.561C107.678 669.226 131.192 556.946 165.567 480.989C193.196 419.927 245.1 404.896 281.152 410.567C302.368 413.884 322.988 422.018 342.929 429.888C362.546 437.622 382.829 445.619 403.91 449.2C425.896 452.944 456.699 451.762 478.586 424.808C504.678 392.655 507.621 336.473 497.041 297.586C491.052 275.485 482.164 258.318 473.452 243.059C471.177 239.051 468.828 235.034 466.556 231.145C462.202 223.693 457.7 215.986 453.478 207.971C439.088 180.698 426.652 147.191 416.514 108.385C403.357 58.0387 392.805 -5.78569 384.255 -86.7315L383.934 -86.6497C392.488 -5.67656 403.046 58.184 416.212 108.567C426.361 147.418 438.814 180.97 453.225 208.289C457.451 216.304 461.956 224.02 466.313 231.472C468.584 235.362 470.932 239.378 473.206 243.377C481.9 258.608 490.77 275.73 496.741 297.777C507.275 336.492 504.35 392.427 478.381 424.426C456.582 451.272 425.871 452.444 403.946 448.7C382.889 445.137 362.616 437.14 343.01 429.406C323.058 421.536 302.425 413.402 281.185 410.076C259.62 406.686 236.781 410.976 216.876 422.154C194.876 434.513 177.041 454.761 165.296 480.707C145.169 525.183 132.076 573.067 127.438 619.189C124.928 644.098 124.967 668.1 127.548 690.528C130.315 714.557 136.016 736.858 144.5 756.834C165.739 806.824 201.488 834.841 236.06 861.93C246.907 870.432 258.128 879.221 268.673 888.529C308.621 923.79 357.249 974.085 378.874 1050.66C401.356 1130.38 385.821 1233.36 344.243 1280.22C316.907 1310.94 284.685 1316.52 253.525 1321.91C246.101 1323.19 238.43 1324.52 230.983 1326.16C208.223 1331.21 188.638 1340.67 172.77 1354.29C152.564 1371.64 138.519 1395.71 131.023 1425.83C126.863 1442.64 124.792 1461.2 124.792 1480.09Z" fill="#F78F37"/>
<path d="M129.561 672.144C129.561 681.359 129.948 690.375 130.721 699.163C132.928 724.2 138.315 747.537 146.73 768.521C166.058 816.725 199.557 844.213 231.952 870.798C242.126 879.148 252.651 887.784 262.526 896.904C299.991 931.503 345.647 980.495 366.316 1052.85C387.672 1127.74 374.628 1225.73 337.239 1271.29C312.723 1301.06 283.729 1307.68 255.69 1314.08C248.975 1315.61 242.032 1317.19 235.296 1319.07C214.666 1324.83 197.015 1334.48 182.837 1347.76C164.627 1364.81 152.074 1387.96 145.524 1416.56C137.563 1451.51 138.812 1494 148.859 1530.23C182.73 1652.35 198.611 1753.29 197.402 1838.82L197.727 1838.83C198.93 1753.23 183.048 1652.23 149.158 1530.03C139.14 1493.92 137.898 1451.56 145.833 1416.72C157.548 1365.55 187.667 1332.86 235.355 1319.56C242.087 1317.68 249.027 1316.1 255.739 1314.56C283.82 1308.16 312.858 1301.53 337.443 1271.67C346.376 1260.79 354.118 1246.72 360.452 1229.87C366.668 1213.33 371.239 1194.91 374.037 1175.09C379.91 1133.52 377.273 1090.03 366.614 1052.65C357.413 1020.44 343.006 990.954 322.571 962.502C306.961 940.767 287.934 919.791 262.692 896.48C252.81 887.355 242.285 878.718 232.105 870.364C199.749 843.809 166.289 816.354 147.006 768.258C116.592 692.41 127.244 585.955 175.5 483.498C197.987 435.75 241.782 408.15 287.069 413.167C307.643 415.42 327.698 422.209 347.093 428.761C365.947 435.141 385.443 441.739 405.665 444.329C426.863 447.074 456.585 444.974 477.809 419.419C489.789 404.988 497.892 384.622 501.24 360.539C504.073 340.164 503.287 317.726 499.082 298.977C494.4 277.966 487.031 261.517 479.765 246.877C477.877 243.051 475.923 239.197 474.033 235.471C470.393 228.301 466.628 220.876 463.111 213.161C451.185 187.051 440.947 154.852 432.679 117.474C419.655 58.6208 411.377 -14.273 405.62 -71.1995L405.298 -71.1271C411.057 -14.1733 419.339 58.7388 432.371 117.628C440.648 155.052 450.9 187.296 462.844 213.442C466.366 221.176 470.132 228.592 473.776 235.771C475.664 239.497 477.618 243.341 479.506 247.176C486.755 261.79 494.107 278.193 498.775 299.132C506.801 334.929 503.599 387.721 477.607 419.037C456.467 444.483 426.831 446.574 405.692 443.838C385.492 441.248 366.007 434.66 347.163 428.28C327.757 421.718 307.69 414.939 287.093 412.667C266.352 410.377 244.408 415.275 225.301 426.471C204.212 438.822 186.9 458.443 175.234 483.216C153.465 529.437 138.75 578.575 132.685 625.305C130.604 641.345 129.561 657.013 129.561 672.144Z" fill="#F78B36"/>
<path d="M133.315 688.303C133.315 694.891 133.517 701.371 133.919 707.742C135.568 733.796 140.629 758.179 148.956 780.206C166.487 826.581 197.743 853.605 227.973 879.745C237.429 887.923 247.209 896.381 256.376 905.274C293.539 941.329 334.171 987.324 353.757 1055.04C374.323 1126.28 363.99 1217.35 330.234 1262.36C308.536 1291.18 282.768 1298.83 257.849 1306.24C251.842 1308.02 245.633 1309.87 239.61 1311.98C196.781 1327 170.007 1359.07 160.025 1407.28C157.226 1420.9 155.844 1435.66 155.844 1450.68C155.841 1472.45 158.744 1494.75 164.439 1514.89C199.675 1639.53 215.657 1749.37 211.945 1841.35L212.27 1841.38C214.259 1792.1 210.59 1737.27 201.361 1678.41C193.381 1627.52 181.059 1572.43 164.734 1514.69C155.145 1480.77 153.501 1440.67 160.333 1407.43C170.276 1359.39 196.976 1327.44 239.685 1312.46C245.702 1310.35 251.91 1308.5 257.91 1306.72C282.873 1299.31 308.684 1291.63 330.448 1262.73C338.38 1252.15 345.2 1238.67 350.717 1222.65C356.151 1206.87 360.071 1189.38 362.367 1170.67C367.198 1131.28 364.246 1090.15 354.054 1054.84C345.233 1024.34 331.628 996.212 312.462 968.848C293.386 941.606 271.416 919.282 256.552 904.859C247.376 895.956 237.595 887.498 228.132 879.316C197.945 853.21 166.727 826.215 149.239 779.964C106.863 667.873 160.434 537.053 185.434 486.015C207.618 440.721 249.836 413.139 292.988 415.757C312.938 416.947 332.45 422.373 351.318 427.616C369.391 432.642 388.078 437.84 407.42 439.458C437.106 441.975 460.527 433.424 477.031 414.03C488.661 400.353 496.882 381.123 500.804 358.421C504.076 339.473 504.193 318.316 501.123 300.368C497.778 280.629 491.916 264.834 486.08 250.702C484.643 247.231 483.159 243.732 481.722 240.342C478.725 233.272 475.625 225.956 472.744 218.359C463.159 193.112 455.341 163.095 448.843 126.562C439.463 73.8702 433.119 8.01937 426.985 -55.6595L426.663 -55.5959C432.799 8.10116 439.144 73.9702 448.529 126.698C455.034 163.259 462.863 193.33 472.463 218.604C475.347 226.21 478.449 233.535 481.45 240.606C482.885 243.996 484.369 247.494 485.805 250.966C491.627 265.061 497.474 280.82 500.808 300.486C506.635 334.556 501.617 384.494 476.832 413.639C460.392 432.96 437.044 441.484 407.438 438.958C388.117 437.35 369.439 432.16 351.377 427.135C332.497 421.882 312.975 416.456 293 415.257C272.788 414.039 252.284 419.401 233.704 430.761C213.515 443.111 196.732 462.114 185.171 485.724C161.702 533.636 145.368 584.001 137.937 631.358C134.859 650.951 133.315 670.036 133.315 688.303Z" fill="#F68735"/>
<path d="M136.881 703.806C136.881 735.641 141.656 765.113 151.183 791.897C167.017 836.402 196.04 863.026 224.105 888.776C232.804 896.755 241.798 905.006 250.227 913.642C284.769 949.032 322.588 993.763 341.198 1057.23C360.602 1123.55 352.709 1209.73 323.228 1253.43C304.346 1281.29 281.802 1289.98 260.001 1298.38C254.706 1300.42 249.229 1302.54 243.923 1304.88C227.316 1312.24 213.925 1321.98 202.971 1334.68C188.756 1351.17 179.183 1372.47 174.522 1398.01C172.376 1409.88 171.321 1422.62 171.321 1435.59C171.321 1457.28 174.272 1479.6 180.016 1499.54C217.192 1628.61 232.826 1744.46 226.488 1843.88L226.813 1843.93C230.155 1791.48 227.275 1733.52 218.251 1671.63C210.297 1617.09 197.532 1559.13 180.314 1499.35C171.167 1467.58 169.117 1429.75 174.837 1398.14C183.025 1353.28 206.299 1322.06 244.011 1305.36C249.316 1303.01 254.787 1300.9 260.079 1298.86C281.923 1290.44 304.51 1281.73 323.455 1253.78C337.374 1233.15 347.048 1202.06 350.696 1166.24C354.485 1129.04 351.218 1090.26 341.496 1057.03C322.852 993.451 284.988 948.661 250.408 913.238C241.973 904.592 232.976 896.336 224.274 888.352C196.245 862.64 167.26 836.045 151.469 791.66C110.474 676.415 168.512 541.278 195.367 488.523C221.866 436.477 266.229 418.146 298.906 418.355C318.262 418.446 337.257 422.508 355.627 426.425C372.891 430.115 390.742 433.932 409.176 434.586C437.719 435.649 460.287 426.925 476.253 408.64C487.532 395.717 495.871 377.623 500.366 356.303C504.113 338.536 505.106 319.161 503.164 301.758C501.118 283.136 496.779 268.06 492.395 254.537C491.324 251.238 490.215 247.903 489.143 244.686C486.877 237.888 484.535 230.863 482.378 223.556C475.309 199.682 469.627 170.937 465.007 135.658C460.428 100.733 456.952 59.7832 453.273 16.4339C451.714 -1.9235 450.102 -20.899 448.349 -40.1289L448.027 -40.0653C449.781 -20.8354 451.392 -1.85978 452.95 16.4976C456.631 59.8651 460.108 100.815 464.688 135.758C469.313 171.064 475.002 199.855 482.081 223.756C484.242 231.072 486.586 238.106 488.853 244.913C489.925 248.13 491.034 251.456 492.103 254.755C496.477 268.241 500.804 283.282 502.843 301.839C506.572 335.256 499.735 381.122 476.058 408.249C460.152 426.462 437.652 435.159 409.184 434.095C390.768 433.432 372.927 429.624 355.672 425.944C337.292 422.018 318.285 417.955 298.908 417.855C279.517 417.737 259.87 423.672 242.09 435.041C222.789 447.373 206.543 465.767 195.108 488.223C169.897 537.752 151.947 589.307 143.203 637.328C138.987 660.466 136.885 682.658 136.881 703.806Z" fill="#F68334"/>
<path d="M140.366 718.792C140.366 749.182 144.719 777.528 153.414 803.58C167.638 846.208 194.432 872.492 220.345 897.91C228.247 905.663 236.415 913.677 244.077 922.017C277.616 958.508 311.072 1000.41 328.64 1059.42C347.175 1121.83 341.837 1201.4 316.222 1244.5C300.151 1271.4 280.827 1281.12 262.137 1290.52C257.557 1292.82 252.821 1295.2 248.231 1297.79C214.962 1316.6 195.596 1346.35 189.023 1388.74C186.777 1403.38 186.16 1419.72 187.232 1435.98C188.334 1452.63 191.224 1469.31 195.596 1484.2C222.542 1576.03 252.301 1713.41 241.034 1846.41L241.356 1846.47C246.066 1790.88 243.98 1729.77 235.158 1664.84C227.265 1606.73 214.052 1545.89 195.895 1484C187.199 1454.37 184.749 1418.8 189.339 1388.85C195.885 1346.64 215.186 1317 248.345 1298.26C252.928 1295.67 257.664 1293.29 262.241 1290.98C280.968 1281.57 300.334 1271.83 316.463 1244.83C328.389 1224.76 336.403 1195.28 339.027 1161.81C341.772 1126.81 338.189 1090.37 328.936 1059.22C320.878 1032.15 308.876 1006.74 292.243 981.532C276.254 957.292 258.204 936.781 244.268 921.612C236.601 913.267 228.426 905.249 220.52 897.496C194.643 872.111 167.888 845.867 153.703 803.358C115.457 688.765 169.614 558.49 205.298 491.04C227.07 449.89 265.209 423.035 304.826 420.945C323.622 419.936 342.139 422.599 360.045 425.189C376.465 427.552 393.444 429.997 410.932 429.715C438.336 429.315 460.052 420.418 475.476 403.251C486.557 390.91 494.784 374.397 499.928 354.186C504.073 337.891 505.947 319.77 505.203 303.148C504.454 285.654 501.64 271.286 498.71 258.381C497.993 255.218 497.247 252.028 496.525 248.939C495.005 242.45 493.433 235.734 492.011 228.754C487.458 206.526 483.912 179.044 481.171 144.755C479.511 124.026 478.136 101.006 476.68 76.6322C474.743 44.2248 472.74 10.7086 469.714 -24.5979L469.391 -24.534C472.417 10.7633 474.419 44.2703 476.356 76.6776C477.812 101.06 479.188 124.08 480.848 144.819C483.591 179.135 487.141 206.644 491.7 228.909C493.124 235.889 494.697 242.614 496.218 249.111C496.94 252.192 497.687 255.382 498.403 258.536C501.325 271.422 504.132 285.745 504.878 303.184C506.189 332.502 499.224 376.187 475.283 402.86C459.916 419.955 438.264 428.833 410.929 429.215C393.457 429.497 376.487 427.052 360.076 424.689C342.159 422.108 323.632 419.437 304.815 420.454C286.241 421.427 267.448 427.943 250.464 439.294C232.04 451.608 216.334 469.393 205.045 490.731C178.062 541.732 158.504 594.469 148.489 643.217C143.074 669.59 140.366 694.827 140.366 718.792Z" fill="#F57F33"/>
<path d="M143.772 733.469C143.772 762.55 147.727 789.883 155.639 815.268C168.342 856.023 192.916 882.031 216.681 907.179C223.75 914.659 231.064 922.392 237.929 930.386C268.738 966.239 299.53 1006.96 316.081 1061.62C335.824 1126.99 327.277 1200.04 309.214 1235.58C295.949 1261.5 279.838 1272.24 264.258 1282.63C260.396 1285.2 256.402 1287.86 252.537 1290.71C240.266 1299.74 230.638 1309.85 223.101 1321.62C212.894 1337.56 206.305 1357.02 203.522 1379.47C200.006 1408.26 202.798 1440.84 211.174 1468.86C239.561 1563.79 270.308 1706.78 255.576 1848.94L255.898 1849.02C261.986 1790.27 260.702 1726.01 252.088 1658.03C244.278 1596.38 230.612 1532.67 211.47 1468.66C203.12 1440.73 200.337 1408.25 203.841 1379.56C210.257 1327.82 234.786 1304.33 252.68 1291.15C256.538 1288.31 260.53 1285.65 264.388 1283.08C280.006 1272.67 296.155 1261.9 309.47 1235.88C319.394 1216.36 325.745 1188.48 327.356 1157.38C329.079 1124.09 325.283 1090.91 316.375 1061.41C299.796 1006.65 268.968 965.889 238.124 929.991C231.256 921.997 223.939 914.255 216.866 906.769C193.137 881.661 168.599 855.693 155.935 815.061C118.951 696.399 177.213 562.698 215.231 493.557C236.889 454.17 272.596 427.997 310.745 423.544C329.03 421.381 347.119 422.636 364.611 423.844C380.139 424.926 396.196 426.034 412.688 424.844C439.327 422.972 459.611 414.147 474.697 397.862C503.157 367.127 506.801 318.67 507.239 304.548C507.782 288.171 506.495 274.521 505.022 262.225C504.651 259.126 504.259 256 503.881 252.974C503.114 246.858 502.321 240.532 501.64 233.962C499.509 213.587 498.18 188.877 497.333 153.852C497.126 145.373 496.948 136.585 496.76 127.279C495.932 86.3745 494.995 40.0171 491.077 -9.05747L490.754 -9.00278C494.671 40.0536 495.608 86.4018 496.435 127.288C496.623 136.603 496.801 145.4 497.008 153.87C497.856 188.922 499.186 213.65 501.32 234.044C502 240.623 502.794 246.948 503.561 253.065C503.94 256.091 504.332 259.217 504.702 262.307C506.171 274.585 507.456 288.189 506.914 304.529C506.478 318.588 502.849 366.854 474.508 397.462C459.475 413.684 439.248 422.481 412.672 424.353C396.195 425.544 380.146 424.426 364.626 423.353C347.123 422.136 329.024 420.891 310.72 423.044C292.957 425.117 275.011 432.205 258.824 443.538C241.267 455.815 226.107 473.01 214.984 493.239C201.433 517.877 189.529 542.896 179.599 567.596C168.456 595.314 159.78 622.696 153.812 649.015C147.117 678.514 143.772 706.732 143.772 733.469Z" fill="#F57B32"/>
<path d="M147.131 747.965C147.131 775.826 150.709 802.209 157.867 826.956C169.127 865.876 191.493 891.676 213.122 916.622C219.324 923.776 225.74 931.174 231.777 938.757C257.959 971.618 287.258 1011.1 303.523 1063.82C322.068 1124.08 316.898 1191.35 302.206 1226.66C291.74 1251.61 278.835 1263.35 266.359 1274.71C263.219 1277.57 259.979 1280.52 256.842 1283.63C240.943 1299.39 222.165 1323.47 218.021 1370.2C215.68 1397.26 218.862 1427.63 226.754 1453.52C268.982 1592.01 284.384 1733.35 270.123 1851.48L270.441 1851.57C277.918 1789.64 277.45 1722.23 269.05 1651.2C261.344 1586.02 247.21 1519.44 227.051 1453.31C219.181 1427.51 216.009 1397.24 218.342 1370.26C222.47 1323.74 241.181 1299.75 257.017 1284.04C260.151 1280.94 263.392 1277.99 266.525 1275.14C279.036 1263.75 291.972 1251.97 302.481 1226.93C317.22 1191.5 322.412 1124.03 303.817 1063.6C287.524 1010.79 258.197 971.272 231.985 938.372C225.942 930.788 219.526 923.386 213.321 916.231C191.724 891.32 169.39 865.56 158.166 826.759C150.722 801.024 147.54 774.684 147.54 748.501C147.54 649.18 193.242 551.903 225.166 496.067C246.346 459.034 280.551 432.888 316.665 426.136C334.509 422.773 352.242 422.573 369.392 422.374C383.959 422.201 399.022 422.028 414.446 419.974C439.941 416.621 459.395 407.633 473.919 392.483C484.275 381.66 492.73 367.355 499.049 349.952C505.221 332.958 508.017 316.645 509.275 305.958C511.092 290.799 511.287 277.949 511.332 266.08C511.348 261.999 511.322 257.865 511.296 253.875C511.266 249.14 511.235 244.233 511.269 239.18C511.38 220.004 512.22 197.339 513.193 171.093L513.495 162.951C515.178 117.093 516.624 63.3837 512.443 6.47524L512.12 6.52981C516.298 63.4109 514.853 117.084 513.17 162.923L512.869 171.066C511.895 197.321 511.055 219.995 510.945 239.18C510.91 244.242 510.941 249.14 510.971 253.875C510.997 257.874 511.023 261.999 511.007 266.08C510.963 277.921 510.767 290.754 508.955 305.867C506.962 322.807 499.539 365.12 473.735 392.065C459.258 407.178 439.856 416.139 414.418 419.484C399.007 421.528 383.95 421.71 369.389 421.883C352.231 422.073 334.488 422.283 316.625 425.645C299.671 428.817 282.57 436.469 267.172 447.765C250.24 460.188 236.022 476.328 224.921 495.749C210.567 520.85 197.9 546.305 187.274 571.406C175.28 599.724 165.83 627.76 159.184 654.714C151.151 687.295 147.134 718.457 147.131 747.965Z" fill="#F47731"/>
<path d="M150.476 762.423C150.473 789.088 153.678 814.547 160.095 838.643C169.986 875.805 190.165 901.491 209.678 926.328C214.973 933.068 220.447 940.04 225.625 947.121C250.413 981.033 275.878 1018.14 290.962 1066.01C308.908 1123.1 305.736 1184.69 295.196 1217.75C287.563 1241.69 277.858 1254.41 268.47 1266.71C266.051 1269.88 263.549 1273.15 261.137 1276.56C255.332 1284.76 248.665 1294.99 243.223 1308.58C236.963 1324.23 233.462 1341.36 232.519 1360.93C232.376 1364.07 232.305 1367.26 232.305 1370.47C232.305 1393.17 235.851 1417.35 242.332 1438.18C286.732 1580.86 301.767 1728.54 284.666 1854.01L284.984 1854.11C293.859 1788.99 294.215 1718.41 286.041 1644.34C278.455 1575.6 263.848 1506.17 242.625 1437.97C235.253 1414.27 231.687 1386.21 232.845 1360.97C234.827 1319.72 247.722 1296.2 261.358 1276.92C263.766 1273.52 266.266 1270.25 268.681 1267.08C278.095 1254.75 287.826 1242 295.488 1217.96C301.372 1199.51 304.409 1174.86 304.033 1148.54C303.623 1119.7 299.205 1091.08 291.256 1065.79C276.144 1017.85 250.654 980.698 225.843 946.755C220.662 939.665 215.184 932.693 209.886 925.948C190.403 901.15 170.259 875.509 160.397 838.46C153.763 813.535 150.893 788.194 150.893 763.05C150.893 658.194 200.72 556.355 235.097 498.583C256.076 463.331 287.964 437.867 322.584 428.725C340.088 424.081 356.797 422.427 374.486 420.673C387.991 419.328 401.955 417.947 416.201 415.102C440.9 410.213 458.992 401.316 473.138 387.093C483.127 377.033 491.696 363.828 498.605 347.843C503.804 335.81 508.077 322.197 511.305 307.356C514.429 293.152 516.193 280.983 517.634 269.932C518.236 265.325 518.801 260.844 519.4 256.11C519.883 252.293 520.373 248.412 520.89 244.404C521.335 240.924 521.8 237.334 522.28 233.626C524.581 215.85 527.19 195.711 529.652 172.056C535.454 116.238 536.812 67.1632 533.805 22.0055L533.481 22.06C536.487 67.1723 535.128 116.201 529.331 171.974C526.87 195.62 524.262 215.768 521.961 233.535C521.481 237.243 521.016 240.833 520.571 244.313C520.053 248.321 519.563 252.193 519.081 256.019C518.482 260.753 517.917 265.225 517.315 269.841C515.876 280.865 514.115 293.024 510.996 307.202C503.489 341.699 490.336 369.181 472.959 386.675C458.856 400.861 440.808 409.731 416.159 414.611C401.923 417.456 387.964 418.837 374.465 420.182C356.767 421.936 340.049 423.59 322.529 428.243C306.377 432.505 290.117 440.712 275.507 451.972C259.44 464.349 245.765 479.917 234.857 498.247C219.706 523.711 206.274 549.575 194.943 575.122C182.13 604.003 171.926 632.666 164.616 660.302C155.19 695.936 150.476 730.07 150.476 762.423Z" fill="#F47330"/>
<path d="M153.839 777.006C153.836 802.465 156.664 826.947 162.322 850.332C170.927 885.879 188.948 911.585 206.377 936.446C210.719 942.639 215.205 949.037 219.476 955.486C243.543 991.848 264.59 1025.42 278.405 1068.2C294.903 1119.43 295.206 1175.75 288.19 1208.84C283.33 1231.76 276.802 1245.44 270.49 1258.67C268.819 1262.17 267.093 1265.79 265.435 1269.5C257.679 1286.92 247.06 1310.77 247.021 1351.67C247.054 1375.58 250.921 1400.86 257.914 1422.84C304.564 1569.53 319.23 1723.56 299.212 1856.55L299.528 1856.66C309.818 1788.3 311.012 1714.55 303.076 1637.45C295.632 1565.12 280.535 1492.84 258.206 1422.62C251.234 1400.71 247.378 1375.51 247.346 1351.67C247.385 1310.92 257.972 1287.14 265.705 1269.78C267.36 1266.07 269.082 1262.46 270.753 1258.96C277.082 1245.7 283.623 1231.98 288.499 1209C295.537 1175.81 295.235 1119.34 278.697 1067.98C264.859 1025.14 243.793 991.527 219.704 955.136C215.432 948.682 210.94 942.278 206.601 936.086C189.198 911.263 171.206 885.597 162.628 850.159C156.777 825.989 154.219 801.592 154.219 777.451C154.219 666.51 208.216 560.482 245.032 501.102C265.467 468.131 295.893 442.703 328.507 431.316C345.829 425.254 362.463 422.019 380.074 418.602C392.356 416.212 405.057 413.749 417.96 410.232C434.041 405.879 454.757 398.699 472.361 381.696C494.339 360.457 506.271 329.895 513.334 308.766C517.783 295.543 521.057 284.146 523.932 273.795C526.512 264.507 528.54 257.055 530.508 249.621C534.945 232.809 540.694 209.835 545.811 181.153C554.705 131.27 557.858 82.9496 555.172 37.5465L554.849 37.5919C557.529 82.9314 554.382 131.197 545.498 181.026C540.384 209.68 534.64 232.636 530.207 249.44C528.239 256.864 526.212 264.317 523.633 273.604C520.76 283.946 517.489 295.334 513.044 308.538C505.998 329.622 494.098 360.103 472.187 381.287C454.631 398.236 433.955 405.397 417.903 409.741C405.007 413.258 392.311 415.73 380.033 418.111C362.414 421.528 345.772 424.763 328.433 430.843C313.082 436.196 297.662 444.957 283.84 456.153C268.634 468.494 255.498 483.498 244.794 500.756C228.864 526.457 214.675 552.694 202.623 578.739C189.028 608.121 178.1 637.402 170.14 665.774C159.277 704.498 153.839 741.694 153.839 777.006Z" fill="#F36E2E"/>
<path d="M157.243 791.941C157.243 816.087 159.677 839.477 164.553 862.013C171.945 896.202 187.873 922.154 203.277 947.258C206.599 952.665 210.031 958.26 213.324 963.849L214.712 966.204C232.46 996.304 252.577 1030.41 265.849 1070.39C281.765 1118.46 284.058 1170.23 281.184 1199.94C279.072 1221.78 275.701 1236.38 272.438 1250.5C271.544 1254.38 270.618 1258.39 269.736 1262.47C269.399 1264.03 269.048 1265.63 268.69 1267.27C264.672 1285.58 259.673 1308.36 261.523 1342.4C262.777 1364.53 267.029 1387.65 273.495 1407.5C321.775 1555.78 336.451 1720.37 313.757 1859.08L314.072 1859.2C325.793 1787.57 327.842 1710.63 320.164 1630.52C316.527 1592.59 310.683 1554.19 302.792 1516.41C295.046 1479.32 285.286 1442.6 273.783 1407.28C267.338 1387.48 263.099 1364.43 261.848 1342.36C260.002 1308.42 264.988 1285.69 268.999 1267.43C269.356 1265.79 269.708 1264.19 270.046 1262.62C270.923 1258.55 271.849 1254.54 272.747 1250.66C276.013 1236.52 279.39 1221.9 281.506 1200.02C283.208 1182.42 282.918 1160.98 280.69 1139.66C278.142 1115.25 273.11 1091.22 266.138 1070.17C252.847 1030.14 232.716 995.999 214.955 965.878L213.564 963.523C210.272 957.929 206.836 952.334 203.514 946.923C188.136 921.858 172.231 895.945 164.863 861.86C133.982 719.082 208.058 576.12 254.963 503.608C275.133 472.437 303.353 447.672 334.43 433.913C351.834 426.179 368.666 421.172 386.487 415.865C397.279 412.657 408.438 409.33 419.72 405.359C435.046 399.97 454.791 391.809 471.583 376.314C493.857 355.73 507.844 326.085 515.359 310.163C521.337 297.567 526.228 286.653 530.225 277.647C533.744 269.713 536.917 262.525 540.122 254.836C549.246 232.907 556.184 212.387 561.969 190.258C570.201 158.732 579.408 109.339 576.537 53.076L576.214 53.1123C579.079 109.276 569.884 158.595 561.664 190.076C555.891 212.178 548.96 232.671 539.847 254.573C536.645 262.252 533.473 269.44 529.956 277.365C525.96 286.371 521.07 297.286 515.095 309.881C507.593 325.776 493.631 355.357 471.414 375.887C454.662 391.354 434.949 399.506 419.647 404.868C408.371 408.849 397.214 412.166 386.424 415.374C368.596 420.69 351.757 425.698 334.339 433.431C303.21 447.227 274.938 472.028 254.732 503.263C238.044 529.063 223.098 555.636 210.311 582.264C195.993 612.063 184.378 641.953 175.784 671.116C163.432 713.029 157.243 753.443 157.243 791.941Z" fill="#F36A2D"/>
<path d="M160.72 807.556C160.72 830.181 162.739 852.247 166.779 873.702C173.063 907.036 187.017 933.666 200.516 959.421C202.707 963.604 204.973 967.929 207.17 972.215C209.013 975.804 210.879 979.419 212.761 983.058C227.125 1010.85 241.976 1039.6 253.288 1072.59C265.256 1107.58 273.068 1151.87 274.182 1191.06C274.771 1211.69 274.508 1227.09 274.254 1241.98C274.179 1246.36 274.101 1250.89 274.046 1255.45C274.004 1259.42 273.893 1263.54 273.776 1267.89C273.324 1284.88 272.762 1306.03 276.025 1333.15C277.79 1347.54 281.486 1369.46 289.072 1392.16C339.767 1543.82 354.065 1714.94 328.301 1861.62L328.615 1861.74C335.241 1824.02 339.31 1784.34 340.707 1743.81C342.061 1704.5 340.919 1664.04 337.313 1623.53C333.785 1583.91 327.878 1544 319.757 1504.91C311.728 1466.27 301.501 1428.25 289.362 1391.93C281.793 1369.29 278.106 1347.42 276.344 1333.06C273.087 1306 273.626 1285.76 274.101 1267.91C274.218 1263.55 274.329 1259.44 274.371 1255.45C274.426 1250.9 274.504 1246.37 274.579 1242C274.833 1227.1 275.096 1211.69 274.508 1191.03C274.007 1173.45 272.109 1154.15 269.014 1135.21C265.335 1112.69 260.14 1091.55 253.578 1072.36C242.249 1039.32 227.388 1010.57 213.017 982.752C211.135 979.113 209.27 975.498 207.427 971.909C205.226 967.623 202.96 963.298 200.77 959.115C187.293 933.399 173.355 906.805 167.091 873.564C138.522 721.955 216.109 578.276 264.896 506.127C290.001 469.003 319.785 447.774 340.351 436.495C358.329 426.626 375.869 419.447 394.439 411.84C403.238 408.241 412.338 404.515 421.478 400.48C436.994 393.655 454.988 384.813 470.802 370.926C490.707 353.432 505.151 330.758 516.755 312.546L517.38 311.564C524.642 300.214 530.661 290.789 536.513 281.483C540.739 274.822 545.241 267.67 549.73 260.045C561.592 239.861 570.613 220.576 578.121 199.365C586.563 175.5 600.358 126.771 597.899 68.6087L597.576 68.6449C600.029 126.68 586.258 175.309 577.834 199.129C570.344 220.313 561.334 239.561 549.488 259.718C545.003 267.334 540.503 274.477 536.279 281.147C530.427 290.444 524.408 299.868 517.146 311.219L516.522 312.2C504.932 330.394 490.505 353.041 470.64 370.499C454.855 384.358 436.884 393.192 421.388 400.008C412.25 404.034 403.153 407.769 394.354 411.367C375.778 418.974 358.231 426.162 340.241 436.032C319.645 447.319 289.816 468.585 264.668 505.772C227.83 560.254 199.099 619.226 181.582 676.316C167.686 721.61 160.72 765.522 160.72 807.556Z" fill="#F2662C"/>
<path d="M164.318 824.472C164.318 845.216 165.882 865.589 169.009 885.384C174.324 919.05 186.613 947.378 198.501 974.767C199.342 976.703 200.181 978.634 201.016 980.569C204.498 988.623 208.038 996.548 211.783 1004.94C221.7 1027.16 231.955 1050.14 240.731 1074.78C251.507 1105.11 260.41 1141.24 267.187 1182.17C270.373 1201.64 273.136 1217.78 275.808 1233.39C276.659 1238.38 277.511 1243.35 278.372 1248.42C279.681 1256.09 280.841 1264.15 282.068 1272.69C284.206 1287.56 286.628 1304.42 290.531 1323.89C294.406 1343.05 299.157 1360.86 304.652 1376.82C357.889 1531.45 371.81 1709.07 342.845 1864.15L343.158 1864.29C350.5 1824.98 355.166 1783.7 357.028 1741.6C358.842 1700.57 358.007 1658.47 354.547 1616.47C351.14 1575.13 345.174 1533.7 336.817 1493.33C328.492 1453.12 317.767 1413.85 304.94 1376.59C299.454 1360.66 294.711 1342.88 290.842 1323.75C286.943 1304.29 284.522 1287.45 282.385 1272.59C281.157 1264.04 279.997 1255.97 278.688 1248.29C277.826 1243.23 276.974 1238.26 276.12 1233.27C273.451 1217.66 270.688 1201.52 267.503 1182.05C260.719 1141.08 251.806 1104.91 241.017 1074.55C232.234 1049.88 221.973 1026.89 212.049 1004.66C208.307 996.271 204.771 988.352 201.29 980.298C200.451 978.362 199.612 976.431 198.774 974.495C186.903 947.141 174.626 918.852 169.324 885.266C142.79 717.193 234.266 565.888 274.829 508.635C294.118 481.407 318.823 457.361 346.274 439.094C365.884 426.017 385.25 415.766 405.752 404.924C411.459 401.897 417.36 398.78 423.238 395.6C437.781 387.775 454.59 378.342 470.023 365.537C487.803 350.778 502.501 333.184 515.469 317.653C516.797 316.062 518.106 314.499 519.4 312.963C524.19 307.265 528.857 301.767 533.372 296.451C536.553 292.697 539.689 289.008 542.803 285.318C548.144 279.02 553.82 272.286 559.342 265.243C574.017 246.495 585.115 228.455 594.274 208.471C602.261 191.031 608.74 171.347 613.011 151.544C617.881 128.97 619.987 106.296 619.263 84.1485L618.94 84.1757C620.783 140.693 604.109 186.133 594.005 208.189C584.864 228.128 573.784 246.14 559.133 264.87C553.617 271.904 547.942 278.638 542.603 284.936C539.49 288.617 536.354 292.307 533.173 296.06C528.658 301.376 523.99 306.875 519.2 312.573C517.906 314.109 516.596 315.681 515.269 317.271C502.311 332.784 487.623 350.36 469.867 365.101C454.454 377.887 437.66 387.311 423.129 395.136C417.253 398.317 411.352 401.434 405.645 404.451C385.137 415.302 365.766 425.553 346.143 438.64C318.66 456.934 293.923 481.008 274.608 508.28C236.513 562.044 206.422 621.897 187.586 681.377C176.904 715.121 169.809 748.828 166.503 781.568C165.046 795.996 164.318 810.321 164.318 824.472Z" fill="#F2622B"/>
<path d="M167.977 843.497C167.977 861.628 169.063 879.528 171.234 897.067C175.466 931.24 185.228 961.183 194.862 988.924C201.019 1006.65 207.737 1023.92 214.85 1042.22C219.248 1053.53 223.795 1065.23 228.174 1076.98C239.781 1108.19 249.776 1140.05 258.595 1168.16L260.197 1173.27C265.759 1191.06 271.272 1207.4 276.603 1223.21C278.602 1229.14 280.673 1235.28 282.704 1241.37C288.272 1258.06 293.551 1275.9 299.141 1294.79C301.034 1301.19 302.992 1307.81 305.038 1314.64C310.539 1332.94 315.366 1347.83 320.23 1361.48C376.175 1518.5 389.719 1702.64 357.388 1866.69L357.7 1866.83C365.763 1825.91 371.042 1783.03 373.388 1739.35C375.688 1696.55 375.183 1652.79 371.888 1609.32C368.621 1566.2 362.602 1523.24 353.999 1481.64C345.359 1439.86 334.094 1399.35 320.516 1361.24C315.656 1347.6 310.831 1332.73 305.333 1314.44C303.288 1307.6 301.33 1300.99 299.437 1294.59C293.846 1275.69 288.566 1257.85 282.994 1241.15C280.963 1235.05 278.895 1228.92 276.892 1222.98C271.561 1207.18 266.051 1190.84 260.49 1173.06L258.888 1167.95C250.065 1139.83 240.07 1107.96 228.456 1076.74C224.078 1064.98 219.527 1053.28 215.129 1041.97C208.017 1023.68 201.301 1006.41 195.148 988.697C185.527 960.986 175.779 931.083 171.553 896.973C156.012 771.483 198.334 627.25 284.759 511.152C303.789 485.588 326.478 462.214 352.196 441.675C376.476 422.272 401.142 406.232 424.997 390.728L425.388 390.474C439.882 381.059 454.869 371.326 469.241 360.147C485.195 347.733 499.7 334.356 513.727 321.424C516.317 319.034 518.88 316.671 521.42 314.345C526.318 309.864 531.213 305.411 535.946 301.113C540.361 297.105 544.738 293.133 549.092 289.144C555.434 283.355 562.195 277.148 568.949 270.432C586.508 252.983 599.687 236.18 610.42 217.559C619.747 201.391 627.41 182.797 632.579 163.804C638.388 142.465 641.092 120.89 640.626 99.6794L640.303 99.7066C641.176 139.675 630.198 182.507 610.174 217.24C599.466 235.825 586.304 252.592 568.769 270.023C562.021 276.73 555.267 282.937 548.925 288.726C544.57 292.706 540.193 296.678 535.78 300.685C531.046 304.993 526.152 309.437 521.252 313.926C518.712 316.253 516.149 318.616 513.558 321.006C499.536 333.929 485.036 347.297 469.094 359.702C454.731 370.889 439.749 380.613 425.26 390.019L424.868 390.274C401.008 405.787 376.336 421.827 352.045 441.239C326.303 461.795 303.593 485.197 284.544 510.779C245.378 563.398 214.018 624.096 193.855 686.312C182.715 720.691 175.07 755.371 171.134 789.384C169.031 807.565 167.977 825.647 167.977 843.497Z" fill="#F15E2A"/>
<path d="M171.662 866.092C171.662 880.446 172.26 894.681 173.466 908.744C175.761 935.566 180.071 961.82 186.647 989.007C192.507 1013.24 200.048 1037.67 209.702 1063.7C227.636 1112.06 250.386 1158.83 272.392 1204.07C294.587 1249.7 317.54 1296.89 335.812 1346.14C393.814 1502.47 407.317 1698.01 371.935 1869.22L372.245 1869.37C381.04 1826.82 386.948 1782.3 389.807 1737.06C392.628 1692.4 392.485 1646.97 389.381 1602.02C386.277 1557.08 380.211 1512.59 371.35 1469.79C362.373 1426.44 350.512 1384.75 336.095 1345.9C317.813 1296.62 294.855 1249.42 272.652 1203.78C228.735 1113.49 183.325 1020.13 173.787 908.68C162.144 772.638 207.343 624.959 294.693 513.669C359.077 431.633 437.076 376.633 512.507 323.441C526.595 313.508 541.164 303.239 555.388 292.97C581.382 274.194 606.389 255.001 626.574 226.655C649.481 194.493 662.392 153.879 661.991 115.22L661.668 115.229C662.063 153.761 649.188 194.23 626.353 226.301C606.204 254.591 581.221 273.767 555.245 292.524C541.026 302.784 526.458 313.063 512.37 322.996C436.92 376.197 358.901 431.206 294.484 513.287C254.443 564.307 221.931 625.804 200.465 691.146C188.977 726.098 180.809 761.777 176.186 797.186C173.17 820.284 171.662 843.334 171.662 866.092Z" fill="#F15A29"/>
</g>
</svg>
