<svg width="25" height="25" viewBox="0 0 25 25" fill="none" xmlns="http://www.w3.org/2000/svg">
<g id="SVG" clip-path="url(#clip0_803_1518)">
<path id="Vector" d="M12.5 0.664917C18.9219 0.664917 24.125 5.86804 24.125 12.2899C24.125 18.7118 18.9219 23.9149 12.5 23.9149C6.07812 23.9149 0.875 18.7118 0.875 12.2899C0.875 5.86804 6.07812 0.664917 12.5 0.664917ZM7.0625 14.3524H12.5V17.6759C12.5 18.1774 13.1094 18.4305 13.4609 18.0743L18.8187 12.6884C19.0391 12.468 19.0391 12.1165 18.8187 11.8962L13.4609 6.50554C13.1047 6.14929 12.5 6.40242 12.5 6.90398V10.2274H7.0625C6.75313 10.2274 6.5 10.4805 6.5 10.7899V13.7899C6.5 14.0993 6.75313 14.3524 7.0625 14.3524Z" fill="#040404"/>
</g>
<defs>
<clipPath id="clip0_803_1518">
<rect width="24" height="24" fill="white" transform="translate(0.5 0.289917)"/>
</clipPath>
</defs>
</svg>