<svg width="25" height="25" viewBox="0 0 25 25" fill="none" xmlns="http://www.w3.org/2000/svg">
<g id="SVG" clip-path="url(#clip0_803_1741)">
<path id="Vector" d="M16.9 20.6898C16.9 18.3598 14.58 16.4598 11.71 16.4598C8.84002 16.4598 6.52002 18.3498 6.52002 20.6898M11.71 14.2198C12.4553 14.2198 13.17 13.9237 13.697 13.3967C14.224 12.8698 14.52 12.155 14.52 11.4098C14.52 10.6645 14.224 9.9498 13.697 9.42282C13.17 8.89585 12.4553 8.59979 11.71 8.59979C10.9648 8.59979 10.25 8.89585 9.72305 9.42282C9.19607 9.9498 8.90002 10.6645 8.90002 11.4098C8.90002 12.155 9.19607 12.8698 9.72305 13.3967C10.25 13.9237 10.9648 14.2198 11.71 14.2198Z" stroke="white" stroke-width="1.5" stroke-linecap="round" stroke-linejoin="round"/>
<path id="Vector_2" d="M21.25 12.9899C21.25 18.2399 17 22.4899 11.75 22.4899C6.5 22.4899 2.25 18.2399 2.25 12.9899C2.25 7.73993 6.5 3.48993 11.75 3.48993C13.06 3.48993 14.31 3.74993 15.45 4.22993C15.32 4.62993 15.25 5.04993 15.25 5.48993C15.25 6.23993 15.46 6.94993 15.83 7.54993C16.03 7.88993 16.29 8.19993 16.59 8.45993C17.29 9.09993 18.22 9.48993 19.25 9.48993C19.69 9.48993 20.11 9.41993 20.5 9.27993C20.98 10.4199 21.25 11.6799 21.25 12.9899Z" stroke="white" stroke-width="1.5" stroke-linecap="round" stroke-linejoin="round"/>
<path id="Vector_3" d="M20.74 5.46994H17.76M19.25 4.00994V6.99994M23.25 5.48994C23.25 5.80994 23.21 6.11994 23.13 6.41994C23.04 6.81994 22.88 7.20994 22.67 7.54994C22.19 8.35994 21.42 8.98994 20.5 9.27994C20.11 9.41994 19.69 9.48993 19.25 9.48993C18.2655 9.49282 17.3159 9.12513 16.59 8.45994C16.29 8.19994 16.03 7.88994 15.83 7.54994C15.4493 6.93036 15.2485 6.21711 15.25 5.48994C15.25 5.04994 15.32 4.62994 15.45 4.22994C15.7143 3.4313 16.2239 2.73647 16.9062 2.24447C17.5886 1.75247 18.4088 1.48841 19.25 1.48994C20.43 1.48994 21.5 1.99994 22.22 2.81994C22.86 3.52994 23.25 4.46994 23.25 5.48994Z" stroke="white" stroke-width="1.5" stroke-miterlimit="10" stroke-linecap="round" stroke-linejoin="round"/>
</g>
<defs>
<clipPath id="clip0_803_1741">
<rect width="24" height="24" fill="white" transform="translate(0.25 0.489929)"/>
</clipPath>
</defs>
</svg>