<svg width="25" height="25" viewBox="0 0 25 25" fill="none" xmlns="http://www.w3.org/2000/svg">
<g id="SVG" clip-path="url(#clip0_803_1771)">
<g id="Clip path group">
<mask id="mask0_803_1771" style="mask-type:luminance" maskUnits="userSpaceOnUse" x="0" y="0" width="25" height="25">
<g id="clip0_53_86">
<path id="Vector" d="M24.25 0.489929H0.25V24.4899H24.25V0.489929Z" fill="white"/>
</g>
</mask>
<g mask="url(#mask0_803_1771)">
<g id="Group">
<path id="Vector_2" d="M21.375 13.4274V11.5524H26.25V13.4274H21.375ZM23 22.4899L19.0675 19.6774L20.2375 18.1774L24.17 20.9899L23 22.4899ZM20.335 6.77118L19.165 5.27118L23 2.48993L24.17 3.98993L20.335 6.77118ZM4.475 21.2399V16.2399H2.2C1.65833 16.2399 1.19792 16.0576 0.81875 15.693C0.439583 15.3284 0.25 14.8857 0.25 14.3649V10.6149C0.25 10.0941 0.439583 9.65139 0.81875 9.28681C1.19792 8.92222 1.65833 8.73993 2.2 8.73993H8.05L14.55 4.98993V19.9899L8.05 16.2399H6.425V21.2399H4.475ZM15.85 16.6774V8.30243C16.435 8.80243 16.9062 9.41181 17.2637 10.1306C17.6212 10.8493 17.8 11.6357 17.8 12.4899C17.8 13.3441 17.6212 14.1305 17.2637 14.8493C16.9062 15.568 16.435 16.1774 15.85 16.6774ZM2.2 10.6149V14.3649H8.57L12.6 16.6774V8.30243L8.57 10.6149H2.2Z" fill="white"/>
</g>
</g>
</g>
</g>
<defs>
<clipPath id="clip0_803_1771">
<rect width="24" height="24" fill="white" transform="translate(0.25 0.489929)"/>
</clipPath>
</defs>
</svg>