<svg width="25" height="25" viewBox="0 0 25 25" fill="none" xmlns="http://www.w3.org/2000/svg">
<g id="SVG" clip-path="url(#clip0_803_1757)">
<path id="Vector" d="M7.61154 21.4899C7.16026 21.4899 6.76538 21.3211 6.42692 20.9836C6.08846 20.6461 5.91923 20.2524 5.91923 19.8024V16.9899H9.41667V13.418C8.70214 13.4743 7.98761 13.3758 7.27308 13.1227C6.55855 12.8696 5.91923 12.4711 5.35513 11.9274V10.2962H3.94487L0.25 6.61181C0.926923 5.97431 1.73547 5.45399 2.67564 5.05087C3.61581 4.64774 4.57479 4.44618 5.55256 4.44618C6.11667 4.44618 6.76068 4.53524 7.48462 4.71337C8.20855 4.89149 8.85256 5.17743 9.41667 5.57118V3.48993H22.25V18.5368C22.25 19.3618 21.9632 20.0602 21.3897 20.6321C20.8162 21.204 20.1158 21.4899 19.2885 21.4899H7.61154ZM11.109 16.9899H18.0192V18.5368C18.0192 18.9118 18.1368 19.2165 18.3718 19.4508C18.6068 19.6852 18.9124 19.8024 19.2885 19.8024C19.6645 19.8024 19.9701 19.6852 20.2051 19.4508C20.4402 19.2165 20.5577 18.9118 20.5577 18.5368V5.17743H11.109V6.78056L17.9064 13.5586V14.768H16.6936L13.1397 11.2243L12.6603 11.7868C12.4158 12.068 12.1714 12.2836 11.9269 12.4336C11.6825 12.5836 11.4098 12.7243 11.109 12.8555V16.9899ZM4.70641 8.60868H7.04744V11.1118C7.36709 11.318 7.68205 11.4727 7.99231 11.5758C8.30256 11.679 8.61752 11.7305 8.93718 11.7305C9.40727 11.7305 9.88675 11.604 10.3756 11.3508C10.8645 11.0977 11.2218 10.8399 11.4474 10.5774L11.9269 10.0149L9.98077 8.0743C9.37906 7.4743 8.70214 7.00087 7.95 6.65399C7.19786 6.30712 6.39872 6.13368 5.55256 6.13368C5.04487 6.13368 4.58419 6.19462 4.17051 6.31649C3.75684 6.43837 3.33376 6.60243 2.90128 6.80868L4.70641 8.60868ZM16.3269 18.6774H7.61154V19.8024H16.7218C16.609 19.6899 16.515 19.5352 16.4397 19.3383C16.3645 19.1415 16.3269 18.9212 16.3269 18.6774Z" fill="white"/>
</g>
<defs>
<clipPath id="clip0_803_1757">
<rect width="24" height="24" fill="white" transform="translate(0.25 0.489929)"/>
</clipPath>
</defs>
</svg>