<svg width="116" height="26" viewBox="0 0 116 26" fill="none" xmlns="http://www.w3.org/2000/svg">
<g id="Group-3-1.svg">
<path id="Vector" d="M6.3955 23.0123L8.08572 15.7053L2.41699 10.7907L9.90594 10.1406L12.8183 3.24976L15.7307 10.1406L23.2197 10.7907L17.551 15.7053L19.2411 23.0123L12.8183 19.1377L6.3955 23.0123Z" fill="#FFC621"/>
<path id="Vector_2" d="M28.8623 23.0123L30.5526 15.7053L24.8838 10.7907L32.3727 10.1406L35.2852 3.24976L38.1976 10.1406L45.6865 10.7907L40.0178 15.7053L41.7079 23.0123L35.2852 19.1377L28.8623 23.0123Z" fill="#FFC621"/>
<path id="Vector_3" d="M51.3296 23.0123L53.0198 15.7053L47.3511 10.7907L54.84 10.1406L57.7524 3.24976L60.6647 10.1406L68.1537 10.7907L62.485 15.7053L64.1752 23.0123L57.7524 19.1377L51.3296 23.0123Z" fill="#FFC621"/>
<path id="Vector_4" d="M73.7964 23.0123L75.4866 15.7053L69.8179 10.7907L77.3068 10.1406L80.2192 3.24976L83.1315 10.1406L90.6205 10.7907L84.9518 15.7053L86.642 23.0123L80.2192 19.1377L73.7964 23.0123Z" fill="#FFC621"/>
<path id="Vector_5" d="M102.686 7.25427V17.3176L106.768 19.7878L105.676 15.1593L109.265 12.0389L104.532 11.6228L102.686 7.25427ZM96.2631 23.0123L97.9533 15.7053L92.2847 10.7907L99.7736 10.1406L102.686 3.24976L105.598 10.1406L113.087 10.7907L107.419 15.7053L109.109 23.0123L102.686 19.1377L96.2631 23.0123Z" fill="#FECD3E"/>
</g>
</svg>