<svg xmlns="http://www.w3.org/2000/svg" width="21" height="16" viewBox="0 0 21 16" fill="none">
  <path d="M7.16704 11C7.09235 11 7.01767 11.0109 6.94642 11.0341C6.54142 11.1656 6.11548 11.25 5.66704 11.25C5.2186 11.25 4.79267 11.1656 4.38735 11.0341C4.3161 11.0109 4.24173 11 4.16704 11C2.22767 11 0.65673 12.5775 0.667043 14.5194C0.671418 15.34 1.34611 16 2.16704 16H9.16704C9.98798 16 10.6627 15.34 10.667 14.5194C10.6774 12.5775 9.10642 11 7.16704 11ZM5.66704 10C7.32392 10 8.66704 8.65687 8.66704 7C8.66704 5.34312 7.32392 4 5.66704 4C4.01017 4 2.66704 5.34312 2.66704 7C2.66704 8.65687 4.01017 10 5.66704 10ZM19.167 0H7.16704C6.33985 0 5.66704 0.695312 5.66704 1.54969V3C6.39892 3 7.07642 3.21187 7.66704 3.55625V2H18.667V11H16.667V9H12.667V11H10.2845C10.8814 11.5216 11.3195 12.2103 11.5249 13H19.167C19.9942 13 20.667 12.3047 20.667 11.4503V1.54969C20.667 0.695312 19.9942 0 19.167 0Z" fill="#002082"/>
</svg>