<svg xmlns="http://www.w3.org/2000/svg" width="19" height="18" viewBox="0 0 19 18" fill="none">
  <path fill-rule="evenodd" clip-rule="evenodd" d="M3.37301 1.30917C5.34645 1.0195 7.33842 0.874393 9.33301 0.875002C11.358 0.875002 13.3472 1.02334 15.293 1.30834C16.9413 1.55167 18.083 2.995 18.083 4.61667V9.63334C18.083 11.255 16.9413 12.6983 15.293 12.9417C14.3316 13.0826 13.3654 13.189 12.3963 13.2608C12.347 13.2641 12.2991 13.2785 12.2562 13.3031C12.2133 13.3276 12.1766 13.3616 12.1488 13.4025L9.85301 16.8467C9.79593 16.9323 9.71861 17.0025 9.62789 17.051C9.53718 17.0995 9.43589 17.1249 9.33301 17.1249C9.23012 17.1249 9.12883 17.0995 9.03812 17.051C8.94741 17.0025 8.87008 16.9323 8.81301 16.8467L6.51717 13.4025C6.48941 13.3616 6.45268 13.3276 6.40979 13.3031C6.3669 13.2785 6.31898 13.2641 6.26967 13.2608C5.30061 13.1887 4.33444 13.082 3.37301 12.9408C1.72467 12.6992 0.583008 11.2542 0.583008 9.6325V4.6175C0.583008 2.99584 1.72467 1.55084 3.37301 1.30917ZM4.95801 5.875C4.95801 5.70924 5.02386 5.55027 5.14107 5.43306C5.25828 5.31585 5.41725 5.25 5.58301 5.25H13.083C13.2488 5.25 13.4077 5.31585 13.525 5.43306C13.6422 5.55027 13.708 5.70924 13.708 5.875C13.708 6.04076 13.6422 6.19973 13.525 6.31694C13.4077 6.43415 13.2488 6.5 13.083 6.5H5.58301C5.41725 6.5 5.25828 6.43415 5.14107 6.31694C5.02386 6.19973 4.95801 6.04076 4.95801 5.875ZM5.58301 7.75C5.41725 7.75 5.25828 7.81585 5.14107 7.93306C5.02386 8.05027 4.95801 8.20924 4.95801 8.375C4.95801 8.54076 5.02386 8.69973 5.14107 8.81694C5.25828 8.93415 5.41725 9 5.58301 9H9.33301C9.49877 9 9.65774 8.93415 9.77495 8.81694C9.89216 8.69973 9.95801 8.54076 9.95801 8.375C9.95801 8.20924 9.89216 8.05027 9.77495 7.93306C9.65774 7.81585 9.49877 7.75 9.33301 7.75H5.58301Z" fill="#002082"/>
</svg>