<svg xmlns="http://www.w3.org/2000/svg" width="21" height="20" viewBox="0 0 21 20" fill="none">
  <g clip-path="url(#clip0_528_800)">
    <path d="M7.16704 13C7.09235 13 7.01767 13.0109 6.94642 13.0341C6.54142 13.1656 6.11548 13.25 5.66704 13.25C5.2186 13.25 4.79267 13.1656 4.38735 13.0341C4.3161 13.0109 4.24173 13 4.16704 13C2.22767 13 0.65673 14.5775 0.667043 16.5194C0.671418 17.34 1.34611 18 2.16704 18H9.16704C9.98798 18 10.6627 17.34 10.667 16.5194C10.6774 14.5775 9.10642 13 7.16704 13ZM5.66704 12C7.32392 12 8.66704 10.6569 8.66704 9C8.66704 7.34312 7.32392 6 5.66704 6C4.01017 6 2.66704 7.34312 2.66704 9C2.66704 10.6569 4.01017 12 5.66704 12ZM19.167 2H7.16704C6.33985 2 5.66704 2.69531 5.66704 3.54969V5C6.39892 5 7.07642 5.21187 7.66704 5.55625V4H18.667V13H16.667V11H12.667V13H10.2845C10.8814 13.5216 11.3195 14.2103 11.5249 15H19.167C19.9942 15 20.667 14.3047 20.667 13.4503V3.54969C20.667 2.69531 19.9942 2 19.167 2Z" fill="#606060"/>
  </g>
  <defs>
    <clipPath id="clip0_528_800">
      <rect width="20" height="20" fill="white" transform="translate(0.666992)"/>
    </clipPath>
  </defs>
</svg>