<svg xmlns="http://www.w3.org/2000/svg" width="21" height="20" viewBox="0 0 21 20" fill="none">
  <path fill-rule="evenodd" clip-rule="evenodd" d="M4.37301 2.30917C6.34645 2.0195 8.33842 1.87439 10.333 1.875C12.358 1.875 14.3472 2.02334 16.293 2.30834C17.9413 2.55167 19.083 3.995 19.083 5.61667V10.6333C19.083 12.255 17.9413 13.6983 16.293 13.9417C15.3316 14.0826 14.3654 14.189 13.3963 14.2608C13.347 14.2641 13.2991 14.2785 13.2562 14.3031C13.2133 14.3276 13.1766 14.3616 13.1488 14.4025L10.853 17.8467C10.7959 17.9323 10.7186 18.0025 10.6279 18.051C10.5372 18.0995 10.4359 18.1249 10.333 18.1249C10.2301 18.1249 10.1288 18.0995 10.0381 18.051C9.94741 18.0025 9.87008 17.9323 9.81301 17.8467L7.51717 14.4025C7.48941 14.3616 7.45268 14.3276 7.40979 14.3031C7.3669 14.2785 7.31898 14.2641 7.26967 14.2608C6.30061 14.1887 5.33444 14.082 4.37301 13.9408C2.72467 13.6992 1.58301 12.2542 1.58301 10.6325V5.6175C1.58301 3.99584 2.72467 2.55084 4.37301 2.30917ZM5.95801 6.875C5.95801 6.70924 6.02386 6.55027 6.14107 6.43306C6.25828 6.31585 6.41725 6.25 6.58301 6.25H14.083C14.2488 6.25 14.4077 6.31585 14.525 6.43306C14.6422 6.55027 14.708 6.70924 14.708 6.875C14.708 7.04076 14.6422 7.19973 14.525 7.31694C14.4077 7.43415 14.2488 7.5 14.083 7.5H6.58301C6.41725 7.5 6.25828 7.43415 6.14107 7.31694C6.02386 7.19973 5.95801 7.04076 5.95801 6.875ZM6.58301 8.75C6.41725 8.75 6.25828 8.81585 6.14107 8.93306C6.02386 9.05027 5.95801 9.20924 5.95801 9.375C5.95801 9.54076 6.02386 9.69973 6.14107 9.81694C6.25828 9.93415 6.41725 10 6.58301 10H10.333C10.4988 10 10.6577 9.93415 10.7749 9.81694C10.8922 9.69973 10.958 9.54076 10.958 9.375C10.958 9.20924 10.8922 9.05027 10.7749 8.93306C10.6577 8.81585 10.4988 8.75 10.333 8.75H6.58301Z" fill="#606060"/>
</svg>