<svg
  width="20"
  height="20"
  viewBox="0 0 24 24"
  fill="none"
  xmlns="http://www.w3.org/2000/svg"
>
  <path
    d="M16.729 4.27111C16.542 4.08311 16.288 3.97707 16.0228 3.97632C15.7577 3.97557 15.5031 4.08017 15.315 4.26711C15.2158 4.36824 15.1391 4.48923 15.09 4.62211C14.258 6.35811 13.342 7.33711 12.186 7.91511C10.889 8.55511 9.4 9.00011 7 9.00011C6.80258 9.00104 6.6098 9.06004 6.44568 9.16975C6.28155 9.27947 6.15334 9.43505 6.077 9.61711C6.00143 9.79991 5.98171 10.001 6.02033 10.195C6.05895 10.389 6.15418 10.5672 6.294 10.7071L9.537 13.9501L5 20.0001L11.05 15.4631L14.292 18.7051C14.3849 18.7987 14.4958 18.8726 14.618 18.9221C14.74 18.9731 14.87 19.0001 15 19.0001C15.13 19.0001 15.26 18.9731 15.382 18.9221C15.5649 18.8471 15.7213 18.7194 15.8313 18.5552C15.9414 18.391 16.0001 18.1978 16 18.0001C16 15.6001 16.444 14.1111 17.083 12.8341C17.66 11.6781 18.639 10.7621 20.376 9.93011C20.5088 9.88145 20.6296 9.80471 20.73 9.70511C20.9169 9.51705 21.0215 9.26245 21.0208 8.99728C21.02 8.73212 20.914 8.47811 20.726 8.29111L16.729 4.27111Z"
    fill="white"
  />
</svg>